  0
SECTION
  2
HEADER
  9
$ACADVER
  1
AC1009
  9
$INSBASE
 10
0.0
 20
0.0
 30
0.0
  9
$EXTMIN
 10
0.0
 20
0.0
 30
0.0
  9
$EXTMAX
 10
0.0
 20
0.0
 30
0.0
  0
ENDSEC
  0
SECTION
  2
TABLES
  0
TABLE
  2
VPORT
 70
0
  0
ENDTAB
  0
TABLE
  2
LTYPE
 70
1
  0
LTYPE
  2
CONTINUOUS
 70
0
  3
Solid line
 72
65
 73
0
 40
0.0
  0
ENDTAB
  0
TABLE
  2
LAYER
 70
1
  0
LAYER
  2
0
 70
64
 62
7
  6
continuous
  0
ENDTAB
  0
TABLE
  2
STYLE
 70
1
  0
STYLE
  2
STANDARD
 70
0
 40
0
 41
1.0
 50
0.0
 71
0
 42
1
 3
ARIAL.TTF
 4

  0
ENDTAB
  0
TABLE
  2
VIEW
 70
0
  0
ENDTAB
  0
ENDSEC
  0
SECTION
  2
BLOCKS
  0
BLOCK
  8
0
  2
PAD002
 70
0
 10
0.0
 20
0.0
 30
0.0
  3
PAD002
  0
LINE
  8
0
 62
0
 10
40.2695998502
 20
-38.3309903919
 30
0.0
 11
41.8695998502
 21
-38.3309903919
 31
0.0
  0
LINE
  8
0
 62
0
 10
41.8695998502
 20
-38.3309903919
 30
0.0
 11
41.8695998502
 21
-41.3309903919
 31
0.0
  0
LINE
  8
0
 62
0
 10
41.8695998502
 20
-41.3309903919
 30
0.0
 11
40.2695998502
 21
-41.3309903919
 31
0.0
  0
LINE
  8
0
 62
0
 10
40.2695998502
 20
-41.3309903919
 30
0.0
 11
40.2695998502
 21
-38.3309903919
 31
0.0
  0
LINE
  8
0
 62
0
 10
40.2695998502
 20
-26.3309903919
 30
0.0
 11
41.8695998502
 21
-26.3309903919
 31
0.0
  0
LINE
  8
0
 62
0
 10
41.8695998502
 20
-26.3309903919
 30
0.0
 11
41.8695998502
 21
-23.3309903919
 31
0.0
  0
LINE
  8
0
 62
0
 10
41.8695998502
 20
-23.3309903919
 30
0.0
 11
40.2695998502
 21
-23.3309903919
 31
0.0
  0
LINE
  8
0
 62
0
 10
40.2695998502
 20
-23.3309903919
 30
0.0
 11
40.2695998502
 21
-26.3309903919
 31
0.0
  0
LINE
  8
0
 62
0
 10
24.7695998502
 20
-38.3309903919
 30
0.0
 11
23.1695998502
 21
-38.3309903919
 31
0.0
  0
LINE
  8
0
 62
0
 10
23.1695998502
 20
-38.3309903919
 30
0.0
 11
23.1695998502
 21
-41.3309903919
 31
0.0
  0
LINE
  8
0
 62
0
 10
23.1695998502
 20
-41.3309903919
 30
0.0
 11
24.7695998502
 21
-41.3309903919
 31
0.0
  0
LINE
  8
0
 62
0
 10
24.7695998502
 20
-41.3309903919
 30
0.0
 11
24.7695998502
 21
-38.3309903919
 31
0.0
  0
LINE
  8
0
 62
0
 10
24.7695998502
 20
-26.3309903919
 30
0.0
 11
23.1695998502
 21
-26.3309903919
 31
0.0
  0
LINE
  8
0
 62
0
 10
23.1695998502
 20
-26.3309903919
 30
0.0
 11
23.1695998502
 21
-23.3309903919
 31
0.0
  0
LINE
  8
0
 62
0
 10
23.1695998502
 20
-23.3309903919
 30
0.0
 11
24.7695998502
 21
-23.3309903919
 31
0.0
  0
LINE
  8
0
 62
0
 10
24.7695998502
 20
-23.3309903919
 30
0.0
 11
24.7695998502
 21
-26.3309903919
 31
0.0
  0
ENDBLK
  0
BLOCK
  8
0
  2
PAD007
 70
0
 10
0.0
 20
0.0
 30
0.0
  3
PAD007
  0
LINE
  8
0
 62
0
 10
-6.43980304599
 20
-25.2291546511
 30
0.0
 11
-6.43980304599
 21
-23.6291546511
 31
0.0
  0
LINE
  8
0
 62
0
 10
-6.43980304599
 20
-23.6291546511
 30
0.0
 11
-3.43980304599
 21
-23.6291546511
 31
0.0
  0
LINE
  8
0
 62
0
 10
-3.43980304599
 20
-23.6291546511
 30
0.0
 11
-3.43980304599
 21
-25.2291546511
 31
0.0
  0
LINE
  8
0
 62
0
 10
-3.43980304599
 20
-25.2291546511
 30
0.0
 11
-6.43980304599
 21
-25.2291546511
 31
0.0
  0
LINE
  8
0
 62
0
 10
-18.439803046
 20
-25.2291546511
 30
0.0
 11
-18.439803046
 21
-23.6291546511
 31
0.0
  0
LINE
  8
0
 62
0
 10
-18.439803046
 20
-23.6291546511
 30
0.0
 11
-21.439803046
 21
-23.6291546511
 31
0.0
  0
LINE
  8
0
 62
0
 10
-21.439803046
 20
-23.6291546511
 30
0.0
 11
-21.439803046
 21
-25.2291546511
 31
0.0
  0
LINE
  8
0
 62
0
 10
-21.439803046
 20
-25.2291546511
 30
0.0
 11
-18.439803046
 21
-25.2291546511
 31
0.0
  0
LINE
  8
0
 62
0
 10
-6.43980304599
 20
-40.7291546511
 30
0.0
 11
-6.43980304599
 21
-42.3291546511
 31
0.0
  0
LINE
  8
0
 62
0
 10
-6.43980304599
 20
-42.3291546511
 30
0.0
 11
-3.43980304599
 21
-42.3291546511
 31
0.0
  0
LINE
  8
0
 62
0
 10
-3.43980304599
 20
-42.3291546511
 30
0.0
 11
-3.43980304599
 21
-40.7291546511
 31
0.0
  0
LINE
  8
0
 62
0
 10
-3.43980304599
 20
-40.7291546511
 30
0.0
 11
-6.43980304599
 21
-40.7291546511
 31
0.0
  0
LINE
  8
0
 62
0
 10
-18.439803046
 20
-40.7291546511
 30
0.0
 11
-18.439803046
 21
-42.3291546511
 31
0.0
  0
LINE
  8
0
 62
0
 10
-18.439803046
 20
-42.3291546511
 30
0.0
 11
-21.439803046
 21
-42.3291546511
 31
0.0
  0
LINE
  8
0
 62
0
 10
-21.439803046
 20
-42.3291546511
 30
0.0
 11
-21.439803046
 21
-40.7291546511
 31
0.0
  0
LINE
  8
0
 62
0
 10
-21.439803046
 20
-40.7291546511
 30
0.0
 11
-18.439803046
 21
-40.7291546511
 31
0.0
  0
ENDBLK
  0
BLOCK
  8
0
  2
PAD006
 70
0
 10
0.0
 20
0.0
 30
0.0
  3
PAD006
  0
LINE
  8
0
 62
0
 10
17.3090524256
 20
45.3606738401
 30
0.0
 11
17.3090524256
 21
46.9606738401
 31
0.0
  0
LINE
  8
0
 62
0
 10
17.3090524256
 20
46.9606738401
 30
0.0
 11
20.3090524256
 21
46.9606738401
 31
0.0
  0
LINE
  8
0
 62
0
 10
20.3090524256
 20
46.9606738401
 30
0.0
 11
20.3090524256
 21
45.3606738401
 31
0.0
  0
LINE
  8
0
 62
0
 10
20.3090524256
 20
45.3606738401
 30
0.0
 11
17.3090524256
 21
45.3606738401
 31
0.0
  0
LINE
  8
0
 62
0
 10
5.30905242563
 20
45.3606738401
 30
0.0
 11
5.30905242563
 21
46.9606738401
 31
0.0
  0
LINE
  8
0
 62
0
 10
5.30905242563
 20
46.9606738401
 30
0.0
 11
2.30905242563
 21
46.9606738401
 31
0.0
  0
LINE
  8
0
 62
0
 10
2.30905242563
 20
46.9606738401
 30
0.0
 11
2.30905242563
 21
45.3606738401
 31
0.0
  0
LINE
  8
0
 62
0
 10
2.30905242563
 20
45.3606738401
 30
0.0
 11
5.30905242563
 21
45.3606738401
 31
0.0
  0
LINE
  8
0
 62
0
 10
17.3090524256
 20
29.8606738401
 30
0.0
 11
17.3090524256
 21
28.2606738401
 31
0.0
  0
LINE
  8
0
 62
0
 10
17.3090524256
 20
28.2606738401
 30
0.0
 11
20.3090524256
 21
28.2606738401
 31
0.0
  0
LINE
  8
0
 62
0
 10
20.3090524256
 20
28.2606738401
 30
0.0
 11
20.3090524256
 21
29.8606738401
 31
0.0
  0
LINE
  8
0
 62
0
 10
20.3090524256
 20
29.8606738401
 30
0.0
 11
17.3090524256
 21
29.8606738401
 31
0.0
  0
LINE
  8
0
 62
0
 10
5.30905242563
 20
29.8606738401
 30
0.0
 11
5.30905242563
 21
28.2606738401
 31
0.0
  0
LINE
  8
0
 62
0
 10
5.30905242563
 20
28.2606738401
 30
0.0
 11
2.30905242563
 21
28.2606738401
 31
0.0
  0
LINE
  8
0
 62
0
 10
2.30905242563
 20
28.2606738401
 30
0.0
 11
2.30905242563
 21
29.8606738401
 31
0.0
  0
LINE
  8
0
 62
0
 10
2.30905242563
 20
29.8606738401
 30
0.0
 11
5.30905242563
 21
29.8606738401
 31
0.0
  0
ENDBLK
  0
BLOCK
  8
0
  2
PAD008
 70
0
 10
0.0
 20
0.0
 30
0.0
  3
PAD008
  0
LINE
  8
0
 62
0
 10
17.1154765666
 20
-25.2641411471
 30
0.0
 11
17.1154765666
 21
-23.6641411471
 31
0.0
  0
LINE
  8
0
 62
0
 10
17.1154765666
 20
-23.6641411471
 30
0.0
 11
20.1154765666
 21
-23.6641411471
 31
0.0
  0
LINE
  8
0
 62
0
 10
20.1154765666
 20
-23.6641411471
 30
0.0
 11
20.1154765666
 21
-25.2641411471
 31
0.0
  0
LINE
  8
0
 62
0
 10
20.1154765666
 20
-25.2641411471
 30
0.0
 11
17.1154765666
 21
-25.2641411471
 31
0.0
  0
LINE
  8
0
 62
0
 10
5.11547656665
 20
-25.2641411471
 30
0.0
 11
5.11547656665
 21
-23.6641411471
 31
0.0
  0
LINE
  8
0
 62
0
 10
5.11547656665
 20
-23.6641411471
 30
0.0
 11
2.11547656665
 21
-23.6641411471
 31
0.0
  0
LINE
  8
0
 62
0
 10
2.11547656665
 20
-23.6641411471
 30
0.0
 11
2.11547656665
 21
-25.2641411471
 31
0.0
  0
LINE
  8
0
 62
0
 10
2.11547656665
 20
-25.2641411471
 30
0.0
 11
5.11547656665
 21
-25.2641411471
 31
0.0
  0
LINE
  8
0
 62
0
 10
17.1154765666
 20
-40.7641411471
 30
0.0
 11
17.1154765666
 21
-42.3641411471
 31
0.0
  0
LINE
  8
0
 62
0
 10
17.1154765666
 20
-42.3641411471
 30
0.0
 11
20.1154765666
 21
-42.3641411471
 31
0.0
  0
LINE
  8
0
 62
0
 10
20.1154765666
 20
-42.3641411471
 30
0.0
 11
20.1154765666
 21
-40.7641411471
 31
0.0
  0
LINE
  8
0
 62
0
 10
20.1154765666
 20
-40.7641411471
 30
0.0
 11
17.1154765666
 21
-40.7641411471
 31
0.0
  0
LINE
  8
0
 62
0
 10
5.11547656665
 20
-40.7641411471
 30
0.0
 11
5.11547656665
 21
-42.3641411471
 31
0.0
  0
LINE
  8
0
 62
0
 10
5.11547656665
 20
-42.3641411471
 30
0.0
 11
2.11547656665
 21
-42.3641411471
 31
0.0
  0
LINE
  8
0
 62
0
 10
2.11547656665
 20
-42.3641411471
 30
0.0
 11
2.11547656665
 21
-40.7641411471
 31
0.0
  0
LINE
  8
0
 62
0
 10
2.11547656665
 20
-40.7641411471
 30
0.0
 11
5.11547656665
 21
-40.7641411471
 31
0.0
  0
ENDBLK
  0
BLOCK
  8
0
  2
POCKET004
 70
0
 10
0.0
 20
0.0
 30
0.0
  3
POCKET004
  0
LINE
  8
0
 62
0
 10
61.0
 20
52.0
 30
0.0
 11
-49.0
 21
52.0
 31
0.0
  0
LINE
  8
0
 62
0
 10
61.0
 20
52.0
 30
0.0
 11
61.0
 21
27.0
 31
0.0
  0
LINE
  8
0
 62
0
 10
-49.0
 20
52.0
 30
0.0
 11
-49.0
 21
-45.0
 31
0.0
  0
LINE
  8
0
 62
0
 10
56.0
 20
27.0
 30
0.0
 11
61.0
 21
27.0
 31
0.0
  0
LINE
  8
0
 62
0
 10
-49.0
 20
-45.0
 30
0.0
 11
41.0
 21
-45.0
 31
0.0
  0
LINE
  8
0
 62
0
 10
56.0
 20
-28.0
 30
0.0
 11
56.0
 21
27.0
 31
0.0
  0
LINE
  8
0
 62
0
 10
41.0
 20
-45.0
 30
0.0
 11
56.0
 21
-28.0
 31
0.0
  0
CIRCLE
  8
0
 62
0
 10
45.3
 20
14.55
 30
0.0
 40
1.5
  0
LINE
  8
0
 62
0
 10
42.3
 20
-0.7
 30
0.0
 11
42.3
 21
6.3
 31
0.0
  0
LINE
  8
0
 62
0
 10
48.3
 20
-0.7
 30
0.0
 11
42.3
 21
-0.7
 31
0.0
  0
LINE
  8
0
 62
0
 10
42.3
 20
6.3
 30
0.0
 11
48.3
 21
6.3
 31
0.0
  0
LINE
  8
0
 62
0
 10
48.3
 20
6.3
 30
0.0
 11
48.3
 21
-0.7
 31
0.0
  0
LINE
  8
0
 62
0
 10
24.0
 20
-27.25
 30
0.0
 11
24.0
 21
-36.75
 31
0.0
  0
LINE
  8
0
 62
0
 10
-24.0
 20
-27.25
 30
0.0
 11
24.0
 21
-27.25
 31
0.0
  0
LINE
  8
0
 62
0
 10
24.0
 20
-36.75
 30
0.0
 11
-24.0
 21
-36.75
 31
0.0
  0
LINE
  8
0
 62
0
 10
-24.0
 20
-36.75
 30
0.0
 11
-24.0
 21
-27.25
 31
0.0
  0
LINE
  8
0
 62
0
 10
18.15
 20
22.0
 30
0.0
 11
12.15
 21
22.0
 31
0.0
  0
LINE
  8
0
 62
0
 10
18.15
 20
28.0
 30
0.0
 11
18.15
 21
22.0
 31
0.0
  0
LINE
  8
0
 62
0
 10
12.15
 20
22.0
 30
0.0
 11
12.15
 21
28.0
 31
0.0
  0
LINE
  8
0
 62
0
 10
12.15
 20
28.0
 30
0.0
 11
18.15
 21
28.0
 31
0.0
  0
LINE
  8
0
 62
0
 10
-28.0354181012
 20
48.0
 30
0.0
 11
-27.25
 21
-42.0
 31
0.0
  0
LINE
  8
0
 62
0
 10
-37.7854181012
 20
48.0
 30
0.0
 11
-28.0354181012
 21
48.0
 31
0.0
  0
LINE
  8
0
 62
0
 10
-37.0
 20
-42.0
 30
0.0
 11
-27.25
 21
-42.0
 31
0.0
  0
LINE
  8
0
 62
0
 10
-37.7854181012
 20
48.0
 30
0.0
 11
-37.0
 21
-42.0
 31
0.0
  0
CIRCLE
  8
0
 62
0
 10
-15.5
 20
15.5
 30
0.0
 40
1.5
  0
CIRCLE
  8
0
 62
0
 10
0.0
 20
0.0
 30
0.0
 40
11.0
  0
CIRCLE
  8
0
 62
0
 10
45.3
 20
-8.95
 30
0.0
 40
1.5
  0
CIRCLE
  8
0
 62
0
 10
15.5
 20
15.5
 30
0.0
 40
1.5
  0
LINE
  8
0
 62
0
 10
28.0
 20
-42.0
 30
0.0
 11
27.2145818988
 21
48.0
 31
0.0
  0
LINE
  8
0
 62
0
 10
28.0
 20
-42.0
 30
0.0
 11
37.75
 21
-42.0
 31
0.0
  0
LINE
  8
0
 62
0
 10
27.2145818988
 20
48.0
 30
0.0
 11
36.9645818988
 21
48.0
 31
0.0
  0
LINE
  8
0
 62
0
 10
36.9645818988
 20
48.0
 30
0.0
 11
37.75
 21
-42.0
 31
0.0
  0
LINE
  8
0
 62
0
 10
-24.0
 20
42.25
 30
0.0
 11
24.0
 21
42.25
 31
0.0
  0
LINE
  8
0
 62
0
 10
-24.0
 20
32.75
 30
0.0
 11
-24.0
 21
42.25
 31
0.0
  0
LINE
  8
0
 62
0
 10
24.0
 20
42.25
 30
0.0
 11
24.0
 21
32.75
 31
0.0
  0
LINE
  8
0
 62
0
 10
24.0
 20
32.75
 30
0.0
 11
-24.0
 21
32.75
 31
0.0
  0
CIRCLE
  8
0
 62
0
 10
50.0
 20
33.0
 30
0.0
 40
0.6
  0
CIRCLE
  8
0
 62
0
 10
15.5
 20
-15.5
 30
0.0
 40
1.5
  0
LINE
  8
0
 62
0
 10
0.15
 20
28.0
 30
0.0
 11
0.15
 21
22.0
 31
0.0
  0
LINE
  8
0
 62
0
 10
-5.85
 20
28.0
 30
0.0
 11
0.15
 21
28.0
 31
0.0
  0
LINE
  8
0
 62
0
 10
0.15
 20
22.0
 30
0.0
 11
-5.85
 21
22.0
 31
0.0
  0
LINE
  8
0
 62
0
 10
-5.85
 20
22.0
 30
0.0
 11
-5.85
 21
28.0
 31
0.0
  0
CIRCLE
  8
0
 62
0
 10
-15.5
 20
-15.5
 30
0.0
 40
1.5
  0
CIRCLE
  8
0
 62
0
 10
50.0
 20
42.5
 30
0.0
 40
0.6
  0
CIRCLE
  8
0
 62
0
 10
6.15
 20
25.0
 30
0.0
 40
1.5
  0
ENDBLK
  0
BLOCK
  8
0
  2
PAD004
 70
0
 10
0.0
 20
0.0
 30
0.0
  3
PAD004
  0
LINE
  8
0
 62
0
 10
39.3016928984
 20
31.1650222958
 30
0.0
 11
40.9016928984
 21
31.1650222958
 31
0.0
  0
LINE
  8
0
 62
0
 10
40.9016928984
 20
31.1650222958
 30
0.0
 11
40.9016928984
 21
28.1650222958
 31
0.0
  0
LINE
  8
0
 62
0
 10
40.9016928984
 20
28.1650222958
 30
0.0
 11
39.3016928984
 21
28.1650222958
 31
0.0
  0
LINE
  8
0
 62
0
 10
39.3016928984
 20
28.1650222958
 30
0.0
 11
39.3016928984
 21
31.1650222958
 31
0.0
  0
LINE
  8
0
 62
0
 10
39.3016928984
 20
43.1650222958
 30
0.0
 11
40.9016928984
 21
43.1650222958
 31
0.0
  0
LINE
  8
0
 62
0
 10
40.9016928984
 20
43.1650222958
 30
0.0
 11
40.9016928984
 21
46.1650222958
 31
0.0
  0
LINE
  8
0
 62
0
 10
40.9016928984
 20
46.1650222958
 30
0.0
 11
39.3016928984
 21
46.1650222958
 31
0.0
  0
LINE
  8
0
 62
0
 10
39.3016928984
 20
46.1650222958
 30
0.0
 11
39.3016928984
 21
43.1650222958
 31
0.0
  0
LINE
  8
0
 62
0
 10
23.8016928984
 20
31.1650222958
 30
0.0
 11
22.2016928984
 21
31.1650222958
 31
0.0
  0
LINE
  8
0
 62
0
 10
22.2016928984
 20
31.1650222958
 30
0.0
 11
22.2016928984
 21
28.1650222958
 31
0.0
  0
LINE
  8
0
 62
0
 10
22.2016928984
 20
28.1650222958
 30
0.0
 11
23.8016928984
 21
28.1650222958
 31
0.0
  0
LINE
  8
0
 62
0
 10
23.8016928984
 20
28.1650222958
 30
0.0
 11
23.8016928984
 21
31.1650222958
 31
0.0
  0
LINE
  8
0
 62
0
 10
23.8016928984
 20
43.1650222958
 30
0.0
 11
22.2016928984
 21
43.1650222958
 31
0.0
  0
LINE
  8
0
 62
0
 10
22.2016928984
 20
43.1650222958
 30
0.0
 11
22.2016928984
 21
46.1650222958
 31
0.0
  0
LINE
  8
0
 62
0
 10
22.2016928984
 20
46.1650222958
 30
0.0
 11
23.8016928984
 21
46.1650222958
 31
0.0
  0
LINE
  8
0
 62
0
 10
23.8016928984
 20
46.1650222958
 30
0.0
 11
23.8016928984
 21
43.1650222958
 31
0.0
  0
ENDBLK
  0
BLOCK
  8
0
  2
PAD009
 70
0
 10
0.0
 20
0.0
 30
0.0
  3
PAD009
  0
LINE
  8
0
 62
0
 10
-7.1545571506
 20
45.5275496794
 30
0.0
 11
-7.1545571506
 21
47.1275496794
 31
0.0
  0
LINE
  8
0
 62
0
 10
-7.1545571506
 20
47.1275496794
 30
0.0
 11
-4.1545571506
 21
47.1275496794
 31
0.0
  0
LINE
  8
0
 62
0
 10
-4.1545571506
 20
47.1275496794
 30
0.0
 11
-4.1545571506
 21
45.5275496794
 31
0.0
  0
LINE
  8
0
 62
0
 10
-4.1545571506
 20
45.5275496794
 30
0.0
 11
-7.1545571506
 21
45.5275496794
 31
0.0
  0
LINE
  8
0
 62
0
 10
-19.1545571506
 20
45.5275496794
 30
0.0
 11
-19.1545571506
 21
47.1275496794
 31
0.0
  0
LINE
  8
0
 62
0
 10
-19.1545571506
 20
47.1275496794
 30
0.0
 11
-22.1545571506
 21
47.1275496794
 31
0.0
  0
LINE
  8
0
 62
0
 10
-22.1545571506
 20
47.1275496794
 30
0.0
 11
-22.1545571506
 21
45.5275496794
 31
0.0
  0
LINE
  8
0
 62
0
 10
-22.1545571506
 20
45.5275496794
 30
0.0
 11
-19.1545571506
 21
45.5275496794
 31
0.0
  0
LINE
  8
0
 62
0
 10
-7.1545571506
 20
30.0275496794
 30
0.0
 11
-7.1545571506
 21
28.4275496794
 31
0.0
  0
LINE
  8
0
 62
0
 10
-7.1545571506
 20
28.4275496794
 30
0.0
 11
-4.1545571506
 21
28.4275496794
 31
0.0
  0
LINE
  8
0
 62
0
 10
-4.1545571506
 20
28.4275496794
 30
0.0
 11
-4.1545571506
 21
30.0275496794
 31
0.0
  0
LINE
  8
0
 62
0
 10
-4.1545571506
 20
30.0275496794
 30
0.0
 11
-7.1545571506
 21
30.0275496794
 31
0.0
  0
LINE
  8
0
 62
0
 10
-19.1545571506
 20
30.0275496794
 30
0.0
 11
-19.1545571506
 21
28.4275496794
 31
0.0
  0
LINE
  8
0
 62
0
 10
-19.1545571506
 20
28.4275496794
 30
0.0
 11
-22.1545571506
 21
28.4275496794
 31
0.0
  0
LINE
  8
0
 62
0
 10
-22.1545571506
 20
28.4275496794
 30
0.0
 11
-22.1545571506
 21
30.0275496794
 31
0.0
  0
LINE
  8
0
 62
0
 10
-22.1545571506
 20
30.0275496794
 30
0.0
 11
-19.1545571506
 21
30.0275496794
 31
0.0
  0
ENDBLK
  0
BLOCK
  8
0
  2
PAD003
 70
0
 10
0.0
 20
0.0
 30
0.0
  3
PAD003
  0
LINE
  8
0
 62
0
 10
-24.7740307497
 20
31.3586067379
 30
0.0
 11
-23.1740307497
 21
31.3586067379
 31
0.0
  0
LINE
  8
0
 62
0
 10
-23.1740307497
 20
31.3586067379
 30
0.0
 11
-23.1740307497
 21
28.3586067379
 31
0.0
  0
LINE
  8
0
 62
0
 10
-23.1740307497
 20
28.3586067379
 30
0.0
 11
-24.7740307497
 21
28.3586067379
 31
0.0
  0
LINE
  8
0
 62
0
 10
-24.7740307497
 20
28.3586067379
 30
0.0
 11
-24.7740307497
 21
31.3586067379
 31
0.0
  0
LINE
  8
0
 62
0
 10
-24.7740307497
 20
43.3586067379
 30
0.0
 11
-23.1740307497
 21
43.3586067379
 31
0.0
  0
LINE
  8
0
 62
0
 10
-23.1740307497
 20
43.3586067379
 30
0.0
 11
-23.1740307497
 21
46.3586067379
 31
0.0
  0
LINE
  8
0
 62
0
 10
-23.1740307497
 20
46.3586067379
 30
0.0
 11
-24.7740307497
 21
46.3586067379
 31
0.0
  0
LINE
  8
0
 62
0
 10
-24.7740307497
 20
46.3586067379
 30
0.0
 11
-24.7740307497
 21
43.3586067379
 31
0.0
  0
LINE
  8
0
 62
0
 10
-40.2740307497
 20
31.3586067379
 30
0.0
 11
-41.8740307497
 21
31.3586067379
 31
0.0
  0
LINE
  8
0
 62
0
 10
-41.8740307497
 20
31.3586067379
 30
0.0
 11
-41.8740307497
 21
28.3586067379
 31
0.0
  0
LINE
  8
0
 62
0
 10
-41.8740307497
 20
28.3586067379
 30
0.0
 11
-40.2740307497
 21
28.3586067379
 31
0.0
  0
LINE
  8
0
 62
0
 10
-40.2740307497
 20
28.3586067379
 30
0.0
 11
-40.2740307497
 21
31.3586067379
 31
0.0
  0
LINE
  8
0
 62
0
 10
-40.2740307497
 20
43.3586067379
 30
0.0
 11
-41.8740307497
 21
43.3586067379
 31
0.0
  0
LINE
  8
0
 62
0
 10
-41.8740307497
 20
43.3586067379
 30
0.0
 11
-41.8740307497
 21
46.3586067379
 31
0.0
  0
LINE
  8
0
 62
0
 10
-41.8740307497
 20
46.3586067379
 30
0.0
 11
-40.2740307497
 21
46.3586067379
 31
0.0
  0
LINE
  8
0
 62
0
 10
-40.2740307497
 20
46.3586067379
 30
0.0
 11
-40.2740307497
 21
43.3586067379
 31
0.0
  0
ENDBLK
  0
BLOCK
  8
0
  2
PAD005
 70
0
 10
0.0
 20
0.0
 30
0.0
  3
PAD005
  0
LINE
  8
0
 62
0
 10
-24.193281238
 20
-38.1374145329
 30
0.0
 11
-22.593281238
 21
-38.1374145329
 31
0.0
  0
LINE
  8
0
 62
0
 10
-22.593281238
 20
-38.1374145329
 30
0.0
 11
-22.593281238
 21
-41.1374145329
 31
0.0
  0
LINE
  8
0
 62
0
 10
-22.593281238
 20
-41.1374145329
 30
0.0
 11
-24.193281238
 21
-41.1374145329
 31
0.0
  0
LINE
  8
0
 62
0
 10
-24.193281238
 20
-41.1374145329
 30
0.0
 11
-24.193281238
 21
-38.1374145329
 31
0.0
  0
LINE
  8
0
 62
0
 10
-24.193281238
 20
-26.1374145329
 30
0.0
 11
-22.593281238
 21
-26.1374145329
 31
0.0
  0
LINE
  8
0
 62
0
 10
-22.593281238
 20
-26.1374145329
 30
0.0
 11
-22.593281238
 21
-23.1374145329
 31
0.0
  0
LINE
  8
0
 62
0
 10
-22.593281238
 20
-23.1374145329
 30
0.0
 11
-24.193281238
 21
-23.1374145329
 31
0.0
  0
LINE
  8
0
 62
0
 10
-24.193281238
 20
-23.1374145329
 30
0.0
 11
-24.193281238
 21
-26.1374145329
 31
0.0
  0
LINE
  8
0
 62
0
 10
-39.693281238
 20
-38.1374145329
 30
0.0
 11
-41.293281238
 21
-38.1374145329
 31
0.0
  0
LINE
  8
0
 62
0
 10
-41.293281238
 20
-38.1374145329
 30
0.0
 11
-41.293281238
 21
-41.1374145329
 31
0.0
  0
LINE
  8
0
 62
0
 10
-41.293281238
 20
-41.1374145329
 30
0.0
 11
-39.693281238
 21
-41.1374145329
 31
0.0
  0
LINE
  8
0
 62
0
 10
-39.693281238
 20
-41.1374145329
 30
0.0
 11
-39.693281238
 21
-38.1374145329
 31
0.0
  0
LINE
  8
0
 62
0
 10
-39.693281238
 20
-26.1374145329
 30
0.0
 11
-41.293281238
 21
-26.1374145329
 31
0.0
  0
LINE
  8
0
 62
0
 10
-41.293281238
 20
-26.1374145329
 30
0.0
 11
-41.293281238
 21
-23.1374145329
 31
0.0
  0
LINE
  8
0
 62
0
 10
-41.293281238
 20
-23.1374145329
 30
0.0
 11
-39.693281238
 21
-23.1374145329
 31
0.0
  0
LINE
  8
0
 62
0
 10
-39.693281238
 20
-23.1374145329
 30
0.0
 11
-39.693281238
 21
-26.1374145329
 31
0.0
  0
ENDBLK
  0
ENDSEC
  0
SECTION
  2
ENTITIES
  0
INSERT
  2
PAD002
  8
0
 10
0.0
 20
0.0
 30
0.0
  0
INSERT
  2
PAD007
  8
0
 10
0.0
 20
0.0
 30
0.0
  0
INSERT
  2
PAD006
  8
0
 10
0.0
 20
0.0
 30
0.0
  0
INSERT
  2
PAD008
  8
0
 10
0.0
 20
0.0
 30
0.0
  0
INSERT
  2
POCKET004
  8
0
 10
0.0
 20
0.0
 30
0.0
  0
INSERT
  2
PAD004
  8
0
 10
0.0
 20
0.0
 30
0.0
  0
INSERT
  2
PAD009
  8
0
 10
0.0
 20
0.0
 30
0.0
  0
INSERT
  2
PAD003
  8
0
 10
0.0
 20
0.0
 30
0.0
  0
INSERT
  2
PAD005
  8
0
 10
0.0
 20
0.0
 30
0.0
  0
ENDSEC
  0
EOF
