<?xml version="1.0" standalone="no"?>
 <!DOCTYPE svg PUBLIC "-//W3C//DTD SVG 1.1//EN" 
 "http://www.w3.org/Graphics/SVG/1.1/DTD/svg11.dtd"> 
<svg xmlns="http://www.w3.org/2000/svg" version="1.1" 
    width="29.7002cm" height="21.0007cm" viewBox="0 0 116930 82680 ">
<title>SVG Picture created as touchled-F.Cu.svg date 2018/08/01 13:05:05 </title>
  <desc>Picture generated by PCBNEW </desc>
<g style="fill:#000000; fill-opacity:1;stroke:#000000; stroke-opacity:1;
stroke-linecap:round; stroke-linejoin:round; "
 transform="translate(0 0) scale(1 1)">
</g>
<g style="fill:#000000; fill-opacity:0.0; 
stroke:#000000; stroke-width:-0.000393701; stroke-opacity:1; 
stroke-linecap:round; stroke-linejoin:round;">
</g>
<g style="fill:#000000; fill-opacity:0.0; 
stroke:#000000; stroke-width:0; stroke-opacity:1; 
stroke-linecap:round; stroke-linejoin:round;">
</g>
<g style="fill:#000000; fill-opacity:1.0; 
stroke:#000000; stroke-width:0; stroke-opacity:1; 
stroke-linecap:round; stroke-linejoin:round;">
<polyline style="fill-rule:evenodd;"
points="-1983,-720
-1668,-720
-1668,-366
-1983,-366
-1983,-720
" /> 
<polyline style="fill-rule:evenodd;"
points="-2731,-720
-2416,-720
-2416,-366
-2731,-366
-2731,-720
" /> 
<polyline style="fill-rule:evenodd;"
points="-2357,66
-2042,66
-2042,420
-2357,420
-2357,66
" /> 
<circle cx="4253.94" cy="0" r="393.701" /> 
</g>
<g style="fill:#000000; fill-opacity:1.0; 
stroke:#000000; stroke-width:39.3701; stroke-opacity:1; 
stroke-linecap:round; stroke-linejoin:round;">
</g>
<g style="fill:#000000; fill-opacity:1.0; 
stroke:#000000; stroke-width:0; stroke-opacity:1; 
stroke-linecap:round; stroke-linejoin:round;">
<circle cx="-4250" cy="0" r="393.701" /> 
</g>
<g style="fill:#000000; fill-opacity:1.0; 
stroke:#000000; stroke-width:39.3701; stroke-opacity:1; 
stroke-linecap:round; stroke-linejoin:round;">
</g>
<g style="fill:#000000; fill-opacity:1.0; 
stroke:#000000; stroke-width:314.961; stroke-opacity:1; 
stroke-linecap:round; stroke-linejoin:round;">
</g>
<g style="fill:#000000; fill-opacity:0.0; 
stroke:#000000; stroke-width:314.961; stroke-opacity:1; 
stroke-linecap:round; stroke-linejoin:round;">
<path d="M778 -3800
L621 -3800
" />
<path d="M-1950 -3571
L-1950 -3728
" />
</g>
<g style="fill:#000000; fill-opacity:0.0; 
stroke:#000000; stroke-width:0; stroke-opacity:1; 
stroke-linecap:round; stroke-linejoin:round;">
</g>
<g style="fill:#000000; fill-opacity:1.0; 
stroke:#000000; stroke-width:0; stroke-opacity:1; 
stroke-linecap:round; stroke-linejoin:round;">
<polyline style="fill-rule:evenodd;"
points="-3393,3293
-3393,2506
-2606,2506
-2606,3293
-3393,3293
" /> 
<polyline style="fill-rule:evenodd;"
points="-1653,3003
-2146,3003
-2146,2412
-1653,2412
-1653,3003
" /> 
<polyline style="fill-rule:evenodd;"
points="-1653,3987
-2146,3987
-2146,3396
-1653,3396
-1653,3987
" /> 
<polyline style="fill-rule:evenodd;"
points="-2269,-1048
-2780,-1048
-2780,-1638
-2269,-1638
-2269,-1048
" /> 
<polyline style="fill-rule:evenodd;"
points="-2269,-2111
-2780,-2111
-2780,-2701
-2269,-2701
-2269,-2111
" /> 
<polyline style="fill-rule:evenodd;"
points="324,3953
324,3698
938,3698
938,3953
324,3953
" /> 
<polyline style="fill-rule:evenodd;"
points="324,3520
324,3264
938,3264
938,3520
324,3520
" /> 
<polyline style="fill-rule:evenodd;"
points="324,4387
324,4131
938,4131
938,4387
324,4387
" /> 
<polyline style="fill-rule:evenodd;"
points="-738,4387
-738,4131
-124,4131
-124,4387
-738,4387
" /> 
<polyline style="fill-rule:evenodd;"
points="-738,3953
-738,3698
-124,3698
-124,3953
-738,3953
" /> 
<polyline style="fill-rule:evenodd;"
points="-738,3520
-738,3264
-124,3264
-124,3520
-738,3520
" /> 
<polyline style="fill-rule:evenodd;"
points="-860,-3007
-860,-3263
-246,-3263
-246,-3007
-860,-3007
" /> 
<polyline style="fill-rule:evenodd;"
points="-860,-2574
-860,-2829
-246,-2829
-246,-2574
-860,-2574
" /> 
<polyline style="fill-rule:evenodd;"
points="-860,-2141
-860,-2396
-246,-2396
-246,-2141
-860,-2141
" /> 
<polyline style="fill-rule:evenodd;"
points="202,-2141
202,-2396
816,-2396
816,-2141
202,-2141
" /> 
<polyline style="fill-rule:evenodd;"
points="202,-3007
202,-3263
816,-3263
816,-3007
202,-3007
" /> 
<polyline style="fill-rule:evenodd;"
points="202,-2574
202,-2829
816,-2829
816,-2574
202,-2574
" /> 
</g>
<g style="fill:#000000; fill-opacity:1.0; 
stroke:#000000; stroke-width:314.961; stroke-opacity:1; 
stroke-linecap:round; stroke-linejoin:round;">
</g>
<g style="fill:#000000; fill-opacity:0.0; 
stroke:#000000; stroke-width:314.961; stroke-opacity:1; 
stroke-linecap:round; stroke-linejoin:round;">
<path d="M496 -1700
L653 -1700
" />
</g>
<g style="fill:#000000; fill-opacity:0.0; 
stroke:#000000; stroke-width:0; stroke-opacity:1; 
stroke-linecap:round; stroke-linejoin:round;">
</g>
<g style="fill:#000000; fill-opacity:1.0; 
stroke:#000000; stroke-width:0; stroke-opacity:1; 
stroke-linecap:round; stroke-linejoin:round;">
<polyline style="fill-rule:evenodd;"
points="187,-4114
187,-3485
-206,-3485
-206,-4114
187,-4114
" /> 
<polyline style="fill-rule:evenodd;"
points="-993,-4114
-993,-3485
-1387,-3485
-1387,-4114
-993,-4114
" /> 
<polyline style="fill-rule:evenodd;"
points="387,2185
387,2814
-6,2814
-6,2185
387,2185
" /> 
<polyline style="fill-rule:evenodd;"
points="-793,2185
-793,2814
-1187,2814
-1187,2185
-793,2185
" /> 
<polyline style="fill-rule:evenodd;"
points="2093,1614
2093,985
2487,985
2487,1614
2093,1614
" /> 
<polyline style="fill-rule:evenodd;"
points="912,1614
912,985
1306,985
1306,1614
912,1614
" /> 
<polyline style="fill-rule:evenodd;"
points="-1873,1244
-1873,1755
-2463,1755
-2463,1244
-1873,1244
" /> 
<polyline style="fill-rule:evenodd;"
points="-2936,1244
-2936,1755
-3526,1755
-3526,1244
-2936,1244
" /> 
<polyline style="fill-rule:evenodd;"
points="-1231,309
-1231,-359
-443,-359
-443,309
-1231,309
" /> 
<polyline style="fill-rule:evenodd;"
points="343,309
343,-359
1131,-359
1131,309
343,309
" /> 
<polyline style="fill-rule:evenodd;"
points="4036,-1911
3282,-1278
2649,-2032
3403,-2665
4036,-1911
" /> 
<polyline style="fill-rule:evenodd;"
points="3150,-2967
2396,-2334
1763,-3088
2517,-3721
3150,-2967
" /> 
<polyline style="fill-rule:evenodd;"
points="1879,-116
1879,-431
2233,-431
2233,-116
1879,-116
" /> 
<polyline style="fill-rule:evenodd;"
points="1879,631
1879,316
2233,316
2233,631
1879,631
" /> 
<polyline style="fill-rule:evenodd;"
points="2666,257
2666,-57
3020,-57
3020,257
2666,257
" /> 
<polyline style="fill-rule:evenodd;"
points="-27,1909
-27,1240
327,1240
327,1909
-27,1909
" /> 
<polyline style="fill-rule:evenodd;"
points="-1168,1909
-1168,1240
-814,1240
-814,1909
-1168,1909
" /> 
<polyline style="fill-rule:evenodd;"
points="-3596,-2153
-3596,-2546
-3203,-2546
-3203,-2153
-3596,-2153
" /> 
<circle cx="-1050" cy="1697.44" r="236.22" /> 
</g>
<g style="fill:#000000; fill-opacity:1.0; 
stroke:#000000; stroke-width:39.3701; stroke-opacity:1; 
stroke-linecap:round; stroke-linejoin:round;">
</g>
<g style="fill:#000000; fill-opacity:1.0; 
stroke:#000000; stroke-width:0; stroke-opacity:1; 
stroke-linecap:round; stroke-linejoin:round;">
<circle cx="225" cy="1700" r="236.22" /> 
</g>
<g style="fill:#000000; fill-opacity:1.0; 
stroke:#000000; stroke-width:39.3701; stroke-opacity:1; 
stroke-linecap:round; stroke-linejoin:round;">
</g>
<g style="fill:#000000; fill-opacity:1.0; 
stroke:#000000; stroke-width:0; stroke-opacity:1; 
stroke-linecap:round; stroke-linejoin:round;">
<circle cx="2825" cy="-750" r="275.591" /> 
</g>
<g style="fill:#000000; fill-opacity:1.0; 
stroke:#000000; stroke-width:39.3701; stroke-opacity:1; 
stroke-linecap:round; stroke-linejoin:round;">
</g>
<g style="fill:#000000; fill-opacity:1.0; 
stroke:#000000; stroke-width:0; stroke-opacity:1; 
stroke-linecap:round; stroke-linejoin:round;">
<circle cx="-775" cy="-1550" r="275.591" /> 
</g>
<g style="fill:#000000; fill-opacity:1.0; 
stroke:#000000; stroke-width:39.3701; stroke-opacity:1; 
stroke-linecap:round; stroke-linejoin:round;">
</g>
<g style="fill:#000000; fill-opacity:1.0; 
stroke:#000000; stroke-width:157.48; stroke-opacity:1; 
stroke-linecap:round; stroke-linejoin:round;">
</g>
<g style="fill:#000000; fill-opacity:0.0; 
stroke:#000000; stroke-width:157.48; stroke-opacity:1; 
stroke-linecap:round; stroke-linejoin:round;">
<path d="M-431 3825
L-1369 3825
" />
<path d="M-1369 3287
L-1400 3257
" />
<path d="M-1369 3825
L-1369 3287
" />
<path d="M-1400 3257
L-1400 2700
" />
<path d="M-1407 2707
L-1900 2707
" />
<path d="M-1400 2700
L-1407 2707
" />
<path d="M-1300 2600
L-1400 2700
" />
<path d="M-1190 -3800
L-1900 -3800
" />
<path d="M-2000 -3700
L-1900 -3800
" />
<path d="M-2000 -2631
L-2000 -3700
" />
<path d="M-1200 2500
L-1300 2600
" />
<path d="M-990 2500
L-1200 2500
" />
<path d="M-1929 -2702
L-2000 -2631
" />
<path d="M-553 -2702
L-1929 -2702
" />
<path d="M-2111 -2406
L-2000 -2518
" />
<path d="M-2000 -2518
L-2000 -2631
" />
<path d="M-2525 -2406
L-2111 -2406
" />
<path d="M-3231 2068
L-3231 1500
" />
<path d="M-3175 2125
L-3231 2068
" />
<path d="M-2433 2125
L-3175 2125
" />
<path d="M-1900 2707
L-1900 2658
" />
<path d="M-1900 2658
L-2433 2125
" />
<path d="M-3231 1018
L-3231 1500
" />
<path d="M-3400 750
L-3231 1018
" />
<path d="M-3400 -2425
L-3400 750
" />
<path d="M-2956 -2425
L-3400 -2425
" />
<path d="M-2525 -2406
L-2938 -2406
" />
<path d="M-2938 -2406
L-2956 -2425
" />
<path d="M-1050 2440
L-990 2500
" />
<path d="M-1050 1697
L-1050 2440
" />
<path d="M2290 1418
L2290 1300
" />
<path d="M1772 1936
L2290 1418
" />
<path d="M461 1936
L1772 1936
" />
<path d="M225 1700
L461 1936
" />
<path d="M2056 1065
L2290 1300
" />
<path d="M2056 474
L2056 1065
" />
<path d="M810 4200
L875 4264
" />
<path d="M631 4200
L810 4200
" />
<path d="M875 4264
L1089 4264
" />
<path d="M1089 4264
L1580 4264
" />
<path d="M4054 0
L4054 0
" />
<path d="M1600 3450
L1598 3451
" />
<path d="M1096 3825
L1122 3800
" />
<path d="M631 3825
L1096 3825
" />
<path d="M1122 3800
L1600 3800
" />
<path d="M1600 3950
L1600 3800
" />
<path d="M1600 3800
L1600 3450
" />
<path d="M1138 3350
L1598 3350
" />
<path d="M1096 3392
L1138 3350
" />
<path d="M631 3392
L1096 3392
" />
<path d="M1598 3350
L1598 3451
" />
<path d="M576 -3202
L509 -3135
" />
<path d="M509 -3281
L-9 -3800
" />
<path d="M509 -3135
L509 -3281
" />
<path d="M190 2500
L1753 2500
" />
<path d="M1598 2655
L1753 2500
" />
<path d="M1598 3350
L1598 2655
" />
<path d="M4250 -800
L4253 0
" />
<path d="M973 -3135
L984 -3125
" />
<path d="M509 -3135
L973 -3135
" />
<path d="M984 -3125
L984 -3115
" />
<path d="M3317 -1897
L4250 -800
" />
<path d="M2700 -1325
L3317 -1897
" />
<path d="M1753 2500
L2675 2500
" />
<path d="M2056 -1170
L2460 -1575
" />
<path d="M2056 -274
L2056 -1170
" />
<path d="M984 -3115
L2460 -1575
" />
<path d="M2460 -1575
L2700 -1325
" />
<path d="M4253 921
L4253 0
" />
<path d="M2675 2500
L4253 921
" />
<path d="M700 -3800
L-9 -3800
" />
<path d="M-1900 3741
L-1900 3692
" />
<path d="M-1382 4259
L-1900 3741
" />
<path d="M-431 4259
L-1382 4259
" />
<path d="M-2159 3692
L-1900 3692
" />
<path d="M-2900 2951
L-2159 3692
" />
<path d="M509 -2702
L922 -2702
" />
<path d="M1315 -2309
L1315 -1275
" />
<path d="M922 -2702
L1315 -2309
" />
<path d="M1315 -802
L1315 -1275
" />
<path d="M1315 -51
L1315 -802
" />
<path d="M1288 -25
L1315 -51
" />
<path d="M737 -25
L1288 -25
" />
<path d="M809 47
L737 -25
" />
<path d="M1109 347
L737 -25
" />
<path d="M1109 1300
L1109 347
" />
<path d="M-912 -100
L-837 -25
" />
<path d="M-1206 343
L-837 -25
" />
<path d="M-2200 343
L-1206 343
" />
<path d="M542 -2302
L509 -2268
" />
<path d="M-2168 1500
L-1715 1500
" />
<path d="M575 -2203
L509 -2268
" />
<path d="M575 -1600
L575 -2203
" />
<path d="M575 -1206
L575 -1600
" />
<path d="M-50 800
L-50 -581
" />
<path d="M-425 3100
L-425 825
" />
<path d="M-431 3392
L-431 3107
" />
<path d="M-431 3107
L-425 3100
" />
<path d="M-75 825
L-50 800
" />
<path d="M-425 825
L-75 825
" />
<path d="M-425 825
L-1425 825
" />
<path d="M-1715 1115
L-1715 1500
" />
<path d="M-1425 825
L-1715 1115
" />
<path d="M-1825 -778
L-1654 -950
" />
<path d="M-1825 -443
L-1825 -778
" />
<path d="M-1654 -950
L318 -950
" />
<path d="M-50 -581
L318 -950
" />
<path d="M318 -950
L575 -1206
" />
<path d="M-374 -3135
L-553 -3135
" />
<path d="M-553 -3135
L-553 -4406
" />
<path d="M-553 -4406
L-193 -4406
" />
<path d="M-193 -4406
L-187 -4400
" />
<path d="M-187 -4400
L598 -4321
" />
<path d="M598 -4321
L598 -4321
" />
<path d="M758 -4303
L598 -4321
" />
<path d="M1182 -4202
L758 -4303
" />
<path d="M2432 -2952
L1182 -4202
" />
<path d="M2825 81
L2843 100
" />
<path d="M2825 -750
L2825 81
" />
<path d="M-1018 -2268
L-553 -2268
" />
<path d="M-1186 -2268
L-1018 -2268
" />
<path d="M-2111 -1343
L-1186 -2268
" />
<path d="M-2525 -1343
L-2111 -1343
" />
<path d="M-2574 -1294
L-2525 -1343
" />
<path d="M-2574 -443
L-2574 -1294
" />
</g>
<g style="fill:#FFFFFF; fill-opacity:0.0; 
stroke:#FFFFFF; stroke-width:157.48; stroke-opacity:1; 
stroke-linecap:round; stroke-linejoin:round;">
</g>
<g style="fill:#FFFFFF; fill-opacity:1.0; 
stroke:#FFFFFF; stroke-width:0; stroke-opacity:1; 
stroke-linecap:round; stroke-linejoin:round;">
<circle cx="-1050" cy="1697.44" r="68.8976" /> 
</g>
<g style="fill:#FFFFFF; fill-opacity:1.0; 
stroke:#FFFFFF; stroke-width:39.3701; stroke-opacity:1; 
stroke-linecap:round; stroke-linejoin:round;">
</g>
<g style="fill:#FFFFFF; fill-opacity:1.0; 
stroke:#FFFFFF; stroke-width:0; stroke-opacity:1; 
stroke-linecap:round; stroke-linejoin:round;">
<circle cx="225" cy="1700" r="68.8976" /> 
</g>
<g style="fill:#FFFFFF; fill-opacity:1.0; 
stroke:#FFFFFF; stroke-width:39.3701; stroke-opacity:1; 
stroke-linecap:round; stroke-linejoin:round;">
</g>
<g style="fill:#FFFFFF; fill-opacity:1.0; 
stroke:#FFFFFF; stroke-width:0; stroke-opacity:1; 
stroke-linecap:round; stroke-linejoin:round;">
<circle cx="2825" cy="-750" r="68.8976" /> 
</g>
<g style="fill:#FFFFFF; fill-opacity:1.0; 
stroke:#FFFFFF; stroke-width:39.3701; stroke-opacity:1; 
stroke-linecap:round; stroke-linejoin:round;">
</g>
<g style="fill:#FFFFFF; fill-opacity:1.0; 
stroke:#FFFFFF; stroke-width:0; stroke-opacity:1; 
stroke-linecap:round; stroke-linejoin:round;">
<circle cx="-775" cy="-1550" r="68.8976" /> 
</g>
<g style="fill:#FFFFFF; fill-opacity:1.0; 
stroke:#FFFFFF; stroke-width:39.3701; stroke-opacity:1; 
stroke-linecap:round; stroke-linejoin:round;">
</g>
<g style="fill:#FFFFFF; fill-opacity:1.0; 
stroke:#FFFFFF; stroke-width:0; stroke-opacity:1; 
stroke-linecap:round; stroke-linejoin:round;">
<circle cx="4253.94" cy="0" r="68.8976" /> 
</g>
<g style="fill:#FFFFFF; fill-opacity:1.0; 
stroke:#FFFFFF; stroke-width:39.3701; stroke-opacity:1; 
stroke-linecap:round; stroke-linejoin:round;">
</g>
<g style="fill:#FFFFFF; fill-opacity:1.0; 
stroke:#FFFFFF; stroke-width:0; stroke-opacity:1; 
stroke-linecap:round; stroke-linejoin:round;">
<circle cx="-4250" cy="0" r="68.8976" /> 
</g>
<g style="fill:#FFFFFF; fill-opacity:1.0; 
stroke:#FFFFFF; stroke-width:39.3701; stroke-opacity:1; 
stroke-linecap:round; stroke-linejoin:round;">
</g>
<g style="fill:#FFFFFF; fill-opacity:1.0; 
stroke:#FFFFFF; stroke-width:0; stroke-opacity:1; 
stroke-linecap:round; stroke-linejoin:round;">
<circle cx="700" cy="-3800" r="68.8976" /> 
</g>
<g style="fill:#FFFFFF; fill-opacity:1.0; 
stroke:#FFFFFF; stroke-width:39.3701; stroke-opacity:1; 
stroke-linecap:round; stroke-linejoin:round;">
</g>
<g style="fill:#FFFFFF; fill-opacity:1.0; 
stroke:#FFFFFF; stroke-width:0; stroke-opacity:1; 
stroke-linecap:round; stroke-linejoin:round;">
<circle cx="-1950" cy="-3650" r="68.8976" /> 
</g>
<g style="fill:#FFFFFF; fill-opacity:1.0; 
stroke:#FFFFFF; stroke-width:39.3701; stroke-opacity:1; 
stroke-linecap:round; stroke-linejoin:round;">
</g>
<g style="fill:#FFFFFF; fill-opacity:1.0; 
stroke:#FFFFFF; stroke-width:0; stroke-opacity:1; 
stroke-linecap:round; stroke-linejoin:round;">
<circle cx="-3000" cy="2900" r="68.8976" /> 
</g>
<g style="fill:#FFFFFF; fill-opacity:1.0; 
stroke:#FFFFFF; stroke-width:39.3701; stroke-opacity:1; 
stroke-linecap:round; stroke-linejoin:round;">
</g>
<g style="fill:#FFFFFF; fill-opacity:1.0; 
stroke:#FFFFFF; stroke-width:0; stroke-opacity:1; 
stroke-linecap:round; stroke-linejoin:round;">
<circle cx="575" cy="-1700" r="68.8976" /> 
</g>
<g style="fill:#FFFFFF; fill-opacity:1.0; 
stroke:#FFFFFF; stroke-width:39.3701; stroke-opacity:1; 
stroke-linecap:round; stroke-linejoin:round;">
</g>
<g style="fill:#FFFFFF; fill-opacity:1.0; 
stroke:#FFFFFF; stroke-width:0; stroke-opacity:1; 
stroke-linecap:round; stroke-linejoin:round;">
<circle cx="-3400" cy="-2350" r="68.8976" /> 
</g>
<g style="fill:#FFFFFF; fill-opacity:1.0; 
stroke:#FFFFFF; stroke-width:39.3701; stroke-opacity:1; 
stroke-linecap:round; stroke-linejoin:round;">
</g>
<g style="fill:#000000; fill-opacity:1.0; 
stroke:#000000; stroke-width:39.3701; stroke-opacity:1; 
stroke-linecap:round; stroke-linejoin:round;">
</g> 
</svg>
