<?xml version="1.0" standalone="no"?>
 <!DOCTYPE svg PUBLIC "-//W3C//DTD SVG 1.1//EN" 
 "http://www.w3.org/Graphics/SVG/1.1/DTD/svg11.dtd"> 
<svg xmlns="http://www.w3.org/2000/svg" version="1.1" 
    width="29.7002cm" height="21.0007cm" viewBox="0 0 116930 82680 ">
<title>SVG Picture created as touchled-F.Paste.svg date 2018/08/01 13:05:05 </title>
  <desc>Picture generated by PCBNEW </desc>
<g style="fill:#000000; fill-opacity:1;stroke:#000000; stroke-opacity:1;
stroke-linecap:round; stroke-linejoin:round; "
 transform="translate(0 0) scale(1 1)">
</g>
<g style="fill:#000000; fill-opacity:0.0; 
stroke:#000000; stroke-width:-0.000393701; stroke-opacity:1; 
stroke-linecap:round; stroke-linejoin:round;">
</g>
<g style="fill:#000000; fill-opacity:0.0; 
stroke:#000000; stroke-width:0; stroke-opacity:1; 
stroke-linecap:round; stroke-linejoin:round;">
</g>
<g style="fill:#000000; fill-opacity:1.0; 
stroke:#000000; stroke-width:0; stroke-opacity:1; 
stroke-linecap:round; stroke-linejoin:round;">
<polyline style="fill-rule:evenodd;"
points="-1983,-720
-1668,-720
-1668,-366
-1983,-366
-1983,-720
" /> 
<polyline style="fill-rule:evenodd;"
points="-2731,-720
-2416,-720
-2416,-366
-2731,-366
-2731,-720
" /> 
<polyline style="fill-rule:evenodd;"
points="-2357,66
-2042,66
-2042,420
-2357,420
-2357,66
" /> 
<polyline style="fill-rule:evenodd;"
points="-1653,3003
-2146,3003
-2146,2412
-1653,2412
-1653,3003
" /> 
<polyline style="fill-rule:evenodd;"
points="-1653,3987
-2146,3987
-2146,3396
-1653,3396
-1653,3987
" /> 
<polyline style="fill-rule:evenodd;"
points="-2269,-1048
-2780,-1048
-2780,-1638
-2269,-1638
-2269,-1048
" /> 
<polyline style="fill-rule:evenodd;"
points="-2269,-2111
-2780,-2111
-2780,-2701
-2269,-2701
-2269,-2111
" /> 
<polyline style="fill-rule:evenodd;"
points="324,3953
324,3698
938,3698
938,3953
324,3953
" /> 
<polyline style="fill-rule:evenodd;"
points="324,3520
324,3264
938,3264
938,3520
324,3520
" /> 
<polyline style="fill-rule:evenodd;"
points="324,4387
324,4131
938,4131
938,4387
324,4387
" /> 
<polyline style="fill-rule:evenodd;"
points="-738,4387
-738,4131
-124,4131
-124,4387
-738,4387
" /> 
<polyline style="fill-rule:evenodd;"
points="-738,3953
-738,3698
-124,3698
-124,3953
-738,3953
" /> 
<polyline style="fill-rule:evenodd;"
points="-738,3520
-738,3264
-124,3264
-124,3520
-738,3520
" /> 
<polyline style="fill-rule:evenodd;"
points="-860,-3007
-860,-3263
-246,-3263
-246,-3007
-860,-3007
" /> 
<polyline style="fill-rule:evenodd;"
points="-860,-2574
-860,-2829
-246,-2829
-246,-2574
-860,-2574
" /> 
<polyline style="fill-rule:evenodd;"
points="-860,-2141
-860,-2396
-246,-2396
-246,-2141
-860,-2141
" /> 
<polyline style="fill-rule:evenodd;"
points="202,-2141
202,-2396
816,-2396
816,-2141
202,-2141
" /> 
<polyline style="fill-rule:evenodd;"
points="202,-3007
202,-3263
816,-3263
816,-3007
202,-3007
" /> 
<polyline style="fill-rule:evenodd;"
points="202,-2574
202,-2829
816,-2829
816,-2574
202,-2574
" /> 
<polyline style="fill-rule:evenodd;"
points="187,-4114
187,-3485
-206,-3485
-206,-4114
187,-4114
" /> 
<polyline style="fill-rule:evenodd;"
points="-993,-4114
-993,-3485
-1387,-3485
-1387,-4114
-993,-4114
" /> 
<polyline style="fill-rule:evenodd;"
points="387,2185
387,2814
-6,2814
-6,2185
387,2185
" /> 
<polyline style="fill-rule:evenodd;"
points="-793,2185
-793,2814
-1187,2814
-1187,2185
-793,2185
" /> 
<polyline style="fill-rule:evenodd;"
points="2093,1614
2093,985
2487,985
2487,1614
2093,1614
" /> 
<polyline style="fill-rule:evenodd;"
points="912,1614
912,985
1306,985
1306,1614
912,1614
" /> 
<polyline style="fill-rule:evenodd;"
points="-1873,1244
-1873,1755
-2463,1755
-2463,1244
-1873,1244
" /> 
<polyline style="fill-rule:evenodd;"
points="-2936,1244
-2936,1755
-3526,1755
-3526,1244
-2936,1244
" /> 
<polyline style="fill-rule:evenodd;"
points="-1231,309
-1231,-359
-443,-359
-443,309
-1231,309
" /> 
<polyline style="fill-rule:evenodd;"
points="343,309
343,-359
1131,-359
1131,309
343,309
" /> 
<polyline style="fill-rule:evenodd;"
points="4036,-1911
3282,-1278
2649,-2032
3403,-2665
4036,-1911
" /> 
<polyline style="fill-rule:evenodd;"
points="3150,-2967
2396,-2334
1763,-3088
2517,-3721
3150,-2967
" /> 
<polyline style="fill-rule:evenodd;"
points="1879,-116
1879,-431
2233,-431
2233,-116
1879,-116
" /> 
<polyline style="fill-rule:evenodd;"
points="1879,631
1879,316
2233,316
2233,631
1879,631
" /> 
<polyline style="fill-rule:evenodd;"
points="2666,257
2666,-57
3020,-57
3020,257
2666,257
" /> 
<polyline style="fill-rule:evenodd;"
points="-27,1909
-27,1240
327,1240
327,1909
-27,1909
" /> 
<polyline style="fill-rule:evenodd;"
points="-1168,1909
-1168,1240
-814,1240
-814,1909
-1168,1909
" /> 
</g> 
</svg>
