<?xml version="1.0" encoding="UTF-8" standalone="no"?>
<!-- Created with Inkscape (http://www.inkscape.org/) -->

<svg
   xmlns:dc="http://purl.org/dc/elements/1.1/"
   xmlns:cc="http://creativecommons.org/ns#"
   xmlns:rdf="http://www.w3.org/1999/02/22-rdf-syntax-ns#"
   xmlns:svg="http://www.w3.org/2000/svg"
   xmlns="http://www.w3.org/2000/svg"
   xmlns:sodipodi="http://sodipodi.sourceforge.net/DTD/sodipodi-0.dtd"
   xmlns:inkscape="http://www.inkscape.org/namespaces/inkscape"
   width="210mm"
   height="297mm"
   viewBox="0 0 210 297"
   version="1.1"
   id="svg7421"
   inkscape:version="0.92.4 5da689c313, 2019-01-14"
   sodipodi:docname="headphone-outline-traced.svg">
  <defs
     id="defs7415" />
  <sodipodi:namedview
     id="base"
     pagecolor="#ffffff"
     bordercolor="#666666"
     borderopacity="1.0"
     inkscape:pageopacity="0.0"
     inkscape:pageshadow="2"
     inkscape:zoom="0.6015625"
     inkscape:cx="558.44057"
     inkscape:cy="805.86669"
     inkscape:document-units="mm"
     inkscape:current-layer="layer1"
     showgrid="false"
     inkscape:window-width="1918"
     inkscape:window-height="1059"
     inkscape:window-x="0"
     inkscape:window-y="19"
     inkscape:window-maximized="1" />
  <metadata
     id="metadata7418">
    <rdf:RDF>
      <cc:Work
         rdf:about="">
        <dc:format>image/svg+xml</dc:format>
        <dc:type
           rdf:resource="http://purl.org/dc/dcmitype/StillImage" />
        <dc:title></dc:title>
      </cc:Work>
    </rdf:RDF>
  </metadata>
  <g
     inkscape:label="Layer 1"
     inkscape:groupmode="layer"
     id="layer1">
    <path
       style="opacity:0.48399999;fill:#a51d1e;stroke-width:0.35277778"
       d="m 134.50101,199.84236 c 13.9151,3.91761 9.0174,-26.11671 24.3433,-20.85117 10.3876,1.81311 7.9003,21.97976 18.5533,17.80663 6.2862,-7.71039 3.18,-19.46663 7.9093,-26.43553 11.423,-11.70701 13.892,17.5714 25.5504,9.27163 7.0763,-9.64895 -2.6288,-26.46 11.1342,-32.00044 4.6049,5.54067 22.6547,17.00602 21.0631,1.73851 -4.2789,-10.02928 -6.485,-29.82797 6.4921,-32.93756 6.1757,2.43322 19.7031,18.11393 20.36011,1.86826 -3.01839,-10.35156 -8.15161,-20.552784 -13.55251,-29.288984 7.1539,-13.16516 22.2197,10.04339 31.8117,3.90116 0.9426,-12.90085 -13.04169,-19.04856 -18.0117,-29.46439 -7.6869,-11.09257 6.12989,-22.34715 15.25029,-11.06701 13.5582,10.01422 13.44383,-12.87922 3.12992,-16.93334 -12.9911,-14.53865 -30.24461,-26.2580997 -50.08611,-28.0833297 -14.2953,-2.79851 -29.4293,0.70122 -42.0453,7.5460197 -8.0532,5.5549 -27.4986,12.04685 -25.6738,-4.78711 6.1561,-6.7466397 16.9793,-27.01864 -1.369,-19.6572697 -7.4033,11.69904 -26.8053,6.09189 -20.0393,-8.6373203 3.7033,-15.15573 -14.0399,-10.00069 -15.8746,0.7008 -11.8702,11.3049103 -21.2661,-6.56587 -24.9855,-15.35402 -11.578399,-0.45544 -11.102399,25.3890203 -26.698599,17.07966 -7.1841,-2.4832 -17.6524,-22.35255 -21.4774,-5.95743 -1.8083,10.15451 0.2175,30.2356903 -16.3243,27.1431603 -6.5881,-1.5927 -24.4859,-17.1278403 -20.8961,-1.19081 0.6966,11.1109797 18.3002,21.2302297 8.6762,31.9382497 -6.8901,8.70024 -29.5937001,-6.93977 -23.3685001,11.84217 5.1413001,9.22716 18.2150001,15.6621 16.9304001,27.28115 -4.4971,10.67429 -23.4947001,3.60441 -25.69640007,11.01999 1.43139997,14.076224 21.67650007,10.08136 27.86720007,20.376854 4.6697,11.12294 -25.6252001,16.07243 -10.4747,25.37264 9.0271,0.55035 33.4374,-1.48102 23.7765,14.66952 -8.7084,4.33401 -12.3015,20.22692 1.3638,15.42485 7.5868,-4.30292 27.3552,-13.04242 20.5384,4.19054 -10.1985,12.16686 6.5751,19.70126 13.6292,8.51676 5.3756,-5.00257 19.5247,-5.35125 15.4195,6.4501 -0.7939,10.8335 9.523799,21.83085 15.768799,7.94893 4.0666,-9.81414 14.007,-14.67128 21.4045,-4.74077 3.743,4.32251 2.1217,10.77144 5.6016,15.2989 z"
       id="path7393-3"
       inkscape:connector-curvature="0" />
  </g>
</svg>
