<?xml version="1.0" encoding="UTF-8" standalone="no"?>
<!-- Generator: Adobe Illustrator 16.2.0, SVG Export Plug-In . SVG Version: 6.00 Build 0)  -->

<svg
   xmlns:dc="http://purl.org/dc/elements/1.1/"
   xmlns:cc="http://creativecommons.org/ns#"
   xmlns:rdf="http://www.w3.org/1999/02/22-rdf-syntax-ns#"
   xmlns:svg="http://www.w3.org/2000/svg"
   xmlns="http://www.w3.org/2000/svg"
   xmlns:sodipodi="http://sodipodi.sourceforge.net/DTD/sodipodi-0.dtd"
   xmlns:inkscape="http://www.inkscape.org/namespaces/inkscape"
   version="1.1"
   id="Слой_1"
   x="0px"
   y="0px"
   width="595.28px"
   height="841.89px"
   viewBox="0 0 595.28 841.89"
   enable-background="new 0 0 595.28 841.89"
   xml:space="preserve"
   sodipodi:docname="headphone-outline-handdrawn.svg"
   inkscape:version="0.92.4 5da689c313, 2019-01-14"><metadata
   id="metadata8123"><rdf:RDF><cc:Work
       rdf:about=""><dc:format>image/svg+xml</dc:format><dc:type
         rdf:resource="http://purl.org/dc/dcmitype/StillImage" /><dc:title></dc:title></cc:Work></rdf:RDF></metadata><defs
   id="defs8121" /><sodipodi:namedview
   pagecolor="#ffffff"
   bordercolor="#666666"
   borderopacity="1"
   objecttolerance="10"
   gridtolerance="10"
   guidetolerance="10"
   inkscape:pageopacity="0"
   inkscape:pageshadow="2"
   inkscape:window-width="1918"
   inkscape:window-height="1059"
   id="namedview8119"
   showgrid="false"
   inkscape:zoom="1.3627442"
   inkscape:cx="49.272419"
   inkscape:cy="471.81955"
   inkscape:window-x="0"
   inkscape:window-y="19"
   inkscape:window-maximized="0"
   inkscape:current-layer="Слой_1" />

<path
   fill="#FFFFFF"
   stroke="#000000"
   stroke-miterlimit="10"
   d="M-31,266.667"
   id="path8114" />
<path
   fill="none"
   stroke="#000000"
   stroke-miterlimit="10"
   d="M152.061,282.998C134.25,254,140.332,220.666,143,210.5  c3.92-14.936,30.009-53.075,39.25-58.5c8.168-4.795,10.935-6.098,17.185-2.598c5.036,2.82-17.935,23.348-6.185,34.848  c6.393,6.257,14.095,3.901,23-2c2.585-1.713,33.691-33.882,38.75-23c3.099,6.667-6.172,17.154-8.813,21.255  c-3.637,5.649-8.939,12.62-5.738,18.712c4.812,9.158,18.687,2.283,25.738-4.551c8.676-8.408,23.313-14.667,30.03-10.566  c5.368,3.276-7.182,17.094-9.467,19.149c-5.436,4.889-5.25,15,5.5,18.75c30.601,10.674,39.5-6.25,44.602-4.503  c18.36,6.288-13.194,23.993-9.685,32.968c2.559,6.542,9.392,9.515,16,9.535c7.097,0.022,23.076-4.008,28.981,0.15  c6.379,4.494,0.813,12.093-4.37,15.297c-5.804,3.587-14.164,6.47-12.278,16.053c2.065,10.498,11.074,8.902,19.5,9.75  c7.165,0.721,30.963,5.206,18,14.715c-3.746,2.749-19.592,4.512-22.5,15.535c-4.75,18,19.327,19.167,27.059,26.971  c6.085,6.141-1.059,9.529-12.521,11.048c-6.911,0.916-13.626,2.707-15.787,9.731c-2.263,7.36,0.727,14.956,6.451,18.737  c4.555,3.008,14.279,7.896,17.483,12.775c5.999,9.136-13.765,5.146-25.185,10.183c-5.504,2.428-11.023,7.263-9,14.555  c1.51,5.443,7.479,10.577,10.5,15c4.128,6.044,5.287,13.778-5.716,13.5c-7.56-0.191-14.6-8.549-21.68-2.332  c-5.647,4.96-3.116,12.471-0.938,17.631c3.437,8.137,10.544,15.794,4.412,22.598c-1.846,2.049-5.842,0.991-7.796-0.68  c-9.005-7.7-17.621-19.092-25.352-9.768c-3.389,4.087-4.439,10.017-5.447,15.202c-0.979,5.043,1.687,11.511,0.016,16.349  c-5.559,16.091-17.257-8.588-22.545-12.889c-19.925-16.202-20.492,39.089-35.788,36.39c-2.833-0.5-5.474-3.927-5.958-4.875  c-4.8-9.396,0.514-21.771-8.333-26.876c-10.548-6.085-21.5,0.625-33.375,12.875c-2.862,2.952-8.638,7.687-12.625,8.875  c-12.119,3.612-5.25-12-4.75-18c0.852-10.218-4.625-18.125-16.25-18.875c-11.645-0.751-12.5,5.75-23.625,11.25  c-9.535,4.714-15.75,6.875-17.125,1.375c-1.586-6.346,4.076-10.612,7.125-14.75c5.25-7.125,4.375-14.5,3.375-17.75  c-1.971-6.404-5.312-9.585-11.375-11.5c-11.875-3.75-32.125-0.75-34-6.875c-2.511-8.202,9.021-11.224,13.625-17.125  c8.875-11.375,5.53-22.239-4.893-28.917C94.446,411.467,77.548,406.626,89.5,398c8.018-5.788,16.868-3.524,20.625-14.75  c3.153-9.419-3.153-14.25-10.345-20.03c-5.44-4.372-10.167-11.265-6.574-15.386c3.543-4.063,19.338,2.417,29.543-3.208  c10.832-5.971,0.526-16.911-4.083-23.625c-2.405-3.503-5.958-10.083-5.083-13.458c1.093-4.216,4.042-4.667,13,0.542  c7.657,4.452,19.917,14.792,26.667,10.417C161.457,313.181,160.784,297.2,152.061,282.998z"
   id="path8116" />
</svg>