<?xml version="1.0" standalone="no"?>
 <!DOCTYPE svg PUBLIC "-//W3C//DTD SVG 1.1//EN" 
 "http://www.w3.org/Graphics/SVG/1.1/DTD/svg11.dtd"> 
<svg xmlns="http://www.w3.org/2000/svg" version="1.1" 
    width="29.7002cm" height="21.0007cm" viewBox="0 0 116930 82680 ">
<title>SVG Picture created as linearsource_mod-F.Cu.svg date 2016/04/16 00:47:51 </title>
  <desc>Picture generated by PCBNEW </desc>
<g style="fill:#000000; fill-opacity:1;stroke:#000000; stroke-opacity:1;
stroke-linecap:round; stroke-linejoin:round; "
 transform="translate(0 0) scale(1 1)">
</g>
<g style="fill:#000000; fill-opacity:0.0; 
stroke:#000000; stroke-width:-0.000393701; stroke-opacity:1; 
stroke-linecap:round; stroke-linejoin:round;">
</g>
<g style="fill:#000000; fill-opacity:0.0; 
stroke:#000000; stroke-width:0; stroke-opacity:1; 
stroke-linecap:round; stroke-linejoin:round;">
</g>
<g style="fill:#000000; fill-opacity:1.0; 
stroke:#000000; stroke-width:0; stroke-opacity:1; 
stroke-linecap:round; stroke-linejoin:round;">
<polyline style="fill-rule:evenodd;"
points="62874,31677
62874,32071
62638,32071
62638,31677
62874,31677
" /> 
<polyline style="fill-rule:evenodd;"
points="62362,31677
62362,32071
62126,32071
62126,31677
62362,31677
" /> 
<polyline style="fill-rule:evenodd;"
points="62618,30929
62618,31323
62382,31323
62382,30929
62618,30929
" /> 
<polyline style="fill-rule:evenodd;"
points="67161,27956
67161,28586
66767,28586
66767,27956
67161,27956
" /> 
<polyline style="fill-rule:evenodd;"
points="65980,27956
65980,28586
65586,28586
65586,27956
65980,27956
" /> 
<polyline style="fill-rule:evenodd;"
points="60086,30086
60086,29456
60480,29456
60480,30086
60086,30086
" /> 
<polyline style="fill-rule:evenodd;"
points="61267,30086
61267,29456
61661,29456
61661,30086
61267,30086
" /> 
<polyline style="fill-rule:evenodd;"
points="59714,34671
59034,34671
59034,33871
59714,33871
59714,34671
" /> 
</g>
<g style="fill:#000000; fill-opacity:1.0; 
stroke:#000000; stroke-width:680; stroke-opacity:1; 
stroke-linecap:round; stroke-linejoin:round;">
</g>
<g style="fill:#000000; fill-opacity:0.0; 
stroke:#000000; stroke-width:680; stroke-opacity:1; 
stroke-linecap:round; stroke-linejoin:round;">
<path d="M60374 34331
L60374 34211
" />
<path d="M61374 34331
L61374 34211
" />
<path d="M62374 34331
L62374 34211
" />
</g>
<g style="fill:#000000; fill-opacity:0.0; 
stroke:#000000; stroke-width:0; stroke-opacity:1; 
stroke-linecap:round; stroke-linejoin:round;">
</g>
<g style="fill:#000000; fill-opacity:1.0; 
stroke:#000000; stroke-width:0; stroke-opacity:1; 
stroke-linecap:round; stroke-linejoin:round;">
<polyline style="fill-rule:evenodd;"
points="71714,34671
71034,34671
71034,33871
71714,33871
71714,34671
" /> 
</g>
<g style="fill:#000000; fill-opacity:1.0; 
stroke:#000000; stroke-width:680; stroke-opacity:1; 
stroke-linecap:round; stroke-linejoin:round;">
</g>
<g style="fill:#000000; fill-opacity:0.0; 
stroke:#000000; stroke-width:680; stroke-opacity:1; 
stroke-linecap:round; stroke-linejoin:round;">
<path d="M72374 34331
L72374 34211
" />
<path d="M73374 34331
L73374 34211
" />
<path d="M74374 34331
L74374 34211
" />
</g>
<g style="fill:#000000; fill-opacity:0.0; 
stroke:#000000; stroke-width:0; stroke-opacity:1; 
stroke-linecap:round; stroke-linejoin:round;">
</g>
<g style="fill:#000000; fill-opacity:1.0; 
stroke:#000000; stroke-width:0; stroke-opacity:1; 
stroke-linecap:round; stroke-linejoin:round;">
<polyline style="fill-rule:evenodd;"
points="70468,30545
70468,29998
72279,29998
72279,30545
70468,30545
" /> 
<polyline style="fill-rule:evenodd;"
points="73125,32397
73125,28145
76826,28145
76826,32397
73125,32397
" /> 
<polyline style="fill-rule:evenodd;"
points="70468,31545
70468,30998
72279,30998
72279,31545
70468,31545
" /> 
<polyline style="fill-rule:evenodd;"
points="70468,29545
70468,28998
72279,28998
72279,29545
70468,29545
" /> 
<polyline style="fill-rule:evenodd;"
points="62125,28606
62125,27937
62480,27937
62480,28606
62125,28606
" /> 
<polyline style="fill-rule:evenodd;"
points="63267,28606
63267,27937
63622,27937
63622,28606
63267,28606
" /> 
<polyline style="fill-rule:evenodd;"
points="62125,30106
62125,29437
62480,29437
62480,30106
62125,30106
" /> 
<polyline style="fill-rule:evenodd;"
points="63267,30106
63267,29437
63622,29437
63622,30106
63267,30106
" /> 
<polyline style="fill-rule:evenodd;"
points="60125,28606
60125,27937
60480,27937
60480,28606
60125,28606
" /> 
<polyline style="fill-rule:evenodd;"
points="61267,28606
61267,27937
61622,27937
61622,28606
61267,28606
" /> 
<polyline style="fill-rule:evenodd;"
points="69622,29937
69622,30606
69267,30606
69267,29937
69622,29937
" /> 
<polyline style="fill-rule:evenodd;"
points="68480,29937
68480,30606
68125,30606
68125,29937
68480,29937
" /> 
<polyline style="fill-rule:evenodd;"
points="58125,28606
58125,27937
58480,27937
58480,28606
58125,28606
" /> 
<polyline style="fill-rule:evenodd;"
points="59267,28606
59267,27937
59622,27937
59622,28606
59267,28606
" /> 
<polyline style="fill-rule:evenodd;"
points="61248,32165
61248,32834
60893,32834
60893,32165
61248,32165
" /> 
<polyline style="fill-rule:evenodd;"
points="60106,32165
60106,32834
59751,32834
59751,32165
60106,32165
" /> 
<polyline style="fill-rule:evenodd;"
points="59622,30937
59622,31606
59267,31606
59267,30937
59622,30937
" /> 
<polyline style="fill-rule:evenodd;"
points="58480,30937
58480,31606
58125,31606
58125,30937
58480,30937
" /> 
<polyline style="fill-rule:evenodd;"
points="60125,31606
60125,30937
60480,30937
60480,31606
60125,31606
" /> 
<polyline style="fill-rule:evenodd;"
points="61267,31606
61267,30937
61622,30937
61622,31606
61267,31606
" /> 
<polyline style="fill-rule:evenodd;"
points="66899,30421
67349,30421
67349,30621
66899,30621
66899,30421
" /> 
<polyline style="fill-rule:evenodd;"
points="66899,30921
67349,30921
67349,31121
66899,31121
66899,30921
" /> 
<polyline style="fill-rule:evenodd;"
points="66899,31421
67349,31421
67349,31621
66899,31621
66899,31421
" /> 
<polyline style="fill-rule:evenodd;"
points="66899,31921
67349,31921
67349,32121
66899,32121
66899,31921
" /> 
<polyline style="fill-rule:evenodd;"
points="64399,31921
64849,31921
64849,32121
64399,32121
64399,31921
" /> 
<polyline style="fill-rule:evenodd;"
points="64399,31421
64849,31421
64849,31621
64399,31621
64399,31421
" /> 
<polyline style="fill-rule:evenodd;"
points="64399,30921
64849,30921
64849,31121
64399,31121
64399,30921
" /> 
<polyline style="fill-rule:evenodd;"
points="64399,30421
64849,30421
64849,30621
64399,30621
64399,30421
" /> 
<polyline style="fill-rule:evenodd;"
points="66456,34401
66456,33141
66850,33141
66850,34401
66456,34401
" /> 
<polyline style="fill-rule:evenodd;"
points="68897,34401
68897,33141
69291,33141
69291,34401
68897,34401
" /> 
</g> 
</svg>
