  0
SECTION
  2
HEADER
  9
$ACADVER
  1
AC1014
  9
$HANDSEED
  5
FFFF
  9
$MEASUREMENT
 70
     1
  0
ENDSEC
  0
SECTION
  2
TABLES
  0
TABLE
  2
VPORT
  5
8
330
0
100
AcDbSymbolTable
 70
     4
  0
VPORT
  5
2E
330
8
100
AcDbSymbolTableRecord
100
AcDbViewportTableRecord
  2
*ACTIVE
 70
     0
 10
0.0
 20
0.0
 11
1.0
 21
1.0
 12
210.0
 22
148.5
 13
0.0
 23
0.0
 14
10.0
 24
10.0
 15
10.0
 25
10.0
 16
0.0
 26
0.0
 36
1.0
 17
0.0
 27
0.0
 37
0.0
 40
341.0
 41
1.24
 42
50.0
 43
0.0
 44
0.0
 50
0.0
 51
0.0
 71
     0
 72
   100
 73
     1
 74
     3
 75
     0
 76
     0
 77
     0
 78
     0
  0
ENDTAB
  0
TABLE
  2
LTYPE
  5
5
330
0
100
AcDbSymbolTable
 70
     1
  0
LTYPE
  5
14
330
5
100
AcDbSymbolTableRecord
100
AcDbLinetypeTableRecord
  2
BYBLOCK
 70
     0
  3

 72
    65
 73
     0
 40
0.0
  0
LTYPE
  5
15
330
5
100
AcDbSymbolTableRecord
100
AcDbLinetypeTableRecord
  2
BYLAYER
 70
     0
  3

 72
    65
 73
     0
 40
0.0
  0
LTYPE
  5
16
330
5
100
AcDbSymbolTableRecord
100
AcDbLinetypeTableRecord
  2
CONTINUOUS
 70
     0
  3
Solid line
 72
    65
 73
     0
 40
0.0
  0
ENDTAB
  0
TABLE
  2
LAYER
  5
2
100
AcDbSymbolTable
 70
2
  0
LAYER
  5
50
100
AcDbSymbolTableRecord
100
AcDbLayerTableRecord
  2
0
 70
0
  6
CONTINUOUS
  0
LAYER
  5
51
100
AcDbSymbolTableRecord
100
AcDbLayerTableRecord
  2
Expo-Arte-MB
 70
0
  6
CONTINUOUS
  0
ENDTAB
  0
TABLE
  2
STYLE
  5
3
330
0
100
AcDbSymbolTable
 70
     1
  0
STYLE
  5
11
330
3
100
AcDbSymbolTableRecord
100
AcDbTextStyleTableRecord
  2
STANDARD
 70
     0
 40
0.0
 41
1.0
 50
0.0
 71
     0
 42
2.5
  3
txt
  4

  0
ENDTAB
  0
TABLE
  2
VIEW
  5
6
330
0
100
AcDbSymbolTable
 70
     0
  0
ENDTAB
  0
TABLE
  2
UCS
  5
7
330
0
100
AcDbSymbolTable
 70
     0
  0
ENDTAB
  0
TABLE
  2
APPID
  5
9
330
0
100
AcDbSymbolTable
 70
     2
  0
APPID
  5
12
330
9
100
AcDbSymbolTableRecord
100
AcDbRegAppTableRecord
  2
ACAD
 70
     0
  0
ENDTAB
  0
TABLE
  2
DIMSTYLE
  5
A
330
0
100
AcDbSymbolTable
 70
     1
  0
DIMSTYLE
105
27
330
A
100
AcDbSymbolTableRecord
100
AcDbDimStyleTableRecord
  2
ISO-25
 70
     0
  3

  4

  5

  6

  7

 40
1.0
 41
2.5
 42
0.625
 43
3.75
 44
1.25
 45
0.0
 46
0.0
 47
0.0
 48
0.0
140
2.5
141
2.5
142
0.0
143
0.03937007874016
144
1.0
145
0.0
146
1.0
147
0.625
 71
     0
 72
     0
 73
     0
 74
     0
 75
     0
 76
     0
 77
     1
 78
     8
170
     0
171
     3
172
     1
173
     0
174
     0
175
     0
176
     0
177
     0
178
     0
270
     2
271
     2
272
     2
273
     2
274
     3
340
11
275
     0
280
     0
281
     0
282
     0
283
     0
284
     8
285
     0
286
     0
287
     3
288
     0
  0
ENDTAB
  0
TABLE
  2
BLOCK_RECORD
  5
1
330
0
100
AcDbSymbolTable
 70
     1
  0
BLOCK_RECORD
  5
1F
330
1
100
AcDbSymbolTableRecord
100
AcDbBlockTableRecord
  2
*MODEL_SPACE
  0
BLOCK_RECORD
  5
1B
330
1
100
AcDbSymbolTableRecord
100
AcDbBlockTableRecord
  2
*PAPER_SPACE
  0
ENDTAB
  0
ENDSEC
  0
SECTION
  2
BLOCKS
  0
BLOCK
  5
20
330
1F
100
AcDbEntity
  8
0
100
AcDbBlockBegin
  2
*MODEL_SPACE
 70
     0
 10
0.0
 20
0.0
 30
0.0
  3
*MODEL_SPACE
  1

  0
ENDBLK
  5
21
330
1F
100
AcDbEntity
  8
0
100
AcDbBlockEnd
  0
BLOCK
  5
1C
330
1B
100
AcDbEntity
 67
     1
  8
0
100
AcDbBlockBegin
  2
*PAPER_SPACE
  1

  0
ENDBLK
  5
1D
330
1B
100
AcDbEntity
 67
     1
  8
0
100
AcDbBlockEnd
  0
ENDSEC
  0
SECTION
  2
ENTITIES
  0
SPLINE
  5
100
100
AcDbEntity
  8
Expo-Arte-MB
 62
7
100
AcDbSpline
 70
8
 71
3
 72
8
 73
4
 74
0
 40
0
 40
0
 40
0
 40
0
 40
1
 40
1
 40
1
 40
1
 10
15.504997
 20
292.567279
 30
0.0
 10
15.284467
 20
292.567808
 30
0.0
 10
15.075045
 20
292.426648
 30
0.0
 10
15.097270
 20
292.143015
 30
0.0
  0
SPLINE
  5
101
100
AcDbEntity
  8
Expo-Arte-MB
 62
7
100
AcDbSpline
 70
8
 71
3
 72
8
 73
4
 74
0
 40
0
 40
0
 40
0
 40
0
 40
1
 40
1
 40
1
 40
1
 10
15.097270
 20
292.143015
 30
0.0
 10
15.145867
 20
291.520332
 30
0.0
 10
15.190389
 20
290.897028
 30
0.0
 10
15.233696
 20
290.273362
 30
0.0
  0
SPLINE
  5
102
100
AcDbEntity
  8
Expo-Arte-MB
 62
7
100
AcDbSpline
 70
8
 71
3
 72
8
 73
4
 74
0
 40
0
 40
0
 40
0
 40
0
 40
1
 40
1
 40
1
 40
1
 10
15.233696
 20
290.273362
 30
0.0
 10
14.672855
 20
289.624046
 30
0.0
 10
14.391095
 20
288.773534
 30
0.0
 10
14.221871
 20
287.888494
 30
0.0
  0
SPLINE
  5
103
100
AcDbEntity
  8
Expo-Arte-MB
 62
7
100
AcDbSpline
 70
8
 71
3
 72
8
 73
4
 74
0
 40
0
 40
0
 40
0
 40
0
 40
1
 40
1
 40
1
 40
1
 10
14.221871
 20
287.888494
 30
0.0
 10
14.220894
 20
287.882641
 30
0.0
 10
14.218994
 20
287.877462
 30
0.0
 10
14.218254
 20
287.871441
 30
0.0
  0
SPLINE
  5
104
100
AcDbEntity
  8
Expo-Arte-MB
 62
7
100
AcDbSpline
 70
8
 71
3
 72
8
 73
4
 74
0
 40
0
 40
0
 40
0
 40
0
 40
1
 40
1
 40
1
 40
1
 10
14.218254
 20
287.871441
 30
0.0
 10
14.081064
 20
287.147582
 30
0.0
 10
14.016114
 20
286.403329
 30
0.0
 10
13.929899
 20
285.731520
 30
0.0
  0
SPLINE
  5
105
100
AcDbEntity
  8
Expo-Arte-MB
 62
7
100
AcDbSpline
 70
8
 71
3
 72
8
 73
4
 74
0
 40
0
 40
0
 40
0
 40
0
 40
1
 40
1
 40
1
 40
1
 10
13.929899
 20
285.731520
 30
0.0
 10
13.703855
 20
283.971123
 30
0.0
 10
13.609731
 20
282.187075
 30
0.0
 10
13.528890
 20
280.404714
 30
0.0
  0
SPLINE
  5
106
100
AcDbEntity
  8
Expo-Arte-MB
 62
7
100
AcDbSpline
 70
8
 71
3
 72
8
 73
4
 74
0
 40
0
 40
0
 40
0
 40
0
 40
1
 40
1
 40
1
 40
1
 10
13.528890
 20
280.404714
 30
0.0
 10
13.454751
 20
280.622724
 30
0.0
 10
13.376471
 20
280.840143
 30
0.0
 10
13.288078
 20
281.056353
 30
0.0
  0
SPLINE
  5
107
100
AcDbEntity
  8
Expo-Arte-MB
 62
7
100
AcDbSpline
 70
8
 71
3
 72
8
 73
4
 74
0
 40
0
 40
0
 40
0
 40
0
 40
1
 40
1
 40
1
 40
1
 10
13.288078
 20
281.056353
 30
0.0
 10
12.647052
 20
282.625420
 30
0.0
 10
10.005518
 20
285.121486
 30
0.0
 10
11.901082
 20
286.730942
 30
0.0
  0
SPLINE
  5
108
100
AcDbEntity
  8
Expo-Arte-MB
 62
7
100
AcDbSpline
 70
8
 71
3
 72
8
 73
4
 74
0
 40
0
 40
0
 40
0
 40
0
 40
1
 40
1
 40
1
 40
1
 10
11.901082
 20
286.730942
 30
0.0
 10
12.171241
 20
286.858474
 30
0.0
 10
12.509526
 20
286.929151
 30
0.0
 10
12.934611
 20
286.925246
 30
0.0
  0
SPLINE
  5
109
100
AcDbEntity
  8
Expo-Arte-MB
 62
7
100
AcDbSpline
 70
8
 71
3
 72
8
 73
4
 74
0
 40
0
 40
0
 40
0
 40
0
 40
1
 40
1
 40
1
 40
1
 10
12.934611
 20
286.925246
 30
0.0
 10
13.503641
 20
286.919954
 30
0.0
 10
13.502936
 20
287.802071
 30
0.0
 10
12.934611
 20
287.807362
 30
0.0
  0
SPLINE
  5
10a
100
AcDbEntity
  8
Expo-Arte-MB
 62
7
100
AcDbSpline
 70
8
 71
3
 72
8
 73
4
 74
0
 40
0
 40
0
 40
0
 40
0
 40
1
 40
1
 40
1
 40
1
 10
12.934611
 20
287.807362
 30
0.0
 10
10.414014
 20
287.830293
 30
0.0
 10
9.959649
 20
285.690556
 30
0.0
 10
10.222115
 20
283.572479
 30
0.0
  0
SPLINE
  5
10b
100
AcDbEntity
  8
Expo-Arte-MB
 62
7
100
AcDbSpline
 70
8
 71
3
 72
8
 73
4
 74
0
 40
0
 40
0
 40
0
 40
0
 40
1
 40
1
 40
1
 40
1
 10
10.222115
 20
283.572479
 30
0.0
 10
10.396740
 20
282.159604
 30
0.0
 10
10.980612
 20
280.835095
 30
0.0
 10
11.147123
 20
279.427512
 30
0.0
  0
SPLINE
  5
10c
100
AcDbEntity
  8
Expo-Arte-MB
 62
7
100
AcDbSpline
 70
8
 71
3
 72
8
 73
4
 74
0
 40
0
 40
0
 40
0
 40
0
 40
1
 40
1
 40
1
 40
1
 10
11.147123
 20
279.427512
 30
0.0
 10
11.345031
 20
277.755698
 30
0.0
 10
9.784548
 20
276.693440
 30
0.0
 10
8.279598
 20
277.062798
 30
0.0
  0
SPLINE
  5
10d
100
AcDbEntity
  8
Expo-Arte-MB
 62
7
100
AcDbSpline
 70
8
 71
3
 72
8
 73
4
 74
0
 40
0
 40
0
 40
0
 40
0
 40
1
 40
1
 40
1
 40
1
 10
8.279598
 20
277.062798
 30
0.0
 10
7.446337
 20
277.267057
 30
0.0
 10
7.014497
 20
278.454273
 30
0.0
 10
6.950997
 20
279.159828
 30
0.0
  0
SPLINE
  5
10e
100
AcDbEntity
  8
Expo-Arte-MB
 62
7
100
AcDbSpline
 70
8
 71
3
 72
8
 73
4
 74
0
 40
0
 40
0
 40
0
 40
0
 40
1
 40
1
 40
1
 40
1
 10
6.950997
 20
279.159828
 30
0.0
 10
7.114344
 20
280.143528
 30
0.0
 10
7.309750
 20
280.452242
 30
0.0
 10
8.194849
 20
280.650693
 30
0.0
  0
SPLINE
  5
10f
100
AcDbEntity
  8
Expo-Arte-MB
 62
7
100
AcDbSpline
 70
8
 71
3
 72
8
 73
4
 74
0
 40
0
 40
0
 40
0
 40
0
 40
1
 40
1
 40
1
 40
1
 10
8.194849
 20
280.650693
 30
0.0
 10
8.821029
 20
280.752293
 30
0.0
 10
9.033127
 20
280.432601
 30
0.0
 10
8.830985
 20
279.691062
 30
0.0
  0
SPLINE
  5
110
100
AcDbEntity
  8
Expo-Arte-MB
 62
7
100
AcDbSpline
 70
8
 71
3
 72
8
 73
4
 74
0
 40
0
 40
0
 40
0
 40
0
 40
1
 40
1
 40
1
 40
1
 10
8.830985
 20
279.691062
 30
0.0
 10
8.405888
 20
279.311473
 30
0.0
 10
9.031576
 20
278.690372
 30
0.0
 10
9.454203
 20
279.067844
 30
0.0
  0
SPLINE
  5
111
100
AcDbEntity
  8
Expo-Arte-MB
 62
7
100
AcDbSpline
 70
8
 71
3
 72
8
 73
4
 74
0
 40
0
 40
0
 40
0
 40
0
 40
1
 40
1
 40
1
 40
1
 10
9.454203
 20
279.067844
 30
0.0
 10
11.141187
 20
280.573500
 30
0.0
 10
9.053954
 20
281.888956
 30
0.0
 10
7.441406
 20
281.377781
 30
0.0
  0
SPLINE
  5
112
100
AcDbEntity
  8
Expo-Arte-MB
 62
7
100
AcDbSpline
 70
8
 71
3
 72
8
 73
4
 74
0
 40
0
 40
0
 40
0
 40
0
 40
1
 40
1
 40
1
 40
1
 10
7.441406
 20
281.377781
 30
0.0
 10
5.236193
 20
280.678575
 30
0.0
 10
5.979557
 20
277.048078
 30
0.0
 10
7.769552
 20
276.323826
 30
0.0
  0
SPLINE
  5
113
100
AcDbEntity
  8
Expo-Arte-MB
 62
7
100
AcDbSpline
 70
8
 71
3
 72
8
 73
4
 74
0
 40
0
 40
0
 40
0
 40
0
 40
1
 40
1
 40
1
 40
1
 10
7.769552
 20
276.323826
 30
0.0
 10
10.319782
 20
275.292303
 30
0.0
 10
12.252511
 20
277.539188
 30
0.0
 10
11.964644
 20
279.974766
 30
0.0
  0
SPLINE
  5
114
100
AcDbEntity
  8
Expo-Arte-MB
 62
7
100
AcDbSpline
 70
8
 71
3
 72
8
 73
4
 74
0
 40
0
 40
0
 40
0
 40
0
 40
1
 40
1
 40
1
 40
1
 10
11.964644
 20
279.974766
 30
0.0
 10
11.889650
 20
280.608233
 30
0.0
 10
11.571571
 20
281.608794
 30
0.0
 10
11.317139
 20
282.654189
 30
0.0
  0
SPLINE
  5
115
100
AcDbEntity
  8
Expo-Arte-MB
 62
7
100
AcDbSpline
 70
8
 71
3
 72
8
 73
4
 74
0
 40
0
 40
0
 40
0
 40
0
 40
1
 40
1
 40
1
 40
1
 10
11.317139
 20
282.654189
 30
0.0
 10
11.620009
 20
282.167116
 30
0.0
 10
11.961930
 20
281.700863
 30
0.0
 10
12.245247
 20
281.205698
 30
0.0
  0
SPLINE
  5
116
100
AcDbEntity
  8
Expo-Arte-MB
 62
7
100
AcDbSpline
 70
8
 71
3
 72
8
 73
4
 74
0
 40
0
 40
0
 40
0
 40
0
 40
1
 40
1
 40
1
 40
1
 10
12.245247
 20
281.205698
 30
0.0
 10
12.946217
 20
279.980148
 30
0.0
 10
13.184051
 20
278.484157
 30
0.0
 10
13.367143
 20
277.106207
 30
0.0
  0
SPLINE
  5
117
100
AcDbEntity
  8
Expo-Arte-MB
 62
7
100
AcDbSpline
 70
8
 71
3
 72
8
 73
4
 74
0
 40
0
 40
0
 40
0
 40
0
 40
1
 40
1
 40
1
 40
1
 10
13.367143
 20
277.106207
 30
0.0
 10
13.440521
 20
276.555168
 30
0.0
 10
14.214335
 20
276.523418
 30
0.0
 10
14.249260
 20
277.106207
 30
0.0
  0
SPLINE
  5
118
100
AcDbEntity
  8
Expo-Arte-MB
 62
7
100
AcDbSpline
 70
8
 71
3
 72
8
 73
4
 74
0
 40
0
 40
0
 40
0
 40
0
 40
1
 40
1
 40
1
 40
1
 10
14.249260
 20
277.106207
 30
0.0
 10
14.369159
 20
279.106985
 30
0.0
 10
14.439154
 20
281.118434
 30
0.0
 10
14.582572
 20
283.121860
 30
0.0
  0
SPLINE
  5
119
100
AcDbEntity
  8
Expo-Arte-MB
 62
7
100
AcDbSpline
 70
8
 71
3
 72
8
 73
4
 74
0
 40
0
 40
0
 40
0
 40
0
 40
1
 40
1
 40
1
 40
1
 10
14.582572
 20
283.121860
 30
0.0
 10
14.802851
 20
280.323844
 30
0.0
 10
15.023132
 20
277.526074
 30
0.0
 10
15.243514
 20
274.728057
 30
0.0
  0
SPLINE
  5
11a
100
AcDbEntity
  8
Expo-Arte-MB
 62
7
100
AcDbSpline
 70
8
 71
3
 72
8
 73
4
 74
0
 40
0
 40
0
 40
0
 40
0
 40
1
 40
1
 40
1
 40
1
 10
15.243514
 20
274.728057
 30
0.0
 10
15.287611
 20
274.165024
 30
0.0
 10
16.169564
 20
274.160791
 30
0.0
 10
16.125114
 20
274.728057
 30
0.0
  0
SPLINE
  5
11b
100
AcDbEntity
  8
Expo-Arte-MB
 62
7
100
AcDbSpline
 70
8
 71
3
 72
8
 73
4
 74
0
 40
0
 40
0
 40
0
 40
0
 40
1
 40
1
 40
1
 40
1
 10
16.125114
 20
274.728057
 30
0.0
 10
15.785185
 20
279.043858
 30
0.0
 10
15.445461
 20
283.359270
 30
0.0
 10
15.105538
 20
287.675071
 30
0.0
  0
SPLINE
  5
11c
100
AcDbEntity
  8
Expo-Arte-MB
 62
7
100
AcDbSpline
 70
8
 71
3
 72
8
 73
4
 74
0
 40
0
 40
0
 40
0
 40
0
 40
1
 40
1
 40
1
 40
1
 10
15.105538
 20
287.675071
 30
0.0
 10
15.168914
 20
287.999849
 30
0.0
 10
15.242666
 20
288.322069
 30
0.0
 10
15.342733
 20
288.637286
 30
0.0
  0
SPLINE
  5
11d
100
AcDbEntity
  8
Expo-Arte-MB
 62
7
100
AcDbSpline
 70
8
 71
3
 72
8
 73
4
 74
0
 40
0
 40
0
 40
0
 40
0
 40
1
 40
1
 40
1
 40
1
 10
15.342733
 20
288.637286
 30
0.0
 10
15.627493
 20
284.233212
 30
0.0
 10
15.852079
 20
279.815536
 30
0.0
 10
16.374711
 20
275.439642
 30
0.0
  0
SPLINE
  5
11e
100
AcDbEntity
  8
Expo-Arte-MB
 62
7
100
AcDbSpline
 70
8
 71
3
 72
8
 73
4
 74
0
 40
0
 40
0
 40
0
 40
0
 40
1
 40
1
 40
1
 40
1
 10
16.374711
 20
275.439642
 30
0.0
 10
16.428333
 20
274.990556
 30
0.0
 10
16.923317
 20
274.855130
 30
0.0
 10
17.196367
 20
275.217433
 30
0.0
  0
SPLINE
  5
11f
100
AcDbEntity
  8
Expo-Arte-MB
 62
7
100
AcDbSpline
 70
8
 71
3
 72
8
 73
4
 74
0
 40
0
 40
0
 40
0
 40
0
 40
1
 40
1
 40
1
 40
1
 10
17.196367
 20
275.217433
 30
0.0
 10
18.952494
 20
277.545767
 30
0.0
 10
20.852280
 20
279.599949
 30
0.0
 10
20.970813
 20
282.678993
 30
0.0
  0
SPLINE
  5
120
100
AcDbEntity
  8
Expo-Arte-MB
 62
7
100
AcDbSpline
 70
8
 71
3
 72
8
 73
4
 74
0
 40
0
 40
0
 40
0
 40
0
 40
1
 40
1
 40
1
 40
1
 10
20.970813
 20
282.678993
 30
0.0
 10
21.013852
 20
283.795535
 30
0.0
 10
20.639418
 20
284.984462
 30
0.0
 10
19.587435
 20
285.498459
 30
0.0
  0
SPLINE
  5
121
100
AcDbEntity
  8
Expo-Arte-MB
 62
7
100
AcDbSpline
 70
8
 71
3
 72
8
 73
4
 74
0
 40
0
 40
0
 40
0
 40
0
 40
1
 40
1
 40
1
 40
1
 10
19.587435
 20
285.498459
 30
0.0
 10
19.205837
 20
285.684905
 30
0.0
 10
18.848632
 20
285.737859
 30
0.0
 10
18.515666
 20
285.698964
 30
0.0
  0
SPLINE
  5
122
100
AcDbEntity
  8
Expo-Arte-MB
 62
7
100
AcDbSpline
 70
8
 71
3
 72
8
 73
4
 74
0
 40
0
 40
0
 40
0
 40
0
 40
1
 40
1
 40
1
 40
1
 10
18.515666
 20
285.698964
 30
0.0
 10
19.081375
 20
286.712856
 30
0.0
 10
19.482555
 20
287.791857
 30
0.0
 10
19.271175
 20
288.973183
 30
0.0
  0
SPLINE
  5
123
100
AcDbEntity
  8
Expo-Arte-MB
 62
7
100
AcDbSpline
 70
8
 71
3
 72
8
 73
4
 74
0
 40
0
 40
0
 40
0
 40
0
 40
1
 40
1
 40
1
 40
1
 10
19.271175
 20
288.973183
 30
0.0
 10
19.018958
 20
290.384311
 30
0.0
 10
17.547353
 20
291.729723
 30
0.0
 10
16.066203
 20
290.947222
 30
0.0
  0
SPLINE
  5
124
100
AcDbEntity
  8
Expo-Arte-MB
 62
7
100
AcDbSpline
 70
8
 71
3
 72
8
 73
4
 74
0
 40
0
 40
0
 40
0
 40
0
 40
1
 40
1
 40
1
 40
1
 10
16.066203
 20
290.947222
 30
0.0
 10
16.037437
 20
291.345900
 30
0.0
 10
16.010468
 20
291.744763
 30
0.0
 10
15.979386
 20
292.143015
 30
0.0
  0
SPLINE
  5
125
100
AcDbEntity
  8
Expo-Arte-MB
 62
7
100
AcDbSpline
 70
8
 71
3
 72
8
 73
4
 74
0
 40
0
 40
0
 40
0
 40
0
 40
1
 40
1
 40
1
 40
1
 10
15.979386
 20
292.143015
 30
0.0
 10
15.957338
 20
292.424532
 30
0.0
 10
15.725527
 20
292.566749
 30
0.0
 10
15.504997
 20
292.567279
 30
0.0
  0
LINE
  5
126
100
AcDbEntity
  8
Expo-Arte-MB
 62
7
100
AcDbLine
 10
15.504997
 20
292.567279
 30
0.0
 11
15.504997
 21
292.567279
 31
0.0
  0
SPLINE
  5
127
100
AcDbEntity
  8
Expo-Arte-MB
 62
7
100
AcDbSpline
 70
8
 71
3
 72
8
 73
4
 74
0
 40
0
 40
0
 40
0
 40
0
 40
1
 40
1
 40
1
 40
1
 10
16.774687
 20
290.219618
 30
0.0
 10
17.554463
 20
290.260274
 30
0.0
 10
18.352354
 20
289.524584
 30
0.0
 10
18.431950
 20
288.518947
 30
0.0
  0
SPLINE
  5
128
100
AcDbEntity
  8
Expo-Arte-MB
 62
7
100
AcDbSpline
 70
8
 71
3
 72
8
 73
4
 74
0
 40
0
 40
0
 40
0
 40
0
 40
1
 40
1
 40
1
 40
1
 10
18.431950
 20
288.518947
 30
0.0
 10
18.560110
 20
286.897514
 30
0.0
 10
17.327122
 20
285.451073
 30
0.0
 10
16.509587
 20
284.145571
 30
0.0
  0
SPLINE
  5
129
100
AcDbEntity
  8
Expo-Arte-MB
 62
7
100
AcDbSpline
 70
8
 71
3
 72
8
 73
4
 74
0
 40
0
 40
0
 40
0
 40
0
 40
1
 40
1
 40
1
 40
1
 10
16.509587
 20
284.145571
 30
0.0
 10
16.383786
 20
286.093134
 30
0.0
 10
16.269019
 20
288.041756
 30
0.0
 10
16.135966
 20
289.986558
 30
0.0
  0
SPLINE
  5
12a
100
AcDbEntity
  8
Expo-Arte-MB
 62
7
100
AcDbSpline
 70
8
 71
3
 72
8
 73
4
 74
0
 40
0
 40
0
 40
0
 40
0
 40
1
 40
1
 40
1
 40
1
 10
16.135966
 20
289.986558
 30
0.0
 10
16.336562
 20
290.133133
 30
0.0
 10
16.554643
 20
290.208146
 30
0.0
 10
16.774687
 20
290.219618
 30
0.0
  0
LINE
  5
12b
100
AcDbEntity
  8
Expo-Arte-MB
 62
7
100
AcDbLine
 10
16.774687
 20
290.219618
 30
0.0
 11
16.774687
 21
290.219618
 31
0.0
  0
SPLINE
  5
12c
100
AcDbEntity
  8
Expo-Arte-MB
 62
7
100
AcDbSpline
 70
8
 71
3
 72
8
 73
4
 74
0
 40
0
 40
0
 40
0
 40
0
 40
1
 40
1
 40
1
 40
1
 10
18.609717
 20
284.815297
 30
0.0
 10
18.835489
 20
284.821085
 30
0.0
 10
19.095125
 20
284.760312
 30
0.0
 10
19.400366
 20
284.611175
 30
0.0
  0
SPLINE
  5
12d
100
AcDbEntity
  8
Expo-Arte-MB
 62
7
100
AcDbSpline
 70
8
 71
3
 72
8
 73
4
 74
0
 40
0
 40
0
 40
0
 40
0
 40
1
 40
1
 40
1
 40
1
 10
19.400366
 20
284.611175
 30
0.0
 10
20.038894
 20
284.299320
 30
0.0
 10
20.071763
 20
283.263899
 30
0.0
 10
20.088696
 20
282.678993
 30
0.0
  0
SPLINE
  5
12e
100
AcDbEntity
  8
Expo-Arte-MB
 62
7
100
AcDbSpline
 70
8
 71
3
 72
8
 73
4
 74
0
 40
0
 40
0
 40
0
 40
0
 40
1
 40
1
 40
1
 40
1
 10
20.088696
 20
282.678993
 30
0.0
 10
20.121505
 20
281.543402
 30
0.0
 10
19.725089
 20
280.373039
 30
0.0
 10
19.209680
 20
279.379970
 30
0.0
  0
SPLINE
  5
12f
100
AcDbEntity
  8
Expo-Arte-MB
 62
7
100
AcDbSpline
 70
8
 71
3
 72
8
 73
4
 74
0
 40
0
 40
0
 40
0
 40
0
 40
1
 40
1
 40
1
 40
1
 10
19.209680
 20
279.379970
 30
0.0
 10
18.703417
 20
278.404934
 30
0.0
 10
17.887086
 20
277.455039
 30
0.0
 10
17.136422
 20
276.543451
 30
0.0
  0
SPLINE
  5
130
100
AcDbEntity
  8
Expo-Arte-MB
 62
7
100
AcDbSpline
 70
8
 71
3
 72
8
 73
4
 74
0
 40
0
 40
0
 40
0
 40
0
 40
1
 40
1
 40
1
 40
1
 10
17.136422
 20
276.543451
 30
0.0
 10
16.888202
 20
278.834007
 30
0.0
 10
16.708844
 20
281.134140
 30
0.0
 10
16.556095
 20
283.437086
 30
0.0
  0
SPLINE
  5
131
100
AcDbEntity
  8
Expo-Arte-MB
 62
7
100
AcDbSpline
 70
8
 71
3
 72
8
 73
4
 74
0
 40
0
 40
0
 40
0
 40
0
 40
1
 40
1
 40
1
 40
1
 10
16.556095
 20
283.437086
 30
0.0
 10
16.747720
 20
283.310005
 30
0.0
 10
17.028672
 20
283.308917
 30
0.0
 10
17.182930
 20
283.562144
 30
0.0
  0
SPLINE
  5
132
100
AcDbEntity
  8
Expo-Arte-MB
 62
7
100
AcDbSpline
 70
8
 71
3
 72
8
 73
4
 74
0
 40
0
 40
0
 40
0
 40
0
 40
1
 40
1
 40
1
 40
1
 10
17.182930
 20
283.562144
 30
0.0
 10
17.259112
 20
283.687667
 30
0.0
 10
17.341813
 20
283.815467
 30
0.0
 10
17.422709
 20
283.942482
 30
0.0
  0
SPLINE
  5
133
100
AcDbEntity
  8
Expo-Arte-MB
 62
7
100
AcDbSpline
 70
8
 71
3
 72
8
 73
4
 74
0
 40
0
 40
0
 40
0
 40
0
 40
1
 40
1
 40
1
 40
1
 10
17.422709
 20
283.942482
 30
0.0
 10
17.730323
 20
284.410918
 30
0.0
 10
18.073924
 20
284.801562
 30
0.0
 10
18.609717
 20
284.815297
 30
0.0
  0
LINE
  5
134
100
AcDbEntity
  8
Expo-Arte-MB
 62
7
100
AcDbLine
 10
18.609717
 20
284.815297
 30
0.0
 11
18.609717
 21
284.815297
 31
0.0
  0
LINE
  5
135
100
AcDbEntity
  8
Expo-Arte-MB
 62
7
100
AcDbLine
 10
48.744857
 20
277.293296
 30
0.0
 11
48.873649
 21
277.293296
 31
0.0
  0
SPLINE
  5
136
100
AcDbEntity
  8
Expo-Arte-MB
 62
7
100
AcDbSpline
 70
8
 71
3
 72
8
 73
4
 74
0
 40
0
 40
0
 40
0
 40
0
 40
1
 40
1
 40
1
 40
1
 10
48.873649
 20
277.293296
 30
0.0
 10
49.171910
 20
277.293296
 30
0.0
 10
49.436277
 20
277.334372
 30
0.0
 10
49.666748
 20
277.416523
 30
0.0
  0
SPLINE
  5
137
100
AcDbEntity
  8
Expo-Arte-MB
 62
7
100
AcDbSpline
 70
8
 71
3
 72
8
 73
4
 74
0
 40
0
 40
0
 40
0
 40
0
 40
1
 40
1
 40
1
 40
1
 10
49.666748
 20
277.416523
 30
0.0
 10
49.901742
 20
277.494350
 30
0.0
 10
50.098324
 20
277.628384
 30
0.0
 10
50.256493
 20
277.818627
 30
0.0
  0
SPLINE
  5
138
100
AcDbEntity
  8
Expo-Arte-MB
 62
7
100
AcDbSpline
 70
8
 71
3
 72
8
 73
4
 74
0
 40
0
 40
0
 40
0
 40
0
 40
1
 40
1
 40
1
 40
1
 10
50.256493
 20
277.818627
 30
0.0
 10
50.414659
 20
278.004547
 30
0.0
 10
50.534414
 20
278.255323
 30
0.0
 10
50.615757
 20
278.570954
 30
0.0
  0
SPLINE
  5
139
100
AcDbEntity
  8
Expo-Arte-MB
 62
7
100
AcDbSpline
 70
8
 71
3
 72
8
 73
4
 74
0
 40
0
 40
0
 40
0
 40
0
 40
1
 40
1
 40
1
 40
1
 10
50.615757
 20
278.570954
 30
0.0
 10
50.701621
 20
278.882260
 30
0.0
 10
50.744552
 20
279.271394
 30
0.0
 10
50.744552
 20
279.738355
 30
0.0
  0
LINE
  5
13a
100
AcDbEntity
  8
Expo-Arte-MB
 62
7
100
AcDbLine
 10
50.744552
 20
279.738355
 30
0.0
 11
50.744552
 21
287.877744
 31
0.0
  0
SPLINE
  5
13b
100
AcDbEntity
  8
Expo-Arte-MB
 62
7
100
AcDbSpline
 70
8
 71
3
 72
8
 73
4
 74
0
 40
0
 40
0
 40
0
 40
0
 40
1
 40
1
 40
1
 40
1
 10
50.744552
 20
287.877744
 30
0.0
 10
50.744552
 20
288.072309
 30
0.0
 10
50.712919
 20
288.227962
 30
0.0
 10
50.649652
 20
288.344703
 30
0.0
  0
SPLINE
  5
13c
100
AcDbEntity
  8
Expo-Arte-MB
 62
7
100
AcDbSpline
 70
8
 71
3
 72
8
 73
4
 74
0
 40
0
 40
0
 40
0
 40
0
 40
1
 40
1
 40
1
 40
1
 10
50.649652
 20
288.344703
 30
0.0
 10
50.590903
 20
288.465767
 30
0.0
 10
50.509560
 20
288.558727
 30
0.0
 10
50.405622
 20
288.623583
 30
0.0
  0
SPLINE
  5
13d
100
AcDbEntity
  8
Expo-Arte-MB
 62
7
100
AcDbSpline
 70
8
 71
3
 72
8
 73
4
 74
0
 40
0
 40
0
 40
0
 40
0
 40
1
 40
1
 40
1
 40
1
 10
50.405622
 20
288.623583
 30
0.0
 10
50.301682
 20
288.688438
 30
0.0
 10
50.179666
 20
288.729512
 30
0.0
 10
50.039574
 20
288.746807
 30
0.0
  0
SPLINE
  5
13e
100
AcDbEntity
  8
Expo-Arte-MB
 62
7
100
AcDbSpline
 70
8
 71
3
 72
8
 73
4
 74
0
 40
0
 40
0
 40
0
 40
0
 40
1
 40
1
 40
1
 40
1
 10
50.039574
 20
288.746807
 30
0.0
 10
49.904001
 20
288.768431
 30
0.0
 10
49.759391
 20
288.779243
 30
0.0
 10
49.605743
 20
288.779243
 30
0.0
  0
LINE
  5
13f
100
AcDbEntity
  8
Expo-Arte-MB
 62
7
100
AcDbLine
 10
49.605743
 20
288.779243
 30
0.0
 11
49.429499
 21
288.779243
 31
0.0
  0
LINE
  5
140
100
AcDbEntity
  8
Expo-Arte-MB
 62
7
100
AcDbLine
 10
49.429499
 20
288.779243
 30
0.0
 11
49.429499
 21
289.337004
 31
0.0
  0
LINE
  5
141
100
AcDbEntity
  8
Expo-Arte-MB
 62
7
100
AcDbLine
 10
49.429499
 20
289.337004
 30
0.0
 11
53.469564
 21
289.337004
 31
0.0
  0
LINE
  5
142
100
AcDbEntity
  8
Expo-Arte-MB
 62
7
100
AcDbLine
 10
53.469564
 20
289.337004
 30
0.0
 11
53.469564
 21
288.779243
 31
0.0
  0
LINE
  5
143
100
AcDbEntity
  8
Expo-Arte-MB
 62
7
100
AcDbLine
 10
53.469564
 20
288.779243
 30
0.0
 11
53.286540
 21
288.779243
 31
0.0
  0
SPLINE
  5
144
100
AcDbEntity
  8
Expo-Arte-MB
 62
7
100
AcDbSpline
 70
8
 71
3
 72
8
 73
4
 74
0
 40
0
 40
0
 40
0
 40
0
 40
1
 40
1
 40
1
 40
1
 10
53.286540
 20
288.779243
 30
0.0
 10
53.132891
 20
288.779243
 30
0.0
 10
52.986021
 20
288.768431
 30
0.0
 10
52.845929
 20
288.746807
 30
0.0
  0
SPLINE
  5
145
100
AcDbEntity
  8
Expo-Arte-MB
 62
7
100
AcDbSpline
 70
8
 71
3
 72
8
 73
4
 74
0
 40
0
 40
0
 40
0
 40
0
 40
1
 40
1
 40
1
 40
1
 10
52.845929
 20
288.746807
 30
0.0
 10
52.705836
 20
288.725183
 30
0.0
 10
52.583821
 20
288.679784
 30
0.0
 10
52.479884
 20
288.610612
 30
0.0
  0
SPLINE
  5
146
100
AcDbEntity
  8
Expo-Arte-MB
 62
7
100
AcDbSpline
 70
8
 71
3
 72
8
 73
4
 74
0
 40
0
 40
0
 40
0
 40
0
 40
1
 40
1
 40
1
 40
1
 10
52.479884
 20
288.610612
 30
0.0
 10
52.380464
 20
288.545756
 30
0.0
 10
52.299120
 20
288.450634
 30
0.0
 10
52.235850
 20
288.325248
 30
0.0
  0
SPLINE
  5
147
100
AcDbEntity
  8
Expo-Arte-MB
 62
7
100
AcDbSpline
 70
8
 71
3
 72
8
 73
4
 74
0
 40
0
 40
0
 40
0
 40
0
 40
1
 40
1
 40
1
 40
1
 10
52.235850
 20
288.325248
 30
0.0
 10
52.177103
 20
288.199860
 30
0.0
 10
52.147730
 20
288.033397
 30
0.0
 10
52.147730
 20
287.825859
 30
0.0
  0
LINE
  5
148
100
AcDbEntity
  8
Expo-Arte-MB
 62
7
100
AcDbLine
 10
52.147730
 20
287.825859
 30
0.0
 11
52.147730
 21
279.751326
 31
0.0
  0
SPLINE
  5
149
100
AcDbEntity
  8
Expo-Arte-MB
 62
7
100
AcDbSpline
 70
8
 71
3
 72
8
 73
4
 74
0
 40
0
 40
0
 40
0
 40
0
 40
1
 40
1
 40
1
 40
1
 10
52.147730
 20
279.751326
 30
0.0
 10
52.147730
 20
279.154654
 30
0.0
 10
52.066387
 20
278.659589
 30
0.0
 10
51.903700
 20
278.266131
 30
0.0
  0
SPLINE
  5
14a
100
AcDbEntity
  8
Expo-Arte-MB
 62
7
100
AcDbSpline
 70
8
 71
3
 72
8
 73
4
 74
0
 40
0
 40
0
 40
0
 40
0
 40
1
 40
1
 40
1
 40
1
 10
51.903700
 20
278.266131
 30
0.0
 10
51.741011
 20
277.868349
 30
0.0
 10
51.517315
 20
277.552718
 30
0.0
 10
51.232612
 20
277.319238
 30
0.0
  0
SPLINE
  5
14b
100
AcDbEntity
  8
Expo-Arte-MB
 62
7
100
AcDbSpline
 70
8
 71
3
 72
8
 73
4
 74
0
 40
0
 40
0
 40
0
 40
0
 40
1
 40
1
 40
1
 40
1
 10
51.232612
 20
277.319238
 30
0.0
 10
50.947912
 20
277.081434
 30
0.0
 10
50.611240
 20
276.912808
 30
0.0
 10
50.222598
 20
276.813362
 30
0.0
  0
SPLINE
  5
14c
100
AcDbEntity
  8
Expo-Arte-MB
 62
7
100
AcDbSpline
 70
8
 71
3
 72
8
 73
4
 74
0
 40
0
 40
0
 40
0
 40
0
 40
1
 40
1
 40
1
 40
1
 10
50.222598
 20
276.813362
 30
0.0
 10
49.838475
 20
276.713918
 30
0.0
 10
49.424978
 20
276.664196
 30
0.0
 10
48.982107
 20
276.664196
 30
0.0
  0
LINE
  5
14d
100
AcDbEntity
  8
Expo-Arte-MB
 62
7
100
AcDbLine
 10
48.982107
 20
276.664196
 30
0.0
 11
48.744857
 21
276.664196
 31
0.0
  0
LINE
  5
14e
100
AcDbEntity
  8
Expo-Arte-MB
 62
7
100
AcDbLine
 10
48.744857
 20
276.664196
 30
0.0
 11
48.744857
 21
277.293296
 31
0.0
  0
LINE
  5
14f
100
AcDbEntity
  8
Expo-Arte-MB
 62
7
100
AcDbLine
 10
61.759830
 20
279.855095
 30
0.0
 11
56.553840
 21
287.508066
 31
0.0
  0
LINE
  5
150
100
AcDbEntity
  8
Expo-Arte-MB
 62
7
100
AcDbLine
 10
56.553840
 20
287.508066
 30
0.0
 11
56.553840
 21
281.366232
 31
0.0
  0
SPLINE
  5
151
100
AcDbEntity
  8
Expo-Arte-MB
 62
7
100
AcDbSpline
 70
8
 71
3
 72
8
 73
4
 74
0
 40
0
 40
0
 40
0
 40
0
 40
1
 40
1
 40
1
 40
1
 10
56.553840
 20
281.366232
 30
0.0
 10
56.553840
 20
281.158695
 30
0.0
 10
56.583215
 20
280.992232
 30
0.0
 10
56.641964
 20
280.866844
 30
0.0
  0
SPLINE
  5
152
100
AcDbEntity
  8
Expo-Arte-MB
 62
7
100
AcDbSpline
 70
8
 71
3
 72
8
 73
4
 74
0
 40
0
 40
0
 40
0
 40
0
 40
1
 40
1
 40
1
 40
1
 10
56.641964
 20
280.866844
 30
0.0
 10
56.705231
 20
280.741455
 30
0.0
 10
56.786574
 20
280.644171
 30
0.0
 10
56.885994
 20
280.574992
 30
0.0
  0
SPLINE
  5
153
100
AcDbEntity
  8
Expo-Arte-MB
 62
7
100
AcDbSpline
 70
8
 71
3
 72
8
 73
4
 74
0
 40
0
 40
0
 40
0
 40
0
 40
1
 40
1
 40
1
 40
1
 10
56.885994
 20
280.574992
 30
0.0
 10
56.989934
 20
280.510138
 30
0.0
 10
57.111949
 20
280.466901
 30
0.0
 10
57.252039
 20
280.445281
 30
0.0
  0
SPLINE
  5
154
100
AcDbEntity
  8
Expo-Arte-MB
 62
7
100
AcDbSpline
 70
8
 71
3
 72
8
 73
4
 74
0
 40
0
 40
0
 40
0
 40
0
 40
1
 40
1
 40
1
 40
1
 10
57.252039
 20
280.445281
 30
0.0
 10
57.392131
 20
280.423657
 30
0.0
 10
57.539002
 20
280.412845
 30
0.0
 10
57.692650
 20
280.412845
 30
0.0
  0
LINE
  5
155
100
AcDbEntity
  8
Expo-Arte-MB
 62
7
100
AcDbLine
 10
57.692650
 20
280.412845
 30
0.0
 11
57.875675
 21
280.412845
 31
0.0
  0
LINE
  5
156
100
AcDbEntity
  8
Expo-Arte-MB
 62
7
100
AcDbLine
 10
57.875675
 20
280.412845
 30
0.0
 11
57.875675
 21
279.855085
 31
0.0
  0
LINE
  5
157
100
AcDbEntity
  8
Expo-Arte-MB
 62
7
100
AcDbLine
 10
57.875675
 20
279.855085
 30
0.0
 11
54.391459
 21
279.855085
 31
0.0
  0
LINE
  5
158
100
AcDbEntity
  8
Expo-Arte-MB
 62
7
100
AcDbLine
 10
54.391459
 20
279.855085
 30
0.0
 11
54.391459
 21
280.412845
 31
0.0
  0
LINE
  5
159
100
AcDbEntity
  8
Expo-Arte-MB
 62
7
100
AcDbLine
 10
54.391459
 20
280.412845
 30
0.0
 11
54.567702
 21
280.412845
 31
0.0
  0
SPLINE
  5
15a
100
AcDbEntity
  8
Expo-Arte-MB
 62
7
100
AcDbSpline
 70
8
 71
3
 72
8
 73
4
 74
0
 40
0
 40
0
 40
0
 40
0
 40
1
 40
1
 40
1
 40
1
 10
54.567702
 20
280.412845
 30
0.0
 10
54.725869
 20
280.412845
 30
0.0
 10
54.872739
 20
280.423657
 30
0.0
 10
55.008314
 20
280.445281
 30
0.0
  0
SPLINE
  5
15b
100
AcDbEntity
  8
Expo-Arte-MB
 62
7
100
AcDbSpline
 70
8
 71
3
 72
8
 73
4
 74
0
 40
0
 40
0
 40
0
 40
0
 40
1
 40
1
 40
1
 40
1
 10
55.008314
 20
280.445281
 30
0.0
 10
55.148404
 20
280.466906
 30
0.0
 10
55.270419
 20
280.510143
 30
0.0
 10
55.374359
 20
280.574992
 30
0.0
  0
SPLINE
  5
15c
100
AcDbEntity
  8
Expo-Arte-MB
 62
7
100
AcDbSpline
 70
8
 71
3
 72
8
 73
4
 74
0
 40
0
 40
0
 40
0
 40
0
 40
1
 40
1
 40
1
 40
1
 10
55.374359
 20
280.574992
 30
0.0
 10
55.478299
 20
280.644171
 30
0.0
 10
55.559642
 20
280.741455
 30
0.0
 10
55.618389
 20
280.866844
 30
0.0
  0
SPLINE
  5
15d
100
AcDbEntity
  8
Expo-Arte-MB
 62
7
100
AcDbSpline
 70
8
 71
3
 72
8
 73
4
 74
0
 40
0
 40
0
 40
0
 40
0
 40
1
 40
1
 40
1
 40
1
 10
55.618389
 20
280.866844
 30
0.0
 10
55.677138
 20
280.992232
 30
0.0
 10
55.706512
 20
281.158695
 30
0.0
 10
55.706512
 20
281.366232
 30
0.0
  0
LINE
  5
15e
100
AcDbEntity
  8
Expo-Arte-MB
 62
7
100
AcDbLine
 10
55.706512
 20
281.366232
 30
0.0
 11
55.706512
 21
287.877744
 31
0.0
  0
SPLINE
  5
15f
100
AcDbEntity
  8
Expo-Arte-MB
 62
7
100
AcDbSpline
 70
8
 71
3
 72
8
 73
4
 74
0
 40
0
 40
0
 40
0
 40
0
 40
1
 40
1
 40
1
 40
1
 10
55.706512
 20
287.877744
 30
0.0
 10
55.706512
 20
288.072309
 30
0.0
 10
55.674879
 20
288.227962
 30
0.0
 10
55.611612
 20
288.344703
 30
0.0
  0
SPLINE
  5
160
100
AcDbEntity
  8
Expo-Arte-MB
 62
7
100
AcDbSpline
 70
8
 71
3
 72
8
 73
4
 74
0
 40
0
 40
0
 40
0
 40
0
 40
1
 40
1
 40
1
 40
1
 10
55.611612
 20
288.344703
 30
0.0
 10
55.552863
 20
288.465767
 30
0.0
 10
55.471518
 20
288.558727
 30
0.0
 10
55.367578
 20
288.623583
 30
0.0
  0
SPLINE
  5
161
100
AcDbEntity
  8
Expo-Arte-MB
 62
7
100
AcDbSpline
 70
8
 71
3
 72
8
 73
4
 74
0
 40
0
 40
0
 40
0
 40
0
 40
1
 40
1
 40
1
 40
1
 10
55.367578
 20
288.623583
 30
0.0
 10
55.263641
 20
288.688438
 30
0.0
 10
55.141626
 20
288.729512
 30
0.0
 10
55.001533
 20
288.746807
 30
0.0
  0
SPLINE
  5
162
100
AcDbEntity
  8
Expo-Arte-MB
 62
7
100
AcDbSpline
 70
8
 71
3
 72
8
 73
4
 74
0
 40
0
 40
0
 40
0
 40
0
 40
1
 40
1
 40
1
 40
1
 10
55.001533
 20
288.746807
 30
0.0
 10
54.865961
 20
288.768431
 30
0.0
 10
54.721351
 20
288.779243
 30
0.0
 10
54.567702
 20
288.779243
 30
0.0
  0
LINE
  5
163
100
AcDbEntity
  8
Expo-Arte-MB
 62
7
100
AcDbLine
 10
54.567702
 20
288.779243
 30
0.0
 11
54.391459
 21
288.779243
 31
0.0
  0
LINE
  5
164
100
AcDbEntity
  8
Expo-Arte-MB
 62
7
100
AcDbLine
 10
54.391459
 20
288.779243
 30
0.0
 11
54.391459
 21
289.337004
 31
0.0
  0
LINE
  5
165
100
AcDbEntity
  8
Expo-Arte-MB
 62
7
100
AcDbLine
 10
54.391459
 20
289.337004
 30
0.0
 11
56.933442
 21
289.337004
 31
0.0
  0
LINE
  5
166
100
AcDbEntity
  8
Expo-Arte-MB
 62
7
100
AcDbLine
 10
56.933442
 20
289.337004
 30
0.0
 11
61.902183
 21
281.995339
 31
0.0
  0
LINE
  5
167
100
AcDbEntity
  8
Expo-Arte-MB
 62
7
100
AcDbLine
 10
61.902183
 20
281.995339
 30
0.0
 11
61.902183
 21
287.877751
 31
0.0
  0
SPLINE
  5
168
100
AcDbEntity
  8
Expo-Arte-MB
 62
7
100
AcDbSpline
 70
8
 71
3
 72
8
 73
4
 74
0
 40
0
 40
0
 40
0
 40
0
 40
1
 40
1
 40
1
 40
1
 10
61.902183
 20
287.877751
 30
0.0
 10
61.902183
 20
288.072316
 30
0.0
 10
61.870549
 20
288.227969
 30
0.0
 10
61.807282
 20
288.344710
 30
0.0
  0
SPLINE
  5
169
100
AcDbEntity
  8
Expo-Arte-MB
 62
7
100
AcDbSpline
 70
8
 71
3
 72
8
 73
4
 74
0
 40
0
 40
0
 40
0
 40
0
 40
1
 40
1
 40
1
 40
1
 10
61.807282
 20
288.344710
 30
0.0
 10
61.748533
 20
288.465773
 30
0.0
 10
61.667189
 20
288.558733
 30
0.0
 10
61.563249
 20
288.623590
 30
0.0
  0
SPLINE
  5
16a
100
AcDbEntity
  8
Expo-Arte-MB
 62
7
100
AcDbSpline
 70
8
 71
3
 72
8
 73
4
 74
0
 40
0
 40
0
 40
0
 40
0
 40
1
 40
1
 40
1
 40
1
 10
61.563249
 20
288.623590
 30
0.0
 10
61.459311
 20
288.688444
 30
0.0
 10
61.337296
 20
288.729519
 30
0.0
 10
61.197204
 20
288.746814
 30
0.0
  0
SPLINE
  5
16b
100
AcDbEntity
  8
Expo-Arte-MB
 62
7
100
AcDbSpline
 70
8
 71
3
 72
8
 73
4
 74
0
 40
0
 40
0
 40
0
 40
0
 40
1
 40
1
 40
1
 40
1
 10
61.197204
 20
288.746814
 30
0.0
 10
61.061632
 20
288.768438
 30
0.0
 10
60.917021
 20
288.779250
 30
0.0
 10
60.763373
 20
288.779250
 30
0.0
  0
LINE
  5
16c
100
AcDbEntity
  8
Expo-Arte-MB
 62
7
100
AcDbLine
 10
60.763373
 20
288.779250
 30
0.0
 11
60.580349
 21
288.779250
 31
0.0
  0
LINE
  5
16d
100
AcDbEntity
  8
Expo-Arte-MB
 62
7
100
AcDbLine
 10
60.580349
 20
288.779250
 30
0.0
 11
60.580349
 21
289.337010
 31
0.0
  0
LINE
  5
16e
100
AcDbEntity
  8
Expo-Arte-MB
 62
7
100
AcDbLine
 10
60.580349
 20
289.337010
 30
0.0
 11
64.064565
 21
289.337010
 31
0.0
  0
LINE
  5
16f
100
AcDbEntity
  8
Expo-Arte-MB
 62
7
100
AcDbLine
 10
64.064565
 20
289.337010
 30
0.0
 11
64.064565
 21
288.779250
 31
0.0
  0
LINE
  5
170
100
AcDbEntity
  8
Expo-Arte-MB
 62
7
100
AcDbLine
 10
64.064565
 20
288.779250
 30
0.0
 11
63.888321
 21
288.779250
 31
0.0
  0
SPLINE
  5
171
100
AcDbEntity
  8
Expo-Arte-MB
 62
7
100
AcDbSpline
 70
8
 71
3
 72
8
 73
4
 74
0
 40
0
 40
0
 40
0
 40
0
 40
1
 40
1
 40
1
 40
1
 10
63.888321
 20
288.779250
 30
0.0
 10
63.730152
 20
288.779250
 30
0.0
 10
63.581023
 20
288.768438
 30
0.0
 10
63.440932
 20
288.746814
 30
0.0
  0
SPLINE
  5
172
100
AcDbEntity
  8
Expo-Arte-MB
 62
7
100
AcDbSpline
 70
8
 71
3
 72
8
 73
4
 74
0
 40
0
 40
0
 40
0
 40
0
 40
1
 40
1
 40
1
 40
1
 10
63.440932
 20
288.746814
 30
0.0
 10
63.305360
 20
288.725190
 30
0.0
 10
63.185604
 20
288.679791
 30
0.0
 10
63.081664
 20
288.610619
 30
0.0
  0
SPLINE
  5
173
100
AcDbEntity
  8
Expo-Arte-MB
 62
7
100
AcDbSpline
 70
8
 71
3
 72
8
 73
4
 74
0
 40
0
 40
0
 40
0
 40
0
 40
1
 40
1
 40
1
 40
1
 10
63.081664
 20
288.610619
 30
0.0
 10
62.977725
 20
288.545762
 30
0.0
 10
62.896381
 20
288.450641
 30
0.0
 10
62.837634
 20
288.325255
 30
0.0
  0
SPLINE
  5
174
100
AcDbEntity
  8
Expo-Arte-MB
 62
7
100
AcDbSpline
 70
8
 71
3
 72
8
 73
4
 74
0
 40
0
 40
0
 40
0
 40
0
 40
1
 40
1
 40
1
 40
1
 10
62.837634
 20
288.325255
 30
0.0
 10
62.778885
 20
288.199867
 30
0.0
 10
62.749511
 20
288.033404
 30
0.0
 10
62.749511
 20
287.825866
 30
0.0
  0
LINE
  5
175
100
AcDbEntity
  8
Expo-Arte-MB
 62
7
100
AcDbLine
 10
62.749511
 20
287.825866
 30
0.0
 11
62.749511
 21
279.855102
 31
0.0
  0
LINE
  5
176
100
AcDbEntity
  8
Expo-Arte-MB
 62
7
100
AcDbLine
 10
62.749511
 20
279.855102
 30
0.0
 11
61.759830
 21
279.855095
 31
0.0
  0
SPLINE
  5
177
100
AcDbEntity
  8
Expo-Arte-MB
 62
7
100
AcDbSpline
 70
8
 71
3
 72
8
 73
4
 74
0
 40
0
 40
0
 40
0
 40
0
 40
1
 40
1
 40
1
 40
1
 10
71.231393
 20
290.215690
 30
0.0
 10
71.071586
 20
290.215779
 30
0.0
 10
70.918298
 20
290.153641
 30
0.0
 10
70.805297
 20
290.042964
 30
0.0
  0
SPLINE
  5
178
100
AcDbEntity
  8
Expo-Arte-MB
 62
7
100
AcDbSpline
 70
8
 71
3
 72
8
 73
4
 74
0
 40
0
 40
0
 40
0
 40
0
 40
1
 40
1
 40
1
 40
1
 10
70.805297
 20
290.042964
 30
0.0
 10
70.692297
 20
289.932286
 30
0.0
 10
70.628854
 20
289.782151
 30
0.0
 10
70.628945
 20
289.625630
 30
0.0
  0
SPLINE
  5
179
100
AcDbEntity
  8
Expo-Arte-MB
 62
7
100
AcDbSpline
 70
8
 71
3
 72
8
 73
4
 74
0
 40
0
 40
0
 40
0
 40
0
 40
1
 40
1
 40
1
 40
1
 10
70.628945
 20
289.625630
 30
0.0
 10
70.628945
 20
289.625630
 30
0.0
 10
70.628945
 20
289.074051
 30
0.0
 10
70.628945
 20
289.074051
 30
0.0
  0
SPLINE
  5
17a
100
AcDbEntity
  8
Expo-Arte-MB
 62
7
100
AcDbSpline
 70
8
 71
3
 72
8
 73
4
 74
0
 40
0
 40
0
 40
0
 40
0
 40
1
 40
1
 40
1
 40
1
 10
70.628945
 20
289.074051
 30
0.0
 10
70.628855
 20
288.917531
 30
0.0
 10
70.692298
 20
288.767397
 30
0.0
 10
70.805299
 20
288.656721
 30
0.0
  0
SPLINE
  5
17b
100
AcDbEntity
  8
Expo-Arte-MB
 62
7
100
AcDbSpline
 70
8
 71
3
 72
8
 73
4
 74
0
 40
0
 40
0
 40
0
 40
0
 40
1
 40
1
 40
1
 40
1
 10
70.805299
 20
288.656721
 30
0.0
 10
70.918299
 20
288.546044
 30
0.0
 10
71.071587
 20
288.483907
 30
0.0
 10
71.231393
 20
288.483996
 30
0.0
  0
LINE
  5
17c
100
AcDbEntity
  8
Expo-Arte-MB
 62
7
100
AcDbLine
 10
71.231393
 20
288.483996
 30
0.0
 11
71.401650
 21
288.483996
 31
0.0
  0
SPLINE
  5
17d
100
AcDbEntity
  8
Expo-Arte-MB
 62
7
100
AcDbSpline
 70
8
 71
3
 72
8
 73
4
 74
0
 40
0
 40
0
 40
0
 40
0
 40
1
 40
1
 40
1
 40
1
 10
71.401650
 20
288.483996
 30
0.0
 10
71.521757
 20
288.483996
 30
0.0
 10
71.628792
 20
288.476115
 30
0.0
 10
71.722082
 20
288.460922
 30
0.0
  0
SPLINE
  5
17e
100
AcDbEntity
  8
Expo-Arte-MB
 62
7
100
AcDbSpline
 70
8
 71
3
 72
8
 73
4
 74
0
 40
0
 40
0
 40
0
 40
0
 40
1
 40
1
 40
1
 40
1
 10
71.722082
 20
288.460922
 30
0.0
 10
71.729336
 20
288.459623
 30
0.0
 10
71.736613
 20
288.458455
 30
0.0
 10
71.743911
 20
288.457419
 30
0.0
  0
SPLINE
  5
17f
100
AcDbEntity
  8
Expo-Arte-MB
 62
7
100
AcDbSpline
 70
8
 71
3
 72
8
 73
4
 74
0
 40
0
 40
0
 40
0
 40
0
 40
1
 40
1
 40
1
 40
1
 10
71.743911
 20
288.457419
 30
0.0
 10
71.801991
 20
288.450063
 30
0.0
 10
71.826918
 20
288.437453
 30
0.0
 10
71.845192
 20
288.425763
 30
0.0
  0
SPLINE
  5
180
100
AcDbEntity
  8
Expo-Arte-MB
 62
7
100
AcDbSpline
 70
8
 71
3
 72
8
 73
4
 74
0
 40
0
 40
0
 40
0
 40
0
 40
1
 40
1
 40
1
 40
1
 10
71.845192
 20
288.425763
 30
0.0
 10
71.846533
 20
288.424887
 30
0.0
 10
71.847695
 20
288.431936
 30
0.0
 10
71.864401
 20
288.396690
 30
0.0
  0
SPLINE
  5
181
100
AcDbEntity
  8
Expo-Arte-MB
 62
7
100
AcDbSpline
 70
8
 71
3
 72
8
 73
4
 74
0
 40
0
 40
0
 40
0
 40
0
 40
1
 40
1
 40
1
 40
1
 10
71.864401
 20
288.396690
 30
0.0
 10
71.868014
 20
288.388919
 30
0.0
 10
71.871798
 20
288.381226
 30
0.0
 10
71.875751
 20
288.373616
 30
0.0
  0
SPLINE
  5
182
100
AcDbEntity
  8
Expo-Arte-MB
 62
7
100
AcDbSpline
 70
8
 71
3
 72
8
 73
4
 74
0
 40
0
 40
0
 40
0
 40
0
 40
1
 40
1
 40
1
 40
1
 10
71.875751
 20
288.373616
 30
0.0
 10
71.873963
 20
288.377119
 30
0.0
 10
71.899323
 20
288.314179
 30
0.0
 10
71.899323
 20
288.182919
 30
0.0
  0
LINE
  5
183
100
AcDbEntity
  8
Expo-Arte-MB
 62
7
100
AcDbLine
 10
71.899323
 20
288.182919
 30
0.0
 11
71.899323
 21
280.133322
 31
0.0
  0
SPLINE
  5
184
100
AcDbEntity
  8
Expo-Arte-MB
 62
7
100
AcDbSpline
 70
8
 71
3
 72
8
 73
4
 74
0
 40
0
 40
0
 40
0
 40
0
 40
1
 40
1
 40
1
 40
1
 10
71.899323
 20
280.133322
 30
0.0
 10
71.899323
 20
279.706480
 30
0.0
 10
71.858679
 20
279.367390
 30
0.0
 10
71.794550
 20
279.129366
 30
0.0
  0
SPLINE
  5
185
100
AcDbEntity
  8
Expo-Arte-MB
 62
7
100
AcDbSpline
 70
8
 71
3
 72
8
 73
4
 74
0
 40
0
 40
0
 40
0
 40
0
 40
1
 40
1
 40
1
 40
1
 10
71.794550
 20
279.129366
 30
0.0
 10
71.793943
 20
279.126233
 30
0.0
 10
71.793362
 20
279.123095
 30
0.0
 10
71.792806
 20
279.119953
 30
0.0
  0
SPLINE
  5
186
100
AcDbEntity
  8
Expo-Arte-MB
 62
7
100
AcDbSpline
 70
8
 71
3
 72
8
 73
4
 74
0
 40
0
 40
0
 40
0
 40
0
 40
1
 40
1
 40
1
 40
1
 10
71.792806
 20
279.119953
 30
0.0
 10
71.729239
 20
278.867455
 30
0.0
 10
71.642226
 20
278.701981
 30
0.0
 10
71.563178
 20
278.606856
 30
0.0
  0
SPLINE
  5
187
100
AcDbEntity
  8
Expo-Arte-MB
 62
7
100
AcDbSpline
 70
8
 71
3
 72
8
 73
4
 74
0
 40
0
 40
0
 40
0
 40
0
 40
1
 40
1
 40
1
 40
1
 10
71.563178
 20
278.606856
 30
0.0
 10
71.561708
 20
278.605157
 30
0.0
 10
71.560247
 20
278.603449
 30
0.0
 10
71.558797
 20
278.601733
 30
0.0
  0
SPLINE
  5
188
100
AcDbEntity
  8
Expo-Arte-MB
 62
7
100
AcDbSpline
 70
8
 71
3
 72
8
 73
4
 74
0
 40
0
 40
0
 40
0
 40
0
 40
1
 40
1
 40
1
 40
1
 10
71.558797
 20
278.601733
 30
0.0
 10
71.471876
 20
278.494708
 30
0.0
 10
71.386203
 20
278.436615
 30
0.0
 10
71.262812
 20
278.394784
 30
0.0
  0
SPLINE
  5
189
100
AcDbEntity
  8
Expo-Arte-MB
 62
7
100
AcDbSpline
 70
8
 71
3
 72
8
 73
4
 74
0
 40
0
 40
0
 40
0
 40
0
 40
1
 40
1
 40
1
 40
1
 10
71.262812
 20
278.394784
 30
0.0
 10
71.258426
 20
278.393126
 30
0.0
 10
71.254059
 20
278.391419
 30
0.0
 10
71.249714
 20
278.389661
 30
0.0
  0
SPLINE
  5
18a
100
AcDbEntity
  8
Expo-Arte-MB
 62
7
100
AcDbSpline
 70
8
 71
3
 72
8
 73
4
 74
0
 40
0
 40
0
 40
0
 40
0
 40
1
 40
1
 40
1
 40
1
 10
71.249714
 20
278.389661
 30
0.0
 10
71.107098
 20
278.337619
 30
0.0
 10
70.925382
 20
278.305854
 30
0.0
 10
70.694414
 20
278.305854
 30
0.0
  0
SPLINE
  5
18b
100
AcDbEntity
  8
Expo-Arte-MB
 62
7
100
AcDbSpline
 70
8
 71
3
 72
8
 73
4
 74
0
 40
0
 40
0
 40
0
 40
0
 40
1
 40
1
 40
1
 40
1
 10
70.694414
 20
278.305854
 30
0.0
 10
70.694414
 20
278.305854
 30
0.0
 10
70.569559
 20
278.305854
 30
0.0
 10
70.569559
 20
278.305854
 30
0.0
  0
SPLINE
  5
18c
100
AcDbEntity
  8
Expo-Arte-MB
 62
7
100
AcDbSpline
 70
8
 71
3
 72
8
 73
4
 74
0
 40
0
 40
0
 40
0
 40
0
 40
1
 40
1
 40
1
 40
1
 10
70.569559
 20
278.305854
 30
0.0
 10
70.409752
 20
278.305943
 30
0.0
 10
70.256465
 20
278.243805
 30
0.0
 10
70.143465
 20
278.133129
 30
0.0
  0
SPLINE
  5
18d
100
AcDbEntity
  8
Expo-Arte-MB
 62
7
100
AcDbSpline
 70
8
 71
3
 72
8
 73
4
 74
0
 40
0
 40
0
 40
0
 40
0
 40
1
 40
1
 40
1
 40
1
 10
70.143465
 20
278.133129
 30
0.0
 10
70.030464
 20
278.022453
 30
0.0
 10
69.967021
 20
277.872318
 30
0.0
 10
69.967111
 20
277.715798
 30
0.0
  0
SPLINE
  5
18e
100
AcDbEntity
  8
Expo-Arte-MB
 62
7
100
AcDbSpline
 70
8
 71
3
 72
8
 73
4
 74
0
 40
0
 40
0
 40
0
 40
0
 40
1
 40
1
 40
1
 40
1
 10
69.967111
 20
277.715798
 30
0.0
 10
69.967111
 20
277.715798
 30
0.0
 10
69.967111
 20
277.093241
 30
0.0
 10
69.967111
 20
277.093241
 30
0.0
  0
SPLINE
  5
18f
100
AcDbEntity
  8
Expo-Arte-MB
 62
7
100
AcDbSpline
 70
8
 71
3
 72
8
 73
4
 74
0
 40
0
 40
0
 40
0
 40
0
 40
1
 40
1
 40
1
 40
1
 10
69.967111
 20
277.093241
 30
0.0
 10
69.967021
 20
276.936721
 30
0.0
 10
70.030464
 20
276.786587
 30
0.0
 10
70.143465
 20
276.675911
 30
0.0
  0
SPLINE
  5
190
100
AcDbEntity
  8
Expo-Arte-MB
 62
7
100
AcDbSpline
 70
8
 71
3
 72
8
 73
4
 74
0
 40
0
 40
0
 40
0
 40
0
 40
1
 40
1
 40
1
 40
1
 10
70.143465
 20
276.675911
 30
0.0
 10
70.256465
 20
276.565234
 30
0.0
 10
70.409752
 20
276.503097
 30
0.0
 10
70.569559
 20
276.503186
 30
0.0
  0
LINE
  5
191
100
AcDbEntity
  8
Expo-Arte-MB
 62
7
100
AcDbLine
 10
70.569559
 20
276.503186
 30
0.0
 11
70.799187
 21
276.503186
 31
0.0
  0
SPLINE
  5
192
100
AcDbEntity
  8
Expo-Arte-MB
 62
7
100
AcDbSpline
 70
8
 71
3
 72
8
 73
4
 74
0
 40
0
 40
0
 40
0
 40
0
 40
1
 40
1
 40
1
 40
1
 10
70.799187
 20
276.503186
 30
0.0
 10
71.273918
 20
276.503186
 30
0.0
 10
71.726142
 20
276.558818
 30
0.0
 10
72.152512
 20
276.671649
 30
0.0
  0
SPLINE
  5
193
100
AcDbEntity
  8
Expo-Arte-MB
 62
7
100
AcDbSpline
 70
8
 71
3
 72
8
 73
4
 74
0
 40
0
 40
0
 40
0
 40
0
 40
1
 40
1
 40
1
 40
1
 10
72.152512
 20
276.671649
 30
0.0
 10
72.607845
 20
276.790921
 30
0.0
 10
73.021816
 20
277.001873
 30
0.0
 10
73.367883
 20
277.297625
 30
0.0
  0
SPLINE
  5
194
100
AcDbEntity
  8
Expo-Arte-MB
 62
7
100
AcDbSpline
 70
8
 71
3
 72
8
 73
4
 74
0
 40
0
 40
0
 40
0
 40
0
 40
1
 40
1
 40
1
 40
1
 10
73.367883
 20
277.297625
 30
0.0
 10
73.368008
 20
277.297731
 30
0.0
 10
73.368777
 20
277.297520
 30
0.0
 10
73.368777
 20
277.297625
 30
0.0
  0
SPLINE
  5
195
100
AcDbEntity
  8
Expo-Arte-MB
 62
7
100
AcDbSpline
 70
8
 71
3
 72
8
 73
4
 74
0
 40
0
 40
0
 40
0
 40
0
 40
1
 40
1
 40
1
 40
1
 10
73.368777
 20
277.297625
 30
0.0
 10
73.726909
 20
277.599622
 30
0.0
 10
73.995621
 20
277.999374
 30
0.0
 10
74.180769
 20
278.462351
 30
0.0
  0
SPLINE
  5
196
100
AcDbEntity
  8
Expo-Arte-MB
 62
7
100
AcDbSpline
 70
8
 71
3
 72
8
 73
4
 74
0
 40
0
 40
0
 40
0
 40
0
 40
1
 40
1
 40
1
 40
1
 10
74.180769
 20
278.462351
 30
0.0
 10
74.375751
 20
278.945789
 30
0.0
 10
74.459293
 20
279.505449
 30
0.0
 10
74.459293
 20
280.146155
 30
0.0
  0
LINE
  5
197
100
AcDbEntity
  8
Expo-Arte-MB
 62
7
100
AcDbLine
 10
74.459293
 20
280.146155
 30
0.0
 11
74.459293
 21
288.131670
 31
0.0
  0
SPLINE
  5
198
100
AcDbEntity
  8
Expo-Arte-MB
 62
7
100
AcDbSpline
 70
8
 71
3
 72
8
 73
4
 74
0
 40
0
 40
0
 40
0
 40
0
 40
1
 40
1
 40
1
 40
1
 10
74.459293
 20
288.131670
 30
0.0
 10
74.459293
 20
288.279765
 30
0.0
 10
74.483388
 20
288.361567
 30
0.0
 10
74.490719
 20
288.378809
 30
0.0
  0
SPLINE
  5
199
100
AcDbEntity
  8
Expo-Arte-MB
 62
7
100
AcDbSpline
 70
8
 71
3
 72
8
 73
4
 74
0
 40
0
 40
0
 40
0
 40
0
 40
1
 40
1
 40
1
 40
1
 10
74.490719
 20
288.378809
 30
0.0
 10
74.506544
 20
288.405911
 30
0.0
 10
74.520179
 20
288.422024
 30
0.0
 10
74.516915
 20
288.419835
 30
0.0
  0
SPLINE
  5
19a
100
AcDbEntity
  8
Expo-Arte-MB
 62
7
100
AcDbSpline
 70
8
 71
3
 72
8
 73
4
 74
0
 40
0
 40
0
 40
0
 40
0
 40
1
 40
1
 40
1
 40
1
 10
74.516915
 20
288.419835
 30
0.0
 10
74.518665
 20
288.420993
 30
0.0
 10
74.520409
 20
288.422161
 30
0.0
 10
74.522146
 20
288.423337
 30
0.0
  0
SPLINE
  5
19b
100
AcDbEntity
  8
Expo-Arte-MB
 62
7
100
AcDbSpline
 70
8
 71
3
 72
8
 73
4
 74
0
 40
0
 40
0
 40
0
 40
0
 40
1
 40
1
 40
1
 40
1
 10
74.522146
 20
288.423337
 30
0.0
 10
74.543559
 20
288.437917
 30
0.0
 10
74.570264
 20
288.451009
 30
0.0
 10
74.627789
 20
288.460116
 30
0.0
  0
SPLINE
  5
19c
100
AcDbEntity
  8
Expo-Arte-MB
 62
7
100
AcDbSpline
 70
8
 71
3
 72
8
 73
4
 74
0
 40
0
 40
0
 40
0
 40
0
 40
1
 40
1
 40
1
 40
1
 10
74.627789
 20
288.460116
 30
0.0
 10
74.727915
 20
288.475922
 30
0.0
 10
74.836848
 20
288.484066
 30
0.0
 10
74.956953
 20
288.484066
 30
0.0
  0
LINE
  5
19d
100
AcDbEntity
  8
Expo-Arte-MB
 62
7
100
AcDbLine
 10
74.956953
 20
288.484066
 30
0.0
 11
75.134197
 21
288.484066
 31
0.0
  0
SPLINE
  5
19e
100
AcDbEntity
  8
Expo-Arte-MB
 62
7
100
AcDbSpline
 70
8
 71
3
 72
8
 73
4
 74
0
 40
0
 40
0
 40
0
 40
0
 40
1
 40
1
 40
1
 40
1
 10
75.134197
 20
288.484066
 30
0.0
 10
75.303927
 20
288.484410
 30
0.0
 10
75.465624
 20
288.554901
 30
0.0
 10
75.579483
 20
288.678187
 30
0.0
  0
SPLINE
  5
19f
100
AcDbEntity
  8
Expo-Arte-MB
 62
7
100
AcDbSpline
 70
8
 71
3
 72
8
 73
4
 74
0
 40
0
 40
0
 40
0
 40
0
 40
1
 40
1
 40
1
 40
1
 10
75.579483
 20
288.678187
 30
0.0
 10
75.693342
 20
288.554901
 30
0.0
 10
75.855040
 20
288.484410
 30
0.0
 10
76.024769
 20
288.484066
 30
0.0
  0
LINE
  5
1a0
100
AcDbEntity
  8
Expo-Arte-MB
 62
7
100
AcDbLine
 10
76.024769
 20
288.484066
 30
0.0
 11
76.195026
 21
288.484066
 31
0.0
  0
SPLINE
  5
1a1
100
AcDbEntity
  8
Expo-Arte-MB
 62
7
100
AcDbSpline
 70
8
 71
3
 72
8
 73
4
 74
0
 40
0
 40
0
 40
0
 40
0
 40
1
 40
1
 40
1
 40
1
 10
76.195026
 20
288.484066
 30
0.0
 10
76.315140
 20
288.484066
 30
0.0
 10
76.422177
 20
288.476185
 30
0.0
 10
76.515460
 20
288.460992
 30
0.0
  0
SPLINE
  5
1a2
100
AcDbEntity
  8
Expo-Arte-MB
 62
7
100
AcDbSpline
 70
8
 71
3
 72
8
 73
4
 74
0
 40
0
 40
0
 40
0
 40
0
 40
1
 40
1
 40
1
 40
1
 10
76.515460
 20
288.460992
 30
0.0
 10
76.522709
 20
288.459693
 30
0.0
 10
76.529982
 20
288.458526
 30
0.0
 10
76.537275
 20
288.457489
 30
0.0
  0
SPLINE
  5
1a3
100
AcDbEntity
  8
Expo-Arte-MB
 62
7
100
AcDbSpline
 70
8
 71
3
 72
8
 73
4
 74
0
 40
0
 40
0
 40
0
 40
0
 40
1
 40
1
 40
1
 40
1
 10
76.537275
 20
288.457489
 30
0.0
 10
76.595358
 20
288.450133
 30
0.0
 10
76.620280
 20
288.437523
 30
0.0
 10
76.638555
 20
288.425833
 30
0.0
  0
SPLINE
  5
1a4
100
AcDbEntity
  8
Expo-Arte-MB
 62
7
100
AcDbSpline
 70
8
 71
3
 72
8
 73
4
 74
0
 40
0
 40
0
 40
0
 40
0
 40
1
 40
1
 40
1
 40
1
 10
76.638555
 20
288.425833
 30
0.0
 10
76.639896
 20
288.424957
 30
0.0
 10
76.641237
 20
288.432007
 30
0.0
 10
76.657777
 20
288.396760
 30
0.0
  0
SPLINE
  5
1a5
100
AcDbEntity
  8
Expo-Arte-MB
 62
7
100
AcDbSpline
 70
8
 71
3
 72
8
 73
4
 74
0
 40
0
 40
0
 40
0
 40
0
 40
1
 40
1
 40
1
 40
1
 10
76.657777
 20
288.396760
 30
0.0
 10
76.661391
 20
288.388989
 30
0.0
 10
76.665177
 20
288.381296
 30
0.0
 10
76.669132
 20
288.373686
 30
0.0
  0
SPLINE
  5
1a6
100
AcDbEntity
  8
Expo-Arte-MB
 62
7
100
AcDbSpline
 70
8
 71
3
 72
8
 73
4
 74
0
 40
0
 40
0
 40
0
 40
0
 40
1
 40
1
 40
1
 40
1
 10
76.669132
 20
288.373686
 30
0.0
 10
76.667344
 20
288.377189
 30
0.0
 10
76.692691
 20
288.314245
 30
0.0
 10
76.692691
 20
288.182989
 30
0.0
  0
LINE
  5
1a7
100
AcDbEntity
  8
Expo-Arte-MB
 62
7
100
AcDbLine
 10
76.692691
 20
288.182989
 30
0.0
 11
76.692691
 21
281.743655
 31
0.0
  0
SPLINE
  5
1a8
100
AcDbEntity
  8
Expo-Arte-MB
 62
7
100
AcDbSpline
 70
8
 71
3
 72
8
 73
4
 74
0
 40
0
 40
0
 40
0
 40
0
 40
1
 40
1
 40
1
 40
1
 10
76.692691
 20
281.743655
 30
0.0
 10
76.692691
 20
281.592465
 30
0.0
 10
76.666673
 20
281.504275
 30
0.0
 10
76.660370
 20
281.490526
 30
0.0
  0
SPLINE
  5
1a9
100
AcDbEntity
  8
Expo-Arte-MB
 62
7
100
AcDbSpline
 70
8
 71
3
 72
8
 73
4
 74
0
 40
0
 40
0
 40
0
 40
0
 40
1
 40
1
 40
1
 40
1
 10
76.660370
 20
281.490526
 30
0.0
 10
76.644009
 20
281.454711
 30
0.0
 10
76.638913
 20
281.454930
 30
0.0
 10
76.634174
 20
281.452040
 30
0.0
  0
SPLINE
  5
1aa
100
AcDbEntity
  8
Expo-Arte-MB
 62
7
100
AcDbSpline
 70
8
 71
3
 72
8
 73
4
 74
0
 40
0
 40
0
 40
0
 40
0
 40
1
 40
1
 40
1
 40
1
 10
76.634174
 20
281.452040
 30
0.0
 10
76.611867
 20
281.438861
 30
0.0
 10
76.583534
 20
281.424631
 30
0.0
 10
76.524159
 20
281.415262
 30
0.0
  0
SPLINE
  5
1ab
100
AcDbEntity
  8
Expo-Arte-MB
 62
7
100
AcDbSpline
 70
8
 71
3
 72
8
 73
4
 74
0
 40
0
 40
0
 40
0
 40
0
 40
1
 40
1
 40
1
 40
1
 10
76.524159
 20
281.415262
 30
0.0
 10
76.523264
 20
281.414972
 30
0.0
 10
76.522370
 20
281.414680
 30
0.0
 10
76.521477
 20
281.414386
 30
0.0
  0
SPLINE
  5
1ac
100
AcDbEntity
  8
Expo-Arte-MB
 62
7
100
AcDbSpline
 70
8
 71
3
 72
8
 73
4
 74
0
 40
0
 40
0
 40
0
 40
0
 40
1
 40
1
 40
1
 40
1
 10
76.521477
 20
281.414386
 30
0.0
 10
76.426464
 20
281.398886
 30
0.0
 10
76.317916
 20
281.390436
 30
0.0
 10
76.194932
 20
281.390436
 30
0.0
  0
SPLINE
  5
1ad
100
AcDbEntity
  8
Expo-Arte-MB
 62
7
100
AcDbSpline
 70
8
 71
3
 72
8
 73
4
 74
0
 40
0
 40
0
 40
0
 40
0
 40
1
 40
1
 40
1
 40
1
 10
76.194932
 20
281.390436
 30
0.0
 10
76.194932
 20
281.390436
 30
0.0
 10
76.024675
 20
281.390436
 30
0.0
 10
76.024675
 20
281.390436
 30
0.0
  0
SPLINE
  5
1ae
100
AcDbEntity
  8
Expo-Arte-MB
 62
7
100
AcDbSpline
 70
8
 71
3
 72
8
 73
4
 74
0
 40
0
 40
0
 40
0
 40
0
 40
1
 40
1
 40
1
 40
1
 10
76.024675
 20
281.390436
 30
0.0
 10
75.864868
 20
281.390524
 30
0.0
 10
75.711581
 20
281.328386
 30
0.0
 10
75.598581
 20
281.217709
 30
0.0
  0
SPLINE
  5
1af
100
AcDbEntity
  8
Expo-Arte-MB
 62
7
100
AcDbSpline
 70
8
 71
3
 72
8
 73
4
 74
0
 40
0
 40
0
 40
0
 40
0
 40
1
 40
1
 40
1
 40
1
 10
75.598581
 20
281.217709
 30
0.0
 10
75.485581
 20
281.107032
 30
0.0
 10
75.422139
 20
280.956896
 30
0.0
 10
75.422230
 20
280.800376
 30
0.0
  0
SPLINE
  5
1b0
100
AcDbEntity
  8
Expo-Arte-MB
 62
7
100
AcDbSpline
 70
8
 71
3
 72
8
 73
4
 74
0
 40
0
 40
0
 40
0
 40
0
 40
1
 40
1
 40
1
 40
1
 10
75.422230
 20
280.800376
 30
0.0
 10
75.422230
 20
280.800376
 30
0.0
 10
75.422230
 20
280.248798
 30
0.0
 10
75.422230
 20
280.248798
 30
0.0
  0
SPLINE
  5
1b1
100
AcDbEntity
  8
Expo-Arte-MB
 62
7
100
AcDbSpline
 70
8
 71
3
 72
8
 73
4
 74
0
 40
0
 40
0
 40
0
 40
0
 40
1
 40
1
 40
1
 40
1
 10
75.422230
 20
280.248798
 30
0.0
 10
75.422140
 20
280.092278
 30
0.0
 10
75.485583
 20
279.942144
 30
0.0
 10
75.598583
 20
279.831468
 30
0.0
  0
SPLINE
  5
1b2
100
AcDbEntity
  8
Expo-Arte-MB
 62
7
100
AcDbSpline
 70
8
 71
3
 72
8
 73
4
 74
0
 40
0
 40
0
 40
0
 40
0
 40
1
 40
1
 40
1
 40
1
 10
75.598583
 20
279.831468
 30
0.0
 10
75.711582
 20
279.720792
 30
0.0
 10
75.864869
 20
279.658654
 30
0.0
 10
76.024675
 20
279.658742
 30
0.0
  0
SPLINE
  5
1b3
100
AcDbEntity
  8
Expo-Arte-MB
 62
7
100
AcDbSpline
 70
8
 71
3
 72
8
 73
4
 74
0
 40
0
 40
0
 40
0
 40
0
 40
1
 40
1
 40
1
 40
1
 10
76.024675
 20
279.658742
 30
0.0
 10
76.024675
 20
279.658742
 30
0.0
 10
79.390525
 20
279.658742
 30
0.0
 10
79.390525
 20
279.658742
 30
0.0
  0
SPLINE
  5
1b4
100
AcDbEntity
  8
Expo-Arte-MB
 62
7
100
AcDbSpline
 70
8
 71
3
 72
8
 73
4
 74
0
 40
0
 40
0
 40
0
 40
0
 40
1
 40
1
 40
1
 40
1
 10
79.390525
 20
279.658742
 30
0.0
 10
79.550332
 20
279.658652
 30
0.0
 10
79.703620
 20
279.720790
 30
0.0
 10
79.816621
 20
279.831466
 30
0.0
  0
SPLINE
  5
1b5
100
AcDbEntity
  8
Expo-Arte-MB
 62
7
100
AcDbSpline
 70
8
 71
3
 72
8
 73
4
 74
0
 40
0
 40
0
 40
0
 40
0
 40
1
 40
1
 40
1
 40
1
 10
79.816621
 20
279.831466
 30
0.0
 10
79.929621
 20
279.942142
 30
0.0
 10
79.993065
 20
280.092277
 30
0.0
 10
79.992975
 20
280.248798
 30
0.0
  0
SPLINE
  5
1b6
100
AcDbEntity
  8
Expo-Arte-MB
 62
7
100
AcDbSpline
 70
8
 71
3
 72
8
 73
4
 74
0
 40
0
 40
0
 40
0
 40
0
 40
1
 40
1
 40
1
 40
1
 10
79.992975
 20
280.248798
 30
0.0
 10
79.992975
 20
280.248798
 30
0.0
 10
79.992975
 20
280.800376
 30
0.0
 10
79.992975
 20
280.800376
 30
0.0
  0
SPLINE
  5
1b7
100
AcDbEntity
  8
Expo-Arte-MB
 62
7
100
AcDbSpline
 70
8
 71
3
 72
8
 73
4
 74
0
 40
0
 40
0
 40
0
 40
0
 40
1
 40
1
 40
1
 40
1
 10
79.992975
 20
280.800376
 30
0.0
 10
79.993066
 20
280.956897
 30
0.0
 10
79.929623
 20
281.107033
 30
0.0
 10
79.816622
 20
281.217710
 30
0.0
  0
SPLINE
  5
1b8
100
AcDbEntity
  8
Expo-Arte-MB
 62
7
100
AcDbSpline
 70
8
 71
3
 72
8
 73
4
 74
0
 40
0
 40
0
 40
0
 40
0
 40
1
 40
1
 40
1
 40
1
 10
79.816622
 20
281.217710
 30
0.0
 10
79.703621
 20
281.328387
 30
0.0
 10
79.550333
 20
281.390526
 30
0.0
 10
79.390525
 20
281.390436
 30
0.0
  0
LINE
  5
1b9
100
AcDbEntity
  8
Expo-Arte-MB
 62
7
100
AcDbLine
 10
79.390525
 20
281.390436
 30
0.0
 11
79.213285
 21
281.390436
 31
0.0
  0
SPLINE
  5
1ba
100
AcDbEntity
  8
Expo-Arte-MB
 62
7
100
AcDbSpline
 70
8
 71
3
 72
8
 73
4
 74
0
 40
0
 40
0
 40
0
 40
0
 40
1
 40
1
 40
1
 40
1
 10
79.213285
 20
281.390436
 30
0.0
 10
79.095546
 20
281.390436
 30
0.0
 10
78.986742
 20
281.399018
 30
0.0
 10
78.884121
 20
281.415218
 30
0.0
  0
SPLINE
  5
1bb
100
AcDbEntity
  8
Expo-Arte-MB
 62
7
100
AcDbSpline
 70
8
 71
3
 72
8
 73
4
 74
0
 40
0
 40
0
 40
0
 40
0
 40
1
 40
1
 40
1
 40
1
 10
78.884121
 20
281.415218
 30
0.0
 10
78.828555
 20
281.423975
 30
0.0
 10
78.803284
 20
281.437022
 30
0.0
 10
78.781093
 20
281.449413
 30
0.0
  0
SPLINE
  5
1bc
100
AcDbEntity
  8
Expo-Arte-MB
 62
7
100
AcDbSpline
 70
8
 71
3
 72
8
 73
4
 74
0
 40
0
 40
0
 40
0
 40
0
 40
1
 40
1
 40
1
 40
1
 10
78.781093
 20
281.449413
 30
0.0
 10
78.774522
 20
281.454624
 30
0.0
 10
78.763614
 20
281.467058
 30
0.0
 10
78.747029
 20
281.497304
 30
0.0
  0
SPLINE
  5
1bd
100
AcDbEntity
  8
Expo-Arte-MB
 62
7
100
AcDbSpline
 70
8
 71
3
 72
8
 73
4
 74
0
 40
0
 40
0
 40
0
 40
0
 40
1
 40
1
 40
1
 40
1
 10
78.747029
 20
281.497304
 30
0.0
 10
78.739877
 20
281.514555
 30
0.0
 10
78.715603
 20
281.596488
 30
0.0
 10
78.715603
 20
281.743590
 30
0.0
  0
LINE
  5
1be
100
AcDbEntity
  8
Expo-Arte-MB
 62
7
100
AcDbLine
 10
78.715603
 20
281.743590
 30
0.0
 11
78.715603
 21
285.829531
 31
0.0
  0
SPLINE
  5
1bf
100
AcDbEntity
  8
Expo-Arte-MB
 62
7
100
AcDbSpline
 70
8
 71
3
 72
8
 73
4
 74
0
 40
0
 40
0
 40
0
 40
0
 40
1
 40
1
 40
1
 40
1
 10
78.715603
 20
285.829531
 30
0.0
 10
78.715603
 20
285.829531
 30
0.0
 10
82.637621
 20
279.927234
 30
0.0
 10
82.637621
 20
279.927234
 30
0.0
  0
SPLINE
  5
1c0
100
AcDbEntity
  8
Expo-Arte-MB
 62
7
100
AcDbSpline
 70
8
 71
3
 72
8
 73
4
 74
0
 40
0
 40
0
 40
0
 40
0
 40
1
 40
1
 40
1
 40
1
 10
82.637621
 20
279.927234
 30
0.0
 10
82.748611
 20
279.759853
 30
0.0
 10
82.938508
 20
279.658813
 30
0.0
 10
83.142282
 20
279.658716
 30
0.0
  0
LINE
  5
1c1
100
AcDbEntity
  8
Expo-Arte-MB
 62
7
100
AcDbLine
 10
83.142282
 20
279.658716
 30
0.0
 11
84.098339
 21
279.658716
 31
0.0
  0
SPLINE
  5
1c2
100
AcDbEntity
  8
Expo-Arte-MB
 62
7
100
AcDbSpline
 70
8
 71
3
 72
8
 73
4
 74
0
 40
0
 40
0
 40
0
 40
0
 40
1
 40
1
 40
1
 40
1
 10
84.098339
 20
279.658716
 30
0.0
 10
84.258146
 20
279.658626
 30
0.0
 10
84.411434
 20
279.720764
 30
0.0
 10
84.524435
 20
279.831440
 30
0.0
  0
SPLINE
  5
1c3
100
AcDbEntity
  8
Expo-Arte-MB
 62
7
100
AcDbSpline
 70
8
 71
3
 72
8
 73
4
 74
0
 40
0
 40
0
 40
0
 40
0
 40
1
 40
1
 40
1
 40
1
 10
84.524435
 20
279.831440
 30
0.0
 10
84.637436
 20
279.942116
 30
0.0
 10
84.700879
 20
280.092251
 30
0.0
 10
84.700789
 20
280.248771
 30
0.0
  0
LINE
  5
1c4
100
AcDbEntity
  8
Expo-Arte-MB
 62
7
100
AcDbLine
 10
84.700789
 20
280.248771
 30
0.0
 11
84.700789
 21
288.131670
 31
0.0
  0
SPLINE
  5
1c5
100
AcDbEntity
  8
Expo-Arte-MB
 62
7
100
AcDbSpline
 70
8
 71
3
 72
8
 73
4
 74
0
 40
0
 40
0
 40
0
 40
0
 40
1
 40
1
 40
1
 40
1
 10
84.700789
 20
288.131670
 30
0.0
 10
84.700789
 20
288.282856
 30
0.0
 10
84.726404
 20
288.369277
 30
0.0
 10
84.733109
 20
288.383940
 30
0.0
  0
SPLINE
  5
1c6
100
AcDbEntity
  8
Expo-Arte-MB
 62
7
100
AcDbSpline
 70
8
 71
3
 72
8
 73
4
 74
0
 40
0
 40
0
 40
0
 40
0
 40
1
 40
1
 40
1
 40
1
 10
84.733109
 20
288.383940
 30
0.0
 10
84.751482
 20
288.424134
 30
0.0
 10
84.753628
 20
288.416078
 30
0.0
 10
84.748845
 20
288.413013
 30
0.0
  0
SPLINE
  5
1c7
100
AcDbEntity
  8
Expo-Arte-MB
 62
7
100
AcDbSpline
 70
8
 71
3
 72
8
 73
4
 74
0
 40
0
 40
0
 40
0
 40
0
 40
1
 40
1
 40
1
 40
1
 10
84.748845
 20
288.413013
 30
0.0
 10
84.753844
 20
288.416355
 30
0.0
 10
84.758792
 20
288.419770
 30
0.0
 10
84.763686
 20
288.423258
 30
0.0
  0
SPLINE
  5
1c8
100
AcDbEntity
  8
Expo-Arte-MB
 62
7
100
AcDbSpline
 70
8
 71
3
 72
8
 73
4
 74
0
 40
0
 40
0
 40
0
 40
0
 40
1
 40
1
 40
1
 40
1
 10
84.763686
 20
288.423258
 30
0.0
 10
84.788497
 20
288.440159
 30
0.0
 10
84.813593
 20
288.451674
 30
0.0
 10
84.862351
 20
288.460037
 30
0.0
  0
SPLINE
  5
1c9
100
AcDbEntity
  8
Expo-Arte-MB
 62
7
100
AcDbSpline
 70
8
 71
3
 72
8
 73
4
 74
0
 40
0
 40
0
 40
0
 40
0
 40
1
 40
1
 40
1
 40
1
 10
84.862351
 20
288.460037
 30
0.0
 10
84.961266
 20
288.475668
 30
0.0
 10
85.073212
 20
288.483987
 30
0.0
 10
85.198498
 20
288.483987
 30
0.0
  0
SPLINE
  5
1ca
100
AcDbEntity
  8
Expo-Arte-MB
 62
7
100
AcDbSpline
 70
8
 71
3
 72
8
 73
4
 74
0
 40
0
 40
0
 40
0
 40
0
 40
1
 40
1
 40
1
 40
1
 10
85.198498
 20
288.483987
 30
0.0
 10
85.198498
 20
288.483987
 30
0.0
 10
85.368755
 20
288.483987
 30
0.0
 10
85.368755
 20
288.483987
 30
0.0
  0
SPLINE
  5
1cb
100
AcDbEntity
  8
Expo-Arte-MB
 62
7
100
AcDbSpline
 70
8
 71
3
 72
8
 73
4
 74
0
 40
0
 40
0
 40
0
 40
0
 40
1
 40
1
 40
1
 40
1
 10
85.368755
 20
288.483987
 30
0.0
 10
85.528561
 20
288.483899
 30
0.0
 10
85.681848
 20
288.546037
 30
0.0
 10
85.794848
 20
288.656713
 30
0.0
  0
SPLINE
  5
1cc
100
AcDbEntity
  8
Expo-Arte-MB
 62
7
100
AcDbSpline
 70
8
 71
3
 72
8
 73
4
 74
0
 40
0
 40
0
 40
0
 40
0
 40
1
 40
1
 40
1
 40
1
 10
85.794848
 20
288.656713
 30
0.0
 10
85.907848
 20
288.767389
 30
0.0
 10
85.971290
 20
288.917523
 30
0.0
 10
85.971200
 20
289.074043
 30
0.0
  0
LINE
  5
1cd
100
AcDbEntity
  8
Expo-Arte-MB
 62
7
100
AcDbLine
 10
85.971200
 20
289.074043
 30
0.0
 11
85.971200
 21
289.625621
 31
0.0
  0
SPLINE
  5
1ce
100
AcDbEntity
  8
Expo-Arte-MB
 62
7
100
AcDbSpline
 70
8
 71
3
 72
8
 73
4
 74
0
 40
0
 40
0
 40
0
 40
0
 40
1
 40
1
 40
1
 40
1
 10
85.971200
 20
289.625621
 30
0.0
 10
85.971292
 20
289.782141
 30
0.0
 10
85.907849
 20
289.932277
 30
0.0
 10
85.794849
 20
290.042954
 30
0.0
  0
SPLINE
  5
1cf
100
AcDbEntity
  8
Expo-Arte-MB
 62
7
100
AcDbSpline
 70
8
 71
3
 72
8
 73
4
 74
0
 40
0
 40
0
 40
0
 40
0
 40
1
 40
1
 40
1
 40
1
 10
85.794849
 20
290.042954
 30
0.0
 10
85.681849
 20
290.153631
 30
0.0
 10
85.528562
 20
290.215770
 30
0.0
 10
85.368755
 20
290.215681
 30
0.0
  0
SPLINE
  5
1d0
100
AcDbEntity
  8
Expo-Arte-MB
 62
7
100
AcDbSpline
 70
8
 71
3
 72
8
 73
4
 74
0
 40
0
 40
0
 40
0
 40
0
 40
1
 40
1
 40
1
 40
1
 10
85.368755
 20
290.215681
 30
0.0
 10
85.368755
 20
290.215681
 30
0.0
 10
82.002905
 20
290.215681
 30
0.0
 10
82.002905
 20
290.215681
 30
0.0
  0
SPLINE
  5
1d1
100
AcDbEntity
  8
Expo-Arte-MB
 62
7
100
AcDbSpline
 70
8
 71
3
 72
8
 73
4
 74
0
 40
0
 40
0
 40
0
 40
0
 40
1
 40
1
 40
1
 40
1
 10
82.002905
 20
290.215681
 30
0.0
 10
81.843098
 20
290.215770
 30
0.0
 10
81.689811
 20
290.153631
 30
0.0
 10
81.576811
 20
290.042954
 30
0.0
  0
SPLINE
  5
1d2
100
AcDbEntity
  8
Expo-Arte-MB
 62
7
100
AcDbSpline
 70
8
 71
3
 72
8
 73
4
 74
0
 40
0
 40
0
 40
0
 40
0
 40
1
 40
1
 40
1
 40
1
 10
81.576811
 20
290.042954
 30
0.0
 10
81.463811
 20
289.932277
 30
0.0
 10
81.400369
 20
289.782141
 30
0.0
 10
81.400460
 20
289.625621
 30
0.0
  0
SPLINE
  5
1d3
100
AcDbEntity
  8
Expo-Arte-MB
 62
7
100
AcDbSpline
 70
8
 71
3
 72
8
 73
4
 74
0
 40
0
 40
0
 40
0
 40
0
 40
1
 40
1
 40
1
 40
1
 10
81.400460
 20
289.625621
 30
0.0
 10
81.400460
 20
289.625621
 30
0.0
 10
81.400460
 20
289.074043
 30
0.0
 10
81.400460
 20
289.074043
 30
0.0
  0
SPLINE
  5
1d4
100
AcDbEntity
  8
Expo-Arte-MB
 62
7
100
AcDbSpline
 70
8
 71
3
 72
8
 73
4
 74
0
 40
0
 40
0
 40
0
 40
0
 40
1
 40
1
 40
1
 40
1
 10
81.400460
 20
289.074043
 30
0.0
 10
81.400370
 20
288.917523
 30
0.0
 10
81.463813
 20
288.767389
 30
0.0
 10
81.576813
 20
288.656713
 30
0.0
  0
SPLINE
  5
1d5
100
AcDbEntity
  8
Expo-Arte-MB
 62
7
100
AcDbSpline
 70
8
 71
3
 72
8
 73
4
 74
0
 40
0
 40
0
 40
0
 40
0
 40
1
 40
1
 40
1
 40
1
 10
81.576813
 20
288.656713
 30
0.0
 10
81.689812
 20
288.546037
 30
0.0
 10
81.843099
 20
288.483899
 30
0.0
 10
82.002905
 20
288.483987
 30
0.0
  0
LINE
  5
1d6
100
AcDbEntity
  8
Expo-Arte-MB
 62
7
100
AcDbLine
 10
82.002905
 20
288.483987
 30
0.0
 11
82.180149
 21
288.483987
 31
0.0
  0
SPLINE
  5
1d7
100
AcDbEntity
  8
Expo-Arte-MB
 62
7
100
AcDbSpline
 70
8
 71
3
 72
8
 73
4
 74
0
 40
0
 40
0
 40
0
 40
0
 40
1
 40
1
 40
1
 40
1
 10
82.180149
 20
288.483987
 30
0.0
 10
82.300254
 20
288.483987
 30
0.0
 10
82.407287
 20
288.476106
 30
0.0
 10
82.500579
 20
288.460913
 30
0.0
  0
SPLINE
  5
1d8
100
AcDbEntity
  8
Expo-Arte-MB
 62
7
100
AcDbSpline
 70
8
 71
3
 72
8
 73
4
 74
0
 40
0
 40
0
 40
0
 40
0
 40
1
 40
1
 40
1
 40
1
 10
82.500579
 20
288.460913
 30
0.0
 10
82.507828
 20
288.459615
 30
0.0
 10
82.515101
 20
288.458447
 30
0.0
 10
82.522394
 20
288.457410
 30
0.0
  0
SPLINE
  5
1d9
100
AcDbEntity
  8
Expo-Arte-MB
 62
7
100
AcDbSpline
 70
8
 71
3
 72
8
 73
4
 74
0
 40
0
 40
0
 40
0
 40
0
 40
1
 40
1
 40
1
 40
1
 10
82.522394
 20
288.457410
 30
0.0
 10
82.580472
 20
288.450054
 30
0.0
 10
82.605399
 20
288.437444
 30
0.0
 10
82.623674
 20
288.425754
 30
0.0
  0
SPLINE
  5
1da
100
AcDbEntity
  8
Expo-Arte-MB
 62
7
100
AcDbSpline
 70
8
 71
3
 72
8
 73
4
 74
0
 40
0
 40
0
 40
0
 40
0
 40
1
 40
1
 40
1
 40
1
 10
82.623674
 20
288.425754
 30
0.0
 10
82.625015
 20
288.424878
 30
0.0
 10
82.626356
 20
288.431928
 30
0.0
 10
82.642896
 20
288.396682
 30
0.0
  0
SPLINE
  5
1db
100
AcDbEntity
  8
Expo-Arte-MB
 62
7
100
AcDbSpline
 70
8
 71
3
 72
8
 73
4
 74
0
 40
0
 40
0
 40
0
 40
0
 40
1
 40
1
 40
1
 40
1
 10
82.642896
 20
288.396682
 30
0.0
 10
82.646510
 20
288.388911
 30
0.0
 10
82.650296
 20
288.381217
 30
0.0
 10
82.654251
 20
288.373607
 30
0.0
  0
SPLINE
  5
1dc
100
AcDbEntity
  8
Expo-Arte-MB
 62
7
100
AcDbSpline
 70
8
 71
3
 72
8
 73
4
 74
0
 40
0
 40
0
 40
0
 40
0
 40
1
 40
1
 40
1
 40
1
 10
82.654251
 20
288.373607
 30
0.0
 10
82.652463
 20
288.377110
 30
0.0
 10
82.677810
 20
288.314166
 30
0.0
 10
82.677810
 20
288.182910
 30
0.0
  0
LINE
  5
1dd
100
AcDbEntity
  8
Expo-Arte-MB
 62
7
100
AcDbLine
 10
82.677810
 20
288.182910
 30
0.0
 11
82.677810
 21
284.362064
 31
0.0
  0
SPLINE
  5
1de
100
AcDbEntity
  8
Expo-Arte-MB
 62
7
100
AcDbSpline
 70
8
 71
3
 72
8
 73
4
 74
0
 40
0
 40
0
 40
0
 40
0
 40
1
 40
1
 40
1
 40
1
 10
82.677810
 20
284.362064
 30
0.0
 10
82.677810
 20
284.362064
 30
0.0
 10
78.985415
 20
289.946243
 30
0.0
 10
78.985415
 20
289.946243
 30
0.0
  0
SPLINE
  5
1df
100
AcDbEntity
  8
Expo-Arte-MB
 62
7
100
AcDbSpline
 70
8
 71
3
 72
8
 73
4
 74
0
 40
0
 40
0
 40
0
 40
0
 40
1
 40
1
 40
1
 40
1
 10
78.985415
 20
289.946243
 30
0.0
 10
78.874461
 20
290.114206
 30
0.0
 10
78.684135
 20
290.215623
 30
0.0
 10
78.479882
 20
290.215620
 30
0.0
  0
LINE
  5
1e0
100
AcDbEntity
  8
Expo-Arte-MB
 62
7
100
AcDbLine
 10
78.479882
 20
290.215620
 30
0.0
 11
76.024688
 21
290.215620
 31
0.0
  0
SPLINE
  5
1e1
100
AcDbEntity
  8
Expo-Arte-MB
 62
7
100
AcDbSpline
 70
8
 71
3
 72
8
 73
4
 74
0
 40
0
 40
0
 40
0
 40
0
 40
1
 40
1
 40
1
 40
1
 10
76.024688
 20
290.215620
 30
0.0
 10
75.854959
 20
290.215276
 30
0.0
 10
75.693261
 20
290.144785
 30
0.0
 10
75.579403
 20
290.021499
 30
0.0
  0
SPLINE
  5
1e2
100
AcDbEntity
  8
Expo-Arte-MB
 62
7
100
AcDbSpline
 70
8
 71
3
 72
8
 73
4
 74
0
 40
0
 40
0
 40
0
 40
0
 40
1
 40
1
 40
1
 40
1
 10
75.579403
 20
290.021499
 30
0.0
 10
75.465544
 20
290.144785
 30
0.0
 10
75.303846
 20
290.215276
 30
0.0
 10
75.134117
 20
290.215620
 30
0.0
  0
LINE
  5
1e3
100
AcDbEntity
  8
Expo-Arte-MB
 62
7
100
AcDbLine
 10
75.134117
 20
290.215620
 30
0.0
 11
71.231393
 21
290.215690
 31
0.0
  0
SPLINE
  5
1e4
100
AcDbEntity
  8
Expo-Arte-MB
 62
7
100
AcDbSpline
 70
8
 71
3
 72
8
 73
4
 74
0
 40
0
 40
0
 40
0
 40
0
 40
1
 40
1
 40
1
 40
1
 10
36.941345
 20
274.749799
 30
0.0
 10
36.869392
 20
274.749972
 30
0.0
 10
36.794310
 20
274.775023
 30
0.0
 10
36.741528
 20
274.817321
 30
0.0
  0
SPLINE
  5
1e5
100
AcDbEntity
  8
Expo-Arte-MB
 62
7
100
AcDbSpline
 70
8
 71
3
 72
8
 73
4
 74
0
 40
0
 40
0
 40
0
 40
0
 40
1
 40
1
 40
1
 40
1
 10
36.741528
 20
274.817321
 30
0.0
 10
36.688749
 20
274.859619
 30
0.0
 10
36.652458
 20
274.913799
 30
0.0
 10
36.645068
 20
275.008181
 30
0.0
  0
SPLINE
  5
1e6
100
AcDbEntity
  8
Expo-Arte-MB
 62
7
100
AcDbSpline
 70
8
 71
3
 72
8
 73
4
 74
0
 40
0
 40
0
 40
0
 40
0
 40
1
 40
1
 40
1
 40
1
 10
36.645068
 20
275.008181
 30
0.0
 10
36.424684
 20
277.806185
 30
0.0
 10
36.204579
 20
280.603790
 30
0.0
 10
35.984297
 20
283.401812
 30
0.0
  0
SPLINE
  5
1e7
100
AcDbEntity
  8
Expo-Arte-MB
 62
7
100
AcDbSpline
 70
8
 71
3
 72
8
 73
4
 74
0
 40
0
 40
0
 40
0
 40
0
 40
1
 40
1
 40
1
 40
1
 10
35.984297
 20
283.401812
 30
0.0
 10
35.976980
 20
283.495269
 30
0.0
 10
35.898913
 20
283.567319
 30
0.0
 10
35.805170
 20
283.567134
 30
0.0
  0
SPLINE
  5
1e8
100
AcDbEntity
  8
Expo-Arte-MB
 62
7
100
AcDbSpline
 70
8
 71
3
 72
8
 73
4
 74
0
 40
0
 40
0
 40
0
 40
0
 40
1
 40
1
 40
1
 40
1
 10
35.805170
 20
283.567134
 30
0.0
 10
35.711427
 20
283.566949
 30
0.0
 10
35.633646
 20
283.494591
 30
0.0
 10
35.626697
 20
283.401106
 30
0.0
  0
SPLINE
  5
1e9
100
AcDbEntity
  8
Expo-Arte-MB
 62
7
100
AcDbSpline
 70
8
 71
3
 72
8
 73
4
 74
0
 40
0
 40
0
 40
0
 40
0
 40
1
 40
1
 40
1
 40
1
 10
35.626697
 20
283.401106
 30
0.0
 10
35.482967
 20
281.393314
 30
0.0
 10
35.412931
 20
279.381690
 30
0.0
 10
35.293211
 20
277.383903
 30
0.0
  0
SPLINE
  5
1ea
100
AcDbEntity
  8
Expo-Arte-MB
 62
7
100
AcDbSpline
 70
8
 71
3
 72
8
 73
4
 74
0
 40
0
 40
0
 40
0
 40
0
 40
1
 40
1
 40
1
 40
1
 10
35.293211
 20
277.383903
 30
0.0
 10
35.280490
 20
277.171619
 30
0.0
 10
35.174482
 20
277.124498
 30
0.0
 10
35.049299
 20
277.126901
 30
0.0
  0
SPLINE
  5
1eb
100
AcDbEntity
  8
Expo-Arte-MB
 62
7
100
AcDbSpline
 70
8
 71
3
 72
8
 73
4
 74
0
 40
0
 40
0
 40
0
 40
0
 40
1
 40
1
 40
1
 40
1
 10
35.049299
 20
277.126901
 30
0.0
 10
34.924116
 20
277.129370
 30
0.0
 10
34.794044
 20
277.202067
 30
0.0
 10
34.768179
 20
277.396306
 30
0.0
  0
SPLINE
  5
1ec
100
AcDbEntity
  8
Expo-Arte-MB
 62
7
100
AcDbSpline
 70
8
 71
3
 72
8
 73
4
 74
0
 40
0
 40
0
 40
0
 40
0
 40
1
 40
1
 40
1
 40
1
 10
34.768179
 20
277.396306
 30
0.0
 10
34.584650
 20
278.777548
 30
0.0
 10
34.347915
 20
280.295783
 30
0.0
 10
33.624407
 20
281.560739
 30
0.0
  0
SPLINE
  5
1ed
100
AcDbEntity
  8
Expo-Arte-MB
 62
7
100
AcDbSpline
 70
8
 71
3
 72
8
 73
4
 74
0
 40
0
 40
0
 40
0
 40
0
 40
1
 40
1
 40
1
 40
1
 10
33.624407
 20
281.560739
 30
0.0
 10
33.334330
 20
282.067715
 30
0.0
 10
32.990895
 20
282.535954
 30
0.0
 10
32.692853
 20
283.015255
 30
0.0
  0
SPLINE
  5
1ee
100
AcDbEntity
  8
Expo-Arte-MB
 62
7
100
AcDbSpline
 70
8
 71
3
 72
8
 73
4
 74
0
 40
0
 40
0
 40
0
 40
0
 40
1
 40
1
 40
1
 40
1
 10
32.692853
 20
283.015255
 30
0.0
 10
32.646395
 20
283.090213
 30
0.0
 10
32.552331
 20
283.120265
 30
0.0
 10
32.471019
 20
283.086127
 30
0.0
  0
SPLINE
  5
1ef
100
AcDbEntity
  8
Expo-Arte-MB
 62
7
100
AcDbSpline
 70
8
 71
3
 72
8
 73
4
 74
0
 40
0
 40
0
 40
0
 40
0
 40
1
 40
1
 40
1
 40
1
 10
32.471019
 20
283.086127
 30
0.0
 10
32.389707
 20
283.051990
 30
0.0
 10
32.345286
 20
282.963798
 30
0.0
 10
32.366258
 20
282.878141
 30
0.0
  0
SPLINE
  5
1f0
100
AcDbEntity
  8
Expo-Arte-MB
 62
7
100
AcDbSpline
 70
8
 71
3
 72
8
 73
4
 74
0
 40
0
 40
0
 40
0
 40
0
 40
1
 40
1
 40
1
 40
1
 10
32.366258
 20
282.878141
 30
0.0
 10
32.622597
 20
281.824916
 30
0.0
 10
32.939868
 20
280.816451
 30
0.0
 10
33.010491
 20
280.219908
 30
0.0
  0
SPLINE
  5
1f1
100
AcDbEntity
  8
Expo-Arte-MB
 62
7
100
AcDbSpline
 70
8
 71
3
 72
8
 73
4
 74
0
 40
0
 40
0
 40
0
 40
0
 40
1
 40
1
 40
1
 40
1
 10
33.010491
 20
280.219908
 30
0.0
 10
33.148179
 20
279.054962
 30
0.0
 10
32.751547
 20
277.938469
 30
0.0
 10
32.030706
 20
277.244721
 30
0.0
  0
SPLINE
  5
1f2
100
AcDbEntity
  8
Expo-Arte-MB
 62
7
100
AcDbSpline
 70
8
 71
3
 72
8
 73
4
 74
0
 40
0
 40
0
 40
0
 40
0
 40
1
 40
1
 40
1
 40
1
 10
32.030706
 20
277.244721
 30
0.0
 10
31.309866
 20
276.550973
 30
0.0
 10
30.278905
 20
276.263322
 30
0.0
 10
29.060345
 20
276.756209
 30
0.0
  0
SPLINE
  5
1f3
100
AcDbEntity
  8
Expo-Arte-MB
 62
7
100
AcDbSpline
 70
8
 71
3
 72
8
 73
4
 74
0
 40
0
 40
0
 40
0
 40
0
 40
1
 40
1
 40
1
 40
1
 10
29.060345
 20
276.756209
 30
0.0
 10
28.253913
 20
277.082500
 30
0.0
 10
27.635944
 20
278.116643
 30
0.0
 10
27.508674
 20
279.148483
 30
0.0
  0
SPLINE
  5
1f4
100
AcDbEntity
  8
Expo-Arte-MB
 62
7
100
AcDbSpline
 70
8
 71
3
 72
8
 73
4
 74
0
 40
0
 40
0
 40
0
 40
0
 40
1
 40
1
 40
1
 40
1
 10
27.508674
 20
279.148483
 30
0.0
 10
27.445039
 20
279.664403
 30
0.0
 10
27.501985
 20
280.173976
 30
0.0
 10
27.696087
 20
280.585086
 30
0.0
  0
SPLINE
  5
1f5
100
AcDbEntity
  8
Expo-Arte-MB
 62
7
100
AcDbSpline
 70
8
 71
3
 72
8
 73
4
 74
0
 40
0
 40
0
 40
0
 40
0
 40
1
 40
1
 40
1
 40
1
 10
27.696087
 20
280.585086
 30
0.0
 10
27.890190
 20
280.996199
 30
0.0
 10
28.213356
 20
281.312820
 30
0.0
 10
28.719281
 20
281.473232
 30
0.0
  0
SPLINE
  5
1f6
100
AcDbEntity
  8
Expo-Arte-MB
 62
7
100
AcDbSpline
 70
8
 71
3
 72
8
 73
4
 74
0
 40
0
 40
0
 40
0
 40
0
 40
1
 40
1
 40
1
 40
1
 10
28.719281
 20
281.473232
 30
0.0
 10
29.462092
 20
281.708701
 30
0.0
 10
30.337814
 20
281.511103
 30
0.0
 10
30.789783
 20
281.111497
 30
0.0
  0
SPLINE
  5
1f7
100
AcDbEntity
  8
Expo-Arte-MB
 62
7
100
AcDbSpline
 70
8
 71
3
 72
8
 73
4
 74
0
 40
0
 40
0
 40
0
 40
0
 40
1
 40
1
 40
1
 40
1
 10
30.789783
 20
281.111497
 30
0.0
 10
31.015767
 20
280.911694
 30
0.0
 10
31.135897
 20
280.677454
 30
0.0
 10
31.122579
 20
280.411452
 30
0.0
  0
SPLINE
  5
1f8
100
AcDbEntity
  8
Expo-Arte-MB
 62
7
100
AcDbSpline
 70
8
 71
3
 72
8
 73
4
 74
0
 40
0
 40
0
 40
0
 40
0
 40
1
 40
1
 40
1
 40
1
 10
31.122579
 20
280.411452
 30
0.0
 10
31.109262
 20
280.145454
 30
0.0
 10
30.956641
 20
279.823735
 30
0.0
 10
30.558272
 20
279.468188
 30
0.0
  0
SPLINE
  5
1f9
100
AcDbEntity
  8
Expo-Arte-MB
 62
7
100
AcDbSpline
 70
8
 71
3
 72
8
 73
4
 74
0
 40
0
 40
0
 40
0
 40
0
 40
1
 40
1
 40
1
 40
1
 10
30.558272
 20
279.468188
 30
0.0
 10
30.487210
 20
279.404716
 30
0.0
 10
30.425039
 20
279.391441
 30
0.0
 10
30.359835
 20
279.397907
 30
0.0
  0
SPLINE
  5
1fa
100
AcDbEntity
  8
Expo-Arte-MB
 62
7
100
AcDbSpline
 70
8
 71
3
 72
8
 73
4
 74
0
 40
0
 40
0
 40
0
 40
0
 40
1
 40
1
 40
1
 40
1
 10
30.359835
 20
279.397907
 30
0.0
 10
30.294630
 20
279.404363
 30
0.0
 10
30.225238
 20
279.438293
 30
0.0
 10
30.174489
 20
279.488857
 30
0.0
  0
SPLINE
  5
1fb
100
AcDbEntity
  8
Expo-Arte-MB
 62
7
100
AcDbSpline
 70
8
 71
3
 72
8
 73
4
 74
0
 40
0
 40
0
 40
0
 40
0
 40
1
 40
1
 40
1
 40
1
 10
30.174489
 20
279.488857
 30
0.0
 10
30.123740
 20
279.539421
 30
0.0
 10
30.095256
 20
279.602765
 30
0.0
 10
30.092496
 20
279.656289
 30
0.0
  0
SPLINE
  5
1fc
100
AcDbEntity
  8
Expo-Arte-MB
 62
7
100
AcDbSpline
 70
8
 71
3
 72
8
 73
4
 74
0
 40
0
 40
0
 40
0
 40
0
 40
1
 40
1
 40
1
 40
1
 10
30.092496
 20
279.656289
 30
0.0
 10
30.089744
 20
279.709812
 30
0.0
 10
30.101925
 20
279.759540
 30
0.0
 10
30.173800
 20
279.823721
 30
0.0
  0
SPLINE
  5
1fd
100
AcDbEntity
  8
Expo-Arte-MB
 62
7
100
AcDbSpline
 70
8
 71
3
 72
8
 73
4
 74
0
 40
0
 40
0
 40
0
 40
0
 40
1
 40
1
 40
1
 40
1
 10
30.173800
 20
279.823721
 30
0.0
 10
30.199748
 20
279.846840
 30
0.0
 10
30.218420
 20
279.877001
 30
0.0
 10
30.227543
 20
279.910536
 30
0.0
  0
SPLINE
  5
1fe
100
AcDbEntity
  8
Expo-Arte-MB
 62
7
100
AcDbSpline
 70
8
 71
3
 72
8
 73
4
 74
0
 40
0
 40
0
 40
0
 40
0
 40
1
 40
1
 40
1
 40
1
 10
30.227543
 20
279.910536
 30
0.0
 10
30.334530
 20
280.303008
 30
0.0
 10
30.352464
 20
280.617478
 30
0.0
 10
30.196537
 20
280.852424
 30
0.0
  0
SPLINE
  5
1ff
100
AcDbEntity
  8
Expo-Arte-MB
 62
7
100
AcDbSpline
 70
8
 71
3
 72
8
 73
4
 74
0
 40
0
 40
0
 40
0
 40
0
 40
1
 40
1
 40
1
 40
1
 10
30.196537
 20
280.852424
 30
0.0
 10
30.118574
 20
280.969899
 30
0.0
 10
29.994489
 20
281.051885
 30
0.0
 10
29.855473
 20
281.088069
 30
0.0
  0
SPLINE
  5
200
100
AcDbEntity
  8
Expo-Arte-MB
 62
7
100
AcDbSpline
 70
8
 71
3
 72
8
 73
4
 74
0
 40
0
 40
0
 40
0
 40
0
 40
1
 40
1
 40
1
 40
1
 10
29.855473
 20
281.088069
 30
0.0
 10
29.716457
 20
281.124254
 30
0.0
 10
29.561817
 20
281.122324
 30
0.0
 10
29.389007
 20
281.094278
 30
0.0
  0
SPLINE
  5
201
100
AcDbEntity
  8
Expo-Arte-MB
 62
7
100
AcDbSpline
 70
8
 71
3
 72
8
 73
4
 74
0
 40
0
 40
0
 40
0
 40
0
 40
1
 40
1
 40
1
 40
1
 10
29.389007
 20
281.094278
 30
0.0
 10
29.385541
 20
281.093674
 30
0.0
 10
29.382094
 20
281.092968
 30
0.0
 10
29.378671
 20
281.092161
 30
0.0
  0
SPLINE
  5
202
100
AcDbEntity
  8
Expo-Arte-MB
 62
7
100
AcDbSpline
 70
8
 71
3
 72
8
 73
4
 74
0
 40
0
 40
0
 40
0
 40
0
 40
1
 40
1
 40
1
 40
1
 10
29.378671
 20
281.092161
 30
0.0
 10
28.919489
 20
280.989207
 30
0.0
 10
28.599111
 20
280.845852
 30
0.0
 10
28.385105
 20
280.578154
 30
0.0
  0
SPLINE
  5
203
100
AcDbEntity
  8
Expo-Arte-MB
 62
7
100
AcDbSpline
 70
8
 71
3
 72
8
 73
4
 74
0
 40
0
 40
0
 40
0
 40
0
 40
1
 40
1
 40
1
 40
1
 10
28.385105
 20
280.578154
 30
0.0
 10
28.171099
 20
280.310455
 30
0.0
 10
28.080255
 20
279.955988
 30
0.0
 10
27.997187
 20
279.455742
 30
0.0
  0
SPLINE
  5
204
100
AcDbEntity
  8
Expo-Arte-MB
 62
7
100
AcDbSpline
 70
8
 71
3
 72
8
 73
4
 74
0
 40
0
 40
0
 40
0
 40
0
 40
1
 40
1
 40
1
 40
1
 10
27.997187
 20
279.455742
 30
0.0
 10
27.994800
 20
279.440703
 30
0.0
 10
27.994338
 20
279.425421
 30
0.0
 10
27.995812
 20
279.410265
 30
0.0
  0
SPLINE
  5
205
100
AcDbEntity
  8
Expo-Arte-MB
 62
7
100
AcDbSpline
 70
8
 71
3
 72
8
 73
4
 74
0
 40
0
 40
0
 40
0
 40
0
 40
1
 40
1
 40
1
 40
1
 10
27.995812
 20
279.410265
 30
0.0
 10
28.030010
 20
279.030302
 30
0.0
 10
28.158112
 20
278.541592
 30
0.0
 10
28.391998
 20
278.105266
 30
0.0
  0
SPLINE
  5
206
100
AcDbEntity
  8
Expo-Arte-MB
 62
7
100
AcDbSpline
 70
8
 71
3
 72
8
 73
4
 74
0
 40
0
 40
0
 40
0
 40
0
 40
1
 40
1
 40
1
 40
1
 10
28.391998
 20
278.105266
 30
0.0
 10
28.625884
 20
277.668936
 30
0.0
 10
28.972304
 20
277.274651
 30
0.0
 10
29.459977
 20
277.155109
 30
0.0
  0
SPLINE
  5
207
100
AcDbEntity
  8
Expo-Arte-MB
 62
7
100
AcDbSpline
 70
8
 71
3
 72
8
 73
4
 74
0
 40
0
 40
0
 40
0
 40
0
 40
1
 40
1
 40
1
 40
1
 10
29.459977
 20
277.155109
 30
0.0
 10
30.265029
 20
276.957525
 30
0.0
 10
31.086429
 20
277.141280
 30
0.0
 10
31.684820
 20
277.604346
 30
0.0
  0
SPLINE
  5
208
100
AcDbEntity
  8
Expo-Arte-MB
 62
7
100
AcDbSpline
 70
8
 71
3
 72
8
 73
4
 74
0
 40
0
 40
0
 40
0
 40
0
 40
1
 40
1
 40
1
 40
1
 10
31.684820
 20
277.604346
 30
0.0
 10
32.283211
 20
278.067424
 30
0.0
 10
32.654104
 20
278.820551
 30
0.0
 10
32.548161
 20
279.715503
 30
0.0
  0
SPLINE
  5
209
100
AcDbEntity
  8
Expo-Arte-MB
 62
7
100
AcDbSpline
 70
8
 71
3
 72
8
 73
4
 74
0
 40
0
 40
0
 40
0
 40
0
 40
1
 40
1
 40
1
 40
1
 10
32.548161
 20
279.715503
 30
0.0
 10
32.377449
 20
281.158593
 30
0.0
 10
31.793830
 20
282.482490
 30
0.0
 10
31.623497
 20
283.860641
 30
0.0
  0
SPLINE
  5
20a
100
AcDbEntity
  8
Expo-Arte-MB
 62
7
100
AcDbSpline
 70
8
 71
3
 72
8
 73
4
 74
0
 40
0
 40
0
 40
0
 40
0
 40
1
 40
1
 40
1
 40
1
 10
31.623497
 20
283.860641
 30
0.0
 10
31.494722
 20
284.899847
 30
0.0
 10
31.548396
 20
285.934273
 30
0.0
 10
31.918397
 20
286.679417
 30
0.0
  0
SPLINE
  5
20b
100
AcDbEntity
  8
Expo-Arte-MB
 62
7
100
AcDbSpline
 70
8
 71
3
 72
8
 73
4
 74
0
 40
0
 40
0
 40
0
 40
0
 40
1
 40
1
 40
1
 40
1
 10
31.918397
 20
286.679417
 30
0.0
 10
32.288399
 20
287.424561
 30
0.0
 10
32.946873
 20
287.905849
 30
0.0
 10
34.156331
 20
287.894849
 30
0.0
  0
SPLINE
  5
20c
100
AcDbEntity
  8
Expo-Arte-MB
 62
7
100
AcDbSpline
 70
8
 71
3
 72
8
 73
4
 74
0
 40
0
 40
0
 40
0
 40
0
 40
1
 40
1
 40
1
 40
1
 10
34.156331
 20
287.894849
 30
0.0
 10
34.252008
 20
287.893791
 30
0.0
 10
34.301521
 20
287.863276
 30
0.0
 10
34.340989
 20
287.816988
 30
0.0
  0
SPLINE
  5
20d
100
AcDbEntity
  8
Expo-Arte-MB
 62
7
100
AcDbSpline
 70
8
 71
3
 72
8
 73
4
 74
0
 40
0
 40
0
 40
0
 40
0
 40
1
 40
1
 40
1
 40
1
 10
34.340989
 20
287.816988
 30
0.0
 10
34.380456
 20
287.770686
 30
0.0
 10
34.405039
 20
287.700709
 30
0.0
 10
34.405067
 20
287.628887
 30
0.0
  0
SPLINE
  5
20e
100
AcDbEntity
  8
Expo-Arte-MB
 62
7
100
AcDbSpline
 70
8
 71
3
 72
8
 73
4
 74
0
 40
0
 40
0
 40
0
 40
0
 40
1
 40
1
 40
1
 40
1
 10
34.405067
 20
287.628887
 30
0.0
 10
34.405096
 20
287.557065
 30
0.0
 10
34.380891
 20
287.488036
 30
0.0
 10
34.342367
 20
287.443541
 30
0.0
  0
SPLINE
  5
20f
100
AcDbEntity
  8
Expo-Arte-MB
 62
7
100
AcDbSpline
 70
8
 71
3
 72
8
 73
4
 74
0
 40
0
 40
0
 40
0
 40
0
 40
1
 40
1
 40
1
 40
1
 10
34.342367
 20
287.443541
 30
0.0
 10
34.303841
 20
287.399045
 30
0.0
 10
34.254998
 20
287.369613
 30
0.0
 10
34.159087
 20
287.370505
 30
0.0
  0
SPLINE
  5
210
100
AcDbEntity
  8
Expo-Arte-MB
 62
7
100
AcDbSpline
 70
8
 71
3
 72
8
 73
4
 74
0
 40
0
 40
0
 40
0
 40
0
 40
1
 40
1
 40
1
 40
1
 10
34.159087
 20
287.370505
 30
0.0
 10
33.713255
 20
287.374597
 30
0.0
 10
33.346982
 20
287.300253
 30
0.0
 10
33.047700
 20
287.158976
 30
0.0
  0
SPLINE
  5
211
100
AcDbEntity
  8
Expo-Arte-MB
 62
7
100
AcDbSpline
 70
8
 71
3
 72
8
 73
4
 74
0
 40
0
 40
0
 40
0
 40
0
 40
1
 40
1
 40
1
 40
1
 10
33.047700
 20
287.158976
 30
0.0
 10
33.033550
 20
287.152227
 30
0.0
 10
33.020346
 20
287.143652
 30
0.0
 10
33.008426
 20
287.133470
 30
0.0
  0
SPLINE
  5
212
100
AcDbEntity
  8
Expo-Arte-MB
 62
7
100
AcDbSpline
 70
8
 71
3
 72
8
 73
4
 74
0
 40
0
 40
0
 40
0
 40
0
 40
1
 40
1
 40
1
 40
1
 10
33.008426
 20
287.133470
 30
0.0
 10
32.501445
 20
286.703011
 30
0.0
 10
32.281592
 20
286.185161
 30
0.0
 10
32.271864
 20
285.655525
 30
0.0
  0
SPLINE
  5
213
100
AcDbEntity
  8
Expo-Arte-MB
 62
7
100
AcDbSpline
 70
8
 71
3
 72
8
 73
4
 74
0
 40
0
 40
0
 40
0
 40
0
 40
1
 40
1
 40
1
 40
1
 10
32.271864
 20
285.655525
 30
0.0
 10
32.262138
 20
285.125889
 30
0.0
 10
32.447509
 20
284.589364
 30
0.0
 10
32.705946
 20
284.065270
 30
0.0
  0
SPLINE
  5
214
100
AcDbEntity
  8
Expo-Arte-MB
 62
7
100
AcDbSpline
 70
8
 71
3
 72
8
 73
4
 74
0
 40
0
 40
0
 40
0
 40
0
 40
1
 40
1
 40
1
 40
1
 10
32.705946
 20
284.065270
 30
0.0
 10
33.222820
 20
283.017079
 30
0.0
 10
34.044634
 20
281.990969
 30
0.0
 10
34.345123
 20
281.255448
 30
0.0
  0
SPLINE
  5
215
100
AcDbEntity
  8
Expo-Arte-MB
 62
7
100
AcDbSpline
 70
8
 71
3
 72
8
 73
4
 74
0
 40
0
 40
0
 40
0
 40
0
 40
1
 40
1
 40
1
 40
1
 10
34.345123
 20
281.255448
 30
0.0
 10
34.431663
 20
281.043771
 30
0.0
 10
34.509428
 20
280.829141
 30
0.0
 10
34.582834
 20
280.613283
 30
0.0
  0
SPLINE
  5
216
100
AcDbEntity
  8
Expo-Arte-MB
 62
7
100
AcDbSpline
 70
8
 71
3
 72
8
 73
4
 74
0
 40
0
 40
0
 40
0
 40
0
 40
1
 40
1
 40
1
 40
1
 10
34.582834
 20
280.613283
 30
0.0
 10
34.610831
 20
280.532025
 30
0.0
 10
34.692546
 20
280.482057
 30
0.0
 10
34.777636
 20
280.494165
 30
0.0
  0
SPLINE
  5
217
100
AcDbEntity
  8
Expo-Arte-MB
 62
7
100
AcDbSpline
 70
8
 71
3
 72
8
 73
4
 74
0
 40
0
 40
0
 40
0
 40
0
 40
1
 40
1
 40
1
 40
1
 10
34.777636
 20
280.494165
 30
0.0
 10
34.862725
 20
280.506273
 30
0.0
 10
34.927259
 20
280.577051
 30
0.0
 10
34.931478
 20
280.662894
 30
0.0
  0
SPLINE
  5
218
100
AcDbEntity
  8
Expo-Arte-MB
 62
7
100
AcDbSpline
 70
8
 71
3
 72
8
 73
4
 74
0
 40
0
 40
0
 40
0
 40
0
 40
1
 40
1
 40
1
 40
1
 10
34.931478
 20
280.662894
 30
0.0
 10
35.012279
 20
282.444369
 30
0.0
 10
35.106213
 20
284.223773
 30
0.0
 10
35.331109
 20
285.975230
 30
0.0
  0
SPLINE
  5
219
100
AcDbEntity
  8
Expo-Arte-MB
 62
7
100
AcDbSpline
 70
8
 71
3
 72
8
 73
4
 74
0
 40
0
 40
0
 40
0
 40
0
 40
1
 40
1
 40
1
 40
1
 10
35.331109
 20
285.975230
 30
0.0
 10
35.418013
 20
286.652408
 30
0.0
 10
35.482821
 20
287.393104
 30
0.0
 10
35.617741
 20
288.104988
 30
0.0
  0
SPLINE
  5
21a
100
AcDbEntity
  8
Expo-Arte-MB
 62
7
100
AcDbSpline
 70
8
 71
3
 72
8
 73
4
 74
0
 40
0
 40
0
 40
0
 40
0
 40
1
 40
1
 40
1
 40
1
 10
35.617741
 20
288.104988
 30
0.0
 10
35.618328
 20
288.108876
 30
0.0
 10
35.618787
 20
288.112782
 30
0.0
 10
35.619117
 20
288.116701
 30
0.0
  0
SPLINE
  5
21b
100
AcDbEntity
  8
Expo-Arte-MB
 62
7
100
AcDbSpline
 70
8
 71
3
 72
8
 73
4
 74
0
 40
0
 40
0
 40
0
 40
0
 40
1
 40
1
 40
1
 40
1
 10
35.619117
 20
288.116701
 30
0.0
 10
35.615469
 20
288.086432
 30
0.0
 10
35.616189
 20
288.087138
 30
0.0
 10
35.622574
 20
288.124956
 30
0.0
  0
LINE
  5
21c
100
AcDbEntity
  8
Expo-Arte-MB
 62
7
100
AcDbLine
 10
35.622574
 20
288.124956
 30
0.0
 11
35.621868
 21
288.120828
 31
0.0
  0
SPLINE
  5
21d
100
AcDbEntity
  8
Expo-Arte-MB
 62
7
100
AcDbSpline
 70
8
 71
3
 72
8
 73
4
 74
0
 40
0
 40
0
 40
0
 40
0
 40
1
 40
1
 40
1
 40
1
 10
35.621868
 20
288.120828
 30
0.0
 10
35.788186
 20
288.990676
 30
0.0
 10
36.063124
 20
289.809723
 30
0.0
 10
36.592696
 20
290.422841
 30
0.0
  0
SPLINE
  5
21e
100
AcDbEntity
  8
Expo-Arte-MB
 62
7
100
AcDbSpline
 70
8
 71
3
 72
8
 73
4
 74
0
 40
0
 40
0
 40
0
 40
0
 40
1
 40
1
 40
1
 40
1
 10
36.592696
 20
290.422841
 30
0.0
 10
36.623691
 20
290.458600
 30
0.0
 10
36.639295
 20
290.505162
 30
0.0
 10
36.636105
 20
290.552377
 30
0.0
  0
SPLINE
  5
21f
100
AcDbEntity
  8
Expo-Arte-MB
 62
7
100
AcDbSpline
 70
8
 71
3
 72
8
 73
4
 74
0
 40
0
 40
0
 40
0
 40
0
 40
1
 40
1
 40
1
 40
1
 10
36.636105
 20
290.552377
 30
0.0
 10
36.592784
 20
291.176282
 30
0.0
 10
36.547650
 20
291.799602
 30
0.0
 10
36.498988
 20
292.423062
 30
0.0
  0
SPLINE
  5
220
100
AcDbEntity
  8
Expo-Arte-MB
 62
7
100
AcDbSpline
 70
8
 71
3
 72
8
 73
4
 74
0
 40
0
 40
0
 40
0
 40
0
 40
1
 40
1
 40
1
 40
1
 10
36.498988
 20
292.423062
 30
0.0
 10
36.491474
 20
292.518803
 30
0.0
 10
36.516909
 20
292.561291
 30
0.0
 10
36.554801
 20
292.596008
 30
0.0
  0
SPLINE
  5
221
100
AcDbEntity
  8
Expo-Arte-MB
 62
7
100
AcDbSpline
 70
8
 71
3
 72
8
 73
4
 74
0
 40
0
 40
0
 40
0
 40
0
 40
1
 40
1
 40
1
 40
1
 10
36.554801
 20
292.596008
 30
0.0
 10
36.592678
 20
292.630721
 30
0.0
 10
36.656009
 20
292.654802
 30
0.0
 10
36.727743
 20
292.654573
 30
0.0
  0
SPLINE
  5
222
100
AcDbEntity
  8
Expo-Arte-MB
 62
7
100
AcDbSpline
 70
8
 71
3
 72
8
 73
4
 74
0
 40
0
 40
0
 40
0
 40
0
 40
1
 40
1
 40
1
 40
1
 10
36.727743
 20
292.654573
 30
0.0
 10
36.799572
 20
292.654400
 30
0.0
 10
36.874724
 20
292.629490
 30
0.0
 10
36.927560
 20
292.587051
 30
0.0
  0
SPLINE
  5
223
100
AcDbEntity
  8
Expo-Arte-MB
 62
7
100
AcDbSpline
 70
8
 71
3
 72
8
 73
4
 74
0
 40
0
 40
0
 40
0
 40
0
 40
1
 40
1
 40
1
 40
1
 10
36.927560
 20
292.587051
 30
0.0
 10
36.980392
 20
292.544601
 30
0.0
 10
37.016629
 20
292.489914
 30
0.0
 10
37.024023
 20
292.395503
 30
0.0
  0
SPLINE
  5
224
100
AcDbEntity
  8
Expo-Arte-MB
 62
7
100
AcDbSpline
 70
8
 71
3
 72
8
 73
4
 74
0
 40
0
 40
0
 40
0
 40
0
 40
1
 40
1
 40
1
 40
1
 10
37.024023
 20
292.395503
 30
0.0
 10
37.054997
 20
291.998477
 30
0.0
 10
37.081360
 20
291.599944
 30
0.0
 10
37.110151
 20
291.200744
 30
0.0
  0
SPLINE
  5
225
100
AcDbEntity
  8
Expo-Arte-MB
 62
7
100
AcDbSpline
 70
8
 71
3
 72
8
 73
4
 74
0
 40
0
 40
0
 40
0
 40
0
 40
1
 40
1
 40
1
 40
1
 10
37.110151
 20
291.200744
 30
0.0
 10
37.114504
 20
291.140209
 30
0.0
 10
37.149181
 20
291.085984
 30
0.0
 10
37.202307
 20
291.056640
 30
0.0
  0
SPLINE
  5
226
100
AcDbEntity
  8
Expo-Arte-MB
 62
7
100
AcDbSpline
 70
8
 71
3
 72
8
 73
4
 74
0
 40
0
 40
0
 40
0
 40
0
 40
1
 40
1
 40
1
 40
1
 10
37.202307
 20
291.056640
 30
0.0
 10
37.255433
 20
291.027295
 30
0.0
 10
37.319796
 20
291.026814
 30
0.0
 10
37.373355
 20
291.055361
 30
0.0
  0
SPLINE
  5
227
100
AcDbEntity
  8
Expo-Arte-MB
 62
7
100
AcDbSpline
 70
8
 71
3
 72
8
 73
4
 74
0
 40
0
 40
0
 40
0
 40
0
 40
1
 40
1
 40
1
 40
1
 10
37.373355
 20
291.055361
 30
0.0
 10
38.054710
 20
291.415324
 30
0.0
 10
38.706699
 20
291.287862
 30
0.0
 10
39.248866
 20
290.903088
 30
0.0
  0
SPLINE
  5
228
100
AcDbEntity
  8
Expo-Arte-MB
 62
7
100
AcDbSpline
 70
8
 71
3
 72
8
 73
4
 74
0
 40
0
 40
0
 40
0
 40
0
 40
1
 40
1
 40
1
 40
1
 10
39.248866
 20
290.903088
 30
0.0
 10
39.791029
 20
290.518313
 30
0.0
 10
40.201006
 20
289.863910
 30
0.0
 10
40.318223
 20
289.208100
 30
0.0
  0
SPLINE
  5
229
100
AcDbEntity
  8
Expo-Arte-MB
 62
7
100
AcDbSpline
 70
8
 71
3
 72
8
 73
4
 74
0
 40
0
 40
0
 40
0
 40
0
 40
1
 40
1
 40
1
 40
1
 10
40.318223
 20
289.208100
 30
0.0
 10
40.519331
 20
288.084160
 30
0.0
 10
40.139277
 20
287.051234
 30
0.0
 10
39.582350
 20
286.053081
 30
0.0
  0
SPLINE
  5
22a
100
AcDbEntity
  8
Expo-Arte-MB
 62
7
100
AcDbSpline
 70
8
 71
3
 72
8
 73
4
 74
0
 40
0
 40
0
 40
0
 40
0
 40
1
 40
1
 40
1
 40
1
 10
39.582350
 20
286.053081
 30
0.0
 10
39.549711
 20
285.994350
 30
0.0
 10
39.552644
 20
285.922300
 30
0.0
 10
39.589948
 20
285.866415
 30
0.0
  0
SPLINE
  5
22b
100
AcDbEntity
  8
Expo-Arte-MB
 62
7
100
AcDbSpline
 70
8
 71
3
 72
8
 73
4
 74
0
 40
0
 40
0
 40
0
 40
0
 40
1
 40
1
 40
1
 40
1
 10
39.589948
 20
285.866415
 30
0.0
 10
39.627253
 20
285.810531
 30
0.0
 10
39.692669
 20
285.780191
 30
0.0
 10
39.759427
 20
285.787810
 30
0.0
  0
SPLINE
  5
22c
100
AcDbEntity
  8
Expo-Arte-MB
 62
7
100
AcDbSpline
 70
8
 71
3
 72
8
 73
4
 74
0
 40
0
 40
0
 40
0
 40
0
 40
1
 40
1
 40
1
 40
1
 10
39.759427
 20
285.787810
 30
0.0
 10
40.059076
 20
285.822805
 30
0.0
 10
40.378386
 20
285.776768
 30
0.0
 10
40.732321
 20
285.603843
 30
0.0
  0
SPLINE
  5
22d
100
AcDbEntity
  8
Expo-Arte-MB
 62
7
100
AcDbSpline
 70
8
 71
3
 72
8
 73
4
 74
0
 40
0
 40
0
 40
0
 40
0
 40
1
 40
1
 40
1
 40
1
 10
40.732321
 20
285.603843
 30
0.0
 10
41.701402
 20
285.130352
 30
0.0
 10
42.056585
 20
284.024126
 30
0.0
 10
42.015275
 20
282.952496
 30
0.0
  0
SPLINE
  5
22e
100
AcDbEntity
  8
Expo-Arte-MB
 62
7
100
AcDbSpline
 70
8
 71
3
 72
8
 73
4
 74
0
 40
0
 40
0
 40
0
 40
0
 40
1
 40
1
 40
1
 40
1
 10
42.015275
 20
282.952496
 30
0.0
 10
41.899458
 20
279.943979
 30
0.0
 10
40.039684
 20
277.929184
 30
0.0
 10
38.276660
 20
275.591707
 30
0.0
  0
SPLINE
  5
22f
100
AcDbEntity
  8
Expo-Arte-MB
 62
7
100
AcDbSpline
 70
8
 71
3
 72
8
 73
4
 74
0
 40
0
 40
0
 40
0
 40
0
 40
1
 40
1
 40
1
 40
1
 10
38.276660
 20
275.591707
 30
0.0
 10
38.177977
 20
275.460766
 30
0.0
 10
38.067141
 20
275.438076
 30
0.0
 10
37.973489
 20
275.463546
 30
0.0
  0
SPLINE
  5
230
100
AcDbEntity
  8
Expo-Arte-MB
 62
7
100
AcDbSpline
 70
8
 71
3
 72
8
 73
4
 74
0
 40
0
 40
0
 40
0
 40
0
 40
1
 40
1
 40
1
 40
1
 10
37.973489
 20
275.463546
 30
0.0
 10
37.879841
 20
275.489017
 30
0.0
 10
37.795100
 20
275.565323
 30
0.0
 10
37.775743
 20
275.727442
 30
0.0
  0
SPLINE
  5
231
100
AcDbEntity
  8
Expo-Arte-MB
 62
7
100
AcDbSpline
 70
8
 71
3
 72
8
 73
4
 74
0
 40
0
 40
0
 40
0
 40
0
 40
1
 40
1
 40
1
 40
1
 10
37.775743
 20
275.727442
 30
0.0
 10
37.254080
 20
280.095236
 30
0.0
 10
37.029834
 20
284.509551
 30
0.0
 10
36.744969
 20
288.915266
 30
0.0
  0
SPLINE
  5
232
100
AcDbEntity
  8
Expo-Arte-MB
 62
7
100
AcDbSpline
 70
8
 71
3
 72
8
 73
4
 74
0
 40
0
 40
0
 40
0
 40
0
 40
1
 40
1
 40
1
 40
1
 10
36.744969
 20
288.915266
 30
0.0
 10
36.739611
 20
289.001516
 30
0.0
 10
36.673499
 20
289.071677
 30
0.0
 10
36.587719
 20
289.082147
 30
0.0
  0
SPLINE
  5
233
100
AcDbEntity
  8
Expo-Arte-MB
 62
7
100
AcDbSpline
 70
8
 71
3
 72
8
 73
4
 74
0
 40
0
 40
0
 40
0
 40
0
 40
1
 40
1
 40
1
 40
1
 10
36.587719
 20
289.082147
 30
0.0
 10
36.501939
 20
289.092616
 30
0.0
 10
36.420893
 20
289.040417
 30
0.0
 10
36.394947
 20
288.957987
 30
0.0
  0
SPLINE
  5
234
100
AcDbEntity
  8
Expo-Arte-MB
 62
7
100
AcDbSpline
 70
8
 71
3
 72
8
 73
4
 74
0
 40
0
 40
0
 40
0
 40
0
 40
1
 40
1
 40
1
 40
1
 10
36.394947
 20
288.957987
 30
0.0
 10
36.291897
 20
288.633382
 30
0.0
 10
36.217207
 20
288.304661
 30
0.0
 10
36.153103
 20
287.976133
 30
0.0
  0
SPLINE
  5
235
100
AcDbEntity
  8
Expo-Arte-MB
 62
7
100
AcDbSpline
 70
8
 71
3
 72
8
 73
4
 74
0
 40
0
 40
0
 40
0
 40
0
 40
1
 40
1
 40
1
 40
1
 10
36.153103
 20
287.976133
 30
0.0
 10
36.149991
 20
287.960258
 30
0.0
 10
36.149042
 20
287.944034
 30
0.0
 10
36.150281
 20
287.927905
 30
0.0
  0
SPLINE
  5
236
100
AcDbEntity
  8
Expo-Arte-MB
 62
7
100
AcDbSpline
 70
8
 71
3
 72
8
 73
4
 74
0
 40
0
 40
0
 40
0
 40
0
 40
1
 40
1
 40
1
 40
1
 10
36.150281
 20
287.927905
 30
0.0
 10
36.490204
 20
283.612102
 30
0.0
 10
36.830105
 20
279.296350
 30
0.0
 10
37.170031
 20
274.980544
 30
0.0
  0
SPLINE
  5
237
100
AcDbEntity
  8
Expo-Arte-MB
 62
7
100
AcDbSpline
 70
8
 71
3
 72
8
 73
4
 74
0
 40
0
 40
0
 40
0
 40
0
 40
1
 40
1
 40
1
 40
1
 10
37.170031
 20
274.980544
 30
0.0
 10
37.177545
 20
274.884811
 30
0.0
 10
37.152710
 20
274.842844
 30
0.0
 10
37.114910
 20
274.808290
 30
0.0
  0
SPLINE
  5
238
100
AcDbEntity
  8
Expo-Arte-MB
 62
7
100
AcDbSpline
 70
8
 71
3
 72
8
 73
4
 74
0
 40
0
 40
0
 40
0
 40
0
 40
1
 40
1
 40
1
 40
1
 10
37.114910
 20
274.808290
 30
0.0
 10
37.077102
 20
274.773753
 30
0.0
 10
37.013228
 20
274.749552
 30
0.0
 10
36.941276
 20
274.749725
 30
0.0
  0
LINE
  5
239
100
AcDbEntity
  8
Expo-Arte-MB
 62
7
100
AcDbLine
 10
36.941276
 20
274.749725
 30
0.0
 11
36.941345
 21
274.749799
 31
0.0
  0
SPLINE
  5
23a
100
AcDbEntity
  8
Expo-Arte-MB
 62
7
100
AcDbSpline
 70
8
 71
3
 72
8
 73
4
 74
0
 40
0
 40
0
 40
0
 40
0
 40
1
 40
1
 40
1
 40
1
 10
38.349013
 20
276.630821
 30
0.0
 10
38.406468
 20
276.627380
 30
0.0
 10
38.462082
 20
276.651729
 30
0.0
 10
38.498527
 20
276.696279
 30
0.0
  0
SPLINE
  5
23b
100
AcDbEntity
  8
Expo-Arte-MB
 62
7
100
AcDbSpline
 70
8
 71
3
 72
8
 73
4
 74
0
 40
0
 40
0
 40
0
 40
0
 40
1
 40
1
 40
1
 40
1
 10
38.498527
 20
276.696279
 30
0.0
 10
39.247502
 20
277.605814
 30
0.0
 10
40.071820
 20
278.561256
 30
0.0
 10
40.592457
 20
279.563974
 30
0.0
  0
SPLINE
  5
23c
100
AcDbEntity
  8
Expo-Arte-MB
 62
7
100
AcDbSpline
 70
8
 71
3
 72
8
 73
4
 74
0
 40
0
 40
0
 40
0
 40
0
 40
1
 40
1
 40
1
 40
1
 10
40.592457
 20
279.563974
 30
0.0
 10
41.117105
 20
280.574848
 30
0.0
 10
41.525053
 20
281.770426
 30
0.0
 10
41.490940
 20
282.951191
 30
0.0
  0
SPLINE
  5
23d
100
AcDbEntity
  8
Expo-Arte-MB
 62
7
100
AcDbSpline
 70
8
 71
3
 72
8
 73
4
 74
0
 40
0
 40
0
 40
0
 40
0
 40
1
 40
1
 40
1
 40
1
 10
41.490940
 20
282.951191
 30
0.0
 10
41.482473
 20
283.243940
 30
0.0
 10
41.471502
 20
283.660045
 30
0.0
 10
41.375183
 20
284.056380
 30
0.0
  0
SPLINE
  5
23e
100
AcDbEntity
  8
Expo-Arte-MB
 62
7
100
AcDbSpline
 70
8
 71
3
 72
8
 73
4
 74
0
 40
0
 40
0
 40
0
 40
0
 40
1
 40
1
 40
1
 40
1
 10
41.375183
 20
284.056380
 30
0.0
 10
41.278853
 20
284.452715
 30
0.0
 10
41.090487
 20
284.849188
 30
0.0
 10
40.702012
 20
285.038919
 30
0.0
  0
SPLINE
  5
23f
100
AcDbEntity
  8
Expo-Arte-MB
 62
7
100
AcDbSpline
 70
8
 71
3
 72
8
 73
4
 74
0
 40
0
 40
0
 40
0
 40
0
 40
1
 40
1
 40
1
 40
1
 10
40.702012
 20
285.038919
 30
0.0
 10
40.378000
 20
285.197228
 30
0.0
 10
40.089675
 20
285.267480
 30
0.0
 10
39.828333
 20
285.260785
 30
0.0
  0
SPLINE
  5
240
100
AcDbEntity
  8
Expo-Arte-MB
 62
7
100
AcDbSpline
 70
8
 71
3
 72
8
 73
4
 74
0
 40
0
 40
0
 40
0
 40
0
 40
1
 40
1
 40
1
 40
1
 10
39.828333
 20
285.260785
 30
0.0
 10
39.517868
 20
285.252812
 30
0.0
 10
39.254494
 20
285.131156
 30
0.0
 10
39.040097
 20
284.954171
 30
0.0
  0
SPLINE
  5
241
100
AcDbEntity
  8
Expo-Arte-MB
 62
7
100
AcDbSpline
 70
8
 71
3
 72
8
 73
4
 74
0
 40
0
 40
0
 40
0
 40
0
 40
1
 40
1
 40
1
 40
1
 10
39.040097
 20
284.954171
 30
0.0
 10
38.825700
 20
284.777186
 30
0.0
 10
38.653844
 20
284.547891
 30
0.0
 10
38.495772
 20
284.307180
 30
0.0
  0
SPLINE
  5
242
100
AcDbEntity
  8
Expo-Arte-MB
 62
7
100
AcDbSpline
 70
8
 71
3
 72
8
 73
4
 74
0
 40
0
 40
0
 40
0
 40
0
 40
1
 40
1
 40
1
 40
1
 10
38.495772
 20
284.307180
 30
0.0
 10
38.495532
 20
284.306476
 30
0.0
 10
38.495297
 20
284.305771
 30
0.0
 10
38.495066
 20
284.305064
 30
0.0
  0
SPLINE
  5
243
100
AcDbEntity
  8
Expo-Arte-MB
 62
7
100
AcDbSpline
 70
8
 71
3
 72
8
 73
4
 74
0
 40
0
 40
0
 40
0
 40
0
 40
1
 40
1
 40
1
 40
1
 10
38.495066
 20
284.305064
 30
0.0
 10
38.414640
 20
284.178787
 30
0.0
 10
38.331257
 20
284.049861
 30
0.0
 10
38.253219
 20
283.921280
 30
0.0
  0
SPLINE
  5
244
100
AcDbEntity
  8
Expo-Arte-MB
 62
7
100
AcDbSpline
 70
8
 71
3
 72
8
 73
4
 74
0
 40
0
 40
0
 40
0
 40
0
 40
1
 40
1
 40
1
 40
1
 10
38.253219
 20
283.921280
 30
0.0
 10
38.201347
 20
283.836127
 30
0.0
 10
38.146504
 20
283.809415
 30
0.0
 10
38.082344
 20
283.800704
 30
0.0
  0
SPLINE
  5
245
100
AcDbEntity
  8
Expo-Arte-MB
 62
7
100
AcDbSpline
 70
8
 71
3
 72
8
 73
4
 74
0
 40
0
 40
0
 40
0
 40
0
 40
1
 40
1
 40
1
 40
1
 10
38.082344
 20
283.800704
 30
0.0
 10
38.018181
 20
283.791991
 30
0.0
 10
37.940803
 20
283.811676
 30
0.0
 10
37.878393
 20
283.853067
 30
0.0
  0
SPLINE
  5
246
100
AcDbEntity
  8
Expo-Arte-MB
 62
7
100
AcDbSpline
 70
8
 71
3
 72
8
 73
4
 74
0
 40
0
 40
0
 40
0
 40
0
 40
1
 40
1
 40
1
 40
1
 10
37.878393
 20
283.853067
 30
0.0
 10
37.821567
 20
283.890938
 30
0.0
 10
37.748164
 20
283.893245
 30
0.0
 10
37.689072
 20
283.859019
 30
0.0
  0
SPLINE
  5
247
100
AcDbEntity
  8
Expo-Arte-MB
 62
7
100
AcDbSpline
 70
8
 71
3
 72
8
 73
4
 74
0
 40
0
 40
0
 40
0
 40
0
 40
1
 40
1
 40
1
 40
1
 10
37.689072
 20
283.859019
 30
0.0
 10
37.629979
 20
283.824792
 30
0.0
 10
37.595456
 20
283.759973
 30
0.0
 10
37.600030
 20
283.691837
 30
0.0
  0
SPLINE
  5
248
100
AcDbEntity
  8
Expo-Arte-MB
 62
7
100
AcDbSpline
 70
8
 71
3
 72
8
 73
4
 74
0
 40
0
 40
0
 40
0
 40
0
 40
1
 40
1
 40
1
 40
1
 10
37.600030
 20
283.691837
 30
0.0
 10
37.752868
 20
281.387482
 30
0.0
 10
37.932954
 20
279.084736
 30
0.0
 10
38.181563
 20
276.790622
 30
0.0
  0
SPLINE
  5
249
100
AcDbEntity
  8
Expo-Arte-MB
 62
7
100
AcDbSpline
 70
8
 71
3
 72
8
 73
4
 74
0
 40
0
 40
0
 40
0
 40
0
 40
1
 40
1
 40
1
 40
1
 10
38.181563
 20
276.790622
 30
0.0
 10
38.190902
 20
276.703627
 30
0.0
 10
38.261661
 20
276.636072
 30
0.0
 10
38.348995
 20
276.630771
 30
0.0
  0
LINE
  5
24a
100
AcDbEntity
  8
Expo-Arte-MB
 62
7
100
AcDbLine
 10
38.348995
 20
276.630771
 30
0.0
 11
38.349013
 21
276.630821
 31
0.0
  0
SPLINE
  5
24b
100
AcDbEntity
  8
Expo-Arte-MB
 62
7
100
AcDbSpline
 70
8
 71
3
 72
8
 73
4
 74
0
 40
0
 40
0
 40
0
 40
0
 40
1
 40
1
 40
1
 40
1
 10
37.731652
 20
284.232769
 30
0.0
 10
37.793999
 20
284.232172
 30
0.0
 10
37.852181
 20
284.264002
 30
0.0
 10
37.885300
 20
284.316829
 30
0.0
  0
SPLINE
  5
24c
100
AcDbEntity
  8
Expo-Arte-MB
 62
7
100
AcDbSpline
 70
8
 71
3
 72
8
 73
4
 74
0
 40
0
 40
0
 40
0
 40
0
 40
1
 40
1
 40
1
 40
1
 10
37.885300
 20
284.316829
 30
0.0
 10
38.691412
 20
285.604087
 30
0.0
 10
39.969787
 20
287.079753
 30
0.0
 10
39.833847
 20
288.799587
 30
0.0
  0
SPLINE
  5
24d
100
AcDbEntity
  8
Expo-Arte-MB
 62
7
100
AcDbSpline
 70
8
 71
3
 72
8
 73
4
 74
0
 40
0
 40
0
 40
0
 40
0
 40
1
 40
1
 40
1
 40
1
 10
39.833847
 20
288.799587
 30
0.0
 10
39.747357
 20
289.892298
 30
0.0
 10
38.887179
 20
290.712295
 30
0.0
 10
37.988654
 20
290.665449
 30
0.0
  0
SPLINE
  5
24e
100
AcDbEntity
  8
Expo-Arte-MB
 62
7
100
AcDbSpline
 70
8
 71
3
 72
8
 73
4
 74
0
 40
0
 40
0
 40
0
 40
0
 40
1
 40
1
 40
1
 40
1
 10
37.988654
 20
290.665449
 30
0.0
 10
37.733899
 20
290.652185
 30
0.0
 10
37.480361
 20
290.563207
 30
0.0
 10
37.253472
 20
290.397423
 30
0.0
  0
SPLINE
  5
24f
100
AcDbEntity
  8
Expo-Arte-MB
 62
7
100
AcDbSpline
 70
8
 71
3
 72
8
 73
4
 74
0
 40
0
 40
0
 40
0
 40
0
 40
1
 40
1
 40
1
 40
1
 10
37.253472
 20
290.397423
 30
0.0
 10
37.203767
 20
290.361071
 30
0.0
 10
37.176192
 20
290.301757
 30
0.0
 10
37.180436
 20
290.240324
 30
0.0
  0
SPLINE
  5
250
100
AcDbEntity
  8
Expo-Arte-MB
 62
7
100
AcDbSpline
 70
8
 71
3
 72
8
 73
4
 74
0
 40
0
 40
0
 40
0
 40
0
 40
1
 40
1
 40
1
 40
1
 10
37.180436
 20
290.240324
 30
0.0
 10
37.313409
 20
288.296667
 30
0.0
 10
37.428037
 20
286.348448
 30
0.0
 10
37.553883
 20
284.400201
 30
0.0
  0
SPLINE
  5
251
100
AcDbEntity
  8
Expo-Arte-MB
 62
7
100
AcDbSpline
 70
8
 71
3
 72
8
 73
4
 74
0
 40
0
 40
0
 40
0
 40
0
 40
1
 40
1
 40
1
 40
1
 10
37.553883
 20
284.400201
 30
0.0
 10
37.560112
 20
284.306431
 30
0.0
 10
37.637677
 20
284.233376
 30
0.0
 10
37.731652
 20
284.232769
 30
0.0
  0
LINE
  5
252
100
AcDbEntity
  8
Expo-Arte-MB
 62
7
100
AcDbLine
 10
37.731652
 20
284.232769
 30
0.0
 11
37.731652
 21
284.232769
 31
0.0
  0
ENDSEC
  0
SECTION
  2
OBJECTS
  0
DICTIONARY
  5
C
330
0
100
AcDbDictionary
  3
ACAD_GROUP
350
D
  3
ACAD_MLINESTYLE
350
17
  0
DICTIONARY
  5
D
330
C
100
AcDbDictionary
  0
DICTIONARY
  5
1A
330
C
100
AcDbDictionary
  0
DICTIONARY
  5
17
330
C
100
AcDbDictionary
  3
STANDARD
350
18
  0
DICTIONARY
  5
19
330
C
100
AcDbDictionary
  0
ENDSEC
  0
EOF
