<?xml version="1.0" encoding="UTF-8" standalone="no"?>
<!-- Created with Inkscape (http://www.inkscape.org/) -->

<svg
   xmlns:dc="http://purl.org/dc/elements/1.1/"
   xmlns:cc="http://creativecommons.org/ns#"
   xmlns:rdf="http://www.w3.org/1999/02/22-rdf-syntax-ns#"
   xmlns:svg="http://www.w3.org/2000/svg"
   xmlns="http://www.w3.org/2000/svg"
   xmlns:sodipodi="http://sodipodi.sourceforge.net/DTD/sodipodi-0.dtd"
   xmlns:inkscape="http://www.inkscape.org/namespaces/inkscape"
   version="1.1"
   id="svg2"
   xml:space="preserve"
   width="793.70667"
   height="1122.52"
   viewBox="0 0 793.70667 1122.52"
   sodipodi:docname="MB-sign.svg"
   inkscape:version="0.92.4 5da689c313, 2019-01-14"><metadata
     id="metadata8"><rdf:RDF><cc:Work
         rdf:about=""><dc:format>image/svg+xml</dc:format><dc:type
           rdf:resource="http://purl.org/dc/dcmitype/StillImage" /><dc:title></dc:title></cc:Work></rdf:RDF></metadata><defs
     id="defs6"><clipPath
       clipPathUnits="userSpaceOnUse"
       id="clipPath18"><path
         d="M 0,841.89 H 595.28 V 0 H 0 Z"
         id="path16"
         inkscape:connector-curvature="0" /></clipPath><clipPath
       clipPathUnits="userSpaceOnUse"
       id="clipPath42"><path
         d="M 0,841.89 H 595.28 V 0 H 0 Z"
         id="path40"
         inkscape:connector-curvature="0" /></clipPath><clipPath
       clipPathUnits="userSpaceOnUse"
       id="clipPath90"><path
         d="M 0,841.89 H 595.28 V 0 H 0 Z"
         id="path88"
         inkscape:connector-curvature="0" /></clipPath></defs><sodipodi:namedview
     pagecolor="#ffffff"
     bordercolor="#666666"
     borderopacity="1"
     objecttolerance="10"
     gridtolerance="10"
     guidetolerance="10"
     inkscape:pageopacity="0"
     inkscape:pageshadow="2"
     inkscape:window-width="1918"
     inkscape:window-height="1059"
     id="namedview4"
     showgrid="false"
     inkscape:zoom="2.9795126"
     inkscape:cx="148.3"
     inkscape:cy="1044.8849"
     inkscape:window-x="0"
     inkscape:window-y="19"
     inkscape:window-maximized="0"
     inkscape:current-layer="g10" /><g
     id="g10"
     inkscape:groupmode="layer"
     inkscape:label="Expo-Arte-MB"
     transform="matrix(1.3333333,0,0,-1.3333333,0,1122.52)"><path
       style="fill:#1d1d1b;fill-opacity:1;fill-rule:nonzero;stroke:none;stroke-width:1.33333325"
       d="M 58.601562 16.753906 C 57.768063 16.751906 56.976547 17.285422 57.060547 18.357422 C 57.244223 20.710869 57.412495 23.066664 57.576172 25.423828 C 55.456459 27.877934 54.39154 31.092469 53.751953 34.4375 C 53.748261 34.459624 53.741081 34.479199 53.738281 34.501953 C 53.219769 37.2378 52.974289 40.050725 52.648438 42.589844 C 51.794098 49.243315 51.438354 55.986173 51.132812 62.722656 C 50.852604 61.898679 50.55674 61.07694 50.222656 60.259766 C 47.799882 54.329433 37.816132 44.895483 44.980469 38.8125 C 46.001541 38.330491 47.280099 38.063365 48.886719 38.078125 C 51.037385 38.098125 51.034719 34.764141 48.886719 34.744141 C 39.360052 34.657474 37.642766 42.744667 38.634766 50.75 C 39.294766 56.09 41.501526 61.096016 42.130859 66.416016 C 42.878859 72.734682 36.980969 76.749516 31.292969 75.353516 C 28.143635 74.581516 26.511484 70.094401 26.271484 67.427734 C 26.888859 63.709814 27.6274 62.543022 30.972656 61.792969 C 33.339323 61.408969 34.140953 62.617255 33.376953 65.419922 C 31.770286 66.854589 34.135089 69.202057 35.732422 67.775391 C 42.108422 62.084724 34.219667 57.112922 28.125 59.044922 C 19.790334 61.687588 22.599901 75.409151 29.365234 78.146484 C 39.003901 82.045151 46.308703 73.552989 45.220703 64.347656 C 44.937261 61.95345 43.73507 58.1718 42.773438 54.220703 C 43.918144 56.061606 45.210445 57.823822 46.28125 59.695312 C 48.930583 64.327312 49.829484 69.981453 50.521484 75.189453 C 50.798818 77.27212 53.723469 77.39212 53.855469 75.189453 C 54.308631 67.627458 54.57318 60.025128 55.115234 52.453125 C 55.947782 63.028306 56.78034 73.602554 57.613281 84.177734 C 57.779948 86.305734 61.113312 86.321734 60.945312 84.177734 C 59.660542 67.866046 58.376547 51.555829 57.091797 35.244141 C 57.331327 34.016633 57.610075 32.798791 57.988281 31.607422 C 59.064539 48.252741 59.913369 64.949468 61.888672 81.488281 C 62.091339 83.185615 63.962141 83.697458 64.994141 82.328125 C 71.631474 73.528125 78.811766 65.764286 79.259766 54.126953 C 79.422432 49.906953 78.00725 45.41337 74.03125 43.470703 C 72.588992 42.766025 71.238924 42.565887 69.980469 42.712891 C 72.118583 38.880856 73.634854 34.802743 72.835938 30.337891 C 71.882674 25.004491 66.320703 19.919469 60.722656 22.876953 C 60.613935 21.37014 60.512006 19.862626 60.394531 18.357422 C 60.311198 17.293422 59.435062 16.755906 58.601562 16.753906 z M 63.400391 25.626953 C 66.347578 25.473294 69.363229 28.253854 69.664062 32.054688 C 70.148448 38.182936 65.488335 43.649801 62.398438 48.583984 C 61.92297 41.223115 61.489205 33.858245 60.986328 26.507812 C 61.744486 25.953827 62.568729 25.670314 63.400391 25.626953 z M 70.335938 46.052734 C 71.18925 46.030859 72.170552 46.260552 73.324219 46.824219 C 75.737552 48.002885 75.861781 51.916287 75.925781 54.126953 C 76.049781 58.418953 74.551516 62.84237 72.603516 66.595703 C 70.690079 70.280878 67.604733 73.871032 64.767578 77.316406 C 63.829424 68.659184 63.151535 59.96577 62.574219 51.261719 C 63.298468 51.742025 64.360336 51.746139 64.943359 50.789062 C 65.231289 50.314644 65.54386 49.831618 65.849609 49.351562 C 67.012246 47.581094 68.310892 46.104647 70.335938 46.052734 z "
       transform="matrix(0.75000002,0,0,-0.75000002,0,841.89002)"
       id="path22" /><g
       aria-label="JN"
       transform="scale(1.022344,-0.97814435)"
       style="font-style:normal;font-variant:normal;font-weight:normal;font-stretch:normal;font-size:38.49229431px;line-height:24.05768394px;font-family:'Droid Serif';-inkscape-font-specification:'Droid Serif';letter-spacing:0px;word-spacing:0px;fill:#000000;fill-opacity:1;stroke:none;stroke-width:0.96230733px;stroke-linecap:butt;stroke-linejoin:miter;stroke-opacity:1"
       id="text983"><path
         d="m 135.15451,-803.59127 h 0.3571 q 1.24048,0 2.19902,-0.35711 0.97735,-0.33831 1.63518,-1.16529 0.65782,-0.80819 0.99613,-2.18023 0.35711,-1.35324 0.35711,-3.38311 v -23.58781 q 0,-0.84577 -0.26313,-1.35324 -0.24434,-0.52626 -0.67662,-0.80819 -0.43229,-0.28192 -1.01494,-0.3571 -0.56385,-0.094 -1.20288,-0.094 h -0.48867 v -1.61638 h 11.20186 v 1.61638 h -0.50747 q -0.63903,0 -1.22168,0.094 -0.58265,0.094 -1.01493,0.39469 -0.41349,0.28193 -0.67663,0.82698 -0.24433,0.54506 -0.24433,1.44722 v 23.39986 q 0,2.59372 -0.67662,4.30407 -0.67663,1.72915 -1.86072,2.74408 -1.18408,1.03373 -2.80046,1.46602 -1.59758,0.43228 -3.4395,0.43228 h -0.65782 z"
         style="font-style:normal;font-variant:normal;font-weight:normal;font-stretch:normal;font-family:'Droid Serif';-inkscape-font-specification:'Droid Serif';stroke-width:0.96230733px"
         id="path999" /><path
         d="m 171.24103,-811.01532 -14.43461,-22.17818 v 17.79893 q 0,0.90216 0.24434,1.44722 0.26313,0.54506 0.67662,0.84578 0.43229,0.28192 1.01493,0.3759 0.58265,0.094 1.22168,0.094 h 0.50747 v 1.61638 h -9.66066 v -1.61638 h 0.48867 q 0.65782,0 1.22168,-0.094 0.58264,-0.094 1.01493,-0.3759 0.43229,-0.30072 0.67662,-0.84578 0.24434,-0.54506 0.24434,-1.44722 v -18.87025 q 0,-0.84577 -0.26313,-1.35324 -0.24434,-0.52626 -0.67663,-0.80819 -0.43228,-0.28192 -1.01493,-0.3571 -0.56385,-0.094 -1.20288,-0.094 h -0.48867 v -1.61638 h 7.04814 l 13.77679,21.27602 v -17.04713 q 0,-0.84577 -0.26313,-1.35324 -0.24434,-0.52626 -0.67663,-0.80819 -0.43228,-0.28192 -1.01493,-0.3571 -0.56385,-0.094 -1.20288,-0.094 h -0.50747 v -1.61638 h 9.66066 v 1.61638 h -0.48867 q -0.65783,0 -1.24047,0.094 -0.56385,0.094 -0.99614,0.39469 -0.43229,0.28193 -0.67662,0.82698 -0.24434,0.54506 -0.24434,1.44722 v 23.09914 z"
         style="font-style:normal;font-variant:normal;font-weight:normal;font-stretch:normal;font-family:'Droid Serif';-inkscape-font-specification:'Droid Serif';stroke-width:0.96230733px"
         id="path1001" /></g><path
       transform="matrix(1.267182,0,0,-1.2411228,78.778839,-136.4311)"
       style="font-style:normal;font-variant:normal;font-weight:normal;font-stretch:normal;font-size:30px;line-height:18.75px;font-family:'Droid Serif';-inkscape-font-specification:'Droid Serif';letter-spacing:0px;word-spacing:0px;fill:#000000;fill-opacity:1;stroke:none;stroke-width:0.75px;stroke-linecap:butt;stroke-linejoin:miter;stroke-opacity:1"
       d="m 97.173828,-772.75977 a 1.3468905,1.3468905 0 0 0 -1.347656,1.34766 v 1.25977 a 1.3468905,1.3468905 0 0 0 1.347656,1.34765 h 0.38086 c 0.268674,0 0.508109,0.018 0.716796,0.0527 a 1.3468905,1.3468905 0 0 0 0.04883,0.008 c 0.129923,0.0168 0.185685,0.0456 0.226563,0.0723 0.003,0.002 0.0056,-0.0141 0.04297,0.0664 a 1.3468905,1.3468905 0 0 0 0.02539,0.0527 c -0.004,-0.008 0.05273,0.13575 0.05273,0.43554 v 18.38477 c 0,0.97488 -0.09092,1.74934 -0.234375,2.29297 a 1.3468905,1.3468905 0 0 0 -0.0039,0.0215 c -0.142199,0.57669 -0.336843,0.95462 -0.513672,1.17188 a 1.3468905,1.3468905 0 0 0 -0.0098,0.0117 c -0.19444,0.24444 -0.386088,0.37712 -0.662109,0.47266 a 1.3468905,1.3468905 0 0 0 -0.0293,0.0117 c -0.319027,0.11886 -0.72552,0.19141 -1.242188,0.19141 h -0.279297 a 1.3468905,1.3468905 0 0 0 -1.347656,1.34765 v 1.42188 a 1.3468905,1.3468905 0 0 0 1.347656,1.34765 h 0.513672 c 1.061956,0 2.073568,-0.12706 3.027344,-0.38476 1.018565,-0.27241 1.944605,-0.75421 2.718745,-1.42969 2.8e-4,-2.4e-4 0.002,2.4e-4 0.002,0 0.80113,-0.68974 1.40223,-1.60275 1.8164,-2.66016 0.43617,-1.10414 0.62305,-2.38237 0.62305,-3.8457 V -768 c 0,-0.33824 0.0539,-0.52507 0.0703,-0.56445 0.0354,-0.0619 0.0659,-0.0987 0.0586,-0.0937 a 1.3468905,1.3468905 0 0 0 0.0117,-0.008 c 0.0479,-0.0333 0.10764,-0.0632 0.23632,-0.084 0.22398,-0.0361 0.46766,-0.0547 0.73633,-0.0547 h 0.39649 a 1.3468905,1.3468905 0 0 0 0.99609,-0.44336 1.3468905,1.3468905 0 0 0 0.99609,0.44336 h 0.38086 c 0.26869,0 0.50813,0.018 0.7168,0.0527 a 1.3468905,1.3468905 0 0 0 0.0488,0.008 c 0.12993,0.0168 0.18568,0.0456 0.22656,0.0723 0.003,0.002 0.006,-0.0141 0.043,0.0664 a 1.3468905,1.3468905 0 0 0 0.0254,0.0527 c -0.004,-0.008 0.0527,0.13576 0.0527,0.43554 v 14.70703 c 0,0.34531 -0.0582,0.54673 -0.0723,0.57813 -0.0366,0.0818 -0.048,0.0813 -0.0586,0.0879 -0.0499,0.0301 -0.11328,0.0626 -0.2461,0.084 a 1.3468905,1.3468905 0 0 0 -0.006,0.002 c -0.21254,0.0354 -0.45536,0.0547 -0.73047,0.0547 h -0.38086 a 1.3468905,1.3468905 0 0 0 -1.34765,1.34766 v 1.25977 a 1.3468905,1.3468905 0 0 0 1.34765,1.34765 h 7.5293 a 1.3468905,1.3468905 0 0 0 1.34766,-1.34765 v -1.25977 a 1.3468905,1.3468905 0 0 0 -1.34766,-1.34766 h -0.39648 c -0.26338,0 -0.50677,-0.0196 -0.73633,-0.0566 -0.1243,-0.02 -0.18083,-0.0498 -0.23047,-0.0781 -0.0147,-0.0119 -0.0391,-0.0403 -0.0762,-0.10938 -0.016,-0.0394 -0.0703,-0.22653 -0.0703,-0.5625 v -9.33203 l 8.77343,13.48047 a 1.3468905,1.3468905 0 0 0 1.12891,0.61328 h 2.13867 a 1.3468905,1.3468905 0 0 0 1.34766,-1.34765 V -768 c 0,-0.3453 0.0573,-0.54268 0.0723,-0.57617 0.0411,-0.0918 0.0459,-0.0734 0.0352,-0.0664 a 1.3468905,1.3468905 0 0 0 0.0332,-0.0234 c 0.0555,-0.0386 0.11164,-0.0649 0.22071,-0.084 0.22127,-0.0357 0.47169,-0.0547 0.75195,-0.0547 h 0.38086 a 1.3468905,1.3468905 0 0 0 1.34765,-1.34765 v -1.25977 a 1.3468905,1.3468905 0 0 0 -1.34765,-1.34766 h -7.5293 a 1.3468905,1.3468905 0 0 0 -1.34765,1.34766 v 1.25977 a 1.3468905,1.3468905 0 0 0 1.34765,1.34765 h 0.39649 c 0.26867,0 0.5081,0.018 0.71679,0.0527 a 1.3468905,1.3468905 0 0 0 0.0488,0.008 c 0.12992,0.0168 0.18568,0.0456 0.22656,0.0723 0.003,0.002 0.006,-0.0141 0.043,0.0664 a 1.3468905,1.3468905 0 0 0 0.0254,0.0527 c -0.004,-0.008 0.0527,0.13576 0.0527,0.43554 v 8.72657 l -8.25977,-12.75391 a 1.3468905,1.3468905 0 0 0 -1.13086,-0.61524 h -5.49219 a 1.3468905,1.3468905 0 0 0 -0.99609,0.44336 1.3468905,1.3468905 0 0 0 -0.99609,-0.44336 z"
       id="text987" /><path
       transform="translate(1.2585952,-12.585952)"
       style="fill:#1d1d1b;fill-opacity:1;fill-rule:nonzero;stroke:none;stroke-width:0.99999994"
       d="m 103.45703,791.4043 c -0.20396,4.9e-4 -0.41679,0.0715 -0.56641,0.1914 -0.14961,0.1199 -0.25248,0.27348 -0.27343,0.54102 -0.62471,7.93135 -1.24863,15.86157 -1.87305,23.79297 a 0.5083103,0.5083103 0 0 1 -1.013671,-0.002 c -0.407422,-5.69138 -0.60595,-11.39362 -0.945313,-17.05664 -0.03606,-0.60175 -0.336557,-0.73532 -0.691406,-0.72851 -0.354849,0.007 -0.723556,0.21307 -0.796875,0.76367 -0.52024,3.91533 -1.191298,8.21899 -3.242187,11.80469 -0.822266,1.4371 -1.795784,2.76439 -2.640626,4.12304 a 0.5083103,0.5083103 0 0 1 -0.925781,-0.38867 c 0.726629,-2.98552 1.625981,-5.84416 1.826172,-7.53515 0.390296,-3.30221 -0.734016,-6.46707 -2.777344,-8.4336 -2.043327,-1.96653 -4.965734,-2.78192 -8.419921,-1.38476 -2.285949,0.92492 -4.037673,3.85635 -4.398438,6.78125 -0.180383,1.46245 -0.01896,2.90691 0.53125,4.07226 0.550214,1.16536 1.466275,2.06287 2.900391,2.51758 2.105606,0.66747 4.587969,0.10735 5.86914,-1.02539 0.640586,-0.56637 0.981112,-1.23036 0.94336,-1.98438 -0.03775,-0.75401 -0.470375,-1.66597 -1.59961,-2.67382 -0.201436,-0.17992 -0.377668,-0.21755 -0.5625,-0.19922 -0.184831,0.0183 -0.381535,0.11448 -0.52539,0.25781 -0.143856,0.14333 -0.224598,0.32289 -0.232422,0.47461 -0.0078,0.15172 0.02673,0.29268 0.230469,0.47461 a 0.5083103,0.5083103 0 0 1 0.152343,0.24609 c 0.303269,1.11252 0.354107,2.00393 -0.08789,2.66992 -0.220999,0.333 -0.572737,0.5654 -0.966797,0.66797 -0.394061,0.10257 -0.83241,0.0971 -1.322266,0.0176 a 0.5083103,0.5083103 0 0 1 -0.0293,-0.006 c -1.301617,-0.29184 -2.209774,-0.6982 -2.816406,-1.45703 -0.606632,-0.75883 -0.864142,-1.76362 -1.099609,-3.18164 a 0.5083103,0.5083103 0 0 1 -0.0039,-0.12891 c 0.09694,-1.07706 0.460063,-2.46238 1.123047,-3.69921 0.662984,-1.23684 1.644963,-2.3545 3.027344,-2.69336 2.282037,-0.56008 4.610413,-0.0392 6.306641,1.27343 1.696227,1.31266 2.747578,3.44751 2.447265,5.98438 -0.483906,4.09065 -2.13826,7.84343 -2.621094,11.75 -0.365033,2.94578 -0.212885,5.87801 0.835938,7.99023 1.048823,2.11222 2.915365,3.4765 6.34375,3.44532 0.27121,-0.003 0.41156,-0.0895 0.523438,-0.22071 0.111877,-0.13125 0.181559,-0.32961 0.18164,-0.5332 8.1e-5,-0.20359 -0.06853,-0.39926 -0.177734,-0.52539 -0.109207,-0.12613 -0.247658,-0.20956 -0.519532,-0.20703 -1.263776,0.0116 -2.302031,-0.19914 -3.15039,-0.59961 a 0.5083103,0.5083103 0 0 1 -0.111328,-0.0723 c -1.43711,-1.2202 -2.060317,-2.68812 -2.087891,-4.18945 -0.02757,-1.50133 0.497892,-3.02219 1.230469,-4.50781 1.465153,-2.97125 3.794705,-5.87991 4.646484,-7.96485 0.245313,-0.60003 0.465748,-1.20843 0.673828,-1.82031 a 0.5083103,0.5083103 0 0 1 0.988282,0.14063 c 0.229043,5.04985 0.495312,10.09383 1.132812,15.05859 0.246342,1.91956 0.430051,4.01917 0.8125,6.03711 a 0.5083103,0.5083103 0 0 1 0.0039,0.0332 c -0.01034,-0.0858 -0.0083,-0.0838 0.0098,0.0234 l -0.002,-0.0117 c 0.471453,2.46571 1.250803,4.78742 2.751953,6.52539 a 0.5083103,0.5083103 0 0 1 0.12305,0.36719 c -0.1228,1.76855 -0.25074,3.53544 -0.38868,5.30273 -0.0213,0.27139 0.0508,0.39183 0.15821,0.49024 0.10737,0.0984 0.28689,0.16666 0.49023,0.16601 0.20361,-4.9e-4 0.41664,-0.0711 0.56641,-0.1914 0.14976,-0.12033 0.25248,-0.27535 0.27344,-0.54297 0.0878,-1.12543 0.16253,-2.25513 0.24414,-3.38672 a 0.5083103,0.5083103 0 0 1 0.74609,-0.41211 c 1.9314,1.02037 3.77956,0.65906 5.31641,-0.43164 1.53684,-1.0907 2.69898,-2.9457 3.03125,-4.80469 0.57007,-3.18597 -0.50725,-6.11395 -2.08594,-8.94336 a 0.5083103,0.5083103 0 0 1 0.50195,-0.75195 c 0.8494,0.0992 1.75453,-0.0313 2.75781,-0.52148 2.747,-1.34218 3.75382,-4.47794 3.63672,-7.51563 -0.3283,-8.52808 -5.6001,-14.23931 -10.59765,-20.86523 -0.27973,-0.37117 -0.59391,-0.43549 -0.85938,-0.36329 -0.26546,0.0722 -0.50567,0.2885 -0.56054,0.74805 -1.47873,12.38115 -2.11439,24.89417 -2.92188,37.38281 a 0.5083103,0.5083103 0 0 1 -0.99219,0.1211 c -0.29211,-0.92014 -0.50383,-1.85195 -0.68554,-2.78321 a 0.5083103,0.5083103 0 0 1 -0.008,-0.13671 c 0.96356,-12.23377 1.92706,-24.4674 2.89063,-36.70118 0.0213,-0.27137 -0.0491,-0.39033 -0.15625,-0.48828 -0.10717,-0.0979 -0.28823,-0.1665 -0.49219,-0.16601 z m 3.99024,5.33203 a 0.5083103,0.5083103 0 0 1 0.42382,0.18555 c 2.12308,2.57821 4.45973,5.28655 5.93555,8.1289 1.48719,2.86547 2.64358,6.25451 2.54688,9.60156 -0.024,0.82984 -0.0551,2.00935 -0.32813,3.13282 -0.27306,1.12347 -0.80701,2.24733 -1.9082,2.78515 -0.91846,0.44875 -1.73576,0.64789 -2.47657,0.62891 -0.88006,-0.0226 -1.62663,-0.36745 -2.23437,-0.86914 -0.60774,-0.50169 -1.09489,-1.15166 -1.54297,-1.83399 a 0.5083103,0.5083103 0 0 1 -0.002,-0.006 c -0.22798,-0.35795 -0.46434,-0.72341 -0.68555,-1.08789 -0.14704,-0.24138 -0.3025,-0.3171 -0.48437,-0.34179 -0.18188,-0.0247 -0.40122,0.0311 -0.57813,0.14843 a 0.5083103,0.5083103 0 0 1 -0.78906,-0.45703 c 0.43324,-6.53203 0.94372,-13.0595 1.64844,-19.5625 a 0.5083103,0.5083103 0 0 1 0.47461,-0.45312 z m -1.75,21.54883 a 0.5083103,0.5083103 0 0 1 0.43554,0.23828 c 2.28504,3.64892 5.90878,7.83191 5.52344,12.70703 -0.24517,3.09745 -2.68347,5.42185 -5.23047,5.28906 -0.72214,-0.0376 -1.44083,-0.28982 -2.08398,-0.75976 a 0.5083103,0.5083103 0 0 1 -0.20703,-0.44532 c 0.37693,-5.50958 0.70186,-11.03209 1.05859,-16.55468 a 0.5083103,0.5083103 0 0 1 0.50391,-0.47461 z"
       id="path989" /></g></svg>