  0
SECTION
  2
HEADER
  9
$ACADVER
  1
AC1014
  9
$HANDSEED
  5
FFFF
  9
$MEASUREMENT
 70
     1
  0
ENDSEC
  0
SECTION
  2
TABLES
  0
TABLE
  2
VPORT
  5
8
330
0
100
AcDbSymbolTable
 70
     4
  0
VPORT
  5
2E
330
8
100
AcDbSymbolTableRecord
100
AcDbViewportTableRecord
  2
*ACTIVE
 70
     0
 10
0.0
 20
0.0
 11
1.0
 21
1.0
 12
210.0
 22
148.5
 13
0.0
 23
0.0
 14
10.0
 24
10.0
 15
10.0
 25
10.0
 16
0.0
 26
0.0
 36
1.0
 17
0.0
 27
0.0
 37
0.0
 40
341.0
 41
1.24
 42
50.0
 43
0.0
 44
0.0
 50
0.0
 51
0.0
 71
     0
 72
   100
 73
     1
 74
     3
 75
     0
 76
     0
 77
     0
 78
     0
  0
ENDTAB
  0
TABLE
  2
LTYPE
  5
5
330
0
100
AcDbSymbolTable
 70
     1
  0
LTYPE
  5
14
330
5
100
AcDbSymbolTableRecord
100
AcDbLinetypeTableRecord
  2
BYBLOCK
 70
     0
  3

 72
    65
 73
     0
 40
0.0
  0
LTYPE
  5
15
330
5
100
AcDbSymbolTableRecord
100
AcDbLinetypeTableRecord
  2
BYLAYER
 70
     0
  3

 72
    65
 73
     0
 40
0.0
  0
LTYPE
  5
16
330
5
100
AcDbSymbolTableRecord
100
AcDbLinetypeTableRecord
  2
CONTINUOUS
 70
     0
  3
Solid line
 72
    65
 73
     0
 40
0.0
  0
ENDTAB
  0
TABLE
  2
LAYER
  5
2
100
AcDbSymbolTable
 70
3
  0
LAYER
  5
50
100
AcDbSymbolTableRecord
100
AcDbLayerTableRecord
  2
0
 70
0
  6
CONTINUOUS
  0
LAYER
  5
51
100
AcDbSymbolTableRecord
100
AcDbLayerTableRecord
  2
kkk
 70
0
  6
CONTINUOUS
  0
LAYER
  5
52
100
AcDbSymbolTableRecord
100
AcDbLayerTableRecord
  2
Layer_2
 70
0
  6
CONTINUOUS
  0
ENDTAB
  0
TABLE
  2
STYLE
  5
3
330
0
100
AcDbSymbolTable
 70
     1
  0
STYLE
  5
11
330
3
100
AcDbSymbolTableRecord
100
AcDbTextStyleTableRecord
  2
STANDARD
 70
     0
 40
0.0
 41
1.0
 50
0.0
 71
     0
 42
2.5
  3
txt
  4

  0
ENDTAB
  0
TABLE
  2
VIEW
  5
6
330
0
100
AcDbSymbolTable
 70
     0
  0
ENDTAB
  0
TABLE
  2
UCS
  5
7
330
0
100
AcDbSymbolTable
 70
     0
  0
ENDTAB
  0
TABLE
  2
APPID
  5
9
330
0
100
AcDbSymbolTable
 70
     2
  0
APPID
  5
12
330
9
100
AcDbSymbolTableRecord
100
AcDbRegAppTableRecord
  2
ACAD
 70
     0
  0
ENDTAB
  0
TABLE
  2
DIMSTYLE
  5
A
330
0
100
AcDbSymbolTable
 70
     1
  0
DIMSTYLE
105
27
330
A
100
AcDbSymbolTableRecord
100
AcDbDimStyleTableRecord
  2
ISO-25
 70
     0
  3

  4

  5

  6

  7

 40
1.0
 41
2.5
 42
0.625
 43
3.75
 44
1.25
 45
0.0
 46
0.0
 47
0.0
 48
0.0
140
2.5
141
2.5
142
0.0
143
0.03937007874016
144
1.0
145
0.0
146
1.0
147
0.625
 71
     0
 72
     0
 73
     0
 74
     0
 75
     0
 76
     0
 77
     1
 78
     8
170
     0
171
     3
172
     1
173
     0
174
     0
175
     0
176
     0
177
     0
178
     0
270
     2
271
     2
272
     2
273
     2
274
     3
340
11
275
     0
280
     0
281
     0
282
     0
283
     0
284
     8
285
     0
286
     0
287
     3
288
     0
  0
ENDTAB
  0
TABLE
  2
BLOCK_RECORD
  5
1
330
0
100
AcDbSymbolTable
 70
     1
  0
BLOCK_RECORD
  5
1F
330
1
100
AcDbSymbolTableRecord
100
AcDbBlockTableRecord
  2
*MODEL_SPACE
  0
BLOCK_RECORD
  5
1B
330
1
100
AcDbSymbolTableRecord
100
AcDbBlockTableRecord
  2
*PAPER_SPACE
  0
ENDTAB
  0
ENDSEC
  0
SECTION
  2
BLOCKS
  0
BLOCK
  5
20
330
1F
100
AcDbEntity
  8
0
100
AcDbBlockBegin
  2
*MODEL_SPACE
 70
     0
 10
0.0
 20
0.0
 30
0.0
  3
*MODEL_SPACE
  1

  0
ENDBLK
  5
21
330
1F
100
AcDbEntity
  8
0
100
AcDbBlockEnd
  0
BLOCK
  5
1C
330
1B
100
AcDbEntity
 67
     1
  8
0
100
AcDbBlockBegin
  2
*PAPER_SPACE
  1

  0
ENDBLK
  5
1D
330
1B
100
AcDbEntity
 67
     1
  8
0
100
AcDbBlockEnd
  0
ENDSEC
  0
SECTION
  2
ENTITIES
  0
LINE
  5
100
100
AcDbEntity
  8
kkk
 62
7
100
AcDbLine
 10
99.814159
 20
253.369827
 30
0.0
 11
99.814159
 21
195.062730
 31
0.0
  0
LINE
  5
101
100
AcDbEntity
  8
kkk
 62
7
100
AcDbLine
 10
67.451775
 20
253.369827
 30
0.0
 11
132.176545
 21
253.369827
 31
0.0
  0
LINE
  5
102
100
AcDbEntity
  8
kkk
 62
7
100
AcDbLine
 10
132.176545
 20
253.369827
 30
0.0
 11
132.176545
 21
195.062725
 31
0.0
  0
LINE
  5
103
100
AcDbEntity
  8
kkk
 62
7
100
AcDbLine
 10
132.176545
 20
195.062725
 30
0.0
 11
67.451775
 21
195.062725
 31
0.0
  0
LINE
  5
104
100
AcDbEntity
  8
kkk
 62
7
100
AcDbLine
 10
67.451775
 20
195.062725
 30
0.0
 11
67.451775
 21
253.369827
 31
0.0
  0
SPLINE
  5
105
100
AcDbEntity
  8
Layer_2
 62
7
100
AcDbSpline
 70
8
 71
3
 72
8
 73
4
 74
0
 40
0
 40
0
 40
0
 40
0
 40
1
 40
1
 40
1
 40
1
 10
69.462891
 20
235.764157
 30
0.0
 10
69.189537
 20
235.764024
 30
0.0
 10
68.936662
 20
235.617063
 30
0.0
 10
68.798153
 20
235.377837
 30
0.0
  0
SPLINE
  5
106
100
AcDbEntity
  8
Layer_2
 62
7
100
AcDbSpline
 70
8
 71
3
 72
8
 73
4
 74
0
 40
0
 40
0
 40
0
 40
0
 40
1
 40
1
 40
1
 40
1
 10
68.798153
 20
235.377837
 30
0.0
 10
68.659645
 20
235.138612
 30
0.0
 10
68.656186
 20
234.842844
 30
0.0
 10
68.789062
 20
234.600349
 30
0.0
  0
LINE
  5
107
100
AcDbEntity
  8
Layer_2
 62
7
100
AcDbLine
 10
68.789062
 20
234.600349
 30
0.0
 11
89.052734
 21
197.540871
 31
0.0
  0
SPLINE
  5
108
100
AcDbEntity
  8
Layer_2
 62
7
100
AcDbSpline
 70
8
 71
3
 72
8
 73
4
 74
0
 40
0
 40
0
 40
0
 40
0
 40
1
 40
1
 40
1
 40
1
 10
89.052734
 20
197.540871
 30
0.0
 10
89.188964
 20
197.292828
 30
0.0
 10
89.446802
 20
197.139087
 30
0.0
 10
89.726563
 20
197.139087
 30
0.0
  0
SPLINE
  5
109
100
AcDbEntity
  8
Layer_2
 62
7
100
AcDbSpline
 70
8
 71
3
 72
8
 73
4
 74
0
 40
0
 40
0
 40
0
 40
0
 40
1
 40
1
 40
1
 40
1
 10
89.726563
 20
197.139087
 30
0.0
 10
90.006323
 20
197.139087
 30
0.0
 10
90.264161
 20
197.292828
 30
0.0
 10
90.400391
 20
197.540871
 30
0.0
  0
SPLINE
  5
10a
100
AcDbEntity
  8
Layer_2
 62
7
100
AcDbSpline
 70
8
 71
3
 72
8
 73
4
 74
0
 40
0
 40
0
 40
0
 40
0
 40
1
 40
1
 40
1
 40
1
 10
90.400391
 20
197.540871
 30
0.0
 10
90.400391
 20
197.540871
 30
0.0
 10
110.664060
 20
234.600349
 30
0.0
 10
110.664060
 20
234.600349
 30
0.0
  0
SPLINE
  5
10b
100
AcDbEntity
  8
Layer_2
 62
7
100
AcDbSpline
 70
8
 71
3
 72
8
 73
4
 74
0
 40
0
 40
0
 40
0
 40
0
 40
1
 40
1
 40
1
 40
1
 10
110.664060
 20
234.600349
 30
0.0
 10
110.796936
 20
234.842845
 30
0.0
 10
110.793477
 20
235.138612
 30
0.0
 10
110.654968
 20
235.377838
 30
0.0
  0
SPLINE
  5
10c
100
AcDbEntity
  8
Layer_2
 62
7
100
AcDbSpline
 70
8
 71
3
 72
8
 73
4
 74
0
 40
0
 40
0
 40
0
 40
0
 40
1
 40
1
 40
1
 40
1
 10
110.654968
 20
235.377838
 30
0.0
 10
110.516460
 20
235.617064
 30
0.0
 10
110.263584
 20
235.764025
 30
0.0
 10
109.990230
 20
235.764157
 30
0.0
  0
LINE
  5
10d
100
AcDbEntity
  8
Layer_2
 62
7
100
AcDbLine
 10
109.990230
 20
235.764157
 30
0.0
 11
69.462891
 21
235.764157
 31
0.0
  0
LINE
  5
10e
100
AcDbEntity
  8
Layer_2
 62
7
100
AcDbLine
 10
80.177465
 20
233.117725
 30
0.0
 11
89.727048
 21
215.912305
 31
0.0
  0
LINE
  5
10f
100
AcDbEntity
  8
Layer_2
 62
7
100
AcDbLine
 10
89.727048
 20
215.912305
 30
0.0
 11
99.276634
 21
233.117725
 31
0.0
  0
LINE
  5
110
100
AcDbEntity
  8
Layer_2
 62
7
100
AcDbLine
 10
99.276634
 20
233.117725
 30
0.0
 11
80.177465
 21
233.117725
 31
0.0
  0
LINE
  5
111
100
AcDbEntity
  8
Layer_2
 62
7
100
AcDbLine
 10
83.414550
 20
231.184881
 30
0.0
 11
89.727047
 21
219.811694
 31
0.0
  0
LINE
  5
112
100
AcDbEntity
  8
Layer_2
 62
7
100
AcDbLine
 10
89.727047
 20
219.811694
 30
0.0
 11
96.039548
 21
231.184881
 31
0.0
  0
LINE
  5
113
100
AcDbEntity
  8
Layer_2
 62
7
100
AcDbLine
 10
96.039548
 20
231.184881
 30
0.0
 11
83.414550
 21
231.184881
 31
0.0
  0
LINE
  5
114
100
AcDbEntity
  8
Layer_2
 62
7
100
AcDbLine
 10
85.957265
 20
229.473129
 30
0.0
 11
89.727048
 21
222.684227
 31
0.0
  0
LINE
  5
115
100
AcDbEntity
  8
Layer_2
 62
7
100
AcDbLine
 10
89.727048
 20
222.684227
 30
0.0
 11
93.496829
 21
229.473129
 31
0.0
  0
LINE
  5
116
100
AcDbEntity
  8
Layer_2
 62
7
100
AcDbLine
 10
93.496829
 20
229.473129
 30
0.0
 11
85.957265
 21
229.473129
 31
0.0
  0
LINE
  5
117
100
AcDbEntity
  8
Layer_2
 62
7
100
AcDbLine
 10
107.413598
 20
233.204411
 30
0.0
 11
100.990216
 21
233.122763
 31
0.0
  0
LINE
  5
118
100
AcDbEntity
  8
Layer_2
 62
7
100
AcDbLine
 10
100.990216
 20
233.122763
 30
0.0
 11
97.426609
 21
226.659074
 31
0.0
  0
LINE
  5
119
100
AcDbEntity
  8
Layer_2
 62
7
100
AcDbLine
 10
97.426609
 20
226.659074
 30
0.0
 11
103.681526
 21
226.659074
 31
0.0
  0
LINE
  5
11a
100
AcDbEntity
  8
Layer_2
 62
7
100
AcDbLine
 10
103.681526
 20
226.659074
 30
0.0
 11
107.413598
 21
233.204411
 31
0.0
  0
LINE
  5
11b
100
AcDbEntity
  8
Layer_2
 62
7
100
AcDbLine
 10
107.413598
 20
233.204411
 30
0.0
 11
107.413598
 21
233.204411
 31
0.0
  0
LINE
  5
11c
100
AcDbEntity
  8
Layer_2
 62
7
100
AcDbLine
 10
96.171389
 20
224.382729
 30
0.0
 11
90.784121
 21
214.611233
 31
0.0
  0
LINE
  5
11d
100
AcDbEntity
  8
Layer_2
 62
7
100
AcDbLine
 10
90.784121
 20
214.611233
 30
0.0
 11
96.843182
 21
214.664975
 31
0.0
  0
LINE
  5
11e
100
AcDbEntity
  8
Layer_2
 62
7
100
AcDbLine
 10
96.843182
 20
214.664975
 30
0.0
 11
102.383930
 21
224.382729
 31
0.0
  0
LINE
  5
11f
100
AcDbEntity
  8
Layer_2
 62
7
100
AcDbLine
 10
102.383930
 20
224.382729
 30
0.0
 11
96.171389
 21
224.382729
 31
0.0
  0
LINE
  5
120
100
AcDbEntity
  8
Layer_2
 62
7
100
AcDbLine
 10
96.171389
 20
224.382729
 30
0.0
 11
96.171389
 21
224.382729
 31
0.0
  0
LINE
  5
121
100
AcDbEntity
  8
Layer_2
 62
7
100
AcDbLine
 10
83.413259
 20
212.901460
 30
0.0
 11
84.986059
 21
210.067636
 31
0.0
  0
LINE
  5
122
100
AcDbEntity
  8
Layer_2
 62
7
100
AcDbLine
 10
84.986059
 20
210.067636
 30
0.0
 11
94.468103
 21
210.067636
 31
0.0
  0
LINE
  5
123
100
AcDbEntity
  8
Layer_2
 62
7
100
AcDbLine
 10
94.468103
 20
210.067636
 30
0.0
 11
96.040901
 21
212.901460
 31
0.0
  0
LINE
  5
124
100
AcDbEntity
  8
Layer_2
 62
7
100
AcDbLine
 10
96.040901
 20
212.901460
 30
0.0
 11
90.119162
 21
212.901460
 31
0.0
  0
LINE
  5
125
100
AcDbEntity
  8
Layer_2
 62
7
100
AcDbLine
 10
90.119162
 20
212.901460
 30
0.0
 11
89.681084
 21
212.142658
 31
0.0
  0
LINE
  5
126
100
AcDbEntity
  8
Layer_2
 62
7
100
AcDbLine
 10
89.681084
 20
212.142658
 30
0.0
 11
89.256932
 21
212.901460
 31
0.0
  0
LINE
  5
127
100
AcDbEntity
  8
Layer_2
 62
7
100
AcDbLine
 10
89.256932
 20
212.901460
 30
0.0
 11
83.413259
 21
212.901460
 31
0.0
  0
LINE
  5
128
100
AcDbEntity
  8
Layer_2
 62
7
100
AcDbLine
 10
85.906778
 20
208.320208
 30
0.0
 11
87.404828
 21
205.621018
 31
0.0
  0
LINE
  5
129
100
AcDbEntity
  8
Layer_2
 62
7
100
AcDbLine
 10
87.404828
 20
205.621018
 30
0.0
 11
92.049331
 21
205.621018
 31
0.0
  0
LINE
  5
12a
100
AcDbEntity
  8
Layer_2
 62
7
100
AcDbLine
 10
92.049331
 20
205.621018
 30
0.0
 11
93.547384
 21
208.320208
 31
0.0
  0
LINE
  5
12b
100
AcDbEntity
  8
Layer_2
 62
7
100
AcDbLine
 10
93.547384
 20
208.320208
 30
0.0
 11
85.906778
 21
208.320208
 31
0.0
  0
LINE
  5
12c
100
AcDbEntity
  8
Layer_2
 62
7
100
AcDbLine
 10
88.154308
 20
203.968472
 30
0.0
 11
89.726822
 21
201.135051
 31
0.0
  0
LINE
  5
12d
100
AcDbEntity
  8
Layer_2
 62
7
100
AcDbLine
 10
89.726822
 20
201.135051
 30
0.0
 11
91.299336
 21
203.968472
 31
0.0
  0
LINE
  5
12e
100
AcDbEntity
  8
Layer_2
 62
7
100
AcDbLine
 10
91.299336
 20
203.968472
 30
0.0
 11
88.154308
 21
203.968472
 31
0.0
  0
LINE
  5
12f
100
AcDbEntity
  8
Layer_2
 62
7
100
AcDbLine
 10
71.979585
 20
233.204411
 30
0.0
 11
78.427254
 21
221.896575
 31
0.0
  0
LINE
  5
130
100
AcDbEntity
  8
Layer_2
 62
7
100
AcDbLine
 10
78.427254
 20
221.896575
 30
0.0
 11
84.592767
 21
221.896575
 31
0.0
  0
LINE
  5
131
100
AcDbEntity
  8
Layer_2
 62
7
100
AcDbLine
 10
84.592767
 20
221.896575
 30
0.0
 11
78.403481
 21
233.122763
 31
0.0
  0
LINE
  5
132
100
AcDbEntity
  8
Layer_2
 62
7
100
AcDbLine
 10
78.403481
 20
233.122763
 30
0.0
 11
71.979585
 21
233.204411
 31
0.0
  0
LINE
  5
133
100
AcDbEntity
  8
Layer_2
 62
7
100
AcDbLine
 10
71.979585
 20
233.204411
 30
0.0
 11
71.979585
 21
233.204411
 31
0.0
  0
LINE
  5
134
100
AcDbEntity
  8
Layer_2
 62
7
100
AcDbLine
 10
79.724850
 20
219.620229
 30
0.0
 11
82.550515
 21
214.664975
 31
0.0
  0
LINE
  5
135
100
AcDbEntity
  8
Layer_2
 62
7
100
AcDbLine
 10
82.550515
 20
214.664975
 30
0.0
 11
88.609576
 21
214.611233
 31
0.0
  0
LINE
  5
136
100
AcDbEntity
  8
Layer_2
 62
7
100
AcDbLine
 10
88.609576
 20
214.611233
 30
0.0
 11
85.847988
 21
219.620229
 31
0.0
  0
LINE
  5
137
100
AcDbEntity
  8
Layer_2
 62
7
100
AcDbLine
 10
85.847988
 20
219.620229
 30
0.0
 11
79.724850
 21
219.620229
 31
0.0
  0
LINE
  5
138
100
AcDbEntity
  8
Layer_2
 62
7
100
AcDbLine
 10
79.724850
 20
219.620229
 30
0.0
 11
79.724850
 21
219.620229
 31
0.0
  0
SPLINE
  5
139
100
AcDbEntity
  8
Layer_2
 62
7
100
AcDbSpline
 70
8
 71
3
 72
8
 73
4
 74
0
 40
0
 40
0
 40
0
 40
0
 40
1
 40
1
 40
1
 40
1
 10
71.218387
 20
234.273972
 30
0.0
 10
71.218387
 20
234.154625
 30
0.0
 10
71.170976
 20
234.040165
 30
0.0
 10
71.086585
 20
233.955774
 30
0.0
  0
SPLINE
  5
13a
100
AcDbEntity
  8
Layer_2
 62
7
100
AcDbSpline
 70
8
 71
3
 72
8
 73
4
 74
0
 40
0
 40
0
 40
0
 40
0
 40
1
 40
1
 40
1
 40
1
 10
71.086585
 20
233.955774
 30
0.0
 10
71.002194
 20
233.871383
 30
0.0
 10
70.887734
 20
233.823972
 30
0.0
 10
70.768387
 20
233.823972
 30
0.0
  0
SPLINE
  5
13b
100
AcDbEntity
  8
Layer_2
 62
7
100
AcDbSpline
 70
8
 71
3
 72
8
 73
4
 74
0
 40
0
 40
0
 40
0
 40
0
 40
1
 40
1
 40
1
 40
1
 10
70.768387
 20
233.823972
 30
0.0
 10
70.649040
 20
233.823972
 30
0.0
 10
70.534580
 20
233.871383
 30
0.0
 10
70.450189
 20
233.955774
 30
0.0
  0
SPLINE
  5
13c
100
AcDbEntity
  8
Layer_2
 62
7
100
AcDbSpline
 70
8
 71
3
 72
8
 73
4
 74
0
 40
0
 40
0
 40
0
 40
0
 40
1
 40
1
 40
1
 40
1
 10
70.450189
 20
233.955774
 30
0.0
 10
70.365798
 20
234.040165
 30
0.0
 10
70.318387
 20
234.154625
 30
0.0
 10
70.318387
 20
234.273972
 30
0.0
  0
SPLINE
  5
13d
100
AcDbEntity
  8
Layer_2
 62
7
100
AcDbSpline
 70
8
 71
3
 72
8
 73
4
 74
0
 40
0
 40
0
 40
0
 40
0
 40
1
 40
1
 40
1
 40
1
 10
70.318387
 20
234.273972
 30
0.0
 10
70.318387
 20
234.393319
 30
0.0
 10
70.365798
 20
234.507779
 30
0.0
 10
70.450189
 20
234.592170
 30
0.0
  0
SPLINE
  5
13e
100
AcDbEntity
  8
Layer_2
 62
7
100
AcDbSpline
 70
8
 71
3
 72
8
 73
4
 74
0
 40
0
 40
0
 40
0
 40
0
 40
1
 40
1
 40
1
 40
1
 10
70.450189
 20
234.592170
 30
0.0
 10
70.534580
 20
234.676561
 30
0.0
 10
70.649040
 20
234.723972
 30
0.0
 10
70.768387
 20
234.723972
 30
0.0
  0
SPLINE
  5
13f
100
AcDbEntity
  8
Layer_2
 62
7
100
AcDbSpline
 70
8
 71
3
 72
8
 73
4
 74
0
 40
0
 40
0
 40
0
 40
0
 40
1
 40
1
 40
1
 40
1
 10
70.768387
 20
234.723972
 30
0.0
 10
70.887734
 20
234.723972
 30
0.0
 10
71.002194
 20
234.676561
 30
0.0
 10
71.086585
 20
234.592170
 30
0.0
  0
SPLINE
  5
140
100
AcDbEntity
  8
Layer_2
 62
7
100
AcDbSpline
 70
8
 71
3
 72
8
 73
4
 74
0
 40
0
 40
0
 40
0
 40
0
 40
1
 40
1
 40
1
 40
1
 10
71.086585
 20
234.592170
 30
0.0
 10
71.170976
 20
234.507779
 30
0.0
 10
71.218387
 20
234.393319
 30
0.0
 10
71.218387
 20
234.273972
 30
0.0
  0
LINE
  5
141
100
AcDbEntity
  8
Layer_2
 62
7
100
AcDbLine
 10
71.218387
 20
234.273972
 30
0.0
 11
71.218387
 21
234.273972
 31
0.0
  0
SPLINE
  5
142
100
AcDbEntity
  8
Layer_2
 62
7
100
AcDbSpline
 70
8
 71
3
 72
8
 73
4
 74
0
 40
0
 40
0
 40
0
 40
0
 40
1
 40
1
 40
1
 40
1
 10
109.455740
 20
234.434761
 30
0.0
 10
109.455740
 20
234.315414
 30
0.0
 10
109.408329
 20
234.200954
 30
0.0
 10
109.323938
 20
234.116563
 30
0.0
  0
SPLINE
  5
143
100
AcDbEntity
  8
Layer_2
 62
7
100
AcDbSpline
 70
8
 71
3
 72
8
 73
4
 74
0
 40
0
 40
0
 40
0
 40
0
 40
1
 40
1
 40
1
 40
1
 10
109.323938
 20
234.116563
 30
0.0
 10
109.239547
 20
234.032172
 30
0.0
 10
109.125087
 20
233.984761
 30
0.0
 10
109.005740
 20
233.984761
 30
0.0
  0
SPLINE
  5
144
100
AcDbEntity
  8
Layer_2
 62
7
100
AcDbSpline
 70
8
 71
3
 72
8
 73
4
 74
0
 40
0
 40
0
 40
0
 40
0
 40
1
 40
1
 40
1
 40
1
 10
109.005740
 20
233.984761
 30
0.0
 10
108.886393
 20
233.984761
 30
0.0
 10
108.771933
 20
234.032172
 30
0.0
 10
108.687542
 20
234.116563
 30
0.0
  0
SPLINE
  5
145
100
AcDbEntity
  8
Layer_2
 62
7
100
AcDbSpline
 70
8
 71
3
 72
8
 73
4
 74
0
 40
0
 40
0
 40
0
 40
0
 40
1
 40
1
 40
1
 40
1
 10
108.687542
 20
234.116563
 30
0.0
 10
108.603151
 20
234.200954
 30
0.0
 10
108.555740
 20
234.315414
 30
0.0
 10
108.555740
 20
234.434761
 30
0.0
  0
SPLINE
  5
146
100
AcDbEntity
  8
Layer_2
 62
7
100
AcDbSpline
 70
8
 71
3
 72
8
 73
4
 74
0
 40
0
 40
0
 40
0
 40
0
 40
1
 40
1
 40
1
 40
1
 10
108.555740
 20
234.434761
 30
0.0
 10
108.555740
 20
234.554108
 30
0.0
 10
108.603151
 20
234.668568
 30
0.0
 10
108.687542
 20
234.752959
 30
0.0
  0
SPLINE
  5
147
100
AcDbEntity
  8
Layer_2
 62
7
100
AcDbSpline
 70
8
 71
3
 72
8
 73
4
 74
0
 40
0
 40
0
 40
0
 40
0
 40
1
 40
1
 40
1
 40
1
 10
108.687542
 20
234.752959
 30
0.0
 10
108.771933
 20
234.837350
 30
0.0
 10
108.886393
 20
234.884761
 30
0.0
 10
109.005740
 20
234.884761
 30
0.0
  0
SPLINE
  5
148
100
AcDbEntity
  8
Layer_2
 62
7
100
AcDbSpline
 70
8
 71
3
 72
8
 73
4
 74
0
 40
0
 40
0
 40
0
 40
0
 40
1
 40
1
 40
1
 40
1
 10
109.005740
 20
234.884761
 30
0.0
 10
109.125087
 20
234.884761
 30
0.0
 10
109.239547
 20
234.837350
 30
0.0
 10
109.323938
 20
234.752959
 30
0.0
  0
SPLINE
  5
149
100
AcDbEntity
  8
Layer_2
 62
7
100
AcDbSpline
 70
8
 71
3
 72
8
 73
4
 74
0
 40
0
 40
0
 40
0
 40
0
 40
1
 40
1
 40
1
 40
1
 10
109.323938
 20
234.752959
 30
0.0
 10
109.408329
 20
234.668568
 30
0.0
 10
109.455740
 20
234.554108
 30
0.0
 10
109.455740
 20
234.434761
 30
0.0
  0
LINE
  5
14a
100
AcDbEntity
  8
Layer_2
 62
7
100
AcDbLine
 10
109.455740
 20
234.434761
 30
0.0
 11
109.455740
 21
234.434761
 31
0.0
  0
SPLINE
  5
14b
100
AcDbEntity
  8
Layer_2
 62
7
100
AcDbSpline
 70
8
 71
3
 72
8
 73
4
 74
0
 40
0
 40
0
 40
0
 40
0
 40
1
 40
1
 40
1
 40
1
 10
119.599959
 20
235.764157
 30
0.0
 10
119.326605
 20
235.764024
 30
0.0
 10
119.073730
 20
235.617063
 30
0.0
 10
118.935221
 20
235.377837
 30
0.0
  0
SPLINE
  5
14c
100
AcDbEntity
  8
Layer_2
 62
7
100
AcDbSpline
 70
8
 71
3
 72
8
 73
4
 74
0
 40
0
 40
0
 40
0
 40
0
 40
1
 40
1
 40
1
 40
1
 10
118.935221
 20
235.377837
 30
0.0
 10
118.796713
 20
235.138612
 30
0.0
 10
118.793254
 20
234.842844
 30
0.0
 10
118.926130
 20
234.600349
 30
0.0
  0
LINE
  5
14d
100
AcDbEntity
  8
Layer_2
 62
7
100
AcDbLine
 10
118.926130
 20
234.600349
 30
0.0
 11
139.189802
 21
197.540871
 31
0.0
  0
SPLINE
  5
14e
100
AcDbEntity
  8
Layer_2
 62
7
100
AcDbSpline
 70
8
 71
3
 72
8
 73
4
 74
0
 40
0
 40
0
 40
0
 40
0
 40
1
 40
1
 40
1
 40
1
 10
139.189802
 20
197.540871
 30
0.0
 10
139.326032
 20
197.292828
 30
0.0
 10
139.583870
 20
197.139087
 30
0.0
 10
139.863631
 20
197.139087
 30
0.0
  0
SPLINE
  5
14f
100
AcDbEntity
  8
Layer_2
 62
7
100
AcDbSpline
 70
8
 71
3
 72
8
 73
4
 74
0
 40
0
 40
0
 40
0
 40
0
 40
1
 40
1
 40
1
 40
1
 10
139.863631
 20
197.139087
 30
0.0
 10
140.143391
 20
197.139087
 30
0.0
 10
140.401229
 20
197.292828
 30
0.0
 10
140.537459
 20
197.540871
 30
0.0
  0
LINE
  5
150
100
AcDbEntity
  8
Layer_2
 62
7
100
AcDbLine
 10
140.537459
 20
197.540871
 30
0.0
 11
160.801128
 21
234.600349
 31
0.0
  0
SPLINE
  5
151
100
AcDbEntity
  8
Layer_2
 62
7
100
AcDbSpline
 70
8
 71
3
 72
8
 73
4
 74
0
 40
0
 40
0
 40
0
 40
0
 40
1
 40
1
 40
1
 40
1
 10
160.801128
 20
234.600349
 30
0.0
 10
160.934004
 20
234.842845
 30
0.0
 10
160.930545
 20
235.138612
 30
0.0
 10
160.792036
 20
235.377838
 30
0.0
  0
SPLINE
  5
152
100
AcDbEntity
  8
Layer_2
 62
7
100
AcDbSpline
 70
8
 71
3
 72
8
 73
4
 74
0
 40
0
 40
0
 40
0
 40
0
 40
1
 40
1
 40
1
 40
1
 10
160.792036
 20
235.377838
 30
0.0
 10
160.653528
 20
235.617064
 30
0.0
 10
160.400652
 20
235.764025
 30
0.0
 10
160.127298
 20
235.764157
 30
0.0
  0
LINE
  5
153
100
AcDbEntity
  8
Layer_2
 62
7
100
AcDbLine
 10
160.127298
 20
235.764157
 30
0.0
 11
119.599959
 21
235.764157
 31
0.0
  0
LINE
  5
154
100
AcDbEntity
  8
Layer_2
 62
7
100
AcDbLine
 10
130.314530
 20
233.117725
 30
0.0
 11
139.864120
 21
215.912305
 31
0.0
  0
LINE
  5
155
100
AcDbEntity
  8
Layer_2
 62
7
100
AcDbLine
 10
139.864120
 20
215.912305
 30
0.0
 11
149.413700
 21
233.117725
 31
0.0
  0
LINE
  5
156
100
AcDbEntity
  8
Layer_2
 62
7
100
AcDbLine
 10
149.413700
 20
233.117725
 30
0.0
 11
130.314530
 21
233.117725
 31
0.0
  0
LINE
  5
157
100
AcDbEntity
  8
Layer_2
 62
7
100
AcDbLine
 10
135.095500
 20
229.948256
 30
0.0
 11
139.864120
 21
221.360581
 31
0.0
  0
LINE
  5
158
100
AcDbEntity
  8
Layer_2
 62
7
100
AcDbLine
 10
139.864120
 20
221.360581
 30
0.0
 11
144.632740
 21
229.948256
 31
0.0
  0
LINE
  5
159
100
AcDbEntity
  8
Layer_2
 62
7
100
AcDbLine
 10
144.632740
 20
229.948256
 30
0.0
 11
135.095500
 21
229.948256
 31
0.0
  0
LINE
  5
15a
100
AcDbEntity
  8
Layer_2
 62
7
100
AcDbLine
 10
136.736050
 20
228.890290
 30
0.0
 11
139.864120
 21
223.259768
 31
0.0
  0
LINE
  5
15b
100
AcDbEntity
  8
Layer_2
 62
7
100
AcDbLine
 10
139.864120
 20
223.259768
 30
0.0
 11
142.992180
 21
228.890290
 31
0.0
  0
LINE
  5
15c
100
AcDbEntity
  8
Layer_2
 62
7
100
AcDbLine
 10
142.992180
 20
228.890290
 30
0.0
 11
136.736050
 21
228.890290
 31
0.0
  0
LINE
  5
15d
100
AcDbEntity
  8
Layer_2
 62
7
100
AcDbLine
 10
157.550670
 20
233.204411
 30
0.0
 11
151.127280
 21
233.122761
 31
0.0
  0
LINE
  5
15e
100
AcDbEntity
  8
Layer_2
 62
7
100
AcDbLine
 10
151.127280
 20
233.122761
 30
0.0
 11
147.563680
 21
226.659072
 31
0.0
  0
LINE
  5
15f
100
AcDbEntity
  8
Layer_2
 62
7
100
AcDbLine
 10
147.563680
 20
226.659072
 30
0.0
 11
153.818590
 21
226.659072
 31
0.0
  0
LINE
  5
160
100
AcDbEntity
  8
Layer_2
 62
7
100
AcDbLine
 10
153.818590
 20
226.659072
 30
0.0
 11
157.550670
 21
233.204411
 31
0.0
  0
LINE
  5
161
100
AcDbEntity
  8
Layer_2
 62
7
100
AcDbLine
 10
146.308460
 20
224.382729
 30
0.0
 11
140.921190
 21
214.611233
 31
0.0
  0
LINE
  5
162
100
AcDbEntity
  8
Layer_2
 62
7
100
AcDbLine
 10
140.921190
 20
214.611233
 30
0.0
 11
146.980250
 21
214.664973
 31
0.0
  0
LINE
  5
163
100
AcDbEntity
  8
Layer_2
 62
7
100
AcDbLine
 10
146.980250
 20
214.664973
 30
0.0
 11
152.521000
 21
224.382727
 31
0.0
  0
LINE
  5
164
100
AcDbEntity
  8
Layer_2
 62
7
100
AcDbLine
 10
152.521000
 20
224.382727
 30
0.0
 11
146.308460
 21
224.382729
 31
0.0
  0
LINE
  5
165
100
AcDbEntity
  8
Layer_2
 62
7
100
AcDbLine
 10
133.550330
 20
212.901460
 30
0.0
 11
135.123130
 21
210.067636
 31
0.0
  0
LINE
  5
166
100
AcDbEntity
  8
Layer_2
 62
7
100
AcDbLine
 10
135.123130
 20
210.067636
 30
0.0
 11
144.605170
 21
210.067636
 31
0.0
  0
LINE
  5
167
100
AcDbEntity
  8
Layer_2
 62
7
100
AcDbLine
 10
144.605170
 20
210.067636
 30
0.0
 11
146.177970
 21
212.901460
 31
0.0
  0
LINE
  5
168
100
AcDbEntity
  8
Layer_2
 62
7
100
AcDbLine
 10
146.177970
 20
212.901460
 30
0.0
 11
140.256230
 21
212.901460
 31
0.0
  0
LINE
  5
169
100
AcDbEntity
  8
Layer_2
 62
7
100
AcDbLine
 10
140.256230
 20
212.901460
 30
0.0
 11
139.818150
 21
212.142658
 31
0.0
  0
LINE
  5
16a
100
AcDbEntity
  8
Layer_2
 62
7
100
AcDbLine
 10
139.818150
 20
212.142658
 30
0.0
 11
139.394000
 21
212.901460
 31
0.0
  0
LINE
  5
16b
100
AcDbEntity
  8
Layer_2
 62
7
100
AcDbLine
 10
139.394000
 20
212.901460
 30
0.0
 11
133.550330
 21
212.901460
 31
0.0
  0
LINE
  5
16c
100
AcDbEntity
  8
Layer_2
 62
7
100
AcDbLine
 10
136.043850
 20
208.320208
 30
0.0
 11
137.541900
 21
205.621018
 31
0.0
  0
LINE
  5
16d
100
AcDbEntity
  8
Layer_2
 62
7
100
AcDbLine
 10
137.541900
 20
205.621018
 30
0.0
 11
142.186400
 21
205.621018
 31
0.0
  0
LINE
  5
16e
100
AcDbEntity
  8
Layer_2
 62
7
100
AcDbLine
 10
142.186400
 20
205.621018
 30
0.0
 11
143.684450
 21
208.320208
 31
0.0
  0
LINE
  5
16f
100
AcDbEntity
  8
Layer_2
 62
7
100
AcDbLine
 10
143.684450
 20
208.320208
 30
0.0
 11
136.043850
 21
208.320208
 31
0.0
  0
LINE
  5
170
100
AcDbEntity
  8
Layer_2
 62
7
100
AcDbLine
 10
138.291380
 20
203.968472
 30
0.0
 11
139.863890
 21
201.135051
 31
0.0
  0
LINE
  5
171
100
AcDbEntity
  8
Layer_2
 62
7
100
AcDbLine
 10
139.863890
 20
201.135051
 30
0.0
 11
141.436400
 21
203.968472
 31
0.0
  0
LINE
  5
172
100
AcDbEntity
  8
Layer_2
 62
7
100
AcDbLine
 10
141.436400
 20
203.968472
 30
0.0
 11
138.291380
 21
203.968472
 31
0.0
  0
LINE
  5
173
100
AcDbEntity
  8
Layer_2
 62
7
100
AcDbLine
 10
122.116650
 20
233.204411
 30
0.0
 11
128.564320
 21
221.896575
 31
0.0
  0
LINE
  5
174
100
AcDbEntity
  8
Layer_2
 62
7
100
AcDbLine
 10
128.564320
 20
221.896575
 30
0.0
 11
134.729840
 21
221.896575
 31
0.0
  0
LINE
  5
175
100
AcDbEntity
  8
Layer_2
 62
7
100
AcDbLine
 10
134.729840
 20
221.896575
 30
0.0
 11
128.540550
 21
233.122763
 31
0.0
  0
LINE
  5
176
100
AcDbEntity
  8
Layer_2
 62
7
100
AcDbLine
 10
128.540550
 20
233.122763
 30
0.0
 11
122.116650
 21
233.204411
 31
0.0
  0
LINE
  5
177
100
AcDbEntity
  8
Layer_2
 62
7
100
AcDbLine
 10
129.861920
 20
219.620229
 30
0.0
 11
132.687580
 21
214.664975
 31
0.0
  0
LINE
  5
178
100
AcDbEntity
  8
Layer_2
 62
7
100
AcDbLine
 10
132.687580
 20
214.664975
 30
0.0
 11
138.746640
 21
214.611235
 31
0.0
  0
LINE
  5
179
100
AcDbEntity
  8
Layer_2
 62
7
100
AcDbLine
 10
138.746640
 20
214.611235
 30
0.0
 11
135.985060
 21
219.620231
 31
0.0
  0
LINE
  5
17a
100
AcDbEntity
  8
Layer_2
 62
7
100
AcDbLine
 10
135.985060
 20
219.620231
 30
0.0
 11
129.861920
 21
219.620229
 31
0.0
  0
SPLINE
  5
17b
100
AcDbEntity
  8
Layer_2
 62
7
100
AcDbSpline
 70
8
 71
3
 72
8
 73
4
 74
0
 40
0
 40
0
 40
0
 40
0
 40
1
 40
1
 40
1
 40
1
 10
121.355460
 20
234.273972
 30
0.0
 10
121.355460
 20
234.154625
 30
0.0
 10
121.308049
 20
234.040165
 30
0.0
 10
121.223658
 20
233.955774
 30
0.0
  0
SPLINE
  5
17c
100
AcDbEntity
  8
Layer_2
 62
7
100
AcDbSpline
 70
8
 71
3
 72
8
 73
4
 74
0
 40
0
 40
0
 40
0
 40
0
 40
1
 40
1
 40
1
 40
1
 10
121.223658
 20
233.955774
 30
0.0
 10
121.139267
 20
233.871383
 30
0.0
 10
121.024807
 20
233.823972
 30
0.0
 10
120.905460
 20
233.823972
 30
0.0
  0
SPLINE
  5
17d
100
AcDbEntity
  8
Layer_2
 62
7
100
AcDbSpline
 70
8
 71
3
 72
8
 73
4
 74
0
 40
0
 40
0
 40
0
 40
0
 40
1
 40
1
 40
1
 40
1
 10
120.905460
 20
233.823972
 30
0.0
 10
120.786113
 20
233.823972
 30
0.0
 10
120.671653
 20
233.871383
 30
0.0
 10
120.587262
 20
233.955774
 30
0.0
  0
SPLINE
  5
17e
100
AcDbEntity
  8
Layer_2
 62
7
100
AcDbSpline
 70
8
 71
3
 72
8
 73
4
 74
0
 40
0
 40
0
 40
0
 40
0
 40
1
 40
1
 40
1
 40
1
 10
120.587262
 20
233.955774
 30
0.0
 10
120.502871
 20
234.040165
 30
0.0
 10
120.455460
 20
234.154625
 30
0.0
 10
120.455460
 20
234.273972
 30
0.0
  0
SPLINE
  5
17f
100
AcDbEntity
  8
Layer_2
 62
7
100
AcDbSpline
 70
8
 71
3
 72
8
 73
4
 74
0
 40
0
 40
0
 40
0
 40
0
 40
1
 40
1
 40
1
 40
1
 10
120.455460
 20
234.273972
 30
0.0
 10
120.455460
 20
234.393319
 30
0.0
 10
120.502871
 20
234.507779
 30
0.0
 10
120.587262
 20
234.592170
 30
0.0
  0
SPLINE
  5
180
100
AcDbEntity
  8
Layer_2
 62
7
100
AcDbSpline
 70
8
 71
3
 72
8
 73
4
 74
0
 40
0
 40
0
 40
0
 40
0
 40
1
 40
1
 40
1
 40
1
 10
120.587262
 20
234.592170
 30
0.0
 10
120.671653
 20
234.676561
 30
0.0
 10
120.786113
 20
234.723972
 30
0.0
 10
120.905460
 20
234.723972
 30
0.0
  0
SPLINE
  5
181
100
AcDbEntity
  8
Layer_2
 62
7
100
AcDbSpline
 70
8
 71
3
 72
8
 73
4
 74
0
 40
0
 40
0
 40
0
 40
0
 40
1
 40
1
 40
1
 40
1
 10
120.905460
 20
234.723972
 30
0.0
 10
121.024807
 20
234.723972
 30
0.0
 10
121.139267
 20
234.676561
 30
0.0
 10
121.223658
 20
234.592170
 30
0.0
  0
SPLINE
  5
182
100
AcDbEntity
  8
Layer_2
 62
7
100
AcDbSpline
 70
8
 71
3
 72
8
 73
4
 74
0
 40
0
 40
0
 40
0
 40
0
 40
1
 40
1
 40
1
 40
1
 10
121.223658
 20
234.592170
 30
0.0
 10
121.308049
 20
234.507779
 30
0.0
 10
121.355460
 20
234.393319
 30
0.0
 10
121.355460
 20
234.273972
 30
0.0
  0
LINE
  5
183
100
AcDbEntity
  8
Layer_2
 62
7
100
AcDbLine
 10
121.355460
 20
234.273972
 30
0.0
 11
121.355460
 21
234.273972
 31
0.0
  0
SPLINE
  5
184
100
AcDbEntity
  8
Layer_2
 62
7
100
AcDbSpline
 70
8
 71
3
 72
8
 73
4
 74
0
 40
0
 40
0
 40
0
 40
0
 40
1
 40
1
 40
1
 40
1
 10
159.592810
 20
234.434761
 30
0.0
 10
159.592810
 20
234.315414
 30
0.0
 10
159.545399
 20
234.200954
 30
0.0
 10
159.461008
 20
234.116563
 30
0.0
  0
SPLINE
  5
185
100
AcDbEntity
  8
Layer_2
 62
7
100
AcDbSpline
 70
8
 71
3
 72
8
 73
4
 74
0
 40
0
 40
0
 40
0
 40
0
 40
1
 40
1
 40
1
 40
1
 10
159.461008
 20
234.116563
 30
0.0
 10
159.376617
 20
234.032172
 30
0.0
 10
159.262157
 20
233.984761
 30
0.0
 10
159.142810
 20
233.984761
 30
0.0
  0
SPLINE
  5
186
100
AcDbEntity
  8
Layer_2
 62
7
100
AcDbSpline
 70
8
 71
3
 72
8
 73
4
 74
0
 40
0
 40
0
 40
0
 40
0
 40
1
 40
1
 40
1
 40
1
 10
159.142810
 20
233.984761
 30
0.0
 10
159.023463
 20
233.984761
 30
0.0
 10
158.909003
 20
234.032172
 30
0.0
 10
158.824612
 20
234.116563
 30
0.0
  0
SPLINE
  5
187
100
AcDbEntity
  8
Layer_2
 62
7
100
AcDbSpline
 70
8
 71
3
 72
8
 73
4
 74
0
 40
0
 40
0
 40
0
 40
0
 40
1
 40
1
 40
1
 40
1
 10
158.824612
 20
234.116563
 30
0.0
 10
158.740221
 20
234.200954
 30
0.0
 10
158.692810
 20
234.315414
 30
0.0
 10
158.692810
 20
234.434761
 30
0.0
  0
SPLINE
  5
188
100
AcDbEntity
  8
Layer_2
 62
7
100
AcDbSpline
 70
8
 71
3
 72
8
 73
4
 74
0
 40
0
 40
0
 40
0
 40
0
 40
1
 40
1
 40
1
 40
1
 10
158.692810
 20
234.434761
 30
0.0
 10
158.692810
 20
234.554108
 30
0.0
 10
158.740221
 20
234.668568
 30
0.0
 10
158.824612
 20
234.752959
 30
0.0
  0
SPLINE
  5
189
100
AcDbEntity
  8
Layer_2
 62
7
100
AcDbSpline
 70
8
 71
3
 72
8
 73
4
 74
0
 40
0
 40
0
 40
0
 40
0
 40
1
 40
1
 40
1
 40
1
 10
158.824612
 20
234.752959
 30
0.0
 10
158.909003
 20
234.837350
 30
0.0
 10
159.023463
 20
234.884761
 30
0.0
 10
159.142810
 20
234.884761
 30
0.0
  0
SPLINE
  5
18a
100
AcDbEntity
  8
Layer_2
 62
7
100
AcDbSpline
 70
8
 71
3
 72
8
 73
4
 74
0
 40
0
 40
0
 40
0
 40
0
 40
1
 40
1
 40
1
 40
1
 10
159.142810
 20
234.884761
 30
0.0
 10
159.262157
 20
234.884761
 30
0.0
 10
159.376617
 20
234.837350
 30
0.0
 10
159.461008
 20
234.752959
 30
0.0
  0
SPLINE
  5
18b
100
AcDbEntity
  8
Layer_2
 62
7
100
AcDbSpline
 70
8
 71
3
 72
8
 73
4
 74
0
 40
0
 40
0
 40
0
 40
0
 40
1
 40
1
 40
1
 40
1
 10
159.461008
 20
234.752959
 30
0.0
 10
159.545399
 20
234.668568
 30
0.0
 10
159.592810
 20
234.554108
 30
0.0
 10
159.592810
 20
234.434761
 30
0.0
  0
LINE
  5
18c
100
AcDbEntity
  8
Layer_2
 62
7
100
AcDbLine
 10
159.592810
 20
234.434761
 30
0.0
 11
159.592810
 21
234.434761
 31
0.0
  0
ENDSEC
  0
SECTION
  2
OBJECTS
  0
DICTIONARY
  5
C
330
0
100
AcDbDictionary
  3
ACAD_GROUP
350
D
  3
ACAD_MLINESTYLE
350
17
  0
DICTIONARY
  5
D
330
C
100
AcDbDictionary
  0
DICTIONARY
  5
1A
330
C
100
AcDbDictionary
  0
DICTIONARY
  5
17
330
C
100
AcDbDictionary
  3
STANDARD
350
18
  0
DICTIONARY
  5
19
330
C
100
AcDbDictionary
  0
ENDSEC
  0
EOF
