  0
SECTION
  2
HEADER
  9
$ACADVER
  1
AC1009
  9
$INSBASE
 10
0.0
 20
0.0
 30
0.0
  9
$EXTMIN
 10
0.0
 20
0.0
 30
0.0
  9
$EXTMAX
 10
0.0
 20
0.0
 30
0.0
  0
ENDSEC
  0
SECTION
  2
TABLES
  0
TABLE
  2
VPORT
 70
0
  0
ENDTAB
  0
TABLE
  2
LTYPE
 70
1
  0
LTYPE
  2
CONTINUOUS
 70
0
  3
Solid line
 72
65
 73
0
 40
0.0
  0
ENDTAB
  0
TABLE
  2
LAYER
 70
1
  0
LAYER
  2
0
 70
64
 62
7
  6
continuous
  0
ENDTAB
  0
TABLE
  2
STYLE
 70
1
  0
STYLE
  2
STANDARD
 70
0
 40
0
 41
1.0
 50
0.0
 71
0
 42
1
 3
ARIAL.TTF
 4

  0
ENDTAB
  0
TABLE
  2
VIEW
 70
0
  0
ENDTAB
  0
ENDSEC
  0
SECTION
  2
BLOCKS
  0
BLOCK
  8
0
  2
POCKET001_CS
 70
0
 10
0.0
 20
0.0
 30
0.0
  3
POCKET001_CS
  0
POLYLINE
  8
0
 62
0
 70
1
 66
1
 10
0.0
 20
0.0
 30
0.0
  0
VERTEX
  8
0
 10
-10.4
 20
554.458839
 30
6.0
  0
VERTEX
  8
0
 10
10.4
 20
554.458839
 30
6.0
  0
VERTEX
  8
0
 10
10.4
 20
384.458839
 30
6.0
  0
VERTEX
  8
0
 10
-10.4
 20
384.458839
 30
6.0
  0
SEQEND
  8
0
  0
POLYLINE
  8
0
 62
0
 70
1
 66
1
 10
0.0
 20
0.0
 30
0.0
  0
VERTEX
  8
0
 10
2.0
 20
534.458839
 30
6.0
 42
1.0
  0
VERTEX
  8
0
 10
-2.0
 20
534.458839
 30
6.0
  0
VERTEX
  8
0
 10
-2.0
 20
424.458839
 30
6.0
 42
1.0
  0
VERTEX
  8
0
 10
2.0
 20
424.458839
 30
6.0
  0
SEQEND
  8
0
  0
ENDBLK
  0
BLOCK
  8
0
  2
CUT_CS
 70
0
 10
0.0
 20
0.0
 30
0.0
  3
CUT_CS
  0
POLYLINE
  8
0
 62
0
 70
1
 66
1
 10
0.0
 20
0.0
 30
0.0
  0
VERTEX
  8
0
 10
-50.0
 20
370.0
 30
3.9
  0
VERTEX
  8
0
 10
50.0
 20
370.0
 30
3.9
  0
VERTEX
  8
0
 10
340.0
 20
250.0
 30
3.9
  0
VERTEX
  8
0
 10
340.0
 20
200.0
 30
3.9
  0
VERTEX
  8
0
 10
240.0
 20
200.0
 30
3.9
  0
VERTEX
  8
0
 10
50.0
 20
300.0
 30
3.9
  0
VERTEX
  8
0
 10
-50.0
 20
300.0
 30
3.9
  0
VERTEX
  8
0
 10
-240.0
 20
200.0
 30
3.9
  0
VERTEX
  8
0
 10
-340.0
 20
200.0
 30
3.9
  0
VERTEX
  8
0
 10
-340.0
 20
250.0
 30
3.9
  0
SEQEND
  8
0
  0
POLYLINE
  8
0
 62
0
 70
1
 66
1
 10
0.0
 20
0.0
 30
0.0
  0
VERTEX
  8
0
 10
-313.818785781
 20
205.054407318
 30
3.9
  0
VERTEX
  8
0
 10
-312.575249784
 20
205.326171455
 30
3.9
  0
VERTEX
  8
0
 10
-312.576629504
 20
205.863307744
 30
3.9
  0
VERTEX
  8
0
 10
-313.635524902
 20
205.592017886
 30
3.9
  0
VERTEX
  8
0
 10
-314.726899311
 20
206.529209225
 30
3.9
  0
VERTEX
  8
0
 10
-312.578354154
 20
206.534728105
 30
3.9
  0
VERTEX
  8
0
 10
-312.928484246
 20
208.063418344
 30
3.9
  0
VERTEX
  8
0
 10
-314.022885504
 20
208.545291972
 30
3.9
  0
VERTEX
  8
0
 10
-315.219733177
 20
208.068023919
 30
3.9
  0
VERTEX
  8
0
 10
-315.667642351
 20
206.820541124
 30
3.9
  0
VERTEX
  8
0
 10
-315.171237293
 20
205.52512709
 30
3.9
  0
SEQEND
  8
0
  0
POLYLINE
  8
0
 62
0
 70
1
 66
1
 10
0.0
 20
0.0
 30
0.0
  0
VERTEX
  8
0
 10
-291.236499766
 20
210.215241928
 30
3.9
  0
VERTEX
  8
0
 10
-291.223392426
 20
205.11244718
 30
3.9
  0
VERTEX
  8
0
 10
-292.163380932
 20
205.11003267
 30
3.9
  0
VERTEX
  8
0
 10
-292.176488272
 20
210.212827418
 30
3.9
  0
SEQEND
  8
0
  0
POLYLINE
  8
0
 62
0
 70
1
 66
1
 10
0.0
 20
0.0
 30
0.0
  0
VERTEX
  8
0
 10
-283.579893134
 20
209.294914432
 30
3.9
  0
VERTEX
  8
0
 10
-283.581617784
 20
209.966334793
 30
3.9
  0
VERTEX
  8
0
 10
-282.641629278
 20
209.968749303
 30
3.9
  0
VERTEX
  8
0
 10
-282.639904628
 20
209.297328942
 30
3.9
  0
SEQEND
  8
0
  0
POLYLINE
  8
0
 62
0
 70
1
 66
1
 10
0.0
 20
0.0
 30
0.0
  0
VERTEX
  8
0
 10
-260.475250213
 20
206.32445801
 30
3.9
  0
VERTEX
  8
0
 10
-260.479928326
 20
208.145685741
 30
3.9
  0
VERTEX
  8
0
 10
-260.882780543
 20
208.144650951
 30
3.9
  0
VERTEX
  8
0
 10
-260.884160263
 20
208.68178724
 30
3.9
  0
VERTEX
  8
0
 10
-260.481308046
 20
208.68282203
 30
3.9
  0
VERTEX
  8
0
 10
-260.482763219
 20
209.24933296
 30
3.9
  0
VERTEX
  8
0
 10
-259.54304419
 20
209.356656902
 30
3.9
  0
VERTEX
  8
0
 10
-259.54131954
 20
208.68523654
 30
3.9
  0
VERTEX
  8
0
 10
-258.735615106
 20
208.68730612
 30
3.9
  0
VERTEX
  8
0
 10
-258.734235386
 20
208.150169831
 30
3.9
  0
VERTEX
  8
0
 10
-259.53993982
 20
208.148100251
 30
3.9
  0
VERTEX
  8
0
 10
-259.013380299
 20
205.732323553
 30
3.9
  0
VERTEX
  8
0
 10
-259.013380299
 20
205.732323553
 30
3.9
  0
VERTEX
  8
0
 10
-258.728026646
 20
205.733056529
 30
3.9
  0
VERTEX
  8
0
 10
-258.726646926
 20
205.19592024
 30
3.9
  0
VERTEX
  8
0
 10
-260.475250213
 20
206.32445801
 30
3.9
  0
SEQEND
  8
0
  0
POLYLINE
  8
0
 62
0
 70
1
 66
1
 10
0.0
 20
0.0
 30
0.0
  0
VERTEX
  8
0
 10
-317.556177939
 20
210.147635648
 30
3.9
  0
VERTEX
  8
0
 10
-316.616189433
 20
210.150050158
 30
3.9
  0
VERTEX
  8
0
 10
-316.603082093
 20
205.04725541
 30
3.9
  0
VERTEX
  8
0
 10
-317.543070599
 20
205.0448409
 30
3.9
  0
SEQEND
  8
0
  0
POLYLINE
  8
0
 62
0
 70
1
 66
1
 10
0.0
 20
0.0
 30
0.0
  0
VERTEX
  8
0
 10
-249.742721421
 20
210.321825298
 30
3.9
  0
VERTEX
  8
0
 10
-248.802732915
 20
210.324239808
 30
3.9
  0
VERTEX
  8
0
 10
-248.789625575
 20
205.22144506
 30
3.9
  0
VERTEX
  8
0
 10
-249.729614081
 20
205.21903055
 30
3.9
  0
SEQEND
  8
0
  0
POLYLINE
  8
0
 62
0
 70
1
 66
1
 10
0.0
 20
0.0
 30
0.0
  0
VERTEX
  8
0
 10
-273.50686306
 20
208.64936382
 30
3.9
  0
VERTEX
  8
0
 10
-272.566874554
 20
208.65177833
 30
3.9
  0
VERTEX
  8
0
 10
-272.557906374
 20
205.16039245
 30
3.9
  0
VERTEX
  8
0
 10
-273.49789488
 20
205.15797794
 30
3.9
  0
SEQEND
  8
0
  0
POLYLINE
  8
0
 62
0
 70
1
 66
1
 10
0.0
 20
0.0
 30
0.0
  0
VERTEX
  8
0
 10
-330.446759021
 20
209.845954223
 30
3.9
  0
VERTEX
  8
0
 10
-329.506770515
 20
209.848368733
 30
3.9
  0
VERTEX
  8
0
 10
-329.505045865
 20
209.176948372
 30
3.9
  0
VERTEX
  8
0
 10
-330.445034371
 20
209.174533862
 30
3.9
  0
SEQEND
  8
0
  0
POLYLINE
  8
0
 62
0
 70
1
 66
1
 10
0.0
 20
0.0
 30
0.0
  0
VERTEX
  8
0
 10
-279.136482263
 20
205.437242678
 30
3.9
  0
VERTEX
  8
0
 10
-278.737690024
 20
206.20201274
 30
3.9
  0
VERTEX
  8
0
 10
-278.976294408
 20
206.788896539
 30
3.9
  0
VERTEX
  8
0
 10
-279.816712441
 20
207.231556716
 30
3.9
  0
VERTEX
  8
0
 10
-280.085533893
 20
207.329481722
 30
3.9
  0
VERTEX
  8
0
 10
-280.487322712
 20
207.731304538
 30
3.9
  0
VERTEX
  8
0
 10
-279.921744171
 20
208.095746344
 30
3.9
  0
VERTEX
  8
0
 10
-279.010785375
 20
207.963801329
 30
3.9
  0
VERTEX
  8
0
 10
-279.012165095
 20
208.500937618
 30
3.9
  0
VERTEX
  8
0
 10
-280.013346002
 20
208.632650884
 30
3.9
  0
VERTEX
  8
0
 10
-281.05546667
 20
208.365600519
 30
3.9
  0
VERTEX
  8
0
 10
-281.42705252
 20
207.628176974
 30
3.9
  0
VERTEX
  8
0
 10
-281.207369561
 20
207.055931989
 30
3.9
  0
VERTEX
  8
0
 10
-280.47613279
 20
206.642366197
 30
3.9
  0
VERTEX
  8
0
 10
-280.163217039
 20
206.53196524
 30
3.9
  0
VERTEX
  8
0
 10
-279.677371327
 20
206.080001478
 30
3.9
  0
VERTEX
  8
0
 10
-280.244951045
 20
205.677786886
 30
3.9
  0
VERTEX
  8
0
 10
-281.422724727
 20
205.943331504
 30
3.9
  0
VERTEX
  8
0
 10
-281.421102478
 20
205.311776726
 30
3.9
  0
VERTEX
  8
0
 10
-280.176429289
 20
205.140823062
 30
3.9
  0
SEQEND
  8
0
  0
POLYLINE
  8
0
 62
0
 70
1
 66
1
 10
0.0
 20
0.0
 30
0.0
  0
VERTEX
  8
0
 10
-301.813525866
 20
208.576653654
 30
3.9
  0
VERTEX
  8
0
 10
-303.047645098
 20
207.906255236
 30
3.9
  0
VERTEX
  8
0
 10
-303.053498129
 20
210.184888088
 30
3.9
  0
VERTEX
  8
0
 10
-303.993486636
 20
210.182473578
 30
3.9
  0
VERTEX
  8
0
 10
-303.980379296
 20
205.07967883
 30
3.9
  0
VERTEX
  8
0
 10
-303.040390789
 20
205.08209334
 30
3.9
  0
VERTEX
  8
0
 10
-303.046028239
 20
207.276798647
 30
3.9
  0
VERTEX
  8
0
 10
-302.126529511
 20
207.904424863
 30
3.9
  0
VERTEX
  8
0
 10
-301.703273748
 20
207.313818965
 30
3.9
  0
VERTEX
  8
0
 10
-301.697550066
 20
205.08554264
 30
3.9
  0
VERTEX
  8
0
 10
-300.75756156
 20
205.08795715
 30
3.9
  0
VERTEX
  8
0
 10
-300.763759521
 20
207.500874074
 30
3.9
  0
VERTEX
  8
0
 10
-301.046943261
 20
208.289070802
 30
3.9
  0
SEQEND
  8
0
  0
POLYLINE
  8
0
 62
0
 70
1
 66
1
 10
0.0
 20
0.0
 30
0.0
  0
VERTEX
  8
0
 10
-10.1
 20
320.0
 30
3.9
  0
VERTEX
  8
0
 10
-13.95
 20
320.0
 30
3.9
  0
VERTEX
  8
0
 10
-13.95
 20
310.25
 30
3.9
  0
VERTEX
  8
0
 10
-10.1
 20
310.25
 30
3.9
  0
SEQEND
  8
0
  0
POLYLINE
  8
0
 62
0
 70
1
 66
1
 10
0.0
 20
0.0
 30
0.0
  0
VERTEX
  8
0
 10
10.1
 20
350.0
 30
3.9
  0
VERTEX
  8
0
 10
13.95
 20
350.0
 30
3.9
  0
VERTEX
  8
0
 10
13.95
 20
359.75
 30
3.9
  0
VERTEX
  8
0
 10
10.1
 20
359.75
 30
3.9
  0
SEQEND
  8
0
  0
POLYLINE
  8
0
 62
0
 70
1
 66
1
 10
0.0
 20
0.0
 30
0.0
  0
VERTEX
  8
0
 10
13.95
 20
310.25
 30
3.9
  0
VERTEX
  8
0
 10
13.95
 20
320.0
 30
3.9
  0
VERTEX
  8
0
 10
10.1
 20
320.0
 30
3.9
  0
VERTEX
  8
0
 10
10.1
 20
310.25
 30
3.9
  0
SEQEND
  8
0
  0
POLYLINE
  8
0
 62
0
 70
1
 66
1
 10
0.0
 20
0.0
 30
0.0
  0
VERTEX
  8
0
 10
-270.414998667
 20
207.360616637
 30
3.9
  0
VERTEX
  8
0
 10
-270.409361217
 20
205.16591133
 30
3.9
  0
VERTEX
  8
0
 10
-271.349349723
 20
205.16349682
 30
3.9
  0
VERTEX
  8
0
 10
-271.358317903
 20
208.6548827
 30
3.9
  0
VERTEX
  8
0
 10
-270.418329397
 20
208.65729721
 30
3.9
  0
VERTEX
  8
0
 10
-269.182496294
 20
208.660471644
 30
3.9
  0
VERTEX
  8
0
 10
-268.415913689
 20
208.372888792
 30
3.9
  0
VERTEX
  8
0
 10
-268.132729949
 20
207.584692064
 30
3.9
  0
VERTEX
  8
0
 10
-268.132729949
 20
207.584692064
 30
3.9
  0
VERTEX
  8
0
 10
-268.126531988
 20
205.17177514
 30
3.9
  0
VERTEX
  8
0
 10
-269.066520494
 20
205.16936063
 30
3.9
  0
VERTEX
  8
0
 10
-269.495499939
 20
207.988242853
 30
3.9
  0
VERTEX
  8
0
 10
-270.414998667
 20
207.360616637
 30
3.9
  0
SEQEND
  8
0
  0
CIRCLE
  8
0
 62
0
 10
0.0
 20
350.0
 30
3.9
 40
2.0
  0
POLYLINE
  8
0
 62
0
 70
1
 66
1
 10
0.0
 20
0.0
 30
0.0
  0
VERTEX
  8
0
 10
-293.105439018
 20
205.913322594
 30
3.9
  0
VERTEX
  8
0
 10
-294.347595296
 20
205.104422168
 30
3.9
  0
VERTEX
  8
0
 10
-295.700046807
 20
205.57514194
 30
3.9
  0
VERTEX
  8
0
 10
-296.196451866
 20
206.870555974
 30
3.9
  0
VERTEX
  8
0
 10
-295.748542692
 20
208.118038769
 30
3.9
  0
VERTEX
  8
0
 10
-294.551695018
 20
208.595306822
 30
3.9
  0
VERTEX
  8
0
 10
-293.45729376
 20
208.113433194
 30
3.9
  0
VERTEX
  8
0
 10
-293.107163668
 20
206.584742956
 30
3.9
  0
VERTEX
  8
0
 10
-293.107163668
 20
206.584742956
 30
3.9
  0
VERTEX
  8
0
 10
-294.164334416
 20
205.642032736
 30
3.9
  0
VERTEX
  8
0
 10
-293.105439018
 20
205.913322594
 30
3.9
  0
SEQEND
  8
0
  0
POLYLINE
  8
0
 62
0
 70
1
 66
1
 10
0.0
 20
0.0
 30
0.0
  0
VERTEX
  8
0
 10
-10.1
 20
350.0
 30
3.9
  0
VERTEX
  8
0
 10
-10.1
 20
359.75
 30
3.9
  0
VERTEX
  8
0
 10
-13.95
 20
359.75
 30
3.9
  0
VERTEX
  8
0
 10
-13.95
 20
350.0
 30
3.9
  0
SEQEND
  8
0
  0
POLYLINE
  8
0
 62
0
 70
1
 66
1
 10
0.0
 20
0.0
 30
0.0
  0
VERTEX
  8
0
 10
-283.569200304
 20
205.13210819
 30
3.9
  0
VERTEX
  8
0
 10
-283.578168484
 20
208.62349407
 30
3.9
  0
VERTEX
  8
0
 10
-282.638179978
 20
208.62590858
 30
3.9
  0
VERTEX
  8
0
 10
-282.629211798
 20
205.1345227
 30
3.9
  0
SEQEND
  8
0
  0
POLYLINE
  8
0
 62
0
 70
1
 66
1
 10
0.0
 20
0.0
 30
0.0
  0
VERTEX
  8
0
 10
-274.57836542
 20
207.568135424
 30
3.9
  0
VERTEX
  8
0
 10
-274.572167459
 20
205.1552185
 30
3.9
  0
VERTEX
  8
0
 10
-275.512155965
 20
205.15280399
 30
3.9
  0
VERTEX
  8
0
 10
-275.94113541
 20
207.971686213
 30
3.9
  0
VERTEX
  8
0
 10
-276.860634138
 20
207.344059997
 30
3.9
  0
VERTEX
  8
0
 10
-276.860634138
 20
207.344059997
 30
3.9
  0
VERTEX
  8
0
 10
-276.854996688
 20
205.14935469
 30
3.9
  0
VERTEX
  8
0
 10
-277.794985194
 20
205.14694018
 30
3.9
  0
VERTEX
  8
0
 10
-277.808092534
 20
210.249734928
 30
3.9
  0
VERTEX
  8
0
 10
-276.868104028
 20
210.252149438
 30
3.9
  0
VERTEX
  8
0
 10
-275.628131765
 20
208.643915004
 30
3.9
  0
VERTEX
  8
0
 10
-274.86154916
 20
208.356332152
 30
3.9
  0
VERTEX
  8
0
 10
-274.57836542
 20
207.568135424
 30
3.9
  0
SEQEND
  8
0
  0
CIRCLE
  8
0
 62
0
 10
0.0
 20
315.0
 30
3.9
 40
2.0
  0
POLYLINE
  8
0
 62
0
 70
1
 66
1
 10
0.0
 20
0.0
 30
0.0
  0
VERTEX
  8
0
 10
-250.539818773
 20
206.968948476
 30
3.9
  0
VERTEX
  8
0
 10
-251.029864591
 20
208.239200415
 30
3.9
  0
VERTEX
  8
0
 10
-252.35921986
 20
208.703684906
 30
3.9
  0
VERTEX
  8
0
 10
-253.68197502
 20
208.232388047
 30
3.9
  0
VERTEX
  8
0
 10
-254.165472557
 20
206.9533408
 30
3.9
  0
VERTEX
  8
0
 10
-253.679617727
 20
205.680979894
 30
3.9
  0
VERTEX
  8
0
 10
-252.371233566
 20
205.21224513
 30
3.9
  0
VERTEX
  8
0
 10
-251.025392941
 20
205.681503085
 30
3.9
  0
SEQEND
  8
0
  0
POLYLINE
  8
0
 62
0
 70
1
 66
1
 10
0.0
 20
0.0
 30
0.0
  0
VERTEX
  8
0
 10
-273.50858771
 20
209.320784182
 30
3.9
  0
VERTEX
  8
0
 10
-273.51031236
 20
209.992204543
 30
3.9
  0
VERTEX
  8
0
 10
-272.570323854
 20
209.994619053
 30
3.9
  0
VERTEX
  8
0
 10
-272.568599204
 20
209.323198692
 30
3.9
  0
SEQEND
  8
0
  0
POLYLINE
  8
0
 62
0
 70
1
 66
1
 10
0.0
 20
0.0
 30
0.0
  0
VERTEX
  8
0
 10
-264.769996081
 20
205.400708196
 30
3.9
  0
VERTEX
  8
0
 10
-265.931826681
 20
205.17741259
 30
3.9
  0
VERTEX
  8
0
 10
-266.948519506
 20
205.630110989
 30
3.9
  0
VERTEX
  8
0
 10
-267.325166127
 20
206.862886567
 30
3.9
  0
VERTEX
  8
0
 10
-266.908891468
 20
208.173234178
 30
3.9
  0
VERTEX
  8
0
 10
-265.791823468
 20
208.669181127
 30
3.9
  0
VERTEX
  8
0
 10
-264.777439023
 20
208.298306694
 30
3.9
  0
VERTEX
  8
0
 10
-264.777439023
 20
208.298306694
 30
3.9
  0
VERTEX
  8
0
 10
-264.679783494
 20
208.672037578
 30
3.9
  0
VERTEX
  8
0
 10
-263.838409854
 20
208.67419878
 30
3.9
  0
VERTEX
  8
0
 10
-263.929572659
 20
204.955949831
 30
3.9
  0
VERTEX
  8
0
 10
-264.318332065
 20
204.36955275
 30
3.9
  0
VERTEX
  8
0
 10
-265.687430618
 20
203.969475735
 30
3.9
  0
VERTEX
  8
0
 10
-267.049844899
 20
204.234546074
 30
3.9
  0
VERTEX
  8
0
 10
-267.049844899
 20
204.234546074
 30
3.9
  0
VERTEX
  8
0
 10
-265.804210713
 20
204.5063156
 30
3.9
  0
VERTEX
  8
0
 10
-265.013732553
 20
204.718166316
 30
3.9
  0
VERTEX
  8
0
 10
-264.769996081
 20
205.400708196
 30
3.9
  0
SEQEND
  8
0
  0
POLYLINE
  8
0
 62
0
 70
1
 66
1
 10
0.0
 20
0.0
 30
0.0
  0
VERTEX
  8
0
 10
-305.105583827
 20
208.56819748
 30
3.9
  0
VERTEX
  8
0
 10
-304.526483765
 20
208.56968499
 30
3.9
  0
VERTEX
  8
0
 10
-305.503664241
 20
205.07576603
 30
3.9
  0
VERTEX
  8
0
 10
-306.424769049
 20
205.073400026
 30
3.9
  0
VERTEX
  8
0
 10
-307.142145165
 20
207.442526127
 30
3.9
  0
VERTEX
  8
0
 10
-307.98582139
 20
205.069390215
 30
3.9
  0
VERTEX
  8
0
 10
-308.938399028
 20
205.066943368
 30
3.9
  0
VERTEX
  8
0
 10
-309.763562585
 20
208.55623272
 30
3.9
  0
VERTEX
  8
0
 10
-308.794199438
 20
208.558722684
 30
3.9
  0
VERTEX
  8
0
 10
-308.212990002
 20
206.105318718
 30
3.9
  0
VERTEX
  8
0
 10
-307.338056529
 20
208.562463018
 30
3.9
  0
VERTEX
  8
0
 10
-306.542843038
 20
208.564505651
 30
3.9
  0
VERTEX
  8
0
 10
-305.795844363
 20
206.098938326
 30
3.9
  0
SEQEND
  8
0
  0
POLYLINE
  8
0
 62
0
 70
1
 66
1
 10
0.0
 20
0.0
 30
0.0
  0
VERTEX
  8
0
 10
-296.867117693
 20
206.575084916
 30
3.9
  0
VERTEX
  8
0
 10
-297.924288441
 20
205.632374696
 30
3.9
  0
VERTEX
  8
0
 10
-296.865393043
 20
205.903664554
 30
3.9
  0
VERTEX
  8
0
 10
-296.865393043
 20
205.903664554
 30
3.9
  0
VERTEX
  8
0
 10
-298.10754932
 20
205.094764128
 30
3.9
  0
VERTEX
  8
0
 10
-299.460000832
 20
205.5654839
 30
3.9
  0
VERTEX
  8
0
 10
-299.95640589
 20
206.860897934
 30
3.9
  0
VERTEX
  8
0
 10
-299.508496717
 20
208.108380729
 30
3.9
  0
VERTEX
  8
0
 10
-298.311649043
 20
208.585648782
 30
3.9
  0
VERTEX
  8
0
 10
-297.217247785
 20
208.103775154
 30
3.9
  0
VERTEX
  8
0
 10
-296.867117693
 20
206.575084916
 30
3.9
  0
SEQEND
  8
0
  0
POLYLINE
  8
0
 62
0
 70
1
 66
1
 10
0.0
 20
0.0
 30
0.0
  0
VERTEX
  8
0
 10
-285.596568729
 20
210.229728988
 30
3.9
  0
VERTEX
  8
0
 10
-284.656580222
 20
210.232143498
 30
3.9
  0
VERTEX
  8
0
 10
-284.643472882
 20
205.12934875
 30
3.9
  0
VERTEX
  8
0
 10
-285.583461389
 20
205.12693424
 30
3.9
  0
VERTEX
  8
0
 10
-286.754250644
 20
205.123926882
 30
3.9
  0
VERTEX
  8
0
 10
-287.768807554
 20
205.56194335
 30
3.9
  0
VERTEX
  8
0
 10
-288.139111103
 20
206.775851399
 30
3.9
  0
VERTEX
  8
0
 10
-287.727102885
 20
208.113464684
 30
3.9
  0
VERTEX
  8
0
 10
-286.612149243
 20
208.615700808
 30
3.9
  0
VERTEX
  8
0
 10
-285.591502569
 20
208.257431676
 30
3.9
  0
VERTEX
  8
0
 10
-285.591502569
 20
208.257431676
 30
3.9
  0
SEQEND
  8
0
  0
POLYLINE
  8
0
 62
0
 70
1
 66
1
 10
0.0
 20
0.0
 30
0.0
  0
VERTEX
  8
0
 10
-256.534039808
 20
205.2015523
 30
3.9
  0
VERTEX
  8
0
 10
-255.188199183
 20
205.670810255
 30
3.9
  0
VERTEX
  8
0
 10
-254.702625015
 20
206.958255646
 30
3.9
  0
VERTEX
  8
0
 10
-255.192670833
 20
208.228507585
 30
3.9
  0
VERTEX
  8
0
 10
-256.522026101
 20
208.692992076
 30
3.9
  0
VERTEX
  8
0
 10
-257.844781261
 20
208.221695217
 30
3.9
  0
VERTEX
  8
0
 10
-258.328278799
 20
206.94264797
 30
3.9
  0
VERTEX
  8
0
 10
-257.842423968
 20
205.670287064
 30
3.9
  0
SEQEND
  8
0
  0
POLYLINE
  8
0
 62
0
 70
1
 66
1
 10
0.0
 20
0.0
 30
0.0
  0
VERTEX
  8
0
 10
-332.799000127
 20
205.005653618
 30
3.9
  0
VERTEX
  8
0
 10
-334.462863711
 20
205.00137972
 30
3.9
  0
VERTEX
  8
0
 10
-334.475281191
 20
209.835606323
 30
3.9
  0
VERTEX
  8
0
 10
-331.879110437
 20
209.565312274
 30
3.9
  0
VERTEX
  8
0
 10
-331.518255991
 20
208.762627639
 30
3.9
  0
VERTEX
  8
0
 10
-332.63130174
 20
207.517632739
 30
3.9
  0
VERTEX
  8
0
 10
-331.377385912
 20
206.198986063
 30
3.9
  0
VERTEX
  8
0
 10
-331.744398118
 20
205.314700092
 30
3.9
  0
VERTEX
  8
0
 10
-332.799000127
 20
205.005653618
 30
3.9
  0
SEQEND
  8
0
  0
POLYLINE
  8
0
 62
0
 70
1
 66
1
 10
0.0
 20
0.0
 30
0.0
  0
VERTEX
  8
0
 10
-330.443309721
 20
208.5031135
 30
3.9
  0
VERTEX
  8
0
 10
-329.503321215
 20
208.50552801
 30
3.9
  0
VERTEX
  8
0
 10
-329.494353035
 20
205.01414213
 30
3.9
  0
VERTEX
  8
0
 10
-330.434341541
 20
205.01172762
 30
3.9
  0
SEQEND
  8
0
  0
POLYLINE
  8
0
 62
0
 70
1
 66
1
 10
0.0
 20
0.0
 30
0.0
  0
VERTEX
  8
0
 10
-328.558854008
 20
206.764347769
 30
3.9
  0
VERTEX
  8
0
 10
-328.060399267
 20
205.487822822
 30
3.9
  0
VERTEX
  8
0
 10
-326.707958535
 20
205.021299428
 30
3.9
  0
VERTEX
  8
0
 10
-325.600459868
 20
205.158429172
 30
3.9
  0
VERTEX
  8
0
 10
-325.601839588
 20
205.695565462
 30
3.9
  0
VERTEX
  8
0
 10
-326.528894032
 20
205.558899216
 30
3.9
  0
VERTEX
  8
0
 10
-327.320768081
 20
205.890479355
 30
3.9
  0
VERTEX
  8
0
 10
-327.61889245
 20
206.777253222
 30
3.9
  0
VERTEX
  8
0
 10
-327.344162817
 20
207.646614733
 30
3.9
  0
VERTEX
  8
0
 10
-326.608539375
 20
207.975823885
 30
3.9
  0
VERTEX
  8
0
 10
-325.607358468
 20
207.844110619
 30
3.9
  0
VERTEX
  8
0
 10
-325.608738188
 20
208.381246908
 30
3.9
  0
VERTEX
  8
0
 10
-326.622508226
 20
208.512927837
 30
3.9
  0
VERTEX
  8
0
 10
-328.048085408
 20
208.045563268
 30
3.9
  0
SEQEND
  8
0
  0
POLYLINE
  8
0
 62
0
 70
1
 66
1
 10
0.0
 20
0.0
 30
0.0
  0
VERTEX
  8
0
 10
-320.796745503
 20
208.064189488
 30
3.9
  0
VERTEX
  8
0
 10
-321.307514104
 20
206.782973989
 30
3.9
  0
VERTEX
  8
0
 10
-320.809059362
 20
205.506449042
 30
3.9
  0
VERTEX
  8
0
 10
-319.45661863
 20
205.039925648
 30
3.9
  0
VERTEX
  8
0
 10
-318.349119963
 20
205.177055392
 30
3.9
  0
VERTEX
  8
0
 10
-318.350499683
 20
205.714191682
 30
3.9
  0
VERTEX
  8
0
 10
-319.277554128
 20
205.577525436
 30
3.9
  0
VERTEX
  8
0
 10
-320.069428176
 20
205.909105575
 30
3.9
  0
VERTEX
  8
0
 10
-320.367552545
 20
206.795879442
 30
3.9
  0
VERTEX
  8
0
 10
-320.092822912
 20
207.665240953
 30
3.9
  0
VERTEX
  8
0
 10
-319.35719947
 20
207.994450105
 30
3.9
  0
VERTEX
  8
0
 10
-318.356018563
 20
207.862736839
 30
3.9
  0
VERTEX
  8
0
 10
-318.357398283
 20
208.399873128
 30
3.9
  0
VERTEX
  8
0
 10
-319.371168321
 20
208.531554057
 30
3.9
  0
SEQEND
  8
0
  0
POLYLINE
  8
0
 62
0
 70
1
 66
1
 10
0.0
 20
0.0
 30
0.0
  0
VERTEX
  8
0
 10
-323.965717617
 20
205.064012752
 30
3.9
  0
VERTEX
  8
0
 10
-325.206230901
 20
208.51656577
 30
3.9
  0
VERTEX
  8
0
 10
-324.215885868
 20
208.519109629
 30
3.9
  0
VERTEX
  8
0
 10
-323.387462051
 20
206.211116644
 30
3.9
  0
VERTEX
  8
0
 10
-322.354792553
 20
208.523890143
 30
3.9
  0
VERTEX
  8
0
 10
-321.714845021
 20
208.52553395
 30
3.9
  0
VERTEX
  8
0
 10
-323.813550233
 20
203.820169551
 30
3.9
  0
VERTEX
  8
0
 10
-324.791306134
 20
203.817658029
 30
3.9
  0
SEQEND
  8
0
  0
POLYLINE
  8
0
 62
0
 70
1
 66
1
 10
0.0
 20
0.0
 30
0.0
  0
VERTEX
  8
0
 10
-314.728279031
 20
207.066345515
 30
3.9
  0
VERTEX
  8
0
 10
-314.078156877
 20
208.008010165
 30
3.9
  0
VERTEX
  8
0
 10
-314.728279031
 20
207.066345515
 30
3.9
  0
SEQEND
  8
0
  0
POLYLINE
  8
0
 62
0
 70
1
 66
1
 10
0.0
 20
0.0
 30
0.0
  0
VERTEX
  8
0
 10
-295.257088545
 20
207.116360365
 30
3.9
  0
VERTEX
  8
0
 10
-294.606966391
 20
208.058025015
 30
3.9
  0
VERTEX
  8
0
 10
-295.257088545
 20
207.116360365
 30
3.9
  0
SEQEND
  8
0
  0
POLYLINE
  8
0
 62
0
 70
1
 66
1
 10
0.0
 20
0.0
 30
0.0
  0
VERTEX
  8
0
 10
-251.479807279
 20
206.966533966
 30
3.9
  0
VERTEX
  8
0
 10
-252.357925965
 20
205.749419146
 30
3.9
  0
VERTEX
  8
0
 10
-252.992414309
 20
206.073010745
 30
3.9
  0
VERTEX
  8
0
 10
-253.225484051
 20
206.95575531
 30
3.9
  0
VERTEX
  8
0
 10
-252.994859495
 20
207.84178915
 30
3.9
  0
VERTEX
  8
0
 10
-252.35784014
 20
208.166548617
 30
3.9
  0
VERTEX
  8
0
 10
-251.714964431
 20
207.845076764
 30
3.9
  0
SEQEND
  8
0
  0
POLYLINE
  8
0
 62
0
 70
1
 66
1
 10
0.0
 20
0.0
 30
0.0
  0
VERTEX
  8
0
 10
-264.772545329
 20
206.393151418
 30
3.9
  0
VERTEX
  8
0
 10
-265.549152056
 20
208.132664634
 30
3.9
  0
VERTEX
  8
0
 10
-266.1609662
 20
207.797478898
 30
3.9
  0
VERTEX
  8
0
 10
-266.385269242
 20
206.900970284
 30
3.9
  0
VERTEX
  8
0
 10
-265.669179563
 20
205.849512032
 30
3.9
  0
VERTEX
  8
0
 10
-264.772545329
 20
206.393151418
 30
3.9
  0
SEQEND
  8
0
  0
POLYLINE
  8
0
 62
0
 70
1
 66
1
 10
0.0
 20
0.0
 30
0.0
  0
VERTEX
  8
0
 10
-299.01704257
 20
207.106702325
 30
3.9
  0
VERTEX
  8
0
 10
-298.366920416
 20
208.048366975
 30
3.9
  0
VERTEX
  8
0
 10
-299.01704257
 20
207.106702325
 30
3.9
  0
SEQEND
  8
0
  0
POLYLINE
  8
0
 62
0
 70
1
 66
1
 10
0.0
 20
0.0
 30
0.0
  0
VERTEX
  8
0
 10
-286.379968773
 20
208.079157367
 30
3.9
  0
VERTEX
  8
0
 10
-285.590079733
 20
207.703509878
 30
3.9
  0
VERTEX
  8
0
 10
-285.58654959
 20
206.329196325
 30
3.9
  0
VERTEX
  8
0
 10
-286.453836131
 20
205.796123336
 30
3.9
  0
VERTEX
  8
0
 10
-287.199322009
 20
206.855898888
 30
3.9
  0
VERTEX
  8
0
 10
-286.979199176
 20
207.746102158
 30
3.9
  0
SEQEND
  8
0
  0
POLYLINE
  8
0
 62
0
 70
1
 66
1
 10
0.0
 20
0.0
 30
0.0
  0
VERTEX
  8
0
 10
-255.642613521
 20
206.955841136
 30
3.9
  0
VERTEX
  8
0
 10
-256.520732207
 20
205.738726316
 30
3.9
  0
VERTEX
  8
0
 10
-257.155220551
 20
206.062317915
 30
3.9
  0
VERTEX
  8
0
 10
-257.388290293
 20
206.94506248
 30
3.9
  0
VERTEX
  8
0
 10
-257.157665737
 20
207.83109632
 30
3.9
  0
VERTEX
  8
0
 10
-256.520646381
 20
208.155855787
 30
3.9
  0
VERTEX
  8
0
 10
-255.877770673
 20
207.834383934
 30
3.9
  0
SEQEND
  8
0
  0
POLYLINE
  8
0
 62
0
 70
1
 66
1
 10
0.0
 20
0.0
 30
0.0
  0
VERTEX
  8
0
 10
-333.528394085
 20
207.152339387
 30
3.9
  0
VERTEX
  8
0
 10
-333.524599855
 20
205.675214592
 30
3.9
  0
VERTEX
  8
0
 10
-332.534599751
 20
205.812042523
 30
3.9
  0
VERTEX
  8
0
 10
-332.317649284
 20
206.303579173
 30
3.9
  0
VERTEX
  8
0
 10
-332.612958656
 20
206.911299342
 30
3.9
  0
VERTEX
  8
0
 10
-333.350048051
 20
207.152797497
 30
3.9
  0
VERTEX
  8
0
 10
-333.350048051
 20
207.152797497
 30
3.9
  0
SEQEND
  8
0
  0
POLYLINE
  8
0
 62
0
 70
1
 66
1
 10
0.0
 20
0.0
 30
0.0
  0
VERTEX
  8
0
 10
-333.533568035
 20
209.166600472
 30
3.9
  0
VERTEX
  8
0
 10
-333.530118735
 20
207.823759749
 30
3.9
  0
VERTEX
  8
0
 10
-332.687180469
 20
208.033647015
 30
3.9
  0
VERTEX
  8
0
 10
-332.457834893
 20
208.600750793
 30
3.9
  0
VERTEX
  8
0
 10
-332.645727041
 20
209.049283492
 30
3.9
  0
VERTEX
  8
0
 10
-333.346829246
 20
209.16708014
 30
3.9
  0
VERTEX
  8
0
 10
-333.346829246
 20
209.16708014
 30
3.9
  0
SEQEND
  8
0
  0
ENDBLK
  0
ENDSEC
  0
SECTION
  2
ENTITIES
  0
INSERT
  2
POCKET001_CS
  8
0
 10
0.0
 20
0.0
 30
0.0
  0
INSERT
  2
CUT_CS
  8
0
 10
0.0
 20
0.0
 30
0.0
  0
POLYLINE
  8
0
 62
0
 70
1
 66
1
 10
0.0
 20
0.0
 30
0.0
  0
VERTEX
  8
0
 10
63.2
 20
269.043808
 30
12.0
  0
VERTEX
  8
0
 10
63.2
 20
219.043808
 30
12.0
  0
VERTEX
  8
0
 10
53.0
 20
219.043808
 30
12.0
  0
VERTEX
  8
0
 10
53.0
 20
229.043808
 30
12.0
  0
VERTEX
  8
0
 10
57.2
 20
229.043808
 30
12.0
  0
VERTEX
  8
0
 10
57.2
 20
259.043808
 30
12.0
  0
VERTEX
  8
0
 10
53.0
 20
259.043808
 30
12.0
  0
VERTEX
  8
0
 10
53.0
 20
269.043808
 30
12.0
  0
SEQEND
  8
0
  0
ENDSEC
  0
EOF
