  0
SECTION
  2
HEADER
  9
$ACADVER
  1
AC1009
  9
$INSBASE
 10
0.0
 20
0.0
 30
0.0
  9
$EXTMIN
 10
0.0
 20
0.0
 30
0.0
  9
$EXTMAX
 10
0.0
 20
0.0
 30
0.0
  0
ENDSEC
  0
SECTION
  2
TABLES
  0
TABLE
  2
VPORT
 70
0
  0
ENDTAB
  0
TABLE
  2
LTYPE
 70
1
  0
LTYPE
  2
CONTINUOUS
 70
0
  3
Solid line
 72
65
 73
0
 40
0.0
  0
ENDTAB
  0
TABLE
  2
LAYER
 70
1
  0
LAYER
  2
0
 70
64
 62
7
  6
continuous
  0
ENDTAB
  0
TABLE
  2
STYLE
 70
1
  0
STYLE
  2
STANDARD
 70
0
 40
0
 41
1.0
 50
0.0
 71
0
 42
1
 3
ARIAL.TTF
 4

  0
ENDTAB
  0
TABLE
  2
VIEW
 70
0
  0
ENDTAB
  0
ENDSEC
  0
SECTION
  2
BLOCKS
  0
BLOCK
  8
0
  2
POCKET001_CS001
 70
0
 10
0.0
 20
0.0
 30
0.0
  3
POCKET001_CS001
  0
POLYLINE
  8
0
 62
0
 70
1
 66
1
 10
0.0
 20
0.0
 30
0.0
  0
VERTEX
  8
0
 10
0.0
 20
190.0
 30
3.0
  0
VERTEX
  8
0
 10
0.0
 20
0.0
 30
3.0
  0
VERTEX
  8
0
 10
280.0
 20
0.0
 30
3.0
  0
VERTEX
  8
0
 10
280.0
 20
190.0
 30
3.0
  0
SEQEND
  8
0
  0
POLYLINE
  8
0
 62
0
 70
1
 66
1
 10
0.0
 20
0.0
 30
0.0
  0
VERTEX
  8
0
 10
207.5
 20
22.0
 30
3.0
  0
VERTEX
  8
0
 10
212.5
 20
22.0
 30
3.0
  0
VERTEX
  8
0
 10
212.5
 20
28.0
 30
3.0
  0
VERTEX
  8
0
 10
207.5
 20
28.0
 30
3.0
  0
SEQEND
  8
0
  0
POLYLINE
  8
0
 62
0
 70
1
 66
1
 10
0.0
 20
0.0
 30
0.0
  0
VERTEX
  8
0
 10
207.5
 20
57.0
 30
3.0
  0
VERTEX
  8
0
 10
212.5
 20
57.0
 30
3.0
  0
VERTEX
  8
0
 10
212.5
 20
63.0
 30
3.0
  0
VERTEX
  8
0
 10
207.5
 20
63.0
 30
3.0
  0
SEQEND
  8
0
  0
POLYLINE
  8
0
 62
0
 70
1
 66
1
 10
0.0
 20
0.0
 30
0.0
  0
VERTEX
  8
0
 10
207.5
 20
92.0
 30
3.0
  0
VERTEX
  8
0
 10
207.5
 20
98.0
 30
3.0
  0
VERTEX
  8
0
 10
212.5
 20
98.0
 30
3.0
  0
VERTEX
  8
0
 10
212.5
 20
92.0
 30
3.0
  0
SEQEND
  8
0
  0
POLYLINE
  8
0
 62
0
 70
1
 66
1
 10
0.0
 20
0.0
 30
0.0
  0
VERTEX
  8
0
 10
232.8
 20
179.8
 30
3.0
  0
VERTEX
  8
0
 10
232.8
 20
173.8
 30
3.0
  0
VERTEX
  8
0
 10
222.8
 20
173.8
 30
3.0
  0
VERTEX
  8
0
 10
222.8
 20
179.8
 30
3.0
  0
SEQEND
  8
0
  0
POLYLINE
  8
0
 62
0
 70
1
 66
1
 10
0.0
 20
0.0
 30
0.0
  0
VERTEX
  8
0
 10
207.5
 20
162.0
 30
3.0
  0
VERTEX
  8
0
 10
212.5
 20
162.0
 30
3.0
  0
VERTEX
  8
0
 10
212.5
 20
168.0
 30
3.0
  0
VERTEX
  8
0
 10
207.5
 20
168.0
 30
3.0
  0
SEQEND
  8
0
  0
POLYLINE
  8
0
 62
0
 70
1
 66
1
 10
0.0
 20
0.0
 30
0.0
  0
VERTEX
  8
0
 10
207.5
 20
127.0
 30
3.0
  0
VERTEX
  8
0
 10
212.5
 20
127.0
 30
3.0
  0
VERTEX
  8
0
 10
212.5
 20
133.0
 30
3.0
  0
VERTEX
  8
0
 10
207.5
 20
133.0
 30
3.0
  0
SEQEND
  8
0
  0
POLYLINE
  8
0
 62
0
 70
1
 66
1
 10
0.0
 20
0.0
 30
0.0
  0
VERTEX
  8
0
 10
102.5
 20
162.0
 30
3.0
  0
VERTEX
  8
0
 10
102.5
 20
168.0
 30
3.0
  0
VERTEX
  8
0
 10
107.5
 20
168.0
 30
3.0
  0
VERTEX
  8
0
 10
107.5
 20
162.0
 30
3.0
  0
SEQEND
  8
0
  0
POLYLINE
  8
0
 62
0
 70
1
 66
1
 10
0.0
 20
0.0
 30
0.0
  0
VERTEX
  8
0
 10
102.5
 20
127.0
 30
3.0
  0
VERTEX
  8
0
 10
107.5
 20
127.0
 30
3.0
  0
VERTEX
  8
0
 10
107.5
 20
133.0
 30
3.0
  0
VERTEX
  8
0
 10
102.5
 20
133.0
 30
3.0
  0
SEQEND
  8
0
  0
POLYLINE
  8
0
 62
0
 70
1
 66
1
 10
0.0
 20
0.0
 30
0.0
  0
VERTEX
  8
0
 10
102.5
 20
92.0
 30
3.0
  0
VERTEX
  8
0
 10
102.5
 20
98.0
 30
3.0
  0
VERTEX
  8
0
 10
107.5
 20
98.0
 30
3.0
  0
VERTEX
  8
0
 10
107.5
 20
92.0
 30
3.0
  0
SEQEND
  8
0
  0
POLYLINE
  8
0
 62
0
 70
1
 66
1
 10
0.0
 20
0.0
 30
0.0
  0
VERTEX
  8
0
 10
137.5
 20
92.0
 30
3.0
  0
VERTEX
  8
0
 10
137.5
 20
98.0
 30
3.0
  0
VERTEX
  8
0
 10
142.5
 20
98.0
 30
3.0
  0
VERTEX
  8
0
 10
142.5
 20
92.0
 30
3.0
  0
SEQEND
  8
0
  0
POLYLINE
  8
0
 62
0
 70
1
 66
1
 10
0.0
 20
0.0
 30
0.0
  0
VERTEX
  8
0
 10
137.5
 20
162.0
 30
3.0
  0
VERTEX
  8
0
 10
137.5
 20
168.0
 30
3.0
  0
VERTEX
  8
0
 10
142.5
 20
168.0
 30
3.0
  0
VERTEX
  8
0
 10
142.5
 20
162.0
 30
3.0
  0
SEQEND
  8
0
  0
POLYLINE
  8
0
 62
0
 70
1
 66
1
 10
0.0
 20
0.0
 30
0.0
  0
VERTEX
  8
0
 10
172.5
 20
127.0
 30
3.0
  0
VERTEX
  8
0
 10
172.5
 20
133.0
 30
3.0
  0
VERTEX
  8
0
 10
177.5
 20
133.0
 30
3.0
  0
VERTEX
  8
0
 10
177.5
 20
127.0
 30
3.0
  0
SEQEND
  8
0
  0
POLYLINE
  8
0
 62
0
 70
1
 66
1
 10
0.0
 20
0.0
 30
0.0
  0
VERTEX
  8
0
 10
137.5
 20
127.0
 30
3.0
  0
VERTEX
  8
0
 10
137.5
 20
133.0
 30
3.0
  0
VERTEX
  8
0
 10
142.5
 20
133.0
 30
3.0
  0
VERTEX
  8
0
 10
142.5
 20
127.0
 30
3.0
  0
SEQEND
  8
0
  0
POLYLINE
  8
0
 62
0
 70
1
 66
1
 10
0.0
 20
0.0
 30
0.0
  0
VERTEX
  8
0
 10
172.5
 20
162.0
 30
3.0
  0
VERTEX
  8
0
 10
172.5
 20
168.0
 30
3.0
  0
VERTEX
  8
0
 10
177.5
 20
168.0
 30
3.0
  0
VERTEX
  8
0
 10
177.5
 20
162.0
 30
3.0
  0
SEQEND
  8
0
  0
POLYLINE
  8
0
 62
0
 70
1
 66
1
 10
0.0
 20
0.0
 30
0.0
  0
VERTEX
  8
0
 10
172.5
 20
92.0
 30
3.0
  0
VERTEX
  8
0
 10
172.5
 20
98.0
 30
3.0
  0
VERTEX
  8
0
 10
177.5
 20
98.0
 30
3.0
  0
VERTEX
  8
0
 10
177.5
 20
92.0
 30
3.0
  0
SEQEND
  8
0
  0
POLYLINE
  8
0
 62
0
 70
1
 66
1
 10
0.0
 20
0.0
 30
0.0
  0
VERTEX
  8
0
 10
172.5
 20
57.0
 30
3.0
  0
VERTEX
  8
0
 10
172.5
 20
63.0
 30
3.0
  0
VERTEX
  8
0
 10
177.5
 20
63.0
 30
3.0
  0
VERTEX
  8
0
 10
177.5
 20
57.0
 30
3.0
  0
SEQEND
  8
0
  0
POLYLINE
  8
0
 62
0
 70
1
 66
1
 10
0.0
 20
0.0
 30
0.0
  0
VERTEX
  8
0
 10
137.5
 20
57.0
 30
3.0
  0
VERTEX
  8
0
 10
137.5
 20
63.0
 30
3.0
  0
VERTEX
  8
0
 10
142.5
 20
63.0
 30
3.0
  0
VERTEX
  8
0
 10
142.5
 20
57.0
 30
3.0
  0
SEQEND
  8
0
  0
POLYLINE
  8
0
 62
0
 70
1
 66
1
 10
0.0
 20
0.0
 30
0.0
  0
VERTEX
  8
0
 10
102.5
 20
57.0
 30
3.0
  0
VERTEX
  8
0
 10
102.5
 20
63.0
 30
3.0
  0
VERTEX
  8
0
 10
107.5
 20
63.0
 30
3.0
  0
VERTEX
  8
0
 10
107.5
 20
57.0
 30
3.0
  0
SEQEND
  8
0
  0
POLYLINE
  8
0
 62
0
 70
1
 66
1
 10
0.0
 20
0.0
 30
0.0
  0
VERTEX
  8
0
 10
172.5
 20
22.0
 30
3.0
  0
VERTEX
  8
0
 10
172.5
 20
28.0
 30
3.0
  0
VERTEX
  8
0
 10
177.5
 20
28.0
 30
3.0
  0
VERTEX
  8
0
 10
177.5
 20
22.0
 30
3.0
  0
SEQEND
  8
0
  0
POLYLINE
  8
0
 62
0
 70
1
 66
1
 10
0.0
 20
0.0
 30
0.0
  0
VERTEX
  8
0
 10
137.5
 20
22.0
 30
3.0
  0
VERTEX
  8
0
 10
137.5
 20
28.0
 30
3.0
  0
VERTEX
  8
0
 10
142.5
 20
28.0
 30
3.0
  0
VERTEX
  8
0
 10
142.5
 20
22.0
 30
3.0
  0
SEQEND
  8
0
  0
POLYLINE
  8
0
 62
0
 70
1
 66
1
 10
0.0
 20
0.0
 30
0.0
  0
VERTEX
  8
0
 10
102.5
 20
22.0
 30
3.0
  0
VERTEX
  8
0
 10
102.5
 20
28.0
 30
3.0
  0
VERTEX
  8
0
 10
107.5
 20
28.0
 30
3.0
  0
VERTEX
  8
0
 10
107.5
 20
22.0
 30
3.0
  0
SEQEND
  8
0
  0
POLYLINE
  8
0
 62
0
 70
1
 66
1
 10
0.0
 20
0.0
 30
0.0
  0
VERTEX
  8
0
 10
242.5
 20
22.0
 30
3.0
  0
VERTEX
  8
0
 10
247.5
 20
22.0
 30
3.0
  0
VERTEX
  8
0
 10
247.5
 20
28.0
 30
3.0
  0
VERTEX
  8
0
 10
242.5
 20
28.0
 30
3.0
  0
SEQEND
  8
0
  0
POLYLINE
  8
0
 62
0
 70
1
 66
1
 10
0.0
 20
0.0
 30
0.0
  0
VERTEX
  8
0
 10
242.5
 20
57.0
 30
3.0
  0
VERTEX
  8
0
 10
242.5
 20
63.0
 30
3.0
  0
VERTEX
  8
0
 10
247.5
 20
63.0
 30
3.0
  0
VERTEX
  8
0
 10
247.5
 20
57.0
 30
3.0
  0
SEQEND
  8
0
  0
POLYLINE
  8
0
 62
0
 70
1
 66
1
 10
0.0
 20
0.0
 30
0.0
  0
VERTEX
  8
0
 10
242.5
 20
92.0
 30
3.0
  0
VERTEX
  8
0
 10
242.5
 20
98.0
 30
3.0
  0
VERTEX
  8
0
 10
247.5
 20
98.0
 30
3.0
  0
VERTEX
  8
0
 10
247.5
 20
92.0
 30
3.0
  0
SEQEND
  8
0
  0
POLYLINE
  8
0
 62
0
 70
1
 66
1
 10
0.0
 20
0.0
 30
0.0
  0
VERTEX
  8
0
 10
242.5
 20
127.0
 30
3.0
  0
VERTEX
  8
0
 10
247.5
 20
127.0
 30
3.0
  0
VERTEX
  8
0
 10
247.5
 20
133.0
 30
3.0
  0
VERTEX
  8
0
 10
242.5
 20
133.0
 30
3.0
  0
SEQEND
  8
0
  0
POLYLINE
  8
0
 62
0
 70
1
 66
1
 10
0.0
 20
0.0
 30
0.0
  0
VERTEX
  8
0
 10
242.5
 20
162.0
 30
3.0
  0
VERTEX
  8
0
 10
242.5
 20
168.0
 30
3.0
  0
VERTEX
  8
0
 10
247.5
 20
168.0
 30
3.0
  0
VERTEX
  8
0
 10
247.5
 20
162.0
 30
3.0
  0
SEQEND
  8
0
  0
POLYLINE
  8
0
 62
0
 70
1
 66
1
 10
0.0
 20
0.0
 30
0.0
  0
VERTEX
  8
0
 10
32.5
 20
162.0
 30
3.0
  0
VERTEX
  8
0
 10
37.5
 20
162.0
 30
3.0
  0
VERTEX
  8
0
 10
37.5
 20
168.0
 30
3.0
  0
VERTEX
  8
0
 10
32.5
 20
168.0
 30
3.0
  0
SEQEND
  8
0
  0
POLYLINE
  8
0
 62
0
 70
1
 66
1
 10
0.0
 20
0.0
 30
0.0
  0
VERTEX
  8
0
 10
32.5
 20
127.0
 30
3.0
  0
VERTEX
  8
0
 10
37.5
 20
127.0
 30
3.0
  0
VERTEX
  8
0
 10
37.5
 20
133.0
 30
3.0
  0
VERTEX
  8
0
 10
32.5
 20
133.0
 30
3.0
  0
SEQEND
  8
0
  0
POLYLINE
  8
0
 62
0
 70
1
 66
1
 10
0.0
 20
0.0
 30
0.0
  0
VERTEX
  8
0
 10
67.5
 20
162.0
 30
3.0
  0
VERTEX
  8
0
 10
67.5
 20
168.0
 30
3.0
  0
VERTEX
  8
0
 10
72.5
 20
168.0
 30
3.0
  0
VERTEX
  8
0
 10
72.5
 20
162.0
 30
3.0
  0
SEQEND
  8
0
  0
POLYLINE
  8
0
 62
0
 70
1
 66
1
 10
0.0
 20
0.0
 30
0.0
  0
VERTEX
  8
0
 10
67.5
 20
127.0
 30
3.0
  0
VERTEX
  8
0
 10
72.5
 20
127.0
 30
3.0
  0
VERTEX
  8
0
 10
72.5
 20
133.0
 30
3.0
  0
VERTEX
  8
0
 10
67.5
 20
133.0
 30
3.0
  0
SEQEND
  8
0
  0
POLYLINE
  8
0
 62
0
 70
1
 66
1
 10
0.0
 20
0.0
 30
0.0
  0
VERTEX
  8
0
 10
67.5
 20
57.0
 30
3.0
  0
VERTEX
  8
0
 10
67.5
 20
63.0
 30
3.0
  0
VERTEX
  8
0
 10
72.5
 20
63.0
 30
3.0
  0
VERTEX
  8
0
 10
72.5
 20
57.0
 30
3.0
  0
SEQEND
  8
0
  0
POLYLINE
  8
0
 62
0
 70
1
 66
1
 10
0.0
 20
0.0
 30
0.0
  0
VERTEX
  8
0
 10
32.5
 20
57.0
 30
3.0
  0
VERTEX
  8
0
 10
32.5
 20
63.0
 30
3.0
  0
VERTEX
  8
0
 10
37.5
 20
63.0
 30
3.0
  0
VERTEX
  8
0
 10
37.5
 20
57.0
 30
3.0
  0
SEQEND
  8
0
  0
POLYLINE
  8
0
 62
0
 70
1
 66
1
 10
0.0
 20
0.0
 30
0.0
  0
VERTEX
  8
0
 10
32.5
 20
92.0
 30
3.0
  0
VERTEX
  8
0
 10
32.5
 20
98.0
 30
3.0
  0
VERTEX
  8
0
 10
37.5
 20
98.0
 30
3.0
  0
VERTEX
  8
0
 10
37.5
 20
92.0
 30
3.0
  0
SEQEND
  8
0
  0
POLYLINE
  8
0
 62
0
 70
1
 66
1
 10
0.0
 20
0.0
 30
0.0
  0
VERTEX
  8
0
 10
67.5
 20
92.0
 30
3.0
  0
VERTEX
  8
0
 10
67.5
 20
98.0
 30
3.0
  0
VERTEX
  8
0
 10
72.5
 20
98.0
 30
3.0
  0
VERTEX
  8
0
 10
72.5
 20
92.0
 30
3.0
  0
SEQEND
  8
0
  0
POLYLINE
  8
0
 62
0
 70
1
 66
1
 10
0.0
 20
0.0
 30
0.0
  0
VERTEX
  8
0
 10
67.5
 20
22.0
 30
3.0
  0
VERTEX
  8
0
 10
67.5
 20
28.0
 30
3.0
  0
VERTEX
  8
0
 10
72.5
 20
28.0
 30
3.0
  0
VERTEX
  8
0
 10
72.5
 20
22.0
 30
3.0
  0
SEQEND
  8
0
  0
POLYLINE
  8
0
 62
0
 70
1
 66
1
 10
0.0
 20
0.0
 30
0.0
  0
VERTEX
  8
0
 10
32.5
 20
22.0
 30
3.0
  0
VERTEX
  8
0
 10
32.5
 20
28.0
 30
3.0
  0
VERTEX
  8
0
 10
37.5
 20
28.0
 30
3.0
  0
VERTEX
  8
0
 10
37.5
 20
22.0
 30
3.0
  0
SEQEND
  8
0
  0
POLYLINE
  8
0
 62
0
 70
1
 66
1
 10
0.0
 20
0.0
 30
0.0
  0
VERTEX
  8
0
 10
47.2
 20
173.8
 30
3.0
  0
VERTEX
  8
0
 10
57.2
 20
173.8
 30
3.0
  0
VERTEX
  8
0
 10
57.2
 20
179.8
 30
3.0
  0
VERTEX
  8
0
 10
47.2
 20
179.8
 30
3.0
  0
SEQEND
  8
0
  0
POLYLINE
  8
0
 62
0
 70
1
 66
1
 10
0.0
 20
0.0
 30
0.0
  0
VERTEX
  8
0
 10
10.2
 20
100.0
 30
3.0
  0
VERTEX
  8
0
 10
10.2
 20
90.0
 30
3.0
  0
VERTEX
  8
0
 10
16.2
 20
90.0
 30
3.0
  0
VERTEX
  8
0
 10
16.2
 20
100.0
 30
3.0
  0
SEQEND
  8
0
  0
POLYLINE
  8
0
 62
0
 70
1
 66
1
 10
0.0
 20
0.0
 30
0.0
  0
VERTEX
  8
0
 10
269.8
 20
100.0
 30
3.0
  0
VERTEX
  8
0
 10
263.8
 20
100.0
 30
3.0
  0
VERTEX
  8
0
 10
263.8
 20
90.0
 30
3.0
  0
VERTEX
  8
0
 10
269.8
 20
90.0
 30
3.0
  0
SEQEND
  8
0
  0
POLYLINE
  8
0
 62
0
 70
1
 66
1
 10
0.0
 20
0.0
 30
0.0
  0
VERTEX
  8
0
 10
47.2
 20
10.2
 30
3.0
  0
VERTEX
  8
0
 10
47.2
 20
16.2
 30
3.0
  0
VERTEX
  8
0
 10
57.2
 20
16.2
 30
3.0
  0
VERTEX
  8
0
 10
57.2
 20
10.2
 30
3.0
  0
SEQEND
  8
0
  0
POLYLINE
  8
0
 62
0
 70
1
 66
1
 10
0.0
 20
0.0
 30
0.0
  0
VERTEX
  8
0
 10
232.8
 20
16.2
 30
3.0
  0
VERTEX
  8
0
 10
222.8
 20
16.2
 30
3.0
  0
VERTEX
  8
0
 10
222.8
 20
10.2
 30
3.0
  0
VERTEX
  8
0
 10
232.8
 20
10.2
 30
3.0
  0
SEQEND
  8
0
  0
ENDBLK
  0
ENDSEC
  0
SECTION
  2
ENTITIES
  0
INSERT
  2
POCKET001_CS001
  8
0
 10
0.0
 20
0.0
 30
0.0
  0
ENDSEC
  0
EOF
