  0
SECTION
  2
HEADER
  9
$ACADVER
  1
AC1014
  9
$HANDSEED
  5
FFFF
  9
$MEASUREMENT
 70
     1
  0
ENDSEC
  0
SECTION
  2
TABLES
  0
TABLE
  2
VPORT
  5
8
330
0
100
AcDbSymbolTable
 70
     4
  0
VPORT
  5
2E
330
8
100
AcDbSymbolTableRecord
100
AcDbViewportTableRecord
  2
*ACTIVE
 70
     0
 10
0.0
 20
0.0
 11
1.0
 21
1.0
 12
210.0
 22
148.5
 13
0.0
 23
0.0
 14
10.0
 24
10.0
 15
10.0
 25
10.0
 16
0.0
 26
0.0
 36
1.0
 17
0.0
 27
0.0
 37
0.0
 40
341.0
 41
1.24
 42
50.0
 43
0.0
 44
0.0
 50
0.0
 51
0.0
 71
     0
 72
   100
 73
     1
 74
     3
 75
     0
 76
     0
 77
     0
 78
     0
  0
ENDTAB
  0
TABLE
  2
LTYPE
  5
5
330
0
100
AcDbSymbolTable
 70
     1
  0
LTYPE
  5
14
330
5
100
AcDbSymbolTableRecord
100
AcDbLinetypeTableRecord
  2
BYBLOCK
 70
     0
  3

 72
    65
 73
     0
 40
0.0
  0
LTYPE
  5
15
330
5
100
AcDbSymbolTableRecord
100
AcDbLinetypeTableRecord
  2
BYLAYER
 70
     0
  3

 72
    65
 73
     0
 40
0.0
  0
LTYPE
  5
16
330
5
100
AcDbSymbolTableRecord
100
AcDbLinetypeTableRecord
  2
CONTINUOUS
 70
     0
  3
Solid line
 72
    65
 73
     0
 40
0.0
  0
ENDTAB
  0
TABLE
  2
LAYER
  5
2
100
AcDbSymbolTable
 70
2
  0
LAYER
  5
50
100
AcDbSymbolTableRecord
100
AcDbLayerTableRecord
  2
0
 70
0
  6
CONTINUOUS
  0
LAYER
  5
51
100
AcDbSymbolTableRecord
100
AcDbLayerTableRecord
  2
box-20151219_220614_231108
 70
0
  6
CONTINUOUS
  0
ENDTAB
  0
TABLE
  2
STYLE
  5
3
330
0
100
AcDbSymbolTable
 70
     1
  0
STYLE
  5
11
330
3
100
AcDbSymbolTableRecord
100
AcDbTextStyleTableRecord
  2
STANDARD
 70
     0
 40
0.0
 41
1.0
 50
0.0
 71
     0
 42
2.5
  3
txt
  4

  0
ENDTAB
  0
TABLE
  2
VIEW
  5
6
330
0
100
AcDbSymbolTable
 70
     0
  0
ENDTAB
  0
TABLE
  2
UCS
  5
7
330
0
100
AcDbSymbolTable
 70
     0
  0
ENDTAB
  0
TABLE
  2
APPID
  5
9
330
0
100
AcDbSymbolTable
 70
     2
  0
APPID
  5
12
330
9
100
AcDbSymbolTableRecord
100
AcDbRegAppTableRecord
  2
ACAD
 70
     0
  0
ENDTAB
  0
TABLE
  2
DIMSTYLE
  5
A
330
0
100
AcDbSymbolTable
 70
     1
  0
DIMSTYLE
105
27
330
A
100
AcDbSymbolTableRecord
100
AcDbDimStyleTableRecord
  2
ISO-25
 70
     0
  3

  4

  5

  6

  7

 40
1.0
 41
2.5
 42
0.625
 43
3.75
 44
1.25
 45
0.0
 46
0.0
 47
0.0
 48
0.0
140
2.5
141
2.5
142
0.0
143
0.03937007874016
144
1.0
145
0.0
146
1.0
147
0.625
 71
     0
 72
     0
 73
     0
 74
     0
 75
     0
 76
     0
 77
     1
 78
     8
170
     0
171
     3
172
     1
173
     0
174
     0
175
     0
176
     0
177
     0
178
     0
270
     2
271
     2
272
     2
273
     2
274
     3
340
11
275
     0
280
     0
281
     0
282
     0
283
     0
284
     8
285
     0
286
     0
287
     3
288
     0
  0
ENDTAB
  0
TABLE
  2
BLOCK_RECORD
  5
1
330
0
100
AcDbSymbolTable
 70
     1
  0
BLOCK_RECORD
  5
1F
330
1
100
AcDbSymbolTableRecord
100
AcDbBlockTableRecord
  2
*MODEL_SPACE
  0
BLOCK_RECORD
  5
1B
330
1
100
AcDbSymbolTableRecord
100
AcDbBlockTableRecord
  2
*PAPER_SPACE
  0
ENDTAB
  0
ENDSEC
  0
SECTION
  2
BLOCKS
  0
BLOCK
  5
20
330
1F
100
AcDbEntity
  8
0
100
AcDbBlockBegin
  2
*MODEL_SPACE
 70
     0
 10
0.0
 20
0.0
 30
0.0
  3
*MODEL_SPACE
  1

  0
ENDBLK
  5
21
330
1F
100
AcDbEntity
  8
0
100
AcDbBlockEnd
  0
BLOCK
  5
1C
330
1B
100
AcDbEntity
 67
     1
  8
0
100
AcDbBlockBegin
  2
*PAPER_SPACE
  1

  0
ENDBLK
  5
1D
330
1B
100
AcDbEntity
 67
     1
  8
0
100
AcDbBlockEnd
  0
ENDSEC
  0
SECTION
  2
ENTITIES
  0
LINE
  5
100
100
AcDbEntity
  8
box-20151219_220614_231108
 62
7
100
AcDbLine
 10
210.000003
 20
10.000001
 30
0.0
 11
224.736836
 21
10.000001
 31
0.0
  0
LINE
  5
101
100
AcDbEntity
  8
box-20151219_220614_231108
 62
7
100
AcDbLine
 10
224.736836
 20
16.000000
 30
0.0
 11
224.736836
 21
10.000001
 31
0.0
  0
LINE
  5
102
100
AcDbEntity
  8
box-20151219_220614_231108
 62
7
100
AcDbLine
 10
224.736836
 20
16.000000
 30
0.0
 11
239.473669
 21
16.000000
 31
0.0
  0
LINE
  5
103
100
AcDbEntity
  8
box-20151219_220614_231108
 62
7
100
AcDbLine
 10
239.473669
 20
16.000000
 30
0.0
 11
239.473669
 21
10.000001
 31
0.0
  0
LINE
  5
104
100
AcDbEntity
  8
box-20151219_220614_231108
 62
7
100
AcDbLine
 10
239.473669
 20
10.000001
 30
0.0
 11
254.210538
 21
10.000001
 31
0.0
  0
LINE
  5
105
100
AcDbEntity
  8
box-20151219_220614_231108
 62
7
100
AcDbLine
 10
254.210538
 20
16.000000
 30
0.0
 11
254.210538
 21
10.000001
 31
0.0
  0
LINE
  5
106
100
AcDbEntity
  8
box-20151219_220614_231108
 62
7
100
AcDbLine
 10
254.210538
 20
16.000000
 30
0.0
 11
268.947371
 21
16.000000
 31
0.0
  0
LINE
  5
107
100
AcDbEntity
  8
box-20151219_220614_231108
 62
7
100
AcDbLine
 10
268.947371
 20
16.000000
 30
0.0
 11
268.947371
 21
10.000001
 31
0.0
  0
LINE
  5
108
100
AcDbEntity
  8
box-20151219_220614_231108
 62
7
100
AcDbLine
 10
268.947371
 20
10.000001
 30
0.0
 11
283.684204
 21
10.000001
 31
0.0
  0
LINE
  5
109
100
AcDbEntity
  8
box-20151219_220614_231108
 62
7
100
AcDbLine
 10
283.684204
 20
16.000000
 30
0.0
 11
283.684204
 21
10.000001
 31
0.0
  0
LINE
  5
10a
100
AcDbEntity
  8
box-20151219_220614_231108
 62
7
100
AcDbLine
 10
283.684204
 20
16.000000
 30
0.0
 11
298.421037
 21
16.000000
 31
0.0
  0
LINE
  5
10b
100
AcDbEntity
  8
box-20151219_220614_231108
 62
7
100
AcDbLine
 10
298.421037
 20
16.000000
 30
0.0
 11
298.421037
 21
10.000001
 31
0.0
  0
LINE
  5
10c
100
AcDbEntity
  8
box-20151219_220614_231108
 62
7
100
AcDbLine
 10
298.421037
 20
10.000001
 30
0.0
 11
313.157905
 21
10.000001
 31
0.0
  0
LINE
  5
10d
100
AcDbEntity
  8
box-20151219_220614_231108
 62
7
100
AcDbLine
 10
313.157905
 20
16.000000
 30
0.0
 11
313.157905
 21
10.000001
 31
0.0
  0
LINE
  5
10e
100
AcDbEntity
  8
box-20151219_220614_231108
 62
7
100
AcDbLine
 10
313.157905
 20
16.000000
 30
0.0
 11
327.894738
 21
16.000000
 31
0.0
  0
LINE
  5
10f
100
AcDbEntity
  8
box-20151219_220614_231108
 62
7
100
AcDbLine
 10
327.894738
 20
16.000000
 30
0.0
 11
327.894738
 21
10.000001
 31
0.0
  0
LINE
  5
110
100
AcDbEntity
  8
box-20151219_220614_231108
 62
7
100
AcDbLine
 10
327.894738
 20
10.000001
 30
0.0
 11
342.631571
 21
10.000001
 31
0.0
  0
LINE
  5
111
100
AcDbEntity
  8
box-20151219_220614_231108
 62
7
100
AcDbLine
 10
342.631571
 20
16.000000
 30
0.0
 11
342.631571
 21
10.000001
 31
0.0
  0
LINE
  5
112
100
AcDbEntity
  8
box-20151219_220614_231108
 62
7
100
AcDbLine
 10
342.631571
 20
16.000000
 30
0.0
 11
357.368475
 21
16.000000
 31
0.0
  0
LINE
  5
113
100
AcDbEntity
  8
box-20151219_220614_231108
 62
7
100
AcDbLine
 10
357.368475
 20
16.000000
 30
0.0
 11
357.368475
 21
10.000001
 31
0.0
  0
LINE
  5
114
100
AcDbEntity
  8
box-20151219_220614_231108
 62
7
100
AcDbLine
 10
357.368475
 20
10.000001
 30
0.0
 11
372.105414
 21
10.000001
 31
0.0
  0
LINE
  5
115
100
AcDbEntity
  8
box-20151219_220614_231108
 62
7
100
AcDbLine
 10
372.105414
 20
16.000000
 30
0.0
 11
372.105414
 21
10.000001
 31
0.0
  0
LINE
  5
116
100
AcDbEntity
  8
box-20151219_220614_231108
 62
7
100
AcDbLine
 10
372.105414
 20
16.000000
 30
0.0
 11
386.842000
 21
16.000000
 31
0.0
  0
LINE
  5
117
100
AcDbEntity
  8
box-20151219_220614_231108
 62
7
100
AcDbLine
 10
386.842000
 20
16.000000
 30
0.0
 11
386.842000
 21
10.000001
 31
0.0
  0
LINE
  5
118
100
AcDbEntity
  8
box-20151219_220614_231108
 62
7
100
AcDbLine
 10
386.842000
 20
10.000001
 30
0.0
 11
401.578939
 21
10.000001
 31
0.0
  0
LINE
  5
119
100
AcDbEntity
  8
box-20151219_220614_231108
 62
7
100
AcDbLine
 10
401.578939
 20
16.000000
 30
0.0
 11
401.578939
 21
10.000001
 31
0.0
  0
LINE
  5
11a
100
AcDbEntity
  8
box-20151219_220614_231108
 62
7
100
AcDbLine
 10
401.578939
 20
16.000000
 30
0.0
 11
416.315878
 21
16.000000
 31
0.0
  0
LINE
  5
11b
100
AcDbEntity
  8
box-20151219_220614_231108
 62
7
100
AcDbLine
 10
416.315878
 20
16.000000
 30
0.0
 11
416.315878
 21
10.000001
 31
0.0
  0
LINE
  5
11c
100
AcDbEntity
  8
box-20151219_220614_231108
 62
7
100
AcDbLine
 10
416.315878
 20
10.000001
 30
0.0
 11
431.052464
 21
10.000001
 31
0.0
  0
LINE
  5
11d
100
AcDbEntity
  8
box-20151219_220614_231108
 62
7
100
AcDbLine
 10
431.052464
 20
16.000000
 30
0.0
 11
431.052464
 21
10.000001
 31
0.0
  0
LINE
  5
11e
100
AcDbEntity
  8
box-20151219_220614_231108
 62
7
100
AcDbLine
 10
431.052464
 20
16.000000
 30
0.0
 11
445.789403
 21
16.000000
 31
0.0
  0
LINE
  5
11f
100
AcDbEntity
  8
box-20151219_220614_231108
 62
7
100
AcDbLine
 10
445.789403
 20
16.000000
 30
0.0
 11
445.789403
 21
10.000001
 31
0.0
  0
LINE
  5
120
100
AcDbEntity
  8
box-20151219_220614_231108
 62
7
100
AcDbLine
 10
445.789403
 20
10.000001
 30
0.0
 11
460.526342
 21
10.000001
 31
0.0
  0
LINE
  5
121
100
AcDbEntity
  8
box-20151219_220614_231108
 62
7
100
AcDbLine
 10
460.526342
 20
16.000000
 30
0.0
 11
460.526342
 21
10.000001
 31
0.0
  0
LINE
  5
122
100
AcDbEntity
  8
box-20151219_220614_231108
 62
7
100
AcDbLine
 10
460.526342
 20
16.000000
 30
0.0
 11
475.263281
 21
16.000000
 31
0.0
  0
LINE
  5
123
100
AcDbEntity
  8
box-20151219_220614_231108
 62
7
100
AcDbLine
 10
475.263281
 20
16.000000
 30
0.0
 11
475.263281
 21
10.000001
 31
0.0
  0
LINE
  5
124
100
AcDbEntity
  8
box-20151219_220614_231108
 62
7
100
AcDbLine
 10
475.263281
 20
10.000001
 30
0.0
 11
484.000175
 21
10.000001
 31
0.0
  0
LINE
  5
125
100
AcDbEntity
  8
box-20151219_220614_231108
 62
7
100
AcDbLine
 10
210.000003
 20
100.000012
 30
0.0
 11
224.736836
 21
100.000012
 31
0.0
  0
LINE
  5
126
100
AcDbEntity
  8
box-20151219_220614_231108
 62
7
100
AcDbLine
 10
224.736836
 20
100.000012
 30
0.0
 11
224.736836
 21
94.000002
 31
0.0
  0
LINE
  5
127
100
AcDbEntity
  8
box-20151219_220614_231108
 62
7
100
AcDbLine
 10
224.736836
 20
94.000002
 30
0.0
 11
239.473669
 21
94.000002
 31
0.0
  0
LINE
  5
128
100
AcDbEntity
  8
box-20151219_220614_231108
 62
7
100
AcDbLine
 10
239.473669
 20
100.000012
 30
0.0
 11
239.473669
 21
94.000002
 31
0.0
  0
LINE
  5
129
100
AcDbEntity
  8
box-20151219_220614_231108
 62
7
100
AcDbLine
 10
239.473669
 20
100.000012
 30
0.0
 11
254.210538
 21
100.000012
 31
0.0
  0
LINE
  5
12a
100
AcDbEntity
  8
box-20151219_220614_231108
 62
7
100
AcDbLine
 10
254.210538
 20
100.000012
 30
0.0
 11
254.210538
 21
94.000002
 31
0.0
  0
LINE
  5
12b
100
AcDbEntity
  8
box-20151219_220614_231108
 62
7
100
AcDbLine
 10
254.210538
 20
94.000002
 30
0.0
 11
268.947371
 21
94.000002
 31
0.0
  0
LINE
  5
12c
100
AcDbEntity
  8
box-20151219_220614_231108
 62
7
100
AcDbLine
 10
268.947371
 20
100.000012
 30
0.0
 11
268.947371
 21
94.000002
 31
0.0
  0
LINE
  5
12d
100
AcDbEntity
  8
box-20151219_220614_231108
 62
7
100
AcDbLine
 10
268.947371
 20
100.000012
 30
0.0
 11
283.684204
 21
100.000012
 31
0.0
  0
LINE
  5
12e
100
AcDbEntity
  8
box-20151219_220614_231108
 62
7
100
AcDbLine
 10
283.684204
 20
100.000012
 30
0.0
 11
283.684204
 21
94.000002
 31
0.0
  0
LINE
  5
12f
100
AcDbEntity
  8
box-20151219_220614_231108
 62
7
100
AcDbLine
 10
283.684204
 20
94.000002
 30
0.0
 11
298.421037
 21
94.000002
 31
0.0
  0
LINE
  5
130
100
AcDbEntity
  8
box-20151219_220614_231108
 62
7
100
AcDbLine
 10
298.421037
 20
100.000012
 30
0.0
 11
298.421037
 21
94.000002
 31
0.0
  0
LINE
  5
131
100
AcDbEntity
  8
box-20151219_220614_231108
 62
7
100
AcDbLine
 10
298.421037
 20
100.000012
 30
0.0
 11
313.157905
 21
100.000012
 31
0.0
  0
LINE
  5
132
100
AcDbEntity
  8
box-20151219_220614_231108
 62
7
100
AcDbLine
 10
313.157905
 20
100.000012
 30
0.0
 11
313.157905
 21
94.000002
 31
0.0
  0
LINE
  5
133
100
AcDbEntity
  8
box-20151219_220614_231108
 62
7
100
AcDbLine
 10
313.157905
 20
94.000002
 30
0.0
 11
327.894738
 21
94.000002
 31
0.0
  0
LINE
  5
134
100
AcDbEntity
  8
box-20151219_220614_231108
 62
7
100
AcDbLine
 10
327.894738
 20
100.000012
 30
0.0
 11
327.894738
 21
94.000002
 31
0.0
  0
LINE
  5
135
100
AcDbEntity
  8
box-20151219_220614_231108
 62
7
100
AcDbLine
 10
327.894738
 20
100.000012
 30
0.0
 11
342.631571
 21
100.000012
 31
0.0
  0
LINE
  5
136
100
AcDbEntity
  8
box-20151219_220614_231108
 62
7
100
AcDbLine
 10
342.631571
 20
100.000012
 30
0.0
 11
342.631571
 21
94.000002
 31
0.0
  0
LINE
  5
137
100
AcDbEntity
  8
box-20151219_220614_231108
 62
7
100
AcDbLine
 10
342.631571
 20
94.000002
 30
0.0
 11
357.368475
 21
94.000002
 31
0.0
  0
LINE
  5
138
100
AcDbEntity
  8
box-20151219_220614_231108
 62
7
100
AcDbLine
 10
357.368475
 20
100.000012
 30
0.0
 11
357.368475
 21
94.000002
 31
0.0
  0
LINE
  5
139
100
AcDbEntity
  8
box-20151219_220614_231108
 62
7
100
AcDbLine
 10
357.368475
 20
100.000012
 30
0.0
 11
372.105414
 21
100.000012
 31
0.0
  0
LINE
  5
13a
100
AcDbEntity
  8
box-20151219_220614_231108
 62
7
100
AcDbLine
 10
372.105414
 20
100.000012
 30
0.0
 11
372.105414
 21
94.000002
 31
0.0
  0
LINE
  5
13b
100
AcDbEntity
  8
box-20151219_220614_231108
 62
7
100
AcDbLine
 10
372.105414
 20
94.000002
 30
0.0
 11
386.842000
 21
94.000002
 31
0.0
  0
LINE
  5
13c
100
AcDbEntity
  8
box-20151219_220614_231108
 62
7
100
AcDbLine
 10
386.842000
 20
100.000012
 30
0.0
 11
386.842000
 21
94.000002
 31
0.0
  0
LINE
  5
13d
100
AcDbEntity
  8
box-20151219_220614_231108
 62
7
100
AcDbLine
 10
386.842000
 20
100.000012
 30
0.0
 11
401.578939
 21
100.000012
 31
0.0
  0
LINE
  5
13e
100
AcDbEntity
  8
box-20151219_220614_231108
 62
7
100
AcDbLine
 10
401.578939
 20
100.000012
 30
0.0
 11
401.578939
 21
94.000002
 31
0.0
  0
LINE
  5
13f
100
AcDbEntity
  8
box-20151219_220614_231108
 62
7
100
AcDbLine
 10
401.578939
 20
94.000002
 30
0.0
 11
416.315878
 21
94.000002
 31
0.0
  0
LINE
  5
140
100
AcDbEntity
  8
box-20151219_220614_231108
 62
7
100
AcDbLine
 10
416.315878
 20
100.000012
 30
0.0
 11
416.315878
 21
94.000002
 31
0.0
  0
LINE
  5
141
100
AcDbEntity
  8
box-20151219_220614_231108
 62
7
100
AcDbLine
 10
416.315878
 20
100.000012
 30
0.0
 11
431.052464
 21
100.000012
 31
0.0
  0
LINE
  5
142
100
AcDbEntity
  8
box-20151219_220614_231108
 62
7
100
AcDbLine
 10
431.052464
 20
100.000012
 30
0.0
 11
431.052464
 21
94.000002
 31
0.0
  0
LINE
  5
143
100
AcDbEntity
  8
box-20151219_220614_231108
 62
7
100
AcDbLine
 10
431.052464
 20
94.000002
 30
0.0
 11
445.789403
 21
94.000002
 31
0.0
  0
LINE
  5
144
100
AcDbEntity
  8
box-20151219_220614_231108
 62
7
100
AcDbLine
 10
445.789403
 20
100.000012
 30
0.0
 11
445.789403
 21
94.000002
 31
0.0
  0
LINE
  5
145
100
AcDbEntity
  8
box-20151219_220614_231108
 62
7
100
AcDbLine
 10
445.789403
 20
100.000012
 30
0.0
 11
460.526342
 21
100.000012
 31
0.0
  0
LINE
  5
146
100
AcDbEntity
  8
box-20151219_220614_231108
 62
7
100
AcDbLine
 10
460.526342
 20
100.000012
 30
0.0
 11
460.526342
 21
94.000002
 31
0.0
  0
LINE
  5
147
100
AcDbEntity
  8
box-20151219_220614_231108
 62
7
100
AcDbLine
 10
460.526342
 20
94.000002
 30
0.0
 11
475.263281
 21
94.000002
 31
0.0
  0
LINE
  5
148
100
AcDbEntity
  8
box-20151219_220614_231108
 62
7
100
AcDbLine
 10
475.263281
 20
100.000012
 30
0.0
 11
475.263281
 21
94.000002
 31
0.0
  0
LINE
  5
149
100
AcDbEntity
  8
box-20151219_220614_231108
 62
7
100
AcDbLine
 10
475.263281
 20
100.000012
 30
0.0
 11
484.000175
 21
100.000012
 31
0.0
  0
LINE
  5
14a
100
AcDbEntity
  8
box-20151219_220614_231108
 62
7
100
AcDbLine
 10
210.000003
 20
10.000001
 30
0.0
 11
210.000003
 21
28.000000
 31
0.0
  0
LINE
  5
14b
100
AcDbEntity
  8
box-20151219_220614_231108
 62
7
100
AcDbLine
 10
216.000012
 20
28.000000
 30
0.0
 11
210.000003
 21
28.000000
 31
0.0
  0
LINE
  5
14c
100
AcDbEntity
  8
box-20151219_220614_231108
 62
7
100
AcDbLine
 10
216.000012
 20
28.000000
 30
0.0
 11
216.000012
 21
46.000000
 31
0.0
  0
LINE
  5
14d
100
AcDbEntity
  8
box-20151219_220614_231108
 62
7
100
AcDbLine
 10
216.000012
 20
46.000000
 30
0.0
 11
210.000003
 21
46.000000
 31
0.0
  0
LINE
  5
14e
100
AcDbEntity
  8
box-20151219_220614_231108
 62
7
100
AcDbLine
 10
210.000003
 20
46.000000
 30
0.0
 11
210.000003
 21
63.999992
 31
0.0
  0
LINE
  5
14f
100
AcDbEntity
  8
box-20151219_220614_231108
 62
7
100
AcDbLine
 10
216.000012
 20
63.999992
 30
0.0
 11
210.000003
 21
63.999992
 31
0.0
  0
LINE
  5
150
100
AcDbEntity
  8
box-20151219_220614_231108
 62
7
100
AcDbLine
 10
216.000012
 20
63.999992
 30
0.0
 11
216.000012
 21
81.999984
 31
0.0
  0
LINE
  5
151
100
AcDbEntity
  8
box-20151219_220614_231108
 62
7
100
AcDbLine
 10
216.000012
 20
81.999984
 30
0.0
 11
210.000003
 21
81.999984
 31
0.0
  0
LINE
  5
152
100
AcDbEntity
  8
box-20151219_220614_231108
 62
7
100
AcDbLine
 10
210.000003
 20
81.999984
 30
0.0
 11
210.000003
 21
100.000012
 31
0.0
  0
LINE
  5
153
100
AcDbEntity
  8
box-20151219_220614_231108
 62
7
100
AcDbLine
 10
484.000175
 20
10.000001
 30
0.0
 11
484.000175
 21
28.000000
 31
0.0
  0
LINE
  5
154
100
AcDbEntity
  8
box-20151219_220614_231108
 62
7
100
AcDbLine
 10
489.999867
 20
28.000000
 30
0.0
 11
484.000175
 21
28.000000
 31
0.0
  0
LINE
  5
155
100
AcDbEntity
  8
box-20151219_220614_231108
 62
7
100
AcDbLine
 10
489.999867
 20
28.000000
 30
0.0
 11
489.999867
 21
46.000000
 31
0.0
  0
LINE
  5
156
100
AcDbEntity
  8
box-20151219_220614_231108
 62
7
100
AcDbLine
 10
489.999867
 20
46.000000
 30
0.0
 11
484.000175
 21
46.000000
 31
0.0
  0
LINE
  5
157
100
AcDbEntity
  8
box-20151219_220614_231108
 62
7
100
AcDbLine
 10
484.000175
 20
46.000000
 30
0.0
 11
484.000175
 21
63.999992
 31
0.0
  0
LINE
  5
158
100
AcDbEntity
  8
box-20151219_220614_231108
 62
7
100
AcDbLine
 10
489.999867
 20
63.999992
 30
0.0
 11
484.000175
 21
63.999992
 31
0.0
  0
LINE
  5
159
100
AcDbEntity
  8
box-20151219_220614_231108
 62
7
100
AcDbLine
 10
489.999867
 20
63.999992
 30
0.0
 11
489.999867
 21
81.999984
 31
0.0
  0
LINE
  5
15a
100
AcDbEntity
  8
box-20151219_220614_231108
 62
7
100
AcDbLine
 10
489.999867
 20
81.999984
 30
0.0
 11
484.000175
 21
81.999984
 31
0.0
  0
LINE
  5
15b
100
AcDbEntity
  8
box-20151219_220614_231108
 62
7
100
AcDbLine
 10
484.000175
 20
81.999984
 30
0.0
 11
484.000175
 21
100.000012
 31
0.0
  0
LINE
  5
15c
100
AcDbEntity
  8
box-20151219_220614_231108
 62
7
100
AcDbLine
 10
10.000001
 20
109.999992
 30
0.0
 11
24.615383
 21
109.999992
 31
0.0
  0
LINE
  5
15d
100
AcDbEntity
  8
box-20151219_220614_231108
 62
7
100
AcDbLine
 10
24.615383
 20
116.000001
 30
0.0
 11
24.615383
 21
109.999992
 31
0.0
  0
LINE
  5
15e
100
AcDbEntity
  8
box-20151219_220614_231108
 62
7
100
AcDbLine
 10
24.615383
 20
116.000001
 30
0.0
 11
39.230759
 21
116.000001
 31
0.0
  0
LINE
  5
15f
100
AcDbEntity
  8
box-20151219_220614_231108
 62
7
100
AcDbLine
 10
39.230759
 20
116.000001
 30
0.0
 11
39.230759
 21
109.999992
 31
0.0
  0
LINE
  5
160
100
AcDbEntity
  8
box-20151219_220614_231108
 62
7
100
AcDbLine
 10
39.230759
 20
109.999992
 30
0.0
 11
53.846166
 21
109.999992
 31
0.0
  0
LINE
  5
161
100
AcDbEntity
  8
box-20151219_220614_231108
 62
7
100
AcDbLine
 10
53.846166
 20
116.000001
 30
0.0
 11
53.846166
 21
109.999992
 31
0.0
  0
LINE
  5
162
100
AcDbEntity
  8
box-20151219_220614_231108
 62
7
100
AcDbLine
 10
53.846166
 20
116.000001
 30
0.0
 11
68.461537
 21
116.000001
 31
0.0
  0
LINE
  5
163
100
AcDbEntity
  8
box-20151219_220614_231108
 62
7
100
AcDbLine
 10
68.461537
 20
116.000001
 30
0.0
 11
68.461537
 21
109.999992
 31
0.0
  0
LINE
  5
164
100
AcDbEntity
  8
box-20151219_220614_231108
 62
7
100
AcDbLine
 10
68.461537
 20
109.999992
 30
0.0
 11
83.076909
 21
109.999992
 31
0.0
  0
LINE
  5
165
100
AcDbEntity
  8
box-20151219_220614_231108
 62
7
100
AcDbLine
 10
83.076909
 20
116.000001
 30
0.0
 11
83.076909
 21
109.999992
 31
0.0
  0
LINE
  5
166
100
AcDbEntity
  8
box-20151219_220614_231108
 62
7
100
AcDbLine
 10
83.076909
 20
116.000001
 30
0.0
 11
97.692316
 21
116.000001
 31
0.0
  0
LINE
  5
167
100
AcDbEntity
  8
box-20151219_220614_231108
 62
7
100
AcDbLine
 10
97.692316
 20
116.000001
 30
0.0
 11
97.692316
 21
109.999992
 31
0.0
  0
LINE
  5
168
100
AcDbEntity
  8
box-20151219_220614_231108
 62
7
100
AcDbLine
 10
97.692316
 20
109.999992
 30
0.0
 11
112.307687
 21
109.999992
 31
0.0
  0
LINE
  5
169
100
AcDbEntity
  8
box-20151219_220614_231108
 62
7
100
AcDbLine
 10
112.307688
 20
116.000001
 30
0.0
 11
112.307688
 21
109.999992
 31
0.0
  0
LINE
  5
16a
100
AcDbEntity
  8
box-20151219_220614_231108
 62
7
100
AcDbLine
 10
112.307688
 20
116.000001
 30
0.0
 11
126.923094
 21
116.000001
 31
0.0
  0
LINE
  5
16b
100
AcDbEntity
  8
box-20151219_220614_231108
 62
7
100
AcDbLine
 10
126.923094
 20
116.000001
 30
0.0
 11
126.923094
 21
109.999992
 31
0.0
  0
LINE
  5
16c
100
AcDbEntity
  8
box-20151219_220614_231108
 62
7
100
AcDbLine
 10
126.923094
 20
109.999992
 30
0.0
 11
141.538466
 21
109.999992
 31
0.0
  0
LINE
  5
16d
100
AcDbEntity
  8
box-20151219_220614_231108
 62
7
100
AcDbLine
 10
141.538466
 20
116.000001
 30
0.0
 11
141.538466
 21
109.999992
 31
0.0
  0
LINE
  5
16e
100
AcDbEntity
  8
box-20151219_220614_231108
 62
7
100
AcDbLine
 10
141.538466
 20
116.000001
 30
0.0
 11
156.153838
 21
116.000001
 31
0.0
  0
LINE
  5
16f
100
AcDbEntity
  8
box-20151219_220614_231108
 62
7
100
AcDbLine
 10
156.153838
 20
116.000001
 30
0.0
 11
156.153838
 21
109.999992
 31
0.0
  0
LINE
  5
170
100
AcDbEntity
  8
box-20151219_220614_231108
 62
7
100
AcDbLine
 10
156.153838
 20
109.999992
 30
0.0
 11
170.769245
 21
109.999992
 31
0.0
  0
LINE
  5
171
100
AcDbEntity
  8
box-20151219_220614_231108
 62
7
100
AcDbLine
 10
170.769245
 20
116.000001
 30
0.0
 11
170.769245
 21
109.999992
 31
0.0
  0
LINE
  5
172
100
AcDbEntity
  8
box-20151219_220614_231108
 62
7
100
AcDbLine
 10
170.769245
 20
116.000001
 30
0.0
 11
185.384616
 21
116.000001
 31
0.0
  0
LINE
  5
173
100
AcDbEntity
  8
box-20151219_220614_231108
 62
7
100
AcDbLine
 10
185.384616
 20
116.000001
 30
0.0
 11
185.384616
 21
109.999992
 31
0.0
  0
LINE
  5
174
100
AcDbEntity
  8
box-20151219_220614_231108
 62
7
100
AcDbLine
 10
185.384616
 20
109.999992
 30
0.0
 11
194.000014
 21
109.999992
 31
0.0
  0
LINE
  5
175
100
AcDbEntity
  8
box-20151219_220614_231108
 62
7
100
AcDbLine
 10
10.000001
 20
199.999988
 30
0.0
 11
24.615383
 21
199.999988
 31
0.0
  0
LINE
  5
176
100
AcDbEntity
  8
box-20151219_220614_231108
 62
7
100
AcDbLine
 10
24.615383
 20
199.999988
 30
0.0
 11
24.615383
 21
194.000014
 31
0.0
  0
LINE
  5
177
100
AcDbEntity
  8
box-20151219_220614_231108
 62
7
100
AcDbLine
 10
24.615383
 20
194.000014
 30
0.0
 11
39.230759
 21
194.000014
 31
0.0
  0
LINE
  5
178
100
AcDbEntity
  8
box-20151219_220614_231108
 62
7
100
AcDbLine
 10
39.230759
 20
199.999988
 30
0.0
 11
39.230759
 21
194.000014
 31
0.0
  0
LINE
  5
179
100
AcDbEntity
  8
box-20151219_220614_231108
 62
7
100
AcDbLine
 10
39.230759
 20
199.999988
 30
0.0
 11
53.846166
 21
199.999988
 31
0.0
  0
LINE
  5
17a
100
AcDbEntity
  8
box-20151219_220614_231108
 62
7
100
AcDbLine
 10
53.846166
 20
199.999988
 30
0.0
 11
53.846166
 21
194.000014
 31
0.0
  0
LINE
  5
17b
100
AcDbEntity
  8
box-20151219_220614_231108
 62
7
100
AcDbLine
 10
53.846166
 20
194.000014
 30
0.0
 11
68.461537
 21
194.000014
 31
0.0
  0
LINE
  5
17c
100
AcDbEntity
  8
box-20151219_220614_231108
 62
7
100
AcDbLine
 10
68.461537
 20
199.999988
 30
0.0
 11
68.461537
 21
194.000014
 31
0.0
  0
LINE
  5
17d
100
AcDbEntity
  8
box-20151219_220614_231108
 62
7
100
AcDbLine
 10
68.461537
 20
199.999988
 30
0.0
 11
83.076909
 21
199.999988
 31
0.0
  0
LINE
  5
17e
100
AcDbEntity
  8
box-20151219_220614_231108
 62
7
100
AcDbLine
 10
83.076909
 20
199.999988
 30
0.0
 11
83.076909
 21
194.000014
 31
0.0
  0
LINE
  5
17f
100
AcDbEntity
  8
box-20151219_220614_231108
 62
7
100
AcDbLine
 10
83.076909
 20
194.000014
 30
0.0
 11
97.692316
 21
194.000014
 31
0.0
  0
LINE
  5
180
100
AcDbEntity
  8
box-20151219_220614_231108
 62
7
100
AcDbLine
 10
97.692316
 20
199.999988
 30
0.0
 11
97.692316
 21
194.000014
 31
0.0
  0
LINE
  5
181
100
AcDbEntity
  8
box-20151219_220614_231108
 62
7
100
AcDbLine
 10
97.692316
 20
199.999988
 30
0.0
 11
112.307687
 21
199.999988
 31
0.0
  0
LINE
  5
182
100
AcDbEntity
  8
box-20151219_220614_231108
 62
7
100
AcDbLine
 10
112.307688
 20
199.999988
 30
0.0
 11
112.307688
 21
194.000014
 31
0.0
  0
LINE
  5
183
100
AcDbEntity
  8
box-20151219_220614_231108
 62
7
100
AcDbLine
 10
112.307688
 20
194.000014
 30
0.0
 11
126.923094
 21
194.000014
 31
0.0
  0
LINE
  5
184
100
AcDbEntity
  8
box-20151219_220614_231108
 62
7
100
AcDbLine
 10
126.923094
 20
199.999988
 30
0.0
 11
126.923094
 21
194.000014
 31
0.0
  0
LINE
  5
185
100
AcDbEntity
  8
box-20151219_220614_231108
 62
7
100
AcDbLine
 10
126.923094
 20
199.999988
 30
0.0
 11
141.538466
 21
199.999988
 31
0.0
  0
LINE
  5
186
100
AcDbEntity
  8
box-20151219_220614_231108
 62
7
100
AcDbLine
 10
141.538466
 20
199.999988
 30
0.0
 11
141.538466
 21
194.000014
 31
0.0
  0
LINE
  5
187
100
AcDbEntity
  8
box-20151219_220614_231108
 62
7
100
AcDbLine
 10
141.538466
 20
194.000014
 30
0.0
 11
156.153838
 21
194.000014
 31
0.0
  0
LINE
  5
188
100
AcDbEntity
  8
box-20151219_220614_231108
 62
7
100
AcDbLine
 10
156.153838
 20
199.999988
 30
0.0
 11
156.153838
 21
194.000014
 31
0.0
  0
LINE
  5
189
100
AcDbEntity
  8
box-20151219_220614_231108
 62
7
100
AcDbLine
 10
156.153838
 20
199.999988
 30
0.0
 11
170.769245
 21
199.999988
 31
0.0
  0
LINE
  5
18a
100
AcDbEntity
  8
box-20151219_220614_231108
 62
7
100
AcDbLine
 10
170.769245
 20
199.999988
 30
0.0
 11
170.769245
 21
194.000014
 31
0.0
  0
LINE
  5
18b
100
AcDbEntity
  8
box-20151219_220614_231108
 62
7
100
AcDbLine
 10
170.769245
 20
194.000014
 30
0.0
 11
185.384616
 21
194.000014
 31
0.0
  0
LINE
  5
18c
100
AcDbEntity
  8
box-20151219_220614_231108
 62
7
100
AcDbLine
 10
185.384616
 20
199.999988
 30
0.0
 11
185.384616
 21
194.000014
 31
0.0
  0
LINE
  5
18d
100
AcDbEntity
  8
box-20151219_220614_231108
 62
7
100
AcDbLine
 10
185.384616
 20
199.999988
 30
0.0
 11
194.000014
 21
199.999988
 31
0.0
  0
LINE
  5
18e
100
AcDbEntity
  8
box-20151219_220614_231108
 62
7
100
AcDbLine
 10
10.000001
 20
109.999992
 30
0.0
 11
10.000001
 21
127.999984
 31
0.0
  0
LINE
  5
18f
100
AcDbEntity
  8
box-20151219_220614_231108
 62
7
100
AcDbLine
 10
16.000000
 20
127.999984
 30
0.0
 11
10.000001
 21
127.999984
 31
0.0
  0
LINE
  5
190
100
AcDbEntity
  8
box-20151219_220614_231108
 62
7
100
AcDbLine
 10
16.000000
 20
127.999984
 30
0.0
 11
16.000000
 21
146.000011
 31
0.0
  0
LINE
  5
191
100
AcDbEntity
  8
box-20151219_220614_231108
 62
7
100
AcDbLine
 10
16.000000
 20
146.000011
 30
0.0
 11
10.000001
 21
146.000011
 31
0.0
  0
LINE
  5
192
100
AcDbEntity
  8
box-20151219_220614_231108
 62
7
100
AcDbLine
 10
10.000001
 20
146.000011
 30
0.0
 11
10.000001
 21
164.000004
 31
0.0
  0
LINE
  5
193
100
AcDbEntity
  8
box-20151219_220614_231108
 62
7
100
AcDbLine
 10
16.000000
 20
164.000004
 30
0.0
 11
10.000001
 21
164.000004
 31
0.0
  0
LINE
  5
194
100
AcDbEntity
  8
box-20151219_220614_231108
 62
7
100
AcDbLine
 10
16.000000
 20
164.000004
 30
0.0
 11
16.000000
 21
181.999996
 31
0.0
  0
LINE
  5
195
100
AcDbEntity
  8
box-20151219_220614_231108
 62
7
100
AcDbLine
 10
16.000000
 20
181.999996
 30
0.0
 11
10.000001
 21
181.999996
 31
0.0
  0
LINE
  5
196
100
AcDbEntity
  8
box-20151219_220614_231108
 62
7
100
AcDbLine
 10
10.000001
 20
181.999996
 30
0.0
 11
10.000001
 21
199.999988
 31
0.0
  0
LINE
  5
197
100
AcDbEntity
  8
box-20151219_220614_231108
 62
7
100
AcDbLine
 10
194.000014
 20
109.999992
 30
0.0
 11
194.000014
 21
127.999984
 31
0.0
  0
LINE
  5
198
100
AcDbEntity
  8
box-20151219_220614_231108
 62
7
100
AcDbLine
 10
199.999988
 20
127.999984
 30
0.0
 11
194.000014
 21
127.999984
 31
0.0
  0
LINE
  5
199
100
AcDbEntity
  8
box-20151219_220614_231108
 62
7
100
AcDbLine
 10
199.999988
 20
127.999984
 30
0.0
 11
199.999988
 21
146.000011
 31
0.0
  0
LINE
  5
19a
100
AcDbEntity
  8
box-20151219_220614_231108
 62
7
100
AcDbLine
 10
199.999988
 20
146.000011
 30
0.0
 11
194.000014
 21
146.000011
 31
0.0
  0
LINE
  5
19b
100
AcDbEntity
  8
box-20151219_220614_231108
 62
7
100
AcDbLine
 10
194.000014
 20
146.000011
 30
0.0
 11
194.000014
 21
164.000004
 31
0.0
  0
LINE
  5
19c
100
AcDbEntity
  8
box-20151219_220614_231108
 62
7
100
AcDbLine
 10
199.999988
 20
164.000004
 30
0.0
 11
194.000014
 21
164.000004
 31
0.0
  0
LINE
  5
19d
100
AcDbEntity
  8
box-20151219_220614_231108
 62
7
100
AcDbLine
 10
199.999988
 20
164.000004
 30
0.0
 11
199.999988
 21
181.999996
 31
0.0
  0
LINE
  5
19e
100
AcDbEntity
  8
box-20151219_220614_231108
 62
7
100
AcDbLine
 10
199.999988
 20
181.999996
 30
0.0
 11
194.000014
 21
181.999996
 31
0.0
  0
LINE
  5
19f
100
AcDbEntity
  8
box-20151219_220614_231108
 62
7
100
AcDbLine
 10
194.000014
 20
181.999996
 30
0.0
 11
194.000014
 21
199.999988
 31
0.0
  0
LINE
  5
1a0
100
AcDbEntity
  8
box-20151219_220614_231108
 62
7
100
AcDbLine
 10
216.000012
 20
116.000001
 30
0.0
 11
224.736836
 21
116.000001
 31
0.0
  0
LINE
  5
1a1
100
AcDbEntity
  8
box-20151219_220614_231108
 62
7
100
AcDbLine
 10
224.736836
 20
116.000001
 30
0.0
 11
224.736836
 21
109.999992
 31
0.0
  0
LINE
  5
1a2
100
AcDbEntity
  8
box-20151219_220614_231108
 62
7
100
AcDbLine
 10
224.736836
 20
109.999992
 30
0.0
 11
239.473669
 21
109.999992
 31
0.0
  0
LINE
  5
1a3
100
AcDbEntity
  8
box-20151219_220614_231108
 62
7
100
AcDbLine
 10
239.473669
 20
116.000001
 30
0.0
 11
239.473669
 21
109.999992
 31
0.0
  0
LINE
  5
1a4
100
AcDbEntity
  8
box-20151219_220614_231108
 62
7
100
AcDbLine
 10
239.473669
 20
116.000001
 30
0.0
 11
254.210538
 21
116.000001
 31
0.0
  0
LINE
  5
1a5
100
AcDbEntity
  8
box-20151219_220614_231108
 62
7
100
AcDbLine
 10
254.210538
 20
116.000001
 30
0.0
 11
254.210538
 21
109.999992
 31
0.0
  0
LINE
  5
1a6
100
AcDbEntity
  8
box-20151219_220614_231108
 62
7
100
AcDbLine
 10
254.210538
 20
109.999992
 30
0.0
 11
268.947371
 21
109.999992
 31
0.0
  0
LINE
  5
1a7
100
AcDbEntity
  8
box-20151219_220614_231108
 62
7
100
AcDbLine
 10
268.947371
 20
116.000001
 30
0.0
 11
268.947371
 21
109.999992
 31
0.0
  0
LINE
  5
1a8
100
AcDbEntity
  8
box-20151219_220614_231108
 62
7
100
AcDbLine
 10
268.947371
 20
116.000001
 30
0.0
 11
283.684204
 21
116.000001
 31
0.0
  0
LINE
  5
1a9
100
AcDbEntity
  8
box-20151219_220614_231108
 62
7
100
AcDbLine
 10
283.684204
 20
116.000001
 30
0.0
 11
283.684204
 21
109.999992
 31
0.0
  0
LINE
  5
1aa
100
AcDbEntity
  8
box-20151219_220614_231108
 62
7
100
AcDbLine
 10
283.684204
 20
109.999992
 30
0.0
 11
298.421037
 21
109.999992
 31
0.0
  0
LINE
  5
1ab
100
AcDbEntity
  8
box-20151219_220614_231108
 62
7
100
AcDbLine
 10
298.421037
 20
116.000001
 30
0.0
 11
298.421037
 21
109.999992
 31
0.0
  0
LINE
  5
1ac
100
AcDbEntity
  8
box-20151219_220614_231108
 62
7
100
AcDbLine
 10
298.421037
 20
116.000001
 30
0.0
 11
313.157905
 21
116.000001
 31
0.0
  0
LINE
  5
1ad
100
AcDbEntity
  8
box-20151219_220614_231108
 62
7
100
AcDbLine
 10
313.157905
 20
116.000001
 30
0.0
 11
313.157905
 21
109.999992
 31
0.0
  0
LINE
  5
1ae
100
AcDbEntity
  8
box-20151219_220614_231108
 62
7
100
AcDbLine
 10
313.157905
 20
109.999992
 30
0.0
 11
327.894738
 21
109.999992
 31
0.0
  0
LINE
  5
1af
100
AcDbEntity
  8
box-20151219_220614_231108
 62
7
100
AcDbLine
 10
327.894738
 20
116.000001
 30
0.0
 11
327.894738
 21
109.999992
 31
0.0
  0
LINE
  5
1b0
100
AcDbEntity
  8
box-20151219_220614_231108
 62
7
100
AcDbLine
 10
327.894738
 20
116.000001
 30
0.0
 11
342.631571
 21
116.000001
 31
0.0
  0
LINE
  5
1b1
100
AcDbEntity
  8
box-20151219_220614_231108
 62
7
100
AcDbLine
 10
342.631571
 20
116.000001
 30
0.0
 11
342.631571
 21
109.999992
 31
0.0
  0
LINE
  5
1b2
100
AcDbEntity
  8
box-20151219_220614_231108
 62
7
100
AcDbLine
 10
342.631571
 20
109.999992
 30
0.0
 11
357.368475
 21
109.999992
 31
0.0
  0
LINE
  5
1b3
100
AcDbEntity
  8
box-20151219_220614_231108
 62
7
100
AcDbLine
 10
357.368475
 20
116.000001
 30
0.0
 11
357.368475
 21
109.999992
 31
0.0
  0
LINE
  5
1b4
100
AcDbEntity
  8
box-20151219_220614_231108
 62
7
100
AcDbLine
 10
357.368475
 20
116.000001
 30
0.0
 11
372.105414
 21
116.000001
 31
0.0
  0
LINE
  5
1b5
100
AcDbEntity
  8
box-20151219_220614_231108
 62
7
100
AcDbLine
 10
372.105414
 20
116.000001
 30
0.0
 11
372.105414
 21
109.999992
 31
0.0
  0
LINE
  5
1b6
100
AcDbEntity
  8
box-20151219_220614_231108
 62
7
100
AcDbLine
 10
372.105414
 20
109.999992
 30
0.0
 11
386.842000
 21
109.999992
 31
0.0
  0
LINE
  5
1b7
100
AcDbEntity
  8
box-20151219_220614_231108
 62
7
100
AcDbLine
 10
386.842000
 20
116.000001
 30
0.0
 11
386.842000
 21
109.999992
 31
0.0
  0
LINE
  5
1b8
100
AcDbEntity
  8
box-20151219_220614_231108
 62
7
100
AcDbLine
 10
386.842000
 20
116.000001
 30
0.0
 11
401.578939
 21
116.000001
 31
0.0
  0
LINE
  5
1b9
100
AcDbEntity
  8
box-20151219_220614_231108
 62
7
100
AcDbLine
 10
401.578939
 20
116.000001
 30
0.0
 11
401.578939
 21
109.999992
 31
0.0
  0
LINE
  5
1ba
100
AcDbEntity
  8
box-20151219_220614_231108
 62
7
100
AcDbLine
 10
401.578939
 20
109.999992
 30
0.0
 11
416.315878
 21
109.999992
 31
0.0
  0
LINE
  5
1bb
100
AcDbEntity
  8
box-20151219_220614_231108
 62
7
100
AcDbLine
 10
416.315878
 20
116.000001
 30
0.0
 11
416.315878
 21
109.999992
 31
0.0
  0
LINE
  5
1bc
100
AcDbEntity
  8
box-20151219_220614_231108
 62
7
100
AcDbLine
 10
416.315878
 20
116.000001
 30
0.0
 11
431.052464
 21
116.000001
 31
0.0
  0
LINE
  5
1bd
100
AcDbEntity
  8
box-20151219_220614_231108
 62
7
100
AcDbLine
 10
431.052464
 20
116.000001
 30
0.0
 11
431.052464
 21
109.999992
 31
0.0
  0
LINE
  5
1be
100
AcDbEntity
  8
box-20151219_220614_231108
 62
7
100
AcDbLine
 10
431.052464
 20
109.999992
 30
0.0
 11
445.789403
 21
109.999992
 31
0.0
  0
LINE
  5
1bf
100
AcDbEntity
  8
box-20151219_220614_231108
 62
7
100
AcDbLine
 10
445.789403
 20
116.000001
 30
0.0
 11
445.789403
 21
109.999992
 31
0.0
  0
LINE
  5
1c0
100
AcDbEntity
  8
box-20151219_220614_231108
 62
7
100
AcDbLine
 10
445.789403
 20
116.000001
 30
0.0
 11
460.526342
 21
116.000001
 31
0.0
  0
LINE
  5
1c1
100
AcDbEntity
  8
box-20151219_220614_231108
 62
7
100
AcDbLine
 10
460.526342
 20
116.000001
 30
0.0
 11
460.526342
 21
109.999992
 31
0.0
  0
LINE
  5
1c2
100
AcDbEntity
  8
box-20151219_220614_231108
 62
7
100
AcDbLine
 10
460.526342
 20
109.999992
 30
0.0
 11
475.263281
 21
109.999992
 31
0.0
  0
LINE
  5
1c3
100
AcDbEntity
  8
box-20151219_220614_231108
 62
7
100
AcDbLine
 10
475.263281
 20
116.000001
 30
0.0
 11
475.263281
 21
109.999992
 31
0.0
  0
LINE
  5
1c4
100
AcDbEntity
  8
box-20151219_220614_231108
 62
7
100
AcDbLine
 10
475.263281
 20
116.000001
 30
0.0
 11
484.000175
 21
116.000001
 31
0.0
  0
LINE
  5
1c5
100
AcDbEntity
  8
box-20151219_220614_231108
 62
7
100
AcDbLine
 10
216.000012
 20
293.999991
 30
0.0
 11
224.736836
 21
293.999991
 31
0.0
  0
LINE
  5
1c6
100
AcDbEntity
  8
box-20151219_220614_231108
 62
7
100
AcDbLine
 10
224.736836
 20
300.000000
 30
0.0
 11
224.736836
 21
293.999991
 31
0.0
  0
LINE
  5
1c7
100
AcDbEntity
  8
box-20151219_220614_231108
 62
7
100
AcDbLine
 10
224.736836
 20
300.000000
 30
0.0
 11
239.473669
 21
300.000000
 31
0.0
  0
LINE
  5
1c8
100
AcDbEntity
  8
box-20151219_220614_231108
 62
7
100
AcDbLine
 10
239.473669
 20
300.000000
 30
0.0
 11
239.473669
 21
293.999991
 31
0.0
  0
LINE
  5
1c9
100
AcDbEntity
  8
box-20151219_220614_231108
 62
7
100
AcDbLine
 10
239.473669
 20
293.999991
 30
0.0
 11
254.210538
 21
293.999991
 31
0.0
  0
LINE
  5
1ca
100
AcDbEntity
  8
box-20151219_220614_231108
 62
7
100
AcDbLine
 10
254.210538
 20
300.000000
 30
0.0
 11
254.210538
 21
293.999991
 31
0.0
  0
LINE
  5
1cb
100
AcDbEntity
  8
box-20151219_220614_231108
 62
7
100
AcDbLine
 10
254.210538
 20
300.000000
 30
0.0
 11
268.947371
 21
300.000000
 31
0.0
  0
LINE
  5
1cc
100
AcDbEntity
  8
box-20151219_220614_231108
 62
7
100
AcDbLine
 10
268.947371
 20
300.000000
 30
0.0
 11
268.947371
 21
293.999991
 31
0.0
  0
LINE
  5
1cd
100
AcDbEntity
  8
box-20151219_220614_231108
 62
7
100
AcDbLine
 10
268.947371
 20
293.999991
 30
0.0
 11
283.684204
 21
293.999991
 31
0.0
  0
LINE
  5
1ce
100
AcDbEntity
  8
box-20151219_220614_231108
 62
7
100
AcDbLine
 10
283.684204
 20
300.000000
 30
0.0
 11
283.684204
 21
293.999991
 31
0.0
  0
LINE
  5
1cf
100
AcDbEntity
  8
box-20151219_220614_231108
 62
7
100
AcDbLine
 10
283.684204
 20
300.000000
 30
0.0
 11
298.421037
 21
300.000000
 31
0.0
  0
LINE
  5
1d0
100
AcDbEntity
  8
box-20151219_220614_231108
 62
7
100
AcDbLine
 10
298.421037
 20
300.000000
 30
0.0
 11
298.421037
 21
293.999991
 31
0.0
  0
LINE
  5
1d1
100
AcDbEntity
  8
box-20151219_220614_231108
 62
7
100
AcDbLine
 10
298.421037
 20
293.999991
 30
0.0
 11
313.157905
 21
293.999991
 31
0.0
  0
LINE
  5
1d2
100
AcDbEntity
  8
box-20151219_220614_231108
 62
7
100
AcDbLine
 10
313.157905
 20
300.000000
 30
0.0
 11
313.157905
 21
293.999991
 31
0.0
  0
LINE
  5
1d3
100
AcDbEntity
  8
box-20151219_220614_231108
 62
7
100
AcDbLine
 10
313.157905
 20
300.000000
 30
0.0
 11
327.894738
 21
300.000000
 31
0.0
  0
LINE
  5
1d4
100
AcDbEntity
  8
box-20151219_220614_231108
 62
7
100
AcDbLine
 10
327.894738
 20
300.000000
 30
0.0
 11
327.894738
 21
293.999991
 31
0.0
  0
LINE
  5
1d5
100
AcDbEntity
  8
box-20151219_220614_231108
 62
7
100
AcDbLine
 10
327.894738
 20
293.999991
 30
0.0
 11
342.631571
 21
293.999991
 31
0.0
  0
LINE
  5
1d6
100
AcDbEntity
  8
box-20151219_220614_231108
 62
7
100
AcDbLine
 10
342.631571
 20
300.000000
 30
0.0
 11
342.631571
 21
293.999991
 31
0.0
  0
LINE
  5
1d7
100
AcDbEntity
  8
box-20151219_220614_231108
 62
7
100
AcDbLine
 10
342.631571
 20
300.000000
 30
0.0
 11
357.368475
 21
300.000000
 31
0.0
  0
LINE
  5
1d8
100
AcDbEntity
  8
box-20151219_220614_231108
 62
7
100
AcDbLine
 10
357.368475
 20
300.000000
 30
0.0
 11
357.368475
 21
293.999991
 31
0.0
  0
LINE
  5
1d9
100
AcDbEntity
  8
box-20151219_220614_231108
 62
7
100
AcDbLine
 10
357.368475
 20
293.999991
 30
0.0
 11
372.105414
 21
293.999991
 31
0.0
  0
LINE
  5
1da
100
AcDbEntity
  8
box-20151219_220614_231108
 62
7
100
AcDbLine
 10
372.105414
 20
300.000000
 30
0.0
 11
372.105414
 21
293.999991
 31
0.0
  0
LINE
  5
1db
100
AcDbEntity
  8
box-20151219_220614_231108
 62
7
100
AcDbLine
 10
372.105414
 20
300.000000
 30
0.0
 11
386.842000
 21
300.000000
 31
0.0
  0
LINE
  5
1dc
100
AcDbEntity
  8
box-20151219_220614_231108
 62
7
100
AcDbLine
 10
386.842000
 20
300.000000
 30
0.0
 11
386.842000
 21
293.999991
 31
0.0
  0
LINE
  5
1dd
100
AcDbEntity
  8
box-20151219_220614_231108
 62
7
100
AcDbLine
 10
386.842000
 20
293.999991
 30
0.0
 11
401.578939
 21
293.999991
 31
0.0
  0
LINE
  5
1de
100
AcDbEntity
  8
box-20151219_220614_231108
 62
7
100
AcDbLine
 10
401.578939
 20
300.000000
 30
0.0
 11
401.578939
 21
293.999991
 31
0.0
  0
LINE
  5
1df
100
AcDbEntity
  8
box-20151219_220614_231108
 62
7
100
AcDbLine
 10
401.578939
 20
300.000000
 30
0.0
 11
416.315878
 21
300.000000
 31
0.0
  0
LINE
  5
1e0
100
AcDbEntity
  8
box-20151219_220614_231108
 62
7
100
AcDbLine
 10
416.315878
 20
300.000000
 30
0.0
 11
416.315878
 21
293.999991
 31
0.0
  0
LINE
  5
1e1
100
AcDbEntity
  8
box-20151219_220614_231108
 62
7
100
AcDbLine
 10
416.315878
 20
293.999991
 30
0.0
 11
431.052464
 21
293.999991
 31
0.0
  0
LINE
  5
1e2
100
AcDbEntity
  8
box-20151219_220614_231108
 62
7
100
AcDbLine
 10
431.052464
 20
300.000000
 30
0.0
 11
431.052464
 21
293.999991
 31
0.0
  0
LINE
  5
1e3
100
AcDbEntity
  8
box-20151219_220614_231108
 62
7
100
AcDbLine
 10
431.052464
 20
300.000000
 30
0.0
 11
445.789403
 21
300.000000
 31
0.0
  0
LINE
  5
1e4
100
AcDbEntity
  8
box-20151219_220614_231108
 62
7
100
AcDbLine
 10
445.789403
 20
300.000000
 30
0.0
 11
445.789403
 21
293.999991
 31
0.0
  0
LINE
  5
1e5
100
AcDbEntity
  8
box-20151219_220614_231108
 62
7
100
AcDbLine
 10
445.789403
 20
293.999991
 30
0.0
 11
460.526342
 21
293.999991
 31
0.0
  0
LINE
  5
1e6
100
AcDbEntity
  8
box-20151219_220614_231108
 62
7
100
AcDbLine
 10
460.526342
 20
300.000000
 30
0.0
 11
460.526342
 21
293.999991
 31
0.0
  0
LINE
  5
1e7
100
AcDbEntity
  8
box-20151219_220614_231108
 62
7
100
AcDbLine
 10
460.526342
 20
300.000000
 30
0.0
 11
475.263281
 21
300.000000
 31
0.0
  0
LINE
  5
1e8
100
AcDbEntity
  8
box-20151219_220614_231108
 62
7
100
AcDbLine
 10
475.263281
 20
300.000000
 30
0.0
 11
475.263281
 21
293.999991
 31
0.0
  0
LINE
  5
1e9
100
AcDbEntity
  8
box-20151219_220614_231108
 62
7
100
AcDbLine
 10
475.263281
 20
293.999991
 30
0.0
 11
484.000175
 21
293.999991
 31
0.0
  0
LINE
  5
1ea
100
AcDbEntity
  8
box-20151219_220614_231108
 62
7
100
AcDbLine
 10
216.000012
 20
116.000001
 30
0.0
 11
216.000012
 21
124.615399
 31
0.0
  0
LINE
  5
1eb
100
AcDbEntity
  8
box-20151219_220614_231108
 62
7
100
AcDbLine
 10
216.000012
 20
124.615399
 30
0.0
 11
210.000003
 21
124.615399
 31
0.0
  0
LINE
  5
1ec
100
AcDbEntity
  8
box-20151219_220614_231108
 62
7
100
AcDbLine
 10
210.000003
 20
124.615399
 30
0.0
 11
210.000003
 21
139.230770
 31
0.0
  0
LINE
  5
1ed
100
AcDbEntity
  8
box-20151219_220614_231108
 62
7
100
AcDbLine
 10
216.000012
 20
139.230770
 30
0.0
 11
210.000003
 21
139.230770
 31
0.0
  0
LINE
  5
1ee
100
AcDbEntity
  8
box-20151219_220614_231108
 62
7
100
AcDbLine
 10
216.000012
 20
139.230770
 30
0.0
 11
216.000012
 21
153.846142
 31
0.0
  0
LINE
  5
1ef
100
AcDbEntity
  8
box-20151219_220614_231108
 62
7
100
AcDbLine
 10
216.000012
 20
153.846142
 30
0.0
 11
210.000003
 21
153.846142
 31
0.0
  0
LINE
  5
1f0
100
AcDbEntity
  8
box-20151219_220614_231108
 62
7
100
AcDbLine
 10
210.000003
 20
153.846142
 30
0.0
 11
210.000003
 21
168.461549
 31
0.0
  0
LINE
  5
1f1
100
AcDbEntity
  8
box-20151219_220614_231108
 62
7
100
AcDbLine
 10
216.000012
 20
168.461549
 30
0.0
 11
210.000003
 21
168.461549
 31
0.0
  0
LINE
  5
1f2
100
AcDbEntity
  8
box-20151219_220614_231108
 62
7
100
AcDbLine
 10
216.000012
 20
168.461549
 30
0.0
 11
216.000012
 21
183.076921
 31
0.0
  0
LINE
  5
1f3
100
AcDbEntity
  8
box-20151219_220614_231108
 62
7
100
AcDbLine
 10
216.000012
 20
183.076921
 30
0.0
 11
210.000003
 21
183.076921
 31
0.0
  0
LINE
  5
1f4
100
AcDbEntity
  8
box-20151219_220614_231108
 62
7
100
AcDbLine
 10
210.000003
 20
183.076921
 30
0.0
 11
210.000003
 21
197.692292
 31
0.0
  0
LINE
  5
1f5
100
AcDbEntity
  8
box-20151219_220614_231108
 62
7
100
AcDbLine
 10
216.000012
 20
197.692292
 30
0.0
 11
210.000003
 21
197.692292
 31
0.0
  0
LINE
  5
1f6
100
AcDbEntity
  8
box-20151219_220614_231108
 62
7
100
AcDbLine
 10
216.000012
 20
197.692292
 30
0.0
 11
216.000012
 21
212.307699
 31
0.0
  0
LINE
  5
1f7
100
AcDbEntity
  8
box-20151219_220614_231108
 62
7
100
AcDbLine
 10
216.000012
 20
212.307699
 30
0.0
 11
210.000003
 21
212.307699
 31
0.0
  0
LINE
  5
1f8
100
AcDbEntity
  8
box-20151219_220614_231108
 62
7
100
AcDbLine
 10
210.000003
 20
212.307699
 30
0.0
 11
210.000003
 21
226.923071
 31
0.0
  0
LINE
  5
1f9
100
AcDbEntity
  8
box-20151219_220614_231108
 62
7
100
AcDbLine
 10
216.000012
 20
226.923071
 30
0.0
 11
210.000003
 21
226.923071
 31
0.0
  0
LINE
  5
1fa
100
AcDbEntity
  8
box-20151219_220614_231108
 62
7
100
AcDbLine
 10
216.000012
 20
226.923071
 30
0.0
 11
216.000012
 21
241.538478
 31
0.0
  0
LINE
  5
1fb
100
AcDbEntity
  8
box-20151219_220614_231108
 62
7
100
AcDbLine
 10
216.000012
 20
241.538478
 30
0.0
 11
210.000003
 21
241.538478
 31
0.0
  0
LINE
  5
1fc
100
AcDbEntity
  8
box-20151219_220614_231108
 62
7
100
AcDbLine
 10
210.000003
 20
241.538478
 30
0.0
 11
210.000003
 21
256.153849
 31
0.0
  0
LINE
  5
1fd
100
AcDbEntity
  8
box-20151219_220614_231108
 62
7
100
AcDbLine
 10
216.000012
 20
256.153849
 30
0.0
 11
210.000003
 21
256.153849
 31
0.0
  0
LINE
  5
1fe
100
AcDbEntity
  8
box-20151219_220614_231108
 62
7
100
AcDbLine
 10
216.000012
 20
256.153849
 30
0.0
 11
216.000012
 21
270.769221
 31
0.0
  0
LINE
  5
1ff
100
AcDbEntity
  8
box-20151219_220614_231108
 62
7
100
AcDbLine
 10
216.000012
 20
270.769221
 30
0.0
 11
210.000003
 21
270.769221
 31
0.0
  0
LINE
  5
200
100
AcDbEntity
  8
box-20151219_220614_231108
 62
7
100
AcDbLine
 10
210.000003
 20
270.769221
 30
0.0
 11
210.000003
 21
285.384628
 31
0.0
  0
LINE
  5
201
100
AcDbEntity
  8
box-20151219_220614_231108
 62
7
100
AcDbLine
 10
216.000012
 20
285.384628
 30
0.0
 11
210.000003
 21
285.384628
 31
0.0
  0
LINE
  5
202
100
AcDbEntity
  8
box-20151219_220614_231108
 62
7
100
AcDbLine
 10
216.000012
 20
285.384628
 30
0.0
 11
216.000012
 21
293.999991
 31
0.0
  0
LINE
  5
203
100
AcDbEntity
  8
box-20151219_220614_231108
 62
7
100
AcDbLine
 10
484.000175
 20
116.000001
 30
0.0
 11
484.000175
 21
124.615399
 31
0.0
  0
LINE
  5
204
100
AcDbEntity
  8
box-20151219_220614_231108
 62
7
100
AcDbLine
 10
489.999867
 20
124.615399
 30
0.0
 11
484.000175
 21
124.615399
 31
0.0
  0
LINE
  5
205
100
AcDbEntity
  8
box-20151219_220614_231108
 62
7
100
AcDbLine
 10
489.999867
 20
124.615399
 30
0.0
 11
489.999867
 21
139.230770
 31
0.0
  0
LINE
  5
206
100
AcDbEntity
  8
box-20151219_220614_231108
 62
7
100
AcDbLine
 10
489.999867
 20
139.230770
 30
0.0
 11
484.000175
 21
139.230770
 31
0.0
  0
LINE
  5
207
100
AcDbEntity
  8
box-20151219_220614_231108
 62
7
100
AcDbLine
 10
484.000175
 20
139.230770
 30
0.0
 11
484.000175
 21
153.846142
 31
0.0
  0
LINE
  5
208
100
AcDbEntity
  8
box-20151219_220614_231108
 62
7
100
AcDbLine
 10
489.999867
 20
153.846142
 30
0.0
 11
484.000175
 21
153.846142
 31
0.0
  0
LINE
  5
209
100
AcDbEntity
  8
box-20151219_220614_231108
 62
7
100
AcDbLine
 10
489.999867
 20
153.846142
 30
0.0
 11
489.999867
 21
168.461549
 31
0.0
  0
LINE
  5
20a
100
AcDbEntity
  8
box-20151219_220614_231108
 62
7
100
AcDbLine
 10
489.999867
 20
168.461549
 30
0.0
 11
484.000175
 21
168.461549
 31
0.0
  0
LINE
  5
20b
100
AcDbEntity
  8
box-20151219_220614_231108
 62
7
100
AcDbLine
 10
484.000175
 20
168.461549
 30
0.0
 11
484.000175
 21
183.076921
 31
0.0
  0
LINE
  5
20c
100
AcDbEntity
  8
box-20151219_220614_231108
 62
7
100
AcDbLine
 10
489.999867
 20
183.076921
 30
0.0
 11
484.000175
 21
183.076921
 31
0.0
  0
LINE
  5
20d
100
AcDbEntity
  8
box-20151219_220614_231108
 62
7
100
AcDbLine
 10
489.999867
 20
183.076921
 30
0.0
 11
489.999867
 21
197.692292
 31
0.0
  0
LINE
  5
20e
100
AcDbEntity
  8
box-20151219_220614_231108
 62
7
100
AcDbLine
 10
489.999867
 20
197.692292
 30
0.0
 11
484.000175
 21
197.692292
 31
0.0
  0
LINE
  5
20f
100
AcDbEntity
  8
box-20151219_220614_231108
 62
7
100
AcDbLine
 10
484.000175
 20
197.692292
 30
0.0
 11
484.000175
 21
212.307699
 31
0.0
  0
LINE
  5
210
100
AcDbEntity
  8
box-20151219_220614_231108
 62
7
100
AcDbLine
 10
489.999867
 20
212.307699
 30
0.0
 11
484.000175
 21
212.307699
 31
0.0
  0
LINE
  5
211
100
AcDbEntity
  8
box-20151219_220614_231108
 62
7
100
AcDbLine
 10
489.999867
 20
212.307699
 30
0.0
 11
489.999867
 21
226.923071
 31
0.0
  0
LINE
  5
212
100
AcDbEntity
  8
box-20151219_220614_231108
 62
7
100
AcDbLine
 10
489.999867
 20
226.923071
 30
0.0
 11
484.000175
 21
226.923071
 31
0.0
  0
LINE
  5
213
100
AcDbEntity
  8
box-20151219_220614_231108
 62
7
100
AcDbLine
 10
484.000175
 20
226.923071
 30
0.0
 11
484.000175
 21
241.538478
 31
0.0
  0
LINE
  5
214
100
AcDbEntity
  8
box-20151219_220614_231108
 62
7
100
AcDbLine
 10
489.999867
 20
241.538478
 30
0.0
 11
484.000175
 21
241.538478
 31
0.0
  0
LINE
  5
215
100
AcDbEntity
  8
box-20151219_220614_231108
 62
7
100
AcDbLine
 10
489.999867
 20
241.538478
 30
0.0
 11
489.999867
 21
256.153849
 31
0.0
  0
LINE
  5
216
100
AcDbEntity
  8
box-20151219_220614_231108
 62
7
100
AcDbLine
 10
489.999867
 20
256.153849
 30
0.0
 11
484.000175
 21
256.153849
 31
0.0
  0
LINE
  5
217
100
AcDbEntity
  8
box-20151219_220614_231108
 62
7
100
AcDbLine
 10
484.000175
 20
256.153849
 30
0.0
 11
484.000175
 21
270.769221
 31
0.0
  0
LINE
  5
218
100
AcDbEntity
  8
box-20151219_220614_231108
 62
7
100
AcDbLine
 10
489.999867
 20
270.769221
 30
0.0
 11
484.000175
 21
270.769221
 31
0.0
  0
LINE
  5
219
100
AcDbEntity
  8
box-20151219_220614_231108
 62
7
100
AcDbLine
 10
489.999867
 20
270.769221
 30
0.0
 11
489.999867
 21
285.384628
 31
0.0
  0
LINE
  5
21a
100
AcDbEntity
  8
box-20151219_220614_231108
 62
7
100
AcDbLine
 10
489.999867
 20
285.384628
 30
0.0
 11
484.000175
 21
285.384628
 31
0.0
  0
LINE
  5
21b
100
AcDbEntity
  8
box-20151219_220614_231108
 62
7
100
AcDbLine
 10
484.000175
 20
285.384628
 30
0.0
 11
484.000175
 21
293.999991
 31
0.0
  0
LINE
  5
21c
100
AcDbEntity
  8
box-20151219_220614_231108
 62
7
100
AcDbLine
 10
500.000058
 20
109.999992
 30
0.0
 11
514.615289
 21
109.999992
 31
0.0
  0
LINE
  5
21d
100
AcDbEntity
  8
box-20151219_220614_231108
 62
7
100
AcDbLine
 10
514.615289
 20
116.000001
 30
0.0
 11
514.615289
 21
109.999992
 31
0.0
  0
LINE
  5
21e
100
AcDbEntity
  8
box-20151219_220614_231108
 62
7
100
AcDbLine
 10
514.615289
 20
116.000001
 30
0.0
 11
529.230872
 21
116.000001
 31
0.0
  0
LINE
  5
21f
100
AcDbEntity
  8
box-20151219_220614_231108
 62
7
100
AcDbLine
 10
529.230872
 20
116.000001
 30
0.0
 11
529.230872
 21
109.999992
 31
0.0
  0
LINE
  5
220
100
AcDbEntity
  8
box-20151219_220614_231108
 62
7
100
AcDbLine
 10
529.230872
 20
109.999992
 30
0.0
 11
543.846103
 21
109.999992
 31
0.0
  0
LINE
  5
221
100
AcDbEntity
  8
box-20151219_220614_231108
 62
7
100
AcDbLine
 10
543.846103
 20
116.000001
 30
0.0
 11
543.846103
 21
109.999992
 31
0.0
  0
LINE
  5
222
100
AcDbEntity
  8
box-20151219_220614_231108
 62
7
100
AcDbLine
 10
543.846103
 20
116.000001
 30
0.0
 11
558.461686
 21
116.000001
 31
0.0
  0
LINE
  5
223
100
AcDbEntity
  8
box-20151219_220614_231108
 62
7
100
AcDbLine
 10
558.461686
 20
116.000001
 30
0.0
 11
558.461686
 21
109.999992
 31
0.0
  0
LINE
  5
224
100
AcDbEntity
  8
box-20151219_220614_231108
 62
7
100
AcDbLine
 10
558.461686
 20
109.999992
 30
0.0
 11
573.076917
 21
109.999992
 31
0.0
  0
LINE
  5
225
100
AcDbEntity
  8
box-20151219_220614_231108
 62
7
100
AcDbLine
 10
573.076917
 20
116.000001
 30
0.0
 11
573.076917
 21
109.999992
 31
0.0
  0
LINE
  5
226
100
AcDbEntity
  8
box-20151219_220614_231108
 62
7
100
AcDbLine
 10
573.076917
 20
116.000001
 30
0.0
 11
587.692147
 21
116.000001
 31
0.0
  0
LINE
  5
227
100
AcDbEntity
  8
box-20151219_220614_231108
 62
7
100
AcDbLine
 10
587.692147
 20
116.000001
 30
0.0
 11
587.692147
 21
109.999992
 31
0.0
  0
LINE
  5
228
100
AcDbEntity
  8
box-20151219_220614_231108
 62
7
100
AcDbLine
 10
587.692147
 20
109.999992
 30
0.0
 11
602.307731
 21
109.999992
 31
0.0
  0
LINE
  5
229
100
AcDbEntity
  8
box-20151219_220614_231108
 62
7
100
AcDbLine
 10
602.307731
 20
116.000001
 30
0.0
 11
602.307731
 21
109.999992
 31
0.0
  0
LINE
  5
22a
100
AcDbEntity
  8
box-20151219_220614_231108
 62
7
100
AcDbLine
 10
602.307731
 20
116.000001
 30
0.0
 11
616.922961
 21
116.000001
 31
0.0
  0
LINE
  5
22b
100
AcDbEntity
  8
box-20151219_220614_231108
 62
7
100
AcDbLine
 10
616.922961
 20
116.000001
 30
0.0
 11
616.922961
 21
109.999992
 31
0.0
  0
LINE
  5
22c
100
AcDbEntity
  8
box-20151219_220614_231108
 62
7
100
AcDbLine
 10
616.922961
 20
109.999992
 30
0.0
 11
631.538544
 21
109.999992
 31
0.0
  0
LINE
  5
22d
100
AcDbEntity
  8
box-20151219_220614_231108
 62
7
100
AcDbLine
 10
631.538544
 20
116.000001
 30
0.0
 11
631.538544
 21
109.999992
 31
0.0
  0
LINE
  5
22e
100
AcDbEntity
  8
box-20151219_220614_231108
 62
7
100
AcDbLine
 10
631.538544
 20
116.000001
 30
0.0
 11
646.153775
 21
116.000001
 31
0.0
  0
LINE
  5
22f
100
AcDbEntity
  8
box-20151219_220614_231108
 62
7
100
AcDbLine
 10
646.153775
 20
116.000001
 30
0.0
 11
646.153775
 21
109.999992
 31
0.0
  0
LINE
  5
230
100
AcDbEntity
  8
box-20151219_220614_231108
 62
7
100
AcDbLine
 10
646.153775
 20
109.999992
 30
0.0
 11
660.769358
 21
109.999992
 31
0.0
  0
LINE
  5
231
100
AcDbEntity
  8
box-20151219_220614_231108
 62
7
100
AcDbLine
 10
660.769358
 20
116.000001
 30
0.0
 11
660.769358
 21
109.999992
 31
0.0
  0
LINE
  5
232
100
AcDbEntity
  8
box-20151219_220614_231108
 62
7
100
AcDbLine
 10
660.769358
 20
116.000001
 30
0.0
 11
675.384589
 21
116.000001
 31
0.0
  0
LINE
  5
233
100
AcDbEntity
  8
box-20151219_220614_231108
 62
7
100
AcDbLine
 10
675.384589
 20
116.000001
 30
0.0
 11
675.384589
 21
109.999992
 31
0.0
  0
LINE
  5
234
100
AcDbEntity
  8
box-20151219_220614_231108
 62
7
100
AcDbLine
 10
675.384589
 20
109.999992
 30
0.0
 11
684.000128
 21
109.999992
 31
0.0
  0
LINE
  5
235
100
AcDbEntity
  8
box-20151219_220614_231108
 62
7
100
AcDbLine
 10
500.000058
 20
199.999988
 30
0.0
 11
514.615289
 21
199.999988
 31
0.0
  0
LINE
  5
236
100
AcDbEntity
  8
box-20151219_220614_231108
 62
7
100
AcDbLine
 10
514.615289
 20
199.999988
 30
0.0
 11
514.615289
 21
194.000014
 31
0.0
  0
LINE
  5
237
100
AcDbEntity
  8
box-20151219_220614_231108
 62
7
100
AcDbLine
 10
514.615289
 20
194.000014
 30
0.0
 11
529.230872
 21
194.000014
 31
0.0
  0
LINE
  5
238
100
AcDbEntity
  8
box-20151219_220614_231108
 62
7
100
AcDbLine
 10
529.230872
 20
199.999988
 30
0.0
 11
529.230872
 21
194.000014
 31
0.0
  0
LINE
  5
239
100
AcDbEntity
  8
box-20151219_220614_231108
 62
7
100
AcDbLine
 10
529.230872
 20
199.999988
 30
0.0
 11
543.846103
 21
199.999988
 31
0.0
  0
LINE
  5
23a
100
AcDbEntity
  8
box-20151219_220614_231108
 62
7
100
AcDbLine
 10
543.846103
 20
199.999988
 30
0.0
 11
543.846103
 21
194.000014
 31
0.0
  0
LINE
  5
23b
100
AcDbEntity
  8
box-20151219_220614_231108
 62
7
100
AcDbLine
 10
543.846103
 20
194.000014
 30
0.0
 11
558.461686
 21
194.000014
 31
0.0
  0
LINE
  5
23c
100
AcDbEntity
  8
box-20151219_220614_231108
 62
7
100
AcDbLine
 10
558.461686
 20
199.999988
 30
0.0
 11
558.461686
 21
194.000014
 31
0.0
  0
LINE
  5
23d
100
AcDbEntity
  8
box-20151219_220614_231108
 62
7
100
AcDbLine
 10
558.461686
 20
199.999988
 30
0.0
 11
573.076917
 21
199.999988
 31
0.0
  0
LINE
  5
23e
100
AcDbEntity
  8
box-20151219_220614_231108
 62
7
100
AcDbLine
 10
573.076917
 20
199.999988
 30
0.0
 11
573.076917
 21
194.000014
 31
0.0
  0
LINE
  5
23f
100
AcDbEntity
  8
box-20151219_220614_231108
 62
7
100
AcDbLine
 10
573.076917
 20
194.000014
 30
0.0
 11
587.692147
 21
194.000014
 31
0.0
  0
LINE
  5
240
100
AcDbEntity
  8
box-20151219_220614_231108
 62
7
100
AcDbLine
 10
587.692147
 20
199.999988
 30
0.0
 11
587.692147
 21
194.000014
 31
0.0
  0
LINE
  5
241
100
AcDbEntity
  8
box-20151219_220614_231108
 62
7
100
AcDbLine
 10
587.692147
 20
199.999988
 30
0.0
 11
602.307731
 21
199.999988
 31
0.0
  0
LINE
  5
242
100
AcDbEntity
  8
box-20151219_220614_231108
 62
7
100
AcDbLine
 10
602.307731
 20
199.999988
 30
0.0
 11
602.307731
 21
194.000014
 31
0.0
  0
LINE
  5
243
100
AcDbEntity
  8
box-20151219_220614_231108
 62
7
100
AcDbLine
 10
602.307731
 20
194.000014
 30
0.0
 11
616.922961
 21
194.000014
 31
0.0
  0
LINE
  5
244
100
AcDbEntity
  8
box-20151219_220614_231108
 62
7
100
AcDbLine
 10
616.922961
 20
199.999988
 30
0.0
 11
616.922961
 21
194.000014
 31
0.0
  0
LINE
  5
245
100
AcDbEntity
  8
box-20151219_220614_231108
 62
7
100
AcDbLine
 10
616.922961
 20
199.999988
 30
0.0
 11
631.538544
 21
199.999988
 31
0.0
  0
LINE
  5
246
100
AcDbEntity
  8
box-20151219_220614_231108
 62
7
100
AcDbLine
 10
631.538544
 20
199.999988
 30
0.0
 11
631.538544
 21
194.000014
 31
0.0
  0
LINE
  5
247
100
AcDbEntity
  8
box-20151219_220614_231108
 62
7
100
AcDbLine
 10
631.538544
 20
194.000014
 30
0.0
 11
646.153775
 21
194.000014
 31
0.0
  0
LINE
  5
248
100
AcDbEntity
  8
box-20151219_220614_231108
 62
7
100
AcDbLine
 10
646.153775
 20
199.999988
 30
0.0
 11
646.153775
 21
194.000014
 31
0.0
  0
LINE
  5
249
100
AcDbEntity
  8
box-20151219_220614_231108
 62
7
100
AcDbLine
 10
646.153775
 20
199.999988
 30
0.0
 11
660.769358
 21
199.999988
 31
0.0
  0
LINE
  5
24a
100
AcDbEntity
  8
box-20151219_220614_231108
 62
7
100
AcDbLine
 10
660.769358
 20
199.999988
 30
0.0
 11
660.769358
 21
194.000014
 31
0.0
  0
LINE
  5
24b
100
AcDbEntity
  8
box-20151219_220614_231108
 62
7
100
AcDbLine
 10
660.769358
 20
194.000014
 30
0.0
 11
675.384589
 21
194.000014
 31
0.0
  0
LINE
  5
24c
100
AcDbEntity
  8
box-20151219_220614_231108
 62
7
100
AcDbLine
 10
675.384589
 20
199.999988
 30
0.0
 11
675.384589
 21
194.000014
 31
0.0
  0
LINE
  5
24d
100
AcDbEntity
  8
box-20151219_220614_231108
 62
7
100
AcDbLine
 10
675.384589
 20
199.999988
 30
0.0
 11
684.000128
 21
199.999988
 31
0.0
  0
LINE
  5
24e
100
AcDbEntity
  8
box-20151219_220614_231108
 62
7
100
AcDbLine
 10
500.000058
 20
109.999992
 30
0.0
 11
500.000058
 21
127.999984
 31
0.0
  0
LINE
  5
24f
100
AcDbEntity
  8
box-20151219_220614_231108
 62
7
100
AcDbLine
 10
506.000103
 20
127.999984
 30
0.0
 11
500.000058
 21
127.999984
 31
0.0
  0
LINE
  5
250
100
AcDbEntity
  8
box-20151219_220614_231108
 62
7
100
AcDbLine
 10
506.000103
 20
127.999984
 30
0.0
 11
506.000103
 21
146.000011
 31
0.0
  0
LINE
  5
251
100
AcDbEntity
  8
box-20151219_220614_231108
 62
7
100
AcDbLine
 10
506.000103
 20
146.000011
 30
0.0
 11
500.000058
 21
146.000011
 31
0.0
  0
LINE
  5
252
100
AcDbEntity
  8
box-20151219_220614_231108
 62
7
100
AcDbLine
 10
500.000058
 20
146.000011
 30
0.0
 11
500.000058
 21
164.000004
 31
0.0
  0
LINE
  5
253
100
AcDbEntity
  8
box-20151219_220614_231108
 62
7
100
AcDbLine
 10
506.000103
 20
164.000004
 30
0.0
 11
500.000058
 21
164.000004
 31
0.0
  0
LINE
  5
254
100
AcDbEntity
  8
box-20151219_220614_231108
 62
7
100
AcDbLine
 10
506.000103
 20
164.000004
 30
0.0
 11
506.000103
 21
181.999996
 31
0.0
  0
LINE
  5
255
100
AcDbEntity
  8
box-20151219_220614_231108
 62
7
100
AcDbLine
 10
506.000103
 20
181.999996
 30
0.0
 11
500.000058
 21
181.999996
 31
0.0
  0
LINE
  5
256
100
AcDbEntity
  8
box-20151219_220614_231108
 62
7
100
AcDbLine
 10
500.000058
 20
181.999996
 30
0.0
 11
500.000058
 21
199.999988
 31
0.0
  0
LINE
  5
257
100
AcDbEntity
  8
box-20151219_220614_231108
 62
7
100
AcDbLine
 10
684.000128
 20
109.999992
 30
0.0
 11
684.000128
 21
127.999984
 31
0.0
  0
LINE
  5
258
100
AcDbEntity
  8
box-20151219_220614_231108
 62
7
100
AcDbLine
 10
690.000172
 20
127.999984
 30
0.0
 11
684.000128
 21
127.999984
 31
0.0
  0
LINE
  5
259
100
AcDbEntity
  8
box-20151219_220614_231108
 62
7
100
AcDbLine
 10
690.000172
 20
127.999984
 30
0.0
 11
690.000172
 21
146.000011
 31
0.0
  0
LINE
  5
25a
100
AcDbEntity
  8
box-20151219_220614_231108
 62
7
100
AcDbLine
 10
690.000172
 20
146.000011
 30
0.0
 11
684.000128
 21
146.000011
 31
0.0
  0
LINE
  5
25b
100
AcDbEntity
  8
box-20151219_220614_231108
 62
7
100
AcDbLine
 10
684.000128
 20
146.000011
 30
0.0
 11
684.000128
 21
164.000004
 31
0.0
  0
LINE
  5
25c
100
AcDbEntity
  8
box-20151219_220614_231108
 62
7
100
AcDbLine
 10
690.000172
 20
164.000004
 30
0.0
 11
684.000128
 21
164.000004
 31
0.0
  0
LINE
  5
25d
100
AcDbEntity
  8
box-20151219_220614_231108
 62
7
100
AcDbLine
 10
690.000172
 20
164.000004
 30
0.0
 11
690.000172
 21
181.999996
 31
0.0
  0
LINE
  5
25e
100
AcDbEntity
  8
box-20151219_220614_231108
 62
7
100
AcDbLine
 10
690.000172
 20
181.999996
 30
0.0
 11
684.000128
 21
181.999996
 31
0.0
  0
LINE
  5
25f
100
AcDbEntity
  8
box-20151219_220614_231108
 62
7
100
AcDbLine
 10
684.000128
 20
181.999996
 30
0.0
 11
684.000128
 21
199.999988
 31
0.0
  0
LINE
  5
260
100
AcDbEntity
  8
box-20151219_220614_231108
 62
7
100
AcDbLine
 10
210.000003
 20
310.000015
 30
0.0
 11
224.736836
 21
310.000015
 31
0.0
  0
LINE
  5
261
100
AcDbEntity
  8
box-20151219_220614_231108
 62
7
100
AcDbLine
 10
224.736836
 20
315.999989
 30
0.0
 11
224.736836
 21
310.000015
 31
0.0
  0
LINE
  5
262
100
AcDbEntity
  8
box-20151219_220614_231108
 62
7
100
AcDbLine
 10
224.736836
 20
315.999989
 30
0.0
 11
239.473669
 21
315.999989
 31
0.0
  0
LINE
  5
263
100
AcDbEntity
  8
box-20151219_220614_231108
 62
7
100
AcDbLine
 10
239.473669
 20
315.999989
 30
0.0
 11
239.473669
 21
310.000015
 31
0.0
  0
LINE
  5
264
100
AcDbEntity
  8
box-20151219_220614_231108
 62
7
100
AcDbLine
 10
239.473669
 20
310.000015
 30
0.0
 11
254.210538
 21
310.000015
 31
0.0
  0
LINE
  5
265
100
AcDbEntity
  8
box-20151219_220614_231108
 62
7
100
AcDbLine
 10
254.210538
 20
315.999989
 30
0.0
 11
254.210538
 21
310.000015
 31
0.0
  0
LINE
  5
266
100
AcDbEntity
  8
box-20151219_220614_231108
 62
7
100
AcDbLine
 10
254.210538
 20
315.999989
 30
0.0
 11
268.947371
 21
315.999989
 31
0.0
  0
LINE
  5
267
100
AcDbEntity
  8
box-20151219_220614_231108
 62
7
100
AcDbLine
 10
268.947371
 20
315.999989
 30
0.0
 11
268.947371
 21
310.000015
 31
0.0
  0
LINE
  5
268
100
AcDbEntity
  8
box-20151219_220614_231108
 62
7
100
AcDbLine
 10
268.947371
 20
310.000015
 30
0.0
 11
283.684204
 21
310.000015
 31
0.0
  0
LINE
  5
269
100
AcDbEntity
  8
box-20151219_220614_231108
 62
7
100
AcDbLine
 10
283.684204
 20
315.999989
 30
0.0
 11
283.684204
 21
310.000015
 31
0.0
  0
LINE
  5
26a
100
AcDbEntity
  8
box-20151219_220614_231108
 62
7
100
AcDbLine
 10
283.684204
 20
315.999989
 30
0.0
 11
298.421037
 21
315.999989
 31
0.0
  0
LINE
  5
26b
100
AcDbEntity
  8
box-20151219_220614_231108
 62
7
100
AcDbLine
 10
298.421037
 20
315.999989
 30
0.0
 11
298.421037
 21
310.000015
 31
0.0
  0
LINE
  5
26c
100
AcDbEntity
  8
box-20151219_220614_231108
 62
7
100
AcDbLine
 10
298.421037
 20
310.000015
 30
0.0
 11
313.157905
 21
310.000015
 31
0.0
  0
LINE
  5
26d
100
AcDbEntity
  8
box-20151219_220614_231108
 62
7
100
AcDbLine
 10
313.157905
 20
315.999989
 30
0.0
 11
313.157905
 21
310.000015
 31
0.0
  0
LINE
  5
26e
100
AcDbEntity
  8
box-20151219_220614_231108
 62
7
100
AcDbLine
 10
313.157905
 20
315.999989
 30
0.0
 11
327.894738
 21
315.999989
 31
0.0
  0
LINE
  5
26f
100
AcDbEntity
  8
box-20151219_220614_231108
 62
7
100
AcDbLine
 10
327.894738
 20
315.999989
 30
0.0
 11
327.894738
 21
310.000015
 31
0.0
  0
LINE
  5
270
100
AcDbEntity
  8
box-20151219_220614_231108
 62
7
100
AcDbLine
 10
327.894738
 20
310.000015
 30
0.0
 11
342.631571
 21
310.000015
 31
0.0
  0
LINE
  5
271
100
AcDbEntity
  8
box-20151219_220614_231108
 62
7
100
AcDbLine
 10
342.631571
 20
315.999989
 30
0.0
 11
342.631571
 21
310.000015
 31
0.0
  0
LINE
  5
272
100
AcDbEntity
  8
box-20151219_220614_231108
 62
7
100
AcDbLine
 10
342.631571
 20
315.999989
 30
0.0
 11
357.368475
 21
315.999989
 31
0.0
  0
LINE
  5
273
100
AcDbEntity
  8
box-20151219_220614_231108
 62
7
100
AcDbLine
 10
357.368475
 20
315.999989
 30
0.0
 11
357.368475
 21
310.000015
 31
0.0
  0
LINE
  5
274
100
AcDbEntity
  8
box-20151219_220614_231108
 62
7
100
AcDbLine
 10
357.368475
 20
310.000015
 30
0.0
 11
372.105414
 21
310.000015
 31
0.0
  0
LINE
  5
275
100
AcDbEntity
  8
box-20151219_220614_231108
 62
7
100
AcDbLine
 10
372.105414
 20
315.999989
 30
0.0
 11
372.105414
 21
310.000015
 31
0.0
  0
LINE
  5
276
100
AcDbEntity
  8
box-20151219_220614_231108
 62
7
100
AcDbLine
 10
372.105414
 20
315.999989
 30
0.0
 11
386.842000
 21
315.999989
 31
0.0
  0
LINE
  5
277
100
AcDbEntity
  8
box-20151219_220614_231108
 62
7
100
AcDbLine
 10
386.842000
 20
315.999989
 30
0.0
 11
386.842000
 21
310.000015
 31
0.0
  0
LINE
  5
278
100
AcDbEntity
  8
box-20151219_220614_231108
 62
7
100
AcDbLine
 10
386.842000
 20
310.000015
 30
0.0
 11
401.578939
 21
310.000015
 31
0.0
  0
LINE
  5
279
100
AcDbEntity
  8
box-20151219_220614_231108
 62
7
100
AcDbLine
 10
401.578939
 20
315.999989
 30
0.0
 11
401.578939
 21
310.000015
 31
0.0
  0
LINE
  5
27a
100
AcDbEntity
  8
box-20151219_220614_231108
 62
7
100
AcDbLine
 10
401.578939
 20
315.999989
 30
0.0
 11
416.315878
 21
315.999989
 31
0.0
  0
LINE
  5
27b
100
AcDbEntity
  8
box-20151219_220614_231108
 62
7
100
AcDbLine
 10
416.315878
 20
315.999989
 30
0.0
 11
416.315878
 21
310.000015
 31
0.0
  0
LINE
  5
27c
100
AcDbEntity
  8
box-20151219_220614_231108
 62
7
100
AcDbLine
 10
416.315878
 20
310.000015
 30
0.0
 11
431.052464
 21
310.000015
 31
0.0
  0
LINE
  5
27d
100
AcDbEntity
  8
box-20151219_220614_231108
 62
7
100
AcDbLine
 10
431.052464
 20
315.999989
 30
0.0
 11
431.052464
 21
310.000015
 31
0.0
  0
LINE
  5
27e
100
AcDbEntity
  8
box-20151219_220614_231108
 62
7
100
AcDbLine
 10
431.052464
 20
315.999989
 30
0.0
 11
445.789403
 21
315.999989
 31
0.0
  0
LINE
  5
27f
100
AcDbEntity
  8
box-20151219_220614_231108
 62
7
100
AcDbLine
 10
445.789403
 20
315.999989
 30
0.0
 11
445.789403
 21
310.000015
 31
0.0
  0
LINE
  5
280
100
AcDbEntity
  8
box-20151219_220614_231108
 62
7
100
AcDbLine
 10
445.789403
 20
310.000015
 30
0.0
 11
460.526342
 21
310.000015
 31
0.0
  0
LINE
  5
281
100
AcDbEntity
  8
box-20151219_220614_231108
 62
7
100
AcDbLine
 10
460.526342
 20
315.999989
 30
0.0
 11
460.526342
 21
310.000015
 31
0.0
  0
LINE
  5
282
100
AcDbEntity
  8
box-20151219_220614_231108
 62
7
100
AcDbLine
 10
460.526342
 20
315.999989
 30
0.0
 11
475.263281
 21
315.999989
 31
0.0
  0
LINE
  5
283
100
AcDbEntity
  8
box-20151219_220614_231108
 62
7
100
AcDbLine
 10
475.263281
 20
315.999989
 30
0.0
 11
475.263281
 21
310.000015
 31
0.0
  0
LINE
  5
284
100
AcDbEntity
  8
box-20151219_220614_231108
 62
7
100
AcDbLine
 10
475.263281
 20
310.000015
 30
0.0
 11
484.000175
 21
310.000015
 31
0.0
  0
LINE
  5
285
100
AcDbEntity
  8
box-20151219_220614_231108
 62
7
100
AcDbLine
 10
210.000003
 20
399.999906
 30
0.0
 11
224.736836
 21
399.999906
 31
0.0
  0
LINE
  5
286
100
AcDbEntity
  8
box-20151219_220614_231108
 62
7
100
AcDbLine
 10
224.736836
 20
399.999906
 30
0.0
 11
224.736836
 21
393.999861
 31
0.0
  0
LINE
  5
287
100
AcDbEntity
  8
box-20151219_220614_231108
 62
7
100
AcDbLine
 10
224.736836
 20
393.999861
 30
0.0
 11
239.473669
 21
393.999861
 31
0.0
  0
LINE
  5
288
100
AcDbEntity
  8
box-20151219_220614_231108
 62
7
100
AcDbLine
 10
239.473669
 20
399.999906
 30
0.0
 11
239.473669
 21
393.999861
 31
0.0
  0
LINE
  5
289
100
AcDbEntity
  8
box-20151219_220614_231108
 62
7
100
AcDbLine
 10
239.473669
 20
399.999906
 30
0.0
 11
254.210538
 21
399.999906
 31
0.0
  0
LINE
  5
28a
100
AcDbEntity
  8
box-20151219_220614_231108
 62
7
100
AcDbLine
 10
254.210538
 20
399.999906
 30
0.0
 11
254.210538
 21
393.999861
 31
0.0
  0
LINE
  5
28b
100
AcDbEntity
  8
box-20151219_220614_231108
 62
7
100
AcDbLine
 10
254.210538
 20
393.999861
 30
0.0
 11
268.947371
 21
393.999861
 31
0.0
  0
LINE
  5
28c
100
AcDbEntity
  8
box-20151219_220614_231108
 62
7
100
AcDbLine
 10
268.947371
 20
399.999906
 30
0.0
 11
268.947371
 21
393.999861
 31
0.0
  0
LINE
  5
28d
100
AcDbEntity
  8
box-20151219_220614_231108
 62
7
100
AcDbLine
 10
268.947371
 20
399.999906
 30
0.0
 11
283.684204
 21
399.999906
 31
0.0
  0
LINE
  5
28e
100
AcDbEntity
  8
box-20151219_220614_231108
 62
7
100
AcDbLine
 10
283.684204
 20
399.999906
 30
0.0
 11
283.684204
 21
393.999861
 31
0.0
  0
LINE
  5
28f
100
AcDbEntity
  8
box-20151219_220614_231108
 62
7
100
AcDbLine
 10
283.684204
 20
393.999861
 30
0.0
 11
298.421037
 21
393.999861
 31
0.0
  0
LINE
  5
290
100
AcDbEntity
  8
box-20151219_220614_231108
 62
7
100
AcDbLine
 10
298.421037
 20
399.999906
 30
0.0
 11
298.421037
 21
393.999861
 31
0.0
  0
LINE
  5
291
100
AcDbEntity
  8
box-20151219_220614_231108
 62
7
100
AcDbLine
 10
298.421037
 20
399.999906
 30
0.0
 11
313.157905
 21
399.999906
 31
0.0
  0
LINE
  5
292
100
AcDbEntity
  8
box-20151219_220614_231108
 62
7
100
AcDbLine
 10
313.157905
 20
399.999906
 30
0.0
 11
313.157905
 21
393.999861
 31
0.0
  0
LINE
  5
293
100
AcDbEntity
  8
box-20151219_220614_231108
 62
7
100
AcDbLine
 10
313.157905
 20
393.999861
 30
0.0
 11
327.894738
 21
393.999861
 31
0.0
  0
LINE
  5
294
100
AcDbEntity
  8
box-20151219_220614_231108
 62
7
100
AcDbLine
 10
327.894738
 20
399.999906
 30
0.0
 11
327.894738
 21
393.999861
 31
0.0
  0
LINE
  5
295
100
AcDbEntity
  8
box-20151219_220614_231108
 62
7
100
AcDbLine
 10
327.894738
 20
399.999906
 30
0.0
 11
342.631571
 21
399.999906
 31
0.0
  0
LINE
  5
296
100
AcDbEntity
  8
box-20151219_220614_231108
 62
7
100
AcDbLine
 10
342.631571
 20
399.999906
 30
0.0
 11
342.631571
 21
393.999861
 31
0.0
  0
LINE
  5
297
100
AcDbEntity
  8
box-20151219_220614_231108
 62
7
100
AcDbLine
 10
342.631571
 20
393.999861
 30
0.0
 11
357.368475
 21
393.999861
 31
0.0
  0
LINE
  5
298
100
AcDbEntity
  8
box-20151219_220614_231108
 62
7
100
AcDbLine
 10
357.368475
 20
399.999906
 30
0.0
 11
357.368475
 21
393.999861
 31
0.0
  0
LINE
  5
299
100
AcDbEntity
  8
box-20151219_220614_231108
 62
7
100
AcDbLine
 10
357.368475
 20
399.999906
 30
0.0
 11
372.105414
 21
399.999906
 31
0.0
  0
LINE
  5
29a
100
AcDbEntity
  8
box-20151219_220614_231108
 62
7
100
AcDbLine
 10
372.105414
 20
399.999906
 30
0.0
 11
372.105414
 21
393.999861
 31
0.0
  0
LINE
  5
29b
100
AcDbEntity
  8
box-20151219_220614_231108
 62
7
100
AcDbLine
 10
372.105414
 20
393.999861
 30
0.0
 11
386.842000
 21
393.999861
 31
0.0
  0
LINE
  5
29c
100
AcDbEntity
  8
box-20151219_220614_231108
 62
7
100
AcDbLine
 10
386.842000
 20
399.999906
 30
0.0
 11
386.842000
 21
393.999861
 31
0.0
  0
LINE
  5
29d
100
AcDbEntity
  8
box-20151219_220614_231108
 62
7
100
AcDbLine
 10
386.842000
 20
399.999906
 30
0.0
 11
401.578939
 21
399.999906
 31
0.0
  0
LINE
  5
29e
100
AcDbEntity
  8
box-20151219_220614_231108
 62
7
100
AcDbLine
 10
401.578939
 20
399.999906
 30
0.0
 11
401.578939
 21
393.999861
 31
0.0
  0
LINE
  5
29f
100
AcDbEntity
  8
box-20151219_220614_231108
 62
7
100
AcDbLine
 10
401.578939
 20
393.999861
 30
0.0
 11
416.315878
 21
393.999861
 31
0.0
  0
LINE
  5
2a0
100
AcDbEntity
  8
box-20151219_220614_231108
 62
7
100
AcDbLine
 10
416.315878
 20
399.999906
 30
0.0
 11
416.315878
 21
393.999861
 31
0.0
  0
LINE
  5
2a1
100
AcDbEntity
  8
box-20151219_220614_231108
 62
7
100
AcDbLine
 10
416.315878
 20
399.999906
 30
0.0
 11
431.052464
 21
399.999906
 31
0.0
  0
LINE
  5
2a2
100
AcDbEntity
  8
box-20151219_220614_231108
 62
7
100
AcDbLine
 10
431.052464
 20
399.999906
 30
0.0
 11
431.052464
 21
393.999861
 31
0.0
  0
LINE
  5
2a3
100
AcDbEntity
  8
box-20151219_220614_231108
 62
7
100
AcDbLine
 10
431.052464
 20
393.999861
 30
0.0
 11
445.789403
 21
393.999861
 31
0.0
  0
LINE
  5
2a4
100
AcDbEntity
  8
box-20151219_220614_231108
 62
7
100
AcDbLine
 10
445.789403
 20
399.999906
 30
0.0
 11
445.789403
 21
393.999861
 31
0.0
  0
LINE
  5
2a5
100
AcDbEntity
  8
box-20151219_220614_231108
 62
7
100
AcDbLine
 10
445.789403
 20
399.999906
 30
0.0
 11
460.526342
 21
399.999906
 31
0.0
  0
LINE
  5
2a6
100
AcDbEntity
  8
box-20151219_220614_231108
 62
7
100
AcDbLine
 10
460.526342
 20
399.999906
 30
0.0
 11
460.526342
 21
393.999861
 31
0.0
  0
LINE
  5
2a7
100
AcDbEntity
  8
box-20151219_220614_231108
 62
7
100
AcDbLine
 10
460.526342
 20
393.999861
 30
0.0
 11
475.263281
 21
393.999861
 31
0.0
  0
LINE
  5
2a8
100
AcDbEntity
  8
box-20151219_220614_231108
 62
7
100
AcDbLine
 10
475.263281
 20
399.999906
 30
0.0
 11
475.263281
 21
393.999861
 31
0.0
  0
LINE
  5
2a9
100
AcDbEntity
  8
box-20151219_220614_231108
 62
7
100
AcDbLine
 10
475.263281
 20
399.999906
 30
0.0
 11
484.000175
 21
399.999906
 31
0.0
  0
LINE
  5
2aa
100
AcDbEntity
  8
box-20151219_220614_231108
 62
7
100
AcDbLine
 10
210.000003
 20
310.000015
 30
0.0
 11
210.000003
 21
328.000007
 31
0.0
  0
LINE
  5
2ab
100
AcDbEntity
  8
box-20151219_220614_231108
 62
7
100
AcDbLine
 10
216.000012
 20
328.000007
 30
0.0
 11
210.000003
 21
328.000007
 31
0.0
  0
LINE
  5
2ac
100
AcDbEntity
  8
box-20151219_220614_231108
 62
7
100
AcDbLine
 10
216.000012
 20
328.000007
 30
0.0
 11
216.000012
 21
345.999999
 31
0.0
  0
LINE
  5
2ad
100
AcDbEntity
  8
box-20151219_220614_231108
 62
7
100
AcDbLine
 10
216.000012
 20
345.999999
 30
0.0
 11
210.000003
 21
345.999999
 31
0.0
  0
LINE
  5
2ae
100
AcDbEntity
  8
box-20151219_220614_231108
 62
7
100
AcDbLine
 10
210.000003
 20
345.999999
 30
0.0
 11
210.000003
 21
363.999992
 31
0.0
  0
LINE
  5
2af
100
AcDbEntity
  8
box-20151219_220614_231108
 62
7
100
AcDbLine
 10
216.000012
 20
363.999992
 30
0.0
 11
210.000003
 21
363.999992
 31
0.0
  0
LINE
  5
2b0
100
AcDbEntity
  8
box-20151219_220614_231108
 62
7
100
AcDbLine
 10
216.000012
 20
363.999992
 30
0.0
 11
216.000012
 21
382.000125
 31
0.0
  0
LINE
  5
2b1
100
AcDbEntity
  8
box-20151219_220614_231108
 62
7
100
AcDbLine
 10
216.000012
 20
382.000125
 30
0.0
 11
210.000003
 21
382.000125
 31
0.0
  0
LINE
  5
2b2
100
AcDbEntity
  8
box-20151219_220614_231108
 62
7
100
AcDbLine
 10
210.000003
 20
382.000125
 30
0.0
 11
210.000003
 21
399.999906
 31
0.0
  0
LINE
  5
2b3
100
AcDbEntity
  8
box-20151219_220614_231108
 62
7
100
AcDbLine
 10
484.000175
 20
310.000015
 30
0.0
 11
484.000175
 21
328.000007
 31
0.0
  0
LINE
  5
2b4
100
AcDbEntity
  8
box-20151219_220614_231108
 62
7
100
AcDbLine
 10
489.999867
 20
328.000007
 30
0.0
 11
484.000175
 21
328.000007
 31
0.0
  0
LINE
  5
2b5
100
AcDbEntity
  8
box-20151219_220614_231108
 62
7
100
AcDbLine
 10
489.999867
 20
328.000007
 30
0.0
 11
489.999867
 21
345.999999
 31
0.0
  0
LINE
  5
2b6
100
AcDbEntity
  8
box-20151219_220614_231108
 62
7
100
AcDbLine
 10
489.999867
 20
345.999999
 30
0.0
 11
484.000175
 21
345.999999
 31
0.0
  0
LINE
  5
2b7
100
AcDbEntity
  8
box-20151219_220614_231108
 62
7
100
AcDbLine
 10
484.000175
 20
345.999999
 30
0.0
 11
484.000175
 21
363.999992
 31
0.0
  0
LINE
  5
2b8
100
AcDbEntity
  8
box-20151219_220614_231108
 62
7
100
AcDbLine
 10
489.999867
 20
363.999992
 30
0.0
 11
484.000175
 21
363.999992
 31
0.0
  0
LINE
  5
2b9
100
AcDbEntity
  8
box-20151219_220614_231108
 62
7
100
AcDbLine
 10
489.999867
 20
363.999992
 30
0.0
 11
489.999867
 21
382.000125
 31
0.0
  0
LINE
  5
2ba
100
AcDbEntity
  8
box-20151219_220614_231108
 62
7
100
AcDbLine
 10
489.999867
 20
382.000125
 30
0.0
 11
484.000175
 21
382.000125
 31
0.0
  0
LINE
  5
2bb
100
AcDbEntity
  8
box-20151219_220614_231108
 62
7
100
AcDbLine
 10
484.000175
 20
382.000125
 30
0.0
 11
484.000175
 21
399.999906
 31
0.0
  0
LINE
  5
2bc
100
AcDbEntity
  8
box-20151219_220614_231108
 62
7
100
AcDbLine
 10
216.000012
 20
416.000142
 30
0.0
 11
224.736836
 21
416.000142
 31
0.0
  0
LINE
  5
2bd
100
AcDbEntity
  8
box-20151219_220614_231108
 62
7
100
AcDbLine
 10
224.736836
 20
416.000142
 30
0.0
 11
224.736836
 21
410.000097
 31
0.0
  0
LINE
  5
2be
100
AcDbEntity
  8
box-20151219_220614_231108
 62
7
100
AcDbLine
 10
224.736836
 20
410.000097
 30
0.0
 11
239.473669
 21
410.000097
 31
0.0
  0
LINE
  5
2bf
100
AcDbEntity
  8
box-20151219_220614_231108
 62
7
100
AcDbLine
 10
239.473669
 20
416.000142
 30
0.0
 11
239.473669
 21
410.000097
 31
0.0
  0
LINE
  5
2c0
100
AcDbEntity
  8
box-20151219_220614_231108
 62
7
100
AcDbLine
 10
239.473669
 20
416.000142
 30
0.0
 11
254.210538
 21
416.000142
 31
0.0
  0
LINE
  5
2c1
100
AcDbEntity
  8
box-20151219_220614_231108
 62
7
100
AcDbLine
 10
254.210538
 20
416.000142
 30
0.0
 11
254.210538
 21
410.000097
 31
0.0
  0
LINE
  5
2c2
100
AcDbEntity
  8
box-20151219_220614_231108
 62
7
100
AcDbLine
 10
254.210538
 20
410.000097
 30
0.0
 11
268.947371
 21
410.000097
 31
0.0
  0
LINE
  5
2c3
100
AcDbEntity
  8
box-20151219_220614_231108
 62
7
100
AcDbLine
 10
268.947371
 20
416.000142
 30
0.0
 11
268.947371
 21
410.000097
 31
0.0
  0
LINE
  5
2c4
100
AcDbEntity
  8
box-20151219_220614_231108
 62
7
100
AcDbLine
 10
268.947371
 20
416.000142
 30
0.0
 11
283.684204
 21
416.000142
 31
0.0
  0
LINE
  5
2c5
100
AcDbEntity
  8
box-20151219_220614_231108
 62
7
100
AcDbLine
 10
283.684204
 20
416.000142
 30
0.0
 11
283.684204
 21
410.000097
 31
0.0
  0
LINE
  5
2c6
100
AcDbEntity
  8
box-20151219_220614_231108
 62
7
100
AcDbLine
 10
283.684204
 20
410.000097
 30
0.0
 11
298.421037
 21
410.000097
 31
0.0
  0
LINE
  5
2c7
100
AcDbEntity
  8
box-20151219_220614_231108
 62
7
100
AcDbLine
 10
298.421037
 20
416.000142
 30
0.0
 11
298.421037
 21
410.000097
 31
0.0
  0
LINE
  5
2c8
100
AcDbEntity
  8
box-20151219_220614_231108
 62
7
100
AcDbLine
 10
298.421037
 20
416.000142
 30
0.0
 11
313.157905
 21
416.000142
 31
0.0
  0
LINE
  5
2c9
100
AcDbEntity
  8
box-20151219_220614_231108
 62
7
100
AcDbLine
 10
313.157905
 20
416.000142
 30
0.0
 11
313.157905
 21
410.000097
 31
0.0
  0
LINE
  5
2ca
100
AcDbEntity
  8
box-20151219_220614_231108
 62
7
100
AcDbLine
 10
313.157905
 20
410.000097
 30
0.0
 11
327.894738
 21
410.000097
 31
0.0
  0
LINE
  5
2cb
100
AcDbEntity
  8
box-20151219_220614_231108
 62
7
100
AcDbLine
 10
327.894738
 20
416.000142
 30
0.0
 11
327.894738
 21
410.000097
 31
0.0
  0
LINE
  5
2cc
100
AcDbEntity
  8
box-20151219_220614_231108
 62
7
100
AcDbLine
 10
327.894738
 20
416.000142
 30
0.0
 11
342.631571
 21
416.000142
 31
0.0
  0
LINE
  5
2cd
100
AcDbEntity
  8
box-20151219_220614_231108
 62
7
100
AcDbLine
 10
342.631571
 20
416.000142
 30
0.0
 11
342.631571
 21
410.000097
 31
0.0
  0
LINE
  5
2ce
100
AcDbEntity
  8
box-20151219_220614_231108
 62
7
100
AcDbLine
 10
342.631571
 20
410.000097
 30
0.0
 11
357.368475
 21
410.000097
 31
0.0
  0
LINE
  5
2cf
100
AcDbEntity
  8
box-20151219_220614_231108
 62
7
100
AcDbLine
 10
357.368475
 20
416.000142
 30
0.0
 11
357.368475
 21
410.000097
 31
0.0
  0
LINE
  5
2d0
100
AcDbEntity
  8
box-20151219_220614_231108
 62
7
100
AcDbLine
 10
357.368475
 20
416.000142
 30
0.0
 11
372.105414
 21
416.000142
 31
0.0
  0
LINE
  5
2d1
100
AcDbEntity
  8
box-20151219_220614_231108
 62
7
100
AcDbLine
 10
372.105414
 20
416.000142
 30
0.0
 11
372.105414
 21
410.000097
 31
0.0
  0
LINE
  5
2d2
100
AcDbEntity
  8
box-20151219_220614_231108
 62
7
100
AcDbLine
 10
372.105414
 20
410.000097
 30
0.0
 11
386.842000
 21
410.000097
 31
0.0
  0
LINE
  5
2d3
100
AcDbEntity
  8
box-20151219_220614_231108
 62
7
100
AcDbLine
 10
386.842000
 20
416.000142
 30
0.0
 11
386.842000
 21
410.000097
 31
0.0
  0
LINE
  5
2d4
100
AcDbEntity
  8
box-20151219_220614_231108
 62
7
100
AcDbLine
 10
386.842000
 20
416.000142
 30
0.0
 11
401.578939
 21
416.000142
 31
0.0
  0
LINE
  5
2d5
100
AcDbEntity
  8
box-20151219_220614_231108
 62
7
100
AcDbLine
 10
401.578939
 20
416.000142
 30
0.0
 11
401.578939
 21
410.000097
 31
0.0
  0
LINE
  5
2d6
100
AcDbEntity
  8
box-20151219_220614_231108
 62
7
100
AcDbLine
 10
401.578939
 20
410.000097
 30
0.0
 11
416.315878
 21
410.000097
 31
0.0
  0
LINE
  5
2d7
100
AcDbEntity
  8
box-20151219_220614_231108
 62
7
100
AcDbLine
 10
416.315878
 20
416.000142
 30
0.0
 11
416.315878
 21
410.000097
 31
0.0
  0
LINE
  5
2d8
100
AcDbEntity
  8
box-20151219_220614_231108
 62
7
100
AcDbLine
 10
416.315878
 20
416.000142
 30
0.0
 11
431.052464
 21
416.000142
 31
0.0
  0
LINE
  5
2d9
100
AcDbEntity
  8
box-20151219_220614_231108
 62
7
100
AcDbLine
 10
431.052464
 20
416.000142
 30
0.0
 11
431.052464
 21
410.000097
 31
0.0
  0
LINE
  5
2da
100
AcDbEntity
  8
box-20151219_220614_231108
 62
7
100
AcDbLine
 10
431.052464
 20
410.000097
 30
0.0
 11
445.789403
 21
410.000097
 31
0.0
  0
LINE
  5
2db
100
AcDbEntity
  8
box-20151219_220614_231108
 62
7
100
AcDbLine
 10
445.789403
 20
416.000142
 30
0.0
 11
445.789403
 21
410.000097
 31
0.0
  0
LINE
  5
2dc
100
AcDbEntity
  8
box-20151219_220614_231108
 62
7
100
AcDbLine
 10
445.789403
 20
416.000142
 30
0.0
 11
460.526342
 21
416.000142
 31
0.0
  0
LINE
  5
2dd
100
AcDbEntity
  8
box-20151219_220614_231108
 62
7
100
AcDbLine
 10
460.526342
 20
416.000142
 30
0.0
 11
460.526342
 21
410.000097
 31
0.0
  0
LINE
  5
2de
100
AcDbEntity
  8
box-20151219_220614_231108
 62
7
100
AcDbLine
 10
460.526342
 20
410.000097
 30
0.0
 11
475.263281
 21
410.000097
 31
0.0
  0
LINE
  5
2df
100
AcDbEntity
  8
box-20151219_220614_231108
 62
7
100
AcDbLine
 10
475.263281
 20
416.000142
 30
0.0
 11
475.263281
 21
410.000097
 31
0.0
  0
LINE
  5
2e0
100
AcDbEntity
  8
box-20151219_220614_231108
 62
7
100
AcDbLine
 10
475.263281
 20
416.000142
 30
0.0
 11
484.000175
 21
416.000142
 31
0.0
  0
LINE
  5
2e1
100
AcDbEntity
  8
box-20151219_220614_231108
 62
7
100
AcDbLine
 10
216.000012
 20
594.000167
 30
0.0
 11
224.736836
 21
594.000167
 31
0.0
  0
LINE
  5
2e2
100
AcDbEntity
  8
box-20151219_220614_231108
 62
7
100
AcDbLine
 10
224.736836
 20
599.999858
 30
0.0
 11
224.736836
 21
594.000167
 31
0.0
  0
LINE
  5
2e3
100
AcDbEntity
  8
box-20151219_220614_231108
 62
7
100
AcDbLine
 10
224.736836
 20
599.999858
 30
0.0
 11
239.473669
 21
599.999858
 31
0.0
  0
LINE
  5
2e4
100
AcDbEntity
  8
box-20151219_220614_231108
 62
7
100
AcDbLine
 10
239.473669
 20
599.999858
 30
0.0
 11
239.473669
 21
594.000167
 31
0.0
  0
LINE
  5
2e5
100
AcDbEntity
  8
box-20151219_220614_231108
 62
7
100
AcDbLine
 10
239.473669
 20
594.000167
 30
0.0
 11
254.210538
 21
594.000167
 31
0.0
  0
LINE
  5
2e6
100
AcDbEntity
  8
box-20151219_220614_231108
 62
7
100
AcDbLine
 10
254.210538
 20
599.999858
 30
0.0
 11
254.210538
 21
594.000167
 31
0.0
  0
LINE
  5
2e7
100
AcDbEntity
  8
box-20151219_220614_231108
 62
7
100
AcDbLine
 10
254.210538
 20
599.999858
 30
0.0
 11
268.947371
 21
599.999858
 31
0.0
  0
LINE
  5
2e8
100
AcDbEntity
  8
box-20151219_220614_231108
 62
7
100
AcDbLine
 10
268.947371
 20
599.999858
 30
0.0
 11
268.947371
 21
594.000167
 31
0.0
  0
LINE
  5
2e9
100
AcDbEntity
  8
box-20151219_220614_231108
 62
7
100
AcDbLine
 10
268.947371
 20
594.000167
 30
0.0
 11
283.684204
 21
594.000167
 31
0.0
  0
LINE
  5
2ea
100
AcDbEntity
  8
box-20151219_220614_231108
 62
7
100
AcDbLine
 10
283.684204
 20
599.999858
 30
0.0
 11
283.684204
 21
594.000167
 31
0.0
  0
LINE
  5
2eb
100
AcDbEntity
  8
box-20151219_220614_231108
 62
7
100
AcDbLine
 10
283.684204
 20
599.999858
 30
0.0
 11
298.421037
 21
599.999858
 31
0.0
  0
LINE
  5
2ec
100
AcDbEntity
  8
box-20151219_220614_231108
 62
7
100
AcDbLine
 10
298.421037
 20
599.999858
 30
0.0
 11
298.421037
 21
594.000167
 31
0.0
  0
LINE
  5
2ed
100
AcDbEntity
  8
box-20151219_220614_231108
 62
7
100
AcDbLine
 10
298.421037
 20
594.000167
 30
0.0
 11
313.157905
 21
594.000167
 31
0.0
  0
LINE
  5
2ee
100
AcDbEntity
  8
box-20151219_220614_231108
 62
7
100
AcDbLine
 10
313.157905
 20
599.999858
 30
0.0
 11
313.157905
 21
594.000167
 31
0.0
  0
LINE
  5
2ef
100
AcDbEntity
  8
box-20151219_220614_231108
 62
7
100
AcDbLine
 10
313.157905
 20
599.999858
 30
0.0
 11
327.894738
 21
599.999858
 31
0.0
  0
LINE
  5
2f0
100
AcDbEntity
  8
box-20151219_220614_231108
 62
7
100
AcDbLine
 10
327.894738
 20
599.999858
 30
0.0
 11
327.894738
 21
594.000167
 31
0.0
  0
LINE
  5
2f1
100
AcDbEntity
  8
box-20151219_220614_231108
 62
7
100
AcDbLine
 10
327.894738
 20
594.000167
 30
0.0
 11
342.631571
 21
594.000167
 31
0.0
  0
LINE
  5
2f2
100
AcDbEntity
  8
box-20151219_220614_231108
 62
7
100
AcDbLine
 10
342.631571
 20
599.999858
 30
0.0
 11
342.631571
 21
594.000167
 31
0.0
  0
LINE
  5
2f3
100
AcDbEntity
  8
box-20151219_220614_231108
 62
7
100
AcDbLine
 10
342.631571
 20
599.999858
 30
0.0
 11
357.368475
 21
599.999858
 31
0.0
  0
LINE
  5
2f4
100
AcDbEntity
  8
box-20151219_220614_231108
 62
7
100
AcDbLine
 10
357.368475
 20
599.999858
 30
0.0
 11
357.368475
 21
594.000167
 31
0.0
  0
LINE
  5
2f5
100
AcDbEntity
  8
box-20151219_220614_231108
 62
7
100
AcDbLine
 10
357.368475
 20
594.000167
 30
0.0
 11
372.105414
 21
594.000167
 31
0.0
  0
LINE
  5
2f6
100
AcDbEntity
  8
box-20151219_220614_231108
 62
7
100
AcDbLine
 10
372.105414
 20
599.999858
 30
0.0
 11
372.105414
 21
594.000167
 31
0.0
  0
LINE
  5
2f7
100
AcDbEntity
  8
box-20151219_220614_231108
 62
7
100
AcDbLine
 10
372.105414
 20
599.999858
 30
0.0
 11
386.842000
 21
599.999858
 31
0.0
  0
LINE
  5
2f8
100
AcDbEntity
  8
box-20151219_220614_231108
 62
7
100
AcDbLine
 10
386.842000
 20
599.999858
 30
0.0
 11
386.842000
 21
594.000167
 31
0.0
  0
LINE
  5
2f9
100
AcDbEntity
  8
box-20151219_220614_231108
 62
7
100
AcDbLine
 10
386.842000
 20
594.000167
 30
0.0
 11
401.578939
 21
594.000167
 31
0.0
  0
LINE
  5
2fa
100
AcDbEntity
  8
box-20151219_220614_231108
 62
7
100
AcDbLine
 10
401.578939
 20
599.999858
 30
0.0
 11
401.578939
 21
594.000167
 31
0.0
  0
LINE
  5
2fb
100
AcDbEntity
  8
box-20151219_220614_231108
 62
7
100
AcDbLine
 10
401.578939
 20
599.999858
 30
0.0
 11
416.315878
 21
599.999858
 31
0.0
  0
LINE
  5
2fc
100
AcDbEntity
  8
box-20151219_220614_231108
 62
7
100
AcDbLine
 10
416.315878
 20
599.999858
 30
0.0
 11
416.315878
 21
594.000167
 31
0.0
  0
LINE
  5
2fd
100
AcDbEntity
  8
box-20151219_220614_231108
 62
7
100
AcDbLine
 10
416.315878
 20
594.000167
 30
0.0
 11
431.052464
 21
594.000167
 31
0.0
  0
LINE
  5
2fe
100
AcDbEntity
  8
box-20151219_220614_231108
 62
7
100
AcDbLine
 10
431.052464
 20
599.999858
 30
0.0
 11
431.052464
 21
594.000167
 31
0.0
  0
LINE
  5
2ff
100
AcDbEntity
  8
box-20151219_220614_231108
 62
7
100
AcDbLine
 10
431.052464
 20
599.999858
 30
0.0
 11
445.789403
 21
599.999858
 31
0.0
  0
LINE
  5
300
100
AcDbEntity
  8
box-20151219_220614_231108
 62
7
100
AcDbLine
 10
445.789403
 20
599.999858
 30
0.0
 11
445.789403
 21
594.000167
 31
0.0
  0
LINE
  5
301
100
AcDbEntity
  8
box-20151219_220614_231108
 62
7
100
AcDbLine
 10
445.789403
 20
594.000167
 30
0.0
 11
460.526342
 21
594.000167
 31
0.0
  0
LINE
  5
302
100
AcDbEntity
  8
box-20151219_220614_231108
 62
7
100
AcDbLine
 10
460.526342
 20
599.999858
 30
0.0
 11
460.526342
 21
594.000167
 31
0.0
  0
LINE
  5
303
100
AcDbEntity
  8
box-20151219_220614_231108
 62
7
100
AcDbLine
 10
460.526342
 20
599.999858
 30
0.0
 11
475.263281
 21
599.999858
 31
0.0
  0
LINE
  5
304
100
AcDbEntity
  8
box-20151219_220614_231108
 62
7
100
AcDbLine
 10
475.263281
 20
599.999858
 30
0.0
 11
475.263281
 21
594.000167
 31
0.0
  0
LINE
  5
305
100
AcDbEntity
  8
box-20151219_220614_231108
 62
7
100
AcDbLine
 10
475.263281
 20
594.000167
 30
0.0
 11
484.000175
 21
594.000167
 31
0.0
  0
LINE
  5
306
100
AcDbEntity
  8
box-20151219_220614_231108
 62
7
100
AcDbLine
 10
216.000012
 20
416.000142
 30
0.0
 11
216.000012
 21
424.615328
 31
0.0
  0
LINE
  5
307
100
AcDbEntity
  8
box-20151219_220614_231108
 62
7
100
AcDbLine
 10
216.000012
 20
424.615328
 30
0.0
 11
210.000003
 21
424.615328
 31
0.0
  0
LINE
  5
308
100
AcDbEntity
  8
box-20151219_220614_231108
 62
7
100
AcDbLine
 10
210.000003
 20
424.615328
 30
0.0
 11
210.000003
 21
439.230911
 31
0.0
  0
LINE
  5
309
100
AcDbEntity
  8
box-20151219_220614_231108
 62
7
100
AcDbLine
 10
216.000012
 20
439.230911
 30
0.0
 11
210.000003
 21
439.230911
 31
0.0
  0
LINE
  5
30a
100
AcDbEntity
  8
box-20151219_220614_231108
 62
7
100
AcDbLine
 10
216.000012
 20
439.230911
 30
0.0
 11
216.000012
 21
453.846142
 31
0.0
  0
LINE
  5
30b
100
AcDbEntity
  8
box-20151219_220614_231108
 62
7
100
AcDbLine
 10
216.000012
 20
453.846142
 30
0.0
 11
210.000003
 21
453.846142
 31
0.0
  0
LINE
  5
30c
100
AcDbEntity
  8
box-20151219_220614_231108
 62
7
100
AcDbLine
 10
210.000003
 20
453.846142
 30
0.0
 11
210.000003
 21
468.461372
 31
0.0
  0
LINE
  5
30d
100
AcDbEntity
  8
box-20151219_220614_231108
 62
7
100
AcDbLine
 10
216.000012
 20
468.461372
 30
0.0
 11
210.000003
 21
468.461372
 31
0.0
  0
LINE
  5
30e
100
AcDbEntity
  8
box-20151219_220614_231108
 62
7
100
AcDbLine
 10
216.000012
 20
468.461372
 30
0.0
 11
216.000012
 21
483.076956
 31
0.0
  0
LINE
  5
30f
100
AcDbEntity
  8
box-20151219_220614_231108
 62
7
100
AcDbLine
 10
216.000012
 20
483.076956
 30
0.0
 11
210.000003
 21
483.076956
 31
0.0
  0
LINE
  5
310
100
AcDbEntity
  8
box-20151219_220614_231108
 62
7
100
AcDbLine
 10
210.000003
 20
483.076956
 30
0.0
 11
210.000003
 21
497.692186
 31
0.0
  0
LINE
  5
311
100
AcDbEntity
  8
box-20151219_220614_231108
 62
7
100
AcDbLine
 10
216.000012
 20
497.692186
 30
0.0
 11
210.000003
 21
497.692186
 31
0.0
  0
LINE
  5
312
100
AcDbEntity
  8
box-20151219_220614_231108
 62
7
100
AcDbLine
 10
216.000012
 20
497.692186
 30
0.0
 11
216.000012
 21
512.307769
 31
0.0
  0
LINE
  5
313
100
AcDbEntity
  8
box-20151219_220614_231108
 62
7
100
AcDbLine
 10
216.000012
 20
512.307769
 30
0.0
 11
210.000003
 21
512.307769
 31
0.0
  0
LINE
  5
314
100
AcDbEntity
  8
box-20151219_220614_231108
 62
7
100
AcDbLine
 10
210.000003
 20
512.307769
 30
0.0
 11
210.000003
 21
526.923000
 31
0.0
  0
LINE
  5
315
100
AcDbEntity
  8
box-20151219_220614_231108
 62
7
100
AcDbLine
 10
216.000012
 20
526.923000
 30
0.0
 11
210.000003
 21
526.923000
 31
0.0
  0
LINE
  5
316
100
AcDbEntity
  8
box-20151219_220614_231108
 62
7
100
AcDbLine
 10
216.000012
 20
526.923000
 30
0.0
 11
216.000012
 21
541.538583
 31
0.0
  0
LINE
  5
317
100
AcDbEntity
  8
box-20151219_220614_231108
 62
7
100
AcDbLine
 10
216.000012
 20
541.538583
 30
0.0
 11
210.000003
 21
541.538583
 31
0.0
  0
LINE
  5
318
100
AcDbEntity
  8
box-20151219_220614_231108
 62
7
100
AcDbLine
 10
210.000003
 20
541.538583
 30
0.0
 11
210.000003
 21
556.153814
 31
0.0
  0
LINE
  5
319
100
AcDbEntity
  8
box-20151219_220614_231108
 62
7
100
AcDbLine
 10
216.000012
 20
556.153814
 30
0.0
 11
210.000003
 21
556.153814
 31
0.0
  0
LINE
  5
31a
100
AcDbEntity
  8
box-20151219_220614_231108
 62
7
100
AcDbLine
 10
216.000012
 20
556.153814
 30
0.0
 11
216.000012
 21
570.769397
 31
0.0
  0
LINE
  5
31b
100
AcDbEntity
  8
box-20151219_220614_231108
 62
7
100
AcDbLine
 10
216.000012
 20
570.769397
 30
0.0
 11
210.000003
 21
570.769397
 31
0.0
  0
LINE
  5
31c
100
AcDbEntity
  8
box-20151219_220614_231108
 62
7
100
AcDbLine
 10
210.000003
 20
570.769397
 30
0.0
 11
210.000003
 21
585.384628
 31
0.0
  0
LINE
  5
31d
100
AcDbEntity
  8
box-20151219_220614_231108
 62
7
100
AcDbLine
 10
216.000012
 20
585.384628
 30
0.0
 11
210.000003
 21
585.384628
 31
0.0
  0
LINE
  5
31e
100
AcDbEntity
  8
box-20151219_220614_231108
 62
7
100
AcDbLine
 10
216.000012
 20
585.384628
 30
0.0
 11
216.000012
 21
594.000167
 31
0.0
  0
LINE
  5
31f
100
AcDbEntity
  8
box-20151219_220614_231108
 62
7
100
AcDbLine
 10
484.000175
 20
416.000142
 30
0.0
 11
484.000175
 21
424.615328
 31
0.0
  0
LINE
  5
320
100
AcDbEntity
  8
box-20151219_220614_231108
 62
7
100
AcDbLine
 10
489.999867
 20
424.615328
 30
0.0
 11
484.000175
 21
424.615328
 31
0.0
  0
LINE
  5
321
100
AcDbEntity
  8
box-20151219_220614_231108
 62
7
100
AcDbLine
 10
489.999867
 20
424.615328
 30
0.0
 11
489.999867
 21
439.230911
 31
0.0
  0
LINE
  5
322
100
AcDbEntity
  8
box-20151219_220614_231108
 62
7
100
AcDbLine
 10
489.999867
 20
439.230911
 30
0.0
 11
484.000175
 21
439.230911
 31
0.0
  0
LINE
  5
323
100
AcDbEntity
  8
box-20151219_220614_231108
 62
7
100
AcDbLine
 10
484.000175
 20
439.230911
 30
0.0
 11
484.000175
 21
453.846142
 31
0.0
  0
LINE
  5
324
100
AcDbEntity
  8
box-20151219_220614_231108
 62
7
100
AcDbLine
 10
489.999867
 20
453.846142
 30
0.0
 11
484.000175
 21
453.846142
 31
0.0
  0
LINE
  5
325
100
AcDbEntity
  8
box-20151219_220614_231108
 62
7
100
AcDbLine
 10
489.999867
 20
453.846142
 30
0.0
 11
489.999867
 21
468.461372
 31
0.0
  0
LINE
  5
326
100
AcDbEntity
  8
box-20151219_220614_231108
 62
7
100
AcDbLine
 10
489.999867
 20
468.461372
 30
0.0
 11
484.000175
 21
468.461372
 31
0.0
  0
LINE
  5
327
100
AcDbEntity
  8
box-20151219_220614_231108
 62
7
100
AcDbLine
 10
484.000175
 20
468.461372
 30
0.0
 11
484.000175
 21
483.076956
 31
0.0
  0
LINE
  5
328
100
AcDbEntity
  8
box-20151219_220614_231108
 62
7
100
AcDbLine
 10
489.999867
 20
483.076956
 30
0.0
 11
484.000175
 21
483.076956
 31
0.0
  0
LINE
  5
329
100
AcDbEntity
  8
box-20151219_220614_231108
 62
7
100
AcDbLine
 10
489.999867
 20
483.076956
 30
0.0
 11
489.999867
 21
497.692186
 31
0.0
  0
LINE
  5
32a
100
AcDbEntity
  8
box-20151219_220614_231108
 62
7
100
AcDbLine
 10
489.999867
 20
497.692186
 30
0.0
 11
484.000175
 21
497.692186
 31
0.0
  0
LINE
  5
32b
100
AcDbEntity
  8
box-20151219_220614_231108
 62
7
100
AcDbLine
 10
484.000175
 20
497.692186
 30
0.0
 11
484.000175
 21
512.307769
 31
0.0
  0
LINE
  5
32c
100
AcDbEntity
  8
box-20151219_220614_231108
 62
7
100
AcDbLine
 10
489.999867
 20
512.307769
 30
0.0
 11
484.000175
 21
512.307769
 31
0.0
  0
LINE
  5
32d
100
AcDbEntity
  8
box-20151219_220614_231108
 62
7
100
AcDbLine
 10
489.999867
 20
512.307769
 30
0.0
 11
489.999867
 21
526.923000
 31
0.0
  0
LINE
  5
32e
100
AcDbEntity
  8
box-20151219_220614_231108
 62
7
100
AcDbLine
 10
489.999867
 20
526.923000
 30
0.0
 11
484.000175
 21
526.923000
 31
0.0
  0
LINE
  5
32f
100
AcDbEntity
  8
box-20151219_220614_231108
 62
7
100
AcDbLine
 10
484.000175
 20
526.923000
 30
0.0
 11
484.000175
 21
541.538583
 31
0.0
  0
LINE
  5
330
100
AcDbEntity
  8
box-20151219_220614_231108
 62
7
100
AcDbLine
 10
489.999867
 20
541.538583
 30
0.0
 11
484.000175
 21
541.538583
 31
0.0
  0
LINE
  5
331
100
AcDbEntity
  8
box-20151219_220614_231108
 62
7
100
AcDbLine
 10
489.999867
 20
541.538583
 30
0.0
 11
489.999867
 21
556.153814
 31
0.0
  0
LINE
  5
332
100
AcDbEntity
  8
box-20151219_220614_231108
 62
7
100
AcDbLine
 10
489.999867
 20
556.153814
 30
0.0
 11
484.000175
 21
556.153814
 31
0.0
  0
LINE
  5
333
100
AcDbEntity
  8
box-20151219_220614_231108
 62
7
100
AcDbLine
 10
484.000175
 20
556.153814
 30
0.0
 11
484.000175
 21
570.769397
 31
0.0
  0
LINE
  5
334
100
AcDbEntity
  8
box-20151219_220614_231108
 62
7
100
AcDbLine
 10
489.999867
 20
570.769397
 30
0.0
 11
484.000175
 21
570.769397
 31
0.0
  0
LINE
  5
335
100
AcDbEntity
  8
box-20151219_220614_231108
 62
7
100
AcDbLine
 10
489.999867
 20
570.769397
 30
0.0
 11
489.999867
 21
585.384628
 31
0.0
  0
LINE
  5
336
100
AcDbEntity
  8
box-20151219_220614_231108
 62
7
100
AcDbLine
 10
489.999867
 20
585.384628
 30
0.0
 11
484.000175
 21
585.384628
 31
0.0
  0
LINE
  5
337
100
AcDbEntity
  8
box-20151219_220614_231108
 62
7
100
AcDbLine
 10
484.000175
 20
585.384628
 30
0.0
 11
484.000175
 21
594.000167
 31
0.0
  0
ENDSEC
  0
SECTION
  2
OBJECTS
  0
DICTIONARY
  5
C
330
0
100
AcDbDictionary
  3
ACAD_GROUP
350
D
  3
ACAD_MLINESTYLE
350
17
  0
DICTIONARY
  5
D
330
C
100
AcDbDictionary
  0
DICTIONARY
  5
1A
330
C
100
AcDbDictionary
  0
DICTIONARY
  5
17
330
C
100
AcDbDictionary
  3
STANDARD
350
18
  0
DICTIONARY
  5
19
330
C
100
AcDbDictionary
  0
ENDSEC
  0
EOF
