  0
SECTION
  2
HEADER
  9
$ACADVER
  1
AC1009
  9
$INSBASE
 10
0.0
 20
0.0
 30
0.0
  9
$EXTMIN
 10
0.0
 20
0.0
 30
0.0
  9
$EXTMAX
 10
0.0
 20
0.0
 30
0.0
  0
ENDSEC
  0
SECTION
  2
TABLES
  0
TABLE
  2
VPORT
 70
0
  0
ENDTAB
  0
TABLE
  2
LTYPE
 70
1
  0
LTYPE
  2
CONTINUOUS
 70
0
  3
Solid line
 72
65
 73
0
 40
0.0
  0
ENDTAB
  0
TABLE
  2
LAYER
 70
1
  0
LAYER
  2
0
 70
64
 62
7
  6
continuous
  0
ENDTAB
  0
TABLE
  2
STYLE
 70
1
  0
STYLE
  2
STANDARD
 70
0
 40
0
 41
1.0
 50
0.0
 71
0
 42
1
 3
ARIAL.TTF
 4

  0
ENDTAB
  0
TABLE
  2
VIEW
 70
0
  0
ENDTAB
  0
ENDSEC
  0
SECTION
  2
BLOCKS
  0
BLOCK
  8
0
  2
CUT001_CS
 70
0
 10
0.0
 20
0.0
 30
0.0
  3
CUT001_CS
  0
POLYLINE
  8
0
 62
0
 70
1
 66
1
 10
0.0
 20
0.0
 30
0.0
  0
VERTEX
  8
0
 10
250.0
 20
-20.0
 30
12.0
  0
VERTEX
  8
0
 10
20.0
 20
-20.0
 30
12.0
 42
-1.0
  0
VERTEX
  8
0
 10
20.0
 20
20.0
 30
12.0
  0
VERTEX
  8
0
 10
250.0
 20
20.0
 30
12.0
 42
-1.0
  0
SEQEND
  8
0
  0
CIRCLE
  8
0
 62
0
 10
85.0
 20
12.5
 30
12.0
 40
2.1
  0
CIRCLE
  8
0
 62
0
 10
135.0
 20
-12.5
 30
12.0
 40
2.1
  0
POLYLINE
  8
0
 62
0
 70
1
 66
1
 10
0.0
 20
0.0
 30
0.0
  0
VERTEX
  8
0
 10
121.25
 20
-3.0
 30
12.0
  0
VERTEX
  8
0
 10
121.25
 20
3.0
 30
12.0
  0
VERTEX
  8
0
 10
147.5
 20
3.0
 30
12.0
  0
VERTEX
  8
0
 10
147.5
 20
-3.0
 30
12.0
  0
SEQEND
  8
0
  0
CIRCLE
  8
0
 62
0
 10
110.0
 20
12.5
 30
12.0
 40
2.1
  0
CIRCLE
  8
0
 62
0
 10
135.0
 20
12.5
 30
12.0
 40
2.1
  0
CIRCLE
  8
0
 62
0
 10
35.0
 20
12.5
 30
12.0
 40
2.1
  0
CIRCLE
  8
0
 62
0
 10
60.0
 20
12.5
 30
12.0
 40
2.1
  0
CIRCLE
  8
0
 62
0
 10
35.0
 20
-12.5
 30
12.0
 40
2.1
  0
CIRCLE
  8
0
 62
0
 10
85.0
 20
-12.5
 30
12.0
 40
2.1
  0
CIRCLE
  8
0
 62
0
 10
60.0
 20
-12.5
 30
12.0
 40
2.1
  0
CIRCLE
  8
0
 62
0
 10
110.0
 20
-12.5
 30
12.0
 40
2.1
  0
POLYLINE
  8
0
 62
0
 70
1
 66
1
 10
0.0
 20
0.0
 30
0.0
  0
VERTEX
  8
0
 10
80.0
 20
-3.0
 30
12.0
  0
VERTEX
  8
0
 10
106.25
 20
-3.0
 30
12.0
  0
VERTEX
  8
0
 10
106.25
 20
3.0
 30
12.0
  0
VERTEX
  8
0
 10
80.0
 20
3.0
 30
12.0
  0
SEQEND
  8
0
  0
POLYLINE
  8
0
 62
0
 70
1
 66
1
 10
0.0
 20
0.0
 30
0.0
  0
VERTEX
  8
0
 10
50.0
 20
-3.0
 30
12.0
  0
VERTEX
  8
0
 10
65.0
 20
-3.0
 30
12.0
  0
VERTEX
  8
0
 10
65.0
 20
3.0
 30
12.0
  0
VERTEX
  8
0
 10
50.0
 20
3.0
 30
12.0
  0
SEQEND
  8
0
  0
CIRCLE
  8
0
 62
0
 10
260.0
 20
12.5
 30
12.0
 40
2.1
  0
CIRCLE
  8
0
 62
0
 10
260.0
 20
-12.5
 30
12.0
 40
2.1
  0
CIRCLE
  8
0
 62
0
 10
235.0
 20
-12.5
 30
12.0
 40
2.1
  0
CIRCLE
  8
0
 62
0
 10
247.5
 20
0.0
 30
12.0
 40
12.5
  0
CIRCLE
  8
0
 62
0
 10
235.0
 20
12.5
 30
12.0
 40
2.1
  0
CIRCLE
  8
0
 62
0
 10
160.0
 20
-12.5
 30
12.0
 40
2.1
  0
CIRCLE
  8
0
 62
0
 10
185.0
 20
-12.5
 30
12.0
 40
2.1
  0
POLYLINE
  8
0
 62
0
 70
1
 66
1
 10
0.0
 20
0.0
 30
0.0
  0
VERTEX
  8
0
 10
162.5
 20
-3.0
 30
12.0
  0
VERTEX
  8
0
 10
162.5
 20
3.0
 30
12.0
  0
VERTEX
  8
0
 10
188.75
 20
3.0
 30
12.0
  0
VERTEX
  8
0
 10
188.75
 20
-3.0
 30
12.0
  0
SEQEND
  8
0
  0
CIRCLE
  8
0
 62
0
 10
160.0
 20
12.5
 30
12.0
 40
2.1
  0
CIRCLE
  8
0
 62
0
 10
185.0
 20
12.5
 30
12.0
 40
2.1
  0
CIRCLE
  8
0
 62
0
 10
210.0
 20
-12.5
 30
12.0
 40
2.1
  0
POLYLINE
  8
0
 62
0
 70
1
 66
1
 10
0.0
 20
0.0
 30
0.0
  0
VERTEX
  8
0
 10
203.75
 20
-3.0
 30
12.0
  0
VERTEX
  8
0
 10
203.75
 20
3.0
 30
12.0
  0
VERTEX
  8
0
 10
220.0
 20
3.0
 30
12.0
  0
VERTEX
  8
0
 10
220.0
 20
-3.0
 30
12.0
  0
SEQEND
  8
0
  0
CIRCLE
  8
0
 62
0
 10
210.0
 20
12.5
 30
12.0
 40
2.1
  0
CIRCLE
  8
0
 62
0
 10
10.0
 20
-12.5
 30
12.0
 40
2.1
  0
CIRCLE
  8
0
 62
0
 10
22.5
 20
0.0
 30
12.0
 40
12.5
  0
CIRCLE
  8
0
 62
0
 10
10.0
 20
12.5
 30
12.0
 40
2.1
  0
ENDBLK
  0
ENDSEC
  0
SECTION
  2
ENTITIES
  0
INSERT
  2
CUT001_CS
  8
0
 10
0.0
 20
0.0
 30
0.0
  0
POLYLINE
  8
0
 62
0
 70
1
 66
1
 10
0.0
 20
0.0
 30
0.0
  0
VERTEX
  8
0
 10
53.0
 20
34.0
 30
3.5527136788e-15
  0
VERTEX
  8
0
 10
43.0
 20
34.0
 30
3.5527136788e-15
  0
VERTEX
  8
0
 10
43.0
 20
66.0
 30
-3.5527136788e-15
  0
VERTEX
  8
0
 10
53.0
 20
66.0
 30
-3.5527136788e-15
  0
VERTEX
  8
0
 10
53.0
 20
60.0
 30
-2.22044604925e-15
  0
VERTEX
  8
0
 10
68.0
 20
60.0
 30
-2.22044604925e-15
  0
VERTEX
  8
0
 10
68.0
 20
66.0
 30
-3.5527136788e-15
  0
VERTEX
  8
0
 10
83.0
 20
66.0
 30
-3.5527136788e-15
  0
VERTEX
  8
0
 10
83.0
 20
60.0
 30
-2.22044604925e-15
  0
VERTEX
  8
0
 10
98.0
 20
60.0
 30
-2.22044604925e-15
  0
VERTEX
  8
0
 10
98.0
 20
66.0
 30
-3.5527136788e-15
  0
VERTEX
  8
0
 10
113.0
 20
66.0
 30
-3.5527136788e-15
  0
VERTEX
  8
0
 10
113.0
 20
60.0
 30
-2.22044604925e-15
  0
VERTEX
  8
0
 10
128.0
 20
60.0
 30
-2.22044604925e-15
  0
VERTEX
  8
0
 10
128.0
 20
66.0
 30
-3.5527136788e-15
  0
VERTEX
  8
0
 10
143.0
 20
66.0
 30
-3.5527136788e-15
  0
VERTEX
  8
0
 10
143.0
 20
60.0
 30
-2.22044604925e-15
  0
VERTEX
  8
0
 10
158.0
 20
60.0
 30
-2.22044604925e-15
  0
VERTEX
  8
0
 10
158.0
 20
66.0
 30
-3.5527136788e-15
  0
VERTEX
  8
0
 10
173.0
 20
66.0
 30
-3.5527136788e-15
  0
VERTEX
  8
0
 10
173.0
 20
60.0
 30
-2.22044604925e-15
  0
VERTEX
  8
0
 10
188.0
 20
60.0
 30
-2.22044604925e-15
  0
VERTEX
  8
0
 10
188.0
 20
66.0
 30
-3.5527136788e-15
  0
VERTEX
  8
0
 10
203.0
 20
66.0
 30
-3.5527136788e-15
  0
VERTEX
  8
0
 10
203.0
 20
60.0
 30
-2.22044604925e-15
  0
VERTEX
  8
0
 10
218.0
 20
60.0
 30
-2.22044604925e-15
  0
VERTEX
  8
0
 10
218.0
 20
66.0
 30
-3.5527136788e-15
  0
VERTEX
  8
0
 10
228.0
 20
66.0
 30
-3.5527136788e-15
  0
VERTEX
  8
0
 10
228.0
 20
34.0
 30
3.5527136788e-15
  0
VERTEX
  8
0
 10
218.0
 20
34.0
 30
3.5527136788e-15
  0
VERTEX
  8
0
 10
218.0
 20
40.0
 30
2.22044604925e-15
  0
VERTEX
  8
0
 10
203.0
 20
40.0
 30
2.22044604925e-15
  0
VERTEX
  8
0
 10
203.0
 20
34.0
 30
3.5527136788e-15
  0
VERTEX
  8
0
 10
188.0
 20
34.0
 30
3.5527136788e-15
  0
VERTEX
  8
0
 10
188.0
 20
40.0
 30
2.22044604925e-15
  0
VERTEX
  8
0
 10
173.0
 20
40.0
 30
2.22044604925e-15
  0
VERTEX
  8
0
 10
173.0
 20
34.0
 30
3.5527136788e-15
  0
VERTEX
  8
0
 10
158.0
 20
34.0
 30
3.5527136788e-15
  0
VERTEX
  8
0
 10
158.0
 20
40.0
 30
2.22044604925e-15
  0
VERTEX
  8
0
 10
143.0
 20
40.0
 30
2.22044604925e-15
  0
VERTEX
  8
0
 10
143.0
 20
34.0
 30
3.5527136788e-15
  0
VERTEX
  8
0
 10
128.0
 20
34.0
 30
3.5527136788e-15
  0
VERTEX
  8
0
 10
128.0
 20
40.0
 30
2.22044604925e-15
  0
VERTEX
  8
0
 10
113.0
 20
40.0
 30
2.22044604925e-15
  0
VERTEX
  8
0
 10
113.0
 20
34.0
 30
3.5527136788e-15
  0
VERTEX
  8
0
 10
98.0
 20
34.0
 30
3.5527136788e-15
  0
VERTEX
  8
0
 10
98.0
 20
40.0
 30
2.22044604925e-15
  0
VERTEX
  8
0
 10
83.0
 20
40.0
 30
2.22044604925e-15
  0
VERTEX
  8
0
 10
83.0
 20
34.0
 30
3.5527136788e-15
  0
VERTEX
  8
0
 10
68.0
 20
34.0
 30
3.5527136788e-15
  0
VERTEX
  8
0
 10
68.0
 20
40.0
 30
2.22044604925e-15
  0
VERTEX
  8
0
 10
53.0
 20
40.0
 30
2.22044604925e-15
  0
SEQEND
  8
0
  0
ENDSEC
  0
EOF
