  0
SECTION
  2
HEADER
  9
$ACADVER
  1
AC1009
  9
$INSBASE
 10
0.0
 20
0.0
 30
0.0
  9
$EXTMIN
 10
0.0
 20
0.0
 30
0.0
  9
$EXTMAX
 10
0.0
 20
0.0
 30
0.0
  0
ENDSEC
  0
SECTION
  2
TABLES
  0
TABLE
  2
VPORT
 70
0
  0
ENDTAB
  0
TABLE
  2
LTYPE
 70
1
  0
LTYPE
  2
CONTINUOUS
 70
0
  3
Solid line
 72
65
 73
0
 40
0.0
  0
ENDTAB
  0
TABLE
  2
LAYER
 70
1
  0
LAYER
  2
0
 70
64
 62
7
  6
continuous
  0
ENDTAB
  0
TABLE
  2
STYLE
 70
1
  0
STYLE
  2
STANDARD
 70
0
 40
0
 41
1.0
 50
0.0
 71
0
 42
1
 3
ARIAL.TTF
 4

  0
ENDTAB
  0
TABLE
  2
VIEW
 70
0
  0
ENDTAB
  0
ENDSEC
  0
SECTION
  2
BLOCKS
  0
BLOCK
  8
0
  2
FUSION003_CS
 70
0
 10
0.0
 20
0.0
 30
0.0
  3
FUSION003_CS
  0
POLYLINE
  8
0
 62
0
 70
1
 66
1
 10
0.0
 20
0.0
 30
0.0
  0
VERTEX
  8
0
 10
1169.0
 20
290.0
 30
2.95
  0
VERTEX
  8
0
 10
1169.0
 20
-290.0
 30
2.95
  0
VERTEX
  8
0
 10
1031.0
 20
-290.0
 30
2.95
  0
VERTEX
  8
0
 10
1031.0
 20
290.0
 30
2.95
  0
SEQEND
  8
0
  0
POLYLINE
  8
0
 62
0
 70
1
 66
1
 10
0.0
 20
0.0
 30
0.0
  0
VERTEX
  8
0
 10
450.0
 20
290.0
 30
2.95
  0
VERTEX
  8
0
 10
650.0
 20
290.0
 30
2.95
  0
VERTEX
  8
0
 10
650.0
 20
-290.0
 30
2.95
  0
VERTEX
  8
0
 10
450.0
 20
-290.0
 30
2.95
  0
SEQEND
  8
0
  0
CIRCLE
  8
0
 62
0
 10
470.0
 20
260.0
 30
2.95
 40
10.0
  0
POLYLINE
  8
0
 62
0
 70
1
 66
1
 10
0.0
 20
0.0
 30
0.0
  0
VERTEX
  8
0
 10
731.334072868
 20
38.7071852557
 30
2.95
  0
VERTEX
  8
0
 10
739.0
 20
20.2
 30
2.95
  0
VERTEX
  8
0
 10
881.0
 20
20.2
 30
2.95
  0
VERTEX
  8
0
 10
888.665927132
 20
38.7071852557
 30
2.95
  0
VERTEX
  8
0
 10
893.839652515
 20
36.5641580348
 30
2.95
  0
VERTEX
  8
0
 10
908.993916433
 20
73.1497875235
 30
2.95
  0
VERTEX
  8
0
 10
903.820191051
 20
75.2928147443
 30
2.95
  0
VERTEX
  8
0
 10
911.486118184
 20
93.8
 30
2.95
  0
VERTEX
  8
0
 10
708.513881816
 20
93.8
 30
2.95
  0
VERTEX
  8
0
 10
716.179808949
 20
75.2928147443
 30
2.95
  0
VERTEX
  8
0
 10
711.006083567
 20
73.1497875235
 30
2.95
  0
VERTEX
  8
0
 10
726.160347485
 20
36.5641580348
 30
2.95
  0
SEQEND
  8
0
  0
POLYLINE
  8
0
 62
0
 70
1
 66
1
 10
0.0
 20
0.0
 30
0.0
  0
VERTEX
  8
0
 10
371.711584383
 20
-290.000038727
 30
2.95
  0
VERTEX
  8
0
 10
441.711599865
 20
-290.000031794
 30
2.95
  0
VERTEX
  8
0
 10
441.711542603
 20
289.999968206
 30
2.95
  0
VERTEX
  8
0
 10
371.711527121
 20
289.999961273
 30
2.95
  0
SEQEND
  8
0
  0
POLYLINE
  8
0
 62
0
 70
1
 66
1
 10
0.0
 20
0.0
 30
0.0
  0
VERTEX
  8
0
 10
386.711549131
 20
100.666629425
 30
2.95
  0
VERTEX
  8
0
 10
386.711549723
 20
94.666629425
 30
2.95
  0
VERTEX
  8
0
 10
426.71155857
 20
94.6666333872
 30
2.95
  0
VERTEX
  8
0
 10
426.711557978
 20
100.666633387
 30
2.95
  0
SEQEND
  8
0
  0
POLYLINE
  8
0
 62
0
 70
1
 66
1
 10
0.0
 20
0.0
 30
0.0
  0
VERTEX
  8
0
 10
386.711559366
 20
-3.00003724166
 30
2.95
  0
VERTEX
  8
0
 10
426.711568213
 20
-3.00003327951
 30
2.95
  0
VERTEX
  8
0
 10
426.71156762
 20
2.99996672049
 30
2.95
  0
VERTEX
  8
0
 10
386.711558773
 20
2.99996275835
 30
2.95
  0
SEQEND
  8
0
  0
POLYLINE
  8
0
 62
0
 70
1
 66
1
 10
0.0
 20
0.0
 30
0.0
  0
VERTEX
  8
0
 10
386.711568416
 20
-94.6667039083
 30
2.95
  0
VERTEX
  8
0
 10
386.711569008
 20
-100.666703908
 30
2.95
  0
VERTEX
  8
0
 10
426.711577855
 20
-100.666699946
 30
2.95
  0
VERTEX
  8
0
 10
426.711577263
 20
-94.6666999462
 30
2.95
  0
SEQEND
  8
0
  0
POLYLINE
  8
0
 62
0
 70
1
 66
1
 10
0.0
 20
0.0
 30
0.0
  0
VERTEX
  8
0
 10
731.334072868
 20
-161.292814744
 30
2.95
  0
VERTEX
  8
0
 10
739.0
 20
-179.8
 30
2.95
  0
VERTEX
  8
0
 10
881.0
 20
-179.8
 30
2.95
  0
VERTEX
  8
0
 10
888.665927132
 20
-161.292814744
 30
2.95
  0
VERTEX
  8
0
 10
893.839652515
 20
-163.435841965
 30
2.95
  0
VERTEX
  8
0
 10
908.993916433
 20
-126.850212476
 30
2.95
  0
VERTEX
  8
0
 10
903.820191051
 20
-124.707185256
 30
2.95
  0
VERTEX
  8
0
 10
911.486118184
 20
-106.2
 30
2.95
  0
VERTEX
  8
0
 10
708.513881816
 20
-106.2
 30
2.95
  0
VERTEX
  8
0
 10
716.179808949
 20
-124.707185256
 30
2.95
  0
VERTEX
  8
0
 10
711.006083567
 20
-126.850212476
 30
2.95
  0
VERTEX
  8
0
 10
726.160347485
 20
-163.435841965
 30
2.95
  0
SEQEND
  8
0
  0
POLYLINE
  8
0
 62
0
 70
1
 66
1
 10
0.0
 20
0.0
 30
0.0
  0
VERTEX
  8
0
 10
731.334072868
 20
-261.292814744
 30
2.95
  0
VERTEX
  8
0
 10
739.0
 20
-279.8
 30
2.95
  0
VERTEX
  8
0
 10
881.0
 20
-279.8
 30
2.95
  0
VERTEX
  8
0
 10
888.665927132
 20
-261.292814744
 30
2.95
  0
VERTEX
  8
0
 10
893.839652515
 20
-263.435841965
 30
2.95
  0
VERTEX
  8
0
 10
908.993916433
 20
-226.850212476
 30
2.95
  0
VERTEX
  8
0
 10
903.820191051
 20
-224.707185256
 30
2.95
  0
VERTEX
  8
0
 10
911.486118184
 20
-206.2
 30
2.95
  0
VERTEX
  8
0
 10
708.513881816
 20
-206.2
 30
2.95
  0
VERTEX
  8
0
 10
716.179808949
 20
-224.707185256
 30
2.95
  0
VERTEX
  8
0
 10
711.006083567
 20
-226.850212476
 30
2.95
  0
VERTEX
  8
0
 10
726.160347485
 20
-263.435841965
 30
2.95
  0
SEQEND
  8
0
  0
POLYLINE
  8
0
 62
0
 70
1
 66
1
 10
0.0
 20
0.0
 30
0.0
  0
VERTEX
  8
0
 10
731.334072868
 20
238.707185256
 30
2.95
  0
VERTEX
  8
0
 10
739.0
 20
220.2
 30
2.95
  0
VERTEX
  8
0
 10
881.0
 20
220.2
 30
2.95
  0
VERTEX
  8
0
 10
888.665927132
 20
238.707185256
 30
2.95
  0
VERTEX
  8
0
 10
893.839652515
 20
236.564158035
 30
2.95
  0
VERTEX
  8
0
 10
908.993916433
 20
273.149787524
 30
2.95
  0
VERTEX
  8
0
 10
903.820191051
 20
275.292814744
 30
2.95
  0
VERTEX
  8
0
 10
911.486118184
 20
293.8
 30
2.95
  0
VERTEX
  8
0
 10
708.513881816
 20
293.8
 30
2.95
  0
VERTEX
  8
0
 10
716.179808949
 20
275.292814744
 30
2.95
  0
VERTEX
  8
0
 10
711.006083567
 20
273.149787524
 30
2.95
  0
VERTEX
  8
0
 10
726.160347485
 20
236.564158035
 30
2.95
  0
SEQEND
  8
0
  0
POLYLINE
  8
0
 62
0
 70
1
 66
1
 10
0.0
 20
0.0
 30
0.0
  0
VERTEX
  8
0
 10
731.334072868
 20
-61.2928147443
 30
2.95
  0
VERTEX
  8
0
 10
739.0
 20
-79.8
 30
2.95
  0
VERTEX
  8
0
 10
881.0
 20
-79.8
 30
2.95
  0
VERTEX
  8
0
 10
888.665927132
 20
-61.2928147443
 30
2.95
  0
VERTEX
  8
0
 10
893.839652515
 20
-63.4358419652
 30
2.95
  0
VERTEX
  8
0
 10
908.993916433
 20
-26.8502124765
 30
2.95
  0
VERTEX
  8
0
 10
903.820191051
 20
-24.7071852557
 30
2.95
  0
VERTEX
  8
0
 10
911.486118184
 20
-6.2
 30
2.95
  0
VERTEX
  8
0
 10
708.513881816
 20
-6.2
 30
2.95
  0
VERTEX
  8
0
 10
716.179808949
 20
-24.7071852557
 30
2.95
  0
VERTEX
  8
0
 10
711.006083567
 20
-26.8502124765
 30
2.95
  0
VERTEX
  8
0
 10
726.160347485
 20
-63.4358419652
 30
2.95
  0
SEQEND
  8
0
  0
POLYLINE
  8
0
 62
0
 70
1
 66
1
 10
0.0
 20
0.0
 30
0.0
  0
VERTEX
  8
0
 10
731.334072868
 20
138.707185256
 30
2.95
  0
VERTEX
  8
0
 10
739.0
 20
120.2
 30
2.95
  0
VERTEX
  8
0
 10
881.0
 20
120.2
 30
2.95
  0
VERTEX
  8
0
 10
888.665927132
 20
138.707185256
 30
2.95
  0
VERTEX
  8
0
 10
893.839652515
 20
136.564158035
 30
2.95
  0
VERTEX
  8
0
 10
908.993916433
 20
173.149787524
 30
2.95
  0
VERTEX
  8
0
 10
903.820191051
 20
175.292814744
 30
2.95
  0
VERTEX
  8
0
 10
911.486118184
 20
193.8
 30
2.95
  0
VERTEX
  8
0
 10
708.513881816
 20
193.8
 30
2.95
  0
VERTEX
  8
0
 10
716.179808949
 20
175.292814744
 30
2.95
  0
VERTEX
  8
0
 10
711.006083567
 20
173.149787524
 30
2.95
  0
VERTEX
  8
0
 10
726.160347485
 20
136.564158035
 30
2.95
  0
SEQEND
  8
0
  0
ENDBLK
  0
ENDSEC
  0
SECTION
  2
ENTITIES
  0
INSERT
  2
FUSION003_CS
  8
0
 10
0.0
 20
0.0
 30
0.0
  0
ENDSEC
  0
EOF
