  0
SECTION
  2
HEADER
  9
$ACADVER
  1
AC1009
  9
$INSBASE
 10
0.0
 20
0.0
 30
0.0
  9
$EXTMIN
 10
0.0
 20
0.0
 30
0.0
  9
$EXTMAX
 10
0.0
 20
0.0
 30
0.0
  0
ENDSEC
  0
SECTION
  2
TABLES
  0
TABLE
  2
VPORT
 70
0
  0
ENDTAB
  0
TABLE
  2
LTYPE
 70
1
  0
LTYPE
  2
CONTINUOUS
 70
0
  3
Solid line
 72
65
 73
0
 40
0.0
  0
ENDTAB
  0
TABLE
  2
LAYER
 70
1
  0
LAYER
  2
0
 70
64
 62
7
  6
continuous
  0
ENDTAB
  0
TABLE
  2
STYLE
 70
1
  0
STYLE
  2
STANDARD
 70
0
 40
0
 41
1.0
 50
0.0
 71
0
 42
1
 3
ARIAL.TTF
 4

  0
ENDTAB
  0
TABLE
  2
VIEW
 70
0
  0
ENDTAB
  0
ENDSEC
  0
SECTION
  2
BLOCKS
  0
BLOCK
  8
0
  2
FUSION002_CS
 70
0
 10
0.0
 20
0.0
 30
0.0
  3
FUSION002_CS
  0
POLYLINE
  8
0
 62
0
 70
1
 66
1
 10
0.0
 20
0.0
 30
0.0
  0
VERTEX
  8
0
 10
-270.0
 20
620.0
 30
12.0
  0
VERTEX
  8
0
 10
-270.0
 20
508.162338159
 30
12.0
  0
VERTEX
  8
0
 10
-111.837661841
 20
350.0
 30
12.0
  0
VERTEX
  8
0
 10
111.837661841
 20
350.0
 30
12.0
  0
VERTEX
  8
0
 10
270.0
 20
508.162338159
 30
12.0
  0
VERTEX
  8
0
 10
270.0
 20
620.0
 30
12.0
  0
VERTEX
  8
0
 10
260.0
 20
620.0
 30
12.0
  0
VERTEX
  8
0
 10
260.0
 20
519.0
 30
12.0
  0
VERTEX
  8
0
 10
253.8
 20
519.0
 30
12.0
  0
VERTEX
  8
0
 10
253.8
 20
620.0
 30
12.0
  0
VERTEX
  8
0
 10
228.0
 20
620.0
 30
12.0
  0
VERTEX
  8
0
 10
228.0
 20
605.0
 30
12.0
  0
VERTEX
  8
0
 10
240.5
 20
585.0
 30
12.0
  0
VERTEX
  8
0
 10
195.5
 20
585.0
 30
12.0
  0
VERTEX
  8
0
 10
208.0
 20
605.0
 30
12.0
  0
VERTEX
  8
0
 10
208.0
 20
620.0
 30
12.0
  0
VERTEX
  8
0
 10
180.0
 20
620.0
 30
12.0
  0
VERTEX
  8
0
 10
180.0
 20
549.568960903
 30
12.0
  0
VERTEX
  8
0
 10
173.8
 20
549.568960903
 30
12.0
  0
VERTEX
  8
0
 10
173.8
 20
620.0
 30
12.0
  0
VERTEX
  8
0
 10
164.0
 20
620.0
 30
12.0
  0
VERTEX
  8
0
 10
164.0
 20
552.068975771
 30
12.0
  0
VERTEX
  8
0
 10
67.9310242292
 20
456.0
 30
12.0
  0
VERTEX
  8
0
 10
-67.9310242292
 20
456.0
 30
12.0
  0
VERTEX
  8
0
 10
-164.0
 20
552.068975771
 30
12.0
  0
VERTEX
  8
0
 10
-164.0
 20
620.0
 30
12.0
  0
VERTEX
  8
0
 10
-173.8
 20
620.0
 30
12.0
  0
VERTEX
  8
0
 10
-173.8
 20
549.568960903
 30
12.0
  0
VERTEX
  8
0
 10
-180.0
 20
549.568960903
 30
12.0
  0
VERTEX
  8
0
 10
-180.0
 20
620.0
 30
12.0
  0
VERTEX
  8
0
 10
-208.0
 20
620.0
 30
12.0
  0
VERTEX
  8
0
 10
-208.0
 20
605.0
 30
12.0
  0
VERTEX
  8
0
 10
-195.5
 20
585.0
 30
12.0
  0
VERTEX
  8
0
 10
-240.5
 20
585.0
 30
12.0
  0
VERTEX
  8
0
 10
-228.0
 20
605.0
 30
12.0
  0
VERTEX
  8
0
 10
-228.0
 20
620.0
 30
12.0
  0
VERTEX
  8
0
 10
-253.8
 20
620.0
 30
12.0
  0
VERTEX
  8
0
 10
-253.8
 20
519.0
 30
12.0
  0
VERTEX
  8
0
 10
-260.0
 20
519.0
 30
12.0
  0
VERTEX
  8
0
 10
-260.0
 20
620.0
 30
12.0
  0
SEQEND
  8
0
  0
POLYLINE
  8
0
 62
0
 70
1
 66
1
 10
0.0
 20
0.0
 30
0.0
  0
VERTEX
  8
0
 10
77.4769552622
 20
442.918514035
 30
12.0
  0
VERTEX
  8
0
 10
73.0928932188
 20
447.302576078
 30
12.0
  0
VERTEX
  8
0
 10
172.697423922
 20
546.907106781
 30
12.0
  0
VERTEX
  8
0
 10
177.081485965
 20
542.523044738
 30
12.0
  0
SEQEND
  8
0
  0
POLYLINE
  8
0
 62
0
 70
1
 66
1
 10
0.0
 20
0.0
 30
0.0
  0
VERTEX
  8
0
 10
-101.0
 20
360.0
 30
12.0
  0
VERTEX
  8
0
 10
101.0
 20
360.0
 30
12.0
  0
VERTEX
  8
0
 10
101.0
 20
366.2
 30
12.0
  0
VERTEX
  8
0
 10
-101.0
 20
366.2
 30
12.0
  0
SEQEND
  8
0
  0
POLYLINE
  8
0
 62
0
 70
1
 66
1
 10
0.0
 20
0.0
 30
0.0
  0
VERTEX
  8
0
 10
255.265548008
 20
507.570021791
 30
12.0
  0
VERTEX
  8
0
 10
250.881485965
 20
511.954083835
 30
12.0
  0
VERTEX
  8
0
 10
108.045916165
 20
369.118514035
 30
12.0
  0
VERTEX
  8
0
 10
112.429978209
 20
364.734451992
 30
12.0
  0
SEQEND
  8
0
  0
POLYLINE
  8
0
 62
0
 70
1
 66
1
 10
0.0
 20
0.0
 30
0.0
  0
VERTEX
  8
0
 10
70.4310390969
 20
440.0
 30
12.0
  0
VERTEX
  8
0
 10
-70.4310390969
 20
440.0
 30
12.0
  0
VERTEX
  8
0
 10
-70.4310390969
 20
446.2
 30
12.0
  0
VERTEX
  8
0
 10
70.4310390969
 20
446.2
 30
12.0
  0
SEQEND
  8
0
  0
POLYLINE
  8
0
 62
0
 70
1
 66
1
 10
0.0
 20
0.0
 30
0.0
  0
VERTEX
  8
0
 10
100.30308447
 20
386.2089361
 30
12.0
  0
VERTEX
  8
0
 10
106.617361104
 20
370.964923813
 30
12.0
  0
VERTEX
  8
0
 10
100.704532096
 20
368.515749846
 30
12.0
  0
VERTEX
  8
0
 10
94.390255462
 20
383.759762132
 30
12.0
  0
VERTEX
  8
0
 10
79.4656015998
 20
419.7910639
 30
12.0
  0
VERTEX
  8
0
 10
73.1513249658
 20
435.035076187
 30
12.0
  0
VERTEX
  8
0
 10
79.0641539739
 20
437.484250154
 30
12.0
  0
VERTEX
  8
0
 10
85.3784306079
 20
422.240237868
 30
12.0
  0
SEQEND
  8
0
  0
POLYLINE
  8
0
 62
0
 70
1
 66
1
 10
0.0
 20
0.0
 30
0.0
  0
VERTEX
  8
0
 10
-172.697423922
 20
546.907106781
 30
12.0
  0
VERTEX
  8
0
 10
-73.0928932188
 20
447.302576078
 30
12.0
  0
VERTEX
  8
0
 10
-77.4769552622
 20
442.918514035
 30
12.0
  0
VERTEX
  8
0
 10
-177.081485965
 20
542.523044738
 30
12.0
  0
SEQEND
  8
0
  0
POLYLINE
  8
0
 62
0
 70
1
 66
1
 10
0.0
 20
0.0
 30
0.0
  0
VERTEX
  8
0
 10
-73.1513249658
 20
435.035076187
 30
12.0
  0
VERTEX
  8
0
 10
-79.0641539739
 20
437.484250154
 30
12.0
  0
VERTEX
  8
0
 10
-85.3784306079
 20
422.240237868
 30
12.0
  0
VERTEX
  8
0
 10
-100.30308447
 20
386.2089361
 30
12.0
  0
VERTEX
  8
0
 10
-106.617361104
 20
370.964923813
 30
12.0
  0
VERTEX
  8
0
 10
-100.704532096
 20
368.515749846
 30
12.0
  0
VERTEX
  8
0
 10
-94.390255462
 20
383.759762132
 30
12.0
  0
VERTEX
  8
0
 10
-79.4656015998
 20
419.7910639
 30
12.0
  0
SEQEND
  8
0
  0
POLYLINE
  8
0
 62
0
 70
1
 66
1
 10
0.0
 20
0.0
 30
0.0
  0
VERTEX
  8
0
 10
-112.429978209
 20
364.734451992
 30
12.0
  0
VERTEX
  8
0
 10
-108.045916165
 20
369.118514035
 30
12.0
  0
VERTEX
  8
0
 10
-250.881485965
 20
511.954083835
 30
12.0
  0
VERTEX
  8
0
 10
-255.265548008
 20
507.570021791
 30
12.0
  0
SEQEND
  8
0
  0
POLYLINE
  8
0
 62
0
 70
1
 66
1
 10
0.0
 20
0.0
 30
0.0
  0
VERTEX
  8
0
 10
-249.035076187
 20
513.382638896
 30
12.0
  0
VERTEX
  8
0
 10
-251.484250154
 20
519.295467904
 30
12.0
  0
VERTEX
  8
0
 10
-236.240237868
 20
525.609744538
 30
12.0
  0
VERTEX
  8
0
 10
-200.2089361
 20
540.5343984
 30
12.0
  0
VERTEX
  8
0
 10
-184.964923813
 20
546.848675034
 30
12.0
  0
VERTEX
  8
0
 10
-182.515749846
 20
540.935846026
 30
12.0
  0
VERTEX
  8
0
 10
-197.759762132
 20
534.621569392
 30
12.0
  0
VERTEX
  8
0
 10
-233.7910639
 20
519.69691553
 30
12.0
  0
SEQEND
  8
0
  0
POLYLINE
  8
0
 62
0
 70
1
 66
1
 10
0.0
 20
0.0
 30
0.0
  0
VERTEX
  8
0
 10
251.484250154
 20
519.295467904
 30
12.0
  0
VERTEX
  8
0
 10
249.035076187
 20
513.382638896
 30
12.0
  0
VERTEX
  8
0
 10
233.7910639
 20
519.69691553
 30
12.0
  0
VERTEX
  8
0
 10
197.759762132
 20
534.621569392
 30
12.0
  0
VERTEX
  8
0
 10
182.515749846
 20
540.935846026
 30
12.0
  0
VERTEX
  8
0
 10
184.964923813
 20
546.848675034
 30
12.0
  0
VERTEX
  8
0
 10
200.2089361
 20
540.5343984
 30
12.0
  0
VERTEX
  8
0
 10
236.240237868
 20
525.609744538
 30
12.0
  0
SEQEND
  8
0
  0
POLYLINE
  8
0
 62
0
 70
1
 66
1
 10
0.0
 20
0.0
 30
0.0
  0
VERTEX
  8
0
 10
98.0
 20
650.0
 30
12.0
  0
VERTEX
  8
0
 10
110.0
 20
650.0
 30
12.0
  0
VERTEX
  8
0
 10
110.0
 20
520.0
 30
12.0
  0
VERTEX
  8
0
 10
20.0
 20
520.0
 30
12.0
  0
VERTEX
  8
0
 10
20.0
 20
532.0
 30
12.0
 42
-0.414213562373
  0
VERTEX
  8
0
 10
32.0
 20
544.0
 30
12.0
  0
VERTEX
  8
0
 10
35.0000000001
 20
544.0
 30
12.0
 42
0.414213209697
  0
VERTEX
  8
0
 10
86.0
 20
595.000055904
 30
12.0
  0
VERTEX
  8
0
 10
86.0
 20
638.0
 30
12.0
 42
-0.414213562373
  0
SEQEND
  8
0
  0
POLYLINE
  8
0
 62
0
 70
1
 66
1
 10
0.0
 20
0.0
 30
0.0
  0
VERTEX
  8
0
 10
-220.541642372
 20
372.869161518
 30
12.0
  0
VERTEX
  8
0
 10
-228.2
 20
385.0
 30
12.0
  0
VERTEX
  8
0
 10
-228.2
 20
415.0
 30
12.0
  0
VERTEX
  8
0
 10
-220.541642372
 20
427.130838482
 30
12.0
 42
0.590602120966
  0
VERTEX
  8
0
 10
-224.769594216
 20
434.8
 30
12.0
  0
VERTEX
  8
0
 10
-251.230405784
 20
434.8
 30
12.0
 42
0.590602120966
  0
VERTEX
  8
0
 10
-255.458357628
 20
427.130838482
 30
12.0
  0
VERTEX
  8
0
 10
-247.8
 20
415.0
 30
12.0
  0
VERTEX
  8
0
 10
-247.8
 20
385.0
 30
12.0
  0
VERTEX
  8
0
 10
-255.458357628
 20
372.869161518
 30
12.0
 42
0.590602120966
  0
VERTEX
  8
0
 10
-251.230405784
 20
365.2
 30
12.0
  0
VERTEX
  8
0
 10
-224.769594216
 20
365.2
 30
12.0
 42
0.590602120966
  0
SEQEND
  8
0
  0
ENDBLK
  0
ENDSEC
  0
SECTION
  2
ENTITIES
  0
INSERT
  2
FUSION002_CS
  8
0
 10
0.0
 20
0.0
 30
0.0
  0
POLYLINE
  8
0
 62
0
 70
1
 66
1
 10
0.0
 20
0.0
 30
0.0
  0
VERTEX
  8
0
 10
-270.0
 20
620.0
 30
0.0
  0
VERTEX
  8
0
 10
-270.0
 20
508.162338159
 30
0.0
  0
VERTEX
  8
0
 10
-111.837661841
 20
350.0
 30
0.0
  0
VERTEX
  8
0
 10
111.837661841
 20
350.0
 30
0.0
  0
VERTEX
  8
0
 10
270.0
 20
508.162338159
 30
0.0
  0
VERTEX
  8
0
 10
270.0
 20
620.0
 30
0.0
  0
VERTEX
  8
0
 10
164.0
 20
620.0
 30
0.0
  0
VERTEX
  8
0
 10
164.0
 20
552.068975771
 30
0.0
  0
VERTEX
  8
0
 10
67.9310242292
 20
456.0
 30
0.0
  0
VERTEX
  8
0
 10
-67.9310242292
 20
456.0
 30
0.0
  0
VERTEX
  8
0
 10
-164.0
 20
552.068975771
 30
0.0
  0
VERTEX
  8
0
 10
-164.0
 20
620.0
 30
0.0
  0
SEQEND
  8
0
  0
ENDSEC
  0
EOF
