<?xml version="1.0" encoding="UTF-8" standalone="no"?>
<!-- Created with Inkscape (http://www.inkscape.org/) -->

<svg
   xmlns:dc="http://purl.org/dc/elements/1.1/"
   xmlns:cc="http://creativecommons.org/ns#"
   xmlns:rdf="http://www.w3.org/1999/02/22-rdf-syntax-ns#"
   xmlns:svg="http://www.w3.org/2000/svg"
   xmlns="http://www.w3.org/2000/svg"
   xmlns:xlink="http://www.w3.org/1999/xlink"
   xmlns:sodipodi="http://sodipodi.sourceforge.net/DTD/sodipodi-0.dtd"
   xmlns:inkscape="http://www.inkscape.org/namespaces/inkscape"
   width="210mm"
   height="297mm"
   viewBox="0 0 210 297"
   version="1.1"
   id="svg69188"
   inkscape:version="0.92.4 5da689c313, 2019-01-14"
   sodipodi:docname="flower-fillegri2.svg">
  <defs
     id="defs69182">
    <inkscape:path-effect
       effect="skeletal"
       id="path-effect99270"
       is_visible="true"
       pattern="#path99229"
       copytype="repeated"
       prop_scale="1"
       scale_y_rel="false"
       spacing="0.5"
       normal_offset="0"
       tang_offset="0"
       prop_units="false"
       vertical_pattern="false"
       fuse_tolerance="0" />
    <inkscape:path-effect
       fuse_tolerance="-0.3"
       vertical_pattern="false"
       prop_units="false"
       tang_offset="0"
       normal_offset="0"
       spacing="0.6"
       scale_y_rel="false"
       prop_scale="1"
       copytype="repeated"
       pattern="#path99229"
       is_visible="true"
       id="path-effect99233"
       effect="skeletal" />
    <inkscape:path-effect
       effect="skeletal"
       id="path-effect98485"
       is_visible="true"
       pattern="#path90192"
       copytype="repeated"
       prop_scale="1"
       scale_y_rel="false"
       spacing="0.6"
       normal_offset="0"
       tang_offset="0"
       prop_units="false"
       vertical_pattern="false"
       fuse_tolerance="-0.3" />
    <inkscape:path-effect
       effect="skeletal"
       id="path-effect94764"
       is_visible="false"
       pattern="#path90192"
       copytype="repeated"
       prop_scale="1"
       scale_y_rel="false"
       spacing="0.9"
       normal_offset="0"
       tang_offset="0"
       prop_units="false"
       vertical_pattern="false"
       fuse_tolerance="0" />
  </defs>
  <sodipodi:namedview
     id="base"
     pagecolor="#ffffff"
     bordercolor="#666666"
     borderopacity="1.0"
     inkscape:pageopacity="0.0"
     inkscape:pageshadow="2"
     inkscape:zoom="2.8284271"
     inkscape:cx="439.3913"
     inkscape:cy="985.02988"
     inkscape:document-units="mm"
     inkscape:current-layer="layer1"
     showgrid="false"
     showguides="true"
     inkscape:window-width="1918"
     inkscape:window-height="1059"
     inkscape:window-x="0"
     inkscape:window-y="19"
     inkscape:window-maximized="1"
     inkscape:snap-bbox="true"
     inkscape:snap-bbox-midpoints="true"
     inkscape:snap-object-midpoints="true" />
  <metadata
     id="metadata69185">
    <rdf:RDF>
      <cc:Work
         rdf:about="">
        <dc:format>image/svg+xml</dc:format>
        <dc:type
           rdf:resource="http://purl.org/dc/dcmitype/StillImage" />
        <dc:title></dc:title>
      </cc:Work>
    </rdf:RDF>
  </metadata>
  <g
     inkscape:label="Layer 1"
     inkscape:groupmode="layer"
     id="layer1">
    <path
       id="path36486"
       d="m 46.001452,43.47724 c -3.87641,-8.143081 -4.837641,-8.312414 -6.422496,-12.728839 -1.959768,-5.459413 -0.188647,-9.899386 1.764242,-13.383419 2.655094,-4.736042 6.228027,-8.922279 7.314406,-8.0086728 0.976313,0.8210018 -0.279929,1.4991288 6.47065,9.1297128 3.67665,4.156075 5.87719,4.91437 1.230842,15.775252 -2.574131,6.01636 -3.711046,9.112514 -3.711046,9.112514"
       stroke-miterlimit="10"
       inkscape:connector-curvature="0"
       style="fill:none;stroke:#000000;stroke-width:0.1984375;stroke-miterlimit:10" />
    <path
       id="path36488"
       d="m 44.081106,49.80475 c -8.942652,1.170517 -9.400381,2.032265 -14.090649,2.17514 -5.797815,0.176742 -9.473142,-2.87999 -12.183004,-5.813954 -3.684059,-3.988594 -6.561138,-8.680185 -5.35649,-9.431338 1.08241,-0.674952 1.339321,0.729721 10.682287,-3.332691 5.088996,-2.212446 6.490229,-4.071144 15.383669,3.704166 4.926542,4.307153 7.519723,6.345238 7.519723,6.345238"
       stroke-miterlimit="10"
       inkscape:connector-curvature="0"
       style="fill:none;stroke:#000000;stroke-width:0.1984375;stroke-miterlimit:10" />
    <path
       id="path36490"
       d="m 49.505329,53.586705 c -1.650471,8.866451 -0.972344,9.568126 -2.285735,14.072922 -1.623748,5.568686 -5.666317,8.119533 -9.294019,9.790113 -4.932098,2.271183 -10.282766,3.557587 -10.624873,2.179902 -0.307445,-1.23825 1.107811,-1.048279 0.131498,-11.189494 -0.531812,-5.523706 -1.86637,-7.430558 8.276431,-13.486077 5.618692,-3.354387 8.358717,-5.190596 8.358717,-5.190596"
       stroke-miterlimit="10"
       inkscape:connector-curvature="0"
       style="fill:none;stroke:#000000;stroke-width:0.1984375;stroke-miterlimit:10" />
    <path
       id="path36492"
       d="m 54.778475,49.596523 c 7.922683,4.309269 8.799512,3.881438 12.678039,6.522509 4.794515,3.264958 5.970588,7.898341 6.4389,11.864445 0.636059,5.392473 0.206111,10.878873 -1.209675,10.778596 C 71.412829,78.67185 72.030896,77.384652 62.084414,75.17935 56.666542,73.977877 54.440867,74.657856 51.8162,63.140279 c -1.45415,-6.380162 -2.353733,-9.55331 -2.353733,-9.55331"
       stroke-miterlimit="10"
       inkscape:connector-curvature="0"
       style="fill:none;stroke:#000000;stroke-width:0.1984375;stroke-miterlimit:10" />
    <path
       id="path36494"
       d="m 52.61286,43.348388 c 6.54685,-6.203156 6.410855,-7.169415 10.120842,-10.041731 4.587346,-3.550973 9.356989,-3.237971 13.273616,-2.45745 5.325269,1.061508 10.410296,3.165739 9.877425,4.481512 -0.47916,1.182688 -1.512623,0.197115 -6.683375,8.975196 -2.816754,4.78155 -2.858293,7.10856 -14.622991,6.045729 -6.517481,-0.588698 -9.813396,-0.713581 -9.813396,-0.713581"
       stroke-miterlimit="10"
       inkscape:connector-curvature="0"
       style="fill:none;stroke:#000000;stroke-width:0.1984375;stroke-miterlimit:10" />
    <path
       style="opacity:1;fill:none;fill-opacity:0.31563422;stroke:#000000;stroke-width:0.05;stroke-linecap:butt;stroke-linejoin:miter;stroke-miterlimit:4;stroke-dasharray:none;stroke-dashoffset:0;stroke-opacity:1"
       d="m 17.585374,33.227117 a 0.3259701,0.32597055 0 0 1 -0.32597,0.32597 0.3259701,0.32597055 0 0 1 -0.32597,-0.32597 0.3259701,0.32597055 0 0 1 0.32597,-0.32597 0.3259701,0.32597055 0 0 1 0.32597,0.32597 z"
       id="path90192"
       inkscape:connector-curvature="0" />
    <path
       id="path43216"
       style="clip-rule:evenodd;fill:#ffffff;fill-rule:evenodd;stroke:#000000;stroke-width:0.05;stroke-miterlimit:4;stroke-dasharray:none;stroke-opacity:1"
       d="m 47.985936,19.627567 c -0.147503,0.07897 -0.344477,0.0175 -0.418283,-0.181576 -0.07435,-0.200553 0.03818,-0.380253 0.218215,-0.409137 0.180044,-0.02889 0.333841,0.08234 0.371692,0.207264 0.03831,0.126445 -0.02404,0.304433 -0.171624,0.383449 z m 0.808653,0.890227 c -0.110523,0.145978 -0.320388,0.169913 -0.466101,0.03345 -0.147452,-0.138094 -0.138537,-0.347172 -0.01188,-0.462689 0.125818,-0.114755 0.322931,-0.116061 0.44033,-0.01709 0.119372,0.10063 0.148778,0.29956 0.03765,0.446333 z m 1.108821,0.684818 c -0.08993,0.165593 -0.299748,0.229539 -0.469796,0.132666 -0.171676,-0.0978 -0.223953,-0.311761 -0.126176,-0.472119 0.09745,-0.159813 0.306005,-0.215099 0.464847,-0.125643 0.160501,0.09039 0.221353,0.29895 0.131125,0.465096 z m 1.10866,0.636775 c -0.104983,0.149125 -0.305793,0.186353 -0.444356,0.100871 -0.03877,-0.02392 -0.07174,-0.05641 -0.09707,-0.09541 0,0 0,0 0,0 -0.07158,-0.09841 -0.08087,-0.234106 -0.01939,-0.346522 0.0614,-0.112268 0.18113,-0.178133 0.306954,-0.165936 0,0 0,0 0,0 0.05153,0.0041 0.102195,0.02013 0.147543,0.04691 0.17163,0.101352 0.211255,0.311025 0.10632,0.460082 z m 0.921529,0.864548 c -0.140941,0.111714 -0.344492,0.09352 -0.45561,-0.02459 -0.111438,-0.118443 -0.11661,-0.323559 0.0074,-0.457693 0.123854,-0.133995 0.338525,-0.13997 0.475366,0.0085 0.137137,0.148828 0.113964,0.36191 -0.02713,0.473745 z m 0.590157,1.079941 c -0.165647,0.0533 -0.343353,-0.03077 -0.405516,-0.168621 -0.06253,-0.138666 -0.0065,-0.32843 0.148989,-0.415575 0.155206,-0.08697 0.355994,-0.02647 0.435676,0.158137 0.08001,0.185366 -0.01315,0.372645 -0.179149,0.426059 z m 0.10575,1.212427 c -0.104305,-0.01513 -0.195944,-0.07966 -0.248726,-0.16237 0,0 -1e-6,0 -1e-6,0 -0.03274,-0.05248 -0.04826,-0.110285 -0.04579,-0.168095 0.0063,-0.146561 0.136118,-0.294537 0.309179,-0.312107 0.17303,-0.01757 0.335897,0.11711 0.334636,0.326311 -4.53e-4,0.07507 -0.02425,0.147426 -0.06762,0.204445 0,0 0,0 0,0 -0.07064,0.08957 -0.176705,0.127044 -0.281682,0.111816 z m -0.43212,1.166745 c -0.152473,-0.09519 -0.202861,-0.290485 -0.1353,-0.428733 0.06747,-0.138064 0.252313,-0.218368 0.420928,-0.157252 0.168685,0.06114 0.257088,0.256945 0.166211,0.443565 -0.09079,0.18645 -0.299428,0.237571 -0.451839,0.14242 z m -0.85671,0.89963 c -0.10075,-0.147117 -0.06988,-0.344965 0.04474,-0.44433 0.114988,-0.09968 0.315731,-0.101874 0.446952,0.02061 0.131092,0.122359 0.135365,0.336502 -0.022,0.471746 -0.157701,0.135533 -0.368843,0.09924 -0.469694,-0.04802 z m -1.159794,0.435494 c -0.01735,-0.180394 0.106251,-0.3392 0.247062,-0.372055 0.09103,-0.02124 0.192969,0.0054 0.276898,0.07314 0.04773,0.03794 0.08691,0.08793 0.110045,0.14552 0.02319,0.05772 0.02931,0.120863 0.01447,0.182806 -0.0276,0.111332 -0.122502,0.20388 -0.248623,0.234868 -0.211458,0.05195 -0.382551,-0.08444 -0.399847,-0.264274 z m -1.236186,-0.186491 c 0.06784,-0.162979 0.250354,-0.248445 0.394559,-0.210828 0.144465,0.03768 0.261377,0.202909 0.23579,0.382767 -0.02556,0.179656 -0.202615,0.307834 -0.408449,0.249801 -0.206043,-0.05809 -0.289822,-0.258569 -0.2219,-0.42174 z m -0.928212,-0.735262 c 0.138058,-0.09074 0.322726,-0.0642 0.412848,0.02736 0.09156,0.09302 0.112793,0.280273 0.0077,0.417826 -0.104551,0.13687 -0.311192,0.158902 -0.453579,0.0048 -0.143576,-0.155378 -0.105822,-0.358754 0.03301,-0.449999 z m -0.20996,-1.158913 c 0.169491,0.04617 0.282672,0.209847 0.281417,0.324968 -2.93e-4,0.02688 -0.0055,0.05353 -0.01543,0.08011 0,0 0,0 0,0 -0.04247,0.103258 -0.14872,0.208469 -0.275736,0.236327 -0.129544,0.02841 -0.271018,-0.03183 -0.338502,-0.189057 0,0 0,0 0,0 -0.01519,-0.04192 -0.02292,-0.08723 -0.02253,-0.133079 0.0021,-0.248188 0.201776,-0.365304 0.370779,-0.319266 z m 0.861901,-0.782265 c -0.0077,0.05245 -0.02815,0.103038 -0.05183,0.145464 -0.03837,0.08484 -0.06643,0.173364 -0.102946,0.201402 -0.0683,0.05244 -0.284903,0.04464 -0.415973,-0.0806 -0.117947,-0.1127 -0.161794,-0.373337 0.105163,-0.497509 0.174106,-0.08098 0.374701,-0.03675 0.44349,0.07671 0.02467,0.04776 0.02988,0.10178 0.0221,0.154534 z m 0.555701,0.720375 c -0.03484,0.06152 -0.142223,0.100719 -0.319642,0.09239 0,0 0,0 0,0 -0.008,-0.04086 -0.01813,-0.08845 -0.02536,-0.134605 -0.01947,-0.124384 -0.01568,-0.225501 0.05015,-0.290723 0.06667,-0.01601 0.125944,-0.04997 0.191054,-0.06426 0.06448,-0.01415 0.137068,-0.007 0.204806,0.06422 0.06843,0.06398 0.04205,0.142562 -0.06055,0.211904 -0.03959,0.02675 -0.08578,0.04987 -0.133483,0.07278 -8.4e-5,9.87e-4 -8.4e-5,9.87e-4 -8.4e-5,9.87e-4 0.06775,-0.02953 0.131308,-0.02014 0.09311,0.04732 z m 1.127533,-0.389846 c 0.115504,0.117687 0.111358,0.344306 -0.100353,0.479649 -0.115835,0.07405 -0.248809,0.08047 -0.336598,0.02194 -0.05597,-0.05563 -0.08861,-0.114234 -0.100447,-0.176178 -0.01173,-0.06135 -0.0029,-0.125698 0.01882,-0.189202 0.02863,-0.09616 0.07621,-0.168403 0.134208,-0.205079 0.08749,-0.05533 0.267916,-0.04978 0.384371,0.06887 z m 0.326776,-1.15475 c 0.143426,-0.02413 0.292541,0.05706 0.335547,0.237599 0,0 0,0 0,0 0.0069,0.03432 0.0089,0.06997 0.0061,0.105539 -0.01943,0.243653 -0.219583,0.350913 -0.380418,0.29958 -0.160608,-0.05126 -0.268494,-0.220807 -0.265779,-0.338315 4.95e-4,-0.02143 0.004,-0.04257 0.01055,-0.06347 0,0 0,-1e-6 0,-1e-6 0.03707,-0.104178 0.152599,-0.217132 0.294039,-0.240934 z m -0.631464,-1.045404 c 0.109786,-0.139715 0.331527,-0.162462 0.481753,0.0099 0.15011,0.172254 0.0973,0.388554 -0.05544,0.478361 -0.152784,0.08983 -0.348256,0.05094 -0.436038,-0.04947 -0.08765,-0.100257 -0.100031,-0.29914 0.0097,-0.43882 z m -1.137376,-0.491401 c 0.03324,-0.176928 0.21218,-0.296545 0.411631,-0.235863 0.200894,0.06112 0.283264,0.260455 0.212154,0.424258 -0.07088,0.163269 -0.254653,0.244114 -0.39978,0.201378 -0.146697,-0.0432 -0.257353,-0.212288 -0.224005,-0.389773 z m -1.246007,-0.0053 c -0.03108,-0.176647 0.0932,-0.3495 0.295959,-0.366297 0.203088,-0.01682 0.354288,0.133364 0.352271,0.312796 -0.002,0.179315 -0.142696,0.323296 -0.298397,0.336243 -0.156054,0.01298 -0.31873,-0.105982 -0.349833,-0.282742 z m -1.172386,0.420222 c -0.08794,-0.156061 -0.0284,-0.360251 0.155984,-0.443891 0.184356,-0.08363 0.37731,0.0061 0.436771,0.175513 0.05947,0.169402 -0.0242,0.35305 -0.16799,0.417997 -0.143765,0.06494 -0.336834,0.0064 -0.424765,-0.149619 z m -0.958536,0.786205 c -0.136067,-0.115331 -0.150378,-0.326948 -0.0048,-0.468761 0.145342,-0.141549 0.356418,-0.121654 0.468547,0.01746 0.112217,0.139219 0.09468,0.338877 -0.01681,0.447025 -0.111202,0.107867 -0.311011,0.119519 -0.446972,0.0043 z m -0.607807,1.078769 c -0.167703,-0.05785 -0.258394,-0.248502 -0.176552,-0.433192 0.05545,-0.125133 0.17476,-0.201754 0.300497,-0.197535 0.05022,0.0017 0.09845,0.01598 0.14163,0.04051 0.04314,0.02451 0.08018,0.05857 0.109136,0.0984 0.07196,0.09964 0.08546,0.223683 0.03958,0.324215 -0.06476,0.141898 -0.246509,0.225486 -0.414294,0.167608 z m -0.206039,1.215711 c -0.178185,-0.0019 -0.323357,-0.153789 -0.30509,-0.35165 0.01829,-0.198116 0.188726,-0.320851 0.363555,-0.290231 0.174728,0.0306 0.292943,0.191757 0.278983,0.348749 -0.01399,0.157263 -0.159163,0.294995 -0.337448,0.293132 z m 0.172507,1.229179 c -0.17206,0.05067 -0.356459,-0.05265 -0.397744,-0.247327 -0.04129,-0.194695 0.08515,-0.36377 0.262223,-0.387509 0.177055,-0.02374 0.339666,0.09552 0.373343,0.252063 0.03368,0.156569 -0.06574,0.332098 -0.237822,0.382773 z m 0.525645,1.129224 c -0.120067,0.08039 -0.281476,0.07031 -0.395427,-0.04157 0,0 -1e-6,0 -1e-6,0 -0.02309,-0.02294 -0.04293,-0.04921 -0.05884,-0.07788 -0.09713,-0.17509 -0.02513,-0.374406 0.138111,-0.448903 0.163299,-0.07452 0.354007,-0.0072 0.431819,0.132597 0.01359,0.02443 0.02369,0.05066 0.03009,0.07814 0,0 0,0 0,0 0.02836,0.128727 -0.02635,0.277675 -0.145754,0.357623 z m 0.835246,0.904372 c -0.110324,0.138273 -0.317833,0.159321 -0.461851,0.02512 -0.144206,-0.134378 -0.137858,-0.343204 -0.007,-0.46296 0.130774,-0.1197 0.329738,-0.11429 0.444922,-0.0066 0.115382,0.10784 0.134327,0.306137 0.02395,0.444474 z m 1.061531,0.623912 c -0.06801,0.164423 -0.262034,0.242287 -0.437234,0.1543 -0.175295,-0.08804 -0.228794,-0.290035 -0.138256,-0.44236 0.09051,-0.152284 0.283389,-0.20505 0.426403,-0.133787 0.143115,0.07131 0.217113,0.25738 0.149087,0.421847 z m 1.197897,0.313535 c -0.02129,0.177534 -0.18806,0.305437 -0.381416,0.267858 -0.193285,-0.03757 -0.299973,-0.218418 -0.253865,-0.390558 0.04611,-0.172156 0.218607,-0.275667 0.376681,-0.245317 0.158,0.03034 0.279892,0.190499 0.2586,0.368017 z m 1.243838,-0.02612 c 0.02221,0.137547 -0.04715,0.274857 -0.183877,0.336901 0,0 0,0 0,0 -0.03463,0.01536 -0.07189,0.02493 -0.110015,0.02825 -0.198334,0.01728 -0.351236,-0.128602 -0.35385,-0.307554 -0.0026,-0.179011 0.135576,-0.326444 0.295757,-0.341223 0.03272,-0.003 0.06575,-6.38e-4 0.0981,0.0071 0,0 0,0 0,0 0.125965,0.03072 0.231774,0.139603 0.253885,0.276551 z m 1.194653,-0.345736 c 0.06913,0.165768 -0.01245,0.358758 -0.195446,0.422857 -0.183381,0.06423 -0.367616,-0.03561 -0.416835,-0.207564 -0.04918,-0.171812 0.04622,-0.349943 0.201159,-0.404851 0.155333,-0.05505 0.341932,0.02366 0.411122,0.189558 z m 1.104547,-0.593476 c 0.09981,0.151197 0.05606,0.357354 -0.109598,0.455898 -0.165951,0.09871 -0.367985,0.03887 -0.452966,-0.120155 -0.08492,-0.158919 -0.0281,-0.35556 0.11683,-0.442542 0.145225,-0.08716 0.345859,-0.0445 0.445734,0.106799 z m 0.99205,-0.772639 c 0.02641,0.0292 0.0473,0.06292 0.06141,0.09964 0,0 0,0 0,0 0,0 0,0 0,0 0.0489,0.12687 0.0115,0.273763 -0.09719,0.365615 -0.145543,0.122999 -0.35428,0.09844 -0.465406,-0.04477 -0.111083,-0.143164 -0.08689,-0.346992 0.04453,-0.456542 0.09989,-0.08327 0.244236,-0.09804 0.364055,-0.03544 0,0 0,0 0,0 0,0 0,0 0,0 0.03474,0.01813 0.06621,0.0423 0.09261,0.07149 z m 0.86598,-0.927611 c 0.144864,0.111354 0.171137,0.324191 0.0427,0.47398 -0.127993,0.149266 -0.341941,0.155743 -0.474636,0.03016 -0.132867,-0.125744 -0.140969,-0.333543 -0.02969,-0.463044 0.110813,-0.128959 0.316955,-0.152306 0.461632,-0.0411 z m 0.632476,-1.080741 c 0.164178,0.06619 0.244954,0.260915 0.156818,0.440042 -0.08771,0.178264 -0.291905,0.23282 -0.447189,0.139924 -0.155618,-0.0931 -0.20617,-0.288818 -0.132961,-0.431235 0.07274,-0.141506 0.259534,-0.214768 0.423332,-0.148731 z m 0.238907,-1.202468 c 0.03093,-2.38e-4 0.06174,0.0039 0.09148,0.01268 0,0 0,0 0,0 0.139836,0.04157 0.2311,0.182192 0.212951,0.343567 -0.02288,0.203424 -0.198063,0.319704 -0.369887,0.283189 -0.172033,-0.03656 -0.283681,-0.199626 -0.269736,-0.349572 0.01142,-0.122805 0.105584,-0.236571 0.24386,-0.276384 0,0 0,0 0,0 0.02965,-0.0086 0.0604,-0.01324 0.09133,-0.01348 z M 54.581828,23.79334 c 0.170147,-0.05577 0.357785,0.04187 0.404852,0.236105 0.04708,0.194304 -0.07512,0.367073 -0.252182,0.395192 -0.177036,0.02812 -0.342328,-0.08736 -0.379748,-0.242306 -0.03744,-0.155018 0.05691,-0.333216 0.227078,-0.388991 z m -0.562964,-1.108463 c 0.145404,-0.104931 0.353936,-0.06841 0.457429,0.103062 0.103413,0.17134 0.03863,0.372703 -0.121527,0.452658 -0.1602,0.07998 -0.352474,0.01961 -0.434824,-0.11654 -0.08226,-0.136008 -0.04644,-0.334276 0.09892,-0.43918 z M 53.163018,21.77943 c 0.11713,-0.135539 0.325122,-0.149387 0.464019,-0.01787 0.139385,0.131978 0.136851,0.340968 0.0067,0.464879 -0.129994,0.123756 -0.332461,0.120953 -0.453289,0.0063 -0.121331,-0.115155 -0.134702,-0.317575 -0.01742,-0.453285 z m -1.000766,-0.749994 c 0.10003,-0.150366 0.304545,-0.190718 0.457422,-0.08293 0.15343,0.108177 0.184275,0.314549 0.07655,0.458511 -0.107582,0.143774 -0.309937,0.174991 -0.451681,0.07593 -0.142308,-0.09946 -0.182451,-0.30095 -0.08229,-0.451509 z m -1.066287,-0.664344 c 0.09242,-0.154236 0.293285,-0.205363 0.449303,-0.111187 0.156582,0.09452 0.204947,0.296793 0.109607,0.45062 -0.09522,0.153642 -0.296162,0.201535 -0.44855,0.108778 -0.152955,-0.0931 -0.202889,-0.293786 -0.11036,-0.448211 z m -0.97495,-0.771033 c 0.129229,-0.12436 0.330958,-0.122901 0.450664,-0.01408 0.119346,0.108501 0.14006,0.30874 0.02972,0.449331 -0.110442,0.14072 -0.319522,0.163268 -0.465588,0.03101 -0.145724,-0.131949 -0.143906,-0.342019 -0.0148,-0.466266 z M 49.36608,18.597306 c 0.155188,-0.09266 0.353645,-0.04475 0.446451,0.09343 0.0926,0.137876 0.06214,0.339312 -0.08084,0.448247 -0.14309,0.109015 -0.351984,0.07905 -0.461411,-0.08266 -0.109227,-0.161416 -0.05927,-0.36643 0.0958,-0.459022 z m -0.535173,-1.132868 c 0.168958,-0.06181 0.354645,0.0223 0.419614,0.177971 0.007,0.01683 0.01255,0.03425 0.01654,0.05208 0,0 0,0 0,0 0.03286,0.144681 -0.0416,0.303659 -0.184551,0.371576 -0.143359,0.06811 -0.315822,0.02171 -0.405886,-0.119699 0,0 0,0 0,0 -0.01077,-0.01674 -0.02005,-0.03443 -0.02774,-0.05284 -0.07375,-0.176686 0.01307,-0.367281 0.182026,-0.429088 z M 48.50694,16.256599 c 0.0038,-6.18e-4 0.0097,0.0078 0.03938,0.02014 0,0 0,0 0,0 0.03998,0.01667 0.107795,0.0359 0.232658,0.06003 l 0,0 0,0 0,0 0,0 0,0 c 0,0 0,0 0,0 0.0554,0.04547 0.09338,0.105157 0.108483,0.171688 0.01024,0.04512 0.0097,0.09229 -0.0016,0.138541 0,0 0,0 0,0 -0.0274,0.115948 -0.118344,0.213279 -0.237707,0.246097 -0.119739,0.03292 -0.247864,-0.0056 -0.329604,-0.105298 0,0 0,0 0,0 -0.03294,-0.04089 -0.05639,-0.08981 -0.06816,-0.142395 -0.01742,-0.07778 -0.0082,-0.158688 0.02602,-0.226835 0,0 0,0 0,0 l 0,0 0,0 0,0 0,0 0,0 c 0.108894,-0.06266 0.166304,-0.101833 0.199223,-0.130442 0,0 0,0 0,0 0.02427,-0.0211 0.02743,-0.03091 0.03128,-0.03153 z m -0.972191,-4.191365 c -0.132955,-0.120342 -0.140438,-0.324322 -0.01547,-0.45682 0.12497,-0.132498 0.33109,-0.13903 0.461625,-0.01581 0.130535,0.123225 0.136902,0.328294 0.01547,0.45682 -0.121434,0.128525 -0.32867,0.136146 -0.461626,0.01581 z M 46.67798,12.97283 c -0.137693,-0.114889 -0.149019,-0.314446 -0.02405,-0.446945 0.124971,-0.132499 0.33493,-0.14345 0.470204,-0.02568 0.135275,0.117771 0.145481,0.318421 0.02405,0.446946 -0.121433,0.128524 -0.332511,0.140568 -0.470204,0.02568 z m -0.663264,1.064162 c -0.158123,-0.08402 -0.22259,-0.289566 -0.12817,-0.462206 0.0943,-0.172423 0.29492,-0.216527 0.442131,-0.114134 0.147282,0.102442 0.19219,0.30745 0.112717,0.453709 -0.07935,0.146031 -0.268631,0.206609 -0.426678,0.122631 z m -0.403693,1.183223 c -0.172026,-0.03952 -0.283123,-0.21935 -0.230279,-0.410073 0.05273,-0.190318 0.238582,-0.280314 0.404434,-0.216176 0.166001,0.0642 0.253081,0.249642 0.20933,0.405577 -0.04363,0.155507 -0.211616,0.260157 -0.383485,0.220672 z m -0.07357,1.234187 c -0.178213,0.0166 -0.336972,-0.121112 -0.338131,-0.321464 -0.0012,-0.19988 0.154916,-0.338032 0.330262,-0.32396 0.175457,0.01408 0.308833,0.164054 0.311685,0.320968 0.0028,0.156423 -0.125709,0.307865 -0.303816,0.324456 z m 0.2259,1.232336 c -0.176193,0.0394 -0.35174,-0.07176 -0.389594,-0.252002 -0.03809,-0.181357 0.07824,-0.354266 0.255448,-0.387855 0.176831,-0.03352 0.347761,0.08074 0.384298,0.252735 0.03678,0.173121 -0.07359,0.347643 -0.250152,0.387122 z m 0.26412,1.226572 c -0.176473,0.03249 -0.346477,-0.08219 -0.382422,-0.253509 -0.03618,-0.172451 0.07416,-0.346479 0.250701,-0.385653 0.176167,-0.03909 0.351242,0.07243 0.38835,0.252958 0.03734,0.181646 -0.07977,0.353644 -0.256629,0.386204 z m 0.133477,1.239606 c -0.04508,1.86e-4 -0.0898,-0.009 -0.13157,-0.02554 0,0 0,0 0,0 0,0 0,0 0,0 -0.118661,-0.04881 -0.197494,-0.157091 -0.205413,-0.27749 -0.01093,-0.166159 0.11586,-0.324435 0.293997,-0.345272 0.17777,-0.02079 0.34081,0.109382 0.354223,0.301224 0.0096,0.136596 -0.06252,0.262071 -0.180214,0.317429 0,0 0,0 0,0 0,0 0,0 0,0 -0.04129,0.01988 -0.0859,0.02946 -0.131023,0.02964 z m -0.287506,1.182462 c -0.158228,-0.07902 -0.223751,-0.264536 -0.171911,-0.403555 0.05142,-0.137891 0.220987,-0.234745 0.39077,-0.19398 0.170205,0.04087 0.276315,0.222085 0.2062,0.414726 -0.06974,0.191602 -0.267211,0.261636 -0.425059,0.182809 z m -0.742285,0.997873 c -0.12573,-0.130481 -0.125471,-0.33473 -0.01889,-0.454843 0.106083,-0.119554 0.306986,-0.143641 0.450127,-0.03708 0.143371,0.106731 0.172839,0.318449 0.0399,0.47117 -0.132479,0.152191 -0.345599,0.151033 -0.471136,0.02075 z m -0.960225,0.804869 c -0.124524,-0.128317 -0.119025,-0.33879 0.03365,-0.465609 0.112773,-0.09367 0.266314,-0.103694 0.38097,-0.03045 0,0 0,0 0,0 0,0 0,0 0,0 0.0331,0.02188 0.06242,0.04948 0.08604,0.08172 0.02363,0.03226 0.04113,0.06861 0.05117,0.107472 0,0 0,0 0,0 0,0 0,0 0,0 0.03554,0.128968 -0.0059,0.262331 -0.100625,0.340283 -0.124322,0.102253 -0.326677,0.09491 -0.45121,-0.03342 z m -0.761378,0.974669 c -0.154442,-0.08758 -0.208006,-0.289865 -0.09794,-0.45337 0.110008,-0.16342 0.31837,-0.190658 0.458816,-0.08051 0.140485,0.110174 0.167126,0.30844 0.07751,0.440326 -0.08956,0.131796 -0.283983,0.181111 -0.438382,0.09356 z m -0.443015,1.147407 c -0.173751,-0.03753 -0.284662,-0.215137 -0.22682,-0.404516 0.05776,-0.189127 0.248796,-0.27465 0.413785,-0.209897 0.165067,0.06478 0.247749,0.245939 0.201973,0.396592 -0.0457,0.150388 -0.215269,0.255328 -0.388938,0.217821 z m -0.05651,1.23522 c -0.175214,0.02331 -0.34174,-0.106358 -0.350898,-0.309233 -0.004,-0.08868 0.02544,-0.17439 0.08146,-0.23741 0.06455,-0.07088 0.154068,-0.10476 0.245557,-0.09957 0.09114,0.0052 0.176517,0.04835 0.236505,0.113176 0.05235,0.05702 0.08146,0.127217 0.08349,0.199606 0.0043,0.154636 -0.120813,0.310106 -0.296106,0.333429 z m 0.366163,1.174285 c -0.159654,0.07966 -0.357819,0.01037 -0.431273,-0.174179 -0.07361,-0.18493 0.02251,-0.37135 0.191656,-0.423213 0.168979,-0.05181 0.347108,0.03762 0.406168,0.183074 0.05922,0.145861 -0.0067,0.334578 -0.166551,0.414318 z m 0.713373,1.02395 c -0.132783,0.123175 -0.345153,0.11265 -0.469403,-0.04309 -0.124369,-0.15589 -0.08769,-0.364978 0.06005,-0.466843 0.147666,-0.101813 0.348188,-0.06923 0.450314,0.05697 0.102254,0.126357 0.09189,0.329728 -0.04096,0.452965 z m 0.97185,0.800105 c -0.09519,0.153674 -0.303161,0.200642 -0.46529,0.08403 -0.162075,-0.116571 -0.183657,-0.328828 -0.06759,-0.468228 0.116089,-0.139424 0.319479,-0.161169 0.452216,-0.06517 0.132681,0.09596 0.17583,0.295719 0.08066,0.449367 z m -0.279388,7.662984 c 0.16166,-0.0839 0.359468,-0.0265 0.444719,0.113556 0.08604,0.141346 0.04671,0.343659 -0.0987,0.4474 -0.145043,0.10348 -0.356449,0.07024 -0.463114,-0.09929 -0.107439,-0.170758 -0.04495,-0.377561 0.117094,-0.461662 z m -0.344895,-1.190609 c 0.174649,-0.0064 0.324553,0.120429 0.351691,0.261215 0.02762,0.143307 -0.06702,0.31786 -0.239283,0.371331 -0.171376,0.0532 -0.358581,-0.04972 -0.394121,-0.256837 -0.03593,-0.209404 0.106088,-0.369291 0.281713,-0.375709 z m 0.349001,-1.166982 c 0.145836,0.103323 0.185395,0.297204 0.124815,0.420064 -0.0596,0.12087 -0.235929,0.207767 -0.406251,0.159401 -0.171049,-0.04857 -0.271964,-0.242793 -0.174484,-0.443356 0.09662,-0.198794 0.310688,-0.239002 0.45592,-0.136109 z m 0.960787,-0.785324 c 0.06674,0.140226 0.0284,0.308093 -0.07083,0.39977 0,0 0,0 0,0 -0.01312,0.01247 -0.02728,0.02357 -0.04242,0.0332 -0.123949,0.07889 -0.32357,0.05284 -0.438249,-0.08587 -0.114638,-0.138654 -0.09044,-0.355704 0.09261,-0.468157 0.01994,-0.01225 0.041,-0.02252 0.0628,-0.03064 0,0 0,0 0,0 0.166297,-0.06274 0.328979,0.01069 0.39609,0.151694 z m 1.208044,-0.297631 c 0.0073,0.179214 -0.125239,0.330816 -0.277386,0.353109 -0.152203,0.0223 -0.32269,-0.08495 -0.366993,-0.258855 -0.0443,-0.173881 0.06769,-0.356792 0.272517,-0.386736 0.204877,-0.02995 0.364559,0.113249 0.371862,0.292482 z m 1.221563,0.237908 c -0.07961,0.157132 -0.266088,0.231679 -0.402311,0.189591 -0.138883,-0.04291 -0.250476,-0.212372 -0.219493,-0.390839 0.03082,-0.177497 0.211852,-0.303118 0.419795,-0.234788 0.210304,0.06911 0.282084,0.27798 0.202009,0.436036 z m 0.7635,0.92115 c -0.168373,0.03517 -0.341344,-0.05743 -0.393232,-0.155309 -0.0272,-0.05132 -0.03332,-0.114059 -0.01947,-0.18483 0.01546,-0.08097 0.05538,-0.166804 0.121521,-0.226715 0.06673,-0.06044 0.156702,-0.09037 0.255403,-0.0676 0.08894,0.02404 0.169767,0.09222 0.216641,0.185984 0.110905,0.221857 -0.01308,0.413426 -0.180858,0.448473 z m -0.364104,1.11473 c -0.09184,-0.09503 -0.11935,-0.236586 -0.09296,-0.343784 0,0 0,0 0,0 0.0069,-0.02958 0.01835,-0.05556 0.03477,-0.07851 0.05968,-0.08345 0.238742,-0.160328 0.4015,-0.112678 0.162358,0.04753 0.27154,0.248099 0.136717,0.464598 -0.02828,0.04542 -0.06524,0.08465 -0.107675,0.11414 0,0 0,0 0,0 -0.134455,0.08139 -0.279947,0.05185 -0.372343,-0.04376 z m -0.784406,-0.04584 c 0.0483,-0.08485 0.159668,-0.157663 0.342122,-0.04599 0,0 0,0 0,0 0.03891,0.03064 0.05117,0.07856 0.04283,0.138254 -0.0035,0.02518 -0.01054,0.05168 -0.0198,0.07899 0,0 0,0 0,0 -0.01169,0.03447 -0.02681,0.06985 -0.04279,0.104993 0,0 0,0 0,0 -0.0089,0.0184 -0.01792,0.03847 -0.02712,0.05655 4.11e-4,8.93e-4 4.11e-4,8.93e-4 4.11e-4,8.93e-4 0.002,-4.53e-4 0.0041,-8.63e-4 0.0058,-6.3e-4 0,0 0,0 0,0 0,0 0,0 0,0 0.005,7.11e-4 0.009,0.0055 0.01098,0.01494 l 0,0 c 0,0 0,0 0,0 0,0 0,0 0,0 -0.0038,0.0086 -0.0014,0.02981 -0.0075,0.05649 -0.0062,0.02707 -0.02122,0.05809 -0.05993,0.08658 0,0 0,10e-7 0,10e-7 0,0 0,0 0,0 l 0,0 c -0.02515,0.02482 -0.05768,0.04991 -0.09833,0.07469 0,0 0,0 0,0 0,0 0,0 0,0 -0.01273,0.0078 -0.02666,0.01573 -0.04078,0.02319 0,0 0,0 0,0 -0.01041,-0.0088 -0.01965,-0.01817 -0.03142,-0.02886 0,0 0,0 0,0 -0.01989,-0.01985 -0.04262,-0.04451 -0.06494,-0.07124 0,0 0,0 0,0 -0.01777,-0.02128 -0.03562,-0.0444 -0.05238,-0.06827 -0.03936,-0.05604 -0.07267,-0.115849 -0.08817,-0.171686 0,0 0,0 0,0 0.07057,-0.05689 0.08042,-0.159968 0.131046,-0.248891 z m -0.847635,0.63218 c -0.06374,-0.0087 -0.123693,-0.03625 -0.169194,-0.08745 -0.08219,-0.083 -0.122416,-0.220986 -0.05349,-0.365341 0.137037,-0.287009 0.413807,-0.254601 0.502486,-0.122049 0.07428,0.111037 0.129839,0.335971 0.114365,0.38443 -0.02094,0.06558 -0.101317,0.132657 -0.20749,0.169604 -0.05795,0.01926 -0.12326,0.02943 -0.186676,0.0208 z m 0.435589,1.112238 c -0.108777,0.119184 -0.31418,0.135495 -0.463079,-0.03032 0,0 0,0 0,0 -0.0045,-0.0056 -0.0089,-0.01134 -0.01307,-0.01718 -0.145019,-0.202059 -0.05234,-0.414214 0.111498,-0.476509 0.164529,-0.06256 0.352149,0.0037 0.418588,0.0969 0.0024,0.0034 0.0048,0.0069 0.007,0.01046 0,0 0,0 0,0 0.05906,0.110701 0.0466,0.29881 -0.06095,0.416649 z m 1.077,0.424084 c -0.0091,0.173064 -0.167918,0.308262 -0.372355,0.261935 -0.206078,-0.0467 -0.290923,-0.235809 -0.22921,-0.390111 0.06137,-0.153441 0.228759,-0.237937 0.356728,-0.213678 0.129909,0.02463 0.254029,0.167933 0.244837,0.341854 z m 1.206288,-0.255259 c 0.07917,0.163336 0.004,0.36898 -0.199481,0.436242 -0.203521,0.06729 -0.385696,-0.05217 -0.4209,-0.226222 -0.03518,-0.173916 0.06892,-0.347188 0.210209,-0.396442 0.141411,-0.0493 0.330941,0.02296 0.410172,0.186422 z m 0.947498,-0.8092 c 0.08846,0.05987 0.141731,0.160279 0.131537,0.276257 0,0 0,0 0,0 -0.0071,0.07208 -0.03885,0.142953 -0.09008,0.199944 -0.145879,0.162276 -0.36389,0.145371 -0.478888,0.0064 -0.115372,-0.139418 -0.102166,-0.339746 -0.005,-0.445504 0.03808,-0.04147 0.0886,-0.07055 0.147292,-0.08543 0,0 0,0 0,0 0.09504,-0.02501 0.207357,-0.01112 0.295183,0.04833 z m 0.440255,-1.155135 c 0.177049,0.0257 0.30274,0.199219 0.249748,0.400565 -0.05309,0.201725 -0.247924,0.290996 -0.414064,0.226425 -0.165993,-0.06451 -0.252204,-0.244911 -0.214367,-0.390733 0.03794,-0.146237 0.201479,-0.261976 0.378683,-0.236257 z m -0.08317,-1.23784 c 0.171682,-0.04965 0.358083,0.05677 0.39319,0.262412 0.03505,0.205323 -0.105461,0.367462 -0.284202,0.377778 -0.178865,0.01032 -0.332182,-0.119243 -0.357411,-0.268807 -0.02517,-0.14922 0.07686,-0.321768 0.248423,-0.371383 z m -0.594815,-1.078462 c 0.131536,-0.113976 0.340152,-0.09779 0.45922,0.06706 0.06362,0.08808 0.08199,0.198057 0.04916,0.294033 -0.02496,0.0726 -0.07575,0.12934 -0.140679,0.164926 -0.06471,0.03547 -0.139875,0.04813 -0.211059,0.04059 -0.09486,-0.01128 -0.174902,-0.05926 -0.223293,-0.130924 -0.08475,-0.125511 -0.06492,-0.321674 0.06666,-0.435682 z m -0.945313,-0.762409 c 0.08791,-0.154349 0.289071,-0.205966 0.450588,-0.09468 0.162159,0.111728 0.185867,0.317565 0.07597,0.452896 -0.109682,0.135069 -0.304827,0.160474 -0.43392,0.07436 -0.129786,-0.08658 -0.18071,-0.277942 -0.09264,-0.432572 z m -1.160564,-0.474432 c 0.04973,-0.176874 0.237176,-0.279196 0.423165,-0.214005 0.186571,0.06539 0.269255,0.261546 0.20082,0.427919 -0.06834,0.16613 -0.255868,0.249495 -0.414467,0.196758 -0.159211,-0.05294 -0.259319,-0.233555 -0.209518,-0.410672 z m -1.258279,-0.231829 c 0.018,-0.18161 0.183477,-0.317421 0.376954,-0.290912 0.193867,0.02656 0.316963,0.202665 0.283248,0.384154 -0.0337,0.181376 -0.204841,0.301534 -0.376224,0.27674 -0.171782,-0.02485 -0.301987,-0.188255 -0.283978,-0.369982 z m -1.252616,-0.111976 c 0.02933,-0.178089 0.193837,-0.298812 0.35988,-0.280152 0.166038,0.01866 0.299642,0.172696 0.289254,0.352222 -0.01039,0.179535 -0.168525,0.318475 -0.361363,0.297303 -0.192834,-0.02117 -0.317101,-0.191292 -0.287771,-0.369373 z m -1.208657,-0.328667 c 0.06488,-0.167452 0.249933,-0.252261 0.408281,-0.201 0.158458,0.0513 0.258674,0.228764 0.212134,0.403102 -0.04653,0.174294 -0.229731,0.278107 -0.414275,0.217704 -0.184649,-0.06044 -0.271036,-0.252311 -0.20614,-0.419806 z m -1.102921,-0.573365 c 0.09949,-0.147448 0.296555,-0.188954 0.437646,-0.10624 0.141282,0.08283 0.201181,0.275521 0.119406,0.434945 -0.08174,0.159348 -0.281451,0.221324 -0.44815,0.122499 -0.16688,-0.09893 -0.208435,-0.303683 -0.108902,-0.451204 z m -0.930659,-0.811474 c 0.133394,-0.118165 0.333455,-0.108807 0.447974,0.0041 0.114721,0.113132 0.126952,0.313084 0.01107,0.447751 -0.115826,0.134602 -0.323872,0.14822 -0.462988,0.01169 -0.139311,-0.136724 -0.129515,-0.345342 0.0039,-0.463563 z m -0.696617,-1.029868 c 0.158839,-0.08255 0.352377,-0.02354 0.436785,0.118317 0.08411,0.141351 0.04352,0.339447 -0.105643,0.440185 -0.149313,0.100838 -0.354637,0.05787 -0.453189,-0.109442 -0.09826,-0.166819 -0.03663,-0.366596 0.122047,-0.44906 z m -0.473605,-1.154137 c 0.171799,-0.05528 0.353975,0.03723 0.411708,0.197364 0.05753,0.159581 -0.0232,0.346583 -0.188892,0.414708 -0.16588,0.0682 -0.358171,-0.0136 -0.42351,-0.192291 -0.06514,-0.178148 0.02909,-0.364559 0.200694,-0.419781 z m -0.317195,-1.214348 c 0.176126,-0.03759 0.349442,0.07359 0.389696,0.244128 0.04013,0.17001 -0.06512,0.346757 -0.23986,0.392298 -0.174907,0.04558 -0.354478,-0.06112 -0.396896,-0.24286 -0.0423,-0.181223 0.07111,-0.356012 0.24706,-0.393566 z m -0.110145,-1.241928 c 0.179744,0.0083 0.318109,0.156071 0.32161,0.318272 0.0035,0.161929 -0.128068,0.315439 -0.30659,0.332213 -0.178618,0.01678 -0.33963,-0.119673 -0.344332,-0.317399 -0.0047,-0.197468 0.149663,-0.341363 0.329312,-0.333086 z m 0.21482,-1.235247 c 0.173511,0.05263 0.272012,0.231616 0.233785,0.392165 -0.0382,0.160413 -0.206428,0.27582 -0.384183,0.245716 -0.177813,-0.03011 -0.299139,-0.20402 -0.254135,-0.39632 0.04498,-0.19217 0.231076,-0.29417 0.404533,-0.241561 z m 0.505864,-1.154658 c 0.156432,0.09184 0.210872,0.289501 0.135766,0.437638 -0.07511,0.148153 -0.266769,0.221054 -0.433356,0.149024 -0.166581,-0.07203 -0.243184,-0.27056 -0.153743,-0.44682 0.08945,-0.176276 0.294894,-0.231686 0.451333,-0.139842 z m 0.76191,-0.999918 c 0.128785,0.12598 0.134408,0.329672 0.02755,0.454692 -0.106968,0.125151 -0.309384,0.151138 -0.454109,0.04214 -0.14467,-0.108961 -0.172017,-0.319291 -0.04316,-0.4689 0.128968,-0.149734 0.340878,-0.153956 0.469713,-0.02793 z m 0.971107,-0.794444 c 0.109946,0.145866 0.07814,0.353341 -0.07046,0.460131 -0.04514,0.03244 -0.09747,0.05249 -0.152164,0.05886 0,0 0,0 0,0 -0.111231,0.01152 -0.229204,-0.03464 -0.30282,-0.127192 -0.07395,-0.09297 -0.09095,-0.219172 -0.0359,-0.331754 0,0 0,0 0,0 0.02306,-0.05103 0.05855,-0.0954 0.103004,-0.12869 0.143763,-0.107639 0.349041,-0.07637 0.458348,0.06864 z m 0.903101,-0.859211 c 0.14408,0.10406 0.17225,0.314871 0.03352,0.467807 -0.136404,0.150376 -0.347514,0.142485 -0.468451,0.0095 -0.121778,-0.133926 -0.112518,-0.334317 -0.0072,-0.446916 0.102779,-0.109881 0.299106,-0.133666 0.442124,-0.03037 z m 0.380556,-1.149394 c 0.176801,0.0033 0.321,0.159165 0.28561,0.369167 -0.03581,0.212499 -0.223878,0.313263 -0.390054,0.256937 -0.165217,-0.056 -0.258448,-0.225118 -0.237468,-0.359419 0.02142,-0.137105 0.164135,-0.270027 0.341912,-0.266685 z m -0.232858,-1.234577 c 0.170577,-0.06188 0.366807,0.02941 0.421812,0.225533 0.05548,0.197807 -0.06513,0.378687 -0.243295,0.412622 -0.177561,0.03382 -0.351918,-0.07605 -0.39628,-0.232143 -0.04487,-0.157866 0.04662,-0.34393 0.217763,-0.406012 z m 4.134764,23.170259 c 0.0069,0.176164 -0.136377,0.328859 -0.33515,0.32194 -0.199098,-0.0069 -0.331957,-0.170512 -0.309367,-0.349556 0.02258,-0.179003 0.179464,-0.303326 0.336632,-0.295295 0.1575,0.008 0.301018,0.146701 0.307885,0.322911 z m 1.20291,-0.226747 c 0.05683,0.167455 -0.03717,0.352425 -0.225572,0.401389 -0.188706,0.04904 -0.360897,-0.06668 -0.392766,-0.239881 -0.03185,-0.173087 0.07778,-0.33842 0.230906,-0.378791 0.153446,-0.04046 0.330564,0.04972 0.387432,0.217283 z m 1.109432,-0.544527 c 0.09826,0.150052 0.05307,0.354759 -0.116746,0.450496 -0.169983,0.09583 -0.36824,0.02883 -0.445823,-0.130957 -0.07754,-0.159709 -0.01514,-0.351051 0.125932,-0.431947 0.141248,-0.081 0.338324,-0.03772 0.436637,0.112408 z m 0.959131,-0.802599 c 0.130957,0.124251 0.134534,0.335567 -0.0087,0.469262 -0.143237,0.133724 -0.353682,0.115731 -0.468539,-0.02278 -0.114843,-0.138499 -0.09894,-0.341587 0.02171,-0.45476 0.120681,-0.113204 0.324527,-0.115983 0.4555,0.0083 z m 0.753015,-1.000554 c 0.101657,0.06101 0.16192,0.17254 0.153873,0.294061 0,0 0,0 0,0 -0.0042,0.05768 -0.02357,0.114132 -0.05623,0.163219 -0.108446,0.163009 -0.317239,0.193727 -0.460912,0.08464 -0.143715,-0.109122 -0.17366,-0.310363 -0.08176,-0.447232 0.02902,-0.04323 0.06875,-0.07846 0.11597,-0.102958 0,0 0,0 0,0 0.101212,-0.05412 0.227654,-0.05258 0.329059,0.0083 z m 0.567985,-1.118079 c 0.166384,0.07023 0.244064,0.2649 0.16367,0.437131 -0.08038,0.172209 -0.279416,0.237685 -0.439978,0.15551 -0.160566,-0.08218 -0.22512,-0.276669 -0.152818,-0.431914 0.07229,-0.155224 0.262747,-0.230951 0.429126,-0.160727 z m 0.403636,-1.188196 c 0.17452,0.04541 0.279531,0.226767 0.224665,0.409043 -0.05485,0.18222 -0.24256,0.275468 -0.413336,0.216838 -0.170796,-0.05864 -0.26212,-0.242008 -0.212698,-0.405605 0.0494,-0.163539 0.226869,-0.265674 0.401369,-0.220276 z m 0.22283,-1.232076 c 0.17894,0.01824 0.31003,0.181266 0.283116,0.369839 -0.0269,0.188484 -0.198406,0.308311 -0.375579,0.275619 -0.177205,-0.0327 -0.294257,-0.200036 -0.270033,-0.36818 0.02421,-0.168052 0.183589,-0.295516 0.362496,-0.277278 z m 0.02765,-1.249732 c 0.08447,-0.0014 0.166966,0.03019 0.23068,0.08128 0.06592,0.06009 0.104574,0.146473 0.106255,0.238251 0.0035,0.19098 -0.146995,0.336238 -0.326707,0.331854 -0.179747,-0.0044 -0.321574,-0.150729 -0.324821,-0.319638 -0.0016,-0.08364 0.03062,-0.165203 0.09022,-0.227631 0.05853,-0.06779 0.139512,-0.1027 0.224374,-0.104113 z m 0.233658,-1.214382 c 0.157723,0.07125 0.235322,0.257015 0.193528,0.402094 -0.04177,0.145007 -0.204863,0.252334 -0.377374,0.217958 -0.172468,-0.03437 -0.286138,-0.213307 -0.225851,-0.411703 0.06026,-0.198313 0.251935,-0.279619 0.409697,-0.208349 z m 0.687825,-1.027331 c 0.11272,0.133235 0.107533,0.338709 0.01311,0.455229 -0.09472,0.116879 -0.282697,0.148657 -0.422617,0.04569 -0.139792,-0.10287 -0.171599,-0.315992 -0.03954,-0.476638 0.132328,-0.160974 0.336225,-0.157644 0.449049,-0.02429 z m 1.064542,-0.624588 c 0.0721,0.162333 8.17e-4,0.351994 -0.15291,0.42069 -0.15373,0.0687 -0.353129,-1e-4 -0.43908,-0.156584 -0.08595,-0.156481 -0.02031,-0.343529 0.15291,-0.42069 0.173222,-0.07716 0.366979,-0.0058 0.43908,0.156584 z m -3.223852,1.802823 c 0.155428,0.06411 0.237465,0.244475 0.184009,0.398642 -0.05346,0.154182 -0.227297,0.236892 -0.387522,0.180598 -0.160211,-0.05629 -0.24296,-0.232924 -0.18401,-0.398642 0.05896,-0.165731 0.23208,-0.244717 0.387523,-0.180598 z m 0.390811,-1.112331 c 0.147264,0.0795 0.222653,0.272408 0.169208,0.426547 -0.05345,0.154153 -0.22068,0.224426 -0.372721,0.152693 -0.152026,-0.07173 -0.228167,-0.260802 -0.169207,-0.426547 0.05896,-0.165759 0.225443,-0.232197 0.37272,-0.152693 z m 0.390811,-1.112332 c 0.139099,0.09488 0.207842,0.300343 0.154406,0.454452 -0.05344,0.154125 -0.214063,0.211962 -0.357918,0.124788 -0.143842,-0.08717 -0.213376,-0.28868 -0.154406,-0.454452 0.05897,-0.165786 0.218806,-0.219675 0.357918,-0.124788 z m 0.896013,-0.850777 c 0.136115,0.106763 0.136753,0.289784 0.0027,0.40638 -0.133666,0.11628 -0.355719,0.127733 -0.49187,0.02674 -0.136287,-0.101094 -0.137208,-0.281109 -5.75e-4,-0.403918 0.136281,-0.122491 0.353732,-0.135866 0.48972,-0.0292 z m 0.898512,-0.87199 c 0.138077,0.110385 0.148666,0.305323 0.02071,0.432637 -0.127639,0.126994 -0.344231,0.13846 -0.47973,0.0297 -0.135618,-0.108858 -0.141058,-0.299271 -0.01501,-0.427493 0.125727,-0.127899 0.336075,-0.145134 0.474037,-0.03484 z m 0.80091,-0.958232 c 0.05469,0.03943 0.09573,0.09478 0.116222,0.159491 0.03312,0.101087 0.0133,0.211907 -0.0536,0.296164 -0.113929,0.143483 -0.323916,0.165488 -0.464285,0.05656 -0.14048,-0.109017 -0.161455,-0.308528 -0.05336,-0.447762 0.06383,-0.08221 0.163288,-0.130049 0.268608,-0.127562 0.0663,0.0022 0.131793,0.02373 0.186411,0.06311 z m 0.622993,-1.094893 c 0.166369,0.07058 0.244647,0.268653 0.156219,0.445822 -0.08819,0.176692 -0.293481,0.233082 -0.450633,0.142227 -0.157319,-0.09095 -0.212786,-0.288772 -0.13786,-0.437365 0.07467,-0.148096 0.266085,-0.221182 0.432274,-0.150684 z m 0.320164,-1.199985 c 0.17591,0.01831 0.306353,0.183068 0.269566,0.37939 -0.03664,0.195556 -0.218203,0.3018 -0.39093,0.253963 -0.173024,-0.04792 -0.273635,-0.221315 -0.242867,-0.376051 0.03061,-0.15392 0.188638,-0.275575 0.364231,-0.257302 z m -0.0966,-1.230159 c 0.15173,-0.03365 0.306044,0.04508 0.367093,0.192044 0,0 0,0 0,0 0,0 0,0 0,0 0.0087,0.02249 0.0151,0.04591 0.01909,0.0698 0.03402,0.20361 -0.103506,0.365157 -0.279531,0.378079 -0.176123,0.01293 -0.33092,-0.113142 -0.360252,-0.26304 -0.0038,-0.01916 -0.0055,-0.03866 -0.0054,-0.05829 0,0 0,0 0,0 0,0 0,0 0,0 4.81e-4,-0.15044 0.107552,-0.285009 0.258969,-0.318592 z m -0.341097,-1.207185 c 0.169506,-0.06036 0.358087,0.03059 0.415248,0.211646 0.05701,0.18058 -0.04517,0.363168 -0.219146,0.411403 -0.174143,0.04828 -0.353101,-0.05185 -0.404242,-0.215642 -0.05099,-0.163301 0.0388,-0.347101 0.20814,-0.407407 z m -0.518502,-1.133238 c 0.15484,-0.09006 0.35634,-0.03443 0.444164,0.137046 0.08758,0.171002 0.01504,0.366761 -0.14846,0.44031 -0.163664,0.07362 -0.353656,0.0032 -0.429236,-0.144946 -0.07533,-0.147616 -0.02115,-0.342438 0.133532,-0.43241 z m -0.737228,-1.004506 c 0.133807,-0.118816 0.341732,-0.105292 0.462245,0.04263 0.120785,0.148253 0.09181,0.355147 -0.05321,0.461846 -0.144918,0.106619 -0.345734,0.07774 -0.45104,-0.0525 -0.105584,-0.13058 -0.0919,-0.333071 0.04201,-0.451978 z m -0.89394,-0.86986 c 0.117084,-0.136855 0.324706,-0.151872 0.463338,-0.02524 0.138958,0.126926 0.142867,0.335106 0.01774,0.463522 -0.125023,0.128304 -0.328864,0.132912 -0.455785,0.01788 -0.127255,-0.115339 -0.142473,-0.319182 -0.02529,-0.456155 z m -0.991337,-0.77079 c 0.105424,-0.146904 0.311249,-0.180378 0.460014,-0.06949 0.149105,0.111143 0.175881,0.318154 0.06506,0.460781 -0.110734,0.142513 -0.315017,0.169494 -0.456111,0.06462 -0.14144,-0.105128 -0.174468,-0.308894 -0.06896,-0.455915 z M 52.176586,18.82555 c 0.108161,-0.142066 0.30796,-0.172474 0.445129,-0.08219 0,0 0,0 0,0 3.91e-4,2.58e-4 7.81e-4,5.16e-4 0.0012,7.76e-4 0.151392,0.100858 0.190689,0.304334 0.08876,0.453623 -0.101858,0.149177 -0.304388,0.187554 -0.45202,0.08774 -3.83e-4,-2.59e-4 -7.65e-4,-5.18e-4 -0.0011,-7.79e-4 0,0 0,0 0,0 -0.160946,-0.109804 -0.190021,-0.317142 -0.08189,-0.459173 z m -0.902721,-0.856559 c 0.136345,-0.116726 0.338542,-0.102942 0.452778,0.01739 0.114062,0.120148 0.117441,0.322515 -0.0053,0.452693 -0.122808,0.130241 -0.331966,0.134481 -0.46511,-0.0052 -0.132977,-0.139526 -0.118638,-0.348191 0.01764,-0.46486 z M 50.553804,16.9468 c 0.156336,-0.09026 0.354058,-0.03904 0.444749,0.103123 0.09059,0.141997 0.0539,0.342638 -0.09275,0.446572 -0.14671,0.103974 -0.353382,0.06728 -0.457274,-0.09456 -0.10379,-0.161688 -0.051,-0.364903 0.105272,-0.455133 z m -0.534592,-1.134625 c 0.168462,-0.06332 0.355613,0.01932 0.422139,0.175739 0.06648,0.156314 -0.0039,0.348461 -0.16707,0.425867 -0.163164,0.07742 -0.360416,0.0054 -0.434853,-0.170785 -0.07439,-0.176117 0.01136,-0.367516 0.179784,-0.430821 z M 49.66576,14.612189 c 0.175815,-0.03828 0.348497,0.07074 0.391011,0.235855 0.04252,0.165135 -0.05605,0.34401 -0.228514,0.395367 -0.172458,0.05135 -0.355581,-0.04919 -0.402852,-0.232812 -0.04728,-0.183639 0.06453,-0.360128 0.240355,-0.39841 z"
       inkscape:path-effect="#path-effect98485"
       inkscape:original-d="m 47.785868,19.036854 c 0.185554,1.156582 1.501091,1.806993 2.828558,2.551767 3.188188,1.789324 2.178409,5.007315 0.152671,5.774794 -1.447563,0.54948 -2.896673,-0.163295 -3.001701,-1.517199 -0.06128,-0.802746 0.594347,-1.242649 0.866067,-1.21551 0.807206,0.07939 0.385796,0.747387 0.385796,0.747387 0,0 1.690362,0.204721 1.68193,-1.327806 -0.01102,-2.16404 -4.063758,-2.69362 -5.525002,-0.05749 -0.860216,1.55407 -0.470291,2.929562 0.117948,3.935792 0.870638,1.492315 2.271039,2.270594 4.244468,2.045474 2.312175,-0.263976 5.257378,-2.697301 5.247573,-4.939768 -0.0096,-2.191729 -1.435024,-3.31965 -3.74165,-4.701223 -2.156185,-1.290377 -2.537268,-4.088154 -2.537268,-4.088154 m -0.524166,-4.652451 c 0,0 -2.854454,2.181431 -2.418593,5.065298 0.435861,2.883867 1.462052,4.336667 -0.90834,6.078893 -1.508326,1.079377 -1.742066,2.13927 -1.772542,3.218919 -0.03048,1.079649 0.548212,2.912154 2.638836,3.833045 m -0.492407,7.929074 c -2.447755,-3.430883 2.279606,-5.005425 3.587735,-3.329742 0.943142,1.207558 -0.723923,2.017702 -0.723923,2.017702 0,0 0.004,-0.790458 -0.722701,-0.430358 -0.245298,0.120435 -0.568545,0.84136 -0.09075,1.489773 0.805904,1.092641 2.412156,0.930366 3.350026,-0.302925 1.311459,-1.723697 0.499232,-4.904163 -4.01929,-5.088831 -4.518522,-0.184668 -5.244262,-4.035172 -5.505903,-5.29778 -0.422528,-2.039 0.806886,-4.166274 1.974425,-5.027971 1.167539,-0.861697 2.267887,-1.616455 1.336895,-3.80095 m 3.596141,23.410891 c 4.22193,0.532688 6.030414,-4.529067 5.894263,-7.242199 -0.136152,-2.713131 2.735558,-3.294726 2.735558,-3.294726 m -4.179857,2.718276 c 0,0 -0.609969,-1.500176 1.018403,-2.899625 1.628371,-1.399449 3.955775,-3.415579 3.46259,-5.855479 -0.493185,-2.4399 -1.270892,-3.735935 -4.301564,-5.76971 -2.7035,-1.813753 -2.919186,-5.331257 -2.919186,-5.331257"
       inkscape:connector-curvature="0"
       sodipodi:nodetypes="ccccccccccccccscccccccccsssccsccsscc"
       inkscape:tile-cx="48.782756"
       inkscape:tile-cy="26.605859"
       inkscape:tile-w="16.642361"
       inkscape:tile-h="30.252658"
       inkscape:tile-x0="40.461538"
       inkscape:tile-y0="11.479625"
       transform="rotate(-71.954728,49.524534,48.007719)"
       inkscape:transform-center-x="20.478341"
       inkscape:transform-center-y="-6.1833706" />
    <circle
       style="opacity:1;fill:none;fill-opacity:0.31563422;stroke:#000000;stroke-width:0.05062744;stroke-linecap:butt;stroke-linejoin:miter;stroke-miterlimit:4;stroke-dasharray:none;stroke-dashoffset:0;stroke-opacity:1"
       id="path98541"
       cx="-30.353899"
       cy="61.762272"
       r="5.6357327"
       transform="rotate(-71.954728)"
       inkscape:transform-center-x="-2.4539308"
       inkscape:transform-center-y="-1.8340821" />
    <use
       x="0"
       y="0"
       xlink:href="#path43216"
       inkscape:transform-center-x="0.68334109"
       inkscape:transform-center-y="-21.167751"
       id="use98776"
       transform="rotate(72,49.288164,47.973586)"
       width="100%"
       height="100%" />
    <use
       x="0"
       y="0"
       xlink:href="#path43216"
       inkscape:transform-center-x="-19.660839"
       inkscape:transform-center-y="-7.3460982"
       id="use98780"
       transform="rotate(144,49.288164,47.973586)"
       width="100%"
       height="100%" />
    <use
       x="0"
       y="0"
       xlink:href="#path43216"
       inkscape:transform-center-x="-12.741327"
       inkscape:transform-center-y="16.228809"
       id="use98782"
       transform="rotate(-144,49.288164,47.973586)"
       width="100%"
       height="100%" />
    <use
       x="0"
       y="0"
       xlink:href="#path43216"
       inkscape:transform-center-x="11.262592"
       inkscape:transform-center-y="17.568459"
       id="use98784"
       transform="rotate(-72,49.288164,47.973585)"
       width="100%"
       height="100%" />
    <path
       inkscape:connector-curvature="0"
       id="path99227"
       style="fill:none;stroke:#000000;stroke-width:0.15336239;stroke-miterlimit:10"
       d="m 142.03522,53.968053 c 6.12302,3.330637 6.80076,2.999916 9.79801,5.040855 3.70562,2.523763 4.61466,6.104309 4.97634,9.169535 0.49157,4.16771 0.15934,8.407874 -0.93505,8.330429 -0.98374,-0.06974 -0.50614,-1.064738 -8.19313,-2.768945 -4.18726,-0.928436 -5.90759,-0.40322 -7.93608,-9.304388 -1.12382,-4.931095 -1.81917,-7.383499 -1.81917,-7.383499 m 0.0337,-2.8e-5 c -1.27529,6.852512 -0.75141,7.394829 -1.76638,10.87639 -1.25478,4.303833 -4.37955,6.274839 -7.18289,7.566264 -3.81169,1.755361 -7.947,2.749627 -8.21142,1.685042 -0.23769,-0.957169 0.85604,-0.810291 0.10154,-8.647865 -0.41081,-4.269213 -1.44215,-5.74274 6.39671,-10.42261 4.34228,-2.592569 6.45978,-4.011605 6.45978,-4.011605 m 0.0104,0.03142 c -6.91122,0.90438 -7.26502,1.570405 -10.88982,1.680878 -4.4809,0.136444 -7.3213,-2.225739 -9.4156,-4.493213 -2.84727,-3.082797 -5.07068,-6.708448 -4.13975,-7.288932 0.83672,-0.521694 1.03508,0.563913 8.25595,-2.57566 3.93305,-1.710086 5.0159,-3.146417 11.8892,2.86258 3.80743,3.32877 5.81147,4.904226 5.81147,4.904226 m -0.0271,0.01994 c -2.99608,-6.293509 -3.7388,-6.424149 -4.96397,-9.837493 -1.51456,-4.219322 -0.14554,-7.650789 1.36381,-10.343306 2.05187,-3.660438 4.81319,-6.895623 5.653,-6.189583 0.75461,0.634403 -0.2165,1.158723 5.00079,7.055816 2.84158,3.21215 4.54241,3.798186 0.95134,12.192011 -1.98929,4.649769 -2.86802,7.042563 -2.86802,7.042563 m -0.0275,-0.01968 c 5.05958,-4.794022 4.95448,-5.540984 7.82216,-7.760632 3.54476,-2.744317 7.23123,-2.502873 10.25847,-1.899522 4.1152,0.820469 8.04549,2.446896 7.63342,3.463604 -0.37029,0.913685 -1.16875,0.152266 -5.16521,6.936474 -2.17674,3.694996 -2.20857,5.493538 -11.30124,4.672197 -5.03693,-0.455192 -7.5842,-0.551422 -7.5842,-0.551422" />
    <path
       inkscape:connector-curvature="0"
       id="path99229"
       d="m 130.11368,26.906146 a 0.40182421,0.40182476 72 0 1 -0.50633,-0.257992 0.40182421,0.40182476 72 0 1 0.258,-0.50632 0.40182421,0.40182476 72 0 1 0.50631,0.257978 0.40182421,0.40182476 72 0 1 -0.25798,0.506334 z"
       style="opacity:1;fill:none;fill-opacity:0.31563422;stroke:#000000;stroke-width:0.06163513;stroke-linecap:butt;stroke-linejoin:miter;stroke-miterlimit:4;stroke-dasharray:none;stroke-dashoffset:0;stroke-opacity:1" />
    <path
       inkscape:transform-center-y="-4.7788165"
       inkscape:transform-center-x="15.826682"
       transform="matrix(0.77284961,6.1066508e-4,-6.1066508e-4,0.77284961,99.62724,15.677833)"
       inkscape:tile-y0="11.479625"
       inkscape:tile-x0="40.461538"
       inkscape:tile-h="30.252658"
       inkscape:tile-w="16.642361"
       inkscape:tile-cy="26.605859"
       inkscape:tile-cx="48.782756"
       sodipodi:nodetypes="ccccccccczccccszscccccccsccsc"
       inkscape:connector-curvature="0"
       d="m 47.572048,19.667549 c -0.154084,-0.20396 -0.102096,-0.48401 0.09478,-0.590711 0.195834,-0.106134 0.438605,-0.01365 0.538922,0.128874 0.101118,0.14367 0.07682,0.360157 -0.0783,0.506637 -0.154251,0.145646 -0.401969,0.158287 -0.555397,-0.0448 z m 0.763973,1.191938 c -0.213158,-0.124873 -0.270453,-0.396449 -0.143869,-0.574097 0.125308,-0.175851 0.37721,-0.207903 0.543404,-0.114396 0.167692,0.09435 0.239513,0.314085 0.143883,0.515723 -0.09471,0.199688 -0.33142,0.29696 -0.543418,0.17277 z m 1.094945,0.882794 c -0.233972,-0.06095 -0.365236,-0.301196 -0.293656,-0.515884 0.07093,-0.212712 0.307149,-0.323178 0.506287,-0.268807 0.200253,0.05468 0.324386,0.265849 0.277213,0.483214 -0.04674,0.215335 -0.256783,0.362192 -0.489844,0.301477 z m 1.035279,0.700772 c -0.187018,-0.07483 -0.286155,-0.29207 -0.218804,-0.50573 0.06684,-0.212017 0.289471,-0.342815 0.522116,-0.251375 0.232895,0.09154 0.333426,0.352824 0.233237,0.555543 -0.09944,0.201188 -0.350037,0.276182 -0.536549,0.201562 z m 0.763758,0.902692 c -0.148031,-0.121123 -0.180402,-0.348202 -0.0534,-0.531483 0.125864,-0.181639 0.375099,-0.240875 0.56583,-0.08025 0.191333,0.161137 0.200469,0.440296 0.04417,0.593521 -0.154878,0.151824 -0.409473,0.138584 -0.556592,0.01821 z m 0.358716,1.046415 c -0.07768,-0.159455 -0.01823,-0.369018 0.160948,-0.48692 0.177874,-0.117043 0.424458,-0.08537 0.539226,0.139828 0.115153,0.22596 0.01435,0.489257 -0.193854,0.561185 -0.20676,0.07143 -0.429187,-0.05577 -0.50632,-0.214093 z m -0.165972,1.097726 c 0.002,-0.187199 0.156634,-0.350116 0.375743,-0.373575 0.217565,-0.02329 0.428092,0.121487 0.427819,0.38114 -2.76e-4,0.259107 -0.214438,0.44744 -0.436247,0.420097 -0.220279,-0.02716 -0.369301,-0.240287 -0.367315,-0.427662 z m -0.617181,0.954291 c 0.07748,-0.170431 0.285621,-0.258081 0.496022,-0.188656 0.208319,0.06874 0.339834,0.288716 0.23377,0.523486 -0.106163,0.234985 -0.379049,0.31918 -0.569471,0.203886 -0.188555,-0.114168 -0.237493,-0.36896 -0.160321,-0.538716 z m -0.93931,0.590365 c 0.02304,-0.01881 0.04773,-0.03414 0.07384,-0.04583 0.134753,-0.05886 0.315046,-0.02517 0.444763,0.09761 0.157853,0.149425 0.186232,0.403058 -0.01475,0.571516 -0.04237,0.03551 -0.09191,0.06329 -0.145409,0.08135 -0.194349,0.06514 -0.381371,-0.0071 -0.466365,-0.153074 -0.111991,-0.192289 -0.02663,-0.441696 0.107917,-0.551581 z m -1.097389,0.03579 c 0.18207,-0.0279 0.365867,0.09761 0.426596,0.313295 0.05975,0.212216 -0.04645,0.450371 -0.312165,0.490053 -0.265406,0.03963 -0.486195,-0.154954 -0.487875,-0.378354 -0.0016,-0.219795 0.192035,-0.397192 0.373444,-0.424994 z M 47.81967,26.603469 c 0.150728,0.05913 0.245112,0.23852 0.193062,0.449233 -0.05088,0.205979 -0.252817,0.356514 -0.49223,0.253475 -0.240834,-0.103654 -0.321726,-0.380867 -0.207341,-0.555503 0.111662,-0.170472 0.358779,-0.205159 0.506509,-0.147205 z m -0.360275,-0.8492 c 0.0096,0.02054 0.01651,0.04107 0.02059,0.06176 0.01033,0.124757 -0.06947,0.284458 -0.205976,0.38392 -0.162558,0.118438 -0.409172,0.119608 -0.539828,-0.134298 -0.02938,-0.0571 -0.04781,-0.121686 -0.05276,-0.188168 -0.0035,-0.224565 0.137429,-0.379694 0.299407,-0.402943 0.211948,-0.03042 0.41951,0.153758 0.478571,0.279728 z m 0.40806,-0.731787 c -0.02281,0.07454 -0.10208,0.116107 -0.261568,0.10481 -0.05865,-0.0049 -0.125219,-0.01759 -0.187748,-0.04139 -0.142067,-0.05408 -0.266279,-0.171474 -0.246307,-0.357603 0,0 0,0 0,0 0,0 0,0 0,0 0,0 0,0 0,0 -6.6e-5,-0.06717 0.01784,-0.138074 0.0611,-0.203387 0.179118,-0.270425 0.639418,-0.256311 0.727563,-0.03213 0.0017,0.005 0.0032,0.01009 0.0046,0.0152 0.02359,0.08807 0.0015,0.182125 -0.03201,0.261728 -0.03797,0.107103 -0.04637,0.18997 -0.06559,0.252771 z m 0.316849,0.407345 c -0.04669,-0.145556 -0.09778,-0.29886 -0.07621,-0.406596 0,0 0,0 0,0 0.08333,0.0048 0.134221,-0.0347 0.197601,-0.08892 0.09672,-0.08275 0.299556,-0.241294 0.471234,0.08885 0,0 0,0 0,0 0.0064,0.02919 0.0013,0.05892 -0.01539,0.08785 -0.04576,0.07926 -0.160618,0.131598 -0.290128,0.181431 -8.5e-5,9.88e-4 -8.5e-5,9.88e-4 -8.5e-5,9.88e-4 0.06176,-0.03487 0.105306,-0.03584 0.11465,0.008 0.01912,0.08971 -0.109559,0.185439 -0.391191,0.162537 0,0 0,0 0,0 8.5e-5,-9.87e-4 8.5e-5,-9.87e-4 8.5e-5,-9.87e-4 -0.0034,-0.01076 -0.0069,-0.02178 -0.01057,-0.03315 z m 1.556069,-0.04368 c -0.123839,0.15633 -0.33377,0.230569 -0.489221,0.176368 -0.06465,-0.05021 -0.112936,-0.103151 -0.143364,-0.157263 -0.06912,-0.122919 -0.04341,-0.256964 0.01946,-0.397361 0,0 0,0 0,0 0,0 0,-1e-6 0,-1e-6 0.02093,-0.04998 0.04503,-0.09251 0.07112,-0.124798 0.07941,-0.09827 0.240848,-0.134272 0.427553,-0.04814 0.17611,0.08124 0.309977,0.304372 0.114453,0.551199 z m 0.649229,-1.471322 c 0.01488,0.04226 0.02384,0.08751 0.02633,0.133873 0.003,0.250326 -0.167155,0.422154 -0.342826,0.430767 -0.206328,0.01011 -0.389721,-0.189437 -0.441116,-0.326476 -0.01269,-0.03384 -0.01916,-0.06701 -0.01893,-0.100039 0.009,-0.11174 0.09671,-0.248491 0.235948,-0.331314 0.181566,-0.108002 0.442795,-0.0846 0.540596,0.193189 z m -0.712961,-1.384734 c 0.258266,0.125766 0.322447,0.428793 0.183838,0.604303 -0.135024,0.170966 -0.402459,0.18289 -0.547566,0.110663 -0.08727,-0.04344 -0.142825,-0.11837 -0.166574,-0.220953 0,0 0,0 0,0 -0.01975,-0.07894 -0.01965,-0.170446 0.0059,-0.256933 0.05054,-0.171061 0.199684,-0.303098 0.405527,-0.274913 0,0 1e-6,0 1e-6,0 0.0402,0.0064 0.08034,0.01907 0.118878,0.03783 z m -1.346408,-0.626034 c 0.256986,-0.02219 0.465979,0.176765 0.457225,0.400136 -0.0086,0.219686 -0.208991,0.387201 -0.393656,0.403156 -0.187004,0.01615 -0.367733,-0.124154 -0.408761,-0.343231 -0.04035,-0.21548 0.08973,-0.437998 0.345192,-0.460061 z m -1.438662,-0.0087 c 0.2253,-0.112972 0.486642,-0.01029 0.565189,0.198535 0.07799,0.20735 -0.03922,0.438338 -0.21121,0.524062 -0.172535,0.08599 -0.392638,0.02063 -0.508382,-0.168746 -0.114929,-0.188047 -0.07061,-0.441018 0.154403,-0.553851 z m -1.338276,0.496835 c 0.171637,-0.184217 0.449834,-0.178221 0.595556,-0.0085 0.144893,0.168715 0.115382,0.427526 -0.01827,0.568842 -0.133717,0.141382 -0.362545,0.153775 -0.534236,0.0152 -0.170715,-0.137789 -0.214772,-0.391189 -0.04305,-0.575499 z m -1.077264,0.936551 c 0.09557,-0.236043 0.357265,-0.328448 0.550316,-0.220258 0.192324,0.107787 0.252329,0.360843 0.179308,0.538016 -0.07288,0.176812 -0.276313,0.269762 -0.484484,0.203783 -0.207399,-0.06574 -0.34091,-0.28499 -0.24514,-0.521541 z m -0.691849,1.257722 c 0.0117,-0.248567 0.228554,-0.427401 0.451155,-0.397819 0.221267,0.02941 0.366489,0.239265 0.355823,0.429618 -0.0107,0.190871 -0.178081,0.352412 -0.400007,0.363735 -0.220591,0.01125 -0.418654,-0.147249 -0.406971,-0.395534 z m -0.231864,1.400383 c -0.07272,-0.238227 0.07037,-0.477064 0.289855,-0.523003 0.218346,-0.0457 0.427648,0.103469 0.482763,0.289627 0.05515,0.186295 -0.04954,0.394368 -0.255335,0.476654 -0.20473,0.08186 -0.444543,-0.005 -0.517283,-0.243278 z m 0.243055,1.392803 c -0.111803,-0.158162 -0.102743,-0.373866 0.02025,-0.510376 0,0 0,0 0,0 0.02489,-0.02778 0.0536,-0.05126 0.08518,-0.07009 0.105848,-0.06311 0.235267,-0.06923 0.348682,-0.0299 0,0 0,0 0,0 0.08374,0.02948 0.154521,0.0828 0.202145,0.151192 0.113782,0.163408 0.08018,0.398703 -0.09243,0.536753 -0.171821,0.137419 -0.425003,0.118807 -0.56383,-0.07758 z m 0.555236,1.250618 c -0.166519,-0.161346 -0.166993,-0.426683 -0.0058,-0.580751 0.160292,-0.15317 0.416544,-0.14286 0.567694,0.0037 0.152115,0.147533 0.159776,0.395915 0.0088,0.559735 -0.15008,0.162876 -0.405156,0.177738 -0.570759,0.01728 z m 0.805058,1.149611 c -0.221737,-0.120278 -0.289511,-0.394604 -0.161495,-0.574961 0.126968,-0.178873 0.382609,-0.206966 0.542188,-0.119716 0.161242,0.08816 0.236423,0.300019 0.15166,0.502757 -0.08407,0.201072 -0.311938,0.311478 -0.532353,0.19192 z m 1.159077,0.817563 c -0.241346,-0.04231 -0.392452,-0.275043 -0.338326,-0.492694 0.05359,-0.215473 0.279861,-0.34269 0.479553,-0.30905 0.201349,0.03392 0.347401,0.227957 0.321507,0.452591 -0.02565,0.222434 -0.222771,0.391218 -0.462734,0.349153 z m 1.287402,0.500288 c -0.115026,3.55e-4 -0.225492,-0.04732 -0.30344,-0.129867 0,0 0,0 0,0 -0.07417,-0.07586 -0.113101,-0.177047 -0.109724,-0.281467 0.0063,-0.195625 0.156363,-0.357253 0.339121,-0.387917 0,0 0,0 0,0 0.02305,-0.0043 0.04634,-0.0066 0.06959,-0.0069 0.21087,-0.0023 0.387467,0.166254 0.397937,0.389269 0.01045,0.222655 -0.157041,0.416146 -0.393489,0.416878 z m 1.352859,0.281354 c -0.237142,0.04647 -0.456384,-0.110911 -0.48586,-0.332895 -0.02946,-0.221906 0.133074,-0.42179 0.335493,-0.459202 0.201708,-0.03728 0.401227,0.09488 0.455383,0.308711 0.05414,0.213781 -0.06717,0.436778 -0.305016,0.483386 z m 1.397886,-0.03381 c -0.222196,0.107494 -0.476624,0.0071 -0.556793,-0.198907 -0.08024,-0.206199 0.03196,-0.435627 0.209416,-0.521076 0.176696,-0.08508 0.397208,-0.01637 0.509343,0.173575 0.112238,0.190128 0.06095,0.43856 -0.161966,0.546408 z m 1.322202,-0.354459 c -0.188353,0.139459 -0.449201,0.09533 -0.575053,-0.08857 -0.125778,-0.183799 -0.07404,-0.434605 0.09652,-0.560186 0.170351,-0.125422 0.413428,-0.09174 0.551748,0.0819 0.138249,0.173556 0.115352,0.427233 -0.07321,0.566852 z m 1.249905,-0.544472 c -0.165963,0.167971 -0.431619,0.163686 -0.582359,1.5e-5 -0.150716,-0.163651 -0.134134,-0.418839 0.01311,-0.566091 0.14701,-0.147016 0.389021,-0.151114 0.552481,-0.0029 0.163447,0.148197 0.182958,0.400783 0.01677,0.568986 z m 1.144936,-0.755027 c -0.133847,0.198031 -0.398294,0.241688 -0.574888,0.107955 -0.176628,-0.133763 -0.20445,-0.387344 -0.08966,-0.557219 0.06947,-0.102807 0.182894,-0.164237 0.309945,-0.167446 0.0781,-0.001 0.157893,0.01966 0.227706,0.06098 0.145974,0.0864 0.228351,0.252311 0.184455,0.427157 0,0 0,0 0,0 -0.0113,0.04542 -0.03078,0.08896 -0.05755,0.128573 z m 0.955963,-1.008491 c -0.07926,0.227517 -0.32654,0.336472 -0.52949,0.248122 -0.202341,-0.08809 -0.288007,-0.328864 -0.221623,-0.516886 0.0665,-0.188327 0.275636,-0.295277 0.486999,-0.234886 0.21074,0.06022 0.343286,0.276366 0.264114,0.50365 z m 0.672291,-1.205488 c -0.02255,0.239418 -0.235769,0.403175 -0.454059,0.366326 -0.21764,-0.03674 -0.360871,-0.249647 -0.341814,-0.451416 0.01908,-0.202002 0.198043,-0.356886 0.418738,-0.346516 0.220053,0.01034 0.399663,0.192353 0.377135,0.431606 z m 0.377248,-1.329412 c 0.03179,0.239214 -0.138852,0.44647 -0.360708,0.458912 -0.221271,0.01241 -0.409888,-0.164463 -0.436387,-0.368027 -0.02651,-0.203668 0.114858,-0.394991 0.33256,-0.432528 0.217139,-0.03744 0.432751,0.102476 0.464535,0.341643 z m 0.07386,-1.383605 c 0.0047,0.0144 0.0086,0.02913 0.01172,0.04409 0.05527,0.217297 -0.06485,0.427777 -0.262753,0.483082 -0.212989,0.05952 -0.435302,-0.07347 -0.505341,-0.26672 -0.0228,-0.06291 -0.02875,-0.129349 -0.01741,-0.19405 0,0 0,0 0,0 0,0 0,0 0,0 0.03034,-0.125277 0.126304,-0.239752 0.257306,-0.295803 0.202234,-0.08652 0.440215,-0.0058 0.516487,0.229396 z m -0.235384,-1.378176 c 0.136089,0.198065 0.07698,0.465158 -0.113881,0.57998 -0.189988,0.114296 -0.433801,0.04463 -0.545854,-0.118153 -0.112546,-0.163511 -0.07701,-0.399314 0.09726,-0.538704 0.173491,-0.138763 0.426807,-0.120568 0.562474,0.07688 z m -0.56009,-1.264379 c 0.174043,0.162251 0.176158,0.43295 0.01473,0.590278 -0.160645,0.156563 -0.418106,0.147747 -0.569946,0.0056 -0.152385,-0.142697 -0.165083,-0.388906 -0.01925,-0.559833 0.145137,-0.170105 0.400897,-0.197807 0.57446,-0.03601 z m -0.76696,-1.126108 c 0.08432,0.05827 0.144454,0.146434 0.167747,0.24588 0,0 0,0 0,0 0.02766,0.114115 0.0032,0.23213 -0.06544,0.324444 -0.123739,0.166329 -0.354865,0.208168 -0.526364,0.111075 0,0 0,0 0,0 -0.0117,-0.0065 -0.02303,-0.01352 -0.03397,-0.02112 -0.173726,-0.120628 -0.22092,-0.36168 -0.100754,-0.547849 0.120076,-0.186024 0.367573,-0.24456 0.558787,-0.112433 z m -0.896264,-1.00992 c 0.20641,0.106946 0.281662,0.358944 0.172177,0.552428 -0.1094,0.193327 -0.356898,0.25749 -0.544895,0.159559 -0.188021,-0.09795 -0.265029,-0.33123 -0.168713,-0.53077 0.09625,-0.199393 0.335042,-0.288149 0.541431,-0.181217 z m -1.015329,-0.889557 c 0.218226,0.08052 0.324025,0.320895 0.239048,0.526232 -0.08492,0.205183 -0.322989,0.299379 -0.521967,0.225377 -0.198984,-0.07401 -0.304095,-0.295853 -0.232872,-0.505408 0.07118,-0.209412 0.29757,-0.326711 0.515791,-0.246201 z m -1.112602,-0.757042 c 0.02471,0.0066 0.04867,0.01558 0.07157,0.02695 0.183255,0.08296 0.276374,0.280669 0.225149,0.465629 -0.05919,0.21371 -0.284137,0.336224 -0.490756,0.287397 -0.05493,-0.01298 -0.106006,-0.03745 -0.150109,-0.07192 -0.128021,-0.09693 -0.185293,-0.259987 -0.145192,-0.415255 0.05664,-0.219286 0.282341,-0.347684 0.489334,-0.292798 z m -1.035944,-0.744233 c 0.195921,0.07314 0.304343,0.297026 0.233702,0.514982 -0.06992,0.215725 -0.299214,0.341491 -0.525181,0.254496 -0.227419,-0.08756 -0.33249,-0.344935 -0.240045,-0.551129 0.09149,-0.204051 0.337311,-0.290845 0.531524,-0.218349 z m -0.800689,-0.863172 c 0.146427,0.111498 0.189461,0.332352 0.07246,0.519518 -0.115918,0.185421 -0.358899,0.255504 -0.553997,0.103264 -0.196466,-0.153312 -0.217888,-0.432375 -0.06639,-0.588374 0.150061,-0.154512 0.403243,-0.144577 0.54793,-0.03441 z m -0.321239,-1.012235 c 0.04578,0.106804 0.02701,0.224788 -0.05522,0.337233 -0.03599,0.05019 -0.0825,0.09544 -0.136596,0.129833 -0.126949,0.08069 -0.28777,0.09479 -0.423527,-7.49e-4 0,0 0,0 0,0 0,0 0,0 0,0 -0.05393,-0.0399 -0.09845,-0.09611 -0.127684,-0.164186 -0.112483,-0.261907 0.03782,-0.540433 0.2596,-0.579172 0.212258,-0.03707 0.4226,0.135126 0.483429,0.277041 z m -1.896841,-3.975965 c 0.100971,-0.199331 0.344651,-0.28085 0.542345,-0.181493 0.197685,0.09936 0.27684,0.34136 0.179426,0.536182 -0.09741,0.194815 -0.337678,0.274016 -0.538612,0.177497 -0.20094,-0.09652 -0.284124,-0.332858 -0.183159,-0.532186 z m -0.925688,0.933721 c 0.09922,-0.197445 0.345853,-0.282141 0.548916,-0.188563 0.203055,0.09358 0.287996,0.329356 0.192322,0.522304 -0.04805,0.09689 -0.135916,0.169958 -0.243506,0.202637 0,0 0,0 0,0 -0.08914,0.03419 -0.190742,0.03324 -0.283403,-0.0045 -0.175365,-0.07135 -0.283173,-0.260131 -0.241293,-0.462061 0,0 0,0 0,0 0.0066,-0.02399 0.01567,-0.04738 0.02696,-0.06985 z m -0.782642,1.128362 c 0.05314,-0.235793 0.279836,-0.372254 0.489089,-0.307437 0.20898,0.06474 0.325004,0.298278 0.278749,0.502755 -0.0462,0.204237 -0.244777,0.334019 -0.458798,0.291531 -0.213758,-0.04244 -0.362231,-0.250799 -0.30904,-0.486849 z m -0.560388,1.266739 c 0.0053,-0.241806 0.202856,-0.422099 0.420723,-0.401366 0.217726,0.02072 0.374675,0.224494 0.369733,0.428305 -0.0049,0.203452 -0.170864,0.369164 -0.388673,0.375533 -0.217685,0.0064 -0.407129,-0.160301 -0.401783,-0.402472 z m -0.273607,1.366348 c -0.0018,-0.0076 -0.0034,-0.01516 -0.0048,-0.02282 -0.03711,-0.232518 0.115623,-0.441535 0.324498,-0.47287 0.217248,-0.03259 0.417123,0.126843 0.46215,0.321483 0.01611,0.06963 0.01221,0.140896 -0.01162,0.207587 0,0 0,0 0,0 0,0 0,0 0,0 0,0 0,0 0,0 -0.04392,0.124186 -0.148802,0.221964 -0.280524,0.257211 -0.213684,0.05718 -0.436081,-0.06637 -0.489723,-0.290595 z m -0.04384,1.324049 c -0.06556,-0.212122 0.05374,-0.439345 0.266741,-0.50357 0.212235,-0.06399 0.436634,0.05735 0.501431,0.267006 0.06512,0.210716 -0.0531,0.437097 -0.265781,0.502319 -0.211934,0.06499 -0.437156,-0.0547 -0.502391,-0.265755 z m -0.02076,1.297889 c -0.06086,-0.188906 0.04599,-0.419983 0.265048,-0.492436 0.209311,-0.06922 0.448991,0.04266 0.51529,0.264033 0.06918,0.231007 -0.07604,0.483853 -0.298182,0.524786 -0.211764,0.03902 -0.424818,-0.118429 -0.482156,-0.296383 z m -0.356571,1.070682 c 0.03092,-0.2079 0.226485,-0.357558 0.447239,-0.332878 0.219706,0.02457 0.383461,0.219977 0.349987,0.451302 -0.03359,0.232092 -0.250149,0.387764 -0.46962,0.345845 -0.218453,-0.04173 -0.358397,-0.257228 -0.327606,-0.464269 z m -0.656907,1.036979 c 0.06652,-0.190534 0.278691,-0.300817 0.49201,-0.240127 0.212418,0.06044 0.343912,0.278367 0.265357,0.504907 -0.07883,0.22731 -0.326438,0.339257 -0.531345,0.252384 -0.204059,-0.08652 -0.292232,-0.327522 -0.226022,-0.517164 z m -0.867767,0.860648 c 0.111738,-0.180773 0.347624,-0.238339 0.53969,-0.130894 0.193197,0.108081 0.267574,0.349452 0.14486,0.550206 -0.121693,0.199076 -0.375796,0.254775 -0.561538,0.134064 -0.18683,-0.121424 -0.235819,-0.370868 -0.123012,-0.553376 z m -1.016589,0.816783 c 0.124377,-0.193784 0.377051,-0.244481 0.561662,-0.121851 0.185635,0.123315 0.233822,0.372943 0.115181,0.556479 -0.09105,0.140849 -0.258255,0.206965 -0.422742,0.170033 -0.04303,-0.0098 -0.085,-0.02662 -0.123706,-0.04983 -0.113124,-0.06784 -0.189492,-0.18512 -0.194164,-0.318975 0,0 0,0 0,0 -0.004,-0.08252 0.0183,-0.16502 0.06377,-0.235857 z m -0.967719,1.044726 c 0.07148,-0.252524 0.327693,-0.372206 0.534793,-0.284031 0.207062,0.08816 0.29156,0.334927 0.233684,0.516313 -0.05688,0.178256 -0.2507,0.28269 -0.462992,0.247953 -0.212374,-0.03475 -0.377856,-0.224563 -0.305485,-0.480235 z m 4.65428,13.552542 c 0.12584,0.148735 0.111271,0.384967 -0.04661,0.542075 -0.15441,0.153648 -0.411754,0.170068 -0.575913,-0.0208 -0.165625,-0.192579 -0.127959,-0.477237 0.05926,-0.603882 0.183172,-0.123907 0.439485,-0.06369 0.563269,0.08261 z m -0.129442,-1.070358 c 0.02802,0.158708 -0.07666,0.341101 -0.281196,0.41747 -0.201146,0.0751 -0.443989,-0.0055 -0.498903,-0.271276 -0.03004,-0.145395 0.01351,-0.304178 0.113622,-0.406496 0,0 0,-10e-7 0,-10e-7 0.0714,-0.07106 0.15908,-0.104458 0.246474,-0.103255 0.174904,0.0024 0.321383,0.13918 0.389283,0.268749 0,0 0,0 0,0 0.01485,0.03144 0.02514,0.06323 0.03072,0.09481 z m 0.547066,-0.826166 c -0.0873,0.140542 -0.286528,0.195884 -0.491231,0.115394 -0.199362,-0.07839 -0.33486,-0.301232 -0.187085,-0.544186 0.138026,-0.22692 0.423421,-0.279213 0.592635,-0.147427 0.0082,0.0064 0.01611,0.01323 0.02366,0.02034 0.07003,0.06596 0.108305,0.156796 0.120071,0.250238 0.01463,0.113813 -0.0089,0.226587 -0.05805,0.305641 z M 47.11118,35.2439 c -0.16535,0.0641 -0.366337,-0.01568 -0.475911,-0.206828 -0.107937,-0.188297 -0.06713,-0.443178 0.186132,-0.544662 0.252502,-0.101175 0.513574,0.03935 0.562222,0.25833 0.04793,0.215778 -0.107265,0.429127 -0.272443,0.49316 z m 1.023313,0.291414 c -0.165381,-0.03348 -0.292736,-0.202332 -0.28208,-0.422776 0.01044,-0.215895 0.181979,-0.408459 0.44752,-0.354398 0.266576,0.05427 0.409074,0.317811 0.326489,0.523301 -0.08089,0.201252 -0.329085,0.286834 -0.491929,0.253873 z m 0.581952,0.796031 c -0.09576,-0.107356 -0.08775,-0.304033 0.07012,-0.481394 0.14027,-0.157586 0.416231,-0.228065 0.592219,0.02185 0.179904,0.255476 0.04978,0.584905 -0.156723,0.644573 -0.177669,0.05133 -0.42503,-0.09468 -0.505613,-0.185024 z m -0.217301,0.58696 c 0.06868,-0.102287 0.119882,-0.14946 0.311102,-0.03754 0.168322,0.09852 0.296073,0.329737 -0.01604,0.548582 -0.137346,0.0963 -0.315345,0.143419 -0.451401,0.132118 -5.81e-4,1.89e-4 -5.81e-4,1.89e-4 -5.81e-4,1.89e-4 l 0,-10e-7 c -0.03897,-0.0085 -0.07522,-0.05279 -0.09976,-0.08034 -0.08344,-0.0935 -0.09999,-0.17452 -0.07647,-0.24344 0,0 0,0 0,0 0.0023,-0.0048 0.0048,-0.0096 0.0073,-0.0143 0.04254,-0.07964 0.110184,-0.143218 0.193157,-0.179367 0,0 0,0 0,0 0.06111,-0.03246 0.102718,-0.04575 0.107116,-0.05968 0,0 0,0 0,0 0.0011,-0.0047 1.46e-4,0.0031 -0.0037,-0.02393 l 0,0 c 0,0 0,0 0,0 0.01123,-0.01546 0.0204,-0.02909 0.02925,-0.04228 z m -1.113448,-0.673164 c 0.392965,-0.08789 0.598296,0.209104 0.543559,0.42604 -0.05417,0.214677 -0.315192,0.340694 -0.438321,0.347183 -0.09521,0.005 -0.129249,-0.0812 -0.238975,-0.191345 -0.01429,-0.01645 -0.02895,-0.03226 -0.04385,-0.04856 -0.06924,-0.07572 -0.142297,-0.162016 -0.120667,-0.285494 0,0 0,0 0,0 0.0223,-0.1103 0.133763,-0.211037 0.298258,-0.247828 z m -0.907934,1.447063 c -0.08514,-0.192161 -0.03243,-0.422815 0.109787,-0.535058 0.04512,-0.03639 0.100845,-0.05815 0.159323,-0.06434 0.142933,-0.01514 0.29661,0.06746 0.371904,0.163825 0,0 0,0 0,0 0,0 0,0 0,0 0.04336,0.04372 0.07679,0.08942 0.09646,0.133542 0.05457,0.122419 -0.0014,0.298133 -0.175655,0.435633 -0.163211,0.128773 -0.434987,0.152655 -0.56182,-0.1336 z m 0.957776,1.221681 c -0.261034,-0.05897 -0.39748,-0.320559 -0.301772,-0.515387 0.09413,-0.191615 0.345438,-0.249474 0.483652,-0.213026 0.141061,0.0372 0.25251,0.193768 0.243495,0.399111 -0.0089,0.201718 -0.165778,0.387947 -0.425375,0.329302 z m 1.435856,0.235253 c -0.24275,0.104594 -0.502242,-0.02736 -0.557552,-0.23468 -0.05411,-0.20285 0.08481,-0.416223 0.241845,-0.48977 0.159016,-0.07447 0.364581,-0.01198 0.481257,0.17826 0.114302,0.18637 0.0764,0.441938 -0.16555,0.54619 z m 1.376483,-0.579236 c -0.160439,0.218365 -0.454919,0.238236 -0.614978,0.07818 -0.158148,-0.158148 -0.142643,-0.422798 -0.03212,-0.568163 0.110238,-0.144989 0.327283,-0.18149 0.520675,-0.07474 0.191057,0.105462 0.287581,0.345378 0.126425,0.564723 z m 0.888104,-1.193443 c -0.03005,0.258614 -0.266999,0.42238 -0.483559,0.367887 -0.214164,-0.05389 -0.335344,-0.28463 -0.313019,-0.466996 0.02244,-0.183277 0.192985,-0.32848 0.413983,-0.327483 0.218542,9.9e-4 0.4126,0.168307 0.382595,0.426592 z m 0.247222,-1.438971 c 0.08552,0.245589 -0.05576,0.493911 -0.273916,0.539107 -0.216428,0.04483 -0.425116,-0.109497 -0.483427,-0.284197 -0.05826,-0.174548 0.03335,-0.376349 0.23035,-0.471075 0.195425,-0.09396 0.441283,-0.02997 0.526993,0.216165 z m -0.435657,-1.401093 c 0.05673,0.05048 0.100811,0.116187 0.126101,0.189169 0,0 0,0 0,0 0,0 0,0 0,0 0.05162,0.165207 0.0019,0.325026 -0.111641,0.417249 -0.170364,0.138399 -0.426123,0.09567 -0.559309,-0.02432 -0.01052,-0.0095 -0.02038,-0.01946 -0.02955,-0.02992 -0.102568,-0.129708 -0.102629,-0.334731 0.01288,-0.492762 0.12613,-0.172552 0.369215,-0.230538 0.561516,-0.05942 z m -0.978261,-1.027041 c 0.232811,0.08192 0.340451,0.336353 0.248916,0.533433 -0.09084,0.195579 -0.331883,0.271461 -0.509213,0.21123 -0.178598,-0.06066 -0.288458,-0.259357 -0.234851,-0.473094 0.05322,-0.212162 0.263316,-0.353144 0.495148,-0.271569 z m -1.25686,-0.644745 c 0.246188,0.01006 0.426501,0.221164 0.402265,0.444355 -0.02406,0.221497 -0.231188,0.378392 -0.435098,0.37173 -0.204919,-0.0067 -0.375412,-0.179266 -0.380385,-0.406128 -0.0049,-0.225184 0.16783,-0.419981 0.413218,-0.409957 z m -1.368471,-0.30746 c 0.235075,-0.04423 0.45468,0.113579 0.481848,0.339712 0.02699,0.224643 -0.139922,0.425732 -0.345416,0.458464 -0.106133,0.0169 -0.212703,-0.01186 -0.29851,-0.07894 0,0 0,0 0,0 -0.08548,-0.05923 -0.142218,-0.148127 -0.16037,-0.248042 -0.03442,-0.189512 0.07438,-0.375406 0.242408,-0.447636 0,0 0,0 0,0 0.02566,-0.01046 0.05248,-0.01837 0.08004,-0.02355 z m -1.243328,-0.239155 c 0.213148,-0.01395 0.402347,0.147829 0.426653,0.371104 0.02425,0.222758 -0.13203,0.428125 -0.37038,0.445852 -0.238407,0.01773 -0.439636,-0.162662 -0.446174,-0.390025 -0.0065,-0.22686 0.176864,-0.412988 0.389901,-0.426931 z m -1.198298,-0.41862 c 0.21196,0.01773 0.375598,0.204398 0.365681,0.430793 -0.0099,0.225802 -0.197012,0.406038 -0.436058,0.385423 -0.239209,-0.02063 -0.408917,-0.232316 -0.379757,-0.456247 0.02909,-0.223358 0.238399,-0.377678 0.450134,-0.359969 z m -1.098165,-0.591882 c 0.200206,0.05155 0.328217,0.256993 0.28158,0.475869 -0.04651,0.218247 -0.257684,0.363355 -0.487124,0.301865 -0.229692,-0.06156 -0.357321,-0.297564 -0.290212,-0.507857 0.06692,-0.20969 0.295876,-0.321335 0.495756,-0.269877 z m -0.93554,-0.759368 c 0.178042,0.0873 0.26005,0.305811 0.174352,0.506334 -0.08545,0.199932 -0.314188,0.300234 -0.523579,0.19518 -0.209686,-0.105205 -0.285017,-0.358258 -0.177539,-0.544857 0.107165,-0.186049 0.349102,-0.243769 0.526766,-0.156657 z m -0.71042,-0.921077 c 0.145826,0.124868 0.170734,0.350978 0.04399,0.522189 -0.126428,0.170785 -0.366816,0.216746 -0.545422,0.06537 -0.17885,-0.151589 -0.192349,-0.414375 -0.04174,-0.567247 0.150252,-0.152503 0.397649,-0.144908 0.543167,-0.02031 z m 6.179842,12.134006 c -0.235917,0.07613 -0.477258,-0.05925 -0.522689,-0.277972 -0.04526,-0.217914 0.107339,-0.425709 0.288784,-0.479571 0.181929,-0.054 0.386315,0.04715 0.468898,0.246724 0.08227,0.198822 5.82e-4,0.434802 -0.234993,0.510819 z m 1.36879,-0.261179 c -0.195264,0.144212 -0.461649,0.09283 -0.57534,-0.09289 -0.113144,-0.184833 -0.04415,-0.427238 0.10992,-0.540794 0.154478,-0.113852 0.381426,-0.08767 0.523906,0.07643 0.141803,0.163325 0.136501,0.413245 -0.05849,0.557256 z M 50.9307,40.841328 c -0.145706,0.194928 -0.416429,0.223051 -0.58188,0.07843 -0.164707,-0.14398 -0.172742,-0.398024 -0.05519,-0.555906 0.117727,-0.158113 0.347325,-0.198849 0.532805,-0.0801 0.184662,0.118226 0.249877,0.362777 0.104266,0.557584 z m 0.999016,-0.979779 c -0.08743,0.228888 -0.341417,0.330816 -0.54231,0.235995 -0.200167,-0.09448 -0.278219,-0.338941 -0.20655,-0.524908 0.07168,-0.185986 0.284007,-0.287204 0.495596,-0.222888 0.210836,0.06409 0.340719,0.282832 0.253264,0.511801 z m 0.696829,-1.202419 c -0.0241,0.201779 -0.189658,0.355706 -0.384295,0.36197 -0.02517,0.001 -0.05025,-5.71e-4 -0.07492,-0.0046 -0.109486,-0.01794 -0.204632,-0.08319 -0.267283,-0.172694 0,0 0,0 0,0 -0.05769,-0.08389 -0.08252,-0.184659 -0.07055,-0.28177 0.02555,-0.207183 0.21486,-0.360513 0.435405,-0.342777 0.220301,0.01772 0.389463,0.206969 0.361643,0.439885 z m 0.460296,-1.277792 c 0.0069,0.233751 -0.178221,0.422965 -0.400415,0.420705 -0.221921,-0.0023 -0.396984,-0.188255 -0.402874,-0.39808 -0.0059,-0.209952 0.159187,-0.390539 0.380501,-0.405109 0.221056,-0.01455 0.415936,0.148852 0.422788,0.382484 z m 0.274985,-1.328681 c 0.03875,0.230319 -0.118348,0.443165 -0.339216,0.472058 -0.220602,0.02885 -0.42064,-0.130866 -0.455417,-0.339378 -0.03479,-0.208614 0.10515,-0.410944 0.322987,-0.455154 0.217589,-0.04415 0.432905,0.09225 0.471646,0.322474 z m 0.09714,-1.351738 c 0.0679,0.222795 -0.0599,0.45373 -0.275409,0.511124 -0.215265,0.05732 -0.434583,-0.07501 -0.495671,-0.278065 -0.0611,-0.203127 0.0527,-0.42177 0.262864,-0.492912 0.209932,-0.07106 0.440331,0.03712 0.508216,0.259853 z m 0.01749,-1.228438 c 0.03258,0.18191 -0.08243,0.366542 -0.293368,0.429145 -0.208864,0.06198 -0.440941,-0.04218 -0.482801,-0.300142 -0.04183,-0.25778 0.138989,-0.480771 0.353969,-0.489285 0.212828,-0.0084 0.389687,0.178735 0.4222,0.360282 z m 0.426445,-1.014147 c -0.05145,0.174477 -0.228877,0.286743 -0.435953,0.247197 -0.204457,-0.03905 -0.358436,-0.23681 -0.281117,-0.488415 0.07751,-0.252215 0.332319,-0.372201 0.519238,-0.278075 0.184514,0.09292 0.248887,0.346154 0.197832,0.519293 z m 0.88052,-0.645718 c -0.07905,0.06246 -0.181265,0.08772 -0.288261,0.07159 0,0 0,0 0,0 -0.08599,-0.005 -0.177305,-0.04202 -0.249807,-0.107862 -0.135534,-0.123087 -0.184572,-0.336796 -0.04798,-0.529925 0,0 0,0 0,0 0.01571,-0.01677 0.03315,-0.03226 0.05211,-0.04629 0.184316,-0.136403 0.453177,-0.10612 0.589882,0.06524 0.136629,0.171275 0.102122,0.422347 -0.05595,0.547248 z"
       style="clip-rule:evenodd;fill:#ffffff;fill-rule:evenodd;stroke:#000000;stroke-width:0.06469562;stroke-miterlimit:4;stroke-dasharray:none;stroke-opacity:1"
       id="path99231"
       inkscape:path-effect="#path-effect99270"
       inkscape:original-d="m 47.785868,19.036854 c 0.185554,1.156582 0.816396,1.807534 2.143863,2.552308 3.188188,1.789324 2.178409,5.007315 0.152671,5.774794 -1.447563,0.54948 -2.896673,-0.163295 -3.001701,-1.517199 -0.06128,-0.802746 0.594347,-1.242649 0.866067,-1.21551 0.807206,0.07939 0.385796,0.747387 0.385796,0.747387 0,0 1.690362,0.204721 1.68193,-1.327806 -0.01102,-2.16404 -4.063758,-2.69362 -5.525002,-0.05749 -1.245019,1.982309 -0.127166,3.913541 0.461073,4.919771 0.870638,1.492315 3.825658,2.427248 5.613825,2.001598 1.788167,-0.42565 5.429261,-1.798774 5.203866,-6.095157 -0.0096,-2.191729 -2.035248,-4.73136 -4.341874,-6.112933 -3.312217,-2.059746 -2.237376,-3.660456 -2.237376,-3.660456 m -1.036707,-3.411036 c 0,0 -2.596592,1.949423 -2.803936,4.808841 -0.07434,1.025189 -0.0027,2.857563 -0.204488,3.317914 -0.201792,0.460351 -0.686068,1.391485 -1.260775,1.991138 -1.149415,1.199307 -2.662411,1.776243 -2.842413,3.17697 m 4.501151,13.12965 c -1.548721,-2.960865 1.937968,-4.106492 3.246097,-2.430809 0.943142,1.207558 -0.381879,1.63229 -0.381879,1.63229 -0.06391,0.03202 -0.665371,-0.883215 -1.236358,-0.601126 -0.245298,0.120435 -0.568545,0.84136 -0.09075,1.489773 0.805904,1.092641 2.412156,0.930366 3.350026,-0.302925 1.311459,-1.723697 0.542364,-4.476262 -3.206079,-4.9183 -4.491174,-0.529624 -5.628727,-3.178998 -5.890368,-4.441606 m 6.478174,12.87057 c 4.22193,0.532688 5.388479,-4.571353 5.252328,-7.284485 -0.136152,-2.713131 2.693001,-2.995138 2.693001,-2.995138" />
    <circle
       inkscape:transform-center-y="-1.4174692"
       inkscape:transform-center-x="-1.896524"
       transform="rotate(0.045272)"
       cy="52.549213"
       cx="137.87697"
       id="circle99235"
       style="opacity:1;fill:none;fill-opacity:0.31563422;stroke:#000000;stroke-width:0.03912741;stroke-linecap:butt;stroke-linejoin:miter;stroke-miterlimit:4;stroke-dasharray:none;stroke-dashoffset:0;stroke-opacity:1"
       r="4.3555751" />
    <use
       x="0"
       y="0"
       xlink:href="#path99231"
       inkscape:transform-center-x="0.65496028"
       inkscape:transform-center-y="-16.343235"
       id="use99284"
       width="100%"
       height="100%" />
    <use
       x="0"
       y="0"
       xlink:href="#use99284"
       inkscape:transform-center-x="-15.206652"
       inkscape:transform-center-y="-5.8444076"
       id="use99288"
       transform="rotate(72,137.82493,52.647654)"
       width="100%"
       height="100%" />
    <use
       x="0"
       y="0"
       xlink:href="#use99284"
       inkscape:transform-center-x="-9.8944004"
       inkscape:transform-center-y="12.580935"
       id="use99290"
       transform="rotate(144,137.82493,52.647653)"
       width="100%"
       height="100%" />
    <use
       x="0"
       y="0"
       xlink:href="#use99284"
       inkscape:transform-center-x="8.6770545"
       inkscape:transform-center-y="13.55808"
       id="use99292"
       transform="rotate(-144,137.82493,52.647651)"
       width="100%"
       height="100%" />
    <use
       x="0"
       y="0"
       xlink:href="#use99284"
       inkscape:transform-center-x="15.802608"
       inkscape:transform-center-y="-4.5120244"
       id="use99294"
       transform="rotate(-72,137.82493,52.647647)"
       width="100%"
       height="100%" />
  </g>
</svg>
