  0
SECTION
  2
HEADER
  9
$ACADVER
  1
AC1009
  9
$INSBASE
 10
0.0
 20
0.0
 30
0.0
  9
$EXTMIN
 10
0.0
 20
0.0
 30
0.0
  9
$EXTMAX
 10
0.0
 20
0.0
 30
0.0
  0
ENDSEC
  0
SECTION
  2
TABLES
  0
TABLE
  2
VPORT
 70
0
  0
ENDTAB
  0
TABLE
  2
LTYPE
 70
1
  0
LTYPE
  2
CONTINUOUS
 70
0
  3
Solid line
 72
65
 73
0
 40
0.0
  0
ENDTAB
  0
TABLE
  2
LAYER
 70
1
  0
LAYER
  2
0
 70
64
 62
7
  6
continuous
  0
ENDTAB
  0
TABLE
  2
STYLE
 70
1
  0
STYLE
  2
STANDARD
 70
0
 40
0
 41
1.0
 50
0.0
 71
0
 42
1
 3
ARIAL.TTF
 4

  0
ENDTAB
  0
TABLE
  2
VIEW
 70
0
  0
ENDTAB
  0
ENDSEC
  0
SECTION
  2
BLOCKS
  0
BLOCK
  8
0
  2
FUSION001
 70
0
 10
0.0
 20
0.0
 30
0.0
  3
FUSION001
  0
POLYLINE
  8
0
 62
0
 70
1
 66
1
 10
0.0
 20
0.0
 30
0.0
  0
VERTEX
  8
0
 10
-15.0
 20
91.0
 30
5.0
 42
0.100444733135
  0
VERTEX
  8
0
 10
-9.8774483269
 20
94.0591558153
 30
5.0
 42
0.791051256311
  0
VERTEX
  8
0
 10
-5.9
 20
95.0
 30
5.0
 42
0.328855738292
  0
VERTEX
  8
0
 10
-7.37953787919
 20
97.0062469331
 30
5.0
 42
0.158972104237
  0
VERTEX
  8
0
 10
-5.00000000007
 20
106.0
 30
5.0
  0
VERTEX
  8
0
 10
75.0
 20
106.0
 30
5.0
  0
VERTEX
  8
0
 10
75.0
 20
-4.0
 30
5.0
  0
VERTEX
  8
0
 10
-5.00000000007
 20
-3.99999999999
 30
5.0
 42
0.129717116632
  0
VERTEX
  8
0
 10
-6.53069791979
 20
3.49961625006
 30
5.0
 42
0.201633797497
  0
VERTEX
  8
0
 10
-5.9
 20
5.0
 30
5.0
 42
0.543389474727
  0
VERTEX
  8
0
 10
-8.85671653185
 20
6.91729934649
 30
5.0
 42
0.124853097117
  0
VERTEX
  8
0
 10
-15.0
 20
11.0
 30
5.0
  0
SEQEND
  8
0
  0
CIRCLE
  8
0
 62
0
 10
25.33
 20
35.0
 30
5.0
 40
2.1
  0
CIRCLE
  8
0
 62
0
 10
25.33
 20
65.0
 30
5.0
 40
2.1
  0
CIRCLE
  8
0
 62
0
 10
58.66
 20
35.0
 30
5.0
 40
2.1
  0
CIRCLE
  8
0
 62
0
 10
58.66
 20
65.0
 30
5.0
 40
2.1
  0
CIRCLE
  8
0
 62
0
 10
58.66
 20
95.0
 30
5.0
 40
2.1
  0
CIRCLE
  8
0
 62
0
 10
25.33
 20
95.0
 30
5.0
 40
2.1
  0
CIRCLE
  8
0
 62
0
 10
58.66
 20
5.0
 30
5.0
 40
2.1
  0
CIRCLE
  8
0
 62
0
 10
25.33
 20
5.0
 30
5.0
 40
2.1
  0
CIRCLE
  8
0
 62
0
 10
-8.0
 20
65.0
 30
5.0
 40
2.1
  0
CIRCLE
  8
0
 62
0
 10
-8.0
 20
35.0
 30
5.0
 40
2.1
  0
POLYLINE
  8
0
 62
0
 70
1
 66
1
 10
0.0
 20
0.0
 30
0.0
  0
VERTEX
  8
0
 10
-3.84307806179
 20
5.0
 30
2.5
  0
VERTEX
  8
0
 10
-5.76943230045
 20
1.66345658535
 30
2.5
 42
-0.0961385137348
  0
VERTEX
  8
0
 10
-5.00000000007
 20
-3.99999999999
 30
2.5
  0
VERTEX
  8
0
 10
75.0
 20
-4.0
 30
2.5
  0
VERTEX
  8
0
 10
75.0
 20
106.0
 30
2.5
  0
VERTEX
  8
0
 10
-5.00000000007
 20
106.0
 30
2.5
 42
-0.127837560107
  0
VERTEX
  8
0
 10
-6.48188369878
 20
98.6000000001
 30
2.5
  0
VERTEX
  8
0
 10
-5.92153903089
 20
98.6000000001
 30
2.5
  0
VERTEX
  8
0
 10
-3.84307806179
 20
95.0
 30
2.5
  0
VERTEX
  8
0
 10
-5.92153903089
 20
91.4000000001
 30
2.5
  0
VERTEX
  8
0
 10
-10.0784609691
 20
91.4000000001
 30
2.5
  0
VERTEX
  8
0
 10
-11.0551257967
 20
93.0916331034
 30
2.5
 42
-0.0748348007117
  0
VERTEX
  8
0
 10
-15.0
 20
91.0
 30
2.5
  0
VERTEX
  8
0
 10
-15.0
 20
11.0
 30
2.5
 42
-0.0918038029604
  0
VERTEX
  8
0
 10
-10.2631458496
 20
8.2801164037
 30
2.5
  0
VERTEX
  8
0
 10
-10.0784609691
 20
8.60000000006
 30
2.5
  0
VERTEX
  8
0
 10
-5.92153903089
 20
8.60000000006
 30
2.5
  0
SEQEND
  8
0
  0
POLYLINE
  8
0
 62
0
 70
1
 66
1
 10
0.0
 20
0.0
 30
0.0
  0
VERTEX
  8
0
 10
23.2515390309
 20
61.4000000001
 30
2.5
  0
VERTEX
  8
0
 10
21.1730780618
 20
65.0
 30
2.5
  0
VERTEX
  8
0
 10
23.2515390309
 20
68.6000000001
 30
2.5
  0
VERTEX
  8
0
 10
27.4084609691
 20
68.6000000001
 30
2.5
  0
VERTEX
  8
0
 10
29.4869219382
 20
65.0
 30
2.5
  0
VERTEX
  8
0
 10
27.4084609691
 20
61.4000000001
 30
2.5
  0
SEQEND
  8
0
  0
POLYLINE
  8
0
 62
0
 70
1
 66
1
 10
0.0
 20
0.0
 30
0.0
  0
VERTEX
  8
0
 10
54.5030780618
 20
65.0
 30
2.5
  0
VERTEX
  8
0
 10
56.5815390309
 20
68.6000000001
 30
2.5
  0
VERTEX
  8
0
 10
60.7384609691
 20
68.6000000001
 30
2.5
  0
VERTEX
  8
0
 10
62.8169219382
 20
65.0
 30
2.5
  0
VERTEX
  8
0
 10
60.7384609691
 20
61.4000000001
 30
2.5
  0
VERTEX
  8
0
 10
56.5815390309
 20
61.4000000001
 30
2.5
  0
SEQEND
  8
0
  0
POLYLINE
  8
0
 62
0
 70
1
 66
1
 10
0.0
 20
0.0
 30
0.0
  0
VERTEX
  8
0
 10
60.7384609691
 20
8.60000000006
 30
2.5
  0
VERTEX
  8
0
 10
62.8169219382
 20
5.0
 30
2.5
  0
VERTEX
  8
0
 10
60.7384609691
 20
1.40000000006
 30
2.5
  0
VERTEX
  8
0
 10
56.5815390309
 20
1.40000000006
 30
2.5
  0
VERTEX
  8
0
 10
54.5030780618
 20
5.0
 30
2.5
  0
VERTEX
  8
0
 10
56.5815390309
 20
8.60000000006
 30
2.5
  0
SEQEND
  8
0
  0
POLYLINE
  8
0
 62
0
 70
1
 66
1
 10
0.0
 20
0.0
 30
0.0
  0
VERTEX
  8
0
 10
-12.1569219382
 20
35.0
 30
2.5
  0
VERTEX
  8
0
 10
-10.0784609691
 20
38.6000000001
 30
2.5
  0
VERTEX
  8
0
 10
-5.92153903089
 20
38.6000000001
 30
2.5
  0
VERTEX
  8
0
 10
-3.84307806179
 20
35.0
 30
2.5
  0
VERTEX
  8
0
 10
-5.92153903089
 20
31.4000000001
 30
2.5
  0
VERTEX
  8
0
 10
-10.0784609691
 20
31.4000000001
 30
2.5
  0
SEQEND
  8
0
  0
POLYLINE
  8
0
 62
0
 70
1
 66
1
 10
0.0
 20
0.0
 30
0.0
  0
VERTEX
  8
0
 10
23.2515390309
 20
31.4000000001
 30
2.5
  0
VERTEX
  8
0
 10
21.1730780618
 20
35.0
 30
2.5
  0
VERTEX
  8
0
 10
23.2515390309
 20
38.6000000001
 30
2.5
  0
VERTEX
  8
0
 10
27.4084609691
 20
38.6000000001
 30
2.5
  0
VERTEX
  8
0
 10
29.4869219382
 20
35.0
 30
2.5
  0
VERTEX
  8
0
 10
27.4084609691
 20
31.4000000001
 30
2.5
  0
SEQEND
  8
0
  0
POLYLINE
  8
0
 62
0
 70
1
 66
1
 10
0.0
 20
0.0
 30
0.0
  0
VERTEX
  8
0
 10
-12.1569219382
 20
65.0
 30
2.5
  0
VERTEX
  8
0
 10
-10.0784609691
 20
68.6000000001
 30
2.5
  0
VERTEX
  8
0
 10
-5.92153903089
 20
68.6000000001
 30
2.5
  0
VERTEX
  8
0
 10
-3.84307806179
 20
65.0
 30
2.5
  0
VERTEX
  8
0
 10
-5.92153903089
 20
61.4000000001
 30
2.5
  0
VERTEX
  8
0
 10
-10.0784609691
 20
61.4000000001
 30
2.5
  0
SEQEND
  8
0
  0
POLYLINE
  8
0
 62
0
 70
1
 66
1
 10
0.0
 20
0.0
 30
0.0
  0
VERTEX
  8
0
 10
27.4084609691
 20
91.4000000001
 30
2.5
  0
VERTEX
  8
0
 10
23.2515390309
 20
91.4000000001
 30
2.5
  0
VERTEX
  8
0
 10
21.1730780618
 20
95.0
 30
2.5
  0
VERTEX
  8
0
 10
23.2515390309
 20
98.6000000001
 30
2.5
  0
VERTEX
  8
0
 10
27.4084609691
 20
98.6000000001
 30
2.5
  0
VERTEX
  8
0
 10
29.4869219382
 20
95.0
 30
2.5
  0
SEQEND
  8
0
  0
POLYLINE
  8
0
 62
0
 70
1
 66
1
 10
0.0
 20
0.0
 30
0.0
  0
VERTEX
  8
0
 10
56.5815390309
 20
31.4000000001
 30
2.5
  0
VERTEX
  8
0
 10
54.5030780618
 20
35.0
 30
2.5
  0
VERTEX
  8
0
 10
56.5815390309
 20
38.6000000001
 30
2.5
  0
VERTEX
  8
0
 10
60.7384609691
 20
38.6000000001
 30
2.5
  0
VERTEX
  8
0
 10
62.8169219382
 20
35.0
 30
2.5
  0
VERTEX
  8
0
 10
60.7384609691
 20
31.4000000001
 30
2.5
  0
SEQEND
  8
0
  0
POLYLINE
  8
0
 62
0
 70
1
 66
1
 10
0.0
 20
0.0
 30
0.0
  0
VERTEX
  8
0
 10
62.8169219382
 20
95.0
 30
2.5
  0
VERTEX
  8
0
 10
60.7384609691
 20
91.4000000001
 30
2.5
  0
VERTEX
  8
0
 10
56.5815390309
 20
91.4000000001
 30
2.5
  0
VERTEX
  8
0
 10
54.5030780618
 20
95.0
 30
2.5
  0
VERTEX
  8
0
 10
56.5815390309
 20
98.6000000001
 30
2.5
  0
VERTEX
  8
0
 10
60.7384609691
 20
98.6000000001
 30
2.5
  0
SEQEND
  8
0
  0
POLYLINE
  8
0
 62
0
 70
1
 66
1
 10
0.0
 20
0.0
 30
0.0
  0
VERTEX
  8
0
 10
27.4084609691
 20
1.40000000006
 30
2.5
  0
VERTEX
  8
0
 10
23.2515390309
 20
1.40000000006
 30
2.5
  0
VERTEX
  8
0
 10
21.1730780618
 20
5.0
 30
2.5
  0
VERTEX
  8
0
 10
23.2515390309
 20
8.60000000006
 30
2.5
  0
VERTEX
  8
0
 10
27.4084609691
 20
8.60000000006
 30
2.5
  0
VERTEX
  8
0
 10
29.4869219382
 20
5.0
 30
2.5
  0
SEQEND
  8
0
  0
ENDBLK
  0
ENDSEC
  0
SECTION
  2
ENTITIES
  0
INSERT
  2
FUSION001
  8
0
 10
0.0
 20
0.0
 30
0.0
  0
ENDSEC
  0
EOF
