  0
SECTION
  2
HEADER
  9
$ACADVER
  1
AC1009
  9
$INSBASE
 10
0.0
 20
0.0
 30
0.0
  9
$EXTMIN
 10
0.0
 20
0.0
 30
0.0
  9
$EXTMAX
 10
0.0
 20
0.0
 30
0.0
  0
ENDSEC
  0
SECTION
  2
TABLES
  0
TABLE
  2
VPORT
 70
0
  0
ENDTAB
  0
TABLE
  2
LTYPE
 70
1
  0
LTYPE
  2
CONTINUOUS
 70
0
  3
Solid line
 72
65
 73
0
 40
0.0
  0
ENDTAB
  0
TABLE
  2
LAYER
 70
1
  0
LAYER
  2
0
 70
64
 62
7
  6
continuous
  0
ENDTAB
  0
TABLE
  2
STYLE
 70
1
  0
STYLE
  2
STANDARD
 70
0
 40
0
 41
1.0
 50
0.0
 71
0
 42
1
 3
ARIAL.TTF
 4

  0
ENDTAB
  0
TABLE
  2
VIEW
 70
0
  0
ENDTAB
  0
ENDSEC
  0
SECTION
  2
BLOCKS
  0
BLOCK
  8
0
  2
SHAPE2DVIEW
 70
0
 10
0.0
 20
0.0
 30
0.0
  3
SHAPE2DVIEW
  0
LINE
  8
0
 62
0
 10
3.33066907388e-16
 20
-6.0
 30
0.0
 11
-8.5
 21
-6.0
 31
0.0
  0
ARC
  8
0
 62
0
 10
-8.5
 20
-4.5
 30
0.0
 40
1.5
 50
-180.0
 51
-90.0
  0
LINE
  8
0
 62
0
 10
3.33066907388e-16
 20
-8.5
 30
0.0
 11
3.33066907388e-16
 21
-6.0
 31
0.0
  0
LINE
  8
0
 62
0
 10
-10.0
 20
-4.5
 30
0.0
 11
-10.0
 21
4.5
 31
0.0
  0
ARC
  8
0
 62
0
 10
1.5
 20
-8.5
 30
0.0
 40
1.5
 50
-180.0
 51
-90.0
  0
ARC
  8
0
 62
0
 10
-8.5
 20
4.5
 30
0.0
 40
1.5
 50
90.0
 51
-180.0
  0
LINE
  8
0
 62
0
 10
2.5
 20
-10.0
 30
0.0
 11
1.5
 21
-10.0
 31
0.0
  0
LINE
  8
0
 62
0
 10
-8.5
 20
6.0
 30
0.0
 11
1.7763568394e-15
 21
6.0
 31
0.0
  0
ARC
  8
0
 62
0
 10
2.5
 20
-8.5
 30
0.0
 40
1.5
 50
-90.0
 51
0.0
  0
LINE
  8
0
 62
0
 10
3.33066907388e-16
 20
6.0
 30
0.0
 11
3.33066907388e-16
 21
8.5
 31
0.0
  0
LINE
  8
0
 62
0
 10
4.0
 20
8.5
 30
0.0
 11
4.0
 21
-8.5
 31
0.0
  0
ARC
  8
0
 62
0
 10
1.5
 20
8.5
 30
0.0
 40
1.5
 50
90.0
 51
-180.0
  0
ARC
  8
0
 62
0
 10
2.5
 20
8.5
 30
0.0
 40
1.5
 50
-0.0
 51
90.0
  0
LINE
  8
0
 62
0
 10
1.5
 20
10.0
 30
0.0
 11
2.5
 21
10.0
 31
0.0
  0
ENDBLK
  0
BLOCK
  8
0
  2
SHAPESTRING
 70
0
 10
0.0
 20
0.0
 30
0.0
  3
SHAPESTRING
  0
POLYLINE
  8
0
 62
0
 70
1
 66
1
 10
0.0
 20
0.0
 30
0.0
  0
VERTEX
  8
0
 10
-2.64627489628
 20
4.45080907953
 30
0.0
  0
VERTEX
  8
0
 10
-2.64627489628
 20
4.00533928087
 30
0.0
  0
VERTEX
  8
0
 10
-3.46087221171
 20
3.78050706611
 30
0.0
  0
VERTEX
  8
0
 10
-2.64627489628
 20
3.55651377752
 30
0.0
  0
VERTEX
  8
0
 10
-2.64627489628
 20
3.10852720033
 30
0.0
  0
VERTEX
  8
0
 10
-4.52546952715
 20
3.10852720033
 30
0.0
  0
VERTEX
  8
0
 10
-4.52546952715
 20
3.43067485134
 30
0.0
  0
VERTEX
  8
0
 10
-3.01540241306
 20
3.43067485134
 30
0.0
  0
VERTEX
  8
0
 10
-3.82748294997
 20
3.63033928087
 30
0.0
  0
VERTEX
  8
0
 10
-3.82748294997
 20
3.92648022047
 30
0.0
  0
VERTEX
  8
0
 10
-3.01540241306
 20
4.12866142852
 30
0.0
  0
VERTEX
  8
0
 10
-4.52546952715
 20
4.12866142852
 30
0.0
  0
VERTEX
  8
0
 10
-4.52546952715
 20
4.45080907953
 30
0.0
  0
SEQEND
  8
0
  0
POLYLINE
  8
0
 62
0
 70
1
 66
1
 10
0.0
 20
0.0
 30
0.0
  0
VERTEX
  8
0
 10
-2.64627489628
 20
2.8400708245
 30
0.0
  0
VERTEX
  8
0
 10
-2.64627489628
 20
2.43319162986
 30
0.0
  0
VERTEX
  8
0
 10
-2.866073554
 20
1.71674867684
 30
0.0
  0
VERTEX
  8
0
 10
-3.58419435936
 20
1.4977889453
 30
0.0
  0
VERTEX
  8
0
 10
-4.30483194326
 20
1.71674867684
 30
0.0
  0
VERTEX
  8
0
 10
-4.52546952715
 20
2.43319162986
 30
0.0
  0
VERTEX
  8
0
 10
-4.52546952715
 20
2.8400708245
 30
0.0
  0
SEQEND
  8
0
  0
POLYLINE
  8
0
 62
0
 70
1
 66
1
 10
0.0
 20
0.0
 30
0.0
  0
VERTEX
  8
0
 10
-2.96842254728
 20
2.46423189832
 30
0.0
  0
VERTEX
  8
0
 10
-4.20332187614
 20
2.46423189832
 30
0.0
  0
VERTEX
  8
0
 10
-4.20332187614
 20
2.34678223389
 30
0.0
  0
VERTEX
  8
0
 10
-4.063221205
 20
1.98268827416
 30
0.0
  0
VERTEX
  8
0
 10
-3.58419435936
 20
1.87362787147
 30
0.0
  0
VERTEX
  8
0
 10
-3.10852321843
 20
1.98268827416
 30
0.0
  0
VERTEX
  8
0
 10
-2.96842254728
 20
2.34678223389
 30
0.0
  0
SEQEND
  8
0
  0
POLYLINE
  8
0
 62
0
 70
1
 66
1
 10
0.0
 20
0.0
 30
0.0
  0
VERTEX
  8
0
 10
-4.52546952715
 20
-0.112949309733
 30
0.0
  0
VERTEX
  8
0
 10
-4.52546952715
 20
0.268762099663
 30
0.0
  0
VERTEX
  8
0
 10
-3.90382523185
 20
0.63956746879
 30
0.0
  0
VERTEX
  8
0
 10
-4.52546952715
 20
1.00869498557
 30
0.0
  0
VERTEX
  8
0
 10
-4.52546952715
 20
1.39040639496
 30
0.0
  0
VERTEX
  8
0
 10
-3.57161046675
 20
0.835876193623
 30
0.0
  0
VERTEX
  8
0
 10
-2.64627489628
 20
1.39040639496
 30
0.0
  0
VERTEX
  8
0
 10
-2.64627489628
 20
0.993594314428
 30
0.0
  0
VERTEX
  8
0
 10
-3.24442925869
 20
0.63956746879
 30
0.0
  0
VERTEX
  8
0
 10
-2.64627489628
 20
0.283862770804
 30
0.0
  0
VERTEX
  8
0
 10
-2.64627489628
 20
-0.112949309733
 30
0.0
  0
VERTEX
  8
0
 10
-3.57161046675
 20
0.439064113086
 30
0.0
  0
SEQEND
  8
0
  0
POLYLINE
  8
0
 62
0
 70
1
 66
1
 10
0.0
 20
0.0
 30
0.0
  0
VERTEX
  8
0
 10
-3.6127178493
 20
-0.488788235908
 30
0.0
  0
VERTEX
  8
0
 10
-3.6127178493
 20
-1.29415736342
 30
0.0
  0
VERTEX
  8
0
 10
-3.98855677547
 20
-1.29415736342
 30
0.0
  0
VERTEX
  8
0
 10
-3.98855677547
 20
-0.488788235908
 30
0.0
  0
SEQEND
  8
0
  0
POLYLINE
  8
0
 62
0
 70
1
 66
1
 10
0.0
 20
0.0
 30
0.0
  0
VERTEX
  8
0
 10
-4.20332187614
 20
-1.88476139027
 30
0.0
  0
VERTEX
  8
0
 10
-4.20332187614
 20
-2.31429159161
 30
0.0
  0
VERTEX
  8
0
 10
-2.96842254728
 20
-2.31429159161
 30
0.0
  0
VERTEX
  8
0
 10
-3.07580509762
 20
-1.93845266544
 30
0.0
  0
VERTEX
  8
0
 10
-2.75365744661
 20
-1.93845266544
 30
0.0
  0
VERTEX
  8
0
 10
-2.64627489628
 20
-2.32939226275
 30
0.0
  0
VERTEX
  8
0
 10
-2.64627489628
 20
-2.69013051779
 30
0.0
  0
VERTEX
  8
0
 10
-4.20332187614
 20
-2.69013051779
 30
0.0
  0
VERTEX
  8
0
 10
-4.20332187614
 20
-3.11966071913
 30
0.0
  0
VERTEX
  8
0
 10
-4.52546952715
 20
-3.11966071913
 30
0.0
  0
VERTEX
  8
0
 10
-4.52546952715
 20
-1.88476139027
 30
0.0
  0
SEQEND
  8
0
  0
POLYLINE
  8
0
 62
0
 70
1
 66
1
 10
0.0
 20
0.0
 30
0.0
  0
VERTEX
  8
0
 10
-2.64627489628
 20
-3.44180837014
 30
0.0
  0
VERTEX
  8
0
 10
-2.64627489628
 20
-4.46194259832
 30
0.0
  0
VERTEX
  8
0
 10
-2.96842254728
 20
-4.46194259832
 30
0.0
  0
VERTEX
  8
0
 10
-2.96842254728
 20
-3.76395602114
 30
0.0
  0
VERTEX
  8
0
 10
-3.32580509762
 20
-3.76395602114
 30
0.0
  0
VERTEX
  8
0
 10
-3.29895946004
 20
-3.85707682651
 30
0.0
  0
VERTEX
  8
0
 10
-3.29057019829
 20
-3.96362045067
 30
0.0
  0
VERTEX
  8
0
 10
-3.46926147346
 20
-4.40153991376
 30
0.0
  0
VERTEX
  8
0
 10
-3.93234872178
 20
-4.56932514866
 30
0.0
  0
VERTEX
  8
0
 10
-4.4055030842
 20
-4.38308353792
 30
0.0
  0
VERTEX
  8
0
 10
-4.57916080232
 20
-3.8772110547
 30
0.0
  0
VERTEX
  8
0
 10
-4.55231516473
 20
-3.63643924262
 30
0.0
  0
VERTEX
  8
0
 10
-4.47177825198
 20
-3.38811709497
 30
0.0
  0
VERTEX
  8
0
 10
-4.14963060098
 20
-3.38811709497
 30
0.0
  0
VERTEX
  8
0
 10
-4.23016751373
 20
-3.59449293389
 30
0.0
  0
VERTEX
  8
0
 10
-4.25701315131
 20
-3.80758018222
 30
0.0
  0
VERTEX
  8
0
 10
-4.17479838621
 20
-4.09533186007
 30
0.0
  0
VERTEX
  8
0
 10
-3.93402657413
 20
-4.19348622248
 30
0.0
  0
VERTEX
  8
0
 10
-3.70080509762
 20
-4.09449293389
 30
0.0
  0
VERTEX
  8
0
 10
-3.6127178493
 20
-3.83274796745
 30
0.0
  0
VERTEX
  8
0
 10
-3.63956348688
 20
-3.63811709497
 30
0.0
  0
VERTEX
  8
0
 10
-3.72010039963
 20
-3.44180837014
 30
0.0
  0
SEQEND
  8
0
  0
ENDBLK
  0
BLOCK
  8
0
  2
SHAPESTRING001
 70
0
 10
0.0
 20
0.0
 30
0.0
  3
SHAPESTRING001
  0
POLYLINE
  8
0
 62
0
 70
1
 66
1
 10
0.0
 20
0.0
 30
0.0
  0
VERTEX
  8
0
 10
1.9459836739
 20
6.12389714206
 30
0.0
  0
VERTEX
  8
0
 10
2.49464139202
 20
5.94940049777
 30
0.0
  0
VERTEX
  8
0
 10
2.69766152625
 20
5.48044076622
 30
0.0
  0
VERTEX
  8
0
 10
2.49464139202
 20
5.00980318233
 30
0.0
  0
VERTEX
  8
0
 10
1.9459836739
 20
4.83530653804
 30
0.0
  0
VERTEX
  8
0
 10
1.39648702961
 20
5.00980318233
 30
0.0
  0
VERTEX
  8
0
 10
1.19430582155
 20
5.48044076622
 30
0.0
  0
VERTEX
  8
0
 10
1.39648702961
 20
5.94940049777
 30
0.0
  0
SEQEND
  8
0
  0
POLYLINE
  8
0
 62
0
 70
1
 66
1
 10
0.0
 20
0.0
 30
0.0
  0
VERTEX
  8
0
 10
2.37551387524
 20
5.48044076622
 30
0.0
  0
VERTEX
  8
0
 10
2.26141991551
 20
5.67674949106
 30
0.0
  0
VERTEX
  8
0
 10
1.9459836739
 20
5.74805821589
 30
0.0
  0
VERTEX
  8
0
 10
1.62970850612
 20
5.67674949106
 30
0.0
  0
VERTEX
  8
0
 10
1.51645347256
 20
5.48044076622
 30
0.0
  0
VERTEX
  8
0
 10
1.62970850612
 20
5.28245418904
 30
0.0
  0
VERTEX
  8
0
 10
1.9459836739
 20
5.21114546421
 30
0.0
  0
VERTEX
  8
0
 10
2.26141991551
 20
5.28245418904
 30
0.0
  0
SEQEND
  8
0
  0
POLYLINE
  8
0
 62
0
 70
1
 66
1
 10
0.0
 20
0.0
 30
0.0
  0
VERTEX
  8
0
 10
2.64397025108
 20
3.224568283
 30
0.0
  0
VERTEX
  8
0
 10
1.24799709672
 20
3.67003808166
 30
0.0
  0
VERTEX
  8
0
 10
1.24799709672
 20
4.12138036354
 30
0.0
  0
VERTEX
  8
0
 10
2.64397025108
 20
4.5668501622
 30
0.0
  0
VERTEX
  8
0
 10
2.64397025108
 20
4.19520586689
 30
0.0
  0
VERTEX
  8
0
 10
1.55420515041
 20
3.89654814877
 30
0.0
  0
VERTEX
  8
0
 10
2.64397025108
 20
3.5962125783
 30
0.0
  0
SEQEND
  8
0
  0
POLYLINE
  8
0
 62
0
 70
1
 66
1
 10
0.0
 20
0.0
 30
0.0
  0
VERTEX
  8
0
 10
1.30168837189
 20
1.7212125783
 30
0.0
  0
VERTEX
  8
0
 10
1.22115145914
 20
1.98715217562
 30
0.0
  0
VERTEX
  8
0
 10
1.19430582155
 20
2.27238707495
 30
0.0
  0
VERTEX
  8
0
 10
1.38641991551
 20
2.82020586689
 30
0.0
  0
VERTEX
  8
0
 10
1.94095011685
 20
3.00980318233
 30
0.0
  0
VERTEX
  8
0
 10
2.49380246585
 20
2.82859512864
 30
0.0
  0
VERTEX
  8
0
 10
2.69766152625
 20
2.33278975951
 30
0.0
  0
VERTEX
  8
0
 10
2.51058098934
 20
1.84201794743
 30
0.0
  0
VERTEX
  8
0
 10
1.98373535175
 20
1.66752130314
 30
0.0
  0
VERTEX
  8
0
 10
1.83860112357
 20
1.66752130314
 30
0.0
  0
VERTEX
  8
0
 10
1.83860112357
 20
2.63396425616
 30
0.0
  0
VERTEX
  8
0
 10
1.59615145914
 20
2.53413204139
 30
0.0
  0
VERTEX
  8
0
 10
1.51645347256
 20
2.23883002797
 30
0.0
  0
VERTEX
  8
0
 10
1.54162125779
 20
1.9846353971
 30
0.0
  0
VERTEX
  8
0
 10
1.62383602289
 20
1.7212125783
 30
0.0
  0
SEQEND
  8
0
  0
POLYLINE
  8
0
 62
0
 70
1
 66
1
 10
0.0
 20
0.0
 30
0.0
  0
VERTEX
  8
0
 10
2.1070574994
 20
2.04336022931
 30
0.0
  0
VERTEX
  8
0
 10
2.30756085511
 20
2.11970251119
 30
0.0
  0
VERTEX
  8
0
 10
2.37551387524
 20
2.33698439038
 30
0.0
  0
VERTEX
  8
0
 10
2.30504407659
 20
2.54336022931
 30
0.0
  0
VERTEX
  8
0
 10
2.10537964706
 20
2.63396425616
 30
0.0
  0
SEQEND
  8
0
  0
POLYLINE
  8
0
 62
0
 70
1
 66
1
 10
0.0
 20
0.0
 30
0.0
  0
VERTEX
  8
0
 10
2.26813132491
 20
0.110474323271
 30
0.0
  0
VERTEX
  8
0
 10
2.34866823766
 20
0.248897142063
 30
0.0
  0
VERTEX
  8
0
 10
2.37551387524
 20
0.423393786358
 30
0.0
  0
VERTEX
  8
0
 10
2.33440649269
 20
0.623058215888
 30
0.0
  0
VERTEX
  8
0
 10
2.21695682826
 20
0.755608551459
 30
0.0
  0
VERTEX
  8
0
 10
2.10202394236
 20
0.796715934009
 30
0.0
  0
VERTEX
  8
0
 10
1.89732595578
 20
0.808460900452
 30
0.0
  0
VERTEX
  8
0
 10
1.24799709672
 20
0.808460900452
 30
0.0
  0
VERTEX
  8
0
 10
1.24799709672
 20
1.18429982663
 30
0.0
  0
VERTEX
  8
0
 10
2.64397025108
 20
1.18429982663
 30
0.0
  0
VERTEX
  8
0
 10
2.64397025108
 20
0.808460900452
 30
0.0
  0
VERTEX
  8
0
 10
2.44178904303
 20
0.808460900452
 30
0.0
  0
VERTEX
  8
0
 10
2.63054743229
 20
0.646548148774
 30
0.0
  0
VERTEX
  8
0
 10
2.69766152625
 20
0.389836739378
 30
0.0
  0
VERTEX
  8
0
 10
2.68339978128
 20
0.245541437365
 30
0.0
  0
VERTEX
  8
0
 10
2.64397025108
 20
0.110474323271
 30
0.0
  0
SEQEND
  8
0
  0
POLYLINE
  8
0
 62
0
 70
1
 66
1
 10
0.0
 20
0.0
 30
0.0
  0
VERTEX
  8
0
 10
2.26813132491
 20
-1.44657265659
 30
0.0
  0
VERTEX
  8
0
 10
2.34866823766
 20
-1.3081498378
 30
0.0
  0
VERTEX
  8
0
 10
2.37551387524
 20
-1.13365319351
 30
0.0
  0
VERTEX
  8
0
 10
2.33440649269
 20
-0.933988763978
 30
0.0
  0
VERTEX
  8
0
 10
2.21695682826
 20
-0.801438428407
 30
0.0
  0
VERTEX
  8
0
 10
2.10202394236
 20
-0.760331045857
 30
0.0
  0
VERTEX
  8
0
 10
1.89732595578
 20
-0.748586079414
 30
0.0
  0
VERTEX
  8
0
 10
1.24799709672
 20
-0.748586079414
 30
0.0
  0
VERTEX
  8
0
 10
1.24799709672
 20
-0.372747153239
 30
0.0
  0
VERTEX
  8
0
 10
2.64397025108
 20
-0.372747153239
 30
0.0
  0
VERTEX
  8
0
 10
2.64397025108
 20
-0.748586079414
 30
0.0
  0
VERTEX
  8
0
 10
2.44178904303
 20
-0.748586079414
 30
0.0
  0
VERTEX
  8
0
 10
2.63054743229
 20
-0.910498831092
 30
0.0
  0
VERTEX
  8
0
 10
2.69766152625
 20
-1.16721024049
 30
0.0
  0
VERTEX
  8
0
 10
2.68339978128
 20
-1.3115055425
 30
0.0
  0
VERTEX
  8
0
 10
2.64397025108
 20
-1.44657265659
 30
0.0
  0
SEQEND
  8
0
  0
POLYLINE
  8
0
 62
0
 70
1
 66
1
 10
0.0
 20
0.0
 30
0.0
  0
VERTEX
  8
0
 10
2.64397025108
 20
-1.82241158277
 30
0.0
  0
VERTEX
  8
0
 10
2.64397025108
 20
-2.57408943512
 30
0.0
  0
VERTEX
  8
0
 10
1.51645347256
 20
-2.57408943512
 30
0.0
  0
VERTEX
  8
0
 10
1.51645347256
 20
-3.05731091163
 30
0.0
  0
VERTEX
  8
0
 10
1.24799709672
 20
-3.05731091163
 30
0.0
  0
VERTEX
  8
0
 10
1.24799709672
 20
-1.71502903243
 30
0.0
  0
VERTEX
  8
0
 10
1.51645347256
 20
-1.71502903243
 30
0.0
  0
VERTEX
  8
0
 10
1.51645347256
 20
-2.19825050894
 30
0.0
  0
VERTEX
  8
0
 10
2.37551387524
 20
-2.19825050894
 30
0.0
  0
VERTEX
  8
0
 10
2.37551387524
 20
-1.82241158277
 30
0.0
  0
SEQEND
  8
0
  0
POLYLINE
  8
0
 62
0
 70
1
 66
1
 10
0.0
 20
0.0
 30
0.0
  0
VERTEX
  8
0
 10
3.34195682826
 20
-2.19825050894
 30
0.0
  0
VERTEX
  8
0
 10
3.34195682826
 20
-2.57408943512
 30
0.0
  0
VERTEX
  8
0
 10
2.91242662692
 20
-2.57408943512
 30
0.0
  0
VERTEX
  8
0
 10
2.91242662692
 20
-2.19825050894
 30
0.0
  0
SEQEND
  8
0
  0
POLYLINE
  8
0
 62
0
 70
1
 66
1
 10
0.0
 20
0.0
 30
0.0
  0
VERTEX
  8
0
 10
2.45185615712
 20
-4.07744513982
 30
0.0
  0
VERTEX
  8
0
 10
3.18088300276
 20
-4.07744513982
 30
0.0
  0
VERTEX
  8
0
 10
3.18088300276
 20
-4.45328406599
 30
0.0
  0
VERTEX
  8
0
 10
1.24799709672
 20
-4.45328406599
 30
0.0
  0
VERTEX
  8
0
 10
1.24799709672
 20
-4.07744513982
 30
0.0
  0
VERTEX
  8
0
 10
1.45940649269
 20
-4.07744513982
 30
0.0
  0
VERTEX
  8
0
 10
1.26058098934
 20
-3.92811628076
 30
0.0
  0
VERTEX
  8
0
 10
1.19430582155
 20
-3.71335118008
 30
0.0
  0
VERTEX
  8
0
 10
1.39061454638
 20
-3.34841829418
 30
0.0
  0
VERTEX
  8
0
 10
1.9459836739
 20
-3.21838473713
 30
0.0
  0
VERTEX
  8
0
 10
2.50303065377
 20
-3.35009614653
 30
0.0
  0
VERTEX
  8
0
 10
2.69766152625
 20
-3.7259350727
 30
0.0
  0
VERTEX
  8
0
 10
2.63641991551
 20
-3.92308272371
 30
0.0
  0
SEQEND
  8
0
  0
POLYLINE
  8
0
 62
0
 70
1
 66
1
 10
0.0
 20
0.0
 30
0.0
  0
VERTEX
  8
0
 10
1.9459836739
 20
-3.59422366331
 30
0.0
  0
VERTEX
  8
0
 10
1.63054743229
 20
-3.65798205257
 30
0.0
  0
VERTEX
  8
0
 10
1.51645347256
 20
-3.83499547539
 30
0.0
  0
VERTEX
  8
0
 10
1.63054743229
 20
-4.01200889821
 30
0.0
  0
VERTEX
  8
0
 10
1.9459836739
 20
-4.07744513982
 30
0.0
  0
VERTEX
  8
0
 10
2.26141991551
 20
-4.01200889821
 30
0.0
  0
VERTEX
  8
0
 10
2.37551387524
 20
-3.83499547539
 30
0.0
  0
VERTEX
  8
0
 10
2.26141991551
 20
-3.65798205257
 30
0.0
  0
SEQEND
  8
0
  0
POLYLINE
  8
0
 62
0
 70
1
 66
1
 10
0.0
 20
0.0
 30
0.0
  0
VERTEX
  8
0
 10
1.30168837189
 20
-6.06402232102
 30
0.0
  0
VERTEX
  8
0
 10
1.22115145914
 20
-5.79808272371
 30
0.0
  0
VERTEX
  8
0
 10
1.19430582155
 20
-5.51284782438
 30
0.0
  0
VERTEX
  8
0
 10
1.38641991551
 20
-4.96502903243
 30
0.0
  0
VERTEX
  8
0
 10
1.94095011685
 20
-4.775431717
 30
0.0
  0
VERTEX
  8
0
 10
2.49380246585
 20
-4.95663977069
 30
0.0
  0
VERTEX
  8
0
 10
2.69766152625
 20
-5.45244513982
 30
0.0
  0
VERTEX
  8
0
 10
2.51058098934
 20
-5.9432169519
 30
0.0
  0
VERTEX
  8
0
 10
1.98373535175
 20
-6.11771359619
 30
0.0
  0
VERTEX
  8
0
 10
1.83860112357
 20
-6.11771359619
 30
0.0
  0
VERTEX
  8
0
 10
1.83860112357
 20
-5.15127064317
 30
0.0
  0
VERTEX
  8
0
 10
1.59615145914
 20
-5.25110285794
 30
0.0
  0
VERTEX
  8
0
 10
1.51645347256
 20
-5.54640487136
 30
0.0
  0
VERTEX
  8
0
 10
1.54162125779
 20
-5.80059950223
 30
0.0
  0
VERTEX
  8
0
 10
1.62383602289
 20
-6.06402232102
 30
0.0
  0
SEQEND
  8
0
  0
POLYLINE
  8
0
 62
0
 70
1
 66
1
 10
0.0
 20
0.0
 30
0.0
  0
VERTEX
  8
0
 10
2.1070574994
 20
-5.74187467002
 30
0.0
  0
VERTEX
  8
0
 10
2.30756085511
 20
-5.66553238814
 30
0.0
  0
VERTEX
  8
0
 10
2.37551387524
 20
-5.44825050894
 30
0.0
  0
VERTEX
  8
0
 10
2.30504407659
 20
-5.24187467002
 30
0.0
  0
VERTEX
  8
0
 10
2.10537964706
 20
-5.15127064317
 30
0.0
  0
SEQEND
  8
0
  0
ENDBLK
  0
ENDSEC
  0
SECTION
  2
ENTITIES
  0
INSERT
  2
SHAPE2DVIEW
  8
0
 10
0.0
 20
0.0
 30
0.0
  0
INSERT
  2
SHAPESTRING
  8
0
 10
0.0
 20
0.0
 30
0.0
  0
INSERT
  2
SHAPESTRING001
  8
0
 10
0.0
 20
0.0
 30
0.0
  0
ENDSEC
  0
EOF
