  0
SECTION
  2
HEADER
  9
$ACADVER
  1
AC1014
  9
$HANDSEED
  5
FFFF
  9
$MEASUREMENT
 70
     1
  0
ENDSEC
  0
SECTION
  2
TABLES
  0
TABLE
  2
VPORT
  5
8
330
0
100
AcDbSymbolTable
 70
     4
  0
VPORT
  5
2E
330
8
100
AcDbSymbolTableRecord
100
AcDbViewportTableRecord
  2
*ACTIVE
 70
     0
 10
0.0
 20
0.0
 11
1.0
 21
1.0
 12
210.0
 22
148.5
 13
0.0
 23
0.0
 14
10.0
 24
10.0
 15
10.0
 25
10.0
 16
0.0
 26
0.0
 36
1.0
 17
0.0
 27
0.0
 37
0.0
 40
341.0
 41
1.24
 42
50.0
 43
0.0
 44
0.0
 50
0.0
 51
0.0
 71
     0
 72
   100
 73
     1
 74
     3
 75
     0
 76
     0
 77
     0
 78
     0
  0
ENDTAB
  0
TABLE
  2
LTYPE
  5
5
330
0
100
AcDbSymbolTable
 70
     1
  0
LTYPE
  5
14
330
5
100
AcDbSymbolTableRecord
100
AcDbLinetypeTableRecord
  2
BYBLOCK
 70
     0
  3

 72
    65
 73
     0
 40
0.0
  0
LTYPE
  5
15
330
5
100
AcDbSymbolTableRecord
100
AcDbLinetypeTableRecord
  2
BYLAYER
 70
     0
  3

 72
    65
 73
     0
 40
0.0
  0
LTYPE
  5
16
330
5
100
AcDbSymbolTableRecord
100
AcDbLinetypeTableRecord
  2
CONTINUOUS
 70
     0
  3
Solid line
 72
    65
 73
     0
 40
0.0
  0
ENDTAB
  0
TABLE
  2
LAYER
  5
2
100
AcDbSymbolTable
 70
2
  0
LAYER
  5
50
100
AcDbSymbolTableRecord
100
AcDbLayerTableRecord
  2
0
 70
0
  6
CONTINUOUS
  0
LAYER
  5
51
100
AcDbSymbolTableRecord
100
AcDbLayerTableRecord
  2
Layer_1
 70
0
  6
CONTINUOUS
  0
ENDTAB
  0
TABLE
  2
STYLE
  5
3
330
0
100
AcDbSymbolTable
 70
     1
  0
STYLE
  5
11
330
3
100
AcDbSymbolTableRecord
100
AcDbTextStyleTableRecord
  2
STANDARD
 70
     0
 40
0.0
 41
1.0
 50
0.0
 71
     0
 42
2.5
  3
txt
  4

  0
ENDTAB
  0
TABLE
  2
VIEW
  5
6
330
0
100
AcDbSymbolTable
 70
     0
  0
ENDTAB
  0
TABLE
  2
UCS
  5
7
330
0
100
AcDbSymbolTable
 70
     0
  0
ENDTAB
  0
TABLE
  2
APPID
  5
9
330
0
100
AcDbSymbolTable
 70
     2
  0
APPID
  5
12
330
9
100
AcDbSymbolTableRecord
100
AcDbRegAppTableRecord
  2
ACAD
 70
     0
  0
ENDTAB
  0
TABLE
  2
DIMSTYLE
  5
A
330
0
100
AcDbSymbolTable
 70
     1
  0
DIMSTYLE
105
27
330
A
100
AcDbSymbolTableRecord
100
AcDbDimStyleTableRecord
  2
ISO-25
 70
     0
  3

  4

  5

  6

  7

 40
1.0
 41
2.5
 42
0.625
 43
3.75
 44
1.25
 45
0.0
 46
0.0
 47
0.0
 48
0.0
140
2.5
141
2.5
142
0.0
143
0.03937007874016
144
1.0
145
0.0
146
1.0
147
0.625
 71
     0
 72
     0
 73
     0
 74
     0
 75
     0
 76
     0
 77
     1
 78
     8
170
     0
171
     3
172
     1
173
     0
174
     0
175
     0
176
     0
177
     0
178
     0
270
     2
271
     2
272
     2
273
     2
274
     3
340
11
275
     0
280
     0
281
     0
282
     0
283
     0
284
     8
285
     0
286
     0
287
     3
288
     0
  0
ENDTAB
  0
TABLE
  2
BLOCK_RECORD
  5
1
330
0
100
AcDbSymbolTable
 70
     1
  0
BLOCK_RECORD
  5
1F
330
1
100
AcDbSymbolTableRecord
100
AcDbBlockTableRecord
  2
*MODEL_SPACE
  0
BLOCK_RECORD
  5
1B
330
1
100
AcDbSymbolTableRecord
100
AcDbBlockTableRecord
  2
*PAPER_SPACE
  0
ENDTAB
  0
ENDSEC
  0
SECTION
  2
BLOCKS
  0
BLOCK
  5
20
330
1F
100
AcDbEntity
  8
0
100
AcDbBlockBegin
  2
*MODEL_SPACE
 70
     0
 10
0.0
 20
0.0
 30
0.0
  3
*MODEL_SPACE
  1

  0
ENDBLK
  5
21
330
1F
100
AcDbEntity
  8
0
100
AcDbBlockEnd
  0
BLOCK
  5
1C
330
1B
100
AcDbEntity
 67
     1
  8
0
100
AcDbBlockBegin
  2
*PAPER_SPACE
  1

  0
ENDBLK
  5
1D
330
1B
100
AcDbEntity
 67
     1
  8
0
100
AcDbBlockEnd
  0
ENDSEC
  0
SECTION
  2
ENTITIES
  0
LINE
  5
100
100
AcDbEntity
  8
Layer_1
 62
7
100
AcDbLine
 10
41.000000
 20
26.000000
 30
0.0
 11
41.000000
 21
0.000001
 31
0.0
  0
LINE
  5
101
100
AcDbEntity
  8
Layer_1
 62
7
100
AcDbLine
 10
41.000000
 20
0.000001
 30
0.0
 11
0.000000
 21
0.000001
 31
0.0
  0
LINE
  5
102
100
AcDbEntity
  8
Layer_1
 62
7
100
AcDbLine
 10
0.000000
 20
0.000001
 30
0.0
 11
0.000000
 21
26.000000
 31
0.0
  0
LINE
  5
103
100
AcDbEntity
  8
Layer_1
 62
7
100
AcDbLine
 10
0.000000
 20
26.000000
 30
0.0
 11
41.000000
 21
26.000000
 31
0.0
  0
LINE
  5
104
100
AcDbEntity
  8
Layer_1
 62
7
100
AcDbLine
 10
31.632782
 20
22.128599
 30
0.0
 11
31.610768
 21
21.741419
 31
0.0
  0
LINE
  5
105
100
AcDbEntity
  8
Layer_1
 62
7
100
AcDbLine
 10
31.610768
 20
21.741419
 30
0.0
 11
31.752461
 21
21.661270
 31
0.0
  0
LINE
  5
106
100
AcDbEntity
  8
Layer_1
 62
7
100
AcDbLine
 10
31.752461
 20
21.661270
 30
0.0
 11
31.894151
 21
21.581712
 31
0.0
  0
LINE
  5
107
100
AcDbEntity
  8
Layer_1
 62
7
100
AcDbLine
 10
31.894151
 20
21.581712
 30
0.0
 11
31.882862
 21
21.164477
 31
0.0
  0
SPLINE
  5
108
100
AcDbEntity
  8
Layer_1
 62
7
100
AcDbSpline
 70
0
 71
3
 72
16
 73
12
 74
10
 40
0.000000
 40
0.000000
 40
0.000000
 40
0.000000
 40
0.105950
 40
0.247528
 40
0.432488
 40
0.919686
 40
1.231048
 40
1.385057
 40
1.621110
 40
2.019706
 40
2.484473
 40
2.484473
 40
2.484473
 40
2.484473
 10
33.070586
 20
23.626643
 30
0.0
 10
33.035286
 20
23.624722
 30
0.0
 10
32.952817
 20
23.620234
 30
0.0
 10
32.811020
 20
23.592351
 30
0.0
 10
32.546659
 20
23.532848
 30
0.0
 10
32.229050
 20
23.445593
 30
0.0
 10
31.928148
 20
23.354739
 30
0.0
 10
31.723244
 20
23.211925
 30
0.0
 10
31.721959
 20
22.924321
 30
0.0
 10
31.658450
 20
22.573869
 30
0.0
 10
31.641764
 20
22.284418
 30
0.0
 10
31.632782
 20
22.128599
 30
0.0
 11
33.070586
 21
23.626643
 31
0.0
 11
32.964928
 21
23.618778
 31
0.0
 11
32.825427
 21
23.594616
 31
0.0
 11
32.644946
 21
23.554155
 31
0.0
 11
32.174362
 21
23.428014
 31
0.0
 11
31.883392
 21
23.317185
 31
0.0
 11
31.764876
 21
23.218835
 31
0.0
 11
31.717295
 21
22.987627
 31
0.0
 11
31.669346
 21
22.591926
 31
0.0
 11
31.632782
 21
22.128599
 31
0.0
  0
LINE
  5
109
100
AcDbEntity
  8
Layer_1
 62
7
100
AcDbLine
 10
31.728751
 20
17.075210
 30
0.0
 11
31.728751
 21
16.896058
 31
0.0
  0
LINE
  5
10a
100
AcDbEntity
  8
Layer_1
 62
7
100
AcDbLine
 10
31.728751
 20
16.896058
 30
0.0
 11
31.400773
 21
16.924328
 31
0.0
  0
LINE
  5
10b
100
AcDbEntity
  8
Layer_1
 62
7
100
AcDbLine
 10
31.400773
 20
16.924328
 30
0.0
 11
31.072794
 21
16.952043
 31
0.0
  0
LINE
  5
10c
100
AcDbEntity
  8
Layer_1
 62
7
100
AcDbLine
 10
31.072794
 20
16.952043
 30
0.0
 11
30.831183
 21
16.511234
 31
0.0
  0
SPLINE
  5
10d
100
AcDbEntity
  8
Layer_1
 62
7
100
AcDbSpline
 70
0
 71
3
 72
13
 73
9
 74
7
 40
0.000000
 40
0.000000
 40
0.000000
 40
0.000000
 40
0.449969
 40
1.227964
 40
2.165565
 40
3.070468
 40
3.762654
 40
4.092189
 40
4.092189
 40
4.092189
 40
4.092189
 10
31.882862
 20
21.164477
 30
0.0
 10
31.877787
 20
21.014573
 30
0.0
 10
31.863939
 20
20.605486
 30
0.0
 10
31.835520
 20
19.884188
 30
0.0
 10
31.800181
 20
19.011403
 30
0.0
 10
31.766743
 20
18.167172
 30
0.0
 10
31.741491
 20
17.525451
 30
0.0
 10
31.731858
 20
17.185012
 30
0.0
 10
31.728751
 20
17.075210
 30
0.0
 11
31.882862
 21
21.164477
 31
0.0
 11
31.867334
 21
20.714776
 31
0.0
 11
31.837487
 21
19.937355
 31
0.0
 11
31.799880
 21
19.000508
 31
0.0
 11
31.763980
 21
18.096317
 31
0.0
 11
31.738463
 21
17.404602
 31
0.0
 11
31.728751
 21
17.075210
 31
0.0
  0
LINE
  5
10e
100
AcDbEntity
  8
Layer_1
 62
7
100
AcDbLine
 10
28.062264
 20
11.397150
 30
0.0
 11
28.163312
 21
11.397150
 31
0.0
  0
LINE
  5
10f
100
AcDbEntity
  8
Layer_1
 62
7
100
AcDbLine
 10
28.163312
 20
11.397150
 30
0.0
 11
28.163312
 21
8.679830
 31
0.0
  0
LINE
  5
110
100
AcDbEntity
  8
Layer_1
 62
7
100
AcDbLine
 10
28.163312
 20
8.679830
 30
0.0
 11
28.163312
 21
5.963074
 31
0.0
  0
LINE
  5
111
100
AcDbEntity
  8
Layer_1
 62
7
100
AcDbLine
 10
28.163312
 20
5.963074
 30
0.0
 11
28.416210
 21
5.963074
 31
0.0
  0
SPLINE
  5
112
100
AcDbEntity
  8
Layer_1
 62
7
100
AcDbSpline
 70
0
 71
3
 72
31
 73
27
 74
25
 40
0.000000
 40
0.000000
 40
0.000000
 40
0.000000
 40
0.674700
 40
1.342639
 40
1.731707
 40
1.802174
 40
1.837732
 40
1.885409
 40
1.932778
 40
1.969675
 40
2.038661
 40
2.215752
 40
2.573444
 40
3.034272
 40
3.491280
 40
3.839175
 40
4.002821
 40
4.143257
 40
4.510929
 40
5.176958
 40
5.958538
 40
6.262582
 40
6.371006
 40
6.447905
 40
6.495454
 40
6.561186
 40
6.561186
 40
6.561186
 40
6.561186
 10
30.831183
 20
16.511234
 30
0.0
 10
30.726672
 20
16.312137
 30
0.0
 10
30.518696
 20
15.915936
 30
0.0
 10
30.271814
 20
15.393137
 30
0.0
 10
30.122791
 20
15.049512
 30
0.0
 10
30.073880
 20
14.889887
 30
0.0
 10
30.094513
 20
14.834629
 30
0.0
 10
30.143733
 20
14.837334
 30
0.0
 10
30.192141
 20
14.838121
 30
0.0
 10
30.215397
 20
14.784638
 30
0.0
 10
30.191922
 20
14.692069
 30
0.0
 10
30.168815
 20
14.492646
 30
0.0
 10
30.115891
 20
14.164449
 30
0.0
 10
30.053486
 20
13.744945
 30
0.0
 10
30.000765
 20
13.322939
 30
0.0
 10
29.930791
 20
13.014827
 30
0.0
 10
29.935253
 20
12.780804
 30
0.0
 10
29.745277
 20
12.635497
 30
0.0
 10
29.416363
 20
12.443388
 30
0.0
 10
28.870893
 20
12.154073
 30
0.0
 10
28.402781
 20
11.849144
 30
0.0
 10
27.992188
 20
11.690853
 30
0.0
 10
27.944405
 20
11.526094
 30
0.0
 10
27.953239
 20
11.446057
 30
0.0
 10
27.999219
 20
11.394590
 30
0.0
 10
28.039115
 20
11.396210
 30
0.0
 10
28.062264
 20
11.397150
 30
0.0
 11
30.831183
 21
16.511234
 31
0.0
 11
30.521831
 21
15.911633
 31
0.0
 11
30.236442
 21
15.307732
 31
0.0
 11
30.091676
 21
14.946600
 31
0.0
 11
30.081345
 21
14.876895
 31
0.0
 11
30.096572
 21
14.844762
 31
0.0
 11
30.143611
 21
14.836988
 31
0.0
 11
30.190254
 21
14.828732
 31
0.0
 11
30.207510
 21
14.796118
 31
0.0
 11
30.201754
 21
14.727372
 31
0.0
 11
30.174854
 21
14.552336
 31
0.0
 11
30.122035
 21
14.198565
 31
0.0
 11
30.054982
 21
13.742643
 31
0.0
 11
29.988282
 21
13.290528
 31
0.0
 11
29.936192
 21
12.946554
 31
0.0
 11
29.909903
 21
12.785034
 31
0.0
 11
29.809644
 21
12.686696
 31
0.0
 11
29.497280
 21
12.492759
 31
0.0
 11
28.915803
 21
12.167984
 31
0.0
 11
28.232047
 21
11.789373
 31
0.0
 11
27.980105
 21
11.619174
 31
0.0
 11
27.949927
 21
11.515034
 31
0.0
 11
27.964038
 21
11.439442
 31
0.0
 11
27.997027
 21
11.405198
 31
0.0
 11
28.062264
 21
11.397150
 31
0.0
  0
LINE
  5
113
100
AcDbEntity
  8
Layer_1
 62
7
100
AcDbLine
 10
37.943999
 20
4.157868
 30
0.0
 11
38.017385
 21
4.401285
 31
0.0
  0
LINE
  5
114
100
AcDbEntity
  8
Layer_1
 62
7
100
AcDbLine
 10
38.017385
 20
4.401285
 30
0.0
 11
38.249397
 21
4.382094
 31
0.0
  0
LINE
  5
115
100
AcDbEntity
  8
Layer_1
 62
7
100
AcDbLine
 10
38.249397
 20
4.382094
 30
0.0
 11
38.481409
 21
4.361491
 31
0.0
  0
LINE
  5
116
100
AcDbEntity
  8
Layer_1
 62
7
100
AcDbLine
 10
38.481409
 20
4.361491
 30
0.0
 11
38.501729
 21
4.535905
 31
0.0
  0
SPLINE
  5
117
100
AcDbEntity
  8
Layer_1
 62
7
100
AcDbSpline
 70
0
 71
3
 72
67
 73
63
 74
61
 40
0.000000
 40
0.000000
 40
0.000000
 40
0.000000
 40
0.142269
 40
0.272547
 40
0.362998
 40
0.440887
 40
0.495050
 40
0.611588
 40
0.699721
 40
0.769244
 40
0.805034
 40
0.831935
 40
0.892494
 40
0.975651
 40
1.107260
 40
1.201923
 40
1.329833
 40
1.403487
 40
1.515786
 40
1.643396
 40
1.875297
 40
2.041345
 40
2.193240
 40
2.336010
 40
2.473126
 40
2.689738
 40
2.878162
 40
3.139937
 40
3.418482
 40
3.675016
 40
3.879136
 40
3.986740
 40
4.177924
 40
4.760993
 40
5.904644
 40
6.852546
 40
7.552891
 40
7.854164
 40
8.153323
 40
8.853225
 40
9.802657
 40
10.741874
 40
11.414768
 40
11.675461
 40
11.695680
 40
11.743300
 40
11.807598
 40
11.873118
 40
11.926129
 40
11.959898
 40
11.994954
 40
12.056776
 40
12.140622
 40
12.224993
 40
12.292014
 40
12.328564
 40
12.363875
 40
12.427592
 40
12.507328
 40
12.618558
 40
12.764553
 40
12.913643
 40
12.913643
 40
12.913643
 40
12.913643
 10
28.416210
 20
5.963074
 30
0.0
 10
28.463486
 20
5.962219
 30
0.0
 10
28.554053
 20
5.960580
 30
0.0
 10
28.676635
 20
5.954285
 30
0.0
 10
28.771007
 20
5.938508
 30
0.0
 10
28.855448
 20
5.931141
 30
0.0
 10
28.884616
 20
5.842936
 30
0.0
 10
28.857511
 20
5.760318
 30
0.0
 10
28.841692
 20
5.668543
 30
0.0
 10
28.838366
 20
5.607990
 30
0.0
 10
28.817954
 20
5.558896
 30
0.0
 10
28.859416
 20
5.535472
 30
0.0
 10
28.911873
 20
5.522169
 30
0.0
 10
29.002487
 20
5.503318
 30
0.0
 10
29.108077
 20
5.489731
 30
0.0
 10
29.194902
 20
5.393891
 30
0.0
 10
29.187119
 20
5.289948
 30
0.0
 10
29.207034
 20
5.187510
 30
0.0
 10
29.239245
 20
5.087697
 30
0.0
 10
29.297863
 20
4.941728
 30
0.0
 10
29.364160
 20
4.780170
 30
0.0
 10
29.381436
 20
4.589206
 30
0.0
 10
29.306873
 20
4.451964
 30
0.0
 10
29.220966
 20
4.328571
 30
0.0
 10
29.254526
 20
4.154212
 30
0.0
 10
29.352284
 20
4.003308
 30
0.0
 10
29.462084
 20
3.809669
 30
0.0
 10
29.577525
 20
3.595919
 30
0.0
 10
29.700103
 20
3.360794
 30
0.0
 10
29.809924
 20
3.138351
 30
0.0
 10
29.904260
 20
2.978554
 30
0.0
 10
29.973346
 20
2.814487
 30
0.0
 10
30.299387
 20
2.772744
 30
0.0
 10
30.894812
 20
2.649995
 30
0.0
 10
31.797226
 20
2.537883
 30
0.0
 10
32.713257
 20
2.391595
 30
0.0
 10
33.357346
 20
2.324061
 30
0.0
 10
33.786264
 20
2.220454
 30
0.0
 10
34.214946
 20
2.324325
 30
0.0
 10
34.851971
 20
2.433327
 30
0.0
 10
35.688667
 20
2.631109
 30
0.0
 10
36.551036
 20
2.768076
 30
0.0
 10
37.098431
 20
2.994730
 30
0.0
 10
37.485804
 20
2.946534
 30
0.0
 10
37.545380
 20
3.040494
 30
0.0
 10
37.559763
 20
3.082181
 30
0.0
 10
37.578129
 20
3.138663
 30
0.0
 10
37.601408
 20
3.194000
 30
0.0
 10
37.627705
 20
3.240859
 30
0.0
 10
37.666043
 20
3.256530
 30
0.0
 10
37.703143
 20
3.281573
 30
0.0
 10
37.722677
 20
3.342097
 30
0.0
 10
37.739017
 20
3.415808
 30
0.0
 10
37.753115
 20
3.492995
 30
0.0
 10
37.767884
 20
3.554712
 30
0.0
 10
37.792325
 20
3.594275
 30
0.0
 10
37.817389
 20
3.632142
 30
0.0
 10
37.831806
 20
3.690941
 30
0.0
 10
37.848438
 20
3.773801
 30
0.0
 10
37.870014
 20
3.884210
 30
0.0
 10
37.903287
 20
4.015507
 30
0.0
 10
37.930334
 20
4.110083
 30
0.0
 10
37.943999
 20
4.157868
 30
0.0
 11
28.416210
 21
5.963074
 31
0.0
 11
28.558439
 21
5.959667
 31
0.0
 11
28.688419
 21
5.950865
 31
0.0
 11
28.778062
 21
5.938803
 31
0.0
 11
28.852408
 21
5.915575
 31
0.0
 11
28.873481
 21
5.865680
 31
0.0
 11
28.857657
 21
5.750222
 31
0.0
 11
28.842613
 21
5.663382
 31
0.0
 11
28.831489
 21
5.594755
 31
0.0
 11
28.826610
 21
5.559299
 31
0.0
 11
28.847854
 21
5.542796
 31
0.0
 11
28.905478
 21
5.524174
 31
0.0
 11
28.986932
 21
5.507426
 31
0.0
 11
29.113328
 21
5.470756
 31
0.0
 11
29.175824
 21
5.399655
 31
0.0
 11
29.192976
 21
5.272900
 31
0.0
 11
29.205728
 21
5.200358
 31
0.0
 11
29.238803
 21
5.093041
 31
0.0
 11
29.284992
 21
4.974083
 31
0.0
 11
29.359666
 21
4.754534
 31
0.0
 11
29.365121
 21
4.588576
 31
0.0
 11
29.302490
 21
4.450194
 31
0.0
 11
29.239254
 21
4.322192
 31
0.0
 11
29.255144
 21
4.186000
 31
0.0
 11
29.355553
 21
3.994066
 31
0.0
 11
29.449512
 21
3.830740
 31
0.0
 11
29.574287
 21
3.600615
 31
0.0
 11
29.702726
 21
3.353450
 31
0.0
 11
29.820203
 21
3.125396
 31
0.0
 11
29.916455
 21
2.945394
 31
0.0
 11
29.970868
 21
2.852562
 31
0.0
 11
30.151701
 21
2.790508
 31
0.0
 11
30.726081
 21
2.690221
 31
0.0
 11
31.857459
 21
2.523124
 31
0.0
 11
32.795724
 21
2.388303
 31
0.0
 11
33.488878
 21
2.288196
 31
0.0
 11
33.786950
 21
2.244401
 31
0.0
 11
34.082588
 21
2.290169
 31
0.0
 11
34.769292
 21
2.425446
 31
0.0
 11
35.698379
 21
2.620942
 31
0.0
 11
36.616416
 21
2.819281
 31
0.0
 11
37.274127
 21
2.961413
 31
0.0
 11
37.529084
 21
3.015799
 31
0.0
 11
37.539974
 21
3.032835
 31
0.0
 11
37.557839
 21
3.076977
 31
0.0
 11
37.578761
 21
3.137776
 31
0.0
 11
37.604643
 21
3.197967
 31
0.0
 11
37.635626
 21
3.240981
 31
0.0
 11
37.665129
 21
3.257410
 31
0.0
 11
37.693311
 21
3.278259
 31
0.0
 11
37.719324
 21
3.334341
 31
0.0
 11
37.738516
 21
3.415962
 31
0.0
 11
37.755032
 21
3.498700
 31
0.0
 11
37.774503
 21
3.562831
 31
0.0
 11
37.792708
 21
3.594524
 31
0.0
 11
37.810825
 21
3.624833
 31
0.0
 11
37.830080
 21
3.685571
 31
0.0
 11
37.846339
 21
3.763632
 31
0.0
 11
37.868647
 21
3.872602
 31
0.0
 11
37.903739
 21
4.014316
 31
0.0
 11
37.943999
 21
4.157868
 31
0.0
  0
LINE
  5
118
100
AcDbEntity
  8
Layer_1
 62
7
100
AcDbLine
 10
39.128336
 20
10.035992
 30
0.0
 11
39.172933
 21
10.422609
 31
0.0
  0
LINE
  5
119
100
AcDbEntity
  8
Layer_1
 62
7
100
AcDbLine
 10
39.172933
 20
10.422609
 30
0.0
 11
39.393089
 21
10.553447
 31
0.0
  0
SPLINE
  5
11a
100
AcDbEntity
  8
Layer_1
 62
7
100
AcDbSpline
 70
0
 71
3
 72
22
 73
18
 74
16
 40
0.000000
 40
0.000000
 40
0.000000
 40
0.000000
 40
0.318613
 40
0.871033
 40
1.639817
 40
1.963090
 40
2.250995
 40
2.441155
 40
2.644775
 40
2.967918
 40
3.340753
 40
3.760774
 40
4.207557
 40
4.584301
 40
4.921049
 40
5.263017
 40
5.536177
 40
5.536177
 40
5.536177
 40
5.536177
 10
38.501729
 20
4.535905
 30
0.0
 10
38.514726
 20
4.641311
 30
0.0
 10
38.550257
 20
4.929474
 30
0.0
 10
38.621887
 20
5.471371
 30
0.0
 10
38.695877
 20
6.014520
 30
0.0
 10
38.754468
 20
6.470754
 30
0.0
 10
38.785744
 20
6.736062
 30
0.0
 10
38.805563
 20
6.962439
 30
0.0
 10
38.824073
 20
7.200700
 30
0.0
 10
38.854936
 20
7.499001
 30
0.0
 10
38.894976
 20
7.868832
 30
0.0
 10
38.940980
 20
8.279479
 30
0.0
 10
38.985379
 20
8.691611
 30
0.0
 10
39.025420
 20
9.076292
 30
0.0
 10
39.061444
 20
9.426263
 30
0.0
 10
39.095179
 20
9.741758
 30
0.0
 10
39.118140
 20
9.945512
 30
0.0
 10
39.128336
 20
10.035992
 30
0.0
 11
38.501729
 21
4.535905
 31
0.0
 11
38.541057
 21
4.852081
 31
0.0
 11
38.612739
 21
5.399831
 31
0.0
 11
38.714550
 21
6.161843
 31
0.0
 11
38.755383
 21
6.482527
 31
0.0
 11
38.787833
 21
6.768598
 31
0.0
 11
38.804873
 21
6.957992
 31
0.0
 11
38.821655
 21
7.160919
 31
0.0
 11
38.853467
 21
7.482493
 31
0.0
 11
38.893499
 21
7.853173
 31
0.0
 11
38.939700
 21
8.270645
 31
0.0
 11
38.987590
 21
8.714854
 31
0.0
 11
39.026725
 21
9.089560
 31
0.0
 11
39.061485
 21
9.424509
 31
0.0
 11
39.097977
 21
9.764525
 31
0.0
 11
39.128336
 21
10.035992
 31
0.0
  0
LINE
  5
11b
100
AcDbEntity
  8
Layer_1
 62
7
100
AcDbLine
 10
36.966830
 20
13.487034
 30
0.0
 11
36.672156
 21
13.817065
 31
0.0
  0
LINE
  5
11c
100
AcDbEntity
  8
Layer_1
 62
7
100
AcDbLine
 10
36.672156
 20
13.817065
 30
0.0
 11
36.249901
 21
13.889539
 31
0.0
  0
SPLINE
  5
11d
100
AcDbEntity
  8
Layer_1
 62
7
100
AcDbSpline
 70
0
 71
3
 72
25
 73
21
 74
19
 40
0.000000
 40
0.000000
 40
0.000000
 40
0.000000
 40
0.254218
 40
0.467984
 40
0.697651
 40
0.803631
 40
0.876316
 40
0.957926
 40
1.115981
 40
1.408739
 40
1.861259
 40
1.908794
 40
1.949549
 40
1.974966
 40
2.023953
 40
2.126599
 40
2.260651
 40
2.910010
 40
3.737841
 40
4.397672
 40
4.397672
 40
4.397672
 40
4.397672
 10
39.393089
 20
10.553447
 30
0.0
 10
39.464613
 20
10.600174
 30
0.0
 10
39.596280
 20
10.686192
 30
0.0
 10
39.725663
 20
10.890398
 30
0.0
 10
39.743350
 20
11.076213
 30
0.0
 10
39.742532
 20
11.212668
 30
0.0
 10
39.708323
 20
11.296840
 30
0.0
 10
39.617998
 20
11.354633
 30
0.0
 10
39.468672
 20
11.447037
 30
0.0
 10
39.214669
 20
11.610860
 30
0.0
 10
38.990740
 20
11.750612
 30
0.0
 10
38.840506
 20
11.850127
 30
0.0
 10
38.809165
 20
11.871575
 30
0.0
 10
38.780490
 20
11.897149
 30
0.0
 10
38.734037
 20
11.933584
 30
0.0
 10
38.657157
 20
11.989788
 30
0.0
 10
38.415636
 20
12.159870
 30
0.0
 10
38.003677
 20
12.505553
 30
0.0
 10
37.469140
 20
12.976713
 30
0.0
 10
37.121168
 20
13.330235
 30
0.0
 10
36.966830
 20
13.487034
 30
0.0
 11
39.393089
 21
10.553447
 31
0.0
 11
39.594419
 21
10.708666
 31
0.0
 11
39.706920
 21
10.890433
 31
0.0
 11
39.741958
 21
11.117412
 31
0.0
 11
39.734328
 21
11.223116
 31
0.0
 11
39.704094
 21
11.289216
 31
0.0
 11
39.640346
 21
11.340170
 31
0.0
 11
39.506412
 21
11.424091
 31
0.0
 11
39.259446
 21
11.581302
 31
0.0
 11
38.878259
 21
11.825168
 31
0.0
 11
38.838678
 21
11.851492
 31
0.0
 11
38.805605
 21
11.875308
 31
0.0
 11
38.786243
 21
11.891773
 31
0.0
 11
38.748009
 21
11.922398
 31
0.0
 11
38.665454
 21
11.983397
 31
0.0
 11
38.556486
 21
12.061473
 31
0.0
 11
38.050892
 21
12.468956
 31
0.0
 11
37.434593
 21
13.021658
 31
0.0
 11
36.966830
 21
13.487034
 31
0.0
  0
LINE
  5
11e
100
AcDbEntity
  8
Layer_1
 62
7
100
AcDbLine
 10
34.362181
 20
17.243324
 30
0.0
 11
33.945009
 21
18.158534
 31
0.0
  0
LINE
  5
11f
100
AcDbEntity
  8
Layer_1
 62
7
100
AcDbLine
 10
33.945009
 20
18.158534
 30
0.0
 11
33.921302
 21
18.875142
 31
0.0
  0
SPLINE
  5
120
100
AcDbEntity
  8
Layer_1
 62
7
100
AcDbSpline
 70
0
 71
3
 72
22
 73
18
 74
16
 40
0.000000
 40
0.000000
 40
0.000000
 40
0.000000
 40
0.244963
 40
0.474906
 40
0.640100
 40
1.163113
 40
1.572243
 40
1.752290
 40
1.878522
 40
2.168992
 40
2.560741
 40
3.067462
 40
3.291225
 40
3.367660
 40
3.516278
 40
3.899583
 40
4.698316
 40
4.698316
 40
4.698316
 40
4.698316
 10
36.249901
 20
13.889539
 30
0.0
 10
36.169593
 20
13.904192
 30
0.0
 10
36.013901
 20
13.932598
 30
0.0
 10
35.804787
 20
13.976575
 30
0.0
 10
35.509685
 20
14.053683
 30
0.0
 10
35.149648
 20
14.169788
 30
0.0
 10
34.843614
 20
14.313019
 30
0.0
 10
34.557005
 20
14.380577
 30
0.0
 10
34.598262
 20
14.606703
 30
0.0
 10
34.587095
 20
14.860750
 30
0.0
 10
34.607583
 20
15.267174
 30
0.0
 10
34.648404
 20
15.623623
 30
0.0
 10
34.626300
 20
15.917152
 30
0.0
 10
34.729158
 20
16.028955
 30
0.0
 10
34.845058
 20
16.210235
 30
0.0
 10
34.591373
 20
16.653077
 30
0.0
 10
34.454601
 20
17.005311
 30
0.0
 10
34.362181
 20
17.243324
 30
0.0
 11
36.249901
 21
13.889539
 31
0.0
 11
36.009122
 21
13.934620
 31
0.0
 11
35.784341
 21
13.983068
 31
0.0
 11
35.624426
 21
14.024498
 31
0.0
 11
35.127818
 21
14.188580
 31
0.0
 11
34.744935
 21
14.332762
 31
0.0
 11
34.585165
 21
14.415771
 31
0.0
 11
34.583735
 21
14.541994
 31
0.0
 11
34.592333
 21
14.832337
 31
0.0
 11
34.608872
 21
15.223736
 31
0.0
 11
34.636282
 21
15.729716
 31
0.0
 11
34.665057
 21
15.951621
 31
0.0
 11
34.711612
 21
16.012243
 31
0.0
 11
34.784520
 21
16.141748
 31
0.0
 11
34.679887
 21
16.510496
 31
0.0
 11
34.362181
 21
17.243324
 31
0.0
  0
LINE
  5
121
100
AcDbEntity
  8
Layer_1
 62
7
100
AcDbLine
 10
34.117751
 20
22.504745
 30
0.0
 11
34.117187
 21
22.774651
 31
0.0
  0
LINE
  5
122
100
AcDbEntity
  8
Layer_1
 62
7
100
AcDbLine
 10
34.117187
 20
22.774651
 30
0.0
 11
33.910010
 21
22.973251
 31
0.0
  0
SPLINE
  5
123
100
AcDbEntity
  8
Layer_1
 62
7
100
AcDbSpline
 70
0
 71
3
 72
19
 73
15
 74
13
 40
0.000000
 40
0.000000
 40
0.000000
 40
0.000000
 40
0.486368
 40
1.072616
 40
1.631890
 40
2.097151
 40
2.436995
 40
2.578102
 40
2.707914
 40
2.964798
 40
3.241057
 40
3.365428
 40
3.505397
 40
3.676715
 40
3.676715
 40
3.676715
 40
3.676715
 10
33.921302
 20
18.875142
 30
0.0
 10
33.916240
 20
19.037184
 30
0.0
 10
33.905077
 20
19.394547
 30
0.0
 10
33.889042
 20
19.938290
 30
0.0
 10
33.877698
 20
20.475057
 30
0.0
 10
33.859043
 20
20.929653
 30
0.0
 10
33.860610
 20
21.244903
 30
0.0
 10
33.827419
 20
21.448077
 30
0.0
 10
33.865198
 20
21.622226
 30
0.0
 10
33.937705
 20
21.830686
 30
0.0
 10
34.026019
 20
22.031239
 30
0.0
 10
34.092799
 20
22.199256
 30
0.0
 10
34.114727
 20
22.343921
 30
0.0
 10
34.116678
 20
22.447655
 30
0.0
 10
34.117751
 20
22.504745
 30
0.0
 11
33.921302
 21
18.875142
 31
0.0
 11
33.906245
 21
19.361277
 31
0.0
 11
33.889612
 21
19.947288
 31
0.0
 11
33.875012
 21
20.506372
 31
0.0
 11
33.861450
 21
20.971435
 31
0.0
 11
33.847492
 21
21.310993
 31
0.0
 11
33.836060
 21
21.451636
 31
0.0
 11
33.857749
 21
21.579623
 31
0.0
 11
33.938673
 21
21.823427
 31
0.0
 11
34.044365
 21
22.078669
 31
0.0
 11
34.086589
 21
22.195653
 31
0.0
 11
34.110376
 21
22.333586
 31
0.0
 11
34.117751
 21
22.504745
 31
0.0
  0
LINE
  5
124
100
AcDbEntity
  8
Layer_1
 62
7
100
AcDbLine
 10
33.070586
 20
23.625625
 30
0.0
 11
33.070586
 21
23.626753
 31
0.0
  0
LINE
  5
125
100
AcDbEntity
  8
Layer_1
 62
7
100
AcDbLine
 10
33.070586
 20
23.626753
 30
0.0
 11
33.070586
 21
23.626643
 31
0.0
  0
SPLINE
  5
126
100
AcDbEntity
  8
Layer_1
 62
7
100
AcDbSpline
 70
0
 71
3
 72
19
 73
15
 74
13
 40
0.000000
 40
0.000000
 40
0.000000
 40
0.000000
 40
0.174124
 40
0.353805
 40
0.499794
 40
0.610002
 40
0.696621
 40
0.742351
 40
0.773882
 40
0.821948
 40
0.878000
 40
0.939821
 40
1.003860
 40
1.083170
 40
1.083170
 40
1.083170
 40
1.083170
 10
33.910010
 20
22.973251
 30
0.0
 10
33.868162
 20
23.013472
 30
0.0
 10
33.783131
 20
23.095198
 30
0.0
 10
33.663085
 20
23.210680
 30
0.0
 10
33.560137
 20
23.313329
 30
0.0
 10
33.476277
 20
23.390726
 30
0.0
 10
33.414353
 20
23.443434
 30
0.0
 10
33.365650
 20
23.468845
 30
0.0
 10
33.325227
 20
23.480903
 30
0.0
 10
33.290243
 20
23.511310
 30
0.0
 10
33.253052
 20
23.551593
 30
0.0
 10
33.210285
 20
23.595753
 30
0.0
 10
33.145032
 20
23.622179
 30
0.0
 10
33.097103
 20
23.624397
 30
0.0
 10
33.070586
 20
23.625625
 30
0.0
 11
33.910010
 21
22.973251
 31
0.0
 11
33.784479
 21
23.093921
 31
0.0
 11
33.655390
 21
23.218905
 31
0.0
 11
33.550984
 21
23.320946
 31
0.0
 11
33.469848
 21
23.395529
 31
0.0
 11
33.401539
 21
23.448791
 31
0.0
 11
33.360744
 21
23.469454
 31
0.0
 11
33.331368
 21
23.480910
 31
0.0
 11
33.293052
 21
23.509932
 31
0.0
 11
33.254053
 21
23.550192
 31
0.0
 11
33.208288
 21
23.591754
 31
0.0
 11
33.149423
 21
23.616970
 31
0.0
 11
33.070586
 21
23.625625
 31
0.0
  0
LINE
  5
127
100
AcDbEntity
  8
Layer_1
 62
7
100
AcDbLine
 10
2.313862
 20
11.125483
 30
0.0
 11
2.331360
 21
10.578593
 31
0.0
  0
LINE
  5
128
100
AcDbEntity
  8
Layer_1
 62
7
100
AcDbLine
 10
2.331360
 20
10.578593
 30
0.0
 11
1.646609
 21
10.578593
 31
0.0
  0
SPLINE
  5
129
100
AcDbEntity
  8
Layer_1
 62
7
100
AcDbSpline
 70
0
 71
3
 72
22
 73
18
 74
16
 40
0.000000
 40
0.000000
 40
0.000000
 40
0.000000
 40
0.314017
 40
0.583388
 40
0.719607
 40
1.018992
 40
1.591706
 40
1.997230
 40
2.050440
 40
2.153236
 40
2.354999
 40
2.666270
 40
2.912668
 40
3.167575
 40
3.428600
 40
3.718176
 40
4.177092
 40
4.177092
 40
4.177092
 40
4.177092
 10
1.541050
 20
13.770329
 30
0.0
 10
1.434723
 20
13.768987
 30
0.0
 10
1.237187
 20
13.766495
 30
0.0
 10
1.015131
 20
13.744975
 30
0.0
 10
0.737146
 20
13.718395
 30
0.0
 10
0.928851
 20
13.270986
 30
0.0
 10
0.951490
 20
12.920381
 30
0.0
 10
0.944565
 20
12.542317
 30
0.0
 10
1.063554
 20
12.386269
 30
0.0
 10
1.194946
 20
12.387180
 30
0.0
 10
1.392235
 20
12.382588
 30
0.0
 10
1.650482
 20
12.379353
 30
0.0
 10
1.909940
 20
12.277922
 30
0.0
 10
2.087518
 20
12.090231
 30
0.0
 10
2.237186
 20
11.863143
 30
0.0
 10
2.302403
 20
11.527119
 30
0.0
 10
2.309506
 20
11.278138
 30
0.0
 10
2.313862
 20
11.125483
 30
0.0
 11
1.541050
 21
13.770329
 31
0.0
 11
1.227144
 21
13.761972
 31
0.0
 11
0.958704
 21
13.739598
 31
0.0
 11
0.826381
 21
13.707252
 31
0.0
 11
0.859165
 21
13.409667
 31
0.0
 11
0.946260
 21
12.843614
 31
0.0
 11
1.020570
 21
12.444957
 31
0.0
 11
1.055866
 21
12.405138
 31
0.0
 11
1.156973
 21
12.386581
 31
0.0
 11
1.358715
 21
12.383658
 31
0.0
 11
1.668938
 21
12.358129
 31
0.0
 11
1.896764
 21
12.264284
 31
0.0
 11
2.080156
 21
12.087240
 31
0.0
 11
2.216883
 21
11.864889
 31
0.0
 11
2.285289
 21
11.583509
 31
0.0
 11
2.313862
 21
11.125483
 31
0.0
  0
LINE
  5
12a
100
AcDbEntity
  8
Layer_1
 62
7
100
AcDbLine
 10
1.132341
 20
9.811880
 30
0.0
 11
1.304519
 21
9.145948
 31
0.0
  0
LINE
  5
12b
100
AcDbEntity
  8
Layer_1
 62
7
100
AcDbLine
 10
1.304519
 20
9.145948
 30
0.0
 11
1.813140
 21
9.145948
 31
0.0
  0
LINE
  5
12c
100
AcDbEntity
  8
Layer_1
 62
7
100
AcDbLine
 10
1.813140
 20
9.145948
 30
0.0
 11
2.322328
 21
9.145948
 31
0.0
  0
LINE
  5
12d
100
AcDbEntity
  8
Layer_1
 62
7
100
AcDbLine
 10
2.322328
 20
9.145948
 30
0.0
 11
2.331924
 21
5.992510
 31
0.0
  0
LINE
  5
12e
100
AcDbEntity
  8
Layer_1
 62
7
100
AcDbLine
 10
2.331924
 20
5.992510
 30
0.0
 11
2.340955
 21
2.839072
 31
0.0
  0
LINE
  5
12f
100
AcDbEntity
  8
Layer_1
 62
7
100
AcDbLine
 10
2.340955
 20
2.839072
 30
0.0
 11
3.030785
 21
2.828630
 31
0.0
  0
LINE
  5
130
100
AcDbEntity
  8
Layer_1
 62
7
100
AcDbLine
 10
3.030785
 20
2.828630
 30
0.0
 11
3.721180
 21
2.817341
 31
0.0
  0
LINE
  5
131
100
AcDbEntity
  8
Layer_1
 62
7
100
AcDbLine
 10
3.721180
 20
2.817341
 30
0.0
 11
3.711020
 21
7.364505
 31
0.0
  0
SPLINE
  5
132
100
AcDbEntity
  8
Layer_1
 62
7
100
AcDbSpline
 70
0
 71
3
 72
13
 73
9
 74
7
 40
0.000000
 40
0.000000
 40
0.000000
 40
0.000000
 40
0.409599
 40
0.623659
 40
0.692156
 40
0.810787
 40
1.075492
 40
1.428860
 40
1.428860
 40
1.428860
 40
1.428860
 10
1.646609
 20
10.578593
 30
0.0
 10
1.507833
 20
10.575299
 30
0.0
 10
1.296531
 20
10.570283
 30
0.0
 10
1.079405
 20
10.578267
 30
0.0
 10
0.928356
 20
10.529154
 30
0.0
 10
1.021834
 20
10.350926
 30
0.0
 10
1.040522
 20
10.131814
 30
0.0
 10
1.098941
 20
9.928258
 30
0.0
 10
1.132341
 20
9.811880
 30
0.0
 11
1.646609
 21
10.578593
 31
0.0
 11
1.237037
 21
10.573977
 31
0.0
 11
1.023557
 21
10.558223
 31
0.0
 11
0.961859
 21
10.528470
 31
0.0
 11
0.984949
 21
10.412108
 31
0.0
 11
1.046112
 21
10.154565
 31
0.0
 11
1.132341
 21
9.811880
 31
0.0
  0
LINE
  5
133
100
AcDbEntity
  8
Layer_1
 62
7
100
AcDbLine
 10
1.541047
 20
13.770442
 30
0.0
 11
1.541050
 21
13.770329
 31
0.0
  0
SPLINE
  5
134
100
AcDbEntity
  8
Layer_1
 62
7
100
AcDbSpline
 70
0
 71
3
 72
16
 73
12
 74
10
 40
0.000000
 40
0.000000
 40
0.000000
 40
0.000000
 40
3.066810
 40
4.384038
 40
4.787874
 40
5.702192
 40
6.505185
 40
7.385543
 40
7.464932
 40
7.555967
 40
7.655182
 40
7.655182
 40
7.655182
 40
7.655182
 10
3.711020
 20
7.364505
 30
0.0
 10
3.703840
 20
8.386813
 30
0.0
 10
3.693577
 20
9.848213
 30
0.0
 10
3.707010
 20
11.443936
 30
0.0
 10
3.636432
 20
12.322282
 30
0.0
 10
3.327135
 20
12.988237
 30
0.0
 10
2.667541
 20
13.587656
 30
0.0
 10
2.076110
 20
13.736201
 30
0.0
 10
1.727389
 20
13.766052
 30
0.0
 10
1.637530
 20
13.769720
 30
0.0
 10
1.574117
 20
13.770194
 30
0.0
 10
1.541047
 20
13.770442
 30
0.0
 11
3.711020
 21
7.364505
 31
0.0
 11
3.700523
 21
10.431297
 31
0.0
 11
3.679745
 21
11.748361
 31
0.0
 11
3.635376
 21
12.149752
 31
0.0
 11
3.258279
 21
12.982684
 31
0.0
 11
2.655929
 21
13.513695
 31
0.0
 11
1.810318
 21
13.758588
 31
0.0
 11
1.731203
 21
13.765173
 31
0.0
 11
1.640253
 21
13.769124
 31
0.0
 11
1.541047
 21
13.770442
 31
0.0
  0
LINE
  5
135
100
AcDbEntity
  8
Layer_1
 62
7
100
AcDbLine
 10
19.743651
 20
13.759040
 30
0.0
 11
19.743651
 21
13.759040
 31
0.0
  0
LINE
  5
136
100
AcDbEntity
  8
Layer_1
 62
7
100
AcDbLine
 10
26.950177
 20
13.601701
 30
0.0
 11
26.269943
 21
13.601701
 31
0.0
  0
LINE
  5
137
100
AcDbEntity
  8
Layer_1
 62
7
100
AcDbLine
 10
26.269943
 20
13.601701
 30
0.0
 11
25.589709
 21
13.601701
 31
0.0
  0
LINE
  5
138
100
AcDbEntity
  8
Layer_1
 62
7
100
AcDbLine
 10
25.589709
 20
13.601701
 30
0.0
 11
25.589709
 21
12.034126
 31
0.0
  0
LINE
  5
139
100
AcDbEntity
  8
Layer_1
 62
7
100
AcDbLine
 10
25.589709
 20
12.034126
 30
0.0
 11
25.589709
 21
10.465930
 31
0.0
  0
LINE
  5
13a
100
AcDbEntity
  8
Layer_1
 62
7
100
AcDbLine
 10
25.589709
 20
10.465930
 30
0.0
 11
25.361083
 21
10.540803
 31
0.0
  0
SPLINE
  5
13b
100
AcDbEntity
  8
Layer_1
 62
7
100
AcDbSpline
 70
0
 71
3
 72
19
 73
15
 74
13
 40
0.000000
 40
0.000000
 40
0.000000
 40
0.000000
 40
0.292475
 40
0.588314
 40
0.899919
 40
1.530151
 40
2.100918
 40
2.669929
 40
3.301025
 40
3.904369
 40
4.520484
 40
4.624673
 40
4.726014
 40
4.825516
 40
4.825516
 40
4.825516
 40
4.825516
 10
19.743651
 20
13.759040
 30
0.0
 10
19.646610
 20
13.740451
 30
0.0
 10
19.451412
 20
13.703060
 30
0.0
 10
19.211515
 20
13.502886
 30
0.0
 10
19.013357
 20
13.132203
 30
0.0
 10
19.047086
 20
12.582053
 30
0.0
 10
19.489905
 20
12.107746
 30
0.0
 10
20.157525
 20
12.131619
 30
0.0
 10
20.578206
 20
12.652133
 30
0.0
 10
20.564002
 20
13.319702
 30
0.0
 10
20.208248
 20
13.669945
 30
0.0
 10
19.944926
 20
13.746164
 30
0.0
 10
19.843891
 20
13.761741
 30
0.0
 10
19.776860
 20
13.759935
 30
0.0
 10
19.743651
 20
13.759040
 30
0.0
 11
19.743651
 21
13.759040
 31
0.0
 11
19.462010
 21
13.680172
 31
0.0
 11
19.231058
 21
13.495290
 31
0.0
 11
19.083176
 21
13.221011
 31
0.0
 11
19.123776
 21
12.592088
 31
0.0
 11
19.526593
 21
12.187720
 31
0.0
 11
20.095341
 21
12.205011
 31
0.0
 11
20.506942
 21
12.683411
 31
0.0
 11
20.486161
 21
13.286397
 31
0.0
 11
20.043406
 21
13.714844
 31
0.0
 11
19.943446
 21
13.744226
 31
0.0
 11
19.843153
 21
13.758764
 31
0.0
 11
19.743651
 21
13.759040
 31
0.0
  0
LINE
  5
13c
100
AcDbEntity
  8
Layer_1
 62
7
100
AcDbLine
 10
21.664112
 20
6.576456
 30
0.0
 11
21.675968
 21
4.669424
 31
0.0
  0
LINE
  5
13d
100
AcDbEntity
  8
Layer_1
 62
7
100
AcDbLine
 10
21.675968
 20
4.669424
 30
0.0
 11
21.778144
 21
4.354718
 31
0.0
  0
SPLINE
  5
13e
100
AcDbEntity
  8
Layer_1
 62
7
100
AcDbSpline
 70
0
 71
3
 72
19
 73
15
 74
13
 40
0.000000
 40
0.000000
 40
0.000000
 40
0.000000
 40
0.161535
 40
0.353446
 40
0.534374
 40
1.018467
 40
1.592706
 40
2.015362
 40
2.745635
 40
3.402368
 40
4.045778
 40
4.533238
 40
5.295884
 40
6.828364
 40
6.828364
 40
6.828364
 40
6.828364
 10
25.361083
 20
10.540803
 30
0.0
 10
25.309440
 20
10.556095
 30
0.0
 10
25.196442
 20
10.589554
 30
0.0
 10
25.022694
 20
10.628993
 30
0.0
 10
24.742405
 20
10.685672
 30
0.0
 10
24.327110
 20
10.695418
 30
0.0
 10
23.834581
 20
10.680092
 30
0.0
 10
23.259702
 20
10.609176
 30
0.0
 10
22.704281
 20
10.345611
 30
0.0
 10
22.170183
 20
9.915522
 30
0.0
 10
21.861726
 20
9.392347
 30
0.0
 10
21.676920
 20
8.783952
 30
0.0
 10
21.660135
 20
7.849658
 30
0.0
 10
21.662520
 20
7.086215
 30
0.0
 10
21.664112
 20
6.576456
 30
0.0
 11
25.361083
 21
10.540803
 31
0.0
 11
25.205751
 21
10.585138
 31
0.0
 11
25.018931
 21
10.629047
 31
0.0
 11
24.841170
 21
10.662752
 31
0.0
 11
24.357883
 21
10.690676
 31
0.0
 11
23.784077
 21
10.668365
 31
0.0
 11
23.366107
 21
10.605602
 31
0.0
 11
22.698579
 21
10.309454
 31
0.0
 11
22.196698
 21
9.885881
 31
0.0
 11
21.862255
 21
9.336222
 31
0.0
 11
21.721183
 21
8.869622
 31
0.0
 11
21.666571
 21
8.108934
 31
0.0
 11
21.664112
 21
6.576456
 31
0.0
  0
SPLINE
  5
13f
100
AcDbEntity
  8
Layer_1
 62
7
100
AcDbSpline
 70
0
 71
3
 72
13
 73
9
 74
7
 40
0.000000
 40
0.000000
 40
0.000000
 40
0.000000
 40
0.580645
 40
1.121209
 40
1.670074
 40
2.314129
 40
2.948536
 40
3.728303
 40
3.728303
 40
3.728303
 40
3.728303
 10
21.778144
 20
4.354718
 30
0.0
 10
21.848813
 20
4.173584
 30
0.0
 10
21.985272
 20
3.823820
 30
0.0
 10
22.343844
 20
3.384281
 30
0.0
 10
22.825916
 20
3.057545
 30
0.0
 10
23.386448
 20
2.809937
 30
0.0
 10
24.063331
 20
2.668946
 30
0.0
 10
24.535603
 20
2.665746
 30
0.0
 10
24.796011
 20
2.663981
 30
0.0
 11
21.778144
 21
4.354718
 31
0.0
 11
22.018114
 21
3.825981
 31
0.0
 11
22.359064
 21
3.406501
 31
0.0
 11
22.806680
 21
3.088867
 31
0.0
 11
23.396584
 21
2.830369
 31
0.0
 11
24.016976
 21
2.697755
 31
0.0
 11
24.796011
 21
2.663981
 31
0.0
  0
LINE
  5
140
100
AcDbEntity
  8
Layer_1
 62
7
100
AcDbLine
 10
26.242848
 20
2.762533
 30
0.0
 11
26.950178
 21
2.831508
 31
0.0
  0
LINE
  5
141
100
AcDbEntity
  8
Layer_1
 62
7
100
AcDbLine
 10
26.950178
 20
2.831508
 30
0.0
 11
26.950178
 21
8.216647
 31
0.0
  0
LINE
  5
142
100
AcDbEntity
  8
Layer_1
 62
7
100
AcDbLine
 10
26.950178
 20
8.216647
 30
0.0
 11
26.950178
 21
13.601842
 31
0.0
  0
LINE
  5
143
100
AcDbEntity
  8
Layer_1
 62
7
100
AcDbLine
 10
26.950178
 20
13.601842
 30
0.0
 11
26.950177
 21
13.601701
 31
0.0
  0
LINE
  5
144
100
AcDbEntity
  8
Layer_1
 62
7
100
AcDbLine
 10
17.800046
 20
13.601701
 30
0.0
 11
17.100054
 21
13.601701
 31
0.0
  0
LINE
  5
145
100
AcDbEntity
  8
Layer_1
 62
7
100
AcDbLine
 10
17.100054
 20
13.601701
 30
0.0
 11
16.400627
 21
13.601701
 31
0.0
  0
LINE
  5
146
100
AcDbEntity
  8
Layer_1
 62
7
100
AcDbLine
 10
16.400627
 20
13.601701
 30
0.0
 11
16.400627
 21
12.090090
 31
0.0
  0
LINE
  5
147
100
AcDbEntity
  8
Layer_1
 62
7
100
AcDbLine
 10
16.400627
 20
12.090090
 30
0.0
 11
16.400627
 21
10.578508
 31
0.0
  0
LINE
  5
148
100
AcDbEntity
  8
Layer_1
 62
7
100
AcDbLine
 10
16.400627
 20
10.578508
 30
0.0
 11
15.665636
 21
10.578508
 31
0.0
  0
SPLINE
  5
149
100
AcDbEntity
  8
Layer_1
 62
7
100
AcDbSpline
 70
0
 71
3
 72
13
 73
9
 74
7
 40
0.000000
 40
0.000000
 40
0.000000
 40
0.000000
 40
0.324341
 40
0.569912
 40
0.683925
 40
0.809792
 40
1.085587
 40
1.451495
 40
1.451495
 40
1.451495
 40
1.451495
 10
24.796011
 20
2.663981
 30
0.0
 10
24.904122
 20
2.665370
 30
0.0
 10
25.094088
 20
2.667811
 30
0.0
 10
25.321970
 20
2.672070
 30
0.0
 10
25.483767
 20
2.679504
 30
0.0
 10
25.653880
 20
2.705237
 30
0.0
 10
25.908722
 20
2.728419
 30
0.0
 10
26.121512
 20
2.750145
 30
0.0
 10
26.242848
 20
2.762533
 30
0.0
 11
24.796011
 21
2.663981
 31
0.0
 11
25.120321
 21
2.668507
 31
0.0
 11
25.365820
 21
2.674413
 31
0.0
 11
25.479632
 21
2.681197
 31
0.0
 11
25.604505
 21
2.696978
 31
0.0
 11
25.878755
 21
2.726131
 31
0.0
 11
26.242848
 21
2.762533
 31
0.0
  0
LINE
  5
14a
100
AcDbEntity
  8
Layer_1
 62
7
100
AcDbLine
 10
15.853054
 20
9.145864
 30
0.0
 11
16.403450
 21
9.145864
 31
0.0
  0
LINE
  5
14b
100
AcDbEntity
  8
Layer_1
 62
7
100
AcDbLine
 10
16.403450
 20
9.145864
 30
0.0
 11
16.392726
 21
6.866383
 31
0.0
  0
LINE
  5
14c
100
AcDbEntity
  8
Layer_1
 62
7
100
AcDbLine
 10
16.392726
 20
6.866383
 30
0.0
 11
16.382566
 21
4.586902
 31
0.0
  0
LINE
  5
14d
100
AcDbEntity
  8
Layer_1
 62
7
100
AcDbLine
 10
16.382566
 20
4.586902
 30
0.0
 11
16.289422
 21
4.389488
 31
0.0
  0
SPLINE
  5
14e
100
AcDbEntity
  8
Layer_1
 62
7
100
AcDbSpline
 70
0
 71
3
 72
16
 73
12
 74
10
 40
0.000000
 40
0.000000
 40
0.000000
 40
0.000000
 40
0.441205
 40
0.670393
 40
0.742123
 40
1.116916
 40
1.759921
 40
2.132136
 40
2.219489
 40
2.424141
 40
2.706630
 40
2.706630
 40
2.706630
 40
2.706630
 10
15.665636
 20
10.578508
 30
0.0
 10
15.518293
 20
10.574050
 30
0.0
 10
15.294410
 20
10.567276
 30
0.0
 10
15.048741
 20
10.582483
 30
0.0
 10
14.821892
 20
10.490570
 30
0.0
 10
15.118911
 20
10.020116
 30
0.0
 10
15.189706
 20
9.695128
 30
0.0
 10
15.175278
 20
9.191614
 30
0.0
 10
15.408190
 20
9.157243
 30
0.0
 10
15.595082
 20
9.148800
 30
0.0
 10
15.758366
 20
9.146942
 30
0.0
 10
15.853054
 20
9.145864
 30
0.0
 11
15.665636
 21
10.578508
 31
0.0
 11
15.224454
 21
10.574018
 31
0.0
 11
14.995800
 21
10.558389
 31
0.0
 11
14.930645
 21
10.528386
 31
0.0
 11
15.015198
 21
10.163255
 31
0.0
 11
15.177426
 21
9.541051
 31
0.0
 11
15.281206
 21
9.183597
 31
0.0
 11
15.366396
 21
9.164281
 31
0.0
 11
15.570609
 21
9.150880
 31
0.0
 11
15.853054
 21
9.145864
 31
0.0
  0
LINE
  5
14f
100
AcDbEntity
  8
Layer_1
 62
7
100
AcDbLine
 10
17.788194
 20
8.936680
 30
0.0
 11
17.800050
 21
13.601729
 31
0.0
  0
LINE
  5
150
100
AcDbEntity
  8
Layer_1
 62
7
100
AcDbLine
 10
17.800050
 20
13.601729
 30
0.0
 11
17.800046
 21
13.601701
 31
0.0
  0
LINE
  5
151
100
AcDbEntity
  8
Layer_1
 62
7
100
AcDbLine
 10
8.009764
 20
10.697550
 30
0.0
 11
7.747828
 21
10.697550
 31
0.0
  0
SPLINE
  5
152
100
AcDbEntity
  8
Layer_1
 62
7
100
AcDbSpline
 70
0
 71
3
 72
25
 73
21
 74
19
 40
0.000000
 40
0.000000
 40
0.000000
 40
0.000000
 40
0.276155
 40
0.560751
 40
0.858412
 40
0.990523
 40
1.068938
 40
1.116914
 40
1.424099
 40
1.948052
 40
2.283075
 40
2.337328
 40
2.440806
 40
2.701649
 40
3.463427
 40
4.138043
 40
4.881690
 40
5.302945
 40
6.681078
 40
9.757391
 40
9.757391
 40
9.757391
 40
9.757391
 10
16.289422
 20
4.389488
 30
0.0
 10
16.241369
 20
4.310109
 30
0.0
 10
16.143797
 20
4.148927
 30
0.0
 10
15.907528
 20
3.975352
 30
0.0
 10
15.678210
 20
3.897418
 30
0.0
 10
15.517683
 20
3.858917
 30
0.0
 10
15.429622
 20
3.828799
 30
0.0
 10
15.370874
 20
3.687191
 30
0.0
 10
15.553843
 20
3.407010
 30
0.0
 10
15.650080
 20
3.045366
 30
0.0
 10
15.723559
 20
2.747517
 30
0.0
 10
15.833998
 20
2.610573
 30
0.0
 10
15.989247
 20
2.651368
 30
0.0
 10
16.339995
 20
2.699682
 30
0.0
 10
16.909034
 20
2.876558
 30
0.0
 10
17.453404
 20
3.377689
 30
0.0
 10
17.732313
 20
3.951670
 30
0.0
 10
17.774362
 20
4.802896
 30
0.0
 10
17.778206
 20
6.425005
 30
0.0
 10
17.784114
 20
7.910662
 30
0.0
 10
17.788194
 20
8.936680
 30
0.0
 11
16.289422
 21
4.389488
 31
0.0
 11
16.131497
 21
4.162945
 31
0.0
 11
15.904757
 21
3.990946
 31
0.0
 11
15.626123
 21
3.886229
 31
0.0
 11
15.498667
 21
3.851471
 31
0.0
 11
15.429234
 21
3.815032
 31
0.0
 11
15.408223
 21
3.771901
 31
0.0
 11
15.494467
 21
3.477072
 31
0.0
 11
15.665012
 21
2.981651
 31
0.0
 11
15.787573
 21
2.669851
 31
0.0
 11
15.825704
 21
2.631258
 31
0.0
 11
15.929134
 21
2.634427
 31
0.0
 11
16.185552
 21
2.682269
 31
0.0
 11
16.903688
 21
2.936408
 31
0.0
 11
17.404692
 21
3.388184
 31
0.0
 11
17.717066
 21
4.063041
 31
0.0
 11
17.756987
 21
4.482401
 31
0.0
 11
17.777097
 21
5.860387
 31
0.0
 11
17.788194
 21
8.936680
 31
0.0
  0
LINE
  5
153
100
AcDbEntity
  8
Layer_1
 62
7
100
AcDbLine
 10
6.536956
 20
8.601231
 30
0.0
 11
6.359136
 21
8.503413
 31
0.0
  0
LINE
  5
154
100
AcDbEntity
  8
Layer_1
 62
7
100
AcDbLine
 10
6.359136
 20
8.503413
 30
0.0
 11
6.385665
 21
8.635436
 31
0.0
  0
SPLINE
  5
155
100
AcDbEntity
  8
Layer_1
 62
7
100
AcDbSpline
 70
0
 71
3
 72
37
 73
33
 74
31
 40
0.000000
 40
0.000000
 40
0.000000
 40
0.000000
 40
1.130966
 40
2.086590
 40
2.960222
 40
3.510028
 40
4.473839
 40
6.699111
 40
8.124122
 40
9.149300
 40
9.552845
 40
10.268169
 40
11.590635
 40
12.631927
 40
13.811050
 40
14.801611
 40
15.837589
 40
16.111673
 40
16.526166
 40
17.321015
 40
18.082439
 40
18.509066
 40
18.768874
 40
19.513481
 40
20.179890
 40
20.878999
 40
21.328813
 40
21.899468
 40
22.403244
 40
22.790099
 40
23.178914
 40
23.501635
 40
23.501635
 40
23.501635
 40
23.501635
 10
7.747828
 20
10.697550
 30
0.0
 10
7.369556
 20
10.673379
 30
0.0
 10
6.671660
 20
10.628786
 30
0.0
 10
5.749024
 20
10.186637
 30
0.0
 10
5.260015
 20
9.528748
 30
0.0
 10
5.005450
 20
8.766967
 30
0.0
 10
4.999264
 20
7.506386
 30
0.0
 10
4.990598
 20
5.989735
 30
0.0
 10
4.948665
 20
4.391910
 30
0.0
 10
5.027964
 20
3.515535
 30
0.0
 10
4.899551
 20
2.665282
 30
0.0
 10
6.026890
 20
2.813826
 30
0.0
 10
6.896330
 20
2.657476
 30
0.0
 10
8.119524
 20
2.662988
 30
0.0
 10
9.171919
 20
2.912160
 30
0.0
 10
10.057299
 20
3.583116
 30
0.0
 10
10.371973
 20
4.314179
 30
0.0
 10
10.484097
 20
4.878339
 30
0.0
 10
10.494282
 20
5.374556
 30
0.0
 10
10.498174
 20
6.030691
 30
0.0
 10
10.495977
 20
6.691390
 30
0.0
 10
10.488797
 20
7.175002
 30
0.0
 10
10.415960
 20
7.646904
 30
0.0
 10
10.216250
 20
8.180575
 30
0.0
 10
9.736054
 20
8.715501
 30
0.0
 10
9.172907
 20
8.985629
 30
0.0
 10
8.599628
 20
9.045993
 30
0.0
 10
8.091534
 20
9.042695
 30
0.0
 10
7.604573
 20
8.991124
 30
0.0
 10
7.195419
 20
8.867671
 30
0.0
 10
6.848146
 20
8.750321
 30
0.0
 10
6.634057
 20
8.647752
 30
0.0
 10
6.536956
 20
8.601231
 30
0.0
 11
7.747828
 21
10.697550
 31
0.0
 11
6.626984
 21
10.546579
 31
0.0
 11
5.776452
 21
10.110904
 31
0.0
 11
5.246489
 21
9.416374
 31
0.0
 11
5.070564
 21
8.895473
 31
0.0
 11
5.001286
 21
7.934155
 31
0.0
 11
4.979476
 21
5.708990
 31
0.0
 11
4.975542
 21
4.283985
 31
0.0
 11
4.980739
 21
3.258820
 31
0.0
 11
4.994152
 21
2.855497
 31
0.0
 11
5.701482
 21
2.748856
 31
0.0
 11
7.022252
 21
2.681920
 31
0.0
 11
8.063389
 21
2.699908
 31
0.0
 11
9.200682
 21
3.011188
 31
0.0
 11
9.977253
 21
3.626126
 31
0.0
 11
10.417393
 21
4.563958
 31
0.0
 11
10.468624
 21
4.833211
 31
0.0
 11
10.490975
 21
5.247100
 31
0.0
 11
10.496988
 21
6.041927
 31
0.0
 11
10.493727
 21
6.803344
 31
0.0
 11
10.475789
 21
7.229593
 31
0.0
 11
10.436023
 21
7.486340
 31
0.0
 11
10.164451
 21
8.179657
 31
0.0
 11
9.716616
 21
8.673160
 31
0.0
 11
9.085716
 21
8.974357
 31
0.0
 11
8.639923
 21
9.034362
 31
0.0
 11
8.069271
 21
9.032510
 31
0.0
 11
7.569444
 21
8.969559
 31
0.0
 11
7.196745
 21
8.865864
 31
0.0
 11
6.830497
 21
8.735332
 31
0.0
 11
6.536956
 21
8.601231
 31
0.0
  0
LINE
  5
156
100
AcDbEntity
  8
Layer_1
 62
7
100
AcDbLine
 10
7.716780
 20
9.593666
 30
0.0
 11
8.093872
 21
9.639047
 31
0.0
  0
LINE
  5
157
100
AcDbEntity
  8
Layer_1
 62
7
100
AcDbLine
 10
8.093872
 20
9.639047
 30
0.0
 11
8.093872
 21
9.768700
 31
0.0
  0
SPLINE
  5
158
100
AcDbEntity
  8
Layer_1
 62
7
100
AcDbSpline
 70
0
 71
3
 72
10
 73
6
 74
4
 40
0.000000
 40
0.000000
 40
0.000000
 40
0.000000
 40
0.519107
 40
1.064473
 40
1.754576
 40
1.754576
 40
1.754576
 40
1.754576
 10
6.385665
 20
8.635436
 30
0.0
 10
6.443009
 20
8.803287
 30
0.0
 10
6.560596
 20
9.147479
 30
0.0
 10
7.083390
 20
9.485173
 30
0.0
 10
7.489781
 20
9.554783
 30
0.0
 10
7.716780
 20
9.593666
 30
0.0
 11
6.385665
 21
8.635436
 31
0.0
 11
6.605160
 21
9.105856
 31
0.0
 11
7.047721
 21
9.424546
 31
0.0
 11
7.716780
 21
9.593666
 31
0.0
  0
LINE
  5
159
100
AcDbEntity
  8
Layer_1
 62
7
100
AcDbLine
 10
8.051536
 20
10.297895
 30
0.0
 11
8.009764
 21
10.697465
 31
0.0
  0
LINE
  5
15a
100
AcDbEntity
  8
Layer_1
 62
7
100
AcDbLine
 10
8.009764
 20
10.697465
 30
0.0
 11
8.009764
 21
10.697550
 31
0.0
  0
SPLINE
  5
15b
100
AcDbEntity
  8
Layer_1
 62
7
100
AcDbSpline
 70
0
 71
3
 72
10
 73
6
 74
4
 40
0.000000
 40
0.000000
 40
0.000000
 40
0.000000
 40
0.120257
 40
0.311000
 40
0.530975
 40
0.530975
 40
0.530975
 40
0.530975
 10
8.093872
 20
9.768700
 30
0.0
 10
8.092151
 20
9.808752
 30
0.0
 10
8.087700
 20
9.912332
 30
0.0
 10
8.072237
 20
10.088695
 30
0.0
 10
8.058756
 20
10.224929
 30
0.0
 10
8.051536
 20
10.297895
 30
0.0
 11
8.093872
 21
9.768700
 31
0.0
 11
8.088020
 21
9.888815
 31
0.0
 11
8.072761
 21
10.078946
 31
0.0
 11
8.051536
 21
10.297895
 31
0.0
  0
SPLINE
  5
15c
100
AcDbEntity
  8
Layer_1
 62
7
100
AcDbSpline
 70
0
 71
3
 72
22
 73
18
 74
16
 40
0.000000
 40
0.000000
 40
0.000000
 40
0.000000
 40
0.286587
 40
0.588416
 40
0.906429
 40
1.038760
 40
1.106650
 40
1.180560
 40
1.568758
 40
2.183910
 40
2.529253
 40
2.570773
 40
2.662818
 40
2.786655
 40
2.963687
 40
3.162815
 40
3.409561
 40
3.409561
 40
3.409561
 40
3.409561
 10
11.205451
 20
10.692752
 30
0.0
 10
11.110011
 20
10.687673
 30
0.0
 10
10.914055
 20
10.677245
 30
0.0
 10
10.614455
 20
10.638182
 30
0.0
 10
10.367987
 20
10.584087
 30
0.0
 10
10.199872
 20
10.556357
 30
0.0
 10
10.114357
 20
10.503176
 30
0.0
 10
10.116081
 20
10.311994
 30
0.0
 10
10.200162
 20
9.960313
 30
0.0
 10
10.363577
 20
9.610620
 30
0.0
 10
10.317457
 20
9.109625
 30
0.0
 10
10.485541
 20
9.112874
 30
0.0
 10
10.567317
 20
9.135780
 30
0.0
 10
10.692808
 20
9.174520
 30
0.0
 10
10.853666
 20
9.218959
 30
0.0
 10
11.060985
 20
9.240793
 30
0.0
 10
11.209583
 20
9.242598
 30
0.0
 10
11.291816
 20
9.243597
 30
0.0
 11
11.205451
 21
10.692752
 31
0.0
 11
10.919479
 21
10.673974
 31
0.0
 11
10.620224
 21
10.634643
 31
0.0
 11
10.307880
 21
10.574868
 31
0.0
 11
10.180056
 21
10.540621
 31
0.0
 11
10.126481
 21
10.498925
 31
0.0
 11
10.115943
 21
10.425770
 31
0.0
 11
10.188924
 21
10.044494
 31
0.0
 11
10.330399
 21
9.445831
 31
0.0
 11
10.425860
 21
9.113944
 31
0.0
 11
10.467379
 21
9.113592
 31
0.0
 11
10.557283
 21
9.133328
 31
0.0
 11
10.675937
 21
9.168780
 31
0.0
 11
10.847483
 21
9.212511
 31
0.0
 11
11.045177
 21
9.236367
 31
0.0
 11
11.291816
 21
9.243597
 31
0.0
  0
LINE
  5
15d
100
AcDbEntity
  8
Layer_1
 62
7
100
AcDbLine
 10
12.615027
 20
5.517953
 30
0.0
 11
12.615027
 21
2.819457
 31
0.0
  0
LINE
  5
15e
100
AcDbEntity
  8
Layer_1
 62
7
100
AcDbLine
 10
12.615027
 20
2.819457
 30
0.0
 11
13.295262
 21
2.819457
 31
0.0
  0
LINE
  5
15f
100
AcDbEntity
  8
Layer_1
 62
7
100
AcDbLine
 10
13.295262
 20
2.819457
 30
0.0
 11
13.974367
 21
2.819457
 31
0.0
  0
LINE
  5
160
100
AcDbEntity
  8
Layer_1
 62
7
100
AcDbLine
 10
13.974367
 20
2.819457
 30
0.0
 11
13.974367
 21
6.700098
 31
0.0
  0
LINE
  5
161
100
AcDbEntity
  8
Layer_1
 62
7
100
AcDbLine
 10
13.974367
 20
6.700098
 30
0.0
 11
13.974367
 21
10.579609
 31
0.0
  0
LINE
  5
162
100
AcDbEntity
  8
Layer_1
 62
7
100
AcDbLine
 10
13.974367
 20
10.579609
 30
0.0
 11
13.322358
 21
10.568884
 31
0.0
  0
SPLINE
  5
163
100
AcDbEntity
  8
Layer_1
 62
7
100
AcDbSpline
 70
0
 71
3
 72
13
 73
9
 74
7
 40
0.000000
 40
0.000000
 40
0.000000
 40
0.000000
 40
0.424494
 40
0.764969
 40
1.124706
 40
1.517602
 40
2.358363
 40
4.530279
 40
4.530279
 40
4.530279
 40
4.530279
 10
11.291816
 20
9.243597
 30
0.0
 10
11.433882
 20
9.239639
 30
0.0
 10
11.689894
 20
9.232508
 30
0.0
 10
12.050180
 20
9.098913
 30
0.0
 10
12.323613
 20
8.853134
 30
0.0
 10
12.648536
 20
8.412515
 30
0.0
 10
12.565707
 20
7.217157
 30
0.0
 10
12.594366
 20
6.229779
 30
0.0
 10
12.615027
 20
5.517953
 30
0.0
 11
11.291816
 21
9.243597
 31
0.0
 11
11.714637
 21
9.205940
 31
0.0
 11
12.032389
 21
9.083642
 31
0.0
 11
12.307370
 21
8.851703
 31
0.0
 11
12.528648
 21
8.527044
 31
0.0
 11
12.606022
 21
7.689851
 31
0.0
 11
12.615027
 21
5.517953
 31
0.0
  0
LINE
  5
164
100
AcDbEntity
  8
Layer_1
 62
7
100
AcDbLine
 10
12.658495
 20
10.472252
 30
0.0
 11
12.647206
 21
10.386795
 31
0.0
  0
LINE
  5
165
100
AcDbEntity
  8
Layer_1
 62
7
100
AcDbLine
 10
12.647206
 20
10.386795
 30
0.0
 11
12.437771
 21
10.478743
 31
0.0
  0
SPLINE
  5
166
100
AcDbEntity
  8
Layer_1
 62
7
100
AcDbSpline
 70
0
 71
3
 72
10
 73
6
 74
4
 40
0.000000
 40
0.000000
 40
0.000000
 40
0.000000
 40
0.452746
 40
0.630327
 40
0.700038
 40
0.700038
 40
0.700038
 40
0.700038
 10
13.322358
 20
10.568884
 30
0.0
 10
13.180737
 20
10.557426
 30
0.0
 10
12.983567
 20
10.541473
 30
0.0
 10
12.704858
 20
10.574120
 30
0.0
 10
12.668690
 20
10.494653
 30
0.0
 10
12.658495
 20
10.472252
 30
0.0
 11
13.322358
 21
10.568884
 31
0.0
 11
12.869746
 21
10.557905
 31
0.0
 11
12.694031
 21
10.532225
 31
0.0
 11
12.658495
 21
10.472252
 31
0.0
  0
LINE
  5
167
100
AcDbEntity
  8
Layer_1
 62
7
100
AcDbLine
 10
11.205451
 20
10.692667
 30
0.0
 11
11.205451
 21
10.692752
 31
0.0
  0
LINE
  5
168
100
AcDbEntity
  8
Layer_1
 62
7
100
AcDbLine
 10
20.517594
 20
10.578424
 30
0.0
 11
19.818731
 21
10.578424
 31
0.0
  0
LINE
  5
169
100
AcDbEntity
  8
Layer_1
 62
7
100
AcDbLine
 10
19.818731
 20
10.578424
 30
0.0
 11
19.120433
 21
10.578424
 31
0.0
  0
LINE
  5
16a
100
AcDbEntity
  8
Layer_1
 62
7
100
AcDbLine
 10
19.120433
 20
10.578424
 30
0.0
 11
19.129464
 21
6.708367
 31
0.0
  0
LINE
  5
16b
100
AcDbEntity
  8
Layer_1
 62
7
100
AcDbLine
 10
19.129464
 20
6.708367
 30
0.0
 11
19.139627
 21
2.838902
 31
0.0
  0
LINE
  5
16c
100
AcDbEntity
  8
Layer_1
 62
7
100
AcDbLine
 10
19.139627
 20
2.838902
 30
0.0
 11
19.803490
 21
2.828460
 31
0.0
  0
SPLINE
  5
16d
100
AcDbEntity
  8
Layer_1
 62
7
100
AcDbSpline
 70
0
 71
3
 72
10
 73
6
 74
4
 40
0.000000
 40
0.000000
 40
0.000000
 40
0.000000
 40
0.395822
 40
0.812676
 40
1.260058
 40
1.260058
 40
1.260058
 40
1.260058
 10
12.437771
 20
10.478743
 30
0.0
 10
12.314177
 20
10.525592
 30
0.0
 10
12.060421
 20
10.621781
 30
0.0
 10
11.642935
 20
10.690700
 30
0.0
 10
11.354673
 20
10.691996
 30
0.0
 10
11.205451
 20
10.692667
 30
0.0
 11
12.437771
 21
10.478743
 31
0.0
 11
12.063311
 21
10.607018
 31
0.0
 11
11.652602
 21
10.678334
 31
0.0
 11
11.205451
 21
10.692667
 31
0.0
  0
LINE
  5
16e
100
AcDbEntity
  8
Layer_1
 62
7
100
AcDbLine
 10
20.517594
 20
6.725187
 30
0.0
 11
20.517594
 21
10.578734
 31
0.0
  0
LINE
  5
16f
100
AcDbEntity
  8
Layer_1
 62
7
100
AcDbLine
 10
20.517594
 20
10.578734
 30
0.0
 11
20.517594
 21
10.578424
 31
0.0
  0
SPLINE
  5
170
100
AcDbEntity
  8
Layer_1
 62
7
100
AcDbSpline
 70
0
 71
3
 72
13
 73
9
 74
7
 40
0.000000
 40
0.000000
 40
0.000000
 40
0.000000
 40
0.337899
 40
0.585598
 40
0.690156
 40
1.232094
 40
2.625991
 40
4.570410
 40
4.570410
 40
4.570410
 40
4.570410
 10
19.803490
 20
2.828460
 30
0.0
 10
19.917078
 20
2.827109
 30
0.0
 10
20.113934
 20
2.824767
 30
0.0
 10
20.335767
 20
2.829149
 30
0.0
 10
20.660361
 20
2.844997
 30
0.0
 10
20.334836
 20
3.830256
 30
0.0
 10
20.601202
 20
4.886475
 30
0.0
 10
20.548367
 20
6.048411
 30
0.0
 10
20.517594
 20
6.725187
 30
0.0
 11
19.803490
 21
2.828460
 31
0.0
 11
20.141382
 21
2.826424
 31
0.0
 11
20.389018
 21
2.832039
 31
0.0
 11
20.492756
 21
2.845111
 31
0.0
 11
20.505378
 21
3.386902
 31
0.0
 11
20.514246
 21
4.780771
 31
0.0
 11
20.517594
 21
6.725187
 31
0.0
  0
LINE
  5
171
100
AcDbEntity
  8
Layer_1
 62
7
100
AcDbLine
 10
25.449711
 20
9.079795
 30
0.0
 11
25.663660
 21
8.976050
 31
0.0
  0
LINE
  5
172
100
AcDbEntity
  8
Layer_1
 62
7
100
AcDbLine
 10
25.663660
 20
8.976050
 30
0.0
 11
25.663660
 21
6.516822
 31
0.0
  0
LINE
  5
173
100
AcDbEntity
  8
Layer_1
 62
7
100
AcDbLine
 10
25.663660
 20
6.516822
 30
0.0
 11
25.663660
 21
4.057594
 31
0.0
  0
LINE
  5
174
100
AcDbEntity
  8
Layer_1
 62
7
100
AcDbLine
 10
25.663660
 20
4.057594
 30
0.0
 11
25.488662
 21
4.032194
 31
0.0
  0
SPLINE
  5
175
100
AcDbEntity
  8
Layer_1
 62
7
100
AcDbSpline
 70
0
 71
3
 72
10
 73
6
 74
4
 40
0.000000
 40
0.000000
 40
0.000000
 40
0.000000
 40
0.342431
 40
0.684129
 40
1.015266
 40
1.015266
 40
1.015266
 40
1.015266
 10
24.466336
 20
9.304303
 30
0.0
 10
24.580323
 20
9.297101
 30
0.0
 10
24.808053
 20
9.282712
 30
0.0
 10
25.140840
 20
9.209880
 30
0.0
 10
25.347837
 20
9.122701
 30
0.0
 10
25.449711
 20
9.079795
 30
0.0
 11
24.466336
 21
9.304303
 31
0.0
 11
24.807424
 21
9.274006
 31
0.0
 11
25.140808
 21
9.199086
 31
0.0
 11
25.449711
 21
9.079795
 31
0.0
  0
SPLINE
  5
176
100
AcDbEntity
  8
Layer_1
 62
7
100
AcDbSpline
 70
0
 71
3
 72
13
 73
9
 74
7
 40
0.000000
 40
0.000000
 40
0.000000
 40
0.000000
 40
0.094079
 40
0.171227
 40
0.214892
 40
0.292478
 40
0.459686
 40
0.680593
 40
0.680593
 40
0.680593
 40
0.680593
 10
25.488662
 20
4.032194
 30
0.0
 10
25.457693
 20
4.027311
 30
0.0
 10
25.401328
 20
4.018422
 30
0.0
 10
25.330522
 20
4.007061
 30
0.0
 10
25.266876
 20
3.988333
 30
0.0
 10
25.170269
 20
3.983205
 30
0.0
 10
25.015515
 20
3.976662
 30
0.0
 10
24.886062
 20
3.975937
 30
0.0
 10
24.812380
 20
3.975524
 30
0.0
 11
25.488662
 21
4.032194
 31
0.0
 11
25.395739
 21
4.017494
 31
0.0
 11
25.319918
 21
4.003245
 31
0.0
 11
25.277536
 21
3.992740
 31
0.0
 11
25.200348
 21
3.984890
 31
0.0
 11
25.033270
 21
3.978294
 31
0.0
 11
24.812380
 21
3.975524
 31
0.0
  0
LINE
  5
177
100
AcDbEntity
  8
Layer_1
 62
7
100
AcDbLine
 10
23.069176
 20
4.698606
 30
0.0
 11
22.961919
 21
4.907817
 31
0.0
  0
LINE
  5
178
100
AcDbEntity
  8
Layer_1
 62
7
100
AcDbLine
 10
22.961919
 20
4.907817
 30
0.0
 11
22.961919
 21
6.579109
 31
0.0
  0
SPLINE
  5
179
100
AcDbEntity
  8
Layer_1
 62
7
100
AcDbSpline
 70
0
 71
3
 72
10
 73
6
 74
4
 40
0.000000
 40
0.000000
 40
0.000000
 40
0.000000
 40
0.803158
 40
1.434044
 40
1.976368
 40
1.976368
 40
1.976368
 40
1.976368
 10
24.812380
 20
3.975524
 30
0.0
 10
24.545688
 20
3.985888
 30
0.0
 10
24.069507
 20
4.004393
 30
0.0
 10
23.415785
 20
4.229745
 30
0.0
 10
23.178748
 20
4.550387
 30
0.0
 10
23.069176
 20
4.698606
 30
0.0
 11
24.812380
 21
3.975524
 31
0.0
 11
24.012881
 21
4.052102
 31
0.0
 11
23.430163
 21
4.293879
 31
0.0
 11
23.069176
 21
4.698606
 31
0.0
  0
LINE
  5
17a
100
AcDbEntity
  8
Layer_1
 62
7
100
AcDbLine
 10
24.466336
 20
9.304134
 30
0.0
 11
24.466336
 21
9.304303
 31
0.0
  0
SPLINE
  5
17b
100
AcDbEntity
  8
Layer_1
 62
7
100
AcDbSpline
 70
0
 71
3
 72
16
 73
12
 74
10
 40
0.000000
 40
0.000000
 40
0.000000
 40
0.000000
 40
1.115501
 40
1.642902
 40
1.880830
 40
2.170884
 40
2.474610
 40
2.750997
 40
3.035638
 40
3.348013
 40
3.680464
 40
3.680464
 40
3.680464
 40
3.680464
 10
22.961919
 20
6.579109
 30
0.0
 10
22.963616
 20
6.950933
 30
0.0
 10
22.966114
 20
7.498553
 30
0.0
 10
22.966208
 20
8.125533
 30
0.0
 10
23.019838
 20
8.476301
 30
0.0
 10
23.150084
 20
8.725917
 30
0.0
 10
23.330377
 20
8.954421
 30
0.0
 10
23.558795
 20
9.137274
 30
0.0
 10
23.834851
 20
9.239079
 30
0.0
 10
24.139935
 20
9.299842
 30
0.0
 10
24.355301
 20
9.302674
 30
0.0
 10
24.466336
 20
9.304134
 30
0.0
 11
22.961919
 21
6.579109
 31
0.0
 11
22.965894
 21
7.694603
 31
0.0
 11
22.984672
 21
8.221669
 31
0.0
 11
23.028531
 21
8.455520
 31
0.0
 11
23.155111
 21
8.716497
 31
0.0
 11
23.345097
 21
8.953466
 31
0.0
 11
23.563686
 21
9.122608
 31
0.0
 11
23.827736
 21
9.228900
 31
0.0
 11
24.134216
 21
9.289301
 31
0.0
 11
24.466336
 21
9.304134
 31
0.0
  0
LINE
  5
17c
100
AcDbEntity
  8
Layer_1
 62
7
100
AcDbLine
 10
6.374376
 20
4.034622
 30
0.0
 11
6.291395
 21
4.062279
 31
0.0
  0
LINE
  5
17d
100
AcDbEntity
  8
Layer_1
 62
7
100
AcDbLine
 10
6.291395
 20
4.062279
 30
0.0
 11
6.300990
 21
5.558565
 31
0.0
  0
LINE
  5
17e
100
AcDbEntity
  8
Layer_1
 62
7
100
AcDbLine
 10
6.300990
 20
5.558565
 30
0.0
 11
6.311150
 21
7.054851
 31
0.0
  0
LINE
  5
17f
100
AcDbEntity
  8
Layer_1
 62
7
100
AcDbLine
 10
6.311150
 20
7.054851
 30
0.0
 11
6.660016
 21
7.223394
 31
0.0
  0
SPLINE
  5
180
100
AcDbEntity
  8
Layer_1
 62
7
100
AcDbSpline
 70
0
 71
3
 72
25
 73
21
 74
19
 40
0.000000
 40
0.000000
 40
0.000000
 40
0.000000
 40
0.393208
 40
0.677753
 40
0.950816
 40
1.237817
 40
1.649249
 40
2.394264
 40
2.979445
 40
3.264062
 40
3.467660
 40
3.903223
 40
4.339517
 40
4.821090
 40
5.026823
 40
5.314844
 40
5.740343
 40
6.094633
 40
6.369563
 40
6.505752
 40
6.505752
 40
6.505752
 40
6.505752
 10
8.130002
 20
7.610603
 30
0.0
 10
8.261303
 20
7.609925
 30
0.0
 10
8.487620
 20
7.608758
 30
0.0
 10
8.798944
 20
7.512002
 30
0.0
 10
9.005972
 20
7.311044
 30
0.0
 10
9.167127
 20
7.022599
 30
0.0
 10
9.197755
 20
6.532838
 30
0.0
 10
9.192268
 20
5.955634
 30
0.0
 10
9.183116
 20
5.418554
 30
0.0
 10
9.166569
 20
5.057592
 30
0.0
 10
9.056881
 20
4.767518
 30
0.0
 10
8.866323
 20
4.456639
 30
0.0
 10
8.501264
 20
4.177108
 30
0.0
 10
8.146119
 20
4.042657
 30
0.0
 10
7.824618
 20
3.989647
 30
0.0
 10
7.517630
 20
3.983167
 30
0.0
 10
7.161849
 20
3.988246
 30
0.0
 10
6.810597
 20
4.001754
 30
0.0
 10
6.555358
 20
4.011148
 30
0.0
 10
6.419411
 20
4.028780
 30
0.0
 10
6.374376
 20
4.034622
 30
0.0
 11
8.130002
 21
7.610603
 31
0.0
 11
8.522424
 21
7.585750
 31
0.0
 11
8.790752
 21
7.491062
 31
0.0
 11
8.992007
 21
7.306508
 31
0.0
 11
9.129425
 21
7.054545
 31
0.0
 11
9.187110
 21
6.647177
 31
0.0
 11
9.190714
 21
5.902171
 31
0.0
 11
9.177575
 21
5.317137
 31
0.0
 11
9.148176
 21
5.034043
 31
0.0
 11
9.080633
 21
4.841975
 31
0.0
 11
8.846315
 21
4.474809
 31
0.0
 11
8.503865
 21
4.204476
 31
0.0
 11
8.054358
 21
4.031686
 31
0.0
 11
7.851373
 21
3.998174
 31
0.0
 11
7.563630
 21
3.985509
 31
0.0
 11
7.138160
 21
3.990454
 31
0.0
 11
6.784080
 21
4.002664
 31
0.0
 11
6.509606
 21
4.018479
 31
0.0
 11
6.374376
 21
4.034622
 31
0.0
  0
LINE
  5
181
100
AcDbEntity
  8
Layer_1
 62
7
100
AcDbLine
 10
8.129999
 20
7.610575
 30
0.0
 11
8.130002
 21
7.610603
 31
0.0
  0
LINE
  5
182
100
AcDbEntity
  8
Layer_1
 62
7
100
AcDbLine
 10
0.334127
 20
25.625606
 30
0.0
 11
40.334126
 21
25.625606
 31
0.0
  0
LINE
  5
183
100
AcDbEntity
  8
Layer_1
 62
7
100
AcDbLine
 10
40.334126
 20
25.625606
 30
0.0
 11
40.334126
 21
0.625606
 31
0.0
  0
LINE
  5
184
100
AcDbEntity
  8
Layer_1
 62
7
100
AcDbLine
 10
40.334126
 20
0.625606
 30
0.0
 11
0.334127
 21
0.625606
 31
0.0
  0
LINE
  5
185
100
AcDbEntity
  8
Layer_1
 62
7
100
AcDbLine
 10
0.334127
 20
0.625606
 30
0.0
 11
0.334127
 21
25.625606
 31
0.0
  0
SPLINE
  5
186
100
AcDbEntity
  8
Layer_1
 62
7
100
AcDbSpline
 70
0
 71
3
 72
10
 73
6
 74
4
 40
0.000000
 40
0.000000
 40
0.000000
 40
0.000000
 40
0.562692
 40
1.063922
 40
1.531564
 40
1.531564
 40
1.531564
 40
1.531564
 10
6.660016
 20
7.223394
 30
0.0
 10
6.831323
 20
7.299961
 30
0.0
 10
7.155226
 20
7.444732
 30
0.0
 10
7.651030
 20
7.581672
 30
0.0
 10
7.974076
 20
7.601166
 30
0.0
 10
8.129999
 20
7.610575
 30
0.0
 11
6.660016
 21
7.223394
 31
0.0
 11
7.179676
 21
7.439209
 31
0.0
 11
7.664419
 21
7.566708
 31
0.0
 11
8.129999
 21
7.610575
 31
0.0
  0
ENDSEC
  0
SECTION
  2
OBJECTS
  0
DICTIONARY
  5
C
330
0
100
AcDbDictionary
  3
ACAD_GROUP
350
D
  3
ACAD_MLINESTYLE
350
17
  0
DICTIONARY
  5
D
330
C
100
AcDbDictionary
  0
DICTIONARY
  5
1A
330
C
100
AcDbDictionary
  0
DICTIONARY
  5
17
330
C
100
AcDbDictionary
  3
STANDARD
350
18
  0
DICTIONARY
  5
19
330
C
100
AcDbDictionary
  0
ENDSEC
  0
EOF
