<?xml version="1.0" encoding="UTF-8" standalone="no"?>
<!-- Created with Inkscape (http://www.inkscape.org/) -->

<svg
   xmlns:dc="http://purl.org/dc/elements/1.1/"
   xmlns:cc="http://creativecommons.org/ns#"
   xmlns:rdf="http://www.w3.org/1999/02/22-rdf-syntax-ns#"
   xmlns:svg="http://www.w3.org/2000/svg"
   xmlns="http://www.w3.org/2000/svg"
   xmlns:sodipodi="http://sodipodi.sourceforge.net/DTD/sodipodi-0.dtd"
   xmlns:inkscape="http://www.inkscape.org/namespaces/inkscape"
   width="41mm"
   height="47mm"
   viewBox="0 0 145.27559 166.53543"
   id="svg2"
   version="1.1"
   inkscape:version="0.91 r13725"
   sodipodi:docname="bitraf-hackerpassport-fnn.svg">
  <defs
     id="defs4" />
  <sodipodi:namedview
     id="base"
     pagecolor="#ffffff"
     bordercolor="#666666"
     borderopacity="1.0"
     inkscape:pageopacity="0.0"
     inkscape:pageshadow="2"
     inkscape:zoom="5.6"
     inkscape:cx="67.453138"
     inkscape:cy="50.79011"
     inkscape:document-units="mm"
     inkscape:current-layer="layer1"
     showgrid="false" />
  <metadata
     id="metadata7">
    <rdf:RDF>
      <cc:Work
         rdf:about="">
        <dc:format>image/svg+xml</dc:format>
        <dc:type
           rdf:resource="http://purl.org/dc/dcmitype/StillImage" />
        <dc:title></dc:title>
      </cc:Work>
    </rdf:RDF>
  </metadata>
  <g
     inkscape:label="Layer 1"
     inkscape:groupmode="layer"
     id="layer1"
     transform="translate(0,-885.82677)">
    <path
       style="color:#000000;clip-rule:nonzero;display:inline;overflow:visible;visibility:visible;opacity:1;isolation:auto;mix-blend-mode:normal;color-interpolation:sRGB;color-interpolation-filters:linearRGB;solid-color:#000000;solid-opacity:1;fill:#1946d0;fill-opacity:1;fill-rule:nonzero;stroke:none;stroke-width:1.04637814;stroke-linecap:butt;stroke-linejoin:miter;stroke-miterlimit:4;stroke-dasharray:none;stroke-dashoffset:0;stroke-opacity:1;color-rendering:auto;image-rendering:auto;shape-rendering:auto;text-rendering:auto;enable-background:accumulate"
       d="m 145.27559,960.23622 0,92.12598 -145.27559,0 0,-92.12598 z m -28.09635,8.40953 c -0.32285,-10e-4 -0.78764,0.0846 -1.50817,0.25685 -1.9941,0.47743 -2.99549,0.85842 -3.11836,1.18814 -0.15406,0.41341 -0.37254,2.21593 -0.46805,3.86304 l -0.078,1.3719 0.50206,0.28399 0.50205,0.2819 -0.04,1.47839 c -0.0219,0.81405 -0.15478,4.2644 -0.29403,7.66761 -0.13919,3.40327 -0.25203,6.47368 -0.25203,6.82192 l 0,0.63479 -1.16213,-0.10017 -1.16213,-0.0982 -0.8561,1.56192 c -1.0008,1.82514 -2.49427,4.98629 -2.6203,5.54398 -0.0745,0.32916 -0.0464,0.38839 0.18402,0.38839 0.22487,0 0.25965,0.0669 0.20602,0.3884 -0.0356,0.2131 -0.27105,1.7832 -0.52006,3.4892 -0.24901,1.7058 -0.47983,3.2318 -0.51406,3.3931 -0.0468,0.2207 -0.91794,0.7622 -3.5224,2.1864 -3.435868,1.8789 -3.460268,1.8935 -3.422396,2.3136 0.03235,0.359 0.09396,0.4177 0.398046,0.4177 l 0.358042,0 0,9.6283 0,9.6263 0.896098,0 c 0.49248,0 1.06916,0.04 1.28215,0.086 0.37715,0.081 0.38413,0.097 0.28203,0.6682 -0.0575,0.3223 -0.10653,0.6273 -0.11001,0.6765 -0.004,0.05 0.25206,0.1325 0.56807,0.1838 0.58299,0.094 0.72772,0.2582 0.73008,0.831 6.6e-4,0.1681 0.14766,0.644 0.32604,1.0588 0.38856,0.9036 0.40321,1.3841 0.062,1.8563 -0.35788,0.4952 -0.32387,0.7812 0.18802,1.6162 0.24626,0.4016 0.80062,1.4227 1.23014,2.2699 0.42951,0.847 0.85578,1.6465 0.95011,1.7748 0.13657,0.1859 1.49609,0.4231 6.68477,1.1673 3.58168,0.5137 6.6577,0.9577 6.83678,0.9876 0.17909,0.031 3.22693,-0.5694 6.77278,-1.3342 3.54587,-0.7651 6.46512,-1.3991 6.48675,-1.3991 0.0216,0 0.1011,-0.1996 0.17602,-0.4322 0.0749,-0.2326 0.21188,-0.4239 0.30603,-0.4239 0.0982,0 0.20961,-0.2388 0.26003,-0.5618 0.0483,-0.3098 0.13474,-0.5942 0.19202,-0.6327 0.0573,-0.038 0.14261,-0.3074 0.19003,-0.5992 0.0474,-0.2916 0.20323,-0.9215 0.34604,-1.3969 l 0.26003,-0.8625 0.82209,0.068 0.82209,0.073 0.072,-0.618 c 0.0794,-0.6896 0.34259,-2.702 0.75409,-5.7612 0.15124,-1.1243 0.29526,-2.3945 0.32004,-2.821 0.0248,-0.4267 0.16566,-1.8536 0.31403,-3.1719 0.14838,-1.3182 0.36124,-3.29 0.47206,-4.3809 0.11081,-1.0909 0.27262,-2.6 0.36004,-3.3535 l 0.15802,-1.3699 0.78008,-0.4636 c 0.88417,-0.525 1.23582,-1.0919 1.23615,-1.9983 1.3e-4,-0.4736 -0.0619,-0.6067 -0.36004,-0.7893 -0.29935,-0.1833 -1.08682,-0.6851 -2.70031,-1.7185 -0.14327,-0.092 -0.29023,-0.1964 -0.32604,-0.236 -0.0358,-0.039 -0.40235,-0.3101 -0.8141,-0.6013 -1.28916,-0.9119 -4.54455,-3.8316 -5.63264,-5.0512 l -1.04412,-1.1694 -1.49618,-0.2568 c -0.82378,-0.1415 -1.82226,-0.3561 -2.21625,-0.4782 -1.83192,-0.5679 -3.64078,-1.2494 -3.68242,-1.3864 -0.0253,-0.082 0.0138,-1.37147 0.084,-2.86287 0.11409,-2.44115 0.1482,-2.71983 0.36404,-2.79392 0.53091,-0.18247 0.30705,-0.97299 -1.23814,-4.3621 l -1.47817,-3.24287 -0.084,-2.53916 c -0.0463,-1.39581 -0.12015,-3.99642 -0.16402,-5.77995 -0.0439,-1.78351 -0.10544,-3.29013 -0.13802,-3.34936 -0.0688,-0.12503 0.36042,-1.42039 0.73809,-2.22177 0.18467,-0.3919 0.26058,-0.82988 0.26003,-1.50972 l -0.002,-0.95636 -0.73409,-0.7037 c -0.40514,-0.38773 -0.97928,-0.94327 -1.27214,-1.23199 -0.29287,-0.28872 -0.59562,-0.52407 -0.67408,-0.52621 -0.0785,-0.002 -0.24839,-0.13099 -0.37804,-0.28608 -0.14706,-0.17597 -0.32724,-0.26621 -0.65008,-0.26728 l 0,-0.004 z M 5.4604129,1003.5697 c -1.08575,0 -2.41165,0.096 -2.53229,0.2235 -0.0593,0.064 0.52666,3.8715 0.68807,4.4727 0.0496,0.1854 0.2639,0.2279 1.19815,0.2172 1.29003,-0.013 1.94036,0.258 2.55629,1.0503 0.63915,0.8222 0.76377,1.333 0.82809,3.4078 l 0.062,1.9378 -2.42628,0 c -1.85099,0 -2.42423,0.044 -2.42628,0.1776 -0.001,0.096 0.26949,1.2402 0.60407,2.5391 l 0.61008,2.3596 1.8022,0 1.80421,0 0.034,11.1736 0.032,11.1736 2.4442801,0.037 2.44628,0.04 -0.036,-16.112 c -0.0347,-14.9516 -0.0533,-16.1705 -0.26803,-16.9556 -0.95837,-3.5049 -3.0182401,-5.3211 -6.4667401,-5.7006 -0.25514,-0.028 -0.59219,-0.042 -0.95411,-0.042 z m 64.4974071,0.04 c -1.0495,0.072 -2.001689,0.7958 -2.340269,1.9064 -0.729692,2.3935 1.509021,4.6411 3.586412,3.6 2.23676,-1.1211 2.120091,-4.4942 -0.184021,-5.3498 -0.352272,-0.1311 -0.712286,-0.1802 -1.062122,-0.1566 z m 25.534933,0.5575 -2.410278,0 -2.410276,0 0,5.5544 0,5.5566 -0.810093,-0.2653 c -0.446712,-0.1463 -1.276288,-0.3423 -1.842212,-0.4321 -1.261093,-0.1995 -4.312662,-0.08 -5.2266,0.2025 -2.656619,0.822 -4.442328,2.3284 -5.328612,4.4978 -0.693557,1.6965 -0.745248,2.4171 -0.702081,9.7787 l 0.04201,6.7572 0.362042,1.1151 c 0.678102,2.0758 1.862687,3.5315 3.644419,4.4853 2.187557,1.1709 3.856025,1.529 7.048809,1.5055 1.2263,-0.013 2.31477,-0.036 2.422278,-0.061 0.107509,-0.025 1.325359,-0.1536 2.70431,-0.2882 l 2.506289,-0.2444 0,-19.0812 0,-19.0814 z m -32.421724,0 -2.480285,0 -2.478285,0 0,5.3561 0,5.356 -2.604299,0 c -1.997678,0 -2.605193,0.042 -2.604298,0.1776 0.0012,0.222 1.13875,4.5838 1.242142,4.765 0.04281,0.076 0.935024,0.1337 2.026233,0.1337 l 1.950224,0 -0.038,8.0769 -0.036,8.0769 -0.330038,0.6995 c -0.417671,0.8843 -1.291032,1.5464 -2.350269,1.7832 -0.56575,0.1261 -0.77209,0.2345 -0.77209,0.4051 0,0.2355 1.151133,3.5792 1.344155,3.9049 0.122998,0.2073 0.126978,0.2081 1.410161,-0.044 2.962923,-0.5804 4.620312,-2.076 5.426624,-4.8925 0.189312,-0.6612 0.215918,-2.4861 0.252029,-17.2688 l 0.04201,-16.5297 z m -34.689976,10.2903 -0.92812,0 c -4.39104,0 -7.61248,1.6506 -8.86301,4.5396 -0.8822,2.038 -0.88303,2.0403 -0.94611,13.1364 -0.0312,5.4954 -0.009,10.0456 0.052,10.1108 0.36467,0.3948 8.73641,0.8189 10.87525,0.5513 4.69755,-0.5877 7.34875,-2.6871 8.34096,-6.6049 0.2475,-0.9769 0.27486,-1.4666 0.28203,-5.2369 0.006,-3.4874 -0.028,-4.3129 -0.21602,-5.118 -0.65802,-2.8195 -2.21672,-4.5371 -4.78455,-5.2725 -1.12725,-0.3231 -3.95818,-0.3134 -5.37262,0.017 -1.25375,0.2924 -2.82539,0.8511 -3.65842,1.3051 l -0.63007,0.3466 0.094,-0.4678 c 0.38659,-1.9382 1.94054,-3.0585 4.71655,-3.3953 l 1.33615,-0.1608 0,-0.4594 c 0,-0.2529 -0.0683,-1.0969 -0.15001,-1.8751 l -0.14801,-1.4158 z m 11.3233,0.017 c -0.98952,0.03 -2.05068,0.1698 -3.18037,0.4177 -0.62132,0.1365 -0.68214,0.185 -0.68009,0.5283 0.002,0.394 0.97665,4.5167 1.09813,4.6482 0.0382,0.042 0.43793,-0.046 0.8861,-0.1943 0.58844,-0.194 1.19469,-0.2651 2.18225,-0.2651 1.75791,0.013 2.62627,0.343 3.59842,1.3886 1.128221,1.2134 1.090121,0.7811 1.090121,11.8125 l 0,9.5616 2.410281,0 2.406277,0 0,-13.7503 0,-13.7463 -2.310266,0.038 c -2.255792,0.036 -2.313222,0.046 -2.352272,0.3424 l -0.04,0.3028 -0.742091,-0.3258 c -1.26284,-0.5554 -2.7173,-0.8082 -4.36649,-0.758 z m 32.995782,0.4051 -2.476285,0 -2.474284,0 0.032,13.7128 0.03601,13.7107 2.352269,0.037 c 1.293805,0.021 2.393,3e-4 2.442281,-0.059 0.04929,-0.054 0.08801,-6.2394 0.08801,-13.7483 l 0,-13.6543 z m 13.991607,4.5146 c 1.20241,0.028 2.45305,0.2945 3.4844,0.7955 l 0.758087,0.3676 0,8.7138 0,8.7138 -0.620071,0.09 c -0.340263,0.049 -0.676449,0.1131 -0.748086,0.1398 -0.07163,0.027 -0.812789,0.061 -1.648189,0.061 -3.211086,0.024 -5.296295,-0.842 -6.176709,-2.5621 l -0.380044,-0.7413 0,-5.9219 c 0,-5.3437 0.02405,-5.9909 0.236027,-6.6487 0.295072,-0.9155 1.112125,-1.9363 1.896217,-2.3637 0.840611,-0.4583 1.995969,-0.671 3.198368,-0.6432 z m -57.884649,6.0013 c 1.67767,-0.012 2.39272,0.2407 3.05435,1.0775 0.65847,0.8327 0.75682,1.5228 0.70408,4.976 -0.0436,2.857 -0.0573,2.9882 -0.39005,3.7566 -0.63742,1.4717 -1.85527,2.4325 -3.63641,2.8711 -0.63164,0.1595 -1.43223,0.191 -3.24637,0.1461 -1.32521,-0.033 -2.54429,-0.1026 -2.70632,-0.1565 l -0.29403,-0.098 0.034,-5.3018 0.036,-5.3018 1.23614,-0.5972 c 1.92178,-0.9267 3.57425,-1.3591 5.2086,-1.3719 z"
       id="rect3418"
       inkscape:connector-curvature="0"
       sodipodi:nodetypes="cccccccsccccccscccccscccccscccsccccccccccsccscsccccccccsccscccccccccccccccccccccccccccccccccccccscccccccccccccccsccccccccsccccccccsccccccccccsccscccccscccccccscscsccccccccccsccccccccccsccccccccccccccccccsccccccccccccsccccccccccccccccc" />
    <rect
       style="color:#000000;clip-rule:nonzero;display:inline;overflow:visible;visibility:visible;opacity:1;isolation:auto;mix-blend-mode:normal;color-interpolation:sRGB;color-interpolation-filters:linearRGB;solid-color:#000000;solid-opacity:1;fill:none;fill-opacity:1;fill-rule:nonzero;stroke:#000000;stroke-width:0.3748742;stroke-linecap:butt;stroke-linejoin:miter;stroke-miterlimit:4;stroke-dasharray:none;stroke-dashoffset:0;stroke-opacity:1;color-rendering:auto;image-rendering:auto;shape-rendering:auto;text-rendering:auto;enable-background:accumulate"
       id="rect4555"
       width="141.73228"
       height="88.58268"
       x="1.1839135"
       y="961.56281" />
  </g>
</svg>
