  0
SECTION
  2
HEADER
  9
$ACADVER
  1
AC1009
  9
$INSBASE
 10
0.0
 20
0.0
 30
0.0
  9
$EXTMIN
 10
0.0
 20
0.0
 30
0.0
  9
$EXTMAX
 10
0.0
 20
0.0
 30
0.0
  0
ENDSEC
  0
SECTION
  2
TABLES
  0
TABLE
  2
VPORT
 70
0
  0
ENDTAB
  0
TABLE
  2
LTYPE
 70
1
  0
LTYPE
  2
CONTINUOUS
 70
0
  3
Solid line
 72
65
 73
0
 40
0.0
  0
ENDTAB
  0
TABLE
  2
LAYER
 70
1
  0
LAYER
  2
0
 70
64
 62
7
  6
continuous
  0
ENDTAB
  0
TABLE
  2
STYLE
 70
1
  0
STYLE
  2
STANDARD
 70
0
 40
0
 41
1.0
 50
0.0
 71
0
 42
1
 3
ARIAL.TTF
 4

  0
ENDTAB
  0
TABLE
  2
VIEW
 70
0
  0
ENDTAB
  0
ENDSEC
  0
SECTION
  2
BLOCKS
  0
BLOCK
  8
0
  2
POCKET001_CS
 70
0
 10
0.0
 20
0.0
 30
0.0
  3
POCKET001_CS
  0
POLYLINE
  8
0
 62
0
 70
1
 66
1
 10
0.0
 20
0.0
 30
0.0
  0
VERTEX
  8
0
 10
167.639320225
 20
10.5146222424
 30
-2.0
  0
VERTEX
  8
0
 10
135.27864045
 20
34.0260323341
 30
-2.0
  0
VERTEX
  8
0
 10
147.639320225
 20
72.0682929859
 30
-2.0
  0
VERTEX
  8
0
 10
187.639320225
 20
72.0682929859
 30
-2.0
  0
VERTEX
  8
0
 10
200.0
 20
34.0260323341
 30
-2.0
  0
VERTEX
  8
0
 10
212.360679775
 20
72.0682929859
 30
-2.0
  0
VERTEX
  8
0
 10
252.360679775
 20
72.0682929859
 30
-2.0
  0
VERTEX
  8
0
 10
264.72135955
 20
34.0260323341
 30
-2.0
  0
VERTEX
  8
0
 10
232.360679775
 20
10.5146222424
 30
-2.0
  0
VERTEX
  8
0
 10
272.360679775
 20
10.5146222424
 30
-2.0
  0
VERTEX
  8
0
 10
284.72135955
 20
-27.5276384094
 30
-2.0
  0
VERTEX
  8
0
 10
252.360679775
 20
-51.0390485011
 30
-2.0
  0
VERTEX
  8
0
 10
220.0
 20
-27.5276384094
 30
-2.0
  0
VERTEX
  8
0
 10
232.360679775
 20
-65.5698990612
 30
-2.0
  0
VERTEX
  8
0
 10
200.0
 20
-89.0813091529
 30
-2.0
  0
VERTEX
  8
0
 10
167.639320225
 20
-65.5698990612
 30
-2.0
  0
VERTEX
  8
0
 10
180.0
 20
-27.5276384094
 30
-2.0
  0
VERTEX
  8
0
 10
147.639320225
 20
-51.0390485011
 30
-2.0
  0
VERTEX
  8
0
 10
115.27864045
 20
-27.5276384094
 30
-2.0
  0
VERTEX
  8
0
 10
127.639320225
 20
10.5146222424
 30
-2.0
  0
SEQEND
  8
0
  0
POLYLINE
  8
0
 62
0
 70
1
 66
1
 10
0.0
 20
0.0
 30
0.0
  0
VERTEX
  8
0
 10
171.096619945
 20
14.2625654982
 30
-2.0
  0
VERTEX
  8
0
 10
168.669568961
 20
12.4992097413
 30
-2.0
  0
VERTEX
  8
0
 10
169.257354214
 20
11.690192747
 30
-2.0
  0
VERTEX
  8
0
 10
171.684405197
 20
13.4535485038
 30
-2.0
  0
SEQEND
  8
0
  0
POLYLINE
  8
0
 62
0
 70
1
 66
1
 10
0.0
 20
0.0
 30
0.0
  0
VERTEX
  8
0
 10
204.632870224
 20
31.896123067
 30
-2.0
  0
VERTEX
  8
0
 10
202.205819241
 20
33.6594788239
 30
-2.0
  0
VERTEX
  8
0
 10
201.618033989
 20
32.8504618295
 30
-2.0
  0
VERTEX
  8
0
 10
204.045084972
 20
31.0871060726
 30
-2.0
  0
SEQEND
  8
0
  0
POLYLINE
  8
0
 62
0
 70
1
 66
1
 10
0.0
 20
0.0
 30
0.0
  0
VERTEX
  8
0
 10
195.2
 20
-28.5276384094
 30
-2.0
  0
VERTEX
  8
0
 10
198.2
 20
-28.5276384094
 30
-2.0
  0
VERTEX
  8
0
 10
198.2
 20
-27.5276384094
 30
-2.0
  0
VERTEX
  8
0
 10
195.2
 20
-27.5276384094
 30
-2.0
  0
SEQEND
  8
0
  0
CIRCLE
  8
0
 62
0
 10
226.241266335
 20
-63.0974955447
 30
-2.0
 40
1.6
  0
POLYLINE
  8
0
 62
0
 70
1
 66
1
 10
0.0
 20
0.0
 30
0.0
  0
VERTEX
  8
0
 10
170.272860843
 20
-0.826650341016
 30
-2.0
  0
VERTEX
  8
0
 10
171.22391736
 20
-0.517633346641
 30
-2.0
  0
VERTEX
  8
0
 10
170.296866377
 20
2.33553620224
 30
-2.0
  0
VERTEX
  8
0
 10
169.34580986
 20
2.02651920787
 30
-2.0
  0
SEQEND
  8
0
  0
POLYLINE
  8
0
 62
0
 70
1
 66
1
 10
0.0
 20
0.0
 30
0.0
  0
VERTEX
  8
0
 10
227.687626994
 20
-7.10362334856
 30
-2.0
  0
VERTEX
  8
0
 10
228.614677977
 20
-4.25045379968
 30
-2.0
  0
VERTEX
  8
0
 10
227.66362146
 20
-3.9414368053
 30
-2.0
  0
VERTEX
  8
0
 10
226.736570477
 20
-6.79460635419
 30
-2.0
  0
SEQEND
  8
0
  0
CIRCLE
  8
0
 62
0
 10
268.118281551
 20
5.4587289178
 30
-2.0
 40
1.6
  0
POLYLINE
  8
0
 62
0
 70
1
 66
1
 10
0.0
 20
0.0
 30
0.0
  0
VERTEX
  8
0
 10
168.233348681
 20
5.45032266653
 30
-2.0
  0
VERTEX
  8
0
 10
169.184405197
 20
5.75933966091
 30
-2.0
  0
VERTEX
  8
0
 10
168.257354214
 20
8.61250920979
 30
-2.0
  0
VERTEX
  8
0
 10
167.306297697
 20
8.30349221542
 30
-2.0
  0
SEQEND
  8
0
  0
CIRCLE
  8
0
 62
0
 10
215.858146919
 20
66.4711755513
 30
-2.0
 40
1.6
  0
POLYLINE
  8
0
 62
0
 70
1
 66
1
 10
0.0
 20
0.0
 30
0.0
  0
VERTEX
  8
0
 10
192.454668596
 20
29.7800961587
 30
-2.0
  0
VERTEX
  8
0
 10
190.027617613
 20
28.0167404019
 30
-2.0
  0
VERTEX
  8
0
 10
190.615402865
 20
27.2077234075
 30
-2.0
  0
VERTEX
  8
0
 10
193.042453848
 20
28.9710791644
 30
-2.0
  0
SEQEND
  8
0
  0
POLYLINE
  8
0
 62
0
 70
1
 66
1
 10
0.0
 20
0.0
 30
0.0
  0
VERTEX
  8
0
 10
208.4
 20
-28.5276384094
 30
-2.0
  0
VERTEX
  8
0
 10
211.4
 20
-28.5276384094
 30
-2.0
  0
VERTEX
  8
0
 10
211.4
 20
-27.5276384094
 30
-2.0
  0
VERTEX
  8
0
 10
208.4
 20
-27.5276384094
 30
-2.0
  0
SEQEND
  8
0
  0
POLYLINE
  8
0
 62
0
 70
1
 66
1
 10
0.0
 20
0.0
 30
0.0
  0
VERTEX
  8
0
 10
231.330431039
 20
12.4992097413
 30
-2.0
  0
VERTEX
  8
0
 10
228.903380055
 20
14.2625654982
 30
-2.0
  0
VERTEX
  8
0
 10
228.315594803
 20
13.4535485038
 30
-2.0
  0
VERTEX
  8
0
 10
230.742645786
 20
11.690192747
 30
-2.0
  0
SEQEND
  8
0
  0
POLYLINE
  8
0
 62
0
 70
1
 66
1
 10
0.0
 20
0.0
 30
0.0
  0
VERTEX
  8
0
 10
215.0
 20
-28.5276384094
 30
-2.0
  0
VERTEX
  8
0
 10
218.0
 20
-28.5276384094
 30
-2.0
  0
VERTEX
  8
0
 10
218.0
 20
-27.5276384094
 30
-2.0
  0
VERTEX
  8
0
 10
215.0
 20
-27.5276384094
 30
-2.0
  0
SEQEND
  8
0
  0
CIRCLE
  8
0
 62
0
 10
210.0
 20
0.0
 30
-2.0
 40
1.6
  0
POLYLINE
  8
0
 62
0
 70
1
 66
1
 10
0.0
 20
0.0
 30
0.0
  0
VERTEX
  8
0
 10
176.391397332
 20
-19.6575693637
 30
-2.0
  0
VERTEX
  8
0
 10
177.342453848
 20
-19.3485523693
 30
-2.0
  0
VERTEX
  8
0
 10
176.415402865
 20
-16.4953828204
 30
-2.0
  0
VERTEX
  8
0
 10
175.464346349
 20
-16.8043998148
 30
-2.0
  0
SEQEND
  8
0
  0
POLYLINE
  8
0
 62
0
 70
1
 66
1
 10
0.0
 20
0.0
 30
0.0
  0
VERTEX
  8
0
 10
188.6
 20
-28.5276384094
 30
-2.0
  0
VERTEX
  8
0
 10
191.6
 20
-28.5276384094
 30
-2.0
  0
VERTEX
  8
0
 10
191.6
 20
-27.5276384094
 30
-2.0
  0
VERTEX
  8
0
 10
188.6
 20
-27.5276384094
 30
-2.0
  0
SEQEND
  8
0
  0
POLYLINE
  8
0
 62
0
 70
1
 66
1
 10
0.0
 20
0.0
 30
0.0
  0
VERTEX
  8
0
 10
172.312373006
 20
-7.10362334856
 30
-2.0
  0
VERTEX
  8
0
 10
173.263429523
 20
-6.79460635419
 30
-2.0
  0
VERTEX
  8
0
 10
172.33637854
 20
-3.9414368053
 30
-2.0
  0
VERTEX
  8
0
 10
171.385322023
 20
-4.25045379968
 30
-2.0
  0
SEQEND
  8
0
  0
POLYLINE
  8
0
 62
0
 70
1
 66
1
 10
0.0
 20
0.0
 30
0.0
  0
VERTEX
  8
0
 10
209.972382387
 20
28.0167404019
 30
-2.0
  0
VERTEX
  8
0
 10
207.545331404
 20
29.7800961587
 30
-2.0
  0
VERTEX
  8
0
 10
206.957546152
 20
28.9710791644
 30
-2.0
  0
VERTEX
  8
0
 10
209.384597135
 20
27.2077234075
 30
-2.0
  0
SEQEND
  8
0
  0
POLYLINE
  8
0
 62
0
 70
1
 66
1
 10
0.0
 20
0.0
 30
0.0
  0
VERTEX
  8
0
 10
220.651406713
 20
20.2579750716
 30
-2.0
  0
VERTEX
  8
0
 10
218.22435573
 20
22.0213308285
 30
-2.0
  0
VERTEX
  8
0
 10
217.636570477
 20
21.2123138341
 30
-2.0
  0
VERTEX
  8
0
 10
220.06362146
 20
19.4489580772
 30
-2.0
  0
SEQEND
  8
0
  0
CIRCLE
  8
0
 62
0
 10
131.881718449
 20
5.4587289178
 30
-2.0
 40
1.6
  0
CIRCLE
  8
0
 62
0
 10
251.900287048
 20
-44.4551257694
 30
-2.0
 40
1.6
  0
CIRCLE
  8
0
 62
0
 10
173.758733665
 20
-63.0974955447
 30
-2.0
 40
1.6
  0
POLYLINE
  8
0
 62
0
 70
1
 66
1
 10
0.0
 20
0.0
 30
0.0
  0
VERTEX
  8
0
 10
225.648114831
 20
-13.3805963561
 30
-2.0
  0
VERTEX
  8
0
 10
226.575165814
 20
-10.5274268072
 30
-2.0
  0
VERTEX
  8
0
 10
225.624109298
 20
-10.2184098129
 30
-2.0
  0
VERTEX
  8
0
 10
224.697058314
 20
-13.0715793617
 30
-2.0
  0
SEQEND
  8
0
  0
POLYLINE
  8
0
 62
0
 70
1
 66
1
 10
0.0
 20
0.0
 30
0.0
  0
VERTEX
  8
0
 10
223.608602668
 20
-19.6575693637
 30
-2.0
  0
VERTEX
  8
0
 10
224.535653651
 20
-16.8043998148
 30
-2.0
  0
VERTEX
  8
0
 10
223.584597135
 20
-16.4953828204
 30
-2.0
  0
VERTEX
  8
0
 10
222.657546152
 20
-19.3485523693
 30
-2.0
  0
SEQEND
  8
0
  0
POLYLINE
  8
0
 62
0
 70
1
 66
1
 10
0.0
 20
0.0
 30
0.0
  0
VERTEX
  8
0
 10
182.0
 20
-28.5276384094
 30
-2.0
  0
VERTEX
  8
0
 10
185.0
 20
-28.5276384094
 30
-2.0
  0
VERTEX
  8
0
 10
185.0
 20
-27.5276384094
 30
-2.0
  0
VERTEX
  8
0
 10
182.0
 20
-27.5276384094
 30
-2.0
  0
SEQEND
  8
0
  0
POLYLINE
  8
0
 62
0
 70
1
 66
1
 10
0.0
 20
0.0
 30
0.0
  0
VERTEX
  8
0
 10
201.8
 20
-28.5276384094
 30
-2.0
  0
VERTEX
  8
0
 10
204.8
 20
-28.5276384094
 30
-2.0
  0
VERTEX
  8
0
 10
204.8
 20
-27.5276384094
 30
-2.0
  0
VERTEX
  8
0
 10
201.8
 20
-27.5276384094
 30
-2.0
  0
SEQEND
  8
0
  0
POLYLINE
  8
0
 62
0
 70
1
 66
1
 10
0.0
 20
0.0
 30
0.0
  0
VERTEX
  8
0
 10
176.436132107
 20
18.1419481634
 30
-2.0
  0
VERTEX
  8
0
 10
174.009081124
 20
16.3785924065
 30
-2.0
  0
VERTEX
  8
0
 10
174.596866377
 20
15.5695754121
 30
-2.0
  0
VERTEX
  8
0
 10
177.02391736
 20
17.332931169
 30
-2.0
  0
SEQEND
  8
0
  0
POLYLINE
  8
0
 62
0
 70
1
 66
1
 10
0.0
 20
0.0
 30
0.0
  0
VERTEX
  8
0
 10
178.430909495
 20
-25.9345423712
 30
-2.0
  0
VERTEX
  8
0
 10
179.381966011
 20
-25.6255253768
 30
-2.0
  0
VERTEX
  8
0
 10
178.454915028
 20
-22.7723558279
 30
-2.0
  0
VERTEX
  8
0
 10
177.503858512
 20
-23.0813728223
 30
-2.0
  0
SEQEND
  8
0
  0
CIRCLE
  8
0
 62
0
 10
258.317407757
 20
35.622716845
 30
-2.0
 40
1.6
  0
POLYLINE
  8
0
 62
0
 70
1
 66
1
 10
0.0
 20
0.0
 30
0.0
  0
VERTEX
  8
0
 10
221.569090505
 20
-25.9345423712
 30
-2.0
  0
VERTEX
  8
0
 10
222.496141488
 20
-23.0813728223
 30
-2.0
  0
VERTEX
  8
0
 10
221.545084972
 20
-22.7723558279
 30
-2.0
  0
VERTEX
  8
0
 10
220.618033989
 20
-25.6255253768
 30
-2.0
  0
SEQEND
  8
0
  0
CIRCLE
  8
0
 62
0
 10
190.0
 20
0.0
 30
-2.0
 40
1.6
  0
POLYLINE
  8
0
 62
0
 70
1
 66
1
 10
0.0
 20
0.0
 30
0.0
  0
VERTEX
  8
0
 10
225.990918876
 20
16.3785924065
 30
-2.0
  0
VERTEX
  8
0
 10
223.563867893
 20
18.1419481634
 30
-2.0
  0
VERTEX
  8
0
 10
222.97608264
 20
17.332931169
 30
-2.0
  0
VERTEX
  8
0
 10
225.403133623
 20
15.5695754121
 30
-2.0
  0
SEQEND
  8
0
  0
POLYLINE
  8
0
 62
0
 70
1
 66
1
 10
0.0
 20
0.0
 30
0.0
  0
VERTEX
  8
0
 10
181.77564427
 20
22.0213308285
 30
-2.0
  0
VERTEX
  8
0
 10
179.348593287
 20
20.2579750716
 30
-2.0
  0
VERTEX
  8
0
 10
179.93637854
 20
19.4489580772
 30
-2.0
  0
VERTEX
  8
0
 10
182.363429523
 20
21.2123138341
 30
-2.0
  0
SEQEND
  8
0
  0
CIRCLE
  8
0
 62
0
 10
148.099712952
 20
-44.4551257694
 30
-2.0
 40
1.6
  0
POLYLINE
  8
0
 62
0
 70
1
 66
1
 10
0.0
 20
0.0
 30
0.0
  0
VERTEX
  8
0
 10
215.31189455
 20
24.1373577367
 30
-2.0
  0
VERTEX
  8
0
 10
212.884843567
 20
25.9007134936
 30
-2.0
  0
VERTEX
  8
0
 10
212.297058314
 20
25.0916964992
 30
-2.0
  0
VERTEX
  8
0
 10
214.724109298
 20
23.3283407424
 30
-2.0
  0
SEQEND
  8
0
  0
CIRCLE
  8
0
 62
0
 10
141.682592243
 20
35.622716845
 30
-2.0
 40
1.6
  0
POLYLINE
  8
0
 62
0
 70
1
 66
1
 10
0.0
 20
0.0
 30
0.0
  0
VERTEX
  8
0
 10
187.115156433
 20
25.9007134936
 30
-2.0
  0
VERTEX
  8
0
 10
184.68810545
 20
24.1373577367
 30
-2.0
  0
VERTEX
  8
0
 10
185.275890702
 20
23.3283407424
 30
-2.0
  0
VERTEX
  8
0
 10
187.702941686
 20
25.0916964992
 30
-2.0
  0
SEQEND
  8
0
  0
POLYLINE
  8
0
 62
0
 70
1
 66
1
 10
0.0
 20
0.0
 30
0.0
  0
VERTEX
  8
0
 10
229.727139157
 20
-0.826650341016
 30
-2.0
  0
VERTEX
  8
0
 10
230.65419014
 20
2.02651920787
 30
-2.0
  0
VERTEX
  8
0
 10
229.703133623
 20
2.33553620224
 30
-2.0
  0
VERTEX
  8
0
 10
228.77608264
 20
-0.517633346641
 30
-2.0
  0
SEQEND
  8
0
  0
POLYLINE
  8
0
 62
0
 70
1
 66
1
 10
0.0
 20
0.0
 30
0.0
  0
VERTEX
  8
0
 10
231.766651319
 20
5.45032266653
 30
-2.0
  0
VERTEX
  8
0
 10
232.693702303
 20
8.30349221542
 30
-2.0
  0
VERTEX
  8
0
 10
231.742645786
 20
8.61250920979
 30
-2.0
  0
VERTEX
  8
0
 10
230.815594803
 20
5.75933966091
 30
-2.0
  0
SEQEND
  8
0
  0
POLYLINE
  8
0
 62
0
 70
1
 66
1
 10
0.0
 20
0.0
 30
0.0
  0
VERTEX
  8
0
 10
197.794180759
 20
33.6594788239
 30
-2.0
  0
VERTEX
  8
0
 10
195.367129776
 20
31.896123067
 30
-2.0
  0
VERTEX
  8
0
 10
195.954915028
 20
31.0871060726
 30
-2.0
  0
VERTEX
  8
0
 10
198.381966011
 20
32.8504618295
 30
-2.0
  0
SEQEND
  8
0
  0
CIRCLE
  8
0
 62
0
 10
184.141853081
 20
66.4711755513
 30
-2.0
 40
1.6
  0
POLYLINE
  8
0
 62
0
 70
1
 66
1
 10
0.0
 20
0.0
 30
0.0
  0
VERTEX
  8
0
 10
174.351885169
 20
-13.3805963561
 30
-2.0
  0
VERTEX
  8
0
 10
175.302941686
 20
-13.0715793617
 30
-2.0
  0
VERTEX
  8
0
 10
174.375890702
 20
-10.2184098129
 30
-2.0
  0
VERTEX
  8
0
 10
173.424834186
 20
-10.5274268072
 30
-2.0
  0
SEQEND
  8
0
  0
ENDBLK
  0
ENDSEC
  0
SECTION
  2
ENTITIES
  0
INSERT
  2
POCKET001_CS
  8
0
 62
0
 10
0.0
 20
0.0
 30
0.0
  0
ENDSEC
  0
EOF
