G04 #@! TF.GenerationSoftware,KiCad,Pcbnew,5.0.1*
G04 #@! TF.CreationDate,2019-02-09T18:30:38+01:00*
G04 #@! TF.ProjectId,usbled,7573626C65642E6B696361645F706362,rev?*
G04 #@! TF.SameCoordinates,Original*
G04 #@! TF.FileFunction,Paste,Top*
G04 #@! TF.FilePolarity,Positive*
%FSLAX46Y46*%
G04 Gerber Fmt 4.6, Leading zero omitted, Abs format (unit mm)*
G04 Created by KiCad (PCBNEW 5.0.1) date Sat 09 Feb 2019 06:30:38 PM CET*
%MOMM*%
%LPD*%
G01*
G04 APERTURE LIST*
%ADD10C,0.100000*%
%ADD11C,1.250000*%
%ADD12C,0.875000*%
G04 APERTURE END LIST*
D10*
G04 #@! TO.C,R1*
G36*
X177174504Y-95201204D02*
X177198773Y-95204804D01*
X177222571Y-95210765D01*
X177245671Y-95219030D01*
X177267849Y-95229520D01*
X177288893Y-95242133D01*
X177308598Y-95256747D01*
X177326777Y-95273223D01*
X177343253Y-95291402D01*
X177357867Y-95311107D01*
X177370480Y-95332151D01*
X177380970Y-95354329D01*
X177389235Y-95377429D01*
X177395196Y-95401227D01*
X177398796Y-95425496D01*
X177400000Y-95450000D01*
X177400000Y-97600000D01*
X177398796Y-97624504D01*
X177395196Y-97648773D01*
X177389235Y-97672571D01*
X177380970Y-97695671D01*
X177370480Y-97717849D01*
X177357867Y-97738893D01*
X177343253Y-97758598D01*
X177326777Y-97776777D01*
X177308598Y-97793253D01*
X177288893Y-97807867D01*
X177267849Y-97820480D01*
X177245671Y-97830970D01*
X177222571Y-97839235D01*
X177198773Y-97845196D01*
X177174504Y-97848796D01*
X177150000Y-97850000D01*
X176400000Y-97850000D01*
X176375496Y-97848796D01*
X176351227Y-97845196D01*
X176327429Y-97839235D01*
X176304329Y-97830970D01*
X176282151Y-97820480D01*
X176261107Y-97807867D01*
X176241402Y-97793253D01*
X176223223Y-97776777D01*
X176206747Y-97758598D01*
X176192133Y-97738893D01*
X176179520Y-97717849D01*
X176169030Y-97695671D01*
X176160765Y-97672571D01*
X176154804Y-97648773D01*
X176151204Y-97624504D01*
X176150000Y-97600000D01*
X176150000Y-95450000D01*
X176151204Y-95425496D01*
X176154804Y-95401227D01*
X176160765Y-95377429D01*
X176169030Y-95354329D01*
X176179520Y-95332151D01*
X176192133Y-95311107D01*
X176206747Y-95291402D01*
X176223223Y-95273223D01*
X176241402Y-95256747D01*
X176261107Y-95242133D01*
X176282151Y-95229520D01*
X176304329Y-95219030D01*
X176327429Y-95210765D01*
X176351227Y-95204804D01*
X176375496Y-95201204D01*
X176400000Y-95200000D01*
X177150000Y-95200000D01*
X177174504Y-95201204D01*
X177174504Y-95201204D01*
G37*
D11*
X176775000Y-96525000D03*
D10*
G36*
X174374504Y-95201204D02*
X174398773Y-95204804D01*
X174422571Y-95210765D01*
X174445671Y-95219030D01*
X174467849Y-95229520D01*
X174488893Y-95242133D01*
X174508598Y-95256747D01*
X174526777Y-95273223D01*
X174543253Y-95291402D01*
X174557867Y-95311107D01*
X174570480Y-95332151D01*
X174580970Y-95354329D01*
X174589235Y-95377429D01*
X174595196Y-95401227D01*
X174598796Y-95425496D01*
X174600000Y-95450000D01*
X174600000Y-97600000D01*
X174598796Y-97624504D01*
X174595196Y-97648773D01*
X174589235Y-97672571D01*
X174580970Y-97695671D01*
X174570480Y-97717849D01*
X174557867Y-97738893D01*
X174543253Y-97758598D01*
X174526777Y-97776777D01*
X174508598Y-97793253D01*
X174488893Y-97807867D01*
X174467849Y-97820480D01*
X174445671Y-97830970D01*
X174422571Y-97839235D01*
X174398773Y-97845196D01*
X174374504Y-97848796D01*
X174350000Y-97850000D01*
X173600000Y-97850000D01*
X173575496Y-97848796D01*
X173551227Y-97845196D01*
X173527429Y-97839235D01*
X173504329Y-97830970D01*
X173482151Y-97820480D01*
X173461107Y-97807867D01*
X173441402Y-97793253D01*
X173423223Y-97776777D01*
X173406747Y-97758598D01*
X173392133Y-97738893D01*
X173379520Y-97717849D01*
X173369030Y-97695671D01*
X173360765Y-97672571D01*
X173354804Y-97648773D01*
X173351204Y-97624504D01*
X173350000Y-97600000D01*
X173350000Y-95450000D01*
X173351204Y-95425496D01*
X173354804Y-95401227D01*
X173360765Y-95377429D01*
X173369030Y-95354329D01*
X173379520Y-95332151D01*
X173392133Y-95311107D01*
X173406747Y-95291402D01*
X173423223Y-95273223D01*
X173441402Y-95256747D01*
X173461107Y-95242133D01*
X173482151Y-95229520D01*
X173504329Y-95219030D01*
X173527429Y-95210765D01*
X173551227Y-95204804D01*
X173575496Y-95201204D01*
X173600000Y-95200000D01*
X174350000Y-95200000D01*
X174374504Y-95201204D01*
X174374504Y-95201204D01*
G37*
D11*
X173975000Y-96525000D03*
G04 #@! TD*
D10*
G04 #@! TO.C,R1*
G36*
X147174504Y-95201204D02*
X147198773Y-95204804D01*
X147222571Y-95210765D01*
X147245671Y-95219030D01*
X147267849Y-95229520D01*
X147288893Y-95242133D01*
X147308598Y-95256747D01*
X147326777Y-95273223D01*
X147343253Y-95291402D01*
X147357867Y-95311107D01*
X147370480Y-95332151D01*
X147380970Y-95354329D01*
X147389235Y-95377429D01*
X147395196Y-95401227D01*
X147398796Y-95425496D01*
X147400000Y-95450000D01*
X147400000Y-97600000D01*
X147398796Y-97624504D01*
X147395196Y-97648773D01*
X147389235Y-97672571D01*
X147380970Y-97695671D01*
X147370480Y-97717849D01*
X147357867Y-97738893D01*
X147343253Y-97758598D01*
X147326777Y-97776777D01*
X147308598Y-97793253D01*
X147288893Y-97807867D01*
X147267849Y-97820480D01*
X147245671Y-97830970D01*
X147222571Y-97839235D01*
X147198773Y-97845196D01*
X147174504Y-97848796D01*
X147150000Y-97850000D01*
X146400000Y-97850000D01*
X146375496Y-97848796D01*
X146351227Y-97845196D01*
X146327429Y-97839235D01*
X146304329Y-97830970D01*
X146282151Y-97820480D01*
X146261107Y-97807867D01*
X146241402Y-97793253D01*
X146223223Y-97776777D01*
X146206747Y-97758598D01*
X146192133Y-97738893D01*
X146179520Y-97717849D01*
X146169030Y-97695671D01*
X146160765Y-97672571D01*
X146154804Y-97648773D01*
X146151204Y-97624504D01*
X146150000Y-97600000D01*
X146150000Y-95450000D01*
X146151204Y-95425496D01*
X146154804Y-95401227D01*
X146160765Y-95377429D01*
X146169030Y-95354329D01*
X146179520Y-95332151D01*
X146192133Y-95311107D01*
X146206747Y-95291402D01*
X146223223Y-95273223D01*
X146241402Y-95256747D01*
X146261107Y-95242133D01*
X146282151Y-95229520D01*
X146304329Y-95219030D01*
X146327429Y-95210765D01*
X146351227Y-95204804D01*
X146375496Y-95201204D01*
X146400000Y-95200000D01*
X147150000Y-95200000D01*
X147174504Y-95201204D01*
X147174504Y-95201204D01*
G37*
D11*
X146775000Y-96525000D03*
D10*
G36*
X144374504Y-95201204D02*
X144398773Y-95204804D01*
X144422571Y-95210765D01*
X144445671Y-95219030D01*
X144467849Y-95229520D01*
X144488893Y-95242133D01*
X144508598Y-95256747D01*
X144526777Y-95273223D01*
X144543253Y-95291402D01*
X144557867Y-95311107D01*
X144570480Y-95332151D01*
X144580970Y-95354329D01*
X144589235Y-95377429D01*
X144595196Y-95401227D01*
X144598796Y-95425496D01*
X144600000Y-95450000D01*
X144600000Y-97600000D01*
X144598796Y-97624504D01*
X144595196Y-97648773D01*
X144589235Y-97672571D01*
X144580970Y-97695671D01*
X144570480Y-97717849D01*
X144557867Y-97738893D01*
X144543253Y-97758598D01*
X144526777Y-97776777D01*
X144508598Y-97793253D01*
X144488893Y-97807867D01*
X144467849Y-97820480D01*
X144445671Y-97830970D01*
X144422571Y-97839235D01*
X144398773Y-97845196D01*
X144374504Y-97848796D01*
X144350000Y-97850000D01*
X143600000Y-97850000D01*
X143575496Y-97848796D01*
X143551227Y-97845196D01*
X143527429Y-97839235D01*
X143504329Y-97830970D01*
X143482151Y-97820480D01*
X143461107Y-97807867D01*
X143441402Y-97793253D01*
X143423223Y-97776777D01*
X143406747Y-97758598D01*
X143392133Y-97738893D01*
X143379520Y-97717849D01*
X143369030Y-97695671D01*
X143360765Y-97672571D01*
X143354804Y-97648773D01*
X143351204Y-97624504D01*
X143350000Y-97600000D01*
X143350000Y-95450000D01*
X143351204Y-95425496D01*
X143354804Y-95401227D01*
X143360765Y-95377429D01*
X143369030Y-95354329D01*
X143379520Y-95332151D01*
X143392133Y-95311107D01*
X143406747Y-95291402D01*
X143423223Y-95273223D01*
X143441402Y-95256747D01*
X143461107Y-95242133D01*
X143482151Y-95229520D01*
X143504329Y-95219030D01*
X143527429Y-95210765D01*
X143551227Y-95204804D01*
X143575496Y-95201204D01*
X143600000Y-95200000D01*
X144350000Y-95200000D01*
X144374504Y-95201204D01*
X144374504Y-95201204D01*
G37*
D11*
X143975000Y-96525000D03*
G04 #@! TD*
D10*
G04 #@! TO.C,D1*
G36*
X180102691Y-92151053D02*
X180123926Y-92154203D01*
X180144750Y-92159419D01*
X180164962Y-92166651D01*
X180184368Y-92175830D01*
X180202781Y-92186866D01*
X180220024Y-92199654D01*
X180235930Y-92214070D01*
X180250346Y-92229976D01*
X180263134Y-92247219D01*
X180274170Y-92265632D01*
X180283349Y-92285038D01*
X180290581Y-92305250D01*
X180295797Y-92326074D01*
X180298947Y-92347309D01*
X180300000Y-92368750D01*
X180300000Y-92806250D01*
X180298947Y-92827691D01*
X180295797Y-92848926D01*
X180290581Y-92869750D01*
X180283349Y-92889962D01*
X180274170Y-92909368D01*
X180263134Y-92927781D01*
X180250346Y-92945024D01*
X180235930Y-92960930D01*
X180220024Y-92975346D01*
X180202781Y-92988134D01*
X180184368Y-92999170D01*
X180164962Y-93008349D01*
X180144750Y-93015581D01*
X180123926Y-93020797D01*
X180102691Y-93023947D01*
X180081250Y-93025000D01*
X179568750Y-93025000D01*
X179547309Y-93023947D01*
X179526074Y-93020797D01*
X179505250Y-93015581D01*
X179485038Y-93008349D01*
X179465632Y-92999170D01*
X179447219Y-92988134D01*
X179429976Y-92975346D01*
X179414070Y-92960930D01*
X179399654Y-92945024D01*
X179386866Y-92927781D01*
X179375830Y-92909368D01*
X179366651Y-92889962D01*
X179359419Y-92869750D01*
X179354203Y-92848926D01*
X179351053Y-92827691D01*
X179350000Y-92806250D01*
X179350000Y-92368750D01*
X179351053Y-92347309D01*
X179354203Y-92326074D01*
X179359419Y-92305250D01*
X179366651Y-92285038D01*
X179375830Y-92265632D01*
X179386866Y-92247219D01*
X179399654Y-92229976D01*
X179414070Y-92214070D01*
X179429976Y-92199654D01*
X179447219Y-92186866D01*
X179465632Y-92175830D01*
X179485038Y-92166651D01*
X179505250Y-92159419D01*
X179526074Y-92154203D01*
X179547309Y-92151053D01*
X179568750Y-92150000D01*
X180081250Y-92150000D01*
X180102691Y-92151053D01*
X180102691Y-92151053D01*
G37*
D12*
X179825000Y-92587500D03*
D10*
G36*
X180102691Y-93726053D02*
X180123926Y-93729203D01*
X180144750Y-93734419D01*
X180164962Y-93741651D01*
X180184368Y-93750830D01*
X180202781Y-93761866D01*
X180220024Y-93774654D01*
X180235930Y-93789070D01*
X180250346Y-93804976D01*
X180263134Y-93822219D01*
X180274170Y-93840632D01*
X180283349Y-93860038D01*
X180290581Y-93880250D01*
X180295797Y-93901074D01*
X180298947Y-93922309D01*
X180300000Y-93943750D01*
X180300000Y-94381250D01*
X180298947Y-94402691D01*
X180295797Y-94423926D01*
X180290581Y-94444750D01*
X180283349Y-94464962D01*
X180274170Y-94484368D01*
X180263134Y-94502781D01*
X180250346Y-94520024D01*
X180235930Y-94535930D01*
X180220024Y-94550346D01*
X180202781Y-94563134D01*
X180184368Y-94574170D01*
X180164962Y-94583349D01*
X180144750Y-94590581D01*
X180123926Y-94595797D01*
X180102691Y-94598947D01*
X180081250Y-94600000D01*
X179568750Y-94600000D01*
X179547309Y-94598947D01*
X179526074Y-94595797D01*
X179505250Y-94590581D01*
X179485038Y-94583349D01*
X179465632Y-94574170D01*
X179447219Y-94563134D01*
X179429976Y-94550346D01*
X179414070Y-94535930D01*
X179399654Y-94520024D01*
X179386866Y-94502781D01*
X179375830Y-94484368D01*
X179366651Y-94464962D01*
X179359419Y-94444750D01*
X179354203Y-94423926D01*
X179351053Y-94402691D01*
X179350000Y-94381250D01*
X179350000Y-93943750D01*
X179351053Y-93922309D01*
X179354203Y-93901074D01*
X179359419Y-93880250D01*
X179366651Y-93860038D01*
X179375830Y-93840632D01*
X179386866Y-93822219D01*
X179399654Y-93804976D01*
X179414070Y-93789070D01*
X179429976Y-93774654D01*
X179447219Y-93761866D01*
X179465632Y-93750830D01*
X179485038Y-93741651D01*
X179505250Y-93734419D01*
X179526074Y-93729203D01*
X179547309Y-93726053D01*
X179568750Y-93725000D01*
X180081250Y-93725000D01*
X180102691Y-93726053D01*
X180102691Y-93726053D01*
G37*
D12*
X179825000Y-94162500D03*
G04 #@! TD*
D10*
G04 #@! TO.C,D1*
G36*
X150102691Y-92151053D02*
X150123926Y-92154203D01*
X150144750Y-92159419D01*
X150164962Y-92166651D01*
X150184368Y-92175830D01*
X150202781Y-92186866D01*
X150220024Y-92199654D01*
X150235930Y-92214070D01*
X150250346Y-92229976D01*
X150263134Y-92247219D01*
X150274170Y-92265632D01*
X150283349Y-92285038D01*
X150290581Y-92305250D01*
X150295797Y-92326074D01*
X150298947Y-92347309D01*
X150300000Y-92368750D01*
X150300000Y-92806250D01*
X150298947Y-92827691D01*
X150295797Y-92848926D01*
X150290581Y-92869750D01*
X150283349Y-92889962D01*
X150274170Y-92909368D01*
X150263134Y-92927781D01*
X150250346Y-92945024D01*
X150235930Y-92960930D01*
X150220024Y-92975346D01*
X150202781Y-92988134D01*
X150184368Y-92999170D01*
X150164962Y-93008349D01*
X150144750Y-93015581D01*
X150123926Y-93020797D01*
X150102691Y-93023947D01*
X150081250Y-93025000D01*
X149568750Y-93025000D01*
X149547309Y-93023947D01*
X149526074Y-93020797D01*
X149505250Y-93015581D01*
X149485038Y-93008349D01*
X149465632Y-92999170D01*
X149447219Y-92988134D01*
X149429976Y-92975346D01*
X149414070Y-92960930D01*
X149399654Y-92945024D01*
X149386866Y-92927781D01*
X149375830Y-92909368D01*
X149366651Y-92889962D01*
X149359419Y-92869750D01*
X149354203Y-92848926D01*
X149351053Y-92827691D01*
X149350000Y-92806250D01*
X149350000Y-92368750D01*
X149351053Y-92347309D01*
X149354203Y-92326074D01*
X149359419Y-92305250D01*
X149366651Y-92285038D01*
X149375830Y-92265632D01*
X149386866Y-92247219D01*
X149399654Y-92229976D01*
X149414070Y-92214070D01*
X149429976Y-92199654D01*
X149447219Y-92186866D01*
X149465632Y-92175830D01*
X149485038Y-92166651D01*
X149505250Y-92159419D01*
X149526074Y-92154203D01*
X149547309Y-92151053D01*
X149568750Y-92150000D01*
X150081250Y-92150000D01*
X150102691Y-92151053D01*
X150102691Y-92151053D01*
G37*
D12*
X149825000Y-92587500D03*
D10*
G36*
X150102691Y-93726053D02*
X150123926Y-93729203D01*
X150144750Y-93734419D01*
X150164962Y-93741651D01*
X150184368Y-93750830D01*
X150202781Y-93761866D01*
X150220024Y-93774654D01*
X150235930Y-93789070D01*
X150250346Y-93804976D01*
X150263134Y-93822219D01*
X150274170Y-93840632D01*
X150283349Y-93860038D01*
X150290581Y-93880250D01*
X150295797Y-93901074D01*
X150298947Y-93922309D01*
X150300000Y-93943750D01*
X150300000Y-94381250D01*
X150298947Y-94402691D01*
X150295797Y-94423926D01*
X150290581Y-94444750D01*
X150283349Y-94464962D01*
X150274170Y-94484368D01*
X150263134Y-94502781D01*
X150250346Y-94520024D01*
X150235930Y-94535930D01*
X150220024Y-94550346D01*
X150202781Y-94563134D01*
X150184368Y-94574170D01*
X150164962Y-94583349D01*
X150144750Y-94590581D01*
X150123926Y-94595797D01*
X150102691Y-94598947D01*
X150081250Y-94600000D01*
X149568750Y-94600000D01*
X149547309Y-94598947D01*
X149526074Y-94595797D01*
X149505250Y-94590581D01*
X149485038Y-94583349D01*
X149465632Y-94574170D01*
X149447219Y-94563134D01*
X149429976Y-94550346D01*
X149414070Y-94535930D01*
X149399654Y-94520024D01*
X149386866Y-94502781D01*
X149375830Y-94484368D01*
X149366651Y-94464962D01*
X149359419Y-94444750D01*
X149354203Y-94423926D01*
X149351053Y-94402691D01*
X149350000Y-94381250D01*
X149350000Y-93943750D01*
X149351053Y-93922309D01*
X149354203Y-93901074D01*
X149359419Y-93880250D01*
X149366651Y-93860038D01*
X149375830Y-93840632D01*
X149386866Y-93822219D01*
X149399654Y-93804976D01*
X149414070Y-93789070D01*
X149429976Y-93774654D01*
X149447219Y-93761866D01*
X149465632Y-93750830D01*
X149485038Y-93741651D01*
X149505250Y-93734419D01*
X149526074Y-93729203D01*
X149547309Y-93726053D01*
X149568750Y-93725000D01*
X150081250Y-93725000D01*
X150102691Y-93726053D01*
X150102691Y-93726053D01*
G37*
D12*
X149825000Y-94162500D03*
G04 #@! TD*
D10*
G04 #@! TO.C,D1*
G36*
X120102691Y-93726053D02*
X120123926Y-93729203D01*
X120144750Y-93734419D01*
X120164962Y-93741651D01*
X120184368Y-93750830D01*
X120202781Y-93761866D01*
X120220024Y-93774654D01*
X120235930Y-93789070D01*
X120250346Y-93804976D01*
X120263134Y-93822219D01*
X120274170Y-93840632D01*
X120283349Y-93860038D01*
X120290581Y-93880250D01*
X120295797Y-93901074D01*
X120298947Y-93922309D01*
X120300000Y-93943750D01*
X120300000Y-94381250D01*
X120298947Y-94402691D01*
X120295797Y-94423926D01*
X120290581Y-94444750D01*
X120283349Y-94464962D01*
X120274170Y-94484368D01*
X120263134Y-94502781D01*
X120250346Y-94520024D01*
X120235930Y-94535930D01*
X120220024Y-94550346D01*
X120202781Y-94563134D01*
X120184368Y-94574170D01*
X120164962Y-94583349D01*
X120144750Y-94590581D01*
X120123926Y-94595797D01*
X120102691Y-94598947D01*
X120081250Y-94600000D01*
X119568750Y-94600000D01*
X119547309Y-94598947D01*
X119526074Y-94595797D01*
X119505250Y-94590581D01*
X119485038Y-94583349D01*
X119465632Y-94574170D01*
X119447219Y-94563134D01*
X119429976Y-94550346D01*
X119414070Y-94535930D01*
X119399654Y-94520024D01*
X119386866Y-94502781D01*
X119375830Y-94484368D01*
X119366651Y-94464962D01*
X119359419Y-94444750D01*
X119354203Y-94423926D01*
X119351053Y-94402691D01*
X119350000Y-94381250D01*
X119350000Y-93943750D01*
X119351053Y-93922309D01*
X119354203Y-93901074D01*
X119359419Y-93880250D01*
X119366651Y-93860038D01*
X119375830Y-93840632D01*
X119386866Y-93822219D01*
X119399654Y-93804976D01*
X119414070Y-93789070D01*
X119429976Y-93774654D01*
X119447219Y-93761866D01*
X119465632Y-93750830D01*
X119485038Y-93741651D01*
X119505250Y-93734419D01*
X119526074Y-93729203D01*
X119547309Y-93726053D01*
X119568750Y-93725000D01*
X120081250Y-93725000D01*
X120102691Y-93726053D01*
X120102691Y-93726053D01*
G37*
D12*
X119825000Y-94162500D03*
D10*
G36*
X120102691Y-92151053D02*
X120123926Y-92154203D01*
X120144750Y-92159419D01*
X120164962Y-92166651D01*
X120184368Y-92175830D01*
X120202781Y-92186866D01*
X120220024Y-92199654D01*
X120235930Y-92214070D01*
X120250346Y-92229976D01*
X120263134Y-92247219D01*
X120274170Y-92265632D01*
X120283349Y-92285038D01*
X120290581Y-92305250D01*
X120295797Y-92326074D01*
X120298947Y-92347309D01*
X120300000Y-92368750D01*
X120300000Y-92806250D01*
X120298947Y-92827691D01*
X120295797Y-92848926D01*
X120290581Y-92869750D01*
X120283349Y-92889962D01*
X120274170Y-92909368D01*
X120263134Y-92927781D01*
X120250346Y-92945024D01*
X120235930Y-92960930D01*
X120220024Y-92975346D01*
X120202781Y-92988134D01*
X120184368Y-92999170D01*
X120164962Y-93008349D01*
X120144750Y-93015581D01*
X120123926Y-93020797D01*
X120102691Y-93023947D01*
X120081250Y-93025000D01*
X119568750Y-93025000D01*
X119547309Y-93023947D01*
X119526074Y-93020797D01*
X119505250Y-93015581D01*
X119485038Y-93008349D01*
X119465632Y-92999170D01*
X119447219Y-92988134D01*
X119429976Y-92975346D01*
X119414070Y-92960930D01*
X119399654Y-92945024D01*
X119386866Y-92927781D01*
X119375830Y-92909368D01*
X119366651Y-92889962D01*
X119359419Y-92869750D01*
X119354203Y-92848926D01*
X119351053Y-92827691D01*
X119350000Y-92806250D01*
X119350000Y-92368750D01*
X119351053Y-92347309D01*
X119354203Y-92326074D01*
X119359419Y-92305250D01*
X119366651Y-92285038D01*
X119375830Y-92265632D01*
X119386866Y-92247219D01*
X119399654Y-92229976D01*
X119414070Y-92214070D01*
X119429976Y-92199654D01*
X119447219Y-92186866D01*
X119465632Y-92175830D01*
X119485038Y-92166651D01*
X119505250Y-92159419D01*
X119526074Y-92154203D01*
X119547309Y-92151053D01*
X119568750Y-92150000D01*
X120081250Y-92150000D01*
X120102691Y-92151053D01*
X120102691Y-92151053D01*
G37*
D12*
X119825000Y-92587500D03*
G04 #@! TD*
D10*
G04 #@! TO.C,R1*
G36*
X114374504Y-95201204D02*
X114398773Y-95204804D01*
X114422571Y-95210765D01*
X114445671Y-95219030D01*
X114467849Y-95229520D01*
X114488893Y-95242133D01*
X114508598Y-95256747D01*
X114526777Y-95273223D01*
X114543253Y-95291402D01*
X114557867Y-95311107D01*
X114570480Y-95332151D01*
X114580970Y-95354329D01*
X114589235Y-95377429D01*
X114595196Y-95401227D01*
X114598796Y-95425496D01*
X114600000Y-95450000D01*
X114600000Y-97600000D01*
X114598796Y-97624504D01*
X114595196Y-97648773D01*
X114589235Y-97672571D01*
X114580970Y-97695671D01*
X114570480Y-97717849D01*
X114557867Y-97738893D01*
X114543253Y-97758598D01*
X114526777Y-97776777D01*
X114508598Y-97793253D01*
X114488893Y-97807867D01*
X114467849Y-97820480D01*
X114445671Y-97830970D01*
X114422571Y-97839235D01*
X114398773Y-97845196D01*
X114374504Y-97848796D01*
X114350000Y-97850000D01*
X113600000Y-97850000D01*
X113575496Y-97848796D01*
X113551227Y-97845196D01*
X113527429Y-97839235D01*
X113504329Y-97830970D01*
X113482151Y-97820480D01*
X113461107Y-97807867D01*
X113441402Y-97793253D01*
X113423223Y-97776777D01*
X113406747Y-97758598D01*
X113392133Y-97738893D01*
X113379520Y-97717849D01*
X113369030Y-97695671D01*
X113360765Y-97672571D01*
X113354804Y-97648773D01*
X113351204Y-97624504D01*
X113350000Y-97600000D01*
X113350000Y-95450000D01*
X113351204Y-95425496D01*
X113354804Y-95401227D01*
X113360765Y-95377429D01*
X113369030Y-95354329D01*
X113379520Y-95332151D01*
X113392133Y-95311107D01*
X113406747Y-95291402D01*
X113423223Y-95273223D01*
X113441402Y-95256747D01*
X113461107Y-95242133D01*
X113482151Y-95229520D01*
X113504329Y-95219030D01*
X113527429Y-95210765D01*
X113551227Y-95204804D01*
X113575496Y-95201204D01*
X113600000Y-95200000D01*
X114350000Y-95200000D01*
X114374504Y-95201204D01*
X114374504Y-95201204D01*
G37*
D11*
X113975000Y-96525000D03*
D10*
G36*
X117174504Y-95201204D02*
X117198773Y-95204804D01*
X117222571Y-95210765D01*
X117245671Y-95219030D01*
X117267849Y-95229520D01*
X117288893Y-95242133D01*
X117308598Y-95256747D01*
X117326777Y-95273223D01*
X117343253Y-95291402D01*
X117357867Y-95311107D01*
X117370480Y-95332151D01*
X117380970Y-95354329D01*
X117389235Y-95377429D01*
X117395196Y-95401227D01*
X117398796Y-95425496D01*
X117400000Y-95450000D01*
X117400000Y-97600000D01*
X117398796Y-97624504D01*
X117395196Y-97648773D01*
X117389235Y-97672571D01*
X117380970Y-97695671D01*
X117370480Y-97717849D01*
X117357867Y-97738893D01*
X117343253Y-97758598D01*
X117326777Y-97776777D01*
X117308598Y-97793253D01*
X117288893Y-97807867D01*
X117267849Y-97820480D01*
X117245671Y-97830970D01*
X117222571Y-97839235D01*
X117198773Y-97845196D01*
X117174504Y-97848796D01*
X117150000Y-97850000D01*
X116400000Y-97850000D01*
X116375496Y-97848796D01*
X116351227Y-97845196D01*
X116327429Y-97839235D01*
X116304329Y-97830970D01*
X116282151Y-97820480D01*
X116261107Y-97807867D01*
X116241402Y-97793253D01*
X116223223Y-97776777D01*
X116206747Y-97758598D01*
X116192133Y-97738893D01*
X116179520Y-97717849D01*
X116169030Y-97695671D01*
X116160765Y-97672571D01*
X116154804Y-97648773D01*
X116151204Y-97624504D01*
X116150000Y-97600000D01*
X116150000Y-95450000D01*
X116151204Y-95425496D01*
X116154804Y-95401227D01*
X116160765Y-95377429D01*
X116169030Y-95354329D01*
X116179520Y-95332151D01*
X116192133Y-95311107D01*
X116206747Y-95291402D01*
X116223223Y-95273223D01*
X116241402Y-95256747D01*
X116261107Y-95242133D01*
X116282151Y-95229520D01*
X116304329Y-95219030D01*
X116327429Y-95210765D01*
X116351227Y-95204804D01*
X116375496Y-95201204D01*
X116400000Y-95200000D01*
X117150000Y-95200000D01*
X117174504Y-95201204D01*
X117174504Y-95201204D01*
G37*
D11*
X116775000Y-96525000D03*
G04 #@! TD*
M02*
