G04 #@! TF.GenerationSoftware,KiCad,Pcbnew,5.0.1*
G04 #@! TF.CreationDate,2019-02-09T18:30:38+01:00*
G04 #@! TF.ProjectId,usbled,7573626C65642E6B696361645F706362,rev?*
G04 #@! TF.SameCoordinates,Original*
G04 #@! TF.FileFunction,Soldermask,Top*
G04 #@! TF.FilePolarity,Negative*
%FSLAX46Y46*%
G04 Gerber Fmt 4.6, Leading zero omitted, Abs format (unit mm)*
G04 Created by KiCad (PCBNEW 5.0.1) date Sat 09 Feb 2019 06:30:38 PM CET*
%MOMM*%
%LPD*%
G01*
G04 APERTURE LIST*
%ADD10C,0.100000*%
G04 APERTURE END LIST*
D10*
G36*
X110426000Y-97986000D02*
X102324000Y-97986000D01*
X102324000Y-95984000D01*
X110426000Y-95984000D01*
X110426000Y-97986000D01*
X110426000Y-97986000D01*
G37*
G36*
X170426000Y-97986000D02*
X162324000Y-97986000D01*
X162324000Y-95984000D01*
X170426000Y-95984000D01*
X170426000Y-97986000D01*
X170426000Y-97986000D01*
G37*
G36*
X140426000Y-97986000D02*
X132324000Y-97986000D01*
X132324000Y-95984000D01*
X140426000Y-95984000D01*
X140426000Y-97986000D01*
X140426000Y-97986000D01*
G37*
G36*
X174493604Y-95153347D02*
X174530145Y-95164432D01*
X174563820Y-95182431D01*
X174593341Y-95206659D01*
X174617569Y-95236180D01*
X174635568Y-95269855D01*
X174646653Y-95306396D01*
X174651000Y-95350538D01*
X174651000Y-97699462D01*
X174646653Y-97743604D01*
X174635568Y-97780145D01*
X174617569Y-97813820D01*
X174593341Y-97843341D01*
X174563820Y-97867569D01*
X174530145Y-97885568D01*
X174493604Y-97896653D01*
X174449462Y-97901000D01*
X173500538Y-97901000D01*
X173456396Y-97896653D01*
X173419855Y-97885568D01*
X173386180Y-97867569D01*
X173356659Y-97843341D01*
X173332431Y-97813820D01*
X173314432Y-97780145D01*
X173303347Y-97743604D01*
X173299000Y-97699462D01*
X173299000Y-95350538D01*
X173303347Y-95306396D01*
X173314432Y-95269855D01*
X173332431Y-95236180D01*
X173356659Y-95206659D01*
X173386180Y-95182431D01*
X173419855Y-95164432D01*
X173456396Y-95153347D01*
X173500538Y-95149000D01*
X174449462Y-95149000D01*
X174493604Y-95153347D01*
X174493604Y-95153347D01*
G37*
G36*
X147293604Y-95153347D02*
X147330145Y-95164432D01*
X147363820Y-95182431D01*
X147393341Y-95206659D01*
X147417569Y-95236180D01*
X147435568Y-95269855D01*
X147446653Y-95306396D01*
X147451000Y-95350538D01*
X147451000Y-97699462D01*
X147446653Y-97743604D01*
X147435568Y-97780145D01*
X147417569Y-97813820D01*
X147393341Y-97843341D01*
X147363820Y-97867569D01*
X147330145Y-97885568D01*
X147293604Y-97896653D01*
X147249462Y-97901000D01*
X146300538Y-97901000D01*
X146256396Y-97896653D01*
X146219855Y-97885568D01*
X146186180Y-97867569D01*
X146156659Y-97843341D01*
X146132431Y-97813820D01*
X146114432Y-97780145D01*
X146103347Y-97743604D01*
X146099000Y-97699462D01*
X146099000Y-95350538D01*
X146103347Y-95306396D01*
X146114432Y-95269855D01*
X146132431Y-95236180D01*
X146156659Y-95206659D01*
X146186180Y-95182431D01*
X146219855Y-95164432D01*
X146256396Y-95153347D01*
X146300538Y-95149000D01*
X147249462Y-95149000D01*
X147293604Y-95153347D01*
X147293604Y-95153347D01*
G37*
G36*
X144493604Y-95153347D02*
X144530145Y-95164432D01*
X144563820Y-95182431D01*
X144593341Y-95206659D01*
X144617569Y-95236180D01*
X144635568Y-95269855D01*
X144646653Y-95306396D01*
X144651000Y-95350538D01*
X144651000Y-97699462D01*
X144646653Y-97743604D01*
X144635568Y-97780145D01*
X144617569Y-97813820D01*
X144593341Y-97843341D01*
X144563820Y-97867569D01*
X144530145Y-97885568D01*
X144493604Y-97896653D01*
X144449462Y-97901000D01*
X143500538Y-97901000D01*
X143456396Y-97896653D01*
X143419855Y-97885568D01*
X143386180Y-97867569D01*
X143356659Y-97843341D01*
X143332431Y-97813820D01*
X143314432Y-97780145D01*
X143303347Y-97743604D01*
X143299000Y-97699462D01*
X143299000Y-95350538D01*
X143303347Y-95306396D01*
X143314432Y-95269855D01*
X143332431Y-95236180D01*
X143356659Y-95206659D01*
X143386180Y-95182431D01*
X143419855Y-95164432D01*
X143456396Y-95153347D01*
X143500538Y-95149000D01*
X144449462Y-95149000D01*
X144493604Y-95153347D01*
X144493604Y-95153347D01*
G37*
G36*
X114493604Y-95153347D02*
X114530145Y-95164432D01*
X114563820Y-95182431D01*
X114593341Y-95206659D01*
X114617569Y-95236180D01*
X114635568Y-95269855D01*
X114646653Y-95306396D01*
X114651000Y-95350538D01*
X114651000Y-97699462D01*
X114646653Y-97743604D01*
X114635568Y-97780145D01*
X114617569Y-97813820D01*
X114593341Y-97843341D01*
X114563820Y-97867569D01*
X114530145Y-97885568D01*
X114493604Y-97896653D01*
X114449462Y-97901000D01*
X113500538Y-97901000D01*
X113456396Y-97896653D01*
X113419855Y-97885568D01*
X113386180Y-97867569D01*
X113356659Y-97843341D01*
X113332431Y-97813820D01*
X113314432Y-97780145D01*
X113303347Y-97743604D01*
X113299000Y-97699462D01*
X113299000Y-95350538D01*
X113303347Y-95306396D01*
X113314432Y-95269855D01*
X113332431Y-95236180D01*
X113356659Y-95206659D01*
X113386180Y-95182431D01*
X113419855Y-95164432D01*
X113456396Y-95153347D01*
X113500538Y-95149000D01*
X114449462Y-95149000D01*
X114493604Y-95153347D01*
X114493604Y-95153347D01*
G37*
G36*
X117293604Y-95153347D02*
X117330145Y-95164432D01*
X117363820Y-95182431D01*
X117393341Y-95206659D01*
X117417569Y-95236180D01*
X117435568Y-95269855D01*
X117446653Y-95306396D01*
X117451000Y-95350538D01*
X117451000Y-97699462D01*
X117446653Y-97743604D01*
X117435568Y-97780145D01*
X117417569Y-97813820D01*
X117393341Y-97843341D01*
X117363820Y-97867569D01*
X117330145Y-97885568D01*
X117293604Y-97896653D01*
X117249462Y-97901000D01*
X116300538Y-97901000D01*
X116256396Y-97896653D01*
X116219855Y-97885568D01*
X116186180Y-97867569D01*
X116156659Y-97843341D01*
X116132431Y-97813820D01*
X116114432Y-97780145D01*
X116103347Y-97743604D01*
X116099000Y-97699462D01*
X116099000Y-95350538D01*
X116103347Y-95306396D01*
X116114432Y-95269855D01*
X116132431Y-95236180D01*
X116156659Y-95206659D01*
X116186180Y-95182431D01*
X116219855Y-95164432D01*
X116256396Y-95153347D01*
X116300538Y-95149000D01*
X117249462Y-95149000D01*
X117293604Y-95153347D01*
X117293604Y-95153347D01*
G37*
G36*
X177293604Y-95153347D02*
X177330145Y-95164432D01*
X177363820Y-95182431D01*
X177393341Y-95206659D01*
X177417569Y-95236180D01*
X177435568Y-95269855D01*
X177446653Y-95306396D01*
X177451000Y-95350538D01*
X177451000Y-97699462D01*
X177446653Y-97743604D01*
X177435568Y-97780145D01*
X177417569Y-97813820D01*
X177393341Y-97843341D01*
X177363820Y-97867569D01*
X177330145Y-97885568D01*
X177293604Y-97896653D01*
X177249462Y-97901000D01*
X176300538Y-97901000D01*
X176256396Y-97896653D01*
X176219855Y-97885568D01*
X176186180Y-97867569D01*
X176156659Y-97843341D01*
X176132431Y-97813820D01*
X176114432Y-97780145D01*
X176103347Y-97743604D01*
X176099000Y-97699462D01*
X176099000Y-95350538D01*
X176103347Y-95306396D01*
X176114432Y-95269855D01*
X176132431Y-95236180D01*
X176156659Y-95206659D01*
X176186180Y-95182431D01*
X176219855Y-95164432D01*
X176256396Y-95153347D01*
X176300538Y-95149000D01*
X177249462Y-95149000D01*
X177293604Y-95153347D01*
X177293604Y-95153347D01*
G37*
G36*
X154602396Y-93900546D02*
X154775466Y-93972234D01*
X154931230Y-94076312D01*
X155063688Y-94208770D01*
X155167766Y-94364534D01*
X155239454Y-94537604D01*
X155276000Y-94721333D01*
X155276000Y-94908667D01*
X155239454Y-95092396D01*
X155167766Y-95265466D01*
X155063688Y-95421230D01*
X154931230Y-95553688D01*
X154775466Y-95657766D01*
X154602396Y-95729454D01*
X154418667Y-95766000D01*
X154231333Y-95766000D01*
X154047604Y-95729454D01*
X153874534Y-95657766D01*
X153718770Y-95553688D01*
X153586312Y-95421230D01*
X153482234Y-95265466D01*
X153410546Y-95092396D01*
X153374000Y-94908667D01*
X153374000Y-94721333D01*
X153410546Y-94537604D01*
X153482234Y-94364534D01*
X153586312Y-94208770D01*
X153718770Y-94076312D01*
X153874534Y-93972234D01*
X154047604Y-93900546D01*
X154231333Y-93864000D01*
X154418667Y-93864000D01*
X154602396Y-93900546D01*
X154602396Y-93900546D01*
G37*
G36*
X184602396Y-93900546D02*
X184775466Y-93972234D01*
X184931230Y-94076312D01*
X185063688Y-94208770D01*
X185167766Y-94364534D01*
X185239454Y-94537604D01*
X185276000Y-94721333D01*
X185276000Y-94908667D01*
X185239454Y-95092396D01*
X185167766Y-95265466D01*
X185063688Y-95421230D01*
X184931230Y-95553688D01*
X184775466Y-95657766D01*
X184602396Y-95729454D01*
X184418667Y-95766000D01*
X184231333Y-95766000D01*
X184047604Y-95729454D01*
X183874534Y-95657766D01*
X183718770Y-95553688D01*
X183586312Y-95421230D01*
X183482234Y-95265466D01*
X183410546Y-95092396D01*
X183374000Y-94908667D01*
X183374000Y-94721333D01*
X183410546Y-94537604D01*
X183482234Y-94364534D01*
X183586312Y-94208770D01*
X183718770Y-94076312D01*
X183874534Y-93972234D01*
X184047604Y-93900546D01*
X184231333Y-93864000D01*
X184418667Y-93864000D01*
X184602396Y-93900546D01*
X184602396Y-93900546D01*
G37*
G36*
X124602396Y-93900546D02*
X124775466Y-93972234D01*
X124931230Y-94076312D01*
X125063688Y-94208770D01*
X125167766Y-94364534D01*
X125239454Y-94537604D01*
X125276000Y-94721333D01*
X125276000Y-94908667D01*
X125239454Y-95092396D01*
X125167766Y-95265466D01*
X125063688Y-95421230D01*
X124931230Y-95553688D01*
X124775466Y-95657766D01*
X124602396Y-95729454D01*
X124418667Y-95766000D01*
X124231333Y-95766000D01*
X124047604Y-95729454D01*
X123874534Y-95657766D01*
X123718770Y-95553688D01*
X123586312Y-95421230D01*
X123482234Y-95265466D01*
X123410546Y-95092396D01*
X123374000Y-94908667D01*
X123374000Y-94721333D01*
X123410546Y-94537604D01*
X123482234Y-94364534D01*
X123586312Y-94208770D01*
X123718770Y-94076312D01*
X123874534Y-93972234D01*
X124047604Y-93900546D01*
X124231333Y-93864000D01*
X124418667Y-93864000D01*
X124602396Y-93900546D01*
X124602396Y-93900546D01*
G37*
G36*
X140426000Y-95526000D02*
X132824000Y-95526000D01*
X132824000Y-93424000D01*
X140426000Y-93424000D01*
X140426000Y-95526000D01*
X140426000Y-95526000D01*
G37*
G36*
X170426000Y-95526000D02*
X162824000Y-95526000D01*
X162824000Y-93424000D01*
X170426000Y-93424000D01*
X170426000Y-95526000D01*
X170426000Y-95526000D01*
G37*
G36*
X110426000Y-95526000D02*
X102824000Y-95526000D01*
X102824000Y-93424000D01*
X110426000Y-93424000D01*
X110426000Y-95526000D01*
X110426000Y-95526000D01*
G37*
G36*
X120204591Y-93678085D02*
X120238569Y-93688393D01*
X120269887Y-93705133D01*
X120297339Y-93727661D01*
X120319867Y-93755113D01*
X120336607Y-93786431D01*
X120346915Y-93820409D01*
X120351000Y-93861890D01*
X120351000Y-94463110D01*
X120346915Y-94504591D01*
X120336607Y-94538569D01*
X120319867Y-94569887D01*
X120297339Y-94597339D01*
X120269887Y-94619867D01*
X120238569Y-94636607D01*
X120204591Y-94646915D01*
X120163110Y-94651000D01*
X119486890Y-94651000D01*
X119445409Y-94646915D01*
X119411431Y-94636607D01*
X119380113Y-94619867D01*
X119352661Y-94597339D01*
X119330133Y-94569887D01*
X119313393Y-94538569D01*
X119303085Y-94504591D01*
X119299000Y-94463110D01*
X119299000Y-93861890D01*
X119303085Y-93820409D01*
X119313393Y-93786431D01*
X119330133Y-93755113D01*
X119352661Y-93727661D01*
X119380113Y-93705133D01*
X119411431Y-93688393D01*
X119445409Y-93678085D01*
X119486890Y-93674000D01*
X120163110Y-93674000D01*
X120204591Y-93678085D01*
X120204591Y-93678085D01*
G37*
G36*
X150204591Y-93678085D02*
X150238569Y-93688393D01*
X150269887Y-93705133D01*
X150297339Y-93727661D01*
X150319867Y-93755113D01*
X150336607Y-93786431D01*
X150346915Y-93820409D01*
X150351000Y-93861890D01*
X150351000Y-94463110D01*
X150346915Y-94504591D01*
X150336607Y-94538569D01*
X150319867Y-94569887D01*
X150297339Y-94597339D01*
X150269887Y-94619867D01*
X150238569Y-94636607D01*
X150204591Y-94646915D01*
X150163110Y-94651000D01*
X149486890Y-94651000D01*
X149445409Y-94646915D01*
X149411431Y-94636607D01*
X149380113Y-94619867D01*
X149352661Y-94597339D01*
X149330133Y-94569887D01*
X149313393Y-94538569D01*
X149303085Y-94504591D01*
X149299000Y-94463110D01*
X149299000Y-93861890D01*
X149303085Y-93820409D01*
X149313393Y-93786431D01*
X149330133Y-93755113D01*
X149352661Y-93727661D01*
X149380113Y-93705133D01*
X149411431Y-93688393D01*
X149445409Y-93678085D01*
X149486890Y-93674000D01*
X150163110Y-93674000D01*
X150204591Y-93678085D01*
X150204591Y-93678085D01*
G37*
G36*
X180204591Y-93678085D02*
X180238569Y-93688393D01*
X180269887Y-93705133D01*
X180297339Y-93727661D01*
X180319867Y-93755113D01*
X180336607Y-93786431D01*
X180346915Y-93820409D01*
X180351000Y-93861890D01*
X180351000Y-94463110D01*
X180346915Y-94504591D01*
X180336607Y-94538569D01*
X180319867Y-94569887D01*
X180297339Y-94597339D01*
X180269887Y-94619867D01*
X180238569Y-94636607D01*
X180204591Y-94646915D01*
X180163110Y-94651000D01*
X179486890Y-94651000D01*
X179445409Y-94646915D01*
X179411431Y-94636607D01*
X179380113Y-94619867D01*
X179352661Y-94597339D01*
X179330133Y-94569887D01*
X179313393Y-94538569D01*
X179303085Y-94504591D01*
X179299000Y-94463110D01*
X179299000Y-93861890D01*
X179303085Y-93820409D01*
X179313393Y-93786431D01*
X179330133Y-93755113D01*
X179352661Y-93727661D01*
X179380113Y-93705133D01*
X179411431Y-93688393D01*
X179445409Y-93678085D01*
X179486890Y-93674000D01*
X180163110Y-93674000D01*
X180204591Y-93678085D01*
X180204591Y-93678085D01*
G37*
G36*
X125276000Y-93226000D02*
X123374000Y-93226000D01*
X123374000Y-91324000D01*
X125276000Y-91324000D01*
X125276000Y-93226000D01*
X125276000Y-93226000D01*
G37*
G36*
X155276000Y-93226000D02*
X153374000Y-93226000D01*
X153374000Y-91324000D01*
X155276000Y-91324000D01*
X155276000Y-93226000D01*
X155276000Y-93226000D01*
G37*
G36*
X185276000Y-93226000D02*
X183374000Y-93226000D01*
X183374000Y-91324000D01*
X185276000Y-91324000D01*
X185276000Y-93226000D01*
X185276000Y-93226000D01*
G37*
G36*
X120204591Y-92103085D02*
X120238569Y-92113393D01*
X120269887Y-92130133D01*
X120297339Y-92152661D01*
X120319867Y-92180113D01*
X120336607Y-92211431D01*
X120346915Y-92245409D01*
X120351000Y-92286890D01*
X120351000Y-92888110D01*
X120346915Y-92929591D01*
X120336607Y-92963569D01*
X120319867Y-92994887D01*
X120297339Y-93022339D01*
X120269887Y-93044867D01*
X120238569Y-93061607D01*
X120204591Y-93071915D01*
X120163110Y-93076000D01*
X119486890Y-93076000D01*
X119445409Y-93071915D01*
X119411431Y-93061607D01*
X119380113Y-93044867D01*
X119352661Y-93022339D01*
X119330133Y-92994887D01*
X119313393Y-92963569D01*
X119303085Y-92929591D01*
X119299000Y-92888110D01*
X119299000Y-92286890D01*
X119303085Y-92245409D01*
X119313393Y-92211431D01*
X119330133Y-92180113D01*
X119352661Y-92152661D01*
X119380113Y-92130133D01*
X119411431Y-92113393D01*
X119445409Y-92103085D01*
X119486890Y-92099000D01*
X120163110Y-92099000D01*
X120204591Y-92103085D01*
X120204591Y-92103085D01*
G37*
G36*
X150204591Y-92103085D02*
X150238569Y-92113393D01*
X150269887Y-92130133D01*
X150297339Y-92152661D01*
X150319867Y-92180113D01*
X150336607Y-92211431D01*
X150346915Y-92245409D01*
X150351000Y-92286890D01*
X150351000Y-92888110D01*
X150346915Y-92929591D01*
X150336607Y-92963569D01*
X150319867Y-92994887D01*
X150297339Y-93022339D01*
X150269887Y-93044867D01*
X150238569Y-93061607D01*
X150204591Y-93071915D01*
X150163110Y-93076000D01*
X149486890Y-93076000D01*
X149445409Y-93071915D01*
X149411431Y-93061607D01*
X149380113Y-93044867D01*
X149352661Y-93022339D01*
X149330133Y-92994887D01*
X149313393Y-92963569D01*
X149303085Y-92929591D01*
X149299000Y-92888110D01*
X149299000Y-92286890D01*
X149303085Y-92245409D01*
X149313393Y-92211431D01*
X149330133Y-92180113D01*
X149352661Y-92152661D01*
X149380113Y-92130133D01*
X149411431Y-92113393D01*
X149445409Y-92103085D01*
X149486890Y-92099000D01*
X150163110Y-92099000D01*
X150204591Y-92103085D01*
X150204591Y-92103085D01*
G37*
G36*
X180204591Y-92103085D02*
X180238569Y-92113393D01*
X180269887Y-92130133D01*
X180297339Y-92152661D01*
X180319867Y-92180113D01*
X180336607Y-92211431D01*
X180346915Y-92245409D01*
X180351000Y-92286890D01*
X180351000Y-92888110D01*
X180346915Y-92929591D01*
X180336607Y-92963569D01*
X180319867Y-92994887D01*
X180297339Y-93022339D01*
X180269887Y-93044867D01*
X180238569Y-93061607D01*
X180204591Y-93071915D01*
X180163110Y-93076000D01*
X179486890Y-93076000D01*
X179445409Y-93071915D01*
X179411431Y-93061607D01*
X179380113Y-93044867D01*
X179352661Y-93022339D01*
X179330133Y-92994887D01*
X179313393Y-92963569D01*
X179303085Y-92929591D01*
X179299000Y-92888110D01*
X179299000Y-92286890D01*
X179303085Y-92245409D01*
X179313393Y-92211431D01*
X179330133Y-92180113D01*
X179352661Y-92152661D01*
X179380113Y-92130133D01*
X179411431Y-92113393D01*
X179445409Y-92103085D01*
X179486890Y-92099000D01*
X180163110Y-92099000D01*
X180204591Y-92103085D01*
X180204591Y-92103085D01*
G37*
G36*
X170426000Y-92926000D02*
X162824000Y-92926000D01*
X162824000Y-90824000D01*
X170426000Y-90824000D01*
X170426000Y-92926000D01*
X170426000Y-92926000D01*
G37*
G36*
X140426000Y-92926000D02*
X132824000Y-92926000D01*
X132824000Y-90824000D01*
X140426000Y-90824000D01*
X140426000Y-92926000D01*
X140426000Y-92926000D01*
G37*
G36*
X110426000Y-92926000D02*
X102824000Y-92926000D01*
X102824000Y-90824000D01*
X110426000Y-90824000D01*
X110426000Y-92926000D01*
X110426000Y-92926000D01*
G37*
G36*
X124554485Y-88023996D02*
X124554487Y-88023997D01*
X124554488Y-88023997D01*
X124791255Y-88122069D01*
X125004342Y-88264449D01*
X125185551Y-88445658D01*
X125327931Y-88658745D01*
X125426004Y-88895515D01*
X125476000Y-89146861D01*
X125476000Y-89403139D01*
X125426004Y-89654485D01*
X125327931Y-89891255D01*
X125185551Y-90104342D01*
X125004342Y-90285551D01*
X125004339Y-90285553D01*
X124791255Y-90427931D01*
X124554488Y-90526003D01*
X124554487Y-90526003D01*
X124554485Y-90526004D01*
X124303139Y-90576000D01*
X124046861Y-90576000D01*
X123795515Y-90526004D01*
X123795513Y-90526003D01*
X123795512Y-90526003D01*
X123558745Y-90427931D01*
X123345661Y-90285553D01*
X123345658Y-90285551D01*
X123164449Y-90104342D01*
X123022069Y-89891255D01*
X122923996Y-89654485D01*
X122874000Y-89403139D01*
X122874000Y-89146861D01*
X122923996Y-88895515D01*
X123022069Y-88658745D01*
X123164449Y-88445658D01*
X123345658Y-88264449D01*
X123558745Y-88122069D01*
X123795512Y-88023997D01*
X123795513Y-88023997D01*
X123795515Y-88023996D01*
X124046861Y-87974000D01*
X124303139Y-87974000D01*
X124554485Y-88023996D01*
X124554485Y-88023996D01*
G37*
G36*
X110426000Y-90366000D02*
X102324000Y-90366000D01*
X102324000Y-88364000D01*
X110426000Y-88364000D01*
X110426000Y-90366000D01*
X110426000Y-90366000D01*
G37*
G36*
X170426000Y-90366000D02*
X162324000Y-90366000D01*
X162324000Y-88364000D01*
X170426000Y-88364000D01*
X170426000Y-90366000D01*
X170426000Y-90366000D01*
G37*
G36*
X140426000Y-90366000D02*
X132324000Y-90366000D01*
X132324000Y-88364000D01*
X140426000Y-88364000D01*
X140426000Y-90366000D01*
X140426000Y-90366000D01*
G37*
M02*
