G04 #@! TF.GenerationSoftware,KiCad,Pcbnew,5.0.1*
G04 #@! TF.CreationDate,2019-02-09T18:38:22+01:00*
G04 #@! TF.ProjectId,usbled,7573626C65642E6B696361645F706362,rev?*
G04 #@! TF.SameCoordinates,PX60c62b8PY5e94a58*
G04 #@! TF.FileFunction,Legend,Top*
G04 #@! TF.FilePolarity,Positive*
%FSLAX46Y46*%
G04 Gerber Fmt 4.6, Leading zero omitted, Abs format (unit mm)*
G04 Created by KiCad (PCBNEW 5.0.1) date Sat 09 Feb 2019 06:38:22 PM CET*
%MOMM*%
%LPD*%
G01*
G04 APERTURE LIST*
%ADD10C,0.120000*%
%ADD11C,0.150000*%
G04 APERTURE END LIST*
D10*
G04 #@! TO.C,R1*
X74502064Y1290000D02*
X73297936Y1290000D01*
X74502064Y4010000D02*
X73297936Y4010000D01*
X44502064Y1290000D02*
X43297936Y1290000D01*
X44502064Y4010000D02*
X43297936Y4010000D01*
G04 #@! TO.C,D1*
X79085000Y5000000D02*
X79085000Y7285000D01*
X79085000Y7285000D02*
X77615000Y7285000D01*
X77615000Y7285000D02*
X77615000Y5000000D01*
X49085000Y5000000D02*
X49085000Y7285000D01*
X49085000Y7285000D02*
X47615000Y7285000D01*
X47615000Y7285000D02*
X47615000Y5000000D01*
G04 #@! TO.C,D2*
X82849538Y2640000D02*
G75*
G03X84394830Y8190000I462J2990000D01*
G01*
X82850462Y2640000D02*
G75*
G02X81305170Y8190000I-462J2990000D01*
G01*
X85350000Y5630000D02*
G75*
G03X85350000Y5630000I-2500000J0D01*
G01*
X84395000Y8190000D02*
X81305000Y8190000D01*
X52849538Y2640000D02*
G75*
G03X54394830Y8190000I462J2990000D01*
G01*
X52850462Y2640000D02*
G75*
G02X51305170Y8190000I-462J2990000D01*
G01*
X55350000Y5630000D02*
G75*
G03X55350000Y5630000I-2500000J0D01*
G01*
X54395000Y8190000D02*
X51305000Y8190000D01*
G04 #@! TO.C,D1*
X17615000Y7285000D02*
X17615000Y5000000D01*
X19085000Y7285000D02*
X17615000Y7285000D01*
X19085000Y5000000D02*
X19085000Y7285000D01*
G04 #@! TO.C,D2*
X24395000Y8190000D02*
X21305000Y8190000D01*
X25350000Y5630000D02*
G75*
G03X25350000Y5630000I-2500000J0D01*
G01*
X22850462Y2640000D02*
G75*
G02X21305170Y8190000I-462J2990000D01*
G01*
X22849538Y2640000D02*
G75*
G03X24394830Y8190000I462J2990000D01*
G01*
G04 #@! TO.C,R1*
X14502064Y4010000D02*
X13297936Y4010000D01*
X14502064Y1290000D02*
X13297936Y1290000D01*
D11*
X73733333Y-82380D02*
X73400000Y393810D01*
X73161904Y-82380D02*
X73161904Y917620D01*
X73542857Y917620D01*
X73638095Y870000D01*
X73685714Y822381D01*
X73733333Y727143D01*
X73733333Y584286D01*
X73685714Y489048D01*
X73638095Y441429D01*
X73542857Y393810D01*
X73161904Y393810D01*
X74685714Y-82380D02*
X74114285Y-82380D01*
X74400000Y-82380D02*
X74400000Y917620D01*
X74304761Y774762D01*
X74209523Y679524D01*
X74114285Y631905D01*
X43733333Y-82380D02*
X43400000Y393810D01*
X43161904Y-82380D02*
X43161904Y917620D01*
X43542857Y917620D01*
X43638095Y870000D01*
X43685714Y822381D01*
X43733333Y727143D01*
X43733333Y584286D01*
X43685714Y489048D01*
X43638095Y441429D01*
X43542857Y393810D01*
X43161904Y393810D01*
X44685714Y-82380D02*
X44114285Y-82380D01*
X44400000Y-82380D02*
X44400000Y917620D01*
X44304761Y774762D01*
X44209523Y679524D01*
X44114285Y631905D01*
G04 #@! TO.C,REF\002A\002A*
X81366666Y12947620D02*
X81033333Y13423810D01*
X80795238Y12947620D02*
X80795238Y13947620D01*
X81176190Y13947620D01*
X81271428Y13900000D01*
X81319047Y13852381D01*
X81366666Y13757143D01*
X81366666Y13614286D01*
X81319047Y13519048D01*
X81271428Y13471429D01*
X81176190Y13423810D01*
X80795238Y13423810D01*
X81795238Y13471429D02*
X82128571Y13471429D01*
X82271428Y12947620D02*
X81795238Y12947620D01*
X81795238Y13947620D01*
X82271428Y13947620D01*
X83033333Y13471429D02*
X82700000Y13471429D01*
X82700000Y12947620D02*
X82700000Y13947620D01*
X83176190Y13947620D01*
X83700000Y13947620D02*
X83700000Y13709524D01*
X83461904Y13804762D02*
X83700000Y13709524D01*
X83938095Y13804762D01*
X83557142Y13519048D02*
X83700000Y13709524D01*
X83842857Y13519048D01*
X84461904Y13947620D02*
X84461904Y13709524D01*
X84223809Y13804762D02*
X84461904Y13709524D01*
X84700000Y13804762D01*
X84319047Y13519048D02*
X84461904Y13709524D01*
X84604761Y13519048D01*
X51366666Y12947620D02*
X51033333Y13423810D01*
X50795238Y12947620D02*
X50795238Y13947620D01*
X51176190Y13947620D01*
X51271428Y13900000D01*
X51319047Y13852381D01*
X51366666Y13757143D01*
X51366666Y13614286D01*
X51319047Y13519048D01*
X51271428Y13471429D01*
X51176190Y13423810D01*
X50795238Y13423810D01*
X51795238Y13471429D02*
X52128571Y13471429D01*
X52271428Y12947620D02*
X51795238Y12947620D01*
X51795238Y13947620D01*
X52271428Y13947620D01*
X53033333Y13471429D02*
X52700000Y13471429D01*
X52700000Y12947620D02*
X52700000Y13947620D01*
X53176190Y13947620D01*
X53700000Y13947620D02*
X53700000Y13709524D01*
X53461904Y13804762D02*
X53700000Y13709524D01*
X53938095Y13804762D01*
X53557142Y13519048D02*
X53700000Y13709524D01*
X53842857Y13519048D01*
X54461904Y13947620D02*
X54461904Y13709524D01*
X54223809Y13804762D02*
X54461904Y13709524D01*
X54700000Y13804762D01*
X54319047Y13519048D02*
X54461904Y13709524D01*
X54604761Y13519048D01*
G04 #@! TO.C,D1*
X80232380Y5061905D02*
X79232380Y5061905D01*
X79232380Y5300000D01*
X79280000Y5442858D01*
X79375238Y5538096D01*
X79470476Y5585715D01*
X79660952Y5633334D01*
X79803809Y5633334D01*
X79994285Y5585715D01*
X80089523Y5538096D01*
X80184761Y5442858D01*
X80232380Y5300000D01*
X80232380Y5061905D01*
X80232380Y6585715D02*
X80232380Y6014286D01*
X80232380Y6300000D02*
X79232380Y6300000D01*
X79375238Y6204762D01*
X79470476Y6109524D01*
X79518095Y6014286D01*
X50232380Y5061905D02*
X49232380Y5061905D01*
X49232380Y5300000D01*
X49280000Y5442858D01*
X49375238Y5538096D01*
X49470476Y5585715D01*
X49660952Y5633334D01*
X49803809Y5633334D01*
X49994285Y5585715D01*
X50089523Y5538096D01*
X50184761Y5442858D01*
X50232380Y5300000D01*
X50232380Y5061905D01*
X50232380Y6585715D02*
X50232380Y6014286D01*
X50232380Y6300000D02*
X49232380Y6300000D01*
X49375238Y6204762D01*
X49470476Y6109524D01*
X49518095Y6014286D01*
G04 #@! TO.C,D2*
X87262380Y4891905D02*
X86262380Y4891905D01*
X86262380Y5130000D01*
X86310000Y5272858D01*
X86405238Y5368096D01*
X86500476Y5415715D01*
X86690952Y5463334D01*
X86833809Y5463334D01*
X87024285Y5415715D01*
X87119523Y5368096D01*
X87214761Y5272858D01*
X87262380Y5130000D01*
X87262380Y4891905D01*
X86357619Y5844286D02*
X86310000Y5891905D01*
X86262380Y5987143D01*
X86262380Y6225239D01*
X86310000Y6320477D01*
X86357619Y6368096D01*
X86452857Y6415715D01*
X86548095Y6415715D01*
X86690952Y6368096D01*
X87262380Y5796667D01*
X87262380Y6415715D01*
X57262380Y4891905D02*
X56262380Y4891905D01*
X56262380Y5130000D01*
X56310000Y5272858D01*
X56405238Y5368096D01*
X56500476Y5415715D01*
X56690952Y5463334D01*
X56833809Y5463334D01*
X57024285Y5415715D01*
X57119523Y5368096D01*
X57214761Y5272858D01*
X57262380Y5130000D01*
X57262380Y4891905D01*
X56357619Y5844286D02*
X56310000Y5891905D01*
X56262380Y5987143D01*
X56262380Y6225239D01*
X56310000Y6320477D01*
X56357619Y6368096D01*
X56452857Y6415715D01*
X56548095Y6415715D01*
X56690952Y6368096D01*
X57262380Y5796667D01*
X57262380Y6415715D01*
G04 #@! TO.C,D1*
X20232380Y5061905D02*
X19232380Y5061905D01*
X19232380Y5300000D01*
X19280000Y5442858D01*
X19375238Y5538096D01*
X19470476Y5585715D01*
X19660952Y5633334D01*
X19803809Y5633334D01*
X19994285Y5585715D01*
X20089523Y5538096D01*
X20184761Y5442858D01*
X20232380Y5300000D01*
X20232380Y5061905D01*
X20232380Y6585715D02*
X20232380Y6014286D01*
X20232380Y6300000D02*
X19232380Y6300000D01*
X19375238Y6204762D01*
X19470476Y6109524D01*
X19518095Y6014286D01*
G04 #@! TO.C,D2*
X27262380Y4891905D02*
X26262380Y4891905D01*
X26262380Y5130000D01*
X26310000Y5272858D01*
X26405238Y5368096D01*
X26500476Y5415715D01*
X26690952Y5463334D01*
X26833809Y5463334D01*
X27024285Y5415715D01*
X27119523Y5368096D01*
X27214761Y5272858D01*
X27262380Y5130000D01*
X27262380Y4891905D01*
X26357619Y5844286D02*
X26310000Y5891905D01*
X26262380Y5987143D01*
X26262380Y6225239D01*
X26310000Y6320477D01*
X26357619Y6368096D01*
X26452857Y6415715D01*
X26548095Y6415715D01*
X26690952Y6368096D01*
X27262380Y5796667D01*
X27262380Y6415715D01*
G04 #@! TO.C,R1*
X13733333Y-82380D02*
X13400000Y393810D01*
X13161904Y-82380D02*
X13161904Y917620D01*
X13542857Y917620D01*
X13638095Y870000D01*
X13685714Y822381D01*
X13733333Y727143D01*
X13733333Y584286D01*
X13685714Y489048D01*
X13638095Y441429D01*
X13542857Y393810D01*
X13161904Y393810D01*
X14685714Y-82380D02*
X14114285Y-82380D01*
X14400000Y-82380D02*
X14400000Y917620D01*
X14304761Y774762D01*
X14209523Y679524D01*
X14114285Y631905D01*
G04 #@! TO.C,REF\002A\002A*
X21366666Y12947620D02*
X21033333Y13423810D01*
X20795238Y12947620D02*
X20795238Y13947620D01*
X21176190Y13947620D01*
X21271428Y13900000D01*
X21319047Y13852381D01*
X21366666Y13757143D01*
X21366666Y13614286D01*
X21319047Y13519048D01*
X21271428Y13471429D01*
X21176190Y13423810D01*
X20795238Y13423810D01*
X21795238Y13471429D02*
X22128571Y13471429D01*
X22271428Y12947620D02*
X21795238Y12947620D01*
X21795238Y13947620D01*
X22271428Y13947620D01*
X23033333Y13471429D02*
X22700000Y13471429D01*
X22700000Y12947620D02*
X22700000Y13947620D01*
X23176190Y13947620D01*
X23700000Y13947620D02*
X23700000Y13709524D01*
X23461904Y13804762D02*
X23700000Y13709524D01*
X23938095Y13804762D01*
X23557142Y13519048D02*
X23700000Y13709524D01*
X23842857Y13519048D01*
X24461904Y13947620D02*
X24461904Y13709524D01*
X24223809Y13804762D02*
X24461904Y13709524D01*
X24700000Y13804762D01*
X24319047Y13519048D02*
X24461904Y13709524D01*
X24604761Y13519048D01*
G04 #@! TD*
M02*
