G04 #@! TF.GenerationSoftware,KiCad,Pcbnew,5.0.1*
G04 #@! TF.CreationDate,2019-02-09T18:30:38+01:00*
G04 #@! TF.ProjectId,usbled,7573626C65642E6B696361645F706362,rev?*
G04 #@! TF.SameCoordinates,Original*
G04 #@! TF.FileFunction,Profile,NP*
%FSLAX46Y46*%
G04 Gerber Fmt 4.6, Leading zero omitted, Abs format (unit mm)*
G04 Created by KiCad (PCBNEW 5.0.1) date Sat 09 Feb 2019 06:30:38 PM CET*
%MOMM*%
%LPD*%
G01*
G04 APERTURE LIST*
%ADD10C,0.100000*%
G04 APERTURE END LIST*
D10*
X161425000Y-88115000D02*
G75*
G02X162425000Y-87115000I1000000J0D01*
G01*
X131425000Y-88115000D02*
G75*
G02X132425000Y-87115000I1000000J0D01*
G01*
X186425000Y-89115000D02*
X186425000Y-97175000D01*
X156425000Y-89115000D02*
X156425000Y-97175000D01*
X162425000Y-87115000D02*
X184425000Y-87115000D01*
X132425000Y-87115000D02*
X154425000Y-87115000D01*
X162425000Y-99175000D02*
G75*
G02X161425000Y-98175000I0J1000000D01*
G01*
X132425000Y-99175000D02*
G75*
G02X131425000Y-98175000I0J1000000D01*
G01*
X161425000Y-98175000D02*
X161425000Y-88115000D01*
X131425000Y-98175000D02*
X131425000Y-88115000D01*
X184425000Y-87115000D02*
G75*
G02X186425000Y-89115000I0J-2000000D01*
G01*
X154425000Y-87115000D02*
G75*
G02X156425000Y-89115000I0J-2000000D01*
G01*
X184425000Y-99175000D02*
X162425000Y-99175000D01*
X154425000Y-99175000D02*
X132425000Y-99175000D01*
X186425000Y-97175000D02*
G75*
G02X184425000Y-99175000I-2000000J0D01*
G01*
X156425000Y-97175000D02*
G75*
G02X154425000Y-99175000I-2000000J0D01*
G01*
X101425000Y-88115000D02*
G75*
G02X102425000Y-87115000I1000000J0D01*
G01*
X126425000Y-89115000D02*
X126425000Y-97175000D01*
X102425000Y-87115000D02*
X124425000Y-87115000D01*
X102425000Y-99175000D02*
G75*
G02X101425000Y-98175000I0J1000000D01*
G01*
X101425000Y-98175000D02*
X101425000Y-88115000D01*
X124425000Y-87115000D02*
G75*
G02X126425000Y-89115000I0J-2000000D01*
G01*
X124425000Y-99175000D02*
X102425000Y-99175000D01*
X126425000Y-97175000D02*
G75*
G02X124425000Y-99175000I-2000000J0D01*
G01*
M02*
