G04 #@! TF.GenerationSoftware,KiCad,Pcbnew,5.0.1*
G04 #@! TF.CreationDate,2019-02-10T20:56:43+01:00*
G04 #@! TF.ProjectId,usbled,7573626C65642E6B696361645F706362,rev?*
G04 #@! TF.SameCoordinates,PX60c62b8PY5e94a58*
G04 #@! TF.FileFunction,Profile,NP*
%FSLAX46Y46*%
G04 Gerber Fmt 4.6, Leading zero omitted, Abs format (unit mm)*
G04 Created by KiCad (PCBNEW 5.0.1) date Sun 10 Feb 2019 08:56:43 PM CET*
%MOMM*%
%LPD*%
G01*
G04 APERTURE LIST*
%ADD10C,0.100000*%
G04 APERTURE END LIST*
D10*
X59950000Y11060000D02*
G75*
G02X60950000Y12060000I1000000J0D01*
G01*
X29950000Y11060000D02*
G75*
G02X30950000Y12060000I1000000J0D01*
G01*
X84950000Y10060000D02*
X84950000Y2000000D01*
X54950000Y10060000D02*
X54950000Y2000000D01*
X60950000Y12060000D02*
X82950000Y12060000D01*
X30950000Y12060000D02*
X52950000Y12060000D01*
X60950000Y0D02*
G75*
G02X59950000Y1000000I0J1000000D01*
G01*
X30950000Y0D02*
G75*
G02X29950000Y1000000I0J1000000D01*
G01*
X59950000Y1000000D02*
X59950000Y11060000D01*
X29950000Y1000000D02*
X29950000Y11060000D01*
X82950000Y12060000D02*
G75*
G02X84950000Y10060000I0J-2000000D01*
G01*
X52950000Y12060000D02*
G75*
G02X54950000Y10060000I0J-2000000D01*
G01*
X82950000Y0D02*
X60950000Y0D01*
X52950000Y0D02*
X30950000Y0D01*
X84950000Y2000000D02*
G75*
G02X82950000Y0I-2000000J0D01*
G01*
X54950000Y2000000D02*
G75*
G02X52950000Y0I-2000000J0D01*
G01*
X-50000Y11060000D02*
G75*
G02X950000Y12060000I1000000J0D01*
G01*
X24950000Y10060000D02*
X24950000Y2000000D01*
X950000Y12060000D02*
X22950000Y12060000D01*
X950000Y0D02*
G75*
G02X-50000Y1000000I0J1000000D01*
G01*
X-50000Y1000000D02*
X-50000Y11060000D01*
X22950000Y12060000D02*
G75*
G02X24950000Y10060000I0J-2000000D01*
G01*
X22950000Y0D02*
X950000Y0D01*
X24950000Y2000000D02*
G75*
G02X22950000Y0I-2000000J0D01*
G01*
M02*
