G04 #@! TF.GenerationSoftware,KiCad,Pcbnew,5.0.1*
G04 #@! TF.CreationDate,2019-02-09T18:38:22+01:00*
G04 #@! TF.ProjectId,usbled,7573626C65642E6B696361645F706362,rev?*
G04 #@! TF.SameCoordinates,PX60c62b8PY5e94a58*
G04 #@! TF.FileFunction,Soldermask,Top*
G04 #@! TF.FilePolarity,Negative*
%FSLAX46Y46*%
G04 Gerber Fmt 4.6, Leading zero omitted, Abs format (unit mm)*
G04 Created by KiCad (PCBNEW 5.0.1) date Sat 09 Feb 2019 06:38:22 PM CET*
%MOMM*%
%LPD*%
G01*
G04 APERTURE LIST*
%ADD10C,0.100000*%
G04 APERTURE END LIST*
D10*
G36*
X8951000Y1189000D02*
X849000Y1189000D01*
X849000Y3191000D01*
X8951000Y3191000D01*
X8951000Y1189000D01*
X8951000Y1189000D01*
G37*
G36*
X38951000Y1189000D02*
X30849000Y1189000D01*
X30849000Y3191000D01*
X38951000Y3191000D01*
X38951000Y1189000D01*
X38951000Y1189000D01*
G37*
G36*
X68951000Y1189000D02*
X60849000Y1189000D01*
X60849000Y3191000D01*
X68951000Y3191000D01*
X68951000Y1189000D01*
X68951000Y1189000D01*
G37*
G36*
X75818604Y4021653D02*
X75855145Y4010568D01*
X75888820Y3992569D01*
X75918341Y3968341D01*
X75942569Y3938820D01*
X75960568Y3905145D01*
X75971653Y3868604D01*
X75976000Y3824462D01*
X75976000Y1475538D01*
X75971653Y1431396D01*
X75960568Y1394855D01*
X75942569Y1361180D01*
X75918341Y1331659D01*
X75888820Y1307431D01*
X75855145Y1289432D01*
X75818604Y1278347D01*
X75774462Y1274000D01*
X74825538Y1274000D01*
X74781396Y1278347D01*
X74744855Y1289432D01*
X74711180Y1307431D01*
X74681659Y1331659D01*
X74657431Y1361180D01*
X74639432Y1394855D01*
X74628347Y1431396D01*
X74624000Y1475538D01*
X74624000Y3824462D01*
X74628347Y3868604D01*
X74639432Y3905145D01*
X74657431Y3938820D01*
X74681659Y3968341D01*
X74711180Y3992569D01*
X74744855Y4010568D01*
X74781396Y4021653D01*
X74825538Y4026000D01*
X75774462Y4026000D01*
X75818604Y4021653D01*
X75818604Y4021653D01*
G37*
G36*
X15818604Y4021653D02*
X15855145Y4010568D01*
X15888820Y3992569D01*
X15918341Y3968341D01*
X15942569Y3938820D01*
X15960568Y3905145D01*
X15971653Y3868604D01*
X15976000Y3824462D01*
X15976000Y1475538D01*
X15971653Y1431396D01*
X15960568Y1394855D01*
X15942569Y1361180D01*
X15918341Y1331659D01*
X15888820Y1307431D01*
X15855145Y1289432D01*
X15818604Y1278347D01*
X15774462Y1274000D01*
X14825538Y1274000D01*
X14781396Y1278347D01*
X14744855Y1289432D01*
X14711180Y1307431D01*
X14681659Y1331659D01*
X14657431Y1361180D01*
X14639432Y1394855D01*
X14628347Y1431396D01*
X14624000Y1475538D01*
X14624000Y3824462D01*
X14628347Y3868604D01*
X14639432Y3905145D01*
X14657431Y3938820D01*
X14681659Y3968341D01*
X14711180Y3992569D01*
X14744855Y4010568D01*
X14781396Y4021653D01*
X14825538Y4026000D01*
X15774462Y4026000D01*
X15818604Y4021653D01*
X15818604Y4021653D01*
G37*
G36*
X13018604Y4021653D02*
X13055145Y4010568D01*
X13088820Y3992569D01*
X13118341Y3968341D01*
X13142569Y3938820D01*
X13160568Y3905145D01*
X13171653Y3868604D01*
X13176000Y3824462D01*
X13176000Y1475538D01*
X13171653Y1431396D01*
X13160568Y1394855D01*
X13142569Y1361180D01*
X13118341Y1331659D01*
X13088820Y1307431D01*
X13055145Y1289432D01*
X13018604Y1278347D01*
X12974462Y1274000D01*
X12025538Y1274000D01*
X11981396Y1278347D01*
X11944855Y1289432D01*
X11911180Y1307431D01*
X11881659Y1331659D01*
X11857431Y1361180D01*
X11839432Y1394855D01*
X11828347Y1431396D01*
X11824000Y1475538D01*
X11824000Y3824462D01*
X11828347Y3868604D01*
X11839432Y3905145D01*
X11857431Y3938820D01*
X11881659Y3968341D01*
X11911180Y3992569D01*
X11944855Y4010568D01*
X11981396Y4021653D01*
X12025538Y4026000D01*
X12974462Y4026000D01*
X13018604Y4021653D01*
X13018604Y4021653D01*
G37*
G36*
X43018604Y4021653D02*
X43055145Y4010568D01*
X43088820Y3992569D01*
X43118341Y3968341D01*
X43142569Y3938820D01*
X43160568Y3905145D01*
X43171653Y3868604D01*
X43176000Y3824462D01*
X43176000Y1475538D01*
X43171653Y1431396D01*
X43160568Y1394855D01*
X43142569Y1361180D01*
X43118341Y1331659D01*
X43088820Y1307431D01*
X43055145Y1289432D01*
X43018604Y1278347D01*
X42974462Y1274000D01*
X42025538Y1274000D01*
X41981396Y1278347D01*
X41944855Y1289432D01*
X41911180Y1307431D01*
X41881659Y1331659D01*
X41857431Y1361180D01*
X41839432Y1394855D01*
X41828347Y1431396D01*
X41824000Y1475538D01*
X41824000Y3824462D01*
X41828347Y3868604D01*
X41839432Y3905145D01*
X41857431Y3938820D01*
X41881659Y3968341D01*
X41911180Y3992569D01*
X41944855Y4010568D01*
X41981396Y4021653D01*
X42025538Y4026000D01*
X42974462Y4026000D01*
X43018604Y4021653D01*
X43018604Y4021653D01*
G37*
G36*
X45818604Y4021653D02*
X45855145Y4010568D01*
X45888820Y3992569D01*
X45918341Y3968341D01*
X45942569Y3938820D01*
X45960568Y3905145D01*
X45971653Y3868604D01*
X45976000Y3824462D01*
X45976000Y1475538D01*
X45971653Y1431396D01*
X45960568Y1394855D01*
X45942569Y1361180D01*
X45918341Y1331659D01*
X45888820Y1307431D01*
X45855145Y1289432D01*
X45818604Y1278347D01*
X45774462Y1274000D01*
X44825538Y1274000D01*
X44781396Y1278347D01*
X44744855Y1289432D01*
X44711180Y1307431D01*
X44681659Y1331659D01*
X44657431Y1361180D01*
X44639432Y1394855D01*
X44628347Y1431396D01*
X44624000Y1475538D01*
X44624000Y3824462D01*
X44628347Y3868604D01*
X44639432Y3905145D01*
X44657431Y3938820D01*
X44681659Y3968341D01*
X44711180Y3992569D01*
X44744855Y4010568D01*
X44781396Y4021653D01*
X44825538Y4026000D01*
X45774462Y4026000D01*
X45818604Y4021653D01*
X45818604Y4021653D01*
G37*
G36*
X73018604Y4021653D02*
X73055145Y4010568D01*
X73088820Y3992569D01*
X73118341Y3968341D01*
X73142569Y3938820D01*
X73160568Y3905145D01*
X73171653Y3868604D01*
X73176000Y3824462D01*
X73176000Y1475538D01*
X73171653Y1431396D01*
X73160568Y1394855D01*
X73142569Y1361180D01*
X73118341Y1331659D01*
X73088820Y1307431D01*
X73055145Y1289432D01*
X73018604Y1278347D01*
X72974462Y1274000D01*
X72025538Y1274000D01*
X71981396Y1278347D01*
X71944855Y1289432D01*
X71911180Y1307431D01*
X71881659Y1331659D01*
X71857431Y1361180D01*
X71839432Y1394855D01*
X71828347Y1431396D01*
X71824000Y1475538D01*
X71824000Y3824462D01*
X71828347Y3868604D01*
X71839432Y3905145D01*
X71857431Y3938820D01*
X71881659Y3968341D01*
X71911180Y3992569D01*
X71944855Y4010568D01*
X71981396Y4021653D01*
X72025538Y4026000D01*
X72974462Y4026000D01*
X73018604Y4021653D01*
X73018604Y4021653D01*
G37*
G36*
X83127396Y5274454D02*
X83300466Y5202766D01*
X83456230Y5098688D01*
X83588688Y4966230D01*
X83692766Y4810466D01*
X83764454Y4637396D01*
X83801000Y4453667D01*
X83801000Y4266333D01*
X83764454Y4082604D01*
X83692766Y3909534D01*
X83588688Y3753770D01*
X83456230Y3621312D01*
X83300466Y3517234D01*
X83127396Y3445546D01*
X82943667Y3409000D01*
X82756333Y3409000D01*
X82572604Y3445546D01*
X82399534Y3517234D01*
X82243770Y3621312D01*
X82111312Y3753770D01*
X82007234Y3909534D01*
X81935546Y4082604D01*
X81899000Y4266333D01*
X81899000Y4453667D01*
X81935546Y4637396D01*
X82007234Y4810466D01*
X82111312Y4966230D01*
X82243770Y5098688D01*
X82399534Y5202766D01*
X82572604Y5274454D01*
X82756333Y5311000D01*
X82943667Y5311000D01*
X83127396Y5274454D01*
X83127396Y5274454D01*
G37*
G36*
X23127396Y5274454D02*
X23300466Y5202766D01*
X23456230Y5098688D01*
X23588688Y4966230D01*
X23692766Y4810466D01*
X23764454Y4637396D01*
X23801000Y4453667D01*
X23801000Y4266333D01*
X23764454Y4082604D01*
X23692766Y3909534D01*
X23588688Y3753770D01*
X23456230Y3621312D01*
X23300466Y3517234D01*
X23127396Y3445546D01*
X22943667Y3409000D01*
X22756333Y3409000D01*
X22572604Y3445546D01*
X22399534Y3517234D01*
X22243770Y3621312D01*
X22111312Y3753770D01*
X22007234Y3909534D01*
X21935546Y4082604D01*
X21899000Y4266333D01*
X21899000Y4453667D01*
X21935546Y4637396D01*
X22007234Y4810466D01*
X22111312Y4966230D01*
X22243770Y5098688D01*
X22399534Y5202766D01*
X22572604Y5274454D01*
X22756333Y5311000D01*
X22943667Y5311000D01*
X23127396Y5274454D01*
X23127396Y5274454D01*
G37*
G36*
X53127396Y5274454D02*
X53300466Y5202766D01*
X53456230Y5098688D01*
X53588688Y4966230D01*
X53692766Y4810466D01*
X53764454Y4637396D01*
X53801000Y4453667D01*
X53801000Y4266333D01*
X53764454Y4082604D01*
X53692766Y3909534D01*
X53588688Y3753770D01*
X53456230Y3621312D01*
X53300466Y3517234D01*
X53127396Y3445546D01*
X52943667Y3409000D01*
X52756333Y3409000D01*
X52572604Y3445546D01*
X52399534Y3517234D01*
X52243770Y3621312D01*
X52111312Y3753770D01*
X52007234Y3909534D01*
X51935546Y4082604D01*
X51899000Y4266333D01*
X51899000Y4453667D01*
X51935546Y4637396D01*
X52007234Y4810466D01*
X52111312Y4966230D01*
X52243770Y5098688D01*
X52399534Y5202766D01*
X52572604Y5274454D01*
X52756333Y5311000D01*
X52943667Y5311000D01*
X53127396Y5274454D01*
X53127396Y5274454D01*
G37*
G36*
X68951000Y3649000D02*
X61349000Y3649000D01*
X61349000Y5751000D01*
X68951000Y5751000D01*
X68951000Y3649000D01*
X68951000Y3649000D01*
G37*
G36*
X38951000Y3649000D02*
X31349000Y3649000D01*
X31349000Y5751000D01*
X38951000Y5751000D01*
X38951000Y3649000D01*
X38951000Y3649000D01*
G37*
G36*
X8951000Y3649000D02*
X1349000Y3649000D01*
X1349000Y5751000D01*
X8951000Y5751000D01*
X8951000Y3649000D01*
X8951000Y3649000D01*
G37*
G36*
X18729591Y5496915D02*
X18763569Y5486607D01*
X18794887Y5469867D01*
X18822339Y5447339D01*
X18844867Y5419887D01*
X18861607Y5388569D01*
X18871915Y5354591D01*
X18876000Y5313110D01*
X18876000Y4711890D01*
X18871915Y4670409D01*
X18861607Y4636431D01*
X18844867Y4605113D01*
X18822339Y4577661D01*
X18794887Y4555133D01*
X18763569Y4538393D01*
X18729591Y4528085D01*
X18688110Y4524000D01*
X18011890Y4524000D01*
X17970409Y4528085D01*
X17936431Y4538393D01*
X17905113Y4555133D01*
X17877661Y4577661D01*
X17855133Y4605113D01*
X17838393Y4636431D01*
X17828085Y4670409D01*
X17824000Y4711890D01*
X17824000Y5313110D01*
X17828085Y5354591D01*
X17838393Y5388569D01*
X17855133Y5419887D01*
X17877661Y5447339D01*
X17905113Y5469867D01*
X17936431Y5486607D01*
X17970409Y5496915D01*
X18011890Y5501000D01*
X18688110Y5501000D01*
X18729591Y5496915D01*
X18729591Y5496915D01*
G37*
G36*
X48729591Y5496915D02*
X48763569Y5486607D01*
X48794887Y5469867D01*
X48822339Y5447339D01*
X48844867Y5419887D01*
X48861607Y5388569D01*
X48871915Y5354591D01*
X48876000Y5313110D01*
X48876000Y4711890D01*
X48871915Y4670409D01*
X48861607Y4636431D01*
X48844867Y4605113D01*
X48822339Y4577661D01*
X48794887Y4555133D01*
X48763569Y4538393D01*
X48729591Y4528085D01*
X48688110Y4524000D01*
X48011890Y4524000D01*
X47970409Y4528085D01*
X47936431Y4538393D01*
X47905113Y4555133D01*
X47877661Y4577661D01*
X47855133Y4605113D01*
X47838393Y4636431D01*
X47828085Y4670409D01*
X47824000Y4711890D01*
X47824000Y5313110D01*
X47828085Y5354591D01*
X47838393Y5388569D01*
X47855133Y5419887D01*
X47877661Y5447339D01*
X47905113Y5469867D01*
X47936431Y5486607D01*
X47970409Y5496915D01*
X48011890Y5501000D01*
X48688110Y5501000D01*
X48729591Y5496915D01*
X48729591Y5496915D01*
G37*
G36*
X78729591Y5496915D02*
X78763569Y5486607D01*
X78794887Y5469867D01*
X78822339Y5447339D01*
X78844867Y5419887D01*
X78861607Y5388569D01*
X78871915Y5354591D01*
X78876000Y5313110D01*
X78876000Y4711890D01*
X78871915Y4670409D01*
X78861607Y4636431D01*
X78844867Y4605113D01*
X78822339Y4577661D01*
X78794887Y4555133D01*
X78763569Y4538393D01*
X78729591Y4528085D01*
X78688110Y4524000D01*
X78011890Y4524000D01*
X77970409Y4528085D01*
X77936431Y4538393D01*
X77905113Y4555133D01*
X77877661Y4577661D01*
X77855133Y4605113D01*
X77838393Y4636431D01*
X77828085Y4670409D01*
X77824000Y4711890D01*
X77824000Y5313110D01*
X77828085Y5354591D01*
X77838393Y5388569D01*
X77855133Y5419887D01*
X77877661Y5447339D01*
X77905113Y5469867D01*
X77936431Y5486607D01*
X77970409Y5496915D01*
X78011890Y5501000D01*
X78688110Y5501000D01*
X78729591Y5496915D01*
X78729591Y5496915D01*
G37*
G36*
X23801000Y5949000D02*
X21899000Y5949000D01*
X21899000Y7851000D01*
X23801000Y7851000D01*
X23801000Y5949000D01*
X23801000Y5949000D01*
G37*
G36*
X53801000Y5949000D02*
X51899000Y5949000D01*
X51899000Y7851000D01*
X53801000Y7851000D01*
X53801000Y5949000D01*
X53801000Y5949000D01*
G37*
G36*
X83801000Y5949000D02*
X81899000Y5949000D01*
X81899000Y7851000D01*
X83801000Y7851000D01*
X83801000Y5949000D01*
X83801000Y5949000D01*
G37*
G36*
X78729591Y7071915D02*
X78763569Y7061607D01*
X78794887Y7044867D01*
X78822339Y7022339D01*
X78844867Y6994887D01*
X78861607Y6963569D01*
X78871915Y6929591D01*
X78876000Y6888110D01*
X78876000Y6286890D01*
X78871915Y6245409D01*
X78861607Y6211431D01*
X78844867Y6180113D01*
X78822339Y6152661D01*
X78794887Y6130133D01*
X78763569Y6113393D01*
X78729591Y6103085D01*
X78688110Y6099000D01*
X78011890Y6099000D01*
X77970409Y6103085D01*
X77936431Y6113393D01*
X77905113Y6130133D01*
X77877661Y6152661D01*
X77855133Y6180113D01*
X77838393Y6211431D01*
X77828085Y6245409D01*
X77824000Y6286890D01*
X77824000Y6888110D01*
X77828085Y6929591D01*
X77838393Y6963569D01*
X77855133Y6994887D01*
X77877661Y7022339D01*
X77905113Y7044867D01*
X77936431Y7061607D01*
X77970409Y7071915D01*
X78011890Y7076000D01*
X78688110Y7076000D01*
X78729591Y7071915D01*
X78729591Y7071915D01*
G37*
G36*
X18729591Y7071915D02*
X18763569Y7061607D01*
X18794887Y7044867D01*
X18822339Y7022339D01*
X18844867Y6994887D01*
X18861607Y6963569D01*
X18871915Y6929591D01*
X18876000Y6888110D01*
X18876000Y6286890D01*
X18871915Y6245409D01*
X18861607Y6211431D01*
X18844867Y6180113D01*
X18822339Y6152661D01*
X18794887Y6130133D01*
X18763569Y6113393D01*
X18729591Y6103085D01*
X18688110Y6099000D01*
X18011890Y6099000D01*
X17970409Y6103085D01*
X17936431Y6113393D01*
X17905113Y6130133D01*
X17877661Y6152661D01*
X17855133Y6180113D01*
X17838393Y6211431D01*
X17828085Y6245409D01*
X17824000Y6286890D01*
X17824000Y6888110D01*
X17828085Y6929591D01*
X17838393Y6963569D01*
X17855133Y6994887D01*
X17877661Y7022339D01*
X17905113Y7044867D01*
X17936431Y7061607D01*
X17970409Y7071915D01*
X18011890Y7076000D01*
X18688110Y7076000D01*
X18729591Y7071915D01*
X18729591Y7071915D01*
G37*
G36*
X48729591Y7071915D02*
X48763569Y7061607D01*
X48794887Y7044867D01*
X48822339Y7022339D01*
X48844867Y6994887D01*
X48861607Y6963569D01*
X48871915Y6929591D01*
X48876000Y6888110D01*
X48876000Y6286890D01*
X48871915Y6245409D01*
X48861607Y6211431D01*
X48844867Y6180113D01*
X48822339Y6152661D01*
X48794887Y6130133D01*
X48763569Y6113393D01*
X48729591Y6103085D01*
X48688110Y6099000D01*
X48011890Y6099000D01*
X47970409Y6103085D01*
X47936431Y6113393D01*
X47905113Y6130133D01*
X47877661Y6152661D01*
X47855133Y6180113D01*
X47838393Y6211431D01*
X47828085Y6245409D01*
X47824000Y6286890D01*
X47824000Y6888110D01*
X47828085Y6929591D01*
X47838393Y6963569D01*
X47855133Y6994887D01*
X47877661Y7022339D01*
X47905113Y7044867D01*
X47936431Y7061607D01*
X47970409Y7071915D01*
X48011890Y7076000D01*
X48688110Y7076000D01*
X48729591Y7071915D01*
X48729591Y7071915D01*
G37*
G36*
X68951000Y6249000D02*
X61349000Y6249000D01*
X61349000Y8351000D01*
X68951000Y8351000D01*
X68951000Y6249000D01*
X68951000Y6249000D01*
G37*
G36*
X8951000Y6249000D02*
X1349000Y6249000D01*
X1349000Y8351000D01*
X8951000Y8351000D01*
X8951000Y6249000D01*
X8951000Y6249000D01*
G37*
G36*
X38951000Y6249000D02*
X31349000Y6249000D01*
X31349000Y8351000D01*
X38951000Y8351000D01*
X38951000Y6249000D01*
X38951000Y6249000D01*
G37*
G36*
X53079485Y11151004D02*
X53079487Y11151003D01*
X53079488Y11151003D01*
X53316255Y11052931D01*
X53529342Y10910551D01*
X53710551Y10729342D01*
X53852931Y10516255D01*
X53951004Y10279485D01*
X54001000Y10028139D01*
X54001000Y9771861D01*
X53951004Y9520515D01*
X53852931Y9283745D01*
X53710551Y9070658D01*
X53529342Y8889449D01*
X53529339Y8889447D01*
X53316255Y8747069D01*
X53079488Y8648997D01*
X53079487Y8648997D01*
X53079485Y8648996D01*
X52828139Y8599000D01*
X52571861Y8599000D01*
X52320515Y8648996D01*
X52320513Y8648997D01*
X52320512Y8648997D01*
X52083745Y8747069D01*
X51870661Y8889447D01*
X51870658Y8889449D01*
X51689449Y9070658D01*
X51547069Y9283745D01*
X51448996Y9520515D01*
X51399000Y9771861D01*
X51399000Y10028139D01*
X51448996Y10279485D01*
X51547069Y10516255D01*
X51689449Y10729342D01*
X51870658Y10910551D01*
X52083745Y11052931D01*
X52320512Y11151003D01*
X52320513Y11151003D01*
X52320515Y11151004D01*
X52571861Y11201000D01*
X52828139Y11201000D01*
X53079485Y11151004D01*
X53079485Y11151004D01*
G37*
G36*
X23079485Y11151004D02*
X23079487Y11151003D01*
X23079488Y11151003D01*
X23316255Y11052931D01*
X23529342Y10910551D01*
X23710551Y10729342D01*
X23852931Y10516255D01*
X23951004Y10279485D01*
X24001000Y10028139D01*
X24001000Y9771861D01*
X23951004Y9520515D01*
X23852931Y9283745D01*
X23710551Y9070658D01*
X23529342Y8889449D01*
X23529339Y8889447D01*
X23316255Y8747069D01*
X23079488Y8648997D01*
X23079487Y8648997D01*
X23079485Y8648996D01*
X22828139Y8599000D01*
X22571861Y8599000D01*
X22320515Y8648996D01*
X22320513Y8648997D01*
X22320512Y8648997D01*
X22083745Y8747069D01*
X21870661Y8889447D01*
X21870658Y8889449D01*
X21689449Y9070658D01*
X21547069Y9283745D01*
X21448996Y9520515D01*
X21399000Y9771861D01*
X21399000Y10028139D01*
X21448996Y10279485D01*
X21547069Y10516255D01*
X21689449Y10729342D01*
X21870658Y10910551D01*
X22083745Y11052931D01*
X22320512Y11151003D01*
X22320513Y11151003D01*
X22320515Y11151004D01*
X22571861Y11201000D01*
X22828139Y11201000D01*
X23079485Y11151004D01*
X23079485Y11151004D01*
G37*
G36*
X83079485Y11151004D02*
X83079487Y11151003D01*
X83079488Y11151003D01*
X83316255Y11052931D01*
X83529342Y10910551D01*
X83710551Y10729342D01*
X83852931Y10516255D01*
X83951004Y10279485D01*
X84001000Y10028139D01*
X84001000Y9771861D01*
X83951004Y9520515D01*
X83852931Y9283745D01*
X83710551Y9070658D01*
X83529342Y8889449D01*
X83529339Y8889447D01*
X83316255Y8747069D01*
X83079488Y8648997D01*
X83079487Y8648997D01*
X83079485Y8648996D01*
X82828139Y8599000D01*
X82571861Y8599000D01*
X82320515Y8648996D01*
X82320513Y8648997D01*
X82320512Y8648997D01*
X82083745Y8747069D01*
X81870661Y8889447D01*
X81870658Y8889449D01*
X81689449Y9070658D01*
X81547069Y9283745D01*
X81448996Y9520515D01*
X81399000Y9771861D01*
X81399000Y10028139D01*
X81448996Y10279485D01*
X81547069Y10516255D01*
X81689449Y10729342D01*
X81870658Y10910551D01*
X82083745Y11052931D01*
X82320512Y11151003D01*
X82320513Y11151003D01*
X82320515Y11151004D01*
X82571861Y11201000D01*
X82828139Y11201000D01*
X83079485Y11151004D01*
X83079485Y11151004D01*
G37*
G36*
X38951000Y8809000D02*
X30849000Y8809000D01*
X30849000Y10811000D01*
X38951000Y10811000D01*
X38951000Y8809000D01*
X38951000Y8809000D01*
G37*
G36*
X68951000Y8809000D02*
X60849000Y8809000D01*
X60849000Y10811000D01*
X68951000Y10811000D01*
X68951000Y8809000D01*
X68951000Y8809000D01*
G37*
G36*
X8951000Y8809000D02*
X849000Y8809000D01*
X849000Y10811000D01*
X8951000Y10811000D01*
X8951000Y8809000D01*
X8951000Y8809000D01*
G37*
M02*
