G04 #@! TF.GenerationSoftware,KiCad,Pcbnew,5.0.1*
G04 #@! TF.CreationDate,2019-02-09T18:30:38+01:00*
G04 #@! TF.ProjectId,usbled,7573626C65642E6B696361645F706362,rev?*
G04 #@! TF.SameCoordinates,Original*
G04 #@! TF.FileFunction,Soldermask,Bot*
G04 #@! TF.FilePolarity,Negative*
%FSLAX46Y46*%
G04 Gerber Fmt 4.6, Leading zero omitted, Abs format (unit mm)*
G04 Created by KiCad (PCBNEW 5.0.1) date Sat 09 Feb 2019 06:30:38 PM CET*
%MOMM*%
%LPD*%
G01*
G04 APERTURE LIST*
%ADD10C,0.100000*%
G04 APERTURE END LIST*
D10*
G36*
X184602396Y-93900546D02*
X184775466Y-93972234D01*
X184931230Y-94076312D01*
X185063688Y-94208770D01*
X185167766Y-94364534D01*
X185239454Y-94537604D01*
X185276000Y-94721333D01*
X185276000Y-94908667D01*
X185239454Y-95092396D01*
X185167766Y-95265466D01*
X185063688Y-95421230D01*
X184931230Y-95553688D01*
X184775466Y-95657766D01*
X184602396Y-95729454D01*
X184418667Y-95766000D01*
X184231333Y-95766000D01*
X184047604Y-95729454D01*
X183874534Y-95657766D01*
X183718770Y-95553688D01*
X183586312Y-95421230D01*
X183482234Y-95265466D01*
X183410546Y-95092396D01*
X183374000Y-94908667D01*
X183374000Y-94721333D01*
X183410546Y-94537604D01*
X183482234Y-94364534D01*
X183586312Y-94208770D01*
X183718770Y-94076312D01*
X183874534Y-93972234D01*
X184047604Y-93900546D01*
X184231333Y-93864000D01*
X184418667Y-93864000D01*
X184602396Y-93900546D01*
X184602396Y-93900546D01*
G37*
G36*
X154602396Y-93900546D02*
X154775466Y-93972234D01*
X154931230Y-94076312D01*
X155063688Y-94208770D01*
X155167766Y-94364534D01*
X155239454Y-94537604D01*
X155276000Y-94721333D01*
X155276000Y-94908667D01*
X155239454Y-95092396D01*
X155167766Y-95265466D01*
X155063688Y-95421230D01*
X154931230Y-95553688D01*
X154775466Y-95657766D01*
X154602396Y-95729454D01*
X154418667Y-95766000D01*
X154231333Y-95766000D01*
X154047604Y-95729454D01*
X153874534Y-95657766D01*
X153718770Y-95553688D01*
X153586312Y-95421230D01*
X153482234Y-95265466D01*
X153410546Y-95092396D01*
X153374000Y-94908667D01*
X153374000Y-94721333D01*
X153410546Y-94537604D01*
X153482234Y-94364534D01*
X153586312Y-94208770D01*
X153718770Y-94076312D01*
X153874534Y-93972234D01*
X154047604Y-93900546D01*
X154231333Y-93864000D01*
X154418667Y-93864000D01*
X154602396Y-93900546D01*
X154602396Y-93900546D01*
G37*
G36*
X124602396Y-93900546D02*
X124775466Y-93972234D01*
X124931230Y-94076312D01*
X125063688Y-94208770D01*
X125167766Y-94364534D01*
X125239454Y-94537604D01*
X125276000Y-94721333D01*
X125276000Y-94908667D01*
X125239454Y-95092396D01*
X125167766Y-95265466D01*
X125063688Y-95421230D01*
X124931230Y-95553688D01*
X124775466Y-95657766D01*
X124602396Y-95729454D01*
X124418667Y-95766000D01*
X124231333Y-95766000D01*
X124047604Y-95729454D01*
X123874534Y-95657766D01*
X123718770Y-95553688D01*
X123586312Y-95421230D01*
X123482234Y-95265466D01*
X123410546Y-95092396D01*
X123374000Y-94908667D01*
X123374000Y-94721333D01*
X123410546Y-94537604D01*
X123482234Y-94364534D01*
X123586312Y-94208770D01*
X123718770Y-94076312D01*
X123874534Y-93972234D01*
X124047604Y-93900546D01*
X124231333Y-93864000D01*
X124418667Y-93864000D01*
X124602396Y-93900546D01*
X124602396Y-93900546D01*
G37*
G36*
X185276000Y-93226000D02*
X183374000Y-93226000D01*
X183374000Y-91324000D01*
X185276000Y-91324000D01*
X185276000Y-93226000D01*
X185276000Y-93226000D01*
G37*
G36*
X155276000Y-93226000D02*
X153374000Y-93226000D01*
X153374000Y-91324000D01*
X155276000Y-91324000D01*
X155276000Y-93226000D01*
X155276000Y-93226000D01*
G37*
G36*
X125276000Y-93226000D02*
X123374000Y-93226000D01*
X123374000Y-91324000D01*
X125276000Y-91324000D01*
X125276000Y-93226000D01*
X125276000Y-93226000D01*
G37*
G36*
X124554485Y-88023996D02*
X124554487Y-88023997D01*
X124554488Y-88023997D01*
X124791255Y-88122069D01*
X125004342Y-88264449D01*
X125185551Y-88445658D01*
X125327931Y-88658745D01*
X125426004Y-88895515D01*
X125476000Y-89146861D01*
X125476000Y-89403139D01*
X125426004Y-89654485D01*
X125327931Y-89891255D01*
X125185551Y-90104342D01*
X125004342Y-90285551D01*
X125004339Y-90285553D01*
X124791255Y-90427931D01*
X124554488Y-90526003D01*
X124554487Y-90526003D01*
X124554485Y-90526004D01*
X124303139Y-90576000D01*
X124046861Y-90576000D01*
X123795515Y-90526004D01*
X123795513Y-90526003D01*
X123795512Y-90526003D01*
X123558745Y-90427931D01*
X123345661Y-90285553D01*
X123345658Y-90285551D01*
X123164449Y-90104342D01*
X123022069Y-89891255D01*
X122923996Y-89654485D01*
X122874000Y-89403139D01*
X122874000Y-89146861D01*
X122923996Y-88895515D01*
X123022069Y-88658745D01*
X123164449Y-88445658D01*
X123345658Y-88264449D01*
X123558745Y-88122069D01*
X123795512Y-88023997D01*
X123795513Y-88023997D01*
X123795515Y-88023996D01*
X124046861Y-87974000D01*
X124303139Y-87974000D01*
X124554485Y-88023996D01*
X124554485Y-88023996D01*
G37*
M02*
