G04 #@! TF.GenerationSoftware,KiCad,Pcbnew,5.0.1*
G04 #@! TF.CreationDate,2019-02-09T18:30:38+01:00*
G04 #@! TF.ProjectId,usbled,7573626C65642E6B696361645F706362,rev?*
G04 #@! TF.SameCoordinates,Original*
G04 #@! TF.FileFunction,Legend,Top*
G04 #@! TF.FilePolarity,Positive*
%FSLAX46Y46*%
G04 Gerber Fmt 4.6, Leading zero omitted, Abs format (unit mm)*
G04 Created by KiCad (PCBNEW 5.0.1) date Sat 09 Feb 2019 06:30:38 PM CET*
%MOMM*%
%LPD*%
G01*
G04 APERTURE LIST*
%ADD10C,0.120000*%
%ADD11C,0.150000*%
G04 APERTURE END LIST*
D10*
G04 #@! TO.C,R1*
X175977064Y-97885000D02*
X174772936Y-97885000D01*
X175977064Y-95165000D02*
X174772936Y-95165000D01*
X145977064Y-97885000D02*
X144772936Y-97885000D01*
X145977064Y-95165000D02*
X144772936Y-95165000D01*
G04 #@! TO.C,D1*
X180560000Y-94175000D02*
X180560000Y-91890000D01*
X180560000Y-91890000D02*
X179090000Y-91890000D01*
X179090000Y-91890000D02*
X179090000Y-94175000D01*
X150560000Y-94175000D02*
X150560000Y-91890000D01*
X150560000Y-91890000D02*
X149090000Y-91890000D01*
X149090000Y-91890000D02*
X149090000Y-94175000D01*
G04 #@! TO.C,D2*
X184324538Y-96535000D02*
G75*
G03X185869830Y-90985000I462J2990000D01*
G01*
X184325462Y-96535000D02*
G75*
G02X182780170Y-90985000I-462J2990000D01*
G01*
X186825000Y-93545000D02*
G75*
G03X186825000Y-93545000I-2500000J0D01*
G01*
X185870000Y-90985000D02*
X182780000Y-90985000D01*
X154324538Y-96535000D02*
G75*
G03X155869830Y-90985000I462J2990000D01*
G01*
X154325462Y-96535000D02*
G75*
G02X152780170Y-90985000I-462J2990000D01*
G01*
X156825000Y-93545000D02*
G75*
G03X156825000Y-93545000I-2500000J0D01*
G01*
X155870000Y-90985000D02*
X152780000Y-90985000D01*
G04 #@! TO.C,D1*
X119090000Y-91890000D02*
X119090000Y-94175000D01*
X120560000Y-91890000D02*
X119090000Y-91890000D01*
X120560000Y-94175000D02*
X120560000Y-91890000D01*
G04 #@! TO.C,D2*
X125870000Y-90985000D02*
X122780000Y-90985000D01*
X126825000Y-93545000D02*
G75*
G03X126825000Y-93545000I-2500000J0D01*
G01*
X124325462Y-96535000D02*
G75*
G02X122780170Y-90985000I-462J2990000D01*
G01*
X124324538Y-96535000D02*
G75*
G03X125869830Y-90985000I462J2990000D01*
G01*
G04 #@! TO.C,R1*
X115977064Y-95165000D02*
X114772936Y-95165000D01*
X115977064Y-97885000D02*
X114772936Y-97885000D01*
D11*
X175208333Y-99257380D02*
X174875000Y-98781190D01*
X174636904Y-99257380D02*
X174636904Y-98257380D01*
X175017857Y-98257380D01*
X175113095Y-98305000D01*
X175160714Y-98352619D01*
X175208333Y-98447857D01*
X175208333Y-98590714D01*
X175160714Y-98685952D01*
X175113095Y-98733571D01*
X175017857Y-98781190D01*
X174636904Y-98781190D01*
X176160714Y-99257380D02*
X175589285Y-99257380D01*
X175875000Y-99257380D02*
X175875000Y-98257380D01*
X175779761Y-98400238D01*
X175684523Y-98495476D01*
X175589285Y-98543095D01*
X145208333Y-99257380D02*
X144875000Y-98781190D01*
X144636904Y-99257380D02*
X144636904Y-98257380D01*
X145017857Y-98257380D01*
X145113095Y-98305000D01*
X145160714Y-98352619D01*
X145208333Y-98447857D01*
X145208333Y-98590714D01*
X145160714Y-98685952D01*
X145113095Y-98733571D01*
X145017857Y-98781190D01*
X144636904Y-98781190D01*
X146160714Y-99257380D02*
X145589285Y-99257380D01*
X145875000Y-99257380D02*
X145875000Y-98257380D01*
X145779761Y-98400238D01*
X145684523Y-98495476D01*
X145589285Y-98543095D01*
G04 #@! TO.C,D1*
X181707380Y-94113095D02*
X180707380Y-94113095D01*
X180707380Y-93875000D01*
X180755000Y-93732142D01*
X180850238Y-93636904D01*
X180945476Y-93589285D01*
X181135952Y-93541666D01*
X181278809Y-93541666D01*
X181469285Y-93589285D01*
X181564523Y-93636904D01*
X181659761Y-93732142D01*
X181707380Y-93875000D01*
X181707380Y-94113095D01*
X181707380Y-92589285D02*
X181707380Y-93160714D01*
X181707380Y-92875000D02*
X180707380Y-92875000D01*
X180850238Y-92970238D01*
X180945476Y-93065476D01*
X180993095Y-93160714D01*
X151707380Y-94113095D02*
X150707380Y-94113095D01*
X150707380Y-93875000D01*
X150755000Y-93732142D01*
X150850238Y-93636904D01*
X150945476Y-93589285D01*
X151135952Y-93541666D01*
X151278809Y-93541666D01*
X151469285Y-93589285D01*
X151564523Y-93636904D01*
X151659761Y-93732142D01*
X151707380Y-93875000D01*
X151707380Y-94113095D01*
X151707380Y-92589285D02*
X151707380Y-93160714D01*
X151707380Y-92875000D02*
X150707380Y-92875000D01*
X150850238Y-92970238D01*
X150945476Y-93065476D01*
X150993095Y-93160714D01*
G04 #@! TO.C,D2*
X188737380Y-94283095D02*
X187737380Y-94283095D01*
X187737380Y-94045000D01*
X187785000Y-93902142D01*
X187880238Y-93806904D01*
X187975476Y-93759285D01*
X188165952Y-93711666D01*
X188308809Y-93711666D01*
X188499285Y-93759285D01*
X188594523Y-93806904D01*
X188689761Y-93902142D01*
X188737380Y-94045000D01*
X188737380Y-94283095D01*
X187832619Y-93330714D02*
X187785000Y-93283095D01*
X187737380Y-93187857D01*
X187737380Y-92949761D01*
X187785000Y-92854523D01*
X187832619Y-92806904D01*
X187927857Y-92759285D01*
X188023095Y-92759285D01*
X188165952Y-92806904D01*
X188737380Y-93378333D01*
X188737380Y-92759285D01*
X158737380Y-94283095D02*
X157737380Y-94283095D01*
X157737380Y-94045000D01*
X157785000Y-93902142D01*
X157880238Y-93806904D01*
X157975476Y-93759285D01*
X158165952Y-93711666D01*
X158308809Y-93711666D01*
X158499285Y-93759285D01*
X158594523Y-93806904D01*
X158689761Y-93902142D01*
X158737380Y-94045000D01*
X158737380Y-94283095D01*
X157832619Y-93330714D02*
X157785000Y-93283095D01*
X157737380Y-93187857D01*
X157737380Y-92949761D01*
X157785000Y-92854523D01*
X157832619Y-92806904D01*
X157927857Y-92759285D01*
X158023095Y-92759285D01*
X158165952Y-92806904D01*
X158737380Y-93378333D01*
X158737380Y-92759285D01*
G04 #@! TO.C,D1*
X121707380Y-94113095D02*
X120707380Y-94113095D01*
X120707380Y-93875000D01*
X120755000Y-93732142D01*
X120850238Y-93636904D01*
X120945476Y-93589285D01*
X121135952Y-93541666D01*
X121278809Y-93541666D01*
X121469285Y-93589285D01*
X121564523Y-93636904D01*
X121659761Y-93732142D01*
X121707380Y-93875000D01*
X121707380Y-94113095D01*
X121707380Y-92589285D02*
X121707380Y-93160714D01*
X121707380Y-92875000D02*
X120707380Y-92875000D01*
X120850238Y-92970238D01*
X120945476Y-93065476D01*
X120993095Y-93160714D01*
G04 #@! TO.C,D2*
X128737380Y-94283095D02*
X127737380Y-94283095D01*
X127737380Y-94045000D01*
X127785000Y-93902142D01*
X127880238Y-93806904D01*
X127975476Y-93759285D01*
X128165952Y-93711666D01*
X128308809Y-93711666D01*
X128499285Y-93759285D01*
X128594523Y-93806904D01*
X128689761Y-93902142D01*
X128737380Y-94045000D01*
X128737380Y-94283095D01*
X127832619Y-93330714D02*
X127785000Y-93283095D01*
X127737380Y-93187857D01*
X127737380Y-92949761D01*
X127785000Y-92854523D01*
X127832619Y-92806904D01*
X127927857Y-92759285D01*
X128023095Y-92759285D01*
X128165952Y-92806904D01*
X128737380Y-93378333D01*
X128737380Y-92759285D01*
G04 #@! TO.C,R1*
X115208333Y-99257380D02*
X114875000Y-98781190D01*
X114636904Y-99257380D02*
X114636904Y-98257380D01*
X115017857Y-98257380D01*
X115113095Y-98305000D01*
X115160714Y-98352619D01*
X115208333Y-98447857D01*
X115208333Y-98590714D01*
X115160714Y-98685952D01*
X115113095Y-98733571D01*
X115017857Y-98781190D01*
X114636904Y-98781190D01*
X116160714Y-99257380D02*
X115589285Y-99257380D01*
X115875000Y-99257380D02*
X115875000Y-98257380D01*
X115779761Y-98400238D01*
X115684523Y-98495476D01*
X115589285Y-98543095D01*
G04 #@! TO.C,REF\002A\002A*
X122841666Y-86227380D02*
X122508333Y-85751190D01*
X122270238Y-86227380D02*
X122270238Y-85227380D01*
X122651190Y-85227380D01*
X122746428Y-85275000D01*
X122794047Y-85322619D01*
X122841666Y-85417857D01*
X122841666Y-85560714D01*
X122794047Y-85655952D01*
X122746428Y-85703571D01*
X122651190Y-85751190D01*
X122270238Y-85751190D01*
X123270238Y-85703571D02*
X123603571Y-85703571D01*
X123746428Y-86227380D02*
X123270238Y-86227380D01*
X123270238Y-85227380D01*
X123746428Y-85227380D01*
X124508333Y-85703571D02*
X124175000Y-85703571D01*
X124175000Y-86227380D02*
X124175000Y-85227380D01*
X124651190Y-85227380D01*
X125175000Y-85227380D02*
X125175000Y-85465476D01*
X124936904Y-85370238D02*
X125175000Y-85465476D01*
X125413095Y-85370238D01*
X125032142Y-85655952D02*
X125175000Y-85465476D01*
X125317857Y-85655952D01*
X125936904Y-85227380D02*
X125936904Y-85465476D01*
X125698809Y-85370238D02*
X125936904Y-85465476D01*
X126175000Y-85370238D01*
X125794047Y-85655952D02*
X125936904Y-85465476D01*
X126079761Y-85655952D01*
G04 #@! TD*
M02*
