  0
SECTION
  2
HEADER
  9
$ACADVER
  1
AC1009
  9
$INSBASE
 10
0.0
 20
0.0
 30
0.0
  9
$EXTMIN
 10
0.0
 20
0.0
 30
0.0
  9
$EXTMAX
 10
0.0
 20
0.0
 30
0.0
  0
ENDSEC
  0
SECTION
  2
TABLES
  0
TABLE
  2
VPORT
 70
0
  0
ENDTAB
  0
TABLE
  2
LTYPE
 70
1
  0
LTYPE
  2
CONTINUOUS
 70
0
  3
Solid line
 72
65
 73
0
 40
0.0
  0
ENDTAB
  0
TABLE
  2
LAYER
 70
1
  0
LAYER
  2
0
 70
64
 62
7
  6
continuous
  0
ENDTAB
  0
TABLE
  2
STYLE
 70
1
  0
STYLE
  2
STANDARD
 70
0
 40
0
 41
1.0
 50
0.0
 71
0
 42
1
 3
ARIAL.TTF
 4

  0
ENDTAB
  0
TABLE
  2
VIEW
 70
0
  0
ENDTAB
  0
ENDSEC
  0
SECTION
  2
BLOCKS
  0
BLOCK
  8
0
  2
POCKET_CS
 70
0
 10
0.0
 20
0.0
 30
0.0
  3
POCKET_CS
  0
POLYLINE
  8
0
 62
0
 70
1
 66
1
 10
0.0
 20
0.0
 30
0.0
  0
VERTEX
  8
0
 10
-85.0
 20
8.5
 30
-0.5
  0
VERTEX
  8
0
 10
-10.0
 20
8.5
 30
-0.5
  0
VERTEX
  8
0
 10
-10.0
 20
-8.5
 30
-0.5
  0
VERTEX
  8
0
 10
-85.0
 20
-8.5
 30
-0.5
  0
SEQEND
  8
0
  0
POLYLINE
  8
0
 62
0
 70
1
 66
1
 10
0.0
 20
0.0
 30
0.0
  0
VERTEX
  8
0
 10
-83.65
 20
-0.850000000004
 30
-0.5
  0
VERTEX
  8
0
 10
-83.65
 20
0.850000000004
 30
-0.5
 42
-0.999999999998
  0
VERTEX
  8
0
 10
-81.35
 20
0.850000000007
 30
-0.5
  0
VERTEX
  8
0
 10
-81.35
 20
-0.85
 30
-0.5
 42
-1.0
  0
SEQEND
  8
0
  0
ENDBLK
  0
BLOCK
  8
0
  2
PATHARRAY002
 70
0
 10
0.0
 20
0.0
 30
0.0
  3
PATHARRAY002
  0
POLYLINE
  8
0
 62
7
 70
0
 66
1
 10
0.0
 20
0.0
 30
0.0
  0
VERTEX
  8
0
 10
-18.307179677
 20
6.9
 30
0.0
  0
VERTEX
  8
0
 10
-19.692820323
 20
6.1
 30
0.0
  0
SEQEND
  8
0
  0
POLYLINE
  8
0
 62
7
 70
0
 66
1
 10
0.0
 20
0.0
 30
0.0
  0
VERTEX
  8
0
 10
-18.307179677
 20
-6.1
 30
0.0
  0
VERTEX
  8
0
 10
-19.692820323
 20
-6.9
 30
0.0
  0
SEQEND
  8
0
  0
POLYLINE
  8
0
 62
7
 70
0
 66
1
 10
0.0
 20
0.0
 30
0.0
  0
VERTEX
  8
0
 10
-21.8114779252
 20
6.9
 30
0.0
  0
VERTEX
  8
0
 10
-23.1971185713
 20
6.1
 30
0.0
  0
SEQEND
  8
0
  0
POLYLINE
  8
0
 62
7
 70
0
 66
1
 10
0.0
 20
0.0
 30
0.0
  0
VERTEX
  8
0
 10
-25.3157761735
 20
6.9
 30
0.0
  0
VERTEX
  8
0
 10
-26.7014168195
 20
6.1
 30
0.0
  0
SEQEND
  8
0
  0
POLYLINE
  8
0
 62
7
 70
0
 66
1
 10
0.0
 20
0.0
 30
0.0
  0
VERTEX
  8
0
 10
-28.8200744217
 20
6.9
 30
0.0
  0
VERTEX
  8
0
 10
-30.2057150678
 20
6.1
 30
0.0
  0
SEQEND
  8
0
  0
POLYLINE
  8
0
 62
7
 70
0
 66
1
 10
0.0
 20
0.0
 30
0.0
  0
VERTEX
  8
0
 10
-32.3243726699
 20
6.9
 30
0.0
  0
VERTEX
  8
0
 10
-33.710013316
 20
6.1
 30
0.0
  0
SEQEND
  8
0
  0
POLYLINE
  8
0
 62
7
 70
0
 66
1
 10
0.0
 20
0.0
 30
0.0
  0
VERTEX
  8
0
 10
-35.8286709182
 20
6.9
 30
0.0
  0
VERTEX
  8
0
 10
-37.2143115642
 20
6.1
 30
0.0
  0
SEQEND
  8
0
  0
POLYLINE
  8
0
 62
7
 70
0
 66
1
 10
0.0
 20
0.0
 30
0.0
  0
VERTEX
  8
0
 10
-39.3329691664
 20
6.9
 30
0.0
  0
VERTEX
  8
0
 10
-40.7186098125
 20
6.1
 30
0.0
  0
SEQEND
  8
0
  0
POLYLINE
  8
0
 62
7
 70
0
 66
1
 10
0.0
 20
0.0
 30
0.0
  0
VERTEX
  8
0
 10
-42.8372674147
 20
6.9
 30
0.0
  0
VERTEX
  8
0
 10
-44.2229080607
 20
6.1
 30
0.0
  0
SEQEND
  8
0
  0
POLYLINE
  8
0
 62
7
 70
0
 66
1
 10
0.0
 20
0.0
 30
0.0
  0
VERTEX
  8
0
 10
-46.3415656629
 20
6.9
 30
0.0
  0
VERTEX
  8
0
 10
-47.727206309
 20
6.1
 30
0.0
  0
SEQEND
  8
0
  0
POLYLINE
  8
0
 62
7
 70
0
 66
1
 10
0.0
 20
0.0
 30
0.0
  0
VERTEX
  8
0
 10
-49.8458639111
 20
6.9
 30
0.0
  0
VERTEX
  8
0
 10
-51.2315045572
 20
6.1
 30
0.0
  0
SEQEND
  8
0
  0
POLYLINE
  8
0
 62
7
 70
0
 66
1
 10
0.0
 20
0.0
 30
0.0
  0
VERTEX
  8
0
 10
-53.3501621594
 20
6.9
 30
0.0
  0
VERTEX
  8
0
 10
-54.7358028054
 20
6.1
 30
0.0
  0
SEQEND
  8
0
  0
POLYLINE
  8
0
 62
7
 70
0
 66
1
 10
0.0
 20
0.0
 30
0.0
  0
VERTEX
  8
0
 10
-56.8544604076
 20
6.9
 30
0.0
  0
VERTEX
  8
0
 10
-58.2401010537
 20
6.1
 30
0.0
  0
SEQEND
  8
0
  0
POLYLINE
  8
0
 62
7
 70
0
 66
1
 10
0.0
 20
0.0
 30
0.0
  0
VERTEX
  8
0
 10
-60.3587586559
 20
6.9
 30
0.0
  0
VERTEX
  8
0
 10
-61.7443993019
 20
6.1
 30
0.0
  0
SEQEND
  8
0
  0
POLYLINE
  8
0
 62
7
 70
0
 66
1
 10
0.0
 20
0.0
 30
0.0
  0
VERTEX
  8
0
 10
-63.8630569041
 20
6.9
 30
0.0
  0
VERTEX
  8
0
 10
-65.2486975502
 20
6.1
 30
0.0
  0
SEQEND
  8
0
  0
POLYLINE
  8
0
 62
7
 70
0
 66
1
 10
0.0
 20
0.0
 30
0.0
  0
VERTEX
  8
0
 10
-67.3673551524
 20
6.9
 30
0.0
  0
VERTEX
  8
0
 10
-68.7529957984
 20
6.1
 30
0.0
  0
SEQEND
  8
0
  0
POLYLINE
  8
0
 62
7
 70
0
 66
1
 10
0.0
 20
0.0
 30
0.0
  0
VERTEX
  8
0
 10
-70.8716534006
 20
6.9
 30
0.0
  0
VERTEX
  8
0
 10
-72.2572940467
 20
6.1
 30
0.0
  0
SEQEND
  8
0
  0
POLYLINE
  8
0
 62
7
 70
0
 66
1
 10
0.0
 20
0.0
 30
0.0
  0
VERTEX
  8
0
 10
-74.3759516488
 20
6.9
 30
0.0
  0
VERTEX
  8
0
 10
-75.7615922949
 20
6.1
 30
0.0
  0
SEQEND
  8
0
  0
POLYLINE
  8
0
 62
7
 70
0
 66
1
 10
0.0
 20
0.0
 30
0.0
  0
VERTEX
  8
0
 10
-77.8802498971
 20
6.9
 30
0.0
  0
VERTEX
  8
0
 10
-79.2658905431
 20
6.1
 30
0.0
  0
SEQEND
  8
0
  0
POLYLINE
  8
0
 62
7
 70
0
 66
1
 10
0.0
 20
0.0
 30
0.0
  0
VERTEX
  8
0
 10
-81.6996445208
 20
3.99676807489
 30
0.0
  0
VERTEX
  8
0
 10
-81.3390533192
 20
5.55560545746
 30
0.0
  0
SEQEND
  8
0
  0
POLYLINE
  8
0
 62
7
 70
0
 66
1
 10
0.0
 20
0.0
 30
0.0
  0
VERTEX
  8
0
 10
-82.9678567301
 20
0.963599817305
 30
0.0
  0
VERTEX
  8
0
 10
-83.3997007082
 20
2.50422007506
 30
0.0
  0
SEQEND
  8
0
  0
POLYLINE
  8
0
 62
7
 70
0
 66
1
 10
0.0
 20
0.0
 30
0.0
  0
VERTEX
  8
0
 10
-82.6246315733
 20
-2.30605893836
 30
0.0
  0
VERTEX
  8
0
 10
-83.742925865
 20
-1.16176095401
 30
0.0
  0
SEQEND
  8
0
  0
POLYLINE
  8
0
 62
7
 70
0
 66
1
 10
0.0
 20
0.0
 30
0.0
  0
VERTEX
  8
0
 10
-80.7542047327
 20
-5.00975554133
 30
0.0
  0
VERTEX
  8
0
 10
-82.2844931072
 20
-4.54261799102
 30
0.0
  0
SEQEND
  8
0
  0
POLYLINE
  8
0
 62
7
 70
0
 66
1
 10
0.0
 20
0.0
 30
0.0
  0
VERTEX
  8
0
 10
-77.8802498971
 20
-6.1
 30
0.0
  0
VERTEX
  8
0
 10
-79.2658905431
 20
-6.9
 30
0.0
  0
SEQEND
  8
0
  0
POLYLINE
  8
0
 62
7
 70
0
 66
1
 10
0.0
 20
0.0
 30
0.0
  0
VERTEX
  8
0
 10
-74.3759516488
 20
-6.1
 30
0.0
  0
VERTEX
  8
0
 10
-75.7615922949
 20
-6.9
 30
0.0
  0
SEQEND
  8
0
  0
POLYLINE
  8
0
 62
7
 70
0
 66
1
 10
0.0
 20
0.0
 30
0.0
  0
VERTEX
  8
0
 10
-70.8716534006
 20
-6.1
 30
0.0
  0
VERTEX
  8
0
 10
-72.2572940467
 20
-6.9
 30
0.0
  0
SEQEND
  8
0
  0
POLYLINE
  8
0
 62
7
 70
0
 66
1
 10
0.0
 20
0.0
 30
0.0
  0
VERTEX
  8
0
 10
-67.3673551524
 20
-6.1
 30
0.0
  0
VERTEX
  8
0
 10
-68.7529957984
 20
-6.9
 30
0.0
  0
SEQEND
  8
0
  0
POLYLINE
  8
0
 62
7
 70
0
 66
1
 10
0.0
 20
0.0
 30
0.0
  0
VERTEX
  8
0
 10
-63.8630569041
 20
-6.1
 30
0.0
  0
VERTEX
  8
0
 10
-65.2486975502
 20
-6.9
 30
0.0
  0
SEQEND
  8
0
  0
POLYLINE
  8
0
 62
7
 70
0
 66
1
 10
0.0
 20
0.0
 30
0.0
  0
VERTEX
  8
0
 10
-60.3587586559
 20
-6.1
 30
0.0
  0
VERTEX
  8
0
 10
-61.7443993019
 20
-6.9
 30
0.0
  0
SEQEND
  8
0
  0
POLYLINE
  8
0
 62
7
 70
0
 66
1
 10
0.0
 20
0.0
 30
0.0
  0
VERTEX
  8
0
 10
-56.8544604076
 20
-6.1
 30
0.0
  0
VERTEX
  8
0
 10
-58.2401010537
 20
-6.9
 30
0.0
  0
SEQEND
  8
0
  0
POLYLINE
  8
0
 62
7
 70
0
 66
1
 10
0.0
 20
0.0
 30
0.0
  0
VERTEX
  8
0
 10
-53.3501621594
 20
-6.1
 30
0.0
  0
VERTEX
  8
0
 10
-54.7358028054
 20
-6.9
 30
0.0
  0
SEQEND
  8
0
  0
POLYLINE
  8
0
 62
7
 70
0
 66
1
 10
0.0
 20
0.0
 30
0.0
  0
VERTEX
  8
0
 10
-49.8458639111
 20
-6.1
 30
0.0
  0
VERTEX
  8
0
 10
-51.2315045572
 20
-6.9
 30
0.0
  0
SEQEND
  8
0
  0
POLYLINE
  8
0
 62
7
 70
0
 66
1
 10
0.0
 20
0.0
 30
0.0
  0
VERTEX
  8
0
 10
-46.3415656629
 20
-6.1
 30
0.0
  0
VERTEX
  8
0
 10
-47.727206309
 20
-6.9
 30
0.0
  0
SEQEND
  8
0
  0
POLYLINE
  8
0
 62
7
 70
0
 66
1
 10
0.0
 20
0.0
 30
0.0
  0
VERTEX
  8
0
 10
-42.8372674147
 20
-6.1
 30
0.0
  0
VERTEX
  8
0
 10
-44.2229080607
 20
-6.9
 30
0.0
  0
SEQEND
  8
0
  0
POLYLINE
  8
0
 62
7
 70
0
 66
1
 10
0.0
 20
0.0
 30
0.0
  0
VERTEX
  8
0
 10
-39.3329691664
 20
-6.1
 30
0.0
  0
VERTEX
  8
0
 10
-40.7186098125
 20
-6.9
 30
0.0
  0
SEQEND
  8
0
  0
POLYLINE
  8
0
 62
7
 70
0
 66
1
 10
0.0
 20
0.0
 30
0.0
  0
VERTEX
  8
0
 10
-35.8286709182
 20
-6.1
 30
0.0
  0
VERTEX
  8
0
 10
-37.2143115642
 20
-6.9
 30
0.0
  0
SEQEND
  8
0
  0
POLYLINE
  8
0
 62
7
 70
0
 66
1
 10
0.0
 20
0.0
 30
0.0
  0
VERTEX
  8
0
 10
-32.3243726699
 20
-6.1
 30
0.0
  0
VERTEX
  8
0
 10
-33.710013316
 20
-6.9
 30
0.0
  0
SEQEND
  8
0
  0
POLYLINE
  8
0
 62
7
 70
0
 66
1
 10
0.0
 20
0.0
 30
0.0
  0
VERTEX
  8
0
 10
-28.8200744217
 20
-6.1
 30
0.0
  0
VERTEX
  8
0
 10
-30.2057150678
 20
-6.9
 30
0.0
  0
SEQEND
  8
0
  0
POLYLINE
  8
0
 62
7
 70
0
 66
1
 10
0.0
 20
0.0
 30
0.0
  0
VERTEX
  8
0
 10
-25.3157761735
 20
-6.1
 30
0.0
  0
VERTEX
  8
0
 10
-26.7014168195
 20
-6.9
 30
0.0
  0
SEQEND
  8
0
  0
POLYLINE
  8
0
 62
7
 70
0
 66
1
 10
0.0
 20
0.0
 30
0.0
  0
VERTEX
  8
0
 10
-21.8114779252
 20
-6.1
 30
0.0
  0
VERTEX
  8
0
 10
-23.1971185713
 20
-6.9
 30
0.0
  0
SEQEND
  8
0
  0
ENDBLK
  0
BLOCK
  8
0
  2
CUT_CS
 70
0
 10
0.0
 20
0.0
 30
0.0
  3
CUT_CS
  0
POLYLINE
  8
0
 62
0
 70
1
 66
1
 10
0.0
 20
0.0
 30
0.0
  0
VERTEX
  8
0
 10
107.0
 20
-8.49999999997
 30
-0.5
  0
VERTEX
  8
0
 10
107.0
 20
8.5
 30
-0.5
  0
VERTEX
  8
0
 10
6.99999999999
 20
8.49999999998
 30
-0.5
 42
0.823529411766
  0
VERTEX
  8
0
 10
6.99999999999
 20
-8.49999999997
 30
-0.5
  0
SEQEND
  8
0
  0
POLYLINE
  8
0
 62
0
 70
1
 66
1
 10
0.0
 20
0.0
 30
0.0
  0
VERTEX
  8
0
 10
54.95
 20
0.85
 30
-0.5
  0
VERTEX
  8
0
 10
54.95
 20
-0.85
 30
-0.5
 42
-1.0
  0
VERTEX
  8
0
 10
52.65
 20
-0.85
 30
-0.5
  0
VERTEX
  8
0
 10
52.65
 20
0.85
 30
-0.5
 42
-1.0
  0
SEQEND
  8
0
  0
POLYLINE
  8
0
 62
0
 70
1
 66
1
 10
0.0
 20
0.0
 30
0.0
  0
VERTEX
  8
0
 10
30.75
 20
0.85
 30
-0.5
 42
-1.0
  0
VERTEX
  8
0
 10
33.05
 20
0.85
 30
-0.5
  0
VERTEX
  8
0
 10
33.05
 20
-0.85
 30
-0.5
 42
-1.0
  0
VERTEX
  8
0
 10
30.75
 20
-0.85
 30
-0.5
  0
SEQEND
  8
0
  0
POLYLINE
  8
0
 62
0
 70
1
 66
1
 10
0.0
 20
0.0
 30
0.0
  0
VERTEX
  8
0
 10
47.65
 20
0.85
 30
-0.5
  0
VERTEX
  8
0
 10
47.65
 20
-0.85
 30
-0.5
 42
-1.0
  0
VERTEX
  8
0
 10
45.35
 20
-0.85
 30
-0.5
  0
VERTEX
  8
0
 10
45.35
 20
0.85
 30
-0.5
 42
-1.0
  0
SEQEND
  8
0
  0
POLYLINE
  8
0
 62
0
 70
1
 66
1
 10
0.0
 20
0.0
 30
0.0
  0
VERTEX
  8
0
 10
18.45
 20
0.85
 30
-0.5
  0
VERTEX
  8
0
 10
18.45
 20
-0.85
 30
-0.5
 42
-1.0
  0
VERTEX
  8
0
 10
16.15
 20
-0.85
 30
-0.5
  0
VERTEX
  8
0
 10
16.15
 20
0.85
 30
-0.5
 42
-1.0
  0
SEQEND
  8
0
  0
POLYLINE
  8
0
 62
0
 70
1
 66
1
 10
0.0
 20
0.0
 30
0.0
  0
VERTEX
  8
0
 10
23.45
 20
0.85
 30
-0.5
  0
VERTEX
  8
0
 10
23.45
 20
-0.85
 30
-0.5
 42
1.0
  0
VERTEX
  8
0
 10
25.75
 20
-0.85
 30
-0.5
  0
VERTEX
  8
0
 10
25.75
 20
0.85
 30
-0.5
 42
1.0
  0
SEQEND
  8
0
  0
POLYLINE
  8
0
 62
0
 70
1
 66
1
 10
0.0
 20
0.0
 30
0.0
  0
VERTEX
  8
0
 10
38.05
 20
0.85
 30
-0.5
  0
VERTEX
  8
0
 10
38.05
 20
-0.85
 30
-0.5
 42
1.0
  0
VERTEX
  8
0
 10
40.35
 20
-0.85
 30
-0.5
  0
VERTEX
  8
0
 10
40.35
 20
0.85
 30
-0.5
 42
1.0
  0
SEQEND
  8
0
  0
POLYLINE
  8
0
 62
0
 70
1
 66
1
 10
0.0
 20
0.0
 30
0.0
  0
VERTEX
  8
0
 10
8.85
 20
0.85
 30
-0.5
  0
VERTEX
  8
0
 10
8.85
 20
-0.85
 30
-0.5
 42
1.0
  0
VERTEX
  8
0
 10
11.15
 20
-0.85
 30
-0.5
  0
VERTEX
  8
0
 10
11.15
 20
0.85
 30
-0.5
 42
1.0
  0
SEQEND
  8
0
  0
ENDBLK
  0
BLOCK
  8
0
  2
PATHARRAY001
 70
0
 10
0.0
 20
0.0
 30
0.0
  3
PATHARRAY001
  0
POLYLINE
  8
0
 62
7
 70
0
 66
1
 10
0.0
 20
0.0
 30
0.0
  0
VERTEX
  8
0
 10
97.692820323
 20
6.9
 30
0.0
  0
VERTEX
  8
0
 10
96.307179677
 20
6.1
 30
0.0
  0
SEQEND
  8
0
  0
POLYLINE
  8
0
 62
7
 70
0
 66
1
 10
0.0
 20
0.0
 30
0.0
  0
VERTEX
  8
0
 10
97.692820323
 20
-6.1
 30
0.0
  0
VERTEX
  8
0
 10
96.307179677
 20
-6.9
 30
0.0
  0
SEQEND
  8
0
  0
POLYLINE
  8
0
 62
7
 70
0
 66
1
 10
0.0
 20
0.0
 30
0.0
  0
VERTEX
  8
0
 10
94.3594706335
 20
6.9
 30
0.0
  0
VERTEX
  8
0
 10
92.9738299875
 20
6.1
 30
0.0
  0
SEQEND
  8
0
  0
POLYLINE
  8
0
 62
7
 70
0
 66
1
 10
0.0
 20
0.0
 30
0.0
  0
VERTEX
  8
0
 10
91.026120944
 20
6.9
 30
0.0
  0
VERTEX
  8
0
 10
89.6404802979
 20
6.1
 30
0.0
  0
SEQEND
  8
0
  0
POLYLINE
  8
0
 62
7
 70
0
 66
1
 10
0.0
 20
0.0
 30
0.0
  0
VERTEX
  8
0
 10
87.6927712545
 20
6.9
 30
0.0
  0
VERTEX
  8
0
 10
86.3071306084
 20
6.1
 30
0.0
  0
SEQEND
  8
0
  0
POLYLINE
  8
0
 62
7
 70
0
 66
1
 10
0.0
 20
0.0
 30
0.0
  0
VERTEX
  8
0
 10
84.359421565
 20
6.9
 30
0.0
  0
VERTEX
  8
0
 10
82.9737809189
 20
6.1
 30
0.0
  0
SEQEND
  8
0
  0
POLYLINE
  8
0
 62
7
 70
0
 66
1
 10
0.0
 20
0.0
 30
0.0
  0
VERTEX
  8
0
 10
81.0260718754
 20
6.9
 30
0.0
  0
VERTEX
  8
0
 10
79.6404312294
 20
6.1
 30
0.0
  0
SEQEND
  8
0
  0
POLYLINE
  8
0
 62
7
 70
0
 66
1
 10
0.0
 20
0.0
 30
0.0
  0
VERTEX
  8
0
 10
77.6927221859
 20
6.9
 30
0.0
  0
VERTEX
  8
0
 10
76.3070815399
 20
6.1
 30
0.0
  0
SEQEND
  8
0
  0
POLYLINE
  8
0
 62
7
 70
0
 66
1
 10
0.0
 20
0.0
 30
0.0
  0
VERTEX
  8
0
 10
74.3593724964
 20
6.9
 30
0.0
  0
VERTEX
  8
0
 10
72.9737318504
 20
6.1
 30
0.0
  0
SEQEND
  8
0
  0
POLYLINE
  8
0
 62
7
 70
0
 66
1
 10
0.0
 20
0.0
 30
0.0
  0
VERTEX
  8
0
 10
71.0260228069
 20
6.9
 30
0.0
  0
VERTEX
  8
0
 10
69.6403821608
 20
6.1
 30
0.0
  0
SEQEND
  8
0
  0
POLYLINE
  8
0
 62
7
 70
0
 66
1
 10
0.0
 20
0.0
 30
0.0
  0
VERTEX
  8
0
 10
67.6926731174
 20
6.9
 30
0.0
  0
VERTEX
  8
0
 10
66.3070324713
 20
6.1
 30
0.0
  0
SEQEND
  8
0
  0
POLYLINE
  8
0
 62
7
 70
0
 66
1
 10
0.0
 20
0.0
 30
0.0
  0
VERTEX
  8
0
 10
64.3593234279
 20
6.9
 30
0.0
  0
VERTEX
  8
0
 10
62.9736827818
 20
6.1
 30
0.0
  0
SEQEND
  8
0
  0
POLYLINE
  8
0
 62
7
 70
0
 66
1
 10
0.0
 20
0.0
 30
0.0
  0
VERTEX
  8
0
 10
61.0259737384
 20
6.9
 30
0.0
  0
VERTEX
  8
0
 10
59.6403330923
 20
6.1
 30
0.0
  0
SEQEND
  8
0
  0
POLYLINE
  8
0
 62
7
 70
0
 66
1
 10
0.0
 20
0.0
 30
0.0
  0
VERTEX
  8
0
 10
57.6926240488
 20
6.9
 30
0.0
  0
VERTEX
  8
0
 10
56.3069834028
 20
6.1
 30
0.0
  0
SEQEND
  8
0
  0
POLYLINE
  8
0
 62
7
 70
0
 66
1
 10
0.0
 20
0.0
 30
0.0
  0
VERTEX
  8
0
 10
54.3592743593
 20
6.9
 30
0.0
  0
VERTEX
  8
0
 10
52.9736337133
 20
6.1
 30
0.0
  0
SEQEND
  8
0
  0
POLYLINE
  8
0
 62
7
 70
0
 66
1
 10
0.0
 20
0.0
 30
0.0
  0
VERTEX
  8
0
 10
51.0259246698
 20
6.9
 30
0.0
  0
VERTEX
  8
0
 10
49.6402840238
 20
6.1
 30
0.0
  0
SEQEND
  8
0
  0
POLYLINE
  8
0
 62
7
 70
0
 66
1
 10
0.0
 20
0.0
 30
0.0
  0
VERTEX
  8
0
 10
47.6925749803
 20
6.9
 30
0.0
  0
VERTEX
  8
0
 10
46.3069343342
 20
6.1
 30
0.0
  0
SEQEND
  8
0
  0
POLYLINE
  8
0
 62
7
 70
0
 66
1
 10
0.0
 20
0.0
 30
0.0
  0
VERTEX
  8
0
 10
44.3592252908
 20
6.9
 30
0.0
  0
VERTEX
  8
0
 10
42.9735846447
 20
6.1
 30
0.0
  0
SEQEND
  8
0
  0
POLYLINE
  8
0
 62
7
 70
0
 66
1
 10
0.0
 20
0.0
 30
0.0
  0
VERTEX
  8
0
 10
41.0258756013
 20
6.9
 30
0.0
  0
VERTEX
  8
0
 10
39.6402349552
 20
6.1
 30
0.0
  0
SEQEND
  8
0
  0
POLYLINE
  8
0
 62
7
 70
0
 66
1
 10
0.0
 20
0.0
 30
0.0
  0
VERTEX
  8
0
 10
37.6925259117
 20
6.9
 30
0.0
  0
VERTEX
  8
0
 10
36.3068852657
 20
6.1
 30
0.0
  0
SEQEND
  8
0
  0
POLYLINE
  8
0
 62
7
 70
0
 66
1
 10
0.0
 20
0.0
 30
0.0
  0
VERTEX
  8
0
 10
34.3591762222
 20
6.9
 30
0.0
  0
VERTEX
  8
0
 10
32.9735355762
 20
6.1
 30
0.0
  0
SEQEND
  8
0
  0
POLYLINE
  8
0
 62
7
 70
0
 66
1
 10
0.0
 20
0.0
 30
0.0
  0
VERTEX
  8
0
 10
31.0258265327
 20
6.9
 30
0.0
  0
VERTEX
  8
0
 10
29.6401858867
 20
6.1
 30
0.0
  0
SEQEND
  8
0
  0
POLYLINE
  8
0
 62
7
 70
0
 66
1
 10
0.0
 20
0.0
 30
0.0
  0
VERTEX
  8
0
 10
27.6924768432
 20
6.9
 30
0.0
  0
VERTEX
  8
0
 10
26.3068361971
 20
6.1
 30
0.0
  0
SEQEND
  8
0
  0
POLYLINE
  8
0
 62
7
 70
0
 66
1
 10
0.0
 20
0.0
 30
0.0
  0
VERTEX
  8
0
 10
24.3591271537
 20
6.9
 30
0.0
  0
VERTEX
  8
0
 10
22.9734865076
 20
6.1
 30
0.0
  0
SEQEND
  8
0
  0
POLYLINE
  8
0
 62
7
 70
0
 66
1
 10
0.0
 20
0.0
 30
0.0
  0
VERTEX
  8
0
 10
21.0257774642
 20
6.9
 30
0.0
  0
VERTEX
  8
0
 10
19.6401368181
 20
6.1
 30
0.0
  0
SEQEND
  8
0
  0
POLYLINE
  8
0
 62
7
 70
0
 66
1
 10
0.0
 20
0.0
 30
0.0
  0
VERTEX
  8
0
 10
17.6924277747
 20
6.9
 30
0.0
  0
VERTEX
  8
0
 10
16.3067871286
 20
6.1
 30
0.0
  0
SEQEND
  8
0
  0
POLYLINE
  8
0
 62
7
 70
0
 66
1
 10
0.0
 20
0.0
 30
0.0
  0
VERTEX
  8
0
 10
14.3590780851
 20
6.9
 30
0.0
  0
VERTEX
  8
0
 10
12.9734374391
 20
6.1
 30
0.0
  0
SEQEND
  8
0
  0
POLYLINE
  8
0
 62
7
 70
0
 66
1
 10
0.0
 20
0.0
 30
0.0
  0
VERTEX
  8
0
 10
11.0257283956
 20
6.9
 30
0.0
  0
VERTEX
  8
0
 10
9.64008774956
 20
6.1
 30
0.0
  0
SEQEND
  8
0
  0
POLYLINE
  8
0
 62
7
 70
0
 66
1
 10
0.0
 20
0.0
 30
0.0
  0
VERTEX
  8
0
 10
6.50475792939
 20
5.87123343144
 30
0.0
  0
VERTEX
  8
0
 10
7.49442193524
 20
7.12843872714
 30
0.0
  0
SEQEND
  8
0
  0
POLYLINE
  8
0
 62
7
 70
0
 66
1
 10
0.0
 20
0.0
 30
0.0
  0
VERTEX
  8
0
 10
4.1575333616
 20
3.80006493365
 30
0.0
  0
VERTEX
  8
0
 10
4.46079235109
 20
5.37106270109
 30
0.0
  0
SEQEND
  8
0
  0
POLYLINE
  8
0
 62
7
 70
0
 66
1
 10
0.0
 20
0.0
 30
0.0
  0
VERTEX
  8
0
 10
3.02086690043
 20
0.883355919379
 30
0.0
  0
VERTEX
  8
0
 10
2.57024366802
 20
2.41858837813
 30
0.0
  0
SEQEND
  8
0
  0
POLYLINE
  8
0
 62
7
 70
0
 66
1
 10
0.0
 20
0.0
 30
0.0
  0
VERTEX
  8
0
 10
3.34767463112
 20
-2.22990584685
 30
0.0
  0
VERTEX
  8
0
 10
2.24343593733
 20
-1.07203845067
 30
0.0
  0
SEQEND
  8
0
  0
POLYLINE
  8
0
 62
7
 70
0
 66
1
 10
0.0
 20
0.0
 30
0.0
  0
VERTEX
  8
0
 10
5.06523959166
 20
-4.84699826482
 30
0.0
  0
VERTEX
  8
0
 10
3.55308612102
 20
-4.32412936992
 30
0.0
  0
SEQEND
  8
0
  0
POLYLINE
  8
0
 62
7
 70
0
 66
1
 10
0.0
 20
0.0
 30
0.0
  0
VERTEX
  8
0
 10
7.7913917957
 20
-6.38560031808
 30
0.0
  0
VERTEX
  8
0
 10
6.20778806893
 20
-6.6140718405
 30
0.0
  0
SEQEND
  8
0
  0
POLYLINE
  8
0
 62
7
 70
0
 66
1
 10
0.0
 20
0.0
 30
0.0
  0
VERTEX
  8
0
 10
11.0257283956
 20
-6.1
 30
0.0
  0
VERTEX
  8
0
 10
9.64008774956
 20
-6.9
 30
0.0
  0
SEQEND
  8
0
  0
POLYLINE
  8
0
 62
7
 70
0
 66
1
 10
0.0
 20
0.0
 30
0.0
  0
VERTEX
  8
0
 10
14.3590780851
 20
-6.1
 30
0.0
  0
VERTEX
  8
0
 10
12.9734374391
 20
-6.9
 30
0.0
  0
SEQEND
  8
0
  0
POLYLINE
  8
0
 62
7
 70
0
 66
1
 10
0.0
 20
0.0
 30
0.0
  0
VERTEX
  8
0
 10
17.6924277747
 20
-6.1
 30
0.0
  0
VERTEX
  8
0
 10
16.3067871286
 20
-6.9
 30
0.0
  0
SEQEND
  8
0
  0
POLYLINE
  8
0
 62
7
 70
0
 66
1
 10
0.0
 20
0.0
 30
0.0
  0
VERTEX
  8
0
 10
21.0257774642
 20
-6.1
 30
0.0
  0
VERTEX
  8
0
 10
19.6401368181
 20
-6.9
 30
0.0
  0
SEQEND
  8
0
  0
POLYLINE
  8
0
 62
7
 70
0
 66
1
 10
0.0
 20
0.0
 30
0.0
  0
VERTEX
  8
0
 10
24.3591271537
 20
-6.1
 30
0.0
  0
VERTEX
  8
0
 10
22.9734865076
 20
-6.9
 30
0.0
  0
SEQEND
  8
0
  0
POLYLINE
  8
0
 62
7
 70
0
 66
1
 10
0.0
 20
0.0
 30
0.0
  0
VERTEX
  8
0
 10
27.6924768432
 20
-6.1
 30
0.0
  0
VERTEX
  8
0
 10
26.3068361971
 20
-6.9
 30
0.0
  0
SEQEND
  8
0
  0
POLYLINE
  8
0
 62
7
 70
0
 66
1
 10
0.0
 20
0.0
 30
0.0
  0
VERTEX
  8
0
 10
31.0258265327
 20
-6.1
 30
0.0
  0
VERTEX
  8
0
 10
29.6401858867
 20
-6.9
 30
0.0
  0
SEQEND
  8
0
  0
POLYLINE
  8
0
 62
7
 70
0
 66
1
 10
0.0
 20
0.0
 30
0.0
  0
VERTEX
  8
0
 10
34.3591762222
 20
-6.1
 30
0.0
  0
VERTEX
  8
0
 10
32.9735355762
 20
-6.9
 30
0.0
  0
SEQEND
  8
0
  0
POLYLINE
  8
0
 62
7
 70
0
 66
1
 10
0.0
 20
0.0
 30
0.0
  0
VERTEX
  8
0
 10
37.6925259117
 20
-6.1
 30
0.0
  0
VERTEX
  8
0
 10
36.3068852657
 20
-6.9
 30
0.0
  0
SEQEND
  8
0
  0
POLYLINE
  8
0
 62
7
 70
0
 66
1
 10
0.0
 20
0.0
 30
0.0
  0
VERTEX
  8
0
 10
41.0258756013
 20
-6.1
 30
0.0
  0
VERTEX
  8
0
 10
39.6402349552
 20
-6.9
 30
0.0
  0
SEQEND
  8
0
  0
POLYLINE
  8
0
 62
7
 70
0
 66
1
 10
0.0
 20
0.0
 30
0.0
  0
VERTEX
  8
0
 10
44.3592252908
 20
-6.1
 30
0.0
  0
VERTEX
  8
0
 10
42.9735846447
 20
-6.9
 30
0.0
  0
SEQEND
  8
0
  0
POLYLINE
  8
0
 62
7
 70
0
 66
1
 10
0.0
 20
0.0
 30
0.0
  0
VERTEX
  8
0
 10
47.6925749803
 20
-6.1
 30
0.0
  0
VERTEX
  8
0
 10
46.3069343342
 20
-6.9
 30
0.0
  0
SEQEND
  8
0
  0
POLYLINE
  8
0
 62
7
 70
0
 66
1
 10
0.0
 20
0.0
 30
0.0
  0
VERTEX
  8
0
 10
51.0259246698
 20
-6.1
 30
0.0
  0
VERTEX
  8
0
 10
49.6402840238
 20
-6.9
 30
0.0
  0
SEQEND
  8
0
  0
POLYLINE
  8
0
 62
7
 70
0
 66
1
 10
0.0
 20
0.0
 30
0.0
  0
VERTEX
  8
0
 10
54.3592743593
 20
-6.1
 30
0.0
  0
VERTEX
  8
0
 10
52.9736337133
 20
-6.9
 30
0.0
  0
SEQEND
  8
0
  0
POLYLINE
  8
0
 62
7
 70
0
 66
1
 10
0.0
 20
0.0
 30
0.0
  0
VERTEX
  8
0
 10
57.6926240488
 20
-6.1
 30
0.0
  0
VERTEX
  8
0
 10
56.3069834028
 20
-6.9
 30
0.0
  0
SEQEND
  8
0
  0
POLYLINE
  8
0
 62
7
 70
0
 66
1
 10
0.0
 20
0.0
 30
0.0
  0
VERTEX
  8
0
 10
61.0259737384
 20
-6.1
 30
0.0
  0
VERTEX
  8
0
 10
59.6403330923
 20
-6.9
 30
0.0
  0
SEQEND
  8
0
  0
POLYLINE
  8
0
 62
7
 70
0
 66
1
 10
0.0
 20
0.0
 30
0.0
  0
VERTEX
  8
0
 10
64.3593234279
 20
-6.1
 30
0.0
  0
VERTEX
  8
0
 10
62.9736827818
 20
-6.9
 30
0.0
  0
SEQEND
  8
0
  0
POLYLINE
  8
0
 62
7
 70
0
 66
1
 10
0.0
 20
0.0
 30
0.0
  0
VERTEX
  8
0
 10
67.6926731174
 20
-6.1
 30
0.0
  0
VERTEX
  8
0
 10
66.3070324713
 20
-6.9
 30
0.0
  0
SEQEND
  8
0
  0
POLYLINE
  8
0
 62
7
 70
0
 66
1
 10
0.0
 20
0.0
 30
0.0
  0
VERTEX
  8
0
 10
71.0260228069
 20
-6.1
 30
0.0
  0
VERTEX
  8
0
 10
69.6403821608
 20
-6.9
 30
0.0
  0
SEQEND
  8
0
  0
POLYLINE
  8
0
 62
7
 70
0
 66
1
 10
0.0
 20
0.0
 30
0.0
  0
VERTEX
  8
0
 10
74.3593724964
 20
-6.1
 30
0.0
  0
VERTEX
  8
0
 10
72.9737318504
 20
-6.9
 30
0.0
  0
SEQEND
  8
0
  0
POLYLINE
  8
0
 62
7
 70
0
 66
1
 10
0.0
 20
0.0
 30
0.0
  0
VERTEX
  8
0
 10
77.6927221859
 20
-6.1
 30
0.0
  0
VERTEX
  8
0
 10
76.3070815399
 20
-6.9
 30
0.0
  0
SEQEND
  8
0
  0
POLYLINE
  8
0
 62
7
 70
0
 66
1
 10
0.0
 20
0.0
 30
0.0
  0
VERTEX
  8
0
 10
81.0260718754
 20
-6.1
 30
0.0
  0
VERTEX
  8
0
 10
79.6404312294
 20
-6.9
 30
0.0
  0
SEQEND
  8
0
  0
POLYLINE
  8
0
 62
7
 70
0
 66
1
 10
0.0
 20
0.0
 30
0.0
  0
VERTEX
  8
0
 10
84.359421565
 20
-6.1
 30
0.0
  0
VERTEX
  8
0
 10
82.9737809189
 20
-6.9
 30
0.0
  0
SEQEND
  8
0
  0
POLYLINE
  8
0
 62
7
 70
0
 66
1
 10
0.0
 20
0.0
 30
0.0
  0
VERTEX
  8
0
 10
87.6927712545
 20
-6.1
 30
0.0
  0
VERTEX
  8
0
 10
86.3071306084
 20
-6.9
 30
0.0
  0
SEQEND
  8
0
  0
POLYLINE
  8
0
 62
7
 70
0
 66
1
 10
0.0
 20
0.0
 30
0.0
  0
VERTEX
  8
0
 10
91.026120944
 20
-6.1
 30
0.0
  0
VERTEX
  8
0
 10
89.6404802979
 20
-6.9
 30
0.0
  0
SEQEND
  8
0
  0
POLYLINE
  8
0
 62
7
 70
0
 66
1
 10
0.0
 20
0.0
 30
0.0
  0
VERTEX
  8
0
 10
94.3594706335
 20
-6.1
 30
0.0
  0
VERTEX
  8
0
 10
92.9738299875
 20
-6.9
 30
0.0
  0
SEQEND
  8
0
  0
ENDBLK
  0
ENDSEC
  0
SECTION
  2
ENTITIES
  0
INSERT
  2
POCKET_CS
  8
0
 10
0.0
 20
0.0
 30
0.0
  0
INSERT
  2
PATHARRAY002
  8
0
 10
0.0
 20
0.0
 30
0.0
  0
INSERT
  2
CUT_CS
  8
0
 10
0.0
 20
0.0
 30
0.0
  0
INSERT
  2
PATHARRAY001
  8
0
 10
0.0
 20
0.0
 30
0.0
  0
ENDSEC
  0
EOF
