<?xml version="1.0" encoding="UTF-8" standalone="no"?>
<!-- Created with Inkscape (http://www.inkscape.org/) -->

<svg
   xmlns:dc="http://purl.org/dc/elements/1.1/"
   xmlns:cc="http://creativecommons.org/ns#"
   xmlns:rdf="http://www.w3.org/1999/02/22-rdf-syntax-ns#"
   xmlns:svg="http://www.w3.org/2000/svg"
   xmlns="http://www.w3.org/2000/svg"
   xmlns:sodipodi="http://sodipodi.sourceforge.net/DTD/sodipodi-0.dtd"
   xmlns:inkscape="http://www.inkscape.org/namespaces/inkscape"
   id="svg4206"
   version="1.1"
   inkscape:version="0.91 r13725"
   width="863.59998mm"
   height="1151.4667mm"
   viewBox="0 0 3060 4080"
   sodipodi:docname="sko-gravering.svg">
  <metadata
     id="metadata4212">
    <rdf:RDF>
      <cc:Work
         rdf:about="">
        <dc:format>image/svg+xml</dc:format>
        <dc:type
           rdf:resource="http://purl.org/dc/dcmitype/StillImage" />
        <dc:title></dc:title>
      </cc:Work>
    </rdf:RDF>
  </metadata>
  <defs
     id="defs4210" />
  <sodipodi:namedview
     pagecolor="#ffffff"
     bordercolor="#666666"
     borderopacity="1"
     objecttolerance="10"
     gridtolerance="10"
     guidetolerance="10"
     inkscape:pageopacity="0"
     inkscape:pageshadow="2"
     inkscape:window-width="640"
     inkscape:window-height="480"
     id="namedview4208"
     showgrid="false"
     inkscape:zoom="1.1743519"
     inkscape:cx="2068.2227"
     inkscape:cy="1020.1627"
     inkscape:current-layer="layer3"
     inkscape:document-units="mm"
     units="mm" />
  <g
     inkscape:groupmode="layer"
     id="layer3"
     inkscape:label="circles 1">
    <path
       style="color:#000000;font-style:normal;font-variant:normal;font-weight:normal;font-stretch:normal;font-size:medium;line-height:normal;font-family:sans-serif;text-indent:0;text-align:start;text-decoration:none;text-decoration-line:none;text-decoration-style:solid;text-decoration-color:#000000;letter-spacing:normal;word-spacing:normal;text-transform:none;direction:ltr;block-progression:tb;writing-mode:lr-tb;baseline-shift:baseline;text-anchor:start;white-space:normal;clip-rule:nonzero;display:inline;overflow:visible;visibility:visible;opacity:1;isolation:auto;mix-blend-mode:normal;color-interpolation:sRGB;color-interpolation-filters:linearRGB;solid-color:#000000;solid-opacity:1;fill:#000000;fill-opacity:1;fill-rule:nonzero;stroke:none;stroke-width:1.77165353;stroke-linecap:butt;stroke-linejoin:miter;stroke-miterlimit:4;stroke-dasharray:none;stroke-dashoffset:0;stroke-opacity:1;color-rendering:auto;image-rendering:auto;shape-rendering:auto;text-rendering:auto;enable-background:accumulate"
       d="m 2072.0039,2823.6348 c -137.4627,0 -248.916,111.4552 -248.916,248.9179 0,137.4628 111.4533,248.918 248.916,248.918 137.4628,0 248.918,-111.4552 248.918,-248.918 0,-137.4627 -111.4552,-248.9179 -248.918,-248.9179 z m 0,1.7714 c 136.5053,0 247.1465,110.6413 247.1465,247.1465 0,136.5053 -110.6412,247.1446 -247.1465,247.1446 -136.5053,0 -247.1445,-110.6393 -247.1445,-247.1446 0,-136.5052 110.6392,-247.1465 247.1445,-247.1465 z"
       id="path4524"
       inkscape:connector-curvature="0" />
    <path
       style="color:#000000;font-style:normal;font-variant:normal;font-weight:normal;font-stretch:normal;font-size:medium;line-height:normal;font-family:sans-serif;text-indent:0;text-align:start;text-decoration:none;text-decoration-line:none;text-decoration-style:solid;text-decoration-color:#000000;letter-spacing:normal;word-spacing:normal;text-transform:none;direction:ltr;block-progression:tb;writing-mode:lr-tb;baseline-shift:baseline;text-anchor:start;white-space:normal;clip-rule:nonzero;display:inline;overflow:visible;visibility:visible;opacity:1;isolation:auto;mix-blend-mode:normal;color-interpolation:sRGB;color-interpolation-filters:linearRGB;solid-color:#000000;solid-opacity:1;fill:#000000;fill-opacity:1;fill-rule:nonzero;stroke:none;stroke-width:3.54330707;stroke-linecap:butt;stroke-linejoin:miter;stroke-miterlimit:4;stroke-dasharray:none;stroke-dashoffset:0;stroke-opacity:1;color-rendering:auto;image-rendering:auto;shape-rendering:auto;text-rendering:auto;enable-background:accumulate"
       d="m 2072.0039,2858.1816 c -118.3723,0 -214.3691,95.9988 -214.3691,214.3711 0,118.3724 95.9968,214.3692 214.3691,214.3692 118.3723,0 214.3711,-95.9968 214.3711,-214.3692 0,-118.3723 -95.9988,-214.3711 -214.3711,-214.3711 z m 0,3.545 c 116.4574,0 210.8281,94.3687 210.8281,210.8261 0,116.4574 -94.3707,210.8262 -210.8281,210.8262 -116.4574,0 -210.8262,-94.3688 -210.8262,-210.8262 0,-116.4574 94.3688,-210.8261 210.8262,-210.8261 z"
       id="path4524-2"
       inkscape:connector-curvature="0" />
    <path
       style="color:#000000;font-style:normal;font-variant:normal;font-weight:normal;font-stretch:normal;font-size:medium;line-height:normal;font-family:sans-serif;text-indent:0;text-align:start;text-decoration:none;text-decoration-line:none;text-decoration-style:solid;text-decoration-color:#000000;letter-spacing:normal;word-spacing:normal;text-transform:none;direction:ltr;block-progression:tb;writing-mode:lr-tb;baseline-shift:baseline;text-anchor:start;white-space:normal;clip-rule:nonzero;display:inline;overflow:visible;visibility:visible;opacity:1;isolation:auto;mix-blend-mode:normal;color-interpolation:sRGB;color-interpolation-filters:linearRGB;solid-color:#000000;solid-opacity:1;fill:#000000;fill-opacity:1;fill-rule:nonzero;stroke:none;stroke-width:7.08661413;stroke-linecap:butt;stroke-linejoin:miter;stroke-miterlimit:4;stroke-dasharray:none;stroke-dashoffset:0;stroke-opacity:1;color-rendering:auto;image-rendering:auto;shape-rendering:auto;text-rendering:auto;enable-background:accumulate"
       d="m 2072.0039,2891.8438 c -99.7607,0 -180.707,80.9483 -180.707,180.7089 0,99.7607 80.9463,180.709 180.707,180.709 99.7607,0 180.709,-80.9483 180.709,-180.709 0,-99.7606 -80.9483,-180.7089 -180.709,-180.7089 z m 0,7.0859 c 95.9308,0 173.6231,77.6923 173.6231,173.623 0,95.9308 -77.6923,173.6211 -173.6231,173.6211 -95.9308,0 -173.6211,-77.6903 -173.6211,-173.6211 0,-95.9307 77.6903,-173.623 173.6211,-173.623 z"
       id="path4524-2-4"
       inkscape:connector-curvature="0" />
    <path
       style="color:#000000;font-style:normal;font-variant:normal;font-weight:normal;font-stretch:normal;font-size:medium;line-height:normal;font-family:sans-serif;text-indent:0;text-align:start;text-decoration:none;text-decoration-line:none;text-decoration-style:solid;text-decoration-color:#000000;letter-spacing:normal;word-spacing:normal;text-transform:none;direction:ltr;block-progression:tb;writing-mode:lr-tb;baseline-shift:baseline;text-anchor:start;white-space:normal;clip-rule:nonzero;display:inline;overflow:visible;visibility:visible;opacity:1;isolation:auto;mix-blend-mode:normal;color-interpolation:sRGB;color-interpolation-filters:linearRGB;solid-color:#000000;solid-opacity:1;fill:#000000;fill-opacity:1;fill-rule:nonzero;stroke:none;stroke-width:10.62992096;stroke-linecap:butt;stroke-linejoin:miter;stroke-miterlimit:4;stroke-dasharray:none;stroke-dashoffset:0;stroke-opacity:1;color-rendering:auto;image-rendering:auto;shape-rendering:auto;text-rendering:auto;enable-background:accumulate"
       d="m 2072.0039,2925.5059 c -81.149,0 -147.0469,65.8978 -147.0469,147.0468 0,81.149 65.8979,147.0469 147.0469,147.0469 81.149,0 147.0488,-65.8979 147.0488,-147.0469 0,-81.149 -65.8998,-147.0468 -147.0488,-147.0468 z m 0,10.6289 c 75.4042,0 136.418,61.0138 136.418,136.4179 0,75.4042 -61.0138,136.418 -136.418,136.418 -75.4042,0 -136.416,-61.0138 -136.416,-136.418 0,-75.4041 61.0118,-136.4179 136.416,-136.4179 z"
       id="path4524-2-4-4"
       inkscape:connector-curvature="0" />
    <path
       style="color:#000000;font-style:normal;font-variant:normal;font-weight:normal;font-stretch:normal;font-size:medium;line-height:normal;font-family:sans-serif;text-indent:0;text-align:start;text-decoration:none;text-decoration-line:none;text-decoration-style:solid;text-decoration-color:#000000;letter-spacing:normal;word-spacing:normal;text-transform:none;direction:ltr;block-progression:tb;writing-mode:lr-tb;baseline-shift:baseline;text-anchor:start;white-space:normal;clip-rule:nonzero;display:inline;overflow:visible;visibility:visible;opacity:1;isolation:auto;mix-blend-mode:normal;color-interpolation:sRGB;color-interpolation-filters:linearRGB;solid-color:#000000;solid-opacity:1;fill:#000000;fill-opacity:1;fill-rule:nonzero;stroke:none;stroke-width:14.17322826;stroke-linecap:butt;stroke-linejoin:miter;stroke-miterlimit:4;stroke-dasharray:none;stroke-dashoffset:0;stroke-opacity:1;color-rendering:auto;image-rendering:auto;shape-rendering:auto;text-rendering:auto;enable-background:accumulate"
       d="m 2072.0039,2959.166 c -62.5373,0 -113.3848,50.8494 -113.3848,113.3867 0,62.5374 50.8475,113.3848 113.3848,113.3848 62.5373,0 113.3867,-50.8474 113.3867,-113.3848 0,-62.5373 -50.8494,-113.3867 -113.3867,-113.3867 z m 0,14.1738 c 54.8775,0 99.2129,44.3354 99.2129,99.2129 0,54.8776 -44.3354,99.2129 -99.2129,99.2129 -54.8775,0 -99.2109,-44.3353 -99.2109,-99.2129 0,-54.8775 44.3334,-99.2129 99.2109,-99.2129 z"
       id="path4524-2-4-4-6"
       inkscape:connector-curvature="0" />
    <path
       style="color:#000000;font-style:normal;font-variant:normal;font-weight:normal;font-stretch:normal;font-size:medium;line-height:normal;font-family:sans-serif;text-indent:0;text-align:start;text-decoration:none;text-decoration-line:none;text-decoration-style:solid;text-decoration-color:#000000;letter-spacing:normal;word-spacing:normal;text-transform:none;direction:ltr;block-progression:tb;writing-mode:lr-tb;baseline-shift:baseline;text-anchor:start;white-space:normal;clip-rule:nonzero;display:inline;overflow:visible;visibility:visible;opacity:1;isolation:auto;mix-blend-mode:normal;color-interpolation:sRGB;color-interpolation-filters:linearRGB;solid-color:#000000;solid-opacity:1;fill:#000000;fill-opacity:1;fill-rule:nonzero;stroke:none;stroke-width:17.71653557;stroke-linecap:butt;stroke-linejoin:miter;stroke-miterlimit:4;stroke-dasharray:none;stroke-dashoffset:0;stroke-opacity:1;color-rendering:auto;image-rendering:auto;shape-rendering:auto;text-rendering:auto;enable-background:accumulate"
       d="m 2072.0039,2992.8281 c -43.9256,0 -79.7226,35.799 -79.7227,79.7246 0,43.9257 35.7971,79.7246 79.7227,79.7246 43.9257,0 79.7246,-35.7989 79.7246,-79.7246 0,-43.9256 -35.7989,-79.7246 -79.7246,-79.7246 z m 0,17.7168 c 34.3509,0 62.0098,27.6569 62.0098,62.0078 0,34.351 -27.6589,62.0078 -62.0098,62.0078 -34.3509,0 -62.0078,-27.6568 -62.0078,-62.0078 0,-34.3509 27.6569,-62.0078 62.0078,-62.0078 z"
       id="path4524-2-4-4-6-8"
       inkscape:connector-curvature="0" />
  </g>
</svg>
