  0
SECTION
  2
HEADER
  9
$ACADVER
  1
AC1009
  9
$INSBASE
 10
0.0
 20
0.0
 30
0.0
  9
$EXTMIN
 10
0.0
 20
0.0
 30
0.0
  9
$EXTMAX
 10
0.0
 20
0.0
 30
0.0
  0
ENDSEC
  0
SECTION
  2
TABLES
  0
TABLE
  2
VPORT
 70
0
  0
ENDTAB
  0
TABLE
  2
LTYPE
 70
1
  0
LTYPE
  2
CONTINUOUS
 70
0
  3
Solid line
 72
65
 73
0
 40
0.0
  0
ENDTAB
  0
TABLE
  2
LAYER
 70
1
  0
LAYER
  2
0
 70
64
 62
7
  6
continuous
  0
ENDTAB
  0
TABLE
  2
STYLE
 70
1
  0
STYLE
  2
STANDARD
 70
0
 40
0
 41
1.0
 50
0.0
 71
0
 42
1
 3
ARIAL.TTF
 4

  0
ENDTAB
  0
TABLE
  2
VIEW
 70
0
  0
ENDTAB
  0
ENDSEC
  0
SECTION
  2
BLOCKS
  0
BLOCK
  8
Layer_329
  2
FUSION
 70
0
 10
0.0
 20
0.0
 30
0.0
  3
FUSION
  0
POLYLINE
  8
Layer_329
 62
0
 70
1
 66
1
 10
0.0
 20
0.0
 30
0.0
  0
VERTEX
  8
Layer_329
 10
-5.96727408787
 20
-92.8477234941
 30
0.0
  0
VERTEX
  8
Layer_329
 10
-2.21202789359
 20
-49.9250630838
 30
0.0
  0
VERTEX
  8
Layer_329
 10
16.147707213
 20
-46.5991804461
 30
0.0
  0
VERTEX
  8
Layer_329
 10
12.3924610187
 20
-89.5218408564
 30
0.0
  0
SEQEND
  8
Layer_329
  0
POLYLINE
  8
Layer_329
 62
0
 70
1
 66
1
 10
0.0
 20
0.0
 30
0.0
  0
VERTEX
  8
Layer_329
 10
7.78371797986
 20
-58.6215635495
 30
0.0
  0
VERTEX
  8
Layer_329
 10
7.86731036006
 20
-57.6660982716
 30
0.0
  0
VERTEX
  8
Layer_329
 10
8.05937815836
 20
-57.4629570697
 30
0.0
  0
VERTEX
  8
Layer_329
 10
8.21629218429
 20
-57.7090806025
 30
0.0
  0
VERTEX
  8
Layer_329
 10
8.19071005637
 20
-58.0014856627
 30
0.0
  0
VERTEX
  8
Layer_329
 10
12.3173300384
 20
-58.3625181298
 30
0.0
  0
VERTEX
  8
Layer_329
 10
12.3238156459
 20
-58.2883872975
 30
0.0
  0
VERTEX
  8
Layer_329
 10
9.41102216217
 20
-56.7180309379
 30
0.0
  0
VERTEX
  8
Layer_329
 10
9.44561218473
 20
-56.3226651709
 30
0.0
  0
VERTEX
  8
Layer_329
 10
12.5890051216
 20
-55.2572577201
 30
0.0
  0
VERTEX
  8
Layer_329
 10
12.5947701253
 20
-55.1913634256
 30
0.0
  0
VERTEX
  8
Layer_329
 10
8.46815014328
 20
-54.8303309585
 30
0.0
  0
VERTEX
  8
Layer_329
 10
8.44256810251
 20
-55.1227350224
 30
0.0
  0
VERTEX
  8
Layer_329
 10
8.24529905026
 20
-55.3378715511
 30
0.0
  0
VERTEX
  8
Layer_329
 10
8.09142438008
 20
-55.1044633011
 30
0.0
  0
VERTEX
  8
Layer_329
 10
8.17501667313
 20
-54.1489990194
 30
0.0
  0
VERTEX
  8
Layer_329
 10
8.36708447143
 20
-53.9458578174
 30
0.0
  0
VERTEX
  8
Layer_329
 10
8.52399858452
 20
-54.1919803541
 30
0.0
  0
VERTEX
  8
Layer_329
 10
8.49841636944
 20
-54.4843864104
 30
0.0
  0
VERTEX
  8
Layer_329
 10
12.6250363515
 20
-54.8454188775
 30
0.0
  0
VERTEX
  8
Layer_329
 10
12.6506185666
 20
-54.5530128212
 30
0.0
  0
VERTEX
  8
Layer_329
 10
12.8478865355
 20
-54.3378772015
 30
0.0
  0
VERTEX
  8
Layer_329
 10
13.0006803873
 20
-54.583639262
 30
0.0
  0
VERTEX
  8
Layer_329
 10
12.9158581301
 20
-55.5057986099
 30
0.0
  0
VERTEX
  8
Layer_329
 10
9.81956774731
 20
-56.5545770404
 30
0.0
  0
VERTEX
  8
Layer_329
 10
12.6885014807
 20
-58.1044970042
 30
0.0
  0
VERTEX
  8
Layer_329
 10
12.6115435922
 20
-59.0314931826
 30
0.0
  0
VERTEX
  8
Layer_329
 10
12.4183948012
 20
-59.2469901874
 30
0.0
  0
VERTEX
  8
Layer_329
 10
12.2614817715
 20
-59.0008667418
 30
0.0
  0
VERTEX
  8
Layer_329
 10
12.2870638123
 20
-58.7084626778
 30
0.0
  0
VERTEX
  8
Layer_329
 10
8.16044383021
 20
-58.3474302107
 30
0.0
  0
VERTEX
  8
Layer_329
 10
8.13486178944
 20
-58.6398342747
 30
0.0
  0
VERTEX
  8
Layer_329
 10
7.93759273719
 20
-58.8549708033
 30
0.0
  0
SEQEND
  8
Layer_329
  0
POLYLINE
  8
Layer_329
 62
0
 70
1
 66
1
 10
0.0
 20
0.0
 30
0.0
  0
VERTEX
  8
Layer_329
 10
7.37563943863
 20
-63.33335495
 30
0.0
  0
VERTEX
  8
Layer_329
 10
7.42860529083
 20
-62.727952489
 30
0.0
  0
VERTEX
  8
Layer_329
 10
7.87750954949
 20
-62.7672265226
 30
0.0
  0
VERTEX
  8
Layer_329
 10
7.43224336268
 20
-61.2633533259
 30
0.0
  0
VERTEX
  8
Layer_329
 10
7.74281200204
 20
-60.4646930227
 30
0.0
  0
VERTEX
  8
Layer_329
 10
8.51690875088
 20
-60.1547756707
 30
0.0
  0
VERTEX
  8
Layer_329
 10
9.35371940955
 20
-60.7882239873
 30
0.0
  0
VERTEX
  8
Layer_329
 10
9.50642073179
 20
-61.8888600369
 30
0.0
  0
VERTEX
  8
Layer_329
 10
9.30246843803
 20
-62.8918942714
 30
0.0
  0
VERTEX
  8
Layer_329
 10
9.80903144962
 20
-62.9362127923
 30
0.0
  0
VERTEX
  8
Layer_329
 10
10.3358186556
 20
-62.6544571572
 30
0.0
  0
VERTEX
  8
Layer_329
 10
10.5264938711
 20
-62.0403537484
 30
0.0
  0
VERTEX
  8
Layer_329
 10
10.4361371801
 20
-61.2232171926
 30
0.0
  0
VERTEX
  8
Layer_329
 10
10.3779604004
 20
-60.8446351331
 30
0.0
  0
VERTEX
  8
Layer_329
 10
10.5470694286
 20
-60.7141845522
 30
0.0
  0
VERTEX
  8
Layer_329
 10
10.6467865098
 20
-60.7602557834
 30
0.0
  0
VERTEX
  8
Layer_329
 10
10.7949011192
 20
-61.3915510914
 30
0.0
  0
VERTEX
  8
Layer_329
 10
10.8421673372
 20
-62.0845707629
 30
0.0
  0
VERTEX
  8
Layer_329
 10
10.5383939411
 20
-62.9004257414
 30
0.0
  0
VERTEX
  8
Layer_329
 10
9.78128751065
 20
-63.2533274657
 30
0.0
  0
VERTEX
  8
Layer_329
 10
7.75128303864
 20
-63.0715803154
 30
0.0
  0
VERTEX
  8
Layer_329
 10
7.72353909968
 20
-63.3886949889
 30
0.0
  0
VERTEX
  8
Layer_329
 10
7.52843294182
 20
-63.5791209952
 30
0.0
  0
VERTEX
  8
Layer_329
 10
7.5284333776
 20
-63.5791160142
 30
0.0
  0
SEQEND
  8
Layer_329
  0
POLYLINE
  8
Layer_329
 62
0
 70
1
 66
1
 10
0.0
 20
0.0
 30
0.0
  0
VERTEX
  8
Layer_329
 10
8.29346566471
 20
-62.8036179672
 30
0.0
  0
VERTEX
  8
Layer_329
 10
8.98123449949
 20
-62.8637899434
 30
0.0
  0
VERTEX
  8
Layer_329
 10
9.19054074197
 20
-61.8944244561
 30
0.0
  0
VERTEX
  8
Layer_329
 10
9.09323412052
 20
-61.0144289768
 30
0.0
  0
VERTEX
  8
Layer_329
 10
8.48952511376
 20
-60.4677720753
 30
0.0
  0
VERTEX
  8
Layer_329
 10
7.95058555288
 20
-60.6986660188
 30
0.0
  0
VERTEX
  8
Layer_329
 10
7.74632266518
 20
-61.2783823307
 30
0.0
  0
SEQEND
  8
Layer_329
  0
POLYLINE
  8
Layer_329
 62
0
 70
1
 66
1
 10
0.0
 20
0.0
 30
0.0
  0
VERTEX
  8
Layer_329
 10
6.91407996903
 20
-68.6090038283
 30
0.0
  0
VERTEX
  8
Layer_329
 10
6.96992841027
 20
-67.9706532239
 30
0.0
  0
VERTEX
  8
Layer_329
 10
7.51767211829
 20
-68.0185745889
 30
0.0
  0
VERTEX
  8
Layer_329
 10
6.9096295545
 20
-66.5253600555
 30
0.0
  0
VERTEX
  8
Layer_329
 10
7.52016491123
 20
-65.3338024817
 30
0.0
  0
VERTEX
  8
Layer_329
 10
8.79176216426
 20
-64.9346154576
 30
0.0
  0
VERTEX
  8
Layer_329
 10
9.9706036334
 20
-65.5481880905
 30
0.0
  0
VERTEX
  8
Layer_329
 10
10.3649527811
 20
-66.8276616666
 30
0.0
  0
VERTEX
  8
Layer_329
 10
9.51133034588
 20
-68.1888472915
 30
0.0
  0
VERTEX
  8
Layer_329
 10
11.7637273147
 20
-68.3900512642
 30
0.0
  0
VERTEX
  8
Layer_329
 10
11.7914712536
 20
-68.0729365907
 30
0.0
  0
VERTEX
  8
Layer_329
 10
11.9865754191
 20
-67.88251041
 30
0.0
  0
VERTEX
  8
Layer_329
 10
12.1393713505
 20
-68.1282716486
 30
0.0
  0
VERTEX
  8
Layer_329
 10
12.0794106175
 20
-68.7662624741
 30
0.0
  0
VERTEX
  8
Layer_329
 10
7.28972942157
 20
-68.3472196676
 30
0.0
  0
VERTEX
  8
Layer_329
 10
7.26198539545
 20
-68.6643353372
 30
0.0
  0
VERTEX
  8
Layer_329
 10
7.0668792376
 20
-68.8547613436
 30
0.0
  0
VERTEX
  8
Layer_329
 10
7.06687382084
 20
-68.8547658888
 30
0.0
  0
SEQEND
  8
Layer_329
  0
POLYLINE
  8
Layer_329
 62
0
 70
1
 66
1
 10
0.0
 20
0.0
 30
0.0
  0
VERTEX
  8
Layer_329
 10
8.03891493152
 20
-73.4922548995
 30
0.0
  0
VERTEX
  8
Layer_329
 10
8.31707553495
 20
-70.3128646538
 30
0.0
  0
VERTEX
  8
Layer_329
 10
7.29222208255
 20
-70.7377887544
 30
0.0
  0
VERTEX
  8
Layer_329
 10
6.83380660611
 20
-71.7559094698
 30
0.0
  0
VERTEX
  8
Layer_329
 10
7.13533837276
 20
-73.1476095338
 30
0.0
  0
VERTEX
  8
Layer_329
 10
7.18218672565
 20
-73.2762059851
 30
0.0
  0
VERTEX
  8
Layer_329
 10
7.01271739564
 20
-73.4107748349
 30
0.0
  0
VERTEX
  8
Layer_329
 10
6.59963597601
 20
-72.6774498941
 30
0.0
  0
VERTEX
  8
Layer_329
 10
6.52081020152
 20
-71.7285258327
 30
0.0
  0
VERTEX
  8
Layer_329
 10
7.14786921266
 20
-70.4429666858
 30
0.0
  0
VERTEX
  8
Layer_329
 10
8.48484477499
 20
-70.0079985991
 30
0.0
  0
VERTEX
  8
Layer_329
 10
9.62929862425
 20
-70.6351648814
 30
0.0
  0
VERTEX
  8
Layer_329
 10
9.98730313382
 20
-71.9031571237
 30
0.0
  0
VERTEX
  8
Layer_329
 10
9.36976510109
 20
-73.1273003724
 30
0.0
  0
SEQEND
  8
Layer_329
  0
POLYLINE
  8
Layer_329
 62
0
 70
1
 66
1
 10
0.0
 20
0.0
 30
0.0
  0
VERTEX
  8
Layer_329
 10
8.62971371724
 20
-70.3443657379
 30
0.0
  0
VERTEX
  8
Layer_329
 10
8.37929696562
 20
-73.2066423064
 30
0.0
  0
VERTEX
  8
Layer_329
 10
9.26680235277
 20
-72.7863009719
 30
0.0
  0
VERTEX
  8
Layer_329
 10
9.67018746416
 20
-71.8754130976
 30
0.0
  0
VERTEX
  8
Layer_329
 10
9.43522188399
 20
-70.9086777781
 30
0.0
  0
SEQEND
  8
Layer_329
  0
POLYLINE
  8
Layer_329
 62
0
 70
1
 66
1
 10
0.0
 20
0.0
 30
0.0
  0
VERTEX
  8
Layer_329
 10
5.85944737181
 20
-80.6635095747
 30
0.0
  0
VERTEX
  8
Layer_329
 10
5.91241322402
 20
-80.0581071137
 30
0.0
  0
VERTEX
  8
Layer_329
 10
6.36131748268
 20
-80.0973811474
 30
0.0
  0
VERTEX
  8
Layer_329
 10
5.91605112156
 20
-78.593509943
 30
0.0
  0
VERTEX
  8
Layer_329
 10
6.22661984807
 20
-77.7948486437
 30
0.0
  0
VERTEX
  8
Layer_329
 10
7.00071650975
 20
-77.4849322879
 30
0.0
  0
VERTEX
  8
Layer_329
 10
7.83752716843
 20
-78.1183806044
 30
0.0
  0
VERTEX
  8
Layer_329
 10
7.99022857782
 20
-79.2190156579
 30
0.0
  0
VERTEX
  8
Layer_329
 10
7.78627637121
 20
-80.2220488961
 30
0.0
  0
VERTEX
  8
Layer_329
 10
8.29283938281
 20
-80.266367417
 30
0.0
  0
VERTEX
  8
Layer_329
 10
8.81962650166
 20
-79.9846127781
 30
0.0
  0
VERTEX
  8
Layer_329
 10
9.01030162998
 20
-79.3705103655
 30
0.0
  0
VERTEX
  8
Layer_329
 10
8.91994511325
 20
-78.5533718173
 30
0.0
  0
VERTEX
  8
Layer_329
 10
8.86176815932
 20
-78.1747917502
 30
0.0
  0
VERTEX
  8
Layer_329
 10
9.0308773618
 20
-78.0443391769
 30
0.0
  0
VERTEX
  8
Layer_329
 10
9.13059426872
 20
-78.0904124005
 30
0.0
  0
VERTEX
  8
Layer_329
 10
9.27870887806
 20
-78.7217077086
 30
0.0
  0
VERTEX
  8
Layer_329
 10
9.32597509609
 20
-79.41472738
 30
0.0
  0
VERTEX
  8
Layer_329
 10
9.02220178713
 20
-80.2305813623
 30
0.0
  0
VERTEX
  8
Layer_329
 10
8.26509535668
 20
-80.5834830866
 30
0.0
  0
VERTEX
  8
Layer_329
 10
6.23509079751
 20
-80.4017369325
 30
0.0
  0
VERTEX
  8
Layer_329
 10
6.20734685855
 20
-80.718851606
 30
0.0
  0
VERTEX
  8
Layer_329
 10
6.01224078785
 20
-80.9092766161
 30
0.0
  0
VERTEX
  8
Layer_329
 10
6.01224122363
 20
-80.9092716352
 30
0.0
  0
SEQEND
  8
Layer_329
  0
POLYLINE
  8
Layer_329
 62
0
 70
1
 66
1
 10
0.0
 20
0.0
 30
0.0
  0
VERTEX
  8
Layer_329
 10
6.77727359789
 20
-80.133772592
 30
0.0
  0
VERTEX
  8
Layer_329
 10
7.46504243267
 20
-80.1939445682
 30
0.0
  0
VERTEX
  8
Layer_329
 10
7.67434876231
 20
-79.2245780846
 30
0.0
  0
VERTEX
  8
Layer_329
 10
7.57704196655
 20
-78.3445845977
 30
0.0
  0
VERTEX
  8
Layer_329
 10
6.97333287263
 20
-77.7979286924
 30
0.0
  0
VERTEX
  8
Layer_329
 10
6.43439331175
 20
-78.0288226359
 30
0.0
  0
VERTEX
  8
Layer_329
 10
6.23013051121
 20
-78.6085379516
 30
0.0
  0
SEQEND
  8
Layer_329
  0
POLYLINE
  8
Layer_329
 62
0
 70
1
 66
1
 10
0.0
 20
0.0
 30
0.0
  0
VERTEX
  8
Layer_329
 10
6.55249636317
 20
-83.2721875817
 30
0.0
  0
VERTEX
  8
Layer_329
 10
8.42672037263
 20
-83.4320161633
 30
0.0
  0
VERTEX
  8
Layer_329
 10
8.50058434167
 20
-82.5877471338
 30
0.0
  0
VERTEX
  8
Layer_329
 10
8.69785239773
 20
-82.372610518
 30
0.0
  0
VERTEX
  8
Layer_329
 10
8.85064616239
 20
-82.6183735747
 30
0.0
  0
VERTEX
  8
Layer_329
 10
8.77678219334
 20
-83.4626426042
 30
0.0
  0
VERTEX
  8
Layer_329
 10
10.2260948139
 20
-83.5935858005
 30
0.0
  0
VERTEX
  8
Layer_329
 10
10.4415908225
 20
-83.7867345043
 30
0.0
  0
VERTEX
  8
Layer_329
 10
10.195468373
 20
-83.9436476212
 30
0.0
  0
VERTEX
  8
Layer_329
 10
8.74615566534
 20
-83.8127054211
 30
0.0
  0
VERTEX
  8
Layer_329
 10
8.59986919608
 20
-85.4847674159
 30
0.0
  0
VERTEX
  8
Layer_329
 10
8.40260313242
 20
-85.699904206
 30
0.0
  0
VERTEX
  8
Layer_329
 10
8.24980737537
 20
-85.454140975
 30
0.0
  0
VERTEX
  8
Layer_329
 10
8.39609384463
 20
-83.7820789802
 30
0.0
  0
VERTEX
  8
Layer_329
 10
6.52186992233
 20
-83.6222494024
 30
0.0
  0
VERTEX
  8
Layer_329
 10
5.96681875827
 20
-83.8475819644
 30
0.0
  0
VERTEX
  8
Layer_329
 10
5.74196054138
 20
-84.4254964184
 30
0.0
  0
VERTEX
  8
Layer_329
 10
5.80075667977
 20
-84.986728497
 30
0.0
  0
VERTEX
  8
Layer_329
 10
5.92807064477
 20
-85.3340091479
 30
0.0
  0
VERTEX
  8
Layer_329
 10
6.03607861505
 20
-85.6173528712
 30
0.0
  0
VERTEX
  8
Layer_329
 10
5.84869283544
 20
-85.7669554072
 30
0.0
  0
VERTEX
  8
Layer_329
 10
5.48709419711
 20
-85.2041312937
 30
0.0
  0
VERTEX
  8
Layer_329
 10
5.39385409515
 20
-84.4199408018
 30
0.0
  0
VERTEX
  8
Layer_329
 10
5.73273653671
 20
-83.5822577156
 30
0.0
  0
SEQEND
  8
Layer_329
  0
POLYLINE
  8
Layer_329
 62
0
 70
1
 66
1
 10
0.0
 20
0.0
 30
0.0
  0
VERTEX
  8
Layer_329
 10
-0.734888831302
 20
-58.8930079737
 30
0.0
  0
VERTEX
  8
Layer_329
 10
-0.527858405037
 20
-56.4792758849
 30
0.0
  0
VERTEX
  8
Layer_329
 10
-0.334707708825
 20
-56.2637800506
 30
0.0
  0
VERTEX
  8
Layer_329
 10
-0.171514512007
 20
-56.4855531886
 30
0.0
  0
VERTEX
  8
Layer_329
 10
-0.203371826038
 20
-56.8023089922
 30
0.0
  0
VERTEX
  8
Layer_329
 10
3.92324815603
 20
-57.1633414594
 30
0.0
  0
VERTEX
  8
Layer_329
 10
3.94687889424
 20
-56.8458659236
 30
0.0
  0
VERTEX
  8
Layer_329
 10
4.14610332098
 20
-56.6558002191
 30
0.0
  0
VERTEX
  8
Layer_329
 10
4.29889916518
 20
-56.9015624539
 30
0.0
  0
VERTEX
  8
Layer_329
 10
4.11967529826
 20
-58.9027371385
 30
0.0
  0
VERTEX
  8
Layer_329
 10
3.70265003054
 20
-59.8746795258
 30
0.0
  0
VERTEX
  8
Layer_329
 10
2.74425544433
 20
-60.2514717419
 30
0.0
  0
VERTEX
  8
Layer_329
 10
1.77822906274
 20
-59.4822207629
 30
0.0
  0
VERTEX
  8
Layer_329
 10
0.46391044102
 20
-60.4171590697
 30
0.0
  0
VERTEX
  8
Layer_329
 10
0.463884539958
 20
-60.4171568037
 30
0.0
  0
VERTEX
  8
Layer_329
 10
-0.445870679505
 20
-59.9059722001
 30
0.0
  0
SEQEND
  8
Layer_329
  0
POLYLINE
  8
Layer_329
 62
0
 70
1
 66
1
 10
0.0
 20
0.0
 30
0.0
  0
VERTEX
  8
Layer_329
 10
3.77298615072
 20
-58.8807063546
 30
0.0
  0
VERTEX
  8
Layer_329
 10
3.89296997553
 20
-57.5092849615
 30
0.0
  0
VERTEX
  8
Layer_329
 10
2.09735393709
 20
-57.3521889141
 30
0.0
  0
VERTEX
  8
Layer_329
 10
1.99034132716
 20
-58.5753486427
 30
0.0
  0
VERTEX
  8
Layer_329
 10
2.13135409513
 20
-59.4301153606
 30
0.0
  0
VERTEX
  8
Layer_329
 10
2.8036850368
 20
-59.9039278628
 30
0.0
  0
VERTEX
  8
Layer_329
 10
3.48197861628
 20
-59.598079197
 30
0.0
  0
SEQEND
  8
Layer_329
  0
POLYLINE
  8
Layer_329
 62
0
 70
1
 66
1
 10
0.0
 20
0.0
 30
0.0
  0
VERTEX
  8
Layer_329
 10
1.63847700105
 20
-58.5653134591
 30
0.0
  0
VERTEX
  8
Layer_329
 10
1.74729112018
 20
-57.3215623861
 30
0.0
  0
VERTEX
  8
Layer_329
 10
-0.233650006535
 20
-57.1482524944
 30
0.0
  0
VERTEX
  8
Layer_329
 10
-0.386782559387
 20
-58.8985655828
 30
0.0
  0
VERTEX
  8
Layer_329
 10
-0.184305481143
 20
-59.6674123168
 30
0.0
  0
VERTEX
  8
Layer_329
 10
0.48627552639
 20
-60.0663734703
 30
0.0
  0
VERTEX
  8
Layer_329
 10
1.0128076222
 20
-59.9298422235
 30
0.0
  0
SEQEND
  8
Layer_329
  0
POLYLINE
  8
Layer_329
 62
0
 70
1
 66
1
 10
0.0
 20
0.0
 30
0.0
  0
VERTEX
  8
Layer_329
 10
2.91928901429
 20
-62.7567281798
 30
0.0
  0
VERTEX
  8
Layer_329
 10
2.96396757554
 20
-62.2460498879
 30
0.0
  0
VERTEX
  8
Layer_329
 10
3.85765583159
 20
-62.3242374791
 30
0.0
  0
VERTEX
  8
Layer_329
 10
3.81297727034
 20
-62.834915771
 30
0.0
  0
SEQEND
  8
Layer_329
  0
POLYLINE
  8
Layer_329
 62
0
 70
0
 66
1
 10
0.0
 20
0.0
 30
0.0
  0
VERTEX
  8
Layer_329
 10
-0.666384457335
 20
-62.0944299003
 30
0.0
  0
VERTEX
  8
Layer_329
 10
-0.696650683496
 20
-62.4403744483
 30
0.0
  0
VERTEX
  8
Layer_329
 10
-0.7229534151
 20
-62.7410160462
 30
0.0
  0
VERTEX
  8
Layer_329
 10
-0.920221383999
 20
-62.9561516659
 30
0.0
  0
VERTEX
  8
Layer_329
 10
-1.07409813373
 20
-62.7227442377
 30
0.0
  0
VERTEX
  8
Layer_329
 10
-0.990505840676
 20
-61.767279956
 30
0.0
  0
VERTEX
  8
Layer_329
 10
-0.798435962829
 20
-61.5641379322
 30
0.0
  0
VERTEX
  8
Layer_329
 10
-0.641522933093
 20
-61.8102613778
 30
0.0
  0
VERTEX
  8
Layer_329
 10
-0.666384457335
 20
-62.0944299003
 30
0.0
  0
VERTEX
  8
Layer_329
 10
1.77581573468
 20
-62.3080947311
 30
0.0
  0
VERTEX
  8
Layer_329
 10
1.80139777545
 20
-62.0156906671
 30
0.0
  0
VERTEX
  8
Layer_329
 10
1.9986668277
 20
-61.8005541385
 30
0.0
  0
VERTEX
  8
Layer_329
 10
2.15254158504
 20
-62.0339613923
 30
0.0
  0
VERTEX
  8
Layer_329
 10
2.09561232543
 20
-62.6846658071
 30
0.0
  0
VERTEX
  8
Layer_329
 10
-0.696650683496
 20
-62.4403744483
 30
0.0
  0
SEQEND
  8
Layer_329
  0
POLYLINE
  8
Layer_329
 62
0
 70
1
 66
1
 10
0.0
 20
0.0
 30
0.0
  0
VERTEX
  8
Layer_329
 10
-0.375127284736
 20
-65.3111903803
 30
0.0
  0
VERTEX
  8
Layer_329
 10
1.49909572853
 20
-65.4710188747
 30
0.0
  0
VERTEX
  8
Layer_329
 10
1.57295969757
 20
-64.6267498453
 30
0.0
  0
VERTEX
  8
Layer_329
 10
1.77022874982
 20
-64.4116133166
 30
0.0
  0
VERTEX
  8
Layer_329
 10
1.92302251448
 20
-64.6573763733
 30
0.0
  0
VERTEX
  8
Layer_329
 10
1.84915854543
 20
-65.5016454027
 30
0.0
  0
VERTEX
  8
Layer_329
 10
3.29847016979
 20
-65.6325885119
 30
0.0
  0
VERTEX
  8
Layer_329
 10
3.51396518222
 20
-65.8257371285
 30
0.0
  0
VERTEX
  8
Layer_329
 10
3.26784372894
 20
-65.9826503326
 30
0.0
  0
VERTEX
  8
Layer_329
 10
1.81853201743
 20
-65.8517082196
 30
0.0
  0
VERTEX
  8
Layer_329
 10
1.67224537386
 20
-67.5237722068
 30
0.0
  0
VERTEX
  8
Layer_329
 10
1.47497649592
 20
-67.7389067431
 30
0.0
  0
VERTEX
  8
Layer_329
 10
1.32218255695
 20
-67.4931456788
 30
0.0
  0
VERTEX
  8
Layer_329
 10
1.46846920052
 20
-65.8210816916
 30
0.0
  0
VERTEX
  8
Layer_329
 10
-0.405753725582
 20
-65.661252201
 30
0.0
  0
VERTEX
  8
Layer_329
 10
-0.960806969184
 20
-65.8865855848
 30
0.0
  0
VERTEX
  8
Layer_329
 10
-1.18566310653
 20
-66.464499217
 30
0.0
  0
VERTEX
  8
Layer_329
 10
-1.12686796433
 20
-67.0257312085
 30
0.0
  0
VERTEX
  8
Layer_329
 10
-0.999554995524
 20
-67.3730117722
 30
0.0
  0
VERTEX
  8
Layer_329
 10
-0.891546029049
 20
-67.6563555826
 30
0.0
  0
VERTEX
  8
Layer_329
 10
-1.07893180866
 20
-67.8059581187
 30
0.0
  0
VERTEX
  8
Layer_329
 10
-1.44053044699
 20
-67.2431340051
 30
0.0
  0
VERTEX
  8
Layer_329
 10
-1.53376955276
 20
-66.4589436003
 30
0.0
  0
VERTEX
  8
Layer_329
 10
-1.19488711119
 20
-65.6212605142
 30
0.0
  0
SEQEND
  8
Layer_329
  0
POLYLINE
  8
Layer_329
 62
0
 70
1
 66
1
 10
0.0
 20
0.0
 30
0.0
  0
VERTEX
  8
Layer_329
 10
0.142910728753
 20
-69.7305122219
 30
0.0
  0
VERTEX
  8
Layer_329
 10
-1.32735210607
 20
-69.6018808915
 30
0.0
  0
VERTEX
  8
Layer_329
 10
-1.33224762184
 20
-69.705200381
 30
0.0
  0
VERTEX
  8
Layer_329
 10
-1.33822313409
 20
-69.8208757605
 30
0.0
  0
VERTEX
  8
Layer_329
 10
-1.54609506646
 20
-70.1097829068
 30
0.0
  0
VERTEX
  8
Layer_329
 10
-1.69889082351
 20
-69.8640196758
 30
0.0
  0
VERTEX
  8
Layer_329
 10
-1.61782064335
 20
-68.9373832763
 30
0.0
  0
VERTEX
  8
Layer_329
 10
-1.4243096453
 20
-68.7177691731
 30
0.0
  0
VERTEX
  8
Layer_329
 10
-1.26976377981
 20
-69.0383817605
 30
0.0
  0
VERTEX
  8
Layer_329
 10
-1.28360556603
 20
-69.149219139
 30
0.0
  0
VERTEX
  8
Layer_329
 10
-1.29708587991
 20
-69.2559363434
 30
0.0
  0
VERTEX
  8
Layer_329
 10
1.14923357718
 20
-69.4699615633
 30
0.0
  0
VERTEX
  8
Layer_329
 10
1.15448930764
 20
-69.3625248011
 30
0.0
  0
VERTEX
  8
Layer_329
 10
1.15974512524
 20
-69.2550870427
 30
0.0
  0
VERTEX
  8
Layer_329
 10
1.37209653738
 20
-68.9624230127
 30
0.0
  0
VERTEX
  8
Layer_329
 10
1.5248903892
 20
-69.2081850732
 30
0.0
  0
VERTEX
  8
Layer_329
 10
1.46904212227
 20
-69.8465336852
 30
0.0
  0
VERTEX
  8
Layer_329
 10
0.595944214436
 20
-69.7701475161
 30
0.0
  0
VERTEX
  8
Layer_329
 10
1.15224497806
 20
-70.5741006066
 30
0.0
  0
VERTEX
  8
Layer_329
 10
1.41284513221
 20
-71.4849815837
 30
0.0
  0
VERTEX
  8
Layer_329
 10
1.20790840924
 20
-71.977489312
 30
0.0
  0
VERTEX
  8
Layer_329
 10
0.816305465042
 20
-72.2793716199
 30
0.0
  0
VERTEX
  8
Layer_329
 10
0.816293510706
 20
-72.279370574
 30
0.0
  0
VERTEX
  8
Layer_329
 10
0.650939411884
 20
-72.0823081326
 30
0.0
  0
VERTEX
  8
Layer_329
 10
0.850729580823
 20
-71.8383436346
 30
0.0
  0
VERTEX
  8
Layer_329
 10
1.0650872078
 20
-71.4753046599
 30
0.0
  0
VERTEX
  8
Layer_329
 10
0.73411301792
 20
-70.5624185513
 30
0.0
  0
SEQEND
  8
Layer_329
  0
POLYLINE
  8
Layer_329
 62
0
 70
1
 66
1
 10
0.0
 20
0.0
 30
0.0
  0
VERTEX
  8
Layer_329
 10
-2.27882509855
 20
-76.5402802605
 30
0.0
  0
VERTEX
  8
Layer_329
 10
-2.22585924635
 20
-75.9348777995
 30
0.0
  0
VERTEX
  8
Layer_329
 10
-1.77695498769
 20
-75.9741518332
 30
0.0
  0
VERTEX
  8
Layer_329
 10
-2.22222117449
 20
-74.4702786364
 30
0.0
  0
VERTEX
  8
Layer_329
 10
-1.91165270945
 20
-73.6716203256
 30
0.0
  0
VERTEX
  8
Layer_329
 10
-1.13755587345
 20
-73.3617019775
 30
0.0
  0
VERTEX
  8
Layer_329
 10
-0.300745389092
 20
-73.9951522864
 30
0.0
  0
VERTEX
  8
Layer_329
 10
-0.148043805391
 20
-75.0957853475
 30
0.0
  0
VERTEX
  8
Layer_329
 10
-0.351995102952
 20
-76.0988196691
 30
0.0
  0
VERTEX
  8
Layer_329
 10
0.154564920054
 20
-76.1431379285
 30
0.0
  0
VERTEX
  8
Layer_329
 10
0.681354940332
 20
-75.8613845473
 30
0.0
  0
VERTEX
  8
Layer_329
 10
0.872029246776
 20
-75.2472800551
 30
0.0
  0
VERTEX
  8
Layer_329
 10
0.781672555736
 20
-74.4301434993
 30
0.0
  0
VERTEX
  8
Layer_329
 10
0.723496772304
 20
-74.0515615269
 30
0.0
  0
VERTEX
  8
Layer_329
 10
0.892605887637
 20
-73.9211099499
 30
0.0
  0
VERTEX
  8
Layer_329
 10
0.992322794548
 20
-73.9671831735
 30
0.0
  0
VERTEX
  8
Layer_329
 10
1.14043749105
 20
-74.5984774853
 30
0.0
  0
VERTEX
  8
Layer_329
 10
1.18770271288
 20
-75.2914970696
 30
0.0
  0
VERTEX
  8
Layer_329
 10
0.883930400116
 20
-76.1073511391
 30
0.0
  0
VERTEX
  8
Layer_329
 10
0.126820981088
 20
-76.4602526019
 30
0.0
  0
VERTEX
  8
Layer_329
 10
-1.9031805895
 20
-76.2785067093
 30
0.0
  0
VERTEX
  8
Layer_329
 10
-1.93092461562
 20
-76.5956223789
 30
0.0
  0
VERTEX
  8
Layer_329
 10
-2.12603176967
 20
-76.7860482981
 30
0.0
  0
VERTEX
  8
Layer_329
 10
-2.12603133389
 20
-76.7860433171
 30
0.0
  0
SEQEND
  8
Layer_329
  0
POLYLINE
  8
Layer_329
 62
0
 70
1
 66
1
 10
0.0
 20
0.0
 30
0.0
  0
VERTEX
  8
Layer_329
 10
-1.36099887247
 20
-76.0105432778
 30
0.0
  0
VERTEX
  8
Layer_329
 10
-0.673229041494
 20
-76.0707153411
 30
0.0
  0
VERTEX
  8
Layer_329
 10
-0.463922799009
 20
-75.1013498538
 30
0.0
  0
VERTEX
  8
Layer_329
 10
-0.561230590971
 20
-74.2213562797
 30
0.0
  0
VERTEX
  8
Layer_329
 10
-1.16493968489
 20
-73.6747003744
 30
0.0
  0
VERTEX
  8
Layer_329
 10
-1.70387807526
 20
-73.9055924126
 30
0.0
  0
VERTEX
  8
Layer_329
 10
-1.90814386439
 20
-74.4853074669
 30
0.0
  0
SEQEND
  8
Layer_329
  0
POLYLINE
  8
Layer_329
 62
0
 70
1
 66
1
 10
0.0
 20
0.0
 30
0.0
  0
VERTEX
  8
Layer_329
 10
0.882066291365
 20
-79.6387537243
 30
0.0
  0
VERTEX
  8
Layer_329
 10
0.614370844483
 20
-79.6153334074
 30
0.0
  0
VERTEX
  8
Layer_329
 10
0.548794166394
 20
-80.3648782678
 30
0.0
  0
VERTEX
  8
Layer_329
 10
0.355645375415
 20
-80.5803752726
 30
0.0
  0
VERTEX
  8
Layer_329
 10
0.198731349484
 20
-80.3342517398
 30
0.0
  0
VERTEX
  8
Layer_329
 10
0.264308027573
 20
-79.5847068794
 30
0.0
  0
VERTEX
  8
Layer_329
 10
-2.17825194335
 20
-79.3751543403
 30
0.0
  0
VERTEX
  8
Layer_329
 10
-2.20188259441
 20
-79.6926288798
 30
0.0
  0
VERTEX
  8
Layer_329
 10
-2.40110702115
 20
-79.8826945843
 30
0.0
  0
VERTEX
  8
Layer_329
 10
-2.5539027782
 20
-79.6369313533
 30
0.0
  0
VERTEX
  8
Layer_329
 10
-2.47247238334
 20
-78.7061776811
 30
0.0
  0
VERTEX
  8
Layer_329
 10
-2.27932159998
 20
-78.4906808506
 30
0.0
  0
VERTEX
  8
Layer_329
 10
-2.11612840316
 20
-78.7124539886
 30
0.0
  0
VERTEX
  8
Layer_329
 10
-2.14798571719
 20
-79.0292097922
 30
0.0
  0
VERTEX
  8
Layer_329
 10
0.294935601444
 20
-79.2346321082
 30
0.0
  0
VERTEX
  8
Layer_329
 10
0.360512279533
 20
-78.4850872478
 30
0.0
  0
VERTEX
  8
Layer_329
 10
0.557781331783
 20
-78.2699507191
 30
0.0
  0
VERTEX
  8
Layer_329
 10
0.710575096443
 20
-78.5157137758
 30
0.0
  0
VERTEX
  8
Layer_329
 10
0.644998418353
 20
-79.2652586362
 30
0.0
  0
VERTEX
  8
Layer_329
 10
1.59562430072
 20
-79.3567332295
 30
0.0
  0
VERTEX
  8
Layer_329
 10
2.39469852226
 20
-79.8997324126
 30
0.0
  0
VERTEX
  8
Layer_329
 10
2.55604644109
 20
-80.9015259371
 30
0.0
  0
VERTEX
  8
Layer_329
 10
2.42519178959
 20
-81.4959642199
 30
0.0
  0
VERTEX
  8
Layer_329
 10
2.23796572722
 20
-82.0232227713
 30
0.0
  0
VERTEX
  8
Layer_329
 10
2.11456962082
 20
-82.0580747142
 30
0.0
  0
VERTEX
  8
Layer_329
 10
2.11456857495
 20
-82.0580866685
 30
0.0
  0
VERTEX
  8
Layer_329
 10
1.96156928277
 20
-81.8621051327
 30
0.0
  0
VERTEX
  8
Layer_329
 10
2.08145966896
 20
-81.3455566454
 30
0.0
  0
VERTEX
  8
Layer_329
 10
2.20510810935
 20
-80.8334857326
 30
0.0
  0
VERTEX
  8
Layer_329
 10
2.01791692612
 20
-79.9373298021
 30
0.0
  0
VERTEX
  8
Layer_329
 10
1.15012160431
 20
-79.6580607533
 30
0.0
  0
SEQEND
  8
Layer_329
  0
POLYLINE
  8
Layer_329
 62
0
 70
1
 66
1
 10
0.0
 20
0.0
 30
0.0
  0
VERTEX
  8
Layer_329
 10
8.51396186267
 20
-68.1098874345
 30
0.0
  0
VERTEX
  8
Layer_329
 10
9.55147975752
 20
-67.777369747
 30
0.0
  0
VERTEX
  8
Layer_329
 10
10.0515949913
 20
-66.8043972074
 30
0.0
  0
VERTEX
  8
Layer_329
 10
9.7283929291
 20
-65.7552429429
 30
0.0
  0
VERTEX
  8
Layer_329
 10
8.76437852714
 20
-65.2476118622
 30
0.0
  0
VERTEX
  8
Layer_329
 10
7.72310140758
 20
-65.5756538803
 30
0.0
  0
VERTEX
  8
Layer_329
 10
7.22638383897
 20
-66.5572232595
 30
0.0
  0
VERTEX
  8
Layer_329
 10
7.54582802132
 20
-67.6018979571
 30
0.0
  0
SEQEND
  8
Layer_329
  0
ENDBLK
  0
BLOCK
  8
circles_1
  2
FUSION001
 70
0
 10
0.0
 20
0.0
 30
0.0
  3
FUSION001
  0
POLYLINE
  8
circles_1
 62
0
 70
1
 66
1
 10
0.0
 20
0.0
 30
0.0
  0
VERTEX
  8
circles_1
 10
21.0195923383
 20
-100.451010778
 30
1.7590554354
  0
VERTEX
  8
circles_1
 10
16.0029812495
 20
-100.627413261
 30
1.7590554354
  0
VERTEX
  8
circles_1
 10
11.0815180592
 20
-101.148692628
 30
1.7590554354
  0
VERTEX
  8
circles_1
 10
6.26709435944
 20
-102.00295676
 30
1.7590554354
  0
VERTEX
  8
circles_1
 10
1.57160174244
 20
-103.178313535
 30
1.7590554354
  0
VERTEX
  8
circles_1
 10
-2.99306819962
 20
-104.662870832
 30
1.7590554354
  0
VERTEX
  8
circles_1
 10
-7.41502387456
 20
-106.444736531
 30
1.7590554354
  0
VERTEX
  8
circles_1
 10
-11.6823736902
 20
-108.51201851
 30
1.7590554354
  0
VERTEX
  8
circles_1
 10
-15.7832260544
 20
-110.85282465
 30
1.7590554354
  0
VERTEX
  8
circles_1
 10
-19.7056893749
 20
-113.455262828
 30
1.7590554354
  0
VERTEX
  8
circles_1
 10
-23.4378720596
 20
-116.307440925
 30
1.7590554354
  0
VERTEX
  8
circles_1
 10
-26.9678825164
 20
-119.39746682
 30
1.7590554354
  0
VERTEX
  8
circles_1
 10
-30.2838291529
 20
-122.713448391
 30
1.7590554354
  0
VERTEX
  8
circles_1
 10
-33.3738203771
 20
-126.243493518
 30
1.7590554354
  0
VERTEX
  8
circles_1
 10
-36.2259645968
 20
-129.975710079
 30
1.7590554354
  0
VERTEX
  8
circles_1
 10
-38.8283702198
 20
-133.898205956
 30
1.7590554354
  0
VERTEX
  8
circles_1
 10
-41.169145654
 20
-137.999089025
 30
1.7590554354
  0
VERTEX
  8
circles_1
 10
-43.236399307
 20
-142.266467167
 30
1.7590554354
  0
VERTEX
  8
circles_1
 10
-45.0182395869
 20
-146.688448261
 30
1.7590554354
  0
VERTEX
  8
circles_1
 10
-46.5027749014
 20
-151.253140186
 30
1.7590554354
  0
VERTEX
  8
circles_1
 10
-47.6781136582
 20
-155.948650821
 30
1.7590554354
  0
VERTEX
  8
circles_1
 10
-48.5323642654
 20
-160.763088045
 30
1.7590554354
  0
VERTEX
  8
circles_1
 10
-49.0536351306
 20
-165.684559738
 30
1.7590554354
  0
VERTEX
  8
circles_1
 10
-49.2300346617
 20
-170.701173778
 30
1.7590554354
  0
VERTEX
  8
circles_1
 10
-49.0536351306
 20
-175.717791314
 30
1.7590554354
  0
VERTEX
  8
circles_1
 10
-48.5323642654
 20
-180.639266199
 30
1.7590554354
  0
VERTEX
  8
circles_1
 10
-47.6781136582
 20
-185.453706325
 30
1.7590554354
  0
VERTEX
  8
circles_1
 10
-46.5027749014
 20
-190.149219586
 30
1.7590554354
  0
VERTEX
  8
circles_1
 10
-45.0182395869
 20
-194.713913874
 30
1.7590554354
  0
VERTEX
  8
circles_1
 10
-43.236399307
 20
-199.135897083
 30
1.7590554354
  0
VERTEX
  8
circles_1
 10
-41.169145654
 20
-203.403277105
 30
1.7590554354
  0
VERTEX
  8
circles_1
 10
-38.8283702198
 20
-207.504161834
 30
1.7590554354
  0
VERTEX
  8
circles_1
 10
-36.2259645968
 20
-211.426659162
 30
1.7590554354
  0
VERTEX
  8
circles_1
 10
-33.3738203771
 20
-215.158876983
 30
1.7590554354
  0
VERTEX
  8
circles_1
 10
-30.2838291529
 20
-218.688923189
 30
1.7590554354
  0
VERTEX
  8
circles_1
 10
-26.9678825164
 20
-222.004905674
 30
1.7590554354
  0
VERTEX
  8
circles_1
 10
-23.4378720596
 20
-225.09493233
 30
1.7590554354
  0
VERTEX
  8
circles_1
 10
-19.7056893749
 20
-227.94711105
 30
1.7590554354
  0
VERTEX
  8
circles_1
 10
-15.7832260544
 20
-230.549549728
 30
1.7590554354
  0
VERTEX
  8
circles_1
 10
-11.6823736902
 20
-232.890356257
 30
1.7590554354
  0
VERTEX
  8
circles_1
 10
-7.41502387456
 20
-234.957638528
 30
1.7590554354
  0
VERTEX
  8
circles_1
 10
-2.99306819962
 20
-236.739504437
 30
1.7590554354
  0
VERTEX
  8
circles_1
 10
1.57160174244
 20
-238.224061874
 30
1.7590554354
  0
VERTEX
  8
circles_1
 10
6.26709435944
 20
-239.399418734
 30
1.7590554354
  0
VERTEX
  8
circles_1
 10
11.0815180592
 20
-240.253682909
 30
1.7590554354
  0
VERTEX
  8
circles_1
 10
16.0029812495
 20
-240.774962293
 30
1.7590554354
  0
VERTEX
  8
circles_1
 10
21.0195923383
 20
-240.951364778
 30
1.7590554354
  0
VERTEX
  8
circles_1
 10
26.0362098744
 20
-240.774962293
 30
1.7590554354
  0
VERTEX
  8
circles_1
 10
30.957684759
 20
-240.253682909
 30
1.7590554354
  0
VERTEX
  8
circles_1
 10
35.7721248851
 20
-239.399418734
 30
1.7590554354
  0
VERTEX
  8
circles_1
 10
40.4676381458
 20
-238.224061874
 30
1.7590554354
  0
VERTEX
  8
circles_1
 10
45.0323324341
 20
-236.739504437
 30
1.7590554354
  0
VERTEX
  8
circles_1
 10
49.4543156428
 20
-234.957638528
 30
1.7590554354
  0
VERTEX
  8
circles_1
 10
53.7216956651
 20
-232.890356257
 30
1.7590554354
  0
VERTEX
  8
circles_1
 10
57.8225803939
 20
-230.549549728
 30
1.7590554354
  0
VERTEX
  8
circles_1
 10
61.7450777221
 20
-227.94711105
 30
1.7590554354
  0
VERTEX
  8
circles_1
 10
65.4772955429
 20
-225.09493233
 30
1.7590554354
  0
VERTEX
  8
circles_1
 10
69.0073417491
 20
-222.004905674
 30
1.7590554354
  0
VERTEX
  8
circles_1
 10
72.3233242338
 20
-218.688923189
 30
1.7590554354
  0
VERTEX
  8
circles_1
 10
75.4133508899
 20
-215.158876983
 30
1.7590554354
  0
VERTEX
  8
circles_1
 10
78.2655296104
 20
-211.426659162
 30
1.7590554354
  0
VERTEX
  8
circles_1
 10
80.8679682884
 20
-207.504161834
 30
1.7590554354
  0
VERTEX
  8
circles_1
 10
83.2087748168
 20
-203.403277105
 30
1.7590554354
  0
VERTEX
  8
circles_1
 10
85.2760570886
 20
-199.135897083
 30
1.7590554354
  0
VERTEX
  8
circles_1
 10
87.0579229968
 20
-194.713913874
 30
1.7590554354
  0
VERTEX
  8
circles_1
 10
88.5424804344
 20
-190.149219586
 30
1.7590554354
  0
VERTEX
  8
circles_1
 10
89.7178372943
 20
-185.453706325
 30
1.7590554354
  0
VERTEX
  8
circles_1
 10
90.5721014697
 20
-180.639266199
 30
1.7590554354
  0
VERTEX
  8
circles_1
 10
91.0933808533
 20
-175.717791314
 30
1.7590554354
  0
VERTEX
  8
circles_1
 10
91.2697833383
 20
-170.701173778
 30
1.7590554354
  0
VERTEX
  8
circles_1
 10
91.0933808533
 20
-165.684559738
 30
1.7590554354
  0
VERTEX
  8
circles_1
 10
90.5721014697
 20
-160.763088045
 30
1.7590554354
  0
VERTEX
  8
circles_1
 10
89.7178372943
 20
-155.948650821
 30
1.7590554354
  0
VERTEX
  8
circles_1
 10
88.5424804344
 20
-151.253140186
 30
1.7590554354
  0
VERTEX
  8
circles_1
 10
87.0579229968
 20
-146.688448261
 30
1.7590554354
  0
VERTEX
  8
circles_1
 10
85.2760570886
 20
-142.266467167
 30
1.7590554354
  0
VERTEX
  8
circles_1
 10
83.2087748168
 20
-137.999089025
 30
1.7590554354
  0
VERTEX
  8
circles_1
 10
80.8679682884
 20
-133.898205956
 30
1.7590554354
  0
VERTEX
  8
circles_1
 10
78.2655296104
 20
-129.975710079
 30
1.7590554354
  0
VERTEX
  8
circles_1
 10
75.4133508899
 20
-126.243493518
 30
1.7590554354
  0
VERTEX
  8
circles_1
 10
72.3233242338
 20
-122.713448391
 30
1.7590554354
  0
VERTEX
  8
circles_1
 10
69.0073417491
 20
-119.39746682
 30
1.7590554354
  0
VERTEX
  8
circles_1
 10
65.4772955429
 20
-116.307440925
 30
1.7590554354
  0
VERTEX
  8
circles_1
 10
61.7450777221
 20
-113.455262828
 30
1.7590554354
  0
VERTEX
  8
circles_1
 10
57.8225803939
 20
-110.85282465
 30
1.7590554354
  0
VERTEX
  8
circles_1
 10
53.7216956651
 20
-108.51201851
 30
1.7590554354
  0
VERTEX
  8
circles_1
 10
49.4543156428
 20
-106.444736531
 30
1.7590554354
  0
VERTEX
  8
circles_1
 10
45.0323324341
 20
-104.662870832
 30
1.7590554354
  0
VERTEX
  8
circles_1
 10
40.4676381458
 20
-103.178313535
 30
1.7590554354
  0
VERTEX
  8
circles_1
 10
35.7721248851
 20
-102.00295676
 30
1.7590554354
  0
VERTEX
  8
circles_1
 10
30.957684759
 20
-101.148692628
 30
1.7590554354
  0
VERTEX
  8
circles_1
 10
26.0362098744
 20
-100.627413261
 30
1.7590554354
  0
SEQEND
  8
circles_1
  0
POLYLINE
  8
circles_1
 62
0
 70
1
 66
1
 10
0.0
 20
0.0
 30
0.0
  0
VERTEX
  8
circles_1
 10
21.0195923383
 20
-110.200885778
 30
1.7590554354
  0
VERTEX
  8
circles_1
 10
16.0584570494
 20
-110.401485896
 30
1.7590554354
  0
VERTEX
  8
circles_1
 10
11.2076278673
 20
-110.992896904
 30
1.7590554354
  0
VERTEX
  8
circles_1
 10
6.48268796869
 20
-111.959534781
 30
1.7590554354
  0
VERTEX
  8
circles_1
 10
1.89922053031
 20
-113.285815506
 30
1.7590554354
  0
VERTEX
  8
circles_1
 10
-2.52719127106
 20
-114.956155059
 30
1.7590554354
  0
VERTEX
  8
circles_1
 10
-6.78096425869
 20
-116.95496942
 30
1.7590554354
  0
VERTEX
  8
circles_1
 10
-10.8465152558
 20
-119.266674568
 30
1.7590554354
  0
VERTEX
  8
circles_1
 10
-14.7082610857
 20
-121.875686482
 30
1.7590554354
  0
VERTEX
  8
circles_1
 10
-18.3506185716
 20
-124.766421142
 30
1.7590554354
  0
VERTEX
  8
circles_1
 10
-21.7580045367
 20
-127.923294528
 30
1.7590554354
  0
VERTEX
  8
circles_1
 10
-24.9148358043
 20
-131.330722619
 30
1.7590554354
  0
VERTEX
  8
circles_1
 10
-27.8055291977
 20
-134.973121394
 30
1.7590554354
  0
VERTEX
  8
circles_1
 10
-30.4145015401
 20
-138.834906833
 30
1.7590554354
  0
VERTEX
  8
circles_1
 10
-32.7261696547
 20
-142.900494916
 30
1.7590554354
  0
VERTEX
  8
circles_1
 10
-34.7249503648
 20
-147.154301622
 30
1.7590554354
  0
VERTEX
  8
circles_1
 10
-36.3952604937
 20
-151.58074293
 30
1.7590554354
  0
VERTEX
  8
circles_1
 10
-37.7215168646
 20
-156.16423482
 30
1.7590554354
  0
VERTEX
  8
circles_1
 10
-38.6881363007
 20
-160.889193272
 30
1.7590554354
  0
VERTEX
  8
circles_1
 10
-39.2795356253
 20
-165.740034265
 30
1.7590554354
  0
VERTEX
  8
circles_1
 10
-39.4801316617
 20
-170.701173778
 30
1.7590554354
  0
VERTEX
  8
circles_1
 10
-39.2795356253
 20
-175.662313196
 30
1.7590554354
  0
VERTEX
  8
circles_1
 10
-38.6881363007
 20
-180.51314608
 30
1.7590554354
  0
VERTEX
  8
circles_1
 10
-37.7215168646
 20
-185.238089277
 30
1.7590554354
  0
VERTEX
  8
circles_1
 10
-36.3952604937
 20
-189.821559634
 30
1.7590554354
  0
VERTEX
  8
circles_1
 10
-34.7249503648
 20
-194.247973997
 30
1.7590554354
  0
VERTEX
  8
circles_1
 10
-32.7261696547
 20
-198.501749212
 30
1.7590554354
  0
VERTEX
  8
circles_1
 10
-30.4145015401
 20
-202.567302126
 30
1.7590554354
  0
VERTEX
  8
circles_1
 10
-27.8055291977
 20
-206.429049586
 30
1.7590554354
  0
VERTEX
  8
circles_1
 10
-24.9148358043
 20
-210.071408438
 30
1.7590554354
  0
VERTEX
  8
circles_1
 10
-21.7580045367
 20
-213.478795528
 30
1.7590554354
  0
VERTEX
  8
circles_1
 10
-18.3506185716
 20
-216.635627703
 30
1.7590554354
  0
VERTEX
  8
circles_1
 10
-14.7082610857
 20
-219.52632181
 30
1.7590554354
  0
VERTEX
  8
circles_1
 10
-10.8465152558
 20
-222.135294695
 30
1.7590554354
  0
VERTEX
  8
circles_1
 10
-6.78096425869
 20
-224.446963204
 30
1.7590554354
  0
VERTEX
  8
circles_1
 10
-2.52719127106
 20
-226.445744184
 30
1.7590554354
  0
VERTEX
  8
circles_1
 10
1.89922053031
 20
-228.116054482
 30
1.7590554354
  0
VERTEX
  8
circles_1
 10
6.48268796869
 20
-229.442310944
 30
1.7590554354
  0
VERTEX
  8
circles_1
 10
11.2076278673
 20
-230.408930416
 30
1.7590554354
  0
VERTEX
  8
circles_1
 10
16.0584570494
 20
-231.000329745
 30
1.7590554354
  0
VERTEX
  8
circles_1
 10
21.0195923383
 20
-231.200925778
 30
1.7590554354
  0
VERTEX
  8
circles_1
 10
25.9807318516
 20
-231.000329745
 30
1.7590554354
  0
VERTEX
  8
circles_1
 10
30.8315728443
 20
-230.408930416
 30
1.7590554354
  0
VERTEX
  8
circles_1
 10
35.5565312961
 20
-229.442310944
 30
1.7590554354
  0
VERTEX
  8
circles_1
 10
40.1400231863
 20
-228.116054482
 30
1.7590554354
  0
VERTEX
  8
circles_1
 10
44.5664644946
 20
-226.445744184
 30
1.7590554354
  0
VERTEX
  8
circles_1
 10
48.8202712003
 20
-224.446963204
 30
1.7590554354
  0
VERTEX
  8
circles_1
 10
52.8858592831
 20
-222.135294695
 30
1.7590554354
  0
VERTEX
  8
circles_1
 10
56.7476447223
 20
-219.52632181
 30
1.7590554354
  0
VERTEX
  8
circles_1
 10
60.3900434976
 20
-216.635627703
 30
1.7590554354
  0
VERTEX
  8
circles_1
 10
63.7974715883
 20
-213.478795528
 30
1.7590554354
  0
VERTEX
  8
circles_1
 10
66.9543449741
 20
-210.071408438
 30
1.7590554354
  0
VERTEX
  8
circles_1
 10
69.8450796343
 20
-206.429049586
 30
1.7590554354
  0
VERTEX
  8
circles_1
 10
72.4540915486
 20
-202.567302126
 30
1.7590554354
  0
VERTEX
  8
circles_1
 10
74.7657966963
 20
-198.501749212
 30
1.7590554354
  0
VERTEX
  8
circles_1
 10
76.7646110571
 20
-194.247973997
 30
1.7590554354
  0
VERTEX
  8
circles_1
 10
78.4349506103
 20
-189.821559634
 30
1.7590554354
  0
VERTEX
  8
circles_1
 10
79.7612313356
 20
-185.238089277
 30
1.7590554354
  0
VERTEX
  8
circles_1
 10
80.7278692123
 20
-180.51314608
 30
1.7590554354
  0
VERTEX
  8
circles_1
 10
81.3192802201
 20
-175.662313196
 30
1.7590554354
  0
VERTEX
  8
circles_1
 10
81.5198803383
 20
-170.701173778
 30
1.7590554354
  0
VERTEX
  8
circles_1
 10
81.3192802201
 20
-165.740034265
 30
1.7590554354
  0
VERTEX
  8
circles_1
 10
80.7278692123
 20
-160.889193272
 30
1.7590554354
  0
VERTEX
  8
circles_1
 10
79.7612313356
 20
-156.16423482
 30
1.7590554354
  0
VERTEX
  8
circles_1
 10
78.4349506103
 20
-151.58074293
 30
1.7590554354
  0
VERTEX
  8
circles_1
 10
76.7646110571
 20
-147.154301622
 30
1.7590554354
  0
VERTEX
  8
circles_1
 10
74.7657966963
 20
-142.900494916
 30
1.7590554354
  0
VERTEX
  8
circles_1
 10
72.4540915486
 20
-138.834906833
 30
1.7590554354
  0
VERTEX
  8
circles_1
 10
69.8450796343
 20
-134.973121394
 30
1.7590554354
  0
VERTEX
  8
circles_1
 10
66.9543449741
 20
-131.330722619
 30
1.7590554354
  0
VERTEX
  8
circles_1
 10
63.7974715883
 20
-127.923294528
 30
1.7590554354
  0
VERTEX
  8
circles_1
 10
60.3900434976
 20
-124.766421142
 30
1.7590554354
  0
VERTEX
  8
circles_1
 10
56.7476447223
 20
-121.875686482
 30
1.7590554354
  0
VERTEX
  8
circles_1
 10
52.8858592831
 20
-119.266674568
 30
1.7590554354
  0
VERTEX
  8
circles_1
 10
48.8202712003
 20
-116.95496942
 30
1.7590554354
  0
VERTEX
  8
circles_1
 10
44.5664644946
 20
-114.956155059
 30
1.7590554354
  0
VERTEX
  8
circles_1
 10
40.1400231863
 20
-113.285815506
 30
1.7590554354
  0
VERTEX
  8
circles_1
 10
35.5565312961
 20
-111.959534781
 30
1.7590554354
  0
VERTEX
  8
circles_1
 10
30.8315728443
 20
-110.992896904
 30
1.7590554354
  0
VERTEX
  8
circles_1
 10
25.9807318516
 20
-110.401485896
 30
1.7590554354
  0
SEQEND
  8
circles_1
  0
POLYLINE
  8
circles_1
 62
0
 70
1
 66
1
 10
0.0
 20
0.0
 30
0.0
  0
VERTEX
  8
circles_1
 10
21.0195923383
 20
-100.950938778
 30
1.7590554354
  0
VERTEX
  8
circles_1
 10
26.2254867605
 20
-101.142237856
 30
1.7590554354
  0
VERTEX
  8
circles_1
 10
31.3274105089
 20
-101.707147084
 30
1.7590554354
  0
VERTEX
  8
circles_1
 10
36.3118816247
 20
-102.632184457
 30
1.7590554354
  0
VERTEX
  8
circles_1
 10
41.165418149
 20
-103.903867968
 30
1.7590554354
  0
VERTEX
  8
circles_1
 10
45.874538123
 20
-105.508715612
 30
1.7590554354
  0
VERTEX
  8
circles_1
 10
50.4257595878
 20
-107.433245381
 30
1.7590554354
  0
VERTEX
  8
circles_1
 10
54.8056005845
 20
-109.663975271
 30
1.7590554354
  0
VERTEX
  8
circles_1
 10
59.0005791542
 20
-112.187423274
 30
1.7590554354
  0
VERTEX
  8
circles_1
 10
62.9972133382
 20
-114.990107384
 30
1.7590554354
  0
VERTEX
  8
circles_1
 10
66.7820211775
 20
-118.058545596
 30
1.7590554354
  0
VERTEX
  8
circles_1
 10
70.3415207133
 20
-121.379255903
 30
1.7590554354
  0
VERTEX
  8
circles_1
 10
73.6622299867
 20
-124.938756299
 30
1.7590554354
  0
VERTEX
  8
circles_1
 10
76.7306670388
 20
-128.723564777
 30
1.7590554354
  0
VERTEX
  8
circles_1
 10
79.5333499108
 20
-132.720199332
 30
1.7590554354
  0
VERTEX
  8
circles_1
 10
82.0567966438
 20
-136.915177957
 30
1.7590554354
  0
VERTEX
  8
circles_1
 10
84.287525279
 20
-141.295018646
 30
1.7590554354
  0
VERTEX
  8
circles_1
 10
86.2120538574
 20
-145.846239393
 30
1.7590554354
  0
VERTEX
  8
circles_1
 10
87.8169004202
 20
-150.555358191
 30
1.7590554354
  0
VERTEX
  8
circles_1
 10
89.0885830086
 20
-155.408893035
 30
1.7590554354
  0
VERTEX
  8
circles_1
 10
90.0136196636
 20
-160.393361919
 30
1.7590554354
  0
VERTEX
  8
circles_1
 10
90.5785284265
 20
-165.495282835
 30
1.7590554354
  0
VERTEX
  8
circles_1
 10
90.7698273383
 20
-170.701173778
 30
1.7590554354
  0
VERTEX
  8
circles_1
 10
90.5785284265
 20
-175.907064973
 30
1.7590554354
  0
VERTEX
  8
circles_1
 10
90.0136196636
 20
-181.008979441
 30
1.7590554354
  0
VERTEX
  8
circles_1
 10
89.0885830086
 20
-185.993435831
 30
1.7590554354
  0
VERTEX
  8
circles_1
 10
87.8169004202
 20
-190.846952788
 30
1.7590554354
  0
VERTEX
  8
circles_1
 10
86.2120538574
 20
-195.556048958
 30
1.7590554354
  0
VERTEX
  8
circles_1
 10
84.287525279
 20
-200.107242988
 30
1.7590554354
  0
VERTEX
  8
circles_1
 10
82.0567966438
 20
-204.487053523
 30
1.7590554354
  0
VERTEX
  8
circles_1
 10
79.5333499108
 20
-208.681999212
 30
1.7590554354
  0
VERTEX
  8
circles_1
 10
76.7306670388
 20
-212.678598698
 30
1.7590554354
  0
VERTEX
  8
circles_1
 10
73.6622299867
 20
-216.46337063
 30
1.7590554354
  0
VERTEX
  8
circles_1
 10
70.3415207133
 20
-220.022833653
 30
1.7590554354
  0
VERTEX
  8
circles_1
 10
66.7820211775
 20
-223.343506414
 30
1.7590554354
  0
VERTEX
  8
circles_1
 10
62.9972133382
 20
-226.411907558
 30
1.7590554354
  0
VERTEX
  8
circles_1
 10
59.0005791542
 20
-229.214555733
 30
1.7590554354
  0
VERTEX
  8
circles_1
 10
54.8056005845
 20
-231.737969584
 30
1.7590554354
  0
VERTEX
  8
circles_1
 10
50.4257595878
 20
-233.968667759
 30
1.7590554354
  0
VERTEX
  8
circles_1
 10
45.874538123
 20
-235.893168902
 30
1.7590554354
  0
VERTEX
  8
circles_1
 10
41.165418149
 20
-237.497991661
 30
1.7590554354
  0
VERTEX
  8
circles_1
 10
36.3118816247
 20
-238.769654682
 30
1.7590554354
  0
VERTEX
  8
circles_1
 10
31.3274105089
 20
-239.694676611
 30
1.7590554354
  0
VERTEX
  8
circles_1
 10
26.2254867605
 20
-240.259576094
 30
1.7590554354
  0
VERTEX
  8
circles_1
 10
21.0195923383
 20
-240.450871778
 30
1.7590554354
  0
VERTEX
  8
circles_1
 10
15.8137013121
 20
-240.259576094
 30
1.7590554354
  0
VERTEX
  8
circles_1
 10
10.711787327
 20
-239.694676611
 30
1.7590554354
  0
VERTEX
  8
circles_1
 10
5.72733170524
 20
-238.769654682
 30
1.7590554354
  0
VERTEX
  8
circles_1
 10
0.873815768817
 20
-237.497991661
 30
1.7590554354
  0
VERTEX
  8
circles_1
 10
-3.83527916009
 20
-235.893168902
 30
1.7590554354
  0
VERTEX
  8
circles_1
 10
-8.38647175936
 20
-233.968667759
 30
1.7590554354
  0
VERTEX
  8
circles_1
 10
-12.7662807069
 20
-231.737969584
 30
1.7590554354
  0
VERTEX
  8
circles_1
 10
-16.9612246805
 20
-229.214555733
 30
1.7590554354
  0
VERTEX
  8
circles_1
 10
-20.9578223581
 20
-226.411907558
 30
1.7590554354
  0
VERTEX
  8
circles_1
 10
-24.7425924175
 20
-223.343506414
 30
1.7590554354
  0
VERTEX
  8
circles_1
 10
-28.3020535367
 20
-220.022833653
 30
1.7590554354
  0
VERTEX
  8
circles_1
 10
-31.6227243935
 20
-216.46337063
 30
1.7590554354
  0
VERTEX
  8
circles_1
 10
-34.6911236657
 20
-212.678598698
 30
1.7590554354
  0
VERTEX
  8
circles_1
 10
-37.4937700313
 20
-208.681999212
 30
1.7590554354
  0
VERTEX
  8
circles_1
 10
-40.0171821682
 20
-204.487053523
 30
1.7590554354
  0
VERTEX
  8
circles_1
 10
-42.2478787541
 20
-200.107242988
 30
1.7590554354
  0
VERTEX
  8
circles_1
 10
-44.172378467
 20
-195.556048958
 30
1.7590554354
  0
VERTEX
  8
circles_1
 10
-45.7771999848
 20
-190.846952788
 30
1.7590554354
  0
VERTEX
  8
circles_1
 10
-47.0488619852
 20
-185.993435831
 30
1.7590554354
  0
VERTEX
  8
circles_1
 10
-47.9738831463
 20
-181.008979441
 30
1.7590554354
  0
VERTEX
  8
circles_1
 10
-48.5387821458
 20
-175.907064973
 30
1.7590554354
  0
VERTEX
  8
circles_1
 10
-48.7300776617
 20
-170.701173778
 30
1.7590554354
  0
VERTEX
  8
circles_1
 10
-48.5387821458
 20
-165.495282835
 30
1.7590554354
  0
VERTEX
  8
circles_1
 10
-47.9738831463
 20
-160.393361919
 30
1.7590554354
  0
VERTEX
  8
circles_1
 10
-47.0488619852
 20
-155.408893035
 30
1.7590554354
  0
VERTEX
  8
circles_1
 10
-45.7771999848
 20
-150.555358191
 30
1.7590554354
  0
VERTEX
  8
circles_1
 10
-44.172378467
 20
-145.846239393
 30
1.7590554354
  0
VERTEX
  8
circles_1
 10
-42.2478787541
 20
-141.295018646
 30
1.7590554354
  0
VERTEX
  8
circles_1
 10
-40.0171821682
 20
-136.915177957
 30
1.7590554354
  0
VERTEX
  8
circles_1
 10
-37.4937700313
 20
-132.720199332
 30
1.7590554354
  0
VERTEX
  8
circles_1
 10
-34.6911236657
 20
-128.723564777
 30
1.7590554354
  0
VERTEX
  8
circles_1
 10
-31.6227243935
 20
-124.938756299
 30
1.7590554354
  0
VERTEX
  8
circles_1
 10
-28.3020535367
 20
-121.379255903
 30
1.7590554354
  0
VERTEX
  8
circles_1
 10
-24.7425924175
 20
-118.058545596
 30
1.7590554354
  0
VERTEX
  8
circles_1
 10
-20.9578223581
 20
-114.990107384
 30
1.7590554354
  0
VERTEX
  8
circles_1
 10
-16.9612246805
 20
-112.187423274
 30
1.7590554354
  0
VERTEX
  8
circles_1
 10
-12.7662807069
 20
-109.663975271
 30
1.7590554354
  0
VERTEX
  8
circles_1
 10
-8.38647175936
 20
-107.433245381
 30
1.7590554354
  0
VERTEX
  8
circles_1
 10
-3.83527916009
 20
-105.508715612
 30
1.7590554354
  0
VERTEX
  8
circles_1
 10
0.873815768817
 20
-103.903867968
 30
1.7590554354
  0
VERTEX
  8
circles_1
 10
5.72733170524
 20
-102.632184457
 30
1.7590554354
  0
VERTEX
  8
circles_1
 10
10.711787327
 20
-101.707147084
 30
1.7590554354
  0
VERTEX
  8
circles_1
 10
15.8137013121
 20
-101.142237856
 30
1.7590554354
  0
SEQEND
  8
circles_1
  0
POLYLINE
  8
circles_1
 62
0
 70
1
 66
1
 10
0.0
 20
0.0
 30
0.0
  0
VERTEX
  8
circles_1
 10
21.0195923383
 20
-111.201362778
 30
1.7590554354
  0
VERTEX
  8
circles_1
 10
26.1543225289
 20
-111.419715139
 30
1.7590554354
  0
VERTEX
  8
circles_1
 10
31.1676059181
 20
-112.062876011
 30
1.7590554354
  0
VERTEX
  8
circles_1
 10
36.0415972062
 20
-113.113001083
 30
1.7590554354
  0
VERTEX
  8
circles_1
 10
40.7584510932
 20
-114.552246041
 30
1.7590554354
  0
VERTEX
  8
circles_1
 10
45.3003222793
 20
-116.362766572
 30
1.7590554354
  0
VERTEX
  8
circles_1
 10
49.6493654644
 20
-118.526718363
 30
1.7590554354
  0
VERTEX
  8
circles_1
 10
53.7877353488
 20
-121.0262571
 30
1.7590554354
  0
VERTEX
  8
circles_1
 10
57.6975866325
 20
-123.84353847
 30
1.7590554354
  0
VERTEX
  8
circles_1
 10
61.3610740157
 20
-126.960718161
 30
1.7590554354
  0
VERTEX
  8
circles_1
 10
64.7603521984
 20
-130.359951858
 30
1.7590554354
  0
VERTEX
  8
circles_1
 10
67.8775758807
 20
-134.023395249
 30
1.7590554354
  0
VERTEX
  8
circles_1
 10
70.6948997627
 20
-137.933204021
 30
1.7590554354
  0
VERTEX
  8
circles_1
 10
73.1944785446
 20
-142.071533861
 30
1.7590554354
  0
VERTEX
  8
circles_1
 10
75.3584669264
 20
-146.420540455
 30
1.7590554354
  0
VERTEX
  8
circles_1
 10
77.1690196083
 20
-150.96237949
 30
1.7590554354
  0
VERTEX
  8
circles_1
 10
78.6082912903
 20
-155.679206653
 30
1.7590554354
  0
VERTEX
  8
circles_1
 10
79.6584366726
 20
-160.553177631
 30
1.7590554354
  0
VERTEX
  8
circles_1
 10
80.3016104552
 20
-165.56644811
 30
1.7590554354
  0
VERTEX
  8
circles_1
 10
80.5199673383
 20
-170.701173778
 30
1.7590554354
  0
VERTEX
  8
circles_1
 10
80.3016104552
 20
-175.835899671
 30
1.7590554354
  0
VERTEX
  8
circles_1
 10
79.6584366726
 20
-180.849170791
 30
1.7590554354
  0
VERTEX
  8
circles_1
 10
78.6082912903
 20
-185.723142777
 30
1.7590554354
  0
VERTEX
  8
circles_1
 10
77.1690196083
 20
-190.439971267
 30
1.7590554354
  0
VERTEX
  8
circles_1
 10
75.3584669264
 20
-194.981811898
 30
1.7590554354
  0
VERTEX
  8
circles_1
 10
73.1944785446
 20
-199.330820308
 30
1.7590554354
  0
VERTEX
  8
circles_1
 10
70.6948997627
 20
-203.469152136
 30
1.7590554354
  0
VERTEX
  8
circles_1
 10
67.8775758807
 20
-207.378963018
 30
1.7590554354
  0
VERTEX
  8
circles_1
 10
64.7603521984
 20
-211.042408594
 30
1.7590554354
  0
VERTEX
  8
circles_1
 10
61.3610740157
 20
-214.4416445
 30
1.7590554354
  0
VERTEX
  8
circles_1
 10
57.6975866325
 20
-217.558826374
 30
1.7590554354
  0
VERTEX
  8
circles_1
 10
53.7877353488
 20
-220.376109855
 30
1.7590554354
  0
VERTEX
  8
circles_1
 10
49.6493654644
 20
-222.87565058
 30
1.7590554354
  0
VERTEX
  8
circles_1
 10
45.3003222793
 20
-225.039604187
 30
1.7590554354
  0
VERTEX
  8
circles_1
 10
40.7584510932
 20
-226.850126314
 30
1.7590554354
  0
VERTEX
  8
circles_1
 10
36.0415972062
 20
-228.289372599
 30
1.7590554354
  0
VERTEX
  8
circles_1
 10
31.1676059181
 20
-229.339498679
 30
1.7590554354
  0
VERTEX
  8
circles_1
 10
26.1543225289
 20
-229.982660193
 30
1.7590554354
  0
VERTEX
  8
circles_1
 10
21.0195923383
 20
-230.201012778
 30
1.7590554354
  0
VERTEX
  8
circles_1
 10
15.8848664458
 20
-229.982660193
 30
1.7590554354
  0
VERTEX
  8
circles_1
 10
10.8715953253
 20
-229.339498679
 30
1.7590554354
  0
VERTEX
  8
circles_1
 10
5.99762333919
 20
-228.289372599
 30
1.7590554354
  0
VERTEX
  8
circles_1
 10
1.28079484947
 20
-226.850126314
 30
1.7590554354
  0
VERTEX
  8
circles_1
 10
-3.26104578167
 20
-225.039604187
 30
1.7590554354
  0
VERTEX
  8
circles_1
 10
-7.61005419208
 20
-222.87565058
 30
1.7590554354
  0
VERTEX
  8
circles_1
 10
-11.7483860196
 20
-220.376109855
 30
1.7590554354
  0
VERTEX
  8
circles_1
 10
-15.6581969021
 20
-217.558826374
 30
1.7590554354
  0
VERTEX
  8
circles_1
 10
-19.3216424774
 20
-214.4416445
 30
1.7590554354
  0
VERTEX
  8
circles_1
 10
-22.7208783834
 20
-211.042408594
 30
1.7590554354
  0
VERTEX
  8
circles_1
 10
-25.8380602578
 20
-207.378963018
 30
1.7590554354
  0
VERTEX
  8
circles_1
 10
-28.6553437387
 20
-203.469152136
 30
1.7590554354
  0
VERTEX
  8
circles_1
 10
-31.1548844637
 20
-199.330820308
 30
1.7590554354
  0
VERTEX
  8
circles_1
 10
-33.3188380708
 20
-194.981811898
 30
1.7590554354
  0
VERTEX
  8
circles_1
 10
-35.1293601978
 20
-190.439971267
 30
1.7590554354
  0
VERTEX
  8
circles_1
 10
-36.5686064825
 20
-185.723142777
 30
1.7590554354
  0
VERTEX
  8
circles_1
 10
-37.6187325628
 20
-180.849170791
 30
1.7590554354
  0
VERTEX
  8
circles_1
 10
-38.2618940766
 20
-175.835899671
 30
1.7590554354
  0
VERTEX
  8
circles_1
 10
-38.4802466617
 20
-170.701173778
 30
1.7590554354
  0
VERTEX
  8
circles_1
 10
-38.2618940766
 20
-165.56644811
 30
1.7590554354
  0
VERTEX
  8
circles_1
 10
-37.6187325628
 20
-160.553177631
 30
1.7590554354
  0
VERTEX
  8
circles_1
 10
-36.5686064825
 20
-155.679206653
 30
1.7590554354
  0
VERTEX
  8
circles_1
 10
-35.1293601978
 20
-150.96237949
 30
1.7590554354
  0
VERTEX
  8
circles_1
 10
-33.3188380708
 20
-146.420540455
 30
1.7590554354
  0
VERTEX
  8
circles_1
 10
-31.1548844637
 20
-142.071533861
 30
1.7590554354
  0
VERTEX
  8
circles_1
 10
-28.6553437387
 20
-137.933204021
 30
1.7590554354
  0
VERTEX
  8
circles_1
 10
-25.8380602578
 20
-134.023395249
 30
1.7590554354
  0
VERTEX
  8
circles_1
 10
-22.7208783834
 20
-130.359951858
 30
1.7590554354
  0
VERTEX
  8
circles_1
 10
-19.3216424774
 20
-126.960718161
 30
1.7590554354
  0
VERTEX
  8
circles_1
 10
-15.6581969021
 20
-123.84353847
 30
1.7590554354
  0
VERTEX
  8
circles_1
 10
-11.7483860196
 20
-121.0262571
 30
1.7590554354
  0
VERTEX
  8
circles_1
 10
-7.61005419208
 20
-118.526718363
 30
1.7590554354
  0
VERTEX
  8
circles_1
 10
-3.26104578167
 20
-116.362766572
 30
1.7590554354
  0
VERTEX
  8
circles_1
 10
1.28079484947
 20
-114.552246041
 30
1.7590554354
  0
VERTEX
  8
circles_1
 10
5.99762333919
 20
-113.113001083
 30
1.7590554354
  0
VERTEX
  8
circles_1
 10
10.8715953253
 20
-112.062876011
 30
1.7590554354
  0
VERTEX
  8
circles_1
 10
15.8848664458
 20
-111.419715139
 30
1.7590554354
  0
SEQEND
  8
circles_1
  0
POLYLINE
  8
circles_1
 62
0
 70
1
 66
1
 10
0.0
 20
0.0
 30
0.0
  0
VERTEX
  8
circles_1
 10
21.0195923383
 20
-221.701268778
 30
1.7590554354
  0
VERTEX
  8
circles_1
 10
25.9293835697
 20
-221.467688536
 30
1.7590554354
  0
VERTEX
  8
circles_1
 10
30.7075315807
 20
-220.781225143
 30
1.7590554354
  0
VERTEX
  8
circles_1
 10
35.3326203758
 20
-219.663294594
 30
1.7590554354
  0
VERTEX
  8
circles_1
 10
39.7832339593
 20
-218.135312886
 30
1.7590554354
  0
VERTEX
  8
circles_1
 10
44.0379563359
 20
-216.218696017
 30
1.7590554354
  0
VERTEX
  8
circles_1
 10
48.0753715099
 20
-213.934859983
 30
1.7590554354
  0
VERTEX
  8
circles_1
 10
51.8740634859
 20
-211.30522078
 30
1.7590554354
  0
VERTEX
  8
circles_1
 10
55.4126162683
 20
-208.351194406
 30
1.7590554354
  0
VERTEX
  8
circles_1
 10
58.6696138616
 20
-205.094196856
 30
1.7590554354
  0
VERTEX
  8
circles_1
 10
61.6236402703
 20
-201.555644129
 30
1.7590554354
  0
VERTEX
  8
circles_1
 10
64.2532794989
 20
-197.756952221
 30
1.7590554354
  0
VERTEX
  8
circles_1
 10
66.5371155518
 20
-193.719537127
 30
1.7590554354
  0
VERTEX
  8
circles_1
 10
68.4537324336
 20
-189.464814846
 30
1.7590554354
  0
VERTEX
  8
circles_1
 10
69.9817141486
 20
-185.014201374
 30
1.7590554354
  0
VERTEX
  8
circles_1
 10
71.0996447014
 20
-180.389112707
 30
1.7590554354
  0
VERTEX
  8
circles_1
 10
71.7861080965
 20
-175.610964843
 30
1.7590554354
  0
VERTEX
  8
circles_1
 10
72.0196883383
 20
-170.701173778
 30
1.7590554354
  0
VERTEX
  8
circles_1
 10
71.7861080965
 20
-165.791387369
 30
1.7590554354
  0
VERTEX
  8
circles_1
 10
71.0996447014
 20
-161.013243614
 30
1.7590554354
  0
VERTEX
  8
circles_1
 10
69.9817141486
 20
-156.388158544
 30
1.7590554354
  0
VERTEX
  8
circles_1
 10
68.4537324336
 20
-151.937548189
 30
1.7590554354
  0
VERTEX
  8
circles_1
 10
66.5371155518
 20
-147.682828581
 30
1.7590554354
  0
VERTEX
  8
circles_1
 10
64.2532794989
 20
-143.64541575
 30
1.7590554354
  0
VERTEX
  8
circles_1
 10
61.6236402703
 20
-139.846725728
 30
1.7590554354
  0
VERTEX
  8
circles_1
 10
58.6696138616
 20
-136.308174545
 30
1.7590554354
  0
VERTEX
  8
circles_1
 10
55.4126162683
 20
-133.051178233
 30
1.7590554354
  0
VERTEX
  8
circles_1
 10
51.8740634859
 20
-130.097152821
 30
1.7590554354
  0
VERTEX
  8
circles_1
 10
48.0753715099
 20
-127.467514342
 30
1.7590554354
  0
VERTEX
  8
circles_1
 10
44.0379563359
 20
-125.183678827
 30
1.7590554354
  0
VERTEX
  8
circles_1
 10
39.7832339593
 20
-123.267062305
 30
1.7590554354
  0
VERTEX
  8
circles_1
 10
35.3326203758
 20
-121.739080808
 30
1.7590554354
  0
VERTEX
  8
circles_1
 10
30.7075315807
 20
-120.621150368
 30
1.7590554354
  0
VERTEX
  8
circles_1
 10
25.9293835697
 20
-119.934687014
 30
1.7590554354
  0
VERTEX
  8
circles_1
 10
21.0195923383
 20
-119.701106778
 30
1.7590554354
  0
VERTEX
  8
circles_1
 10
16.1098068983
 20
-119.934687014
 30
1.7590554354
  0
VERTEX
  8
circles_1
 10
11.3316749909
 20
-120.621150368
 30
1.7590554354
  0
VERTEX
  8
circles_1
 10
6.70661123532
 20
-121.739080808
 30
1.7590554354
  0
VERTEX
  8
circles_1
 10
2.25603025079
 20
-123.267062305
 30
1.7590554354
  0
VERTEX
  8
circles_1
 10
-1.99865334355
 20
-125.183678827
 30
1.7590554354
  0
VERTEX
  8
circles_1
 10
-6.03602492853
 20
-127.467514342
 30
1.7590554354
  0
VERTEX
  8
circles_1
 10
-9.83466988497
 20
-130.097152821
 30
1.7590554354
  0
VERTEX
  8
circles_1
 10
-13.3731735937
 20
-133.051178233
 30
1.7590554354
  0
VERTEX
  8
circles_1
 10
-16.6301214356
 20
-136.308174545
 30
1.7590554354
  0
VERTEX
  8
circles_1
 10
-19.5840987913
 20
-139.846725728
 30
1.7590554354
  0
VERTEX
  8
circles_1
 10
-22.2136910419
 20
-143.64541575
 30
1.7590554354
  0
VERTEX
  8
circles_1
 10
-24.4974835681
 20
-147.682828581
 30
1.7590554354
  0
VERTEX
  8
circles_1
 10
-26.4140617506
 20
-151.937548189
 30
1.7590554354
  0
VERTEX
  8
circles_1
 10
-27.9420109705
 20
-156.388158544
 30
1.7590554354
  0
VERTEX
  8
circles_1
 10
-29.0599166084
 20
-161.013243614
 30
1.7590554354
  0
VERTEX
  8
circles_1
 10
-29.7463640452
 20
-165.791387369
 30
1.7590554354
  0
VERTEX
  8
circles_1
 10
-29.9799386617
 20
-170.701173778
 30
1.7590554354
  0
VERTEX
  8
circles_1
 10
-29.7463640452
 20
-175.610964843
 30
1.7590554354
  0
VERTEX
  8
circles_1
 10
-29.0599166084
 20
-180.389112707
 30
1.7590554354
  0
VERTEX
  8
circles_1
 10
-27.9420109705
 20
-185.014201374
 30
1.7590554354
  0
VERTEX
  8
circles_1
 10
-26.4140617506
 20
-189.464814846
 30
1.7590554354
  0
VERTEX
  8
circles_1
 10
-24.4974835681
 20
-193.719537127
 30
1.7590554354
  0
VERTEX
  8
circles_1
 10
-22.2136910419
 20
-197.756952221
 30
1.7590554354
  0
VERTEX
  8
circles_1
 10
-19.5840987913
 20
-201.555644129
 30
1.7590554354
  0
VERTEX
  8
circles_1
 10
-16.6301214356
 20
-205.094196856
 30
1.7590554354
  0
VERTEX
  8
circles_1
 10
-13.3731735937
 20
-208.351194406
 30
1.7590554354
  0
VERTEX
  8
circles_1
 10
-9.83466988497
 20
-211.30522078
 30
1.7590554354
  0
VERTEX
  8
circles_1
 10
-6.03602492853
 20
-213.934859983
 30
1.7590554354
  0
VERTEX
  8
circles_1
 10
-1.99865334355
 20
-216.218696017
 30
1.7590554354
  0
VERTEX
  8
circles_1
 10
2.25603025079
 20
-218.135312886
 30
1.7590554354
  0
VERTEX
  8
circles_1
 10
6.70661123532
 20
-219.663294594
 30
1.7590554354
  0
VERTEX
  8
circles_1
 10
11.3316749909
 20
-220.781225143
 30
1.7590554354
  0
VERTEX
  8
circles_1
 10
16.1098068983
 20
-221.467688536
 30
1.7590554354
  0
SEQEND
  8
circles_1
  0
POLYLINE
  8
circles_1
 62
0
 70
1
 66
1
 10
0.0
 20
0.0
 30
0.0
  0
VERTEX
  8
circles_1
 10
21.0195923383
 20
-121.700904778
 30
1.7590554354
  0
VERTEX
  8
circles_1
 10
26.0315140576
 20
-121.953759392
 30
1.7590554354
  0
VERTEX
  8
circles_1
 10
30.8982167953
 20
-122.695937284
 30
1.7590554354
  0
VERTEX
  8
circles_1
 10
35.5951216718
 20
-123.902859528
 30
1.7590554354
  0
VERTEX
  8
circles_1
 10
40.0976498071
 20
-125.5499472
 30
1.7590554354
  0
VERTEX
  8
circles_1
 10
44.3812223212
 20
-127.612621374
 30
1.7590554354
  0
VERTEX
  8
circles_1
 10
48.4212603344
 20
-130.066303124
 30
1.7590554354
  0
VERTEX
  8
circles_1
 10
52.1931849667
 20
-132.886413525
 30
1.7590554354
  0
VERTEX
  8
circles_1
 10
55.6724173383
 20
-136.048373653
 30
1.7590554354
  0
VERTEX
  8
circles_1
 10
58.8343785693
 20
-139.527604582
 30
1.7590554354
  0
VERTEX
  8
circles_1
 10
61.6544897797
 20
-143.299527385
 30
1.7590554354
  0
VERTEX
  8
circles_1
 10
64.1081720898
 20
-147.33956314
 30
1.7590554354
  0
VERTEX
  8
circles_1
 10
66.1708466196
 20
-151.623132919
 30
1.7590554354
  0
VERTEX
  8
circles_1
 10
67.8179344892
 20
-156.125657797
 30
1.7590554354
  0
VERTEX
  8
circles_1
 10
69.0248568188
 20
-160.82255885
 30
1.7590554354
  0
VERTEX
  8
circles_1
 10
69.7670347285
 20
-165.689257152
 30
1.7590554354
  0
VERTEX
  8
circles_1
 10
70.0198893383
 20
-170.701173778
 30
1.7590554354
  0
VERTEX
  8
circles_1
 10
69.7670347285
 20
-175.713088999
 30
1.7590554354
  0
VERTEX
  8
circles_1
 10
69.0248568188
 20
-180.579773714
 30
1.7590554354
  0
VERTEX
  8
circles_1
 10
67.8179344892
 20
-185.276650691
 30
1.7590554354
  0
VERTEX
  8
circles_1
 10
66.1708466196
 20
-189.7791427
 30
1.7590554354
  0
VERTEX
  8
circles_1
 10
64.1081720898
 20
-194.062672507
 30
1.7590554354
  0
VERTEX
  8
circles_1
 10
61.6544897797
 20
-198.102662882
 30
1.7590554354
  0
VERTEX
  8
circles_1
 10
58.8343785693
 20
-201.874536591
 30
1.7590554354
  0
VERTEX
  8
circles_1
 10
55.6724173383
 20
-205.353716403
 30
1.7590554354
  0
VERTEX
  8
circles_1
 10
52.1931849667
 20
-208.515625086
 30
1.7590554354
  0
VERTEX
  8
circles_1
 10
48.4212603344
 20
-211.335685409
 30
1.7590554354
  0
VERTEX
  8
circles_1
 10
44.3812223212
 20
-213.789320139
 30
1.7590554354
  0
VERTEX
  8
circles_1
 10
40.0976498071
 20
-215.851952044
 30
1.7590554354
  0
VERTEX
  8
circles_1
 10
35.5951216718
 20
-217.499003892
 30
1.7590554354
  0
VERTEX
  8
circles_1
 10
30.8982167953
 20
-218.705898452
 30
1.7590554354
  0
VERTEX
  8
circles_1
 10
26.0315140576
 20
-219.448058491
 30
1.7590554354
  0
VERTEX
  8
circles_1
 10
21.0195923383
 20
-219.700906778
 30
1.7590554354
  0
VERTEX
  8
circles_1
 10
16.0076771179
 20
-219.448058491
 30
1.7590554354
  0
VERTEX
  8
circles_1
 10
11.1409924028
 20
-218.705898452
 30
1.7590554354
  0
VERTEX
  8
circles_1
 10
6.44411542498
 20
-217.499003892
 30
1.7590554354
  0
VERTEX
  8
circles_1
 10
1.94162341644
 20
-215.851952044
 30
1.7590554354
  0
VERTEX
  8
circles_1
 10
-2.34190639093
 20
-213.789320139
 30
1.7590554354
  0
VERTEX
  8
circles_1
 10
-6.3818967652
 20
-211.335685409
 30
1.7590554354
  0
VERTEX
  8
circles_1
 10
-10.1537704744
 20
-208.515625086
 30
1.7590554354
  0
VERTEX
  8
circles_1
 10
-13.6329502867
 20
-205.353716403
 30
1.7590554354
  0
VERTEX
  8
circles_1
 10
-16.79485897
 20
-201.874536591
 30
1.7590554354
  0
VERTEX
  8
circles_1
 10
-19.6149192925
 20
-198.102662882
 30
1.7590554354
  0
VERTEX
  8
circles_1
 10
-22.0685540223
 20
-194.062672507
 30
1.7590554354
  0
VERTEX
  8
circles_1
 10
-24.1311859273
 20
-189.7791427
 30
1.7590554354
  0
VERTEX
  8
circles_1
 10
-25.7782377757
 20
-185.276650691
 30
1.7590554354
  0
VERTEX
  8
circles_1
 10
-26.9851323355
 20
-180.579773714
 30
1.7590554354
  0
VERTEX
  8
circles_1
 10
-27.7272923748
 20
-175.713088999
 30
1.7590554354
  0
VERTEX
  8
circles_1
 10
-27.9801406617
 20
-170.701173778
 30
1.7590554354
  0
VERTEX
  8
circles_1
 10
-27.7272923748
 20
-165.689257152
 30
1.7590554354
  0
VERTEX
  8
circles_1
 10
-26.9851323355
 20
-160.82255885
 30
1.7590554354
  0
VERTEX
  8
circles_1
 10
-25.7782377757
 20
-156.125657797
 30
1.7590554354
  0
VERTEX
  8
circles_1
 10
-24.1311859273
 20
-151.623132919
 30
1.7590554354
  0
VERTEX
  8
circles_1
 10
-22.0685540223
 20
-147.33956314
 30
1.7590554354
  0
VERTEX
  8
circles_1
 10
-19.6149192925
 20
-143.299527385
 30
1.7590554354
  0
VERTEX
  8
circles_1
 10
-16.79485897
 20
-139.527604582
 30
1.7590554354
  0
VERTEX
  8
circles_1
 10
-13.6329502867
 20
-136.048373653
 30
1.7590554354
  0
VERTEX
  8
circles_1
 10
-10.1537704744
 20
-132.886413525
 30
1.7590554354
  0
VERTEX
  8
circles_1
 10
-6.3818967652
 20
-130.066303124
 30
1.7590554354
  0
VERTEX
  8
circles_1
 10
-2.34190639093
 20
-127.612621374
 30
1.7590554354
  0
VERTEX
  8
circles_1
 10
1.94162341644
 20
-125.5499472
 30
1.7590554354
  0
VERTEX
  8
circles_1
 10
6.44411542498
 20
-123.902859528
 30
1.7590554354
  0
VERTEX
  8
circles_1
 10
11.1409924028
 20
-122.695937284
 30
1.7590554354
  0
VERTEX
  8
circles_1
 10
16.0076771179
 20
-121.953759392
 30
1.7590554354
  0
SEQEND
  8
circles_1
  0
POLYLINE
  8
circles_1
 62
0
 70
1
 66
1
 10
0.0
 20
0.0
 30
0.0
  0
VERTEX
  8
circles_1
 10
21.0195923383
 20
-129.201298778
 30
1.7590554354
  0
VERTEX
  8
circles_1
 10
16.1830996353
 20
-129.480750313
 30
1.7590554354
  0
VERTEX
  8
circles_1
 10
11.5096224695
 20
-130.298268769
 30
1.7590554354
  0
VERTEX
  8
circles_1
 10
7.03041518416
 20
-131.622599927
 30
1.7590554354
  0
VERTEX
  8
circles_1
 10
2.77673212257
 20
-133.422489565
 30
1.7590554354
  0
VERTEX
  8
circles_1
 10
-1.22017237196
 20
-135.666683463
 30
1.7590554354
  0
VERTEX
  8
circles_1
 10
-4.92904395615
 20
-138.323927399
 30
1.7590554354
  0
VERTEX
  8
circles_1
 10
-8.31862828669
 20
-141.362967153
 30
1.7590554354
  0
VERTEX
  8
circles_1
 10
-11.3576710203
 20
-144.752548504
 30
1.7590554354
  0
VERTEX
  8
circles_1
 10
-14.0149178137
 20
-148.461417231
 30
1.7590554354
  0
VERTEX
  8
circles_1
 10
-16.2591143235
 20
-152.458319113
 30
1.7590554354
  0
VERTEX
  8
circles_1
 10
-18.0590062065
 20
-156.71199993
 30
1.7590554354
  0
VERTEX
  8
circles_1
 10
-19.3833391194
 20
-161.19120546
 30
1.7590554354
  0
VERTEX
  8
circles_1
 10
-20.2008587189
 20
-165.864681483
 30
1.7590554354
  0
VERTEX
  8
circles_1
 10
-20.4803106617
 20
-170.701173778
 30
1.7590554354
  0
VERTEX
  8
circles_1
 10
-20.2008587189
 20
-175.537666481
 30
1.7590554354
  0
VERTEX
  8
circles_1
 10
-19.3833391194
 20
-180.211143647
 30
1.7590554354
  0
VERTEX
  8
circles_1
 10
-18.0590062065
 20
-184.690350932
 30
1.7590554354
  0
VERTEX
  8
circles_1
 10
-16.2591143235
 20
-188.944033994
 30
1.7590554354
  0
VERTEX
  8
circles_1
 10
-14.0149178137
 20
-192.940938488
 30
1.7590554354
  0
VERTEX
  8
circles_1
 10
-11.3576710203
 20
-196.649810073
 30
1.7590554354
  0
VERTEX
  8
circles_1
 10
-8.31862828669
 20
-200.039394403
 30
1.7590554354
  0
VERTEX
  8
circles_1
 10
-4.92904395615
 20
-203.078437137
 30
1.7590554354
  0
VERTEX
  8
circles_1
 10
-1.22017237196
 20
-205.73568393
 30
1.7590554354
  0
VERTEX
  8
circles_1
 10
2.77673212257
 20
-207.97988044
 30
1.7590554354
  0
VERTEX
  8
circles_1
 10
7.03041518416
 20
-209.779772323
 30
1.7590554354
  0
VERTEX
  8
circles_1
 10
11.5096224695
 20
-211.104105236
 30
1.7590554354
  0
VERTEX
  8
circles_1
 10
16.1830996353
 20
-211.921624835
 30
1.7590554354
  0
VERTEX
  8
circles_1
 10
21.0195923383
 20
-212.201076778
 30
1.7590554354
  0
VERTEX
  8
circles_1
 10
25.8560928547
 20
-211.921624835
 30
1.7590554354
  0
VERTEX
  8
circles_1
 10
30.5295918981
 20
-211.104105236
 30
1.7590554354
  0
VERTEX
  8
circles_1
 10
35.0088327811
 20
-209.779772323
 30
1.7590554354
  0
VERTEX
  8
circles_1
 10
39.2625588164
 20
-207.97988044
 30
1.7590554354
  0
VERTEX
  8
circles_1
 10
43.2595133168
 20
-205.73568393
 30
1.7590554354
  0
VERTEX
  8
circles_1
 10
46.9684395949
 20
-203.078437137
 30
1.7590554354
  0
VERTEX
  8
circles_1
 10
50.3580809633
 20
-200.039394403
 30
1.7590554354
  0
VERTEX
  8
circles_1
 10
53.3971807348
 20
-196.649810073
 30
1.7590554354
  0
VERTEX
  8
circles_1
 10
56.0544822221
 20
-192.940938488
 30
1.7590554354
  0
VERTEX
  8
circles_1
 10
58.2987287377
 20
-188.944033994
 30
1.7590554354
  0
VERTEX
  8
circles_1
 10
60.0986635945
 20
-184.690350932
 30
1.7590554354
  0
VERTEX
  8
circles_1
 10
61.4230301051
 20
-180.211143647
 30
1.7590554354
  0
VERTEX
  8
circles_1
 10
62.2405715821
 20
-175.537666481
 30
1.7590554354
  0
VERTEX
  8
circles_1
 10
62.5200313383
 20
-170.701173778
 30
1.7590554354
  0
VERTEX
  8
circles_1
 10
62.2405715821
 20
-165.864681483
 30
1.7590554354
  0
VERTEX
  8
circles_1
 10
61.4230301051
 20
-161.19120546
 30
1.7590554354
  0
VERTEX
  8
circles_1
 10
60.0986635945
 20
-156.71199993
 30
1.7590554354
  0
VERTEX
  8
circles_1
 10
58.2987287377
 20
-152.458319113
 30
1.7590554354
  0
VERTEX
  8
circles_1
 10
56.0544822221
 20
-148.461417231
 30
1.7590554354
  0
VERTEX
  8
circles_1
 10
53.3971807348
 20
-144.752548504
 30
1.7590554354
  0
VERTEX
  8
circles_1
 10
50.3580809633
 20
-141.362967153
 30
1.7590554354
  0
VERTEX
  8
circles_1
 10
46.9684395949
 20
-138.323927399
 30
1.7590554354
  0
VERTEX
  8
circles_1
 10
43.2595133168
 20
-135.666683463
 30
1.7590554354
  0
VERTEX
  8
circles_1
 10
39.2625588164
 20
-133.422489565
 30
1.7590554354
  0
VERTEX
  8
circles_1
 10
35.0088327811
 20
-131.622599927
 30
1.7590554354
  0
VERTEX
  8
circles_1
 10
30.5295918981
 20
-130.298268769
 30
1.7590554354
  0
VERTEX
  8
circles_1
 10
25.8560928547
 20
-129.480750313
 30
1.7590554354
  0
SEQEND
  8
circles_1
  0
POLYLINE
  8
circles_1
 62
0
 70
1
 66
1
 10
0.0
 20
0.0
 30
0.0
  0
VERTEX
  8
circles_1
 10
21.0195923383
 20
-132.201010778
 30
1.7590554354
  0
VERTEX
  8
circles_1
 10
25.8524494976
 20
-132.500692327
 30
1.7590554354
  0
VERTEX
  8
circles_1
 10
30.5051839205
 20
-133.375780329
 30
1.7590554354
  0
VERTEX
  8
circles_1
 10
34.9418607166
 20
-134.790339818
 30
1.7590554354
  0
VERTEX
  8
circles_1
 10
39.1265449956
 20
-136.708435827
 30
1.7590554354
  0
VERTEX
  8
circles_1
 10
43.0233018672
 20
-139.094133388
 30
1.7590554354
  0
VERTEX
  8
circles_1
 10
46.5961964412
 20
-141.911497536
 30
1.7590554354
  0
VERTEX
  8
circles_1
 10
49.8092938272
 20
-145.124593304
 30
1.7590554354
  0
VERTEX
  8
circles_1
 10
52.6266591349
 20
-148.697485724
 30
1.7590554354
  0
VERTEX
  8
circles_1
 10
55.012357474
 20
-152.59423983
 30
1.7590554354
  0
VERTEX
  8
circles_1
 10
56.9304539542
 20
-156.778920655
 30
1.7590554354
  0
VERTEX
  8
circles_1
 10
58.3450136852
 20
-161.215593233
 30
1.7590554354
  0
VERTEX
  8
circles_1
 10
59.2201017766
 20
-165.868322596
 30
1.7590554354
  0
VERTEX
  8
circles_1
 10
59.5197833383
 20
-170.701173778
 30
1.7590554354
  0
VERTEX
  8
circles_1
 10
59.2201017766
 20
-175.534030937
 30
1.7590554354
  0
VERTEX
  8
circles_1
 10
58.3450136852
 20
-180.18676536
 30
1.7590554354
  0
VERTEX
  8
circles_1
 10
56.9304539542
 20
-184.623442156
 30
1.7590554354
  0
VERTEX
  8
circles_1
 10
55.012357474
 20
-188.808126435
 30
1.7590554354
  0
VERTEX
  8
circles_1
 10
52.6266591349
 20
-192.704883307
 30
1.7590554354
  0
VERTEX
  8
circles_1
 10
49.8092938272
 20
-196.277777881
 30
1.7590554354
  0
VERTEX
  8
circles_1
 10
46.5961964412
 20
-199.490875267
 30
1.7590554354
  0
VERTEX
  8
circles_1
 10
43.0233018672
 20
-202.308240575
 30
1.7590554354
  0
VERTEX
  8
circles_1
 10
39.1265449956
 20
-204.693938914
 30
1.7590554354
  0
VERTEX
  8
circles_1
 10
34.9418607166
 20
-206.612035394
 30
1.7590554354
  0
VERTEX
  8
circles_1
 10
30.5051839205
 20
-208.026595125
 30
1.7590554354
  0
VERTEX
  8
circles_1
 10
25.8524494976
 20
-208.901683216
 30
1.7590554354
  0
VERTEX
  8
circles_1
 10
21.0195923383
 20
-209.201364778
 30
1.7590554354
  0
VERTEX
  8
circles_1
 10
16.1867446774
 20
-208.901683216
 30
1.7590554354
  0
VERTEX
  8
circles_1
 10
11.5340366961
 20
-208.026595125
 30
1.7590554354
  0
VERTEX
  8
circles_1
 10
7.09740020404
 20
-206.612035394
 30
1.7590554354
  0
VERTEX
  8
circles_1
 10
2.91276701105
 20
-204.693938914
 30
1.7590554354
  0
VERTEX
  8
circles_1
 10
-0.983931073156
 20
-202.308240575
 30
1.7590554354
  0
VERTEX
  8
circles_1
 10
-4.55676223884
 20
-199.490875267
 30
1.7590554354
  0
VERTEX
  8
circles_1
 10
-7.76979467625
 20
-196.277777881
 30
1.7590554354
  0
VERTEX
  8
circles_1
 10
-10.5870965757
 20
-192.704883307
 30
1.7590554354
  0
VERTEX
  8
circles_1
 10
-12.9727361273
 20
-188.808126435
 30
1.7590554354
  0
VERTEX
  8
circles_1
 10
-14.8907815215
 20
-184.623442156
 30
1.7590554354
  0
VERTEX
  8
circles_1
 10
-16.3053009484
 20
-180.18676536
 30
1.7590554354
  0
VERTEX
  8
circles_1
 10
-17.1803625984
 20
-175.534030937
 30
1.7590554354
  0
VERTEX
  8
circles_1
 10
-17.4800346617
 20
-170.701173778
 30
1.7590554354
  0
VERTEX
  8
circles_1
 10
-17.1803625984
 20
-165.868322596
 30
1.7590554354
  0
VERTEX
  8
circles_1
 10
-16.3053009484
 20
-161.215593233
 30
1.7590554354
  0
VERTEX
  8
circles_1
 10
-14.8907815215
 20
-156.778920655
 30
1.7590554354
  0
VERTEX
  8
circles_1
 10
-12.9727361273
 20
-152.59423983
 30
1.7590554354
  0
VERTEX
  8
circles_1
 10
-10.5870965757
 20
-148.697485724
 30
1.7590554354
  0
VERTEX
  8
circles_1
 10
-7.76979467625
 20
-145.124593304
 30
1.7590554354
  0
VERTEX
  8
circles_1
 10
-4.55676223884
 20
-141.911497536
 30
1.7590554354
  0
VERTEX
  8
circles_1
 10
-0.983931073156
 20
-139.094133388
 30
1.7590554354
  0
VERTEX
  8
circles_1
 10
2.91276701105
 20
-136.708435827
 30
1.7590554354
  0
VERTEX
  8
circles_1
 10
7.09740020404
 20
-134.790339818
 30
1.7590554354
  0
VERTEX
  8
circles_1
 10
11.5340366961
 20
-133.375780329
 30
1.7590554354
  0
VERTEX
  8
circles_1
 10
16.1867446774
 20
-132.500692327
 30
1.7590554354
  0
SEQEND
  8
circles_1
  0
POLYLINE
  8
circles_1
 62
0
 70
1
 66
1
 10
0.0
 20
0.0
 30
0.0
  0
VERTEX
  8
circles_1
 10
21.0195923383
 20
-138.700926778
 30
1.7590554354
  0
VERTEX
  8
circles_1
 10
16.2962145697
 20
-139.048428789
 30
1.7590554354
  0
VERTEX
  8
circles_1
 10
11.7862470821
 20
-140.057719959
 30
1.7590554354
  0
VERTEX
  8
circles_1
 10
7.53950733005
 20
-141.678977991
 30
1.7590554354
  0
VERTEX
  8
circles_1
 10
3.60581276807
 20
-143.86238059
 30
1.7590554354
  0
VERTEX
  8
circles_1
 10
0.0349808507107
 20
-146.558105459
 30
1.7590554354
  0
VERTEX
  8
circles_1
 10
-3.12317096747
 20
-149.716330303
 30
1.7590554354
  0
VERTEX
  8
circles_1
 10
-5.81882523193
 20
-153.287232825
 30
1.7590554354
  0
VERTEX
  8
circles_1
 10
-8.00216448813
 20
-157.22099073
 30
1.7590554354
  0
VERTEX
  8
circles_1
 10
-9.62337128152
 20
-161.467781721
 30
1.7590554354
  0
VERTEX
  8
circles_1
 10
-10.6326281576
 20
-165.977783502
 30
1.7590554354
  0
VERTEX
  8
circles_1
 10
-10.9801176617
 20
-170.701173778
 30
1.7590554354
  0
VERTEX
  8
circles_1
 10
-10.6326281576
 20
-175.424557858
 30
1.7590554354
  0
VERTEX
  8
circles_1
 10
-9.62337128152
 20
-179.934529258
 30
1.7590554354
  0
VERTEX
  8
circles_1
 10
-8.00216448813
 20
-184.181270904
 30
1.7590554354
  0
VERTEX
  8
circles_1
 10
-5.81882523193
 20
-188.114965718
 30
1.7590554354
  0
VERTEX
  8
circles_1
 10
-3.12317096747
 20
-191.685796626
 30
1.7590554354
  0
VERTEX
  8
circles_1
 10
0.0349808507107
 20
-194.84394655
 30
1.7590554354
  0
VERTEX
  8
circles_1
 10
3.60581276807
 20
-197.539598417
 30
1.7590554354
  0
VERTEX
  8
circles_1
 10
7.53950733005
 20
-199.722935148
 30
1.7590554354
  0
VERTEX
  8
circles_1
 10
11.7862470821
 20
-201.34413967
 30
1.7590554354
  0
VERTEX
  8
circles_1
 10
16.2962145697
 20
-202.353394905
 30
1.7590554354
  0
VERTEX
  8
circles_1
 10
21.0195923383
 20
-202.700883778
 30
1.7590554354
  0
VERTEX
  8
circles_1
 10
25.742982614
 20
-202.353394905
 30
1.7590554354
  0
VERTEX
  8
circles_1
 10
30.2529843954
 20
-201.34413967
 30
1.7590554354
  0
VERTEX
  8
circles_1
 10
34.4997753864
 20
-199.722935148
 30
1.7590554354
  0
VERTEX
  8
circles_1
 10
38.433533291
 20
-197.539598417
 30
1.7590554354
  0
VERTEX
  8
circles_1
 10
42.0044358131
 20
-194.84394655
 30
1.7590554354
  0
VERTEX
  8
circles_1
 10
45.1626606569
 20
-191.685796626
 30
1.7590554354
  0
VERTEX
  8
circles_1
 10
47.8583855261
 20
-188.114965718
 30
1.7590554354
  0
VERTEX
  8
circles_1
 10
50.0417881249
 20
-184.181270904
 30
1.7590554354
  0
VERTEX
  8
circles_1
 10
51.6630461572
 20
-179.934529258
 30
1.7590554354
  0
VERTEX
  8
circles_1
 10
52.672337327
 20
-175.424557858
 30
1.7590554354
  0
VERTEX
  8
circles_1
 10
53.0198393383
 20
-170.701173778
 30
1.7590554354
  0
VERTEX
  8
circles_1
 10
52.672337327
 20
-165.977783502
 30
1.7590554354
  0
VERTEX
  8
circles_1
 10
51.6630461572
 20
-161.467781721
 30
1.7590554354
  0
VERTEX
  8
circles_1
 10
50.0417881249
 20
-157.22099073
 30
1.7590554354
  0
VERTEX
  8
circles_1
 10
47.8583855261
 20
-153.287232825
 30
1.7590554354
  0
VERTEX
  8
circles_1
 10
45.1626606569
 20
-149.716330303
 30
1.7590554354
  0
VERTEX
  8
circles_1
 10
42.0044358131
 20
-146.558105459
 30
1.7590554354
  0
VERTEX
  8
circles_1
 10
38.433533291
 20
-143.86238059
 30
1.7590554354
  0
VERTEX
  8
circles_1
 10
34.4997753864
 20
-141.678977991
 30
1.7590554354
  0
VERTEX
  8
circles_1
 10
30.2529843954
 20
-140.057719959
 30
1.7590554354
  0
VERTEX
  8
circles_1
 10
25.742982614
 20
-139.048428789
 30
1.7590554354
  0
SEQEND
  8
circles_1
  0
POLYLINE
  8
circles_1
 62
0
 70
1
 66
1
 10
0.0
 20
0.0
 30
0.0
  0
VERTEX
  8
circles_1
 10
21.0195923383
 20
-142.701088778
 30
1.7590554354
  0
VERTEX
  8
circles_1
 10
26.0588665839
 20
-143.15142969
 30
1.7590554354
  0
VERTEX
  8
circles_1
 10
30.7992588952
 20
-144.450122002
 30
1.7590554354
  0
VERTEX
  8
circles_1
 10
35.1622736346
 20
-146.518670074
 30
1.7590554354
  0
VERTEX
  8
circles_1
 10
39.0694151641
 20
-149.278578271
 30
1.7590554354
  0
VERTEX
  8
circles_1
 10
42.4421878459
 20
-152.651350952
 30
1.7590554354
  0
VERTEX
  8
circles_1
 10
45.202096042
 20
-156.558492482
 30
1.7590554354
  0
VERTEX
  8
circles_1
 10
47.2706441147
 20
-160.921507221
 30
1.7590554354
  0
VERTEX
  8
circles_1
 10
48.5693364261
 20
-165.661899533
 30
1.7590554354
  0
VERTEX
  8
circles_1
 10
49.0196773383
 20
-170.701173778
 30
1.7590554354
  0
VERTEX
  8
circles_1
 10
48.5693364261
 20
-175.740455398
 30
1.7590554354
  0
VERTEX
  8
circles_1
 10
47.2706441147
 20
-180.480851627
 30
1.7590554354
  0
VERTEX
  8
circles_1
 10
45.202096042
 20
-184.843867519
 30
1.7590554354
  0
VERTEX
  8
circles_1
 10
42.4421878459
 20
-188.751008126
 30
1.7590554354
  0
VERTEX
  8
circles_1
 10
39.0694151641
 20
-192.123778504
 30
1.7590554354
  0
VERTEX
  8
circles_1
 10
35.1622736346
 20
-194.883683704
 30
1.7590554354
  0
VERTEX
  8
circles_1
 10
30.7992588952
 20
-196.952228781
 30
1.7590554354
  0
VERTEX
  8
circles_1
 10
26.0588665839
 20
-198.250918788
 30
1.7590554354
  0
VERTEX
  8
circles_1
 10
21.0195923383
 20
-198.701258778
 30
1.7590554354
  0
VERTEX
  8
circles_1
 10
15.9803374343
 20
-198.250918788
 30
1.7590554354
  0
VERTEX
  8
circles_1
 10
11.2399969583
 20
-196.952228781
 30
1.7590554354
  0
VERTEX
  8
circles_1
 10
6.87705726424
 20
-194.883683704
 30
1.7590554354
  0
VERTEX
  8
circles_1
 10
2.97000470594
 20
-192.123778504
 30
1.7590554354
  0
VERTEX
  8
circles_1
 10
-0.402674362646
 20
-188.751008126
 30
1.7590554354
  0
VERTEX
  8
circles_1
 10
-3.16249358761
 20
-184.843867519
 30
1.7590554354
  0
VERTEX
  8
circles_1
 10
-5.23096661505
 20
-180.480851627
 30
1.7590554354
  0
VERTEX
  8
circles_1
 10
-6.52960709104
 20
-175.740455398
 30
1.7590554354
  0
VERTEX
  8
circles_1
 10
-6.97992866169
 20
-170.701173778
 30
1.7590554354
  0
VERTEX
  8
circles_1
 10
-6.52960709104
 20
-165.661899533
 30
1.7590554354
  0
VERTEX
  8
circles_1
 10
-5.23096661505
 20
-160.921507221
 30
1.7590554354
  0
VERTEX
  8
circles_1
 10
-3.16249358761
 20
-156.558492482
 30
1.7590554354
  0
VERTEX
  8
circles_1
 10
-0.402674362646
 20
-152.651350952
 30
1.7590554354
  0
VERTEX
  8
circles_1
 10
2.97000470594
 20
-149.278578271
 30
1.7590554354
  0
VERTEX
  8
circles_1
 10
6.87705726424
 20
-146.518670074
 30
1.7590554354
  0
VERTEX
  8
circles_1
 10
11.2399969583
 20
-144.450122002
 30
1.7590554354
  0
VERTEX
  8
circles_1
 10
15.9803374343
 20
-143.15142969
 30
1.7590554354
  0
SEQEND
  8
circles_1
  0
POLYLINE
  8
circles_1
 62
0
 70
1
 66
1
 10
0.0
 20
0.0
 30
0.0
  0
VERTEX
  8
circles_1
 10
21.0195923383
 20
-148.201119778
 30
1.7590554354
  0
VERTEX
  8
circles_1
 10
16.4935856078
 20
-148.659457253
 30
1.7590554354
  0
VERTEX
  8
circles_1
 10
12.2741551821
 20
-149.973455887
 30
1.7590554354
  0
VERTEX
  8
circles_1
 10
8.45280820941
 20
-152.051594999
 30
1.7590554354
  0
VERTEX
  8
circles_1
 10
5.12105183831
 20
-154.802353903
 30
1.7590554354
  0
VERTEX
  8
circles_1
 10
2.37039321722
 20
-158.134211917
 30
1.7590554354
  0
VERTEX
  8
circles_1
 10
0.292339494564
 20
-161.955648356
 30
1.7590554354
  0
VERTEX
  8
circles_1
 10
-1.02160218122
 20
-166.175142538
 30
1.7590554354
  0
VERTEX
  8
circles_1
 10
-1.47992466169
 20
-170.701173778
 30
1.7590554354
  0
VERTEX
  8
circles_1
 10
-1.02161022028
 20
-175.227213057
 30
1.7590554354
  0
VERTEX
  8
circles_1
 10
0.292327682064
 20
-179.446711012
 30
1.7590554354
  0
VERTEX
  8
circles_1
 10
2.37038091253
 20
-183.268147944
 30
1.7590554354
  0
VERTEX
  8
circles_1
 10
5.12104133831
 20
-186.600004153
 30
1.7590554354
  0
VERTEX
  8
circles_1
 10
8.4528008266
 20
-189.35075994
 30
1.7590554354
  0
VERTEX
  8
circles_1
 10
12.2741512446
 20
-191.428895606
 30
1.7590554354
  0
VERTEX
  8
circles_1
 10
16.4935844594
 20
-192.742891452
 30
1.7590554354
  0
VERTEX
  8
circles_1
 10
21.0195923383
 20
-193.201227778
 30
1.7590554354
  0
VERTEX
  8
circles_1
 10
25.5456316176
 20
-192.742891452
 30
1.7590554354
  0
VERTEX
  8
circles_1
 10
29.7651295727
 20
-191.428895606
 30
1.7590554354
  0
VERTEX
  8
circles_1
 10
33.5865665043
 20
-189.35075994
 30
1.7590554354
  0
VERTEX
  8
circles_1
 10
36.9184227133
 20
-186.600004153
 30
1.7590554354
  0
VERTEX
  8
circles_1
 10
39.6691785004
 20
-183.268147944
 30
1.7590554354
  0
VERTEX
  8
circles_1
 10
41.7473141664
 20
-179.446711012
 30
1.7590554354
  0
VERTEX
  8
circles_1
 10
43.0613100121
 20
-175.227213057
 30
1.7590554354
  0
VERTEX
  8
circles_1
 10
43.5196463383
 20
-170.701173778
 30
1.7590554354
  0
VERTEX
  8
circles_1
 10
43.0613100121
 20
-166.175142538
 30
1.7590554354
  0
VERTEX
  8
circles_1
 10
41.7473141664
 20
-161.955648356
 30
1.7590554354
  0
VERTEX
  8
circles_1
 10
39.6691785004
 20
-158.134211917
 30
1.7590554354
  0
VERTEX
  8
circles_1
 10
36.9184227133
 20
-154.802353903
 30
1.7590554354
  0
VERTEX
  8
circles_1
 10
33.5865665043
 20
-152.051594999
 30
1.7590554354
  0
VERTEX
  8
circles_1
 10
29.7651295727
 20
-149.973455887
 30
1.7590554354
  0
VERTEX
  8
circles_1
 10
25.5456316176
 20
-148.659457253
 30
1.7590554354
  0
SEQEND
  8
circles_1
  0
POLYLINE
  8
circles_1
 62
0
 70
1
 66
1
 10
0.0
 20
0.0
 30
0.0
  0
VERTEX
  8
circles_1
 10
21.0195923383
 20
-153.201194778
 30
1.7590554354
  0
VERTEX
  8
circles_1
 10
25.6821049726
 20
-153.82425431
 30
1.7590554354
  0
VERTEX
  8
circles_1
 10
29.8654757457
 20
-155.583873704
 30
1.7590554354
  0
VERTEX
  8
circles_1
 10
33.4053344633
 20
-158.315714153
 30
1.7590554354
  0
VERTEX
  8
circles_1
 10
36.1373109309
 20
-161.855436852
 30
1.7590554354
  0
VERTEX
  8
circles_1
 10
37.8970349541
 20
-166.038702996
 30
1.7590554354
  0
VERTEX
  8
circles_1
 10
38.5201363383
 20
-170.701173778
 30
1.7590554354
  0
VERTEX
  8
circles_1
 10
37.8970349541
 20
-175.363654283
 30
1.7590554354
  0
VERTEX
  8
circles_1
 10
36.1373109309
 20
-179.546923148
 30
1.7590554354
  0
VERTEX
  8
circles_1
 10
33.4053344633
 20
-183.086643903
 30
1.7590554354
  0
VERTEX
  8
circles_1
 10
29.8654757457
 20
-185.818480074
 30
1.7590554354
  0
VERTEX
  8
circles_1
 10
25.6821049726
 20
-187.57809519
 30
1.7590554354
  0
VERTEX
  8
circles_1
 10
21.0195923383
 20
-188.201152778
 30
1.7590554354
  0
VERTEX
  8
circles_1
 10
16.3571215559
 20
-187.57809519
 30
1.7590554354
  0
VERTEX
  8
circles_1
 10
12.1738554124
 20
-185.818480074
 30
1.7590554354
  0
VERTEX
  8
circles_1
 10
8.63413271331
 20
-183.086643903
 30
1.7590554354
  0
VERTEX
  8
circles_1
 10
5.90229226424
 20
-179.546923148
 30
1.7590554354
  0
VERTEX
  8
circles_1
 10
4.14267287072
 20
-175.363654283
 30
1.7590554354
  0
VERTEX
  8
circles_1
 10
3.51961333831
 20
-170.701173778
 30
1.7590554354
  0
VERTEX
  8
circles_1
 10
4.14267287072
 20
-166.038702996
 30
1.7590554354
  0
VERTEX
  8
circles_1
 10
5.90229226424
 20
-161.855436852
 30
1.7590554354
  0
VERTEX
  8
circles_1
 10
8.63413271331
 20
-158.315714153
 30
1.7590554354
  0
VERTEX
  8
circles_1
 10
12.1738554124
 20
-155.583873704
 30
1.7590554354
  0
VERTEX
  8
circles_1
 10
16.3571215559
 20
-153.82425431
 30
1.7590554354
  0
SEQEND
  8
circles_1
  0
ENDBLK
  0
BLOCK
  8
0
  2
POCKET001_CS003
 70
0
 10
0.0
 20
0.0
 30
0.0
  3
POCKET001_CS003
  0
POLYLINE
  8
0
 62
0
 70
1
 66
1
 10
0.0
 20
0.0
 30
0.0
  0
VERTEX
  8
0
 10
-42.4112
 20
-4.4408920985e-15
 30
1.5
  0
VERTEX
  8
0
 10
-43.6207
 20
-31.48
 30
1.5
 42
-0.0972894746832
  0
VERTEX
  8
0
 10
-54.4234
 20
-111.6286
 30
1.5
 42
0.173796433623
  0
VERTEX
  8
0
 10
-39.0538
 20
-249.601283661
 30
1.5
 42
0.659841099501
  0
VERTEX
  8
0
 10
44.7838
 20
-235.487483661
 30
1.5
 42
0.184858473601
  0
VERTEX
  8
0
 10
35.5766
 20
-119.478119
 30
1.5
 42
-0.129606066797
  0
VERTEX
  8
0
 10
30.2693335937
 20
-55.019219
 30
1.5
 42
0.114579194554
  0
VERTEX
  8
0
 10
38.0
 20
2.83521
 30
1.5
 42
1.06076766207
  0
SEQEND
  8
0
  0
CIRCLE
  8
0
 62
0
 10
0.0
 20
0.0
 30
1.5
 40
26.0
  0
CIRCLE
  8
0
 62
0
 10
0.0
 20
30.0520382004
 30
1.5
 40
1.375
  0
CIRCLE
  8
0
 62
0
 10
-30.0520382005
 20
1.89999127542e-11
 30
1.5
 40
1.375
  0
CIRCLE
  8
0
 62
0
 10
0.0
 20
-30.0520382004
 30
1.5
 40
1.375
  0
CIRCLE
  8
0
 62
0
 10
30.0520382004
 20
-1.8e-11
 30
1.5
 40
1.375
  0
CIRCLE
  8
0
 62
0
 10
21.0
 20
-170.713209799
 30
1.5
 40
22.0
  0
ENDBLK
  0
ENDSEC
  0
SECTION
  2
ENTITIES
  0
INSERT
  2
FUSION
  8
0
 10
0.0
 20
0.0
 30
0.0
  0
INSERT
  2
FUSION001
  8
0
 10
0.0
 20
0.0
 30
0.0
  0
INSERT
  2
POCKET001_CS003
  8
0
 10
0.0
 20
0.0
 30
0.0
  0
ENDSEC
  0
EOF
