<?xml version="1.0" encoding="UTF-8" standalone="no"?>
<!-- Created with Inkscape (http://www.inkscape.org/) -->

<svg
   xmlns:dc="http://purl.org/dc/elements/1.1/"
   xmlns:cc="http://creativecommons.org/ns#"
   xmlns:rdf="http://www.w3.org/1999/02/22-rdf-syntax-ns#"
   xmlns:svg="http://www.w3.org/2000/svg"
   xmlns="http://www.w3.org/2000/svg"
   xmlns:sodipodi="http://sodipodi.sourceforge.net/DTD/sodipodi-0.dtd"
   xmlns:inkscape="http://www.inkscape.org/namespaces/inkscape"
   width="210mm"
   height="297mm"
   viewBox="0 0 744.09448819 1052.3622047"
   id="svg4632"
   version="1.1"
   inkscape:version="0.91 r13725"
   sodipodi:docname="sko-signature.svg">
  <defs
     id="defs4634" />
  <sodipodi:namedview
     id="base"
     pagecolor="#ffffff"
     bordercolor="#666666"
     borderopacity="1.0"
     inkscape:pageopacity="0.0"
     inkscape:pageshadow="2"
     inkscape:zoom="4.0344339"
     inkscape:cx="332.85608"
     inkscape:cy="580.87556"
     inkscape:document-units="px"
     inkscape:current-layer="layer1"
     showgrid="false" />
  <metadata
     id="metadata4637">
    <rdf:RDF>
      <cc:Work
         rdf:about="">
        <dc:format>image/svg+xml</dc:format>
        <dc:type
           rdf:resource="http://purl.org/dc/dcmitype/StillImage" />
      </cc:Work>
    </rdf:RDF>
  </metadata>
  <g
     inkscape:label="Layer 1"
     inkscape:groupmode="layer"
     id="layer1">
    <path
       transform="matrix(1,0,0.26333148,0.96470541,0,0)"
       style="color:#000000;clip-rule:nonzero;display:inline;overflow:visible;visibility:visible;opacity:1;isolation:auto;mix-blend-mode:normal;color-interpolation:sRGB;color-interpolation-filters:linearRGB;solid-color:#000000;solid-opacity:1;fill:none;fill-opacity:1;fill-rule:nonzero;stroke:#000000;stroke-width:0.65093106;stroke-linecap:butt;stroke-linejoin:miter;stroke-miterlimit:4;stroke-dasharray:none;stroke-dashoffset:0;stroke-opacity:1;color-rendering:auto;image-rendering:auto;shape-rendering:auto;text-rendering:auto;enable-background:accumulate"
       d="m 106.85301,442.0415 152.66912,0 0,66.11296 -152.66912,0 z"
       id="rect5180" />
    <g
       id="g5194"
       transform="matrix(-0.60698297,0,0,-0.60698297,486.49596,678.8734)">
      <g
         style="font-style:normal;font-variant:normal;font-weight:normal;font-stretch:normal;font-size:39.9990654px;line-height:100%;font-family:'Serto Mardin';-inkscape-font-specification:'Serto Mardin';text-align:center;letter-spacing:0px;word-spacing:0px;writing-mode:lr-tb;text-anchor:middle;fill:#000000;fill-opacity:1;stroke:none;stroke-width:1px;stroke-linecap:butt;stroke-linejoin:miter;stroke-opacity:1"
         id="text5182">
        <path
           d="m 228.93062,352.31544 q 0,1.01359 -1.27906,1.01359 l -5.5989,0 q -1.27906,0 -1.27906,-1.01359 0,-1.03773 1.35146,-1.03773 l 1.71346,0 0,-24.18146 -0.4344,0 -7.65022,17.7379 -2.31679,0 -7.79502,-17.7379 -0.38613,0 0,24.18146 1.71345,0 q 1.35146,0 1.35146,1.03773 0,1.01359 -1.27906,1.01359 l -5.5989,0 q -1.27906,0 -1.27906,-1.01359 0,-1.03773 1.35146,-1.03773 l 1.71346,0 0,-24.18146 -1.71346,0 q -1.35146,0 -1.35146,-1.03773 0,-1.01359 1.35146,-1.01359 l 5.40584,0.0241 7.67435,17.47244 7.55369,-17.47244 5.42997,-0.0241 q 1.35146,0 1.35146,1.01359 0,1.03773 -1.35146,1.03773 l -1.71345,0 0,24.18146 1.71345,0 q 1.35146,0 1.35146,1.03773 z"
           style="font-style:normal;font-variant:normal;font-weight:bold;font-stretch:normal;font-size:49.4247818px;line-height:100%;font-family:'Serto Urhoy';-inkscape-font-specification:'Serto Urhoy, Bold';text-align:center;writing-mode:lr-tb;text-anchor:middle"
           id="path5269"
           inkscape:connector-curvature="0" />
        <path
           d="m 256.61139,352.29131 q 0,1.01359 -1.35145,1.01359 l -3.54758,0 0,-2.63052 q -3.98198,3.35452 -8.51902,3.35452 -2.87185,0 -4.80251,-1.39973 -2.19612,-1.59279 -2.19612,-4.34397 0,-3.37865 3.25798,-5.18864 2.63052,-1.44799 6.3229,-1.44799 2.60639,0 5.93677,0.67573 l 0,-2.96839 q 0,-1.93065 -1.90653,-2.92011 -1.52039,-0.7964 -3.66824,-0.7964 -1.42386,0 -4.70597,0.9412 -1.76173,0.53093 -2.17199,0.53093 -0.84466,0 -0.84466,-0.91706 0,-0.33787 0.21719,-0.60333 0.41027,-0.5068 3.59585,-1.18253 2.92012,-0.62746 4.00611,-0.62746 2.82358,0 4.89904,1.35146 2.43745,1.56865 2.43745,4.2233 l -0.0241,11.89767 1.85825,0 q 1.20666,0.1448 1.20666,1.03773 z m -4.89903,-4.05438 0,-4.03024 q -2.50986,-0.724 -5.7437,-0.724 -2.84772,0 -5.06798,1.0136 -2.87185,1.30319 -2.87185,3.78891 0,1.95479 1.61693,3.01665 1.37559,0.89292 3.47518,0.89292 4.46464,0 8.59142,-3.95784 z"
           style="font-style:normal;font-variant:normal;font-weight:bold;font-stretch:normal;font-size:49.4247818px;line-height:100%;font-family:'Serto Urhoy';-inkscape-font-specification:'Serto Urhoy, Bold';text-align:center;writing-mode:lr-tb;text-anchor:middle"
           id="path5271"
           inkscape:connector-curvature="0" />
        <path
           d="m 287.52602,352.29131 q 0,1.01359 -1.35146,1.01359 l -3.74065,0 0,-3.20971 q -3.11318,4.2957 -8.37422,4.2957 -4.24744,0 -7.23996,-2.94424 -2.96838,-2.94425 -2.96838,-7.1917 0,-4.22331 2.96838,-7.16756 2.99252,-2.94425 7.23996,-2.94425 5.23691,0 8.35009,4.27158 l 0.0241,-13.20086 -1.85825,0 q -1.20666,-0.1448 -1.20666,-1.03772 0,-1.0136 1.35145,-1.0136 l 3.74065,0.0241 0,28.06691 1.85826,0 q 1.20666,0.1448 1.20666,1.03773 z m -5.06798,-8.03636 q 0,-3.45104 -2.46158,-5.86436 -2.46159,-2.41332 -5.91263,-2.41332 -3.47518,0 -5.93677,2.41332 -2.46159,2.38918 -2.46159,5.86436 0,3.47518 2.43746,5.8885 2.46158,2.38919 5.9609,2.38919 3.47518,0 5.91263,-2.38919 2.46158,-2.41332 2.46158,-5.8885 z"
           style="font-style:normal;font-variant:normal;font-weight:bold;font-stretch:normal;font-size:49.4247818px;line-height:100%;font-family:'Serto Urhoy';-inkscape-font-specification:'Serto Urhoy, Bold';text-align:center;writing-mode:lr-tb;text-anchor:middle"
           id="path5273"
           inkscape:connector-curvature="0" />
        <path
           d="m 314.0484,350.28825 q 0,1.35146 -4.05438,2.77532 -2.72705,0.94119 -5.47823,0.94119 -4.58531,0 -7.79502,-2.99251 -3.20972,-3.01665 -3.20972,-7.55369 0,-4.17504 3.06492,-6.9745 2.99251,-2.72705 7.19169,-2.72705 4.58531,0 7.43302,2.96839 2.84772,2.96838 2.79945,7.55369 l -18.63082,0 q 0.48266,3.59584 2.99251,5.7437 2.50986,2.14785 6.15397,2.14785 4.34397,0 7.93982,-2.46158 0.48266,-0.33787 0.724,-0.33787 0.86879,0 0.86879,0.91706 z m -1.88239,-7.84329 q -0.55506,-3.08905 -2.89598,-4.9473 -2.34092,-1.88239 -5.50237,-1.88239 -3.18558,0 -5.50237,1.85826 -2.31679,1.85825 -2.87185,4.97143 l 16.77257,0 z"
           style="font-style:normal;font-variant:normal;font-weight:bold;font-stretch:normal;font-size:49.4247818px;line-height:100%;font-family:'Serto Urhoy';-inkscape-font-specification:'Serto Urhoy, Bold';text-align:center;writing-mode:lr-tb;text-anchor:middle"
           id="path5275"
           inkscape:connector-curvature="0" />
        <path
           d="m 358.16387,352.29131 q 0,1.01359 -1.35146,1.01359 l -3.54758,0 0,-2.63052 q -3.98197,3.35452 -8.51901,3.35452 -2.87185,0 -4.80251,-1.39973 -2.19612,-1.59279 -2.19612,-4.34397 0,-3.37865 3.25798,-5.18864 2.63052,-1.44799 6.3229,-1.44799 2.60638,0 5.93676,0.67573 l 0,-2.96839 q 0,-1.93065 -1.90652,-2.92011 -1.52039,-0.7964 -3.66824,-0.7964 -1.42386,0 -4.70598,0.9412 -1.76172,0.53093 -2.17198,0.53093 -0.84467,0 -0.84467,-0.91706 0,-0.33787 0.2172,-0.60333 0.41027,-0.5068 3.59585,-1.18253 2.92012,-0.62746 4.00611,-0.62746 2.82358,0 4.89904,1.35146 2.43745,1.56865 2.43745,4.2233 l -0.0241,11.89767 1.85825,0 q 1.20666,0.1448 1.20666,1.03773 z m -4.89904,-4.05438 0,-4.03024 q -2.50985,-0.724 -5.7437,-0.724 -2.84771,0 -5.06797,1.0136 -2.87185,1.30319 -2.87185,3.78891 0,1.95479 1.61693,3.01665 1.37559,0.89292 3.47518,0.89292 4.46464,0 8.59141,-3.95784 z"
           style="font-style:normal;font-variant:normal;font-weight:bold;font-stretch:normal;font-size:49.4247818px;line-height:100%;font-family:'Serto Urhoy';-inkscape-font-specification:'Serto Urhoy, Bold';text-align:center;writing-mode:lr-tb;text-anchor:middle"
           id="path5277"
           inkscape:connector-curvature="0" />
        <path
           d="m 386.49625,350.77092 q 0,1.18252 -3.08905,2.38918 -2.38919,0.9412 -4.51291,0.9412 -3.01665,0 -5.04384,-1.54453 -2.22025,-1.68932 -2.22025,-4.60944 l -0.0241,-10.9806 -4.94731,0 q -1.35146,0 -1.35146,-1.03773 0,-1.01359 1.35146,-1.01359 l 4.94731,0 0.0241,-8.49489 q 0,-1.35146 1.01359,-1.35146 1.03773,0 1.03773,1.35146 l -0.0241,8.49489 9.79807,0 q 1.35146,0 1.35146,1.03772 0,1.0136 -1.35146,1.0136 l -9.79807,0 0.0241,10.9806 q 0,1.95479 1.59279,3.11318 1.42386,1.0136 3.47518,1.0136 1.06186,0 3.23385,-0.62746 0.38613,-0.0965 1.95479,-0.91707 1.44799,-0.77226 1.59279,-0.77226 0.96533,0 0.96533,1.0136 z"
           style="font-style:normal;font-variant:normal;font-weight:bold;font-stretch:normal;font-size:49.4247818px;line-height:100%;font-family:'Serto Urhoy';-inkscape-font-specification:'Serto Urhoy, Bold';text-align:center;writing-mode:lr-tb;text-anchor:middle"
           id="path5279"
           inkscape:connector-curvature="0" />
        <path
           d="m 241.81775,394.98293 q 0,3.28211 -2.50986,5.55063 -2.41331,2.19612 -5.7437,2.19612 l -14.14205,0.0241 q -1.35146,0 -1.35146,-1.0136 0,-0.89293 1.20666,-1.06186 -0.12066,0.0241 1.85826,0.0241 l 0,-24.18146 q -1.97892,0 -1.85826,0.0241 -1.20666,-0.16894 -1.20666,-1.06186 0,-1.0136 1.35146,-1.0136 l 11.72873,0.0241 q 3.40279,0 5.86437,1.93065 2.67879,2.07546 2.67879,5.3817 0,3.71652 -3.98198,6.00917 6.1057,2.19612 6.1057,7.16756 z m -4.17505,-13.34566 q 0,-2.31679 -2.12372,-3.78891 -1.90652,-1.32733 -4.31984,-1.32733 l -8.03635,0 0,10.52208 7.16756,0 q 2.84771,0 4.89903,-1.25493 2.41332,-1.47212 2.41332,-4.15091 z m 2.12373,13.39392 q 0,-1.54452 -1.06187,-2.99251 -2.19612,-2.94425 -8.25355,-2.94425 l -7.28822,0 0,11.60806 10.25661,0 q 2.50985,0 4.3681,-1.56865 1.97893,-1.64106 1.97893,-4.10265 z"
           style="font-style:normal;font-variant:normal;font-weight:bold;font-stretch:normal;font-size:49.4247818px;line-height:100%;font-family:'Serto Urhoy';-inkscape-font-specification:'Serto Urhoy, Bold';text-align:center;writing-mode:lr-tb;text-anchor:middle"
           id="path5281"
           inkscape:connector-curvature="0" />
        <path
           d="m 254.17394,379.51355 -2.99251,0 0,-5.2369 2.99251,0 0,5.2369 z m -2.02719,21.18894 0,-14.31098 -1.71345,0 q -1.35146,0 -1.35146,-1.03773 0,-1.01359 1.27906,-1.01359 l 3.81304,0 0,16.3623 -2.02719,0 z m 3.78891,0 q 1.35146,0 1.35146,1.03773 0,1.0136 -1.27906,1.0136 l -5.5989,0 q -1.27906,0 -1.27906,-1.0136 0,-1.03773 1.35146,-1.03773 l 5.4541,0 z"
           style="font-style:normal;font-variant:normal;font-weight:bold;font-stretch:normal;font-size:49.4247818px;line-height:100%;font-family:'Serto Urhoy';-inkscape-font-specification:'Serto Urhoy, Bold';text-align:center;writing-mode:lr-tb;text-anchor:middle"
           id="path5283"
           inkscape:connector-curvature="0" />
        <path
           d="m 285.57123,400.1957 q 0,1.18252 -3.08905,2.38918 -2.38919,0.9412 -4.51291,0.9412 -3.01665,0 -5.04384,-1.54453 -2.22025,-1.68932 -2.22025,-4.60944 l -0.0241,-10.9806 -4.94731,0 q -1.35146,0 -1.35146,-1.03773 0,-1.01359 1.35146,-1.01359 l 4.94731,0 0.0241,-8.49489 q 0,-1.35145 1.01359,-1.35145 1.03773,0 1.03773,1.35145 l -0.0241,8.49489 9.79808,0 q 1.35145,0 1.35145,1.03773 0,1.01359 -1.35145,1.01359 l -9.79808,0 0.0241,10.9806 q 0,1.95479 1.59279,3.11319 1.42386,1.01359 3.47518,1.01359 1.06186,0 3.23385,-0.62746 0.38613,-0.0965 1.95479,-0.91706 1.44799,-0.77227 1.59279,-0.77227 0.96533,0 0.96533,1.0136 z"
           style="font-style:normal;font-variant:normal;font-weight:bold;font-stretch:normal;font-size:49.4247818px;line-height:100%;font-family:'Serto Urhoy';-inkscape-font-specification:'Serto Urhoy, Bold';text-align:center;writing-mode:lr-tb;text-anchor:middle"
           id="path5285"
           inkscape:connector-curvature="0" />
        <path
           d="m 310.62148,386.89831 q 0,1.06186 -1.06186,1.06186 -0.362,0 -1.52039,-1.03773 -1.1584,-1.06186 -2.22026,-1.06186 -1.95479,0 -5.14037,2.38919 -1.27906,0.94119 -4.53704,3.86131 l 0,8.61555 q 0.19307,0 0.60333,-0.0241 0.4344,-0.0241 0.67573,-0.0241 1.78586,0 1.78586,1.06186 0,1.0136 -1.35146,1.0136 l -5.42997,0 q -1.37559,0 -1.37559,-1.0136 0,-1.06186 1.78585,-1.06186 0.24134,0 0.6516,0.0241 0.4344,0.0241 0.62746,0.0241 l 0,-14.33512 q -0.19306,0 -0.62746,0.0241 -0.41026,0.0241 -0.62746,0.0241 -1.80999,0 -1.80999,-1.086 0,-1.01359 1.35146,-1.01359 l 3.74064,0 0,5.11624 q 2.92012,-2.65466 4.39224,-3.64412 2.87185,-1.97892 5.16451,-1.97892 1.18252,0 2.96838,0.9412 1.95479,1.06186 1.95479,2.12372 z"
           style="font-style:normal;font-variant:normal;font-weight:bold;font-stretch:normal;font-size:49.4247818px;line-height:100%;font-family:'Serto Urhoy';-inkscape-font-specification:'Serto Urhoy, Bold';text-align:center;writing-mode:lr-tb;text-anchor:middle"
           id="path5287"
           inkscape:connector-curvature="0" />
        <path
           d="m 338.32639,401.71609 q 0,1.01359 -1.35146,1.01359 l -3.54758,0 0,-2.63052 q -3.98198,3.35452 -8.51902,3.35452 -2.87185,0 -4.8025,-1.39973 -2.19613,-1.59279 -2.19613,-4.34397 0,-3.37865 3.25799,-5.18864 2.63051,-1.44799 6.32289,-1.44799 2.60639,0 5.93677,0.67573 l 0,-2.96838 q 0,-1.93066 -1.90652,-2.92012 -1.52039,-0.7964 -3.66825,-0.7964 -1.42386,0 -4.70597,0.9412 -1.76173,0.53093 -2.17199,0.53093 -0.84466,0 -0.84466,-0.91706 0,-0.33787 0.2172,-0.60333 0.41026,-0.5068 3.59584,-1.18253 2.92012,-0.62746 4.00611,-0.62746 2.82359,0 4.89904,1.35146 2.43745,1.56866 2.43745,4.22331 l -0.0241,11.89766 1.85826,0 q 1.20666,0.1448 1.20666,1.03773 z m -4.89904,-4.05438 0,-4.03024 q -2.50985,-0.724 -5.7437,-0.724 -2.84772,0 -5.06797,1.0136 -2.87185,1.30319 -2.87185,3.78891 0,1.95479 1.61692,3.01665 1.37559,0.89293 3.47518,0.89293 4.46464,0 8.59142,-3.95785 z"
           style="font-style:normal;font-variant:normal;font-weight:bold;font-stretch:normal;font-size:49.4247818px;line-height:100%;font-family:'Serto Urhoy';-inkscape-font-specification:'Serto Urhoy, Bold';text-align:center;writing-mode:lr-tb;text-anchor:middle"
           id="path5289"
           inkscape:connector-curvature="0" />
        <path
           d="m 366.82769,374.37318 q 0,0.98946 -1.06186,0.98946 -1.03773,0 -3.06491,-0.4344 -2.00306,-0.45853 -3.04079,-0.45853 -3.78891,0 -5.11623,1.54453 -1.18253,1.39972 -1.18253,5.18863 0,0.41027 0.0241,1.56866 l 0,1.56866 4.39224,0 q 1.35146,0 1.35146,1.01359 0,1.03773 -1.35146,1.03773 l -4.39224,0 0.0241,14.31098 q 2.00305,0 1.85825,-0.0241 1.20666,0.1448 1.20666,1.06186 0,1.0136 -1.35146,1.0136 l -5.4541,0 q -1.35146,0 -1.35146,-1.0136 0,-0.91706 1.20666,-1.06186 -0.1448,0.0241 1.85826,0.0241 l -0.0483,-14.31098 -4.39224,0 q -1.35146,0 -1.35146,-1.03773 0,-1.01359 1.35146,-1.01359 l 4.39224,0 0.0483,-5.57477 q 0.0241,-3.23385 2.75118,-4.92317 2.29266,-1.44799 5.7437,-1.44799 0.84466,0 3.52345,0.45853 2.89598,0.5068 3.16145,0.82053 0.26546,0.2896 0.26546,0.69986 z"
           style="font-style:normal;font-variant:normal;font-weight:bold;font-stretch:normal;font-size:49.4247818px;line-height:100%;font-family:'Serto Urhoy';-inkscape-font-specification:'Serto Urhoy, Bold';text-align:center;writing-mode:lr-tb;text-anchor:middle"
           id="path5291"
           inkscape:connector-curvature="0" />
      </g>
    </g>
  </g>
</svg>
