  0
SECTION
  2
HEADER
  9
$ACADVER
  1
AC1009
  9
$INSBASE
 10
0.0
 20
0.0
 30
0.0
  9
$EXTMIN
 10
0.0
 20
0.0
 30
0.0
  9
$EXTMAX
 10
0.0
 20
0.0
 30
0.0
  0
ENDSEC
  0
SECTION
  2
TABLES
  0
TABLE
  2
VPORT
 70
0
  0
ENDTAB
  0
TABLE
  2
LTYPE
 70
1
  0
LTYPE
  2
CONTINUOUS
 70
0
  3
Solid line
 72
65
 73
0
 40
0.0
  0
ENDTAB
  0
TABLE
  2
LAYER
 70
1
  0
LAYER
  2
0
 70
64
 62
7
  6
continuous
  0
ENDTAB
  0
TABLE
  2
STYLE
 70
1
  0
STYLE
  2
STANDARD
 70
0
 40
0
 41
1.0
 50
0.0
 71
0
 42
1
 3
ARIAL.TTF
 4

  0
ENDTAB
  0
TABLE
  2
VIEW
 70
0
  0
ENDTAB
  0
ENDSEC
  0
SECTION
  2
BLOCKS
  0
BLOCK
  8
0
  2
POCKET004_CS
 70
0
 10
0.0
 20
0.0
 30
0.0
  3
POCKET004_CS
  0
POLYLINE
  8
0
 62
0
 70
1
 66
1
 10
0.0
 20
0.0
 30
0.0
  0
VERTEX
  8
0
 10
147.37615434
 20
89.8025612107
 30
5.0
  0
VERTEX
  8
0
 10
163.286056916
 20
73.892658634
 30
5.0
  0
VERTEX
  8
0
 10
153.38656198
 20
63.9931636974
 30
5.0
  0
VERTEX
  8
0
 10
163.993163697
 20
53.3865619796
 30
5.0
  0
VERTEX
  8
0
 10
173.892658634
 20
63.2860569162
 30
5.0
  0
VERTEX
  8
0
 10
189.802561211
 20
47.3761543395
 30
5.0
  0
VERTEX
  8
0
 10
179.195959493
 20
36.7695526217
 30
5.0
 42
-0.434552301912
  0
VERTEX
  8
0
 10
136.769552622
 20
79.1959594929
 30
5.0
  0
SEQEND
  8
0
  0
CIRCLE
  8
0
 62
0
 10
142.426406871
 20
74.9533188058
 30
5.0
 40
2.2
  0
CIRCLE
  8
0
 62
0
 10
174.953318806
 20
42.4264068712
 30
5.0
 40
2.2
  0
ENDBLK
  0
BLOCK
  8
0
  2
POCKET001_CS
 70
0
 10
0.0
 20
0.0
 30
0.0
  3
POCKET001_CS
  0
POLYLINE
  8
0
 62
0
 70
1
 66
1
 10
0.0
 20
0.0
 30
0.0
  0
VERTEX
  8
0
 10
105.0
 20
-80.0
 30
-3.0
 42
-0.414213562373
  0
VERTEX
  8
0
 10
80.0
 20
-105.0
 30
-3.0
  0
VERTEX
  8
0
 10
-80.0
 20
-105.0
 30
-3.0
 42
-0.414213562373
  0
VERTEX
  8
0
 10
-105.0
 20
-80.0
 30
-3.0
  0
VERTEX
  8
0
 10
-105.0
 20
80.0
 30
-3.0
 42
-0.414213562373
  0
VERTEX
  8
0
 10
-80.0
 20
105.0
 30
-3.0
  0
VERTEX
  8
0
 10
80.0
 20
105.0
 30
-3.0
 42
-0.414213562373
  0
VERTEX
  8
0
 10
105.0
 20
80.0
 30
-3.0
  0
SEQEND
  8
0
  0
POLYLINE
  8
0
 62
0
 70
1
 66
1
 10
0.0
 20
0.0
 30
0.0
  0
VERTEX
  8
0
 10
-25.0
 20
-91.2
 30
-3.0
  0
VERTEX
  8
0
 10
-25.0
 20
-97.0
 30
-3.0
  0
VERTEX
  8
0
 10
25.0
 20
-97.0
 30
-3.0
  0
VERTEX
  8
0
 10
25.0
 20
-91.2
 30
-3.0
  0
SEQEND
  8
0
  0
POLYLINE
  8
0
 62
0
 70
1
 66
1
 10
0.0
 20
0.0
 30
0.0
  0
VERTEX
  8
0
 10
-24.0
 20
-76.2
 30
-3.0
  0
VERTEX
  8
0
 10
-24.0
 20
-86.2
 30
-3.0
  0
VERTEX
  8
0
 10
-29.6
 20
-86.2
 30
-3.0
  0
VERTEX
  8
0
 10
-29.6
 20
-76.2
 30
-3.0
  0
SEQEND
  8
0
  0
POLYLINE
  8
0
 62
0
 70
1
 66
1
 10
0.0
 20
0.0
 30
0.0
  0
VERTEX
  8
0
 10
29.6
 20
-61.2
 30
-3.0
  0
VERTEX
  8
0
 10
24.0
 20
-61.2
 30
-3.0
  0
VERTEX
  8
0
 10
24.0
 20
-51.2
 30
-3.0
  0
VERTEX
  8
0
 10
29.6
 20
-51.2
 30
-3.0
  0
SEQEND
  8
0
  0
POLYLINE
  8
0
 62
0
 70
1
 66
1
 10
0.0
 20
0.0
 30
0.0
  0
VERTEX
  8
0
 10
29.6
 20
-76.2
 30
-3.0
  0
VERTEX
  8
0
 10
24.0
 20
-76.2
 30
-3.0
  0
VERTEX
  8
0
 10
24.0
 20
-86.2
 30
-3.0
  0
VERTEX
  8
0
 10
29.6
 20
-86.2
 30
-3.0
  0
SEQEND
  8
0
  0
POLYLINE
  8
0
 62
0
 70
1
 66
1
 10
0.0
 20
0.0
 30
0.0
  0
VERTEX
  8
0
 10
-29.6
 20
-61.2
 30
-3.0
  0
VERTEX
  8
0
 10
-24.0
 20
-61.2
 30
-3.0
  0
VERTEX
  8
0
 10
-24.0
 20
-51.2
 30
-3.0
  0
VERTEX
  8
0
 10
-29.6
 20
-51.2
 30
-3.0
  0
SEQEND
  8
0
  0
CIRCLE
  8
0
 62
0
 10
0.0
 20
0.0
 30
-3.0
 40
50.0
  0
ENDBLK
  0
BLOCK
  8
0
  2
POCKET003_CS
 70
0
 10
0.0
 20
0.0
 30
0.0
  3
POCKET003_CS
  0
POLYLINE
  8
0
 62
0
 70
1
 66
1
 10
0.0
 20
0.0
 30
0.0
  0
VERTEX
  8
0
 10
215.0
 20
-2.15383266777e-14
 30
-94.0
  0
VERTEX
  8
0
 10
215.0
 20
-60.0
 30
-94.0
  0
VERTEX
  8
0
 10
285.0
 20
-60.0
 30
-94.0
  0
VERTEX
  8
0
 10
285.0
 20
-2.15383266777e-14
 30
-94.0
  0
VERTEX
  8
0
 10
275.0
 20
-2.17603712827e-14
 30
-94.0
  0
VERTEX
  8
0
 10
275.0
 20
5.6
 30
-94.0
  0
VERTEX
  8
0
 10
225.0
 20
5.6
 30
-94.0
  0
VERTEX
  8
0
 10
225.0
 20
-2.15383266777e-14
 30
-94.0
  0
SEQEND
  8
0
  0
POLYLINE
  8
0
 62
0
 70
1
 66
1
 10
0.0
 20
0.0
 30
0.0
  0
VERTEX
  8
0
 10
220.1
 20
-50.0
 30
-94.0
  0
VERTEX
  8
0
 10
226.0
 20
-50.0
 30
-94.0
  0
VERTEX
  8
0
 10
226.0
 20
-40.0
 30
-94.0
  0
VERTEX
  8
0
 10
220.1
 20
-40.0
 30
-94.0
  0
SEQEND
  8
0
  0
POLYLINE
  8
0
 62
0
 70
1
 66
1
 10
0.0
 20
0.0
 30
0.0
  0
VERTEX
  8
0
 10
279.9
 20
-5.0
 30
-94.0
  0
VERTEX
  8
0
 10
279.9
 20
-15.0
 30
-94.0
  0
VERTEX
  8
0
 10
274.0
 20
-15.0
 30
-94.0
  0
VERTEX
  8
0
 10
274.0
 20
-5.0
 30
-94.0
  0
SEQEND
  8
0
  0
POLYLINE
  8
0
 62
0
 70
1
 66
1
 10
0.0
 20
0.0
 30
0.0
  0
VERTEX
  8
0
 10
274.0
 20
-40.0
 30
-94.0
  0
VERTEX
  8
0
 10
279.9
 20
-40.0
 30
-94.0
  0
VERTEX
  8
0
 10
279.9
 20
-50.0
 30
-94.0
  0
VERTEX
  8
0
 10
274.0
 20
-50.0
 30
-94.0
  0
SEQEND
  8
0
  0
POLYLINE
  8
0
 62
0
 70
1
 66
1
 10
0.0
 20
0.0
 30
0.0
  0
VERTEX
  8
0
 10
232.8
 20
-39.5
 30
-94.0
  0
VERTEX
  8
0
 10
232.8
 20
-47.5
 30
-94.0
 42
1.0
  0
VERTEX
  8
0
 10
236.2
 20
-47.5
 30
-94.0
  0
VERTEX
  8
0
 10
236.2
 20
-39.5
 30
-94.0
 42
1.0
  0
SEQEND
  8
0
  0
POLYLINE
  8
0
 62
0
 70
1
 66
1
 10
0.0
 20
0.0
 30
0.0
  0
VERTEX
  8
0
 10
232.8
 20
-8.50000000005
 30
-94.0
  0
VERTEX
  8
0
 10
232.8
 20
-16.5
 30
-94.0
 42
1.0
  0
VERTEX
  8
0
 10
236.2
 20
-16.5
 30
-94.0
  0
VERTEX
  8
0
 10
236.2
 20
-8.50000000005
 30
-94.0
 42
1.0
  0
SEQEND
  8
0
  0
POLYLINE
  8
0
 62
0
 70
1
 66
1
 10
0.0
 20
0.0
 30
0.0
  0
VERTEX
  8
0
 10
226.0
 20
-15.0
 30
-94.0
  0
VERTEX
  8
0
 10
226.0
 20
-5.0
 30
-94.0
  0
VERTEX
  8
0
 10
220.1
 20
-5.0
 30
-94.0
  0
VERTEX
  8
0
 10
220.1
 20
-15.0
 30
-94.0
  0
SEQEND
  8
0
  0
POLYLINE
  8
0
 62
0
 70
1
 66
1
 10
0.0
 20
0.0
 30
0.0
  0
VERTEX
  8
0
 10
262.0
 20
-32.0
 30
-94.0
  0
VERTEX
  8
0
 10
262.0
 20
-24.0
 30
-94.0
 42
1.0
  0
VERTEX
  8
0
 10
238.0
 20
-24.0
 30
-94.0
  0
VERTEX
  8
0
 10
238.0
 20
-32.0
 30
-94.0
 42
1.0
  0
SEQEND
  8
0
  0
POLYLINE
  8
0
 62
0
 70
1
 66
1
 10
0.0
 20
0.0
 30
0.0
  0
VERTEX
  8
0
 10
263.8
 20
-39.5
 30
-94.0
 42
-1.0
  0
VERTEX
  8
0
 10
267.2
 20
-39.5
 30
-94.0
  0
VERTEX
  8
0
 10
267.2
 20
-47.5
 30
-94.0
 42
-1.0
  0
VERTEX
  8
0
 10
263.8
 20
-47.5
 30
-94.0
  0
SEQEND
  8
0
  0
POLYLINE
  8
0
 62
0
 70
1
 66
1
 10
0.0
 20
0.0
 30
0.0
  0
VERTEX
  8
0
 10
267.2
 20
-16.5
 30
-94.0
  0
VERTEX
  8
0
 10
267.2
 20
-8.50000000005
 30
-94.0
 42
1.0
  0
VERTEX
  8
0
 10
263.8
 20
-8.50000000005
 30
-94.0
  0
VERTEX
  8
0
 10
263.8
 20
-16.5
 30
-94.0
 42
1.0
  0
SEQEND
  8
0
  0
ENDBLK
  0
ENDSEC
  0
SECTION
  2
ENTITIES
  0
INSERT
  2
POCKET004_CS
  8
0
 62
0
 10
0.0
 20
0.0
 30
0.0
  0
INSERT
  2
POCKET001_CS
  8
0
 62
0
 10
0.0
 20
0.0
 30
0.0
  0
INSERT
  2
POCKET003_CS
  8
0
 62
0
 10
0.0
 20
0.0
 30
0.0
  0
POLYLINE
  8
0
 62
0
 70
1
 66
1
 10
0.0
 20
0.0
 30
0.0
  0
VERTEX
  8
0
 10
201.0
 20
-88.0
 30
27.0
  0
VERTEX
  8
0
 10
153.0
 20
-53.0
 30
27.0
  0
VERTEX
  8
0
 10
153.0
 20
-51.0
 30
27.0
  0
VERTEX
  8
0
 10
150.0
 20
-51.0
 30
27.0
  0
VERTEX
  8
0
 10
144.0
 20
-51.0
 30
27.0
  0
VERTEX
  8
0
 10
144.0
 20
-61.0
 30
27.0
  0
VERTEX
  8
0
 10
150.0
 20
-61.0
 30
27.0
  0
VERTEX
  8
0
 10
150.0
 20
-76.0
 30
27.0
  0
VERTEX
  8
0
 10
144.0
 20
-76.0
 30
27.0
  0
VERTEX
  8
0
 10
144.0
 20
-86.0
 30
27.0
  0
VERTEX
  8
0
 10
150.0
 20
-86.0
 30
27.0
  0
VERTEX
  8
0
 10
150.0
 20
-91.0
 30
27.0
  0
VERTEX
  8
0
 10
155.0
 20
-91.0
 30
27.0
  0
VERTEX
  8
0
 10
155.0
 20
-97.0
 30
27.0
  0
VERTEX
  8
0
 10
165.0
 20
-97.0
 30
27.0
  0
VERTEX
  8
0
 10
165.0
 20
-91.0
 30
27.0
  0
VERTEX
  8
0
 10
190.0
 20
-91.0
 30
27.0
  0
VERTEX
  8
0
 10
190.0
 20
-97.0
 30
27.0
  0
VERTEX
  8
0
 10
200.0
 20
-97.0
 30
27.0
  0
VERTEX
  8
0
 10
200.0
 20
-91.0
 30
27.0
  0
VERTEX
  8
0
 10
203.0
 20
-91.0
 30
27.0
  0
VERTEX
  8
0
 10
203.0
 20
-88.0
 30
27.0
  0
SEQEND
  8
0
  0
ENDSEC
  0
EOF
