  0
SECTION
  2
HEADER
  9
$ACADVER
  1
AC1009
  9
$INSBASE
 10
0.0
 20
0.0
 30
0.0
  9
$EXTMIN
 10
0.0
 20
0.0
 30
0.0
  9
$EXTMAX
 10
0.0
 20
0.0
 30
0.0
  0
ENDSEC
  0
SECTION
  2
TABLES
  0
TABLE
  2
VPORT
 70
0
  0
ENDTAB
  0
TABLE
  2
LTYPE
 70
1
  0
LTYPE
  2
CONTINUOUS
 70
0
  3
Solid line
 72
65
 73
0
 40
0.0
  0
ENDTAB
  0
TABLE
  2
LAYER
 70
1
  0
LAYER
  2
0
 70
64
 62
7
  6
continuous
  0
ENDTAB
  0
TABLE
  2
STYLE
 70
1
  0
STYLE
  2
STANDARD
 70
0
 40
0
 41
1.0
 50
0.0
 71
0
 42
1
 3
ARIAL.TTF
 4

  0
ENDTAB
  0
TABLE
  2
VIEW
 70
0
  0
ENDTAB
  0
ENDSEC
  0
SECTION
  2
BLOCKS
  0
BLOCK
  8
0
  2
SHAPE2DVIEW
 70
0
 10
0.0
 20
0.0
 30
0.0
  3
SHAPE2DVIEW
  0
ARC
  8
0
 62
0
 10
61.3032821833
 20
143.670629751
 30
0.0
 40
32.0
 50
93.6882400795
 51
146.311759921
  0
LINE
  8
0
 62
0
 10
31.7465570602
 20
160.735212957
 30
0.0
 11
31.0789955912
 21
161.120629751
 31
0.0
  0
ARC
  8
0
 62
0
 10
32.8465570602
 20
162.640468846
 30
0.0
 40
2.2
 50
-120.0
 51
-33.6882400795
  0
ARC
  8
0
 62
0
 10
32.1789955912
 20
163.025885639
 30
0.0
 40
2.2
 50
150.0
 51
-120.0
  0
LINE
  8
0
 62
0
 10
35.7207450867
 20
173.560375713
 30
0.0
 11
30.2737397029
 21
164.125885639
 31
0.0
  0
ARC
  8
0
 62
0
 10
59.1032821833
 20
177.799796163
 30
0.0
 40
2.2
 50
-86.3117599205
 51
0.0
  0
LINE
  8
0
 62
0
 10
30.6977977447
 20
176.460375713
 30
0.0
 11
35.7207450867
 21
173.560375713
 31
0.0
  0
LINE
  8
0
 62
0
 10
61.3032821833
 20
177.799796163
 30
0.0
 11
61.3032821833
 21
178.570629751
 31
0.0
  0
LINE
  8
0
 62
0
 10
25.2507923609
 20
167.02588564
 30
0.0
 11
30.6977977447
 21
176.460375713
 31
0.0
  0
ARC
  8
0
 62
0
 10
59.1032821833
 20
178.570629751
 30
0.0
 40
2.2
 50
0.0
 51
90.0
  0
ARC
  8
0
 62
0
 10
23.3455364726
 20
168.12588564
 30
0.0
 40
2.2
 50
-120.0
 51
-30.0
  0
LINE
  8
0
 62
0
 10
59.1032821833
 20
180.770629751
 30
0.0
 11
48.2092714157
 21
180.770629751
 31
0.0
  0
LINE
  8
0
 62
0
 10
22.2455364726
 20
166.220629751
 30
0.0
 11
21.5779750036
 21
166.606046545
 31
0.0
  0
LINE
  8
0
 62
0
 10
48.2092714157
 20
180.770629751
 30
0.0
 11
48.2092714157
 21
186.570629751
 31
0.0
  0
ARC
  8
0
 62
0
 10
22.6779750036
 20
168.511302433
 30
0.0
 40
2.2
 50
153.688240079
 51
-120.0
  0
LINE
  8
0
 62
0
 10
48.2092714157
 20
186.570629751
 30
0.0
 11
59.1032821833
 21
186.570629751
 31
0.0
  0
ARC
  8
0
 62
0
 10
-7.97875011946
 20
183.670629751
 30
0.0
 40
32.0
 50
-26.3117599205
 51
26.3117599205
  0
ARC
  8
0
 62
0
 10
59.1032821833
 20
188.770629751
 30
0.0
 40
2.2
 50
-90.0
 51
0.0
  0
ARC
  8
0
 62
0
 10
22.6779750036
 20
198.829957069
 30
0.0
 40
2.2
 50
120.0
 51
-153.688240079
  0
LINE
  8
0
 62
0
 10
61.3032821833
 20
188.770629751
 30
0.0
 11
61.3032821833
 21
189.541463339
 31
0.0
  0
LINE
  8
0
 62
0
 10
22.2455364726
 20
201.120629751
 30
0.0
 11
21.5779750036
 21
200.735212957
 31
0.0
  0
ARC
  8
0
 62
0
 10
59.1032821833
 20
189.541463339
 30
0.0
 40
2.2
 50
0.0
 51
86.3117599204
  0
ARC
  8
0
 62
0
 10
23.3455364726
 20
199.215373863
 30
0.0
 40
2.2
 50
30.0
 51
120.0
  0
ARC
  8
0
 62
0
 10
61.3032821833
 20
223.670629751
 30
0.0
 40
32.0
 50
-146.311759921
 51
-93.6882400796
  0
LINE
  8
0
 62
0
 10
30.6977977447
 20
190.880883789
 30
0.0
 11
25.2507923609
 21
200.315373863
 31
0.0
  0
ARC
  8
0
 62
0
 10
32.8465570602
 20
204.700790657
 30
0.0
 40
2.2
 50
33.6882400794
 51
120.0
  0
LINE
  8
0
 62
0
 10
35.7207450867
 20
193.780883789
 30
0.0
 11
30.6977977447
 21
190.880883789
 31
0.0
  0
LINE
  8
0
 62
0
 10
31.7465570602
 20
206.606046545
 30
0.0
 11
31.0789955912
 21
206.220629751
 31
0.0
  0
LINE
  8
0
 62
0
 10
30.2737397029
 20
203.215373863
 30
0.0
 11
35.7207450867
 21
193.780883789
 31
0.0
  0
ARC
  8
0
 62
0
 10
32.1789955912
 20
204.315373863
 30
0.0
 40
2.2
 50
120.0
 51
-150.0
  0
ENDBLK
  0
ENDSEC
  0
SECTION
  2
ENTITIES
  0
INSERT
  2
SHAPE2DVIEW
  8
0
 10
0.0
 20
0.0
 30
0.0
  0
ENDSEC
  0
EOF
