  0
SECTION
  2
HEADER
  9
$ACADVER
  1
AC1009
  9
$INSBASE
 10
0.0
 20
0.0
 30
0.0
  9
$EXTMIN
 10
0.0
 20
0.0
 30
0.0
  9
$EXTMAX
 10
0.0
 20
0.0
 30
0.0
  0
ENDSEC
  0
SECTION
  2
TABLES
  0
TABLE
  2
VPORT
 70
0
  0
ENDTAB
  0
TABLE
  2
LTYPE
 70
1
  0
LTYPE
  2
CONTINUOUS
 70
0
  3
Solid line
 72
65
 73
0
 40
0.0
  0
ENDTAB
  0
TABLE
  2
LAYER
 70
1
  0
LAYER
  2
0
 70
64
 62
7
  6
continuous
  0
ENDTAB
  0
TABLE
  2
STYLE
 70
1
  0
STYLE
  2
STANDARD
 70
0
 40
0
 41
1.0
 50
0.0
 71
0
 42
1
 3
ARIAL.TTF
 4

  0
ENDTAB
  0
TABLE
  2
VIEW
 70
0
  0
ENDTAB
  0
ENDSEC
  0
SECTION
  2
BLOCKS
  0
BLOCK
  8
0
  2
FUSION_CS001
 70
0
 10
0.0
 20
0.0
 30
0.0
  3
FUSION_CS001
  0
POLYLINE
  8
0
 62
0
 70
1
 66
1
 10
0.0
 20
0.0
 30
0.0
  0
VERTEX
  8
0
 10
100.0
 20
0.0
 30
-1.0
  0
VERTEX
  8
0
 10
40.0
 20
0.0
 30
-1.0
  0
VERTEX
  8
0
 10
40.0
 20
80.0
 30
-1.0
  0
VERTEX
  8
0
 10
100.0
 20
80.0
 30
-1.0
  0
SEQEND
  8
0
  0
CIRCLE
  8
0
 62
0
 10
92.5
 20
70.0
 30
-1.0
 40
1.6
  0
POLYLINE
  8
0
 62
0
 70
1
 66
1
 10
0.0
 20
0.0
 30
0.0
  0
VERTEX
  8
0
 10
80.0
 20
28.0
 30
-1.0
  0
VERTEX
  8
0
 10
60.0
 20
28.0
 30
-1.0
  0
VERTEX
  8
0
 10
60.0
 20
24.9
 30
-1.0
  0
VERTEX
  8
0
 10
80.0
 20
24.9
 30
-1.0
  0
SEQEND
  8
0
  0
CIRCLE
  8
0
 62
0
 10
92.5
 20
10.0
 30
-1.0
 40
1.6
  0
CIRCLE
  8
0
 62
0
 10
47.5
 20
70.0
 30
-1.0
 40
1.6
  0
POLYLINE
  8
0
 62
0
 70
1
 66
1
 10
0.0
 20
0.0
 30
0.0
  0
VERTEX
  8
0
 10
80.0
 20
39.5
 30
-1.0
  0
VERTEX
  8
0
 10
60.0
 20
39.5
 30
-1.0
  0
VERTEX
  8
0
 10
60.0
 20
36.4
 30
-1.0
  0
VERTEX
  8
0
 10
80.0
 20
36.4
 30
-1.0
  0
SEQEND
  8
0
  0
CIRCLE
  8
0
 62
0
 10
70.0
 20
14.0
 30
-1.0
 40
4.5
  0
CIRCLE
  8
0
 62
0
 10
47.5
 20
10.0
 30
-1.0
 40
1.6
  0
ENDBLK
  0
BLOCK
  8
0
  2
FUSION_CS
 70
0
 10
0.0
 20
0.0
 30
0.0
  3
FUSION_CS
  0
POLYLINE
  8
0
 62
0
 70
1
 66
1
 10
0.0
 20
0.0
 30
0.0
  0
VERTEX
  8
0
 10
170.0
 20
0.0
 30
1.0
  0
VERTEX
  8
0
 10
152.1
 20
0.0
 30
1.0
  0
VERTEX
  8
0
 10
152.1
 20
39.5
 30
1.0
  0
VERTEX
  8
0
 10
150.0
 20
39.5
 30
1.0
  0
VERTEX
  8
0
 10
148.0
 20
39.5
 30
1.0
  0
VERTEX
  8
0
 10
148.0
 20
36.52203
 30
1.0
  0
VERTEX
  8
0
 10
144.0
 20
36.52203
 30
1.0
  0
VERTEX
  8
0
 10
144.0
 20
39.5
 30
1.0
  0
VERTEX
  8
0
 10
140.0
 20
39.5
 30
1.0
  0
VERTEX
  8
0
 10
140.0
 20
36.52203
 30
1.0
  0
VERTEX
  8
0
 10
136.0
 20
36.52203
 30
1.0
  0
VERTEX
  8
0
 10
136.0
 20
39.5
 30
1.0
  0
VERTEX
  8
0
 10
130.0
 20
39.5
 30
1.0
  0
VERTEX
  8
0
 10
127.9
 20
39.5
 30
1.0
  0
VERTEX
  8
0
 10
127.9
 20
0.0
 30
1.0
  0
VERTEX
  8
0
 10
110.0
 20
0.0
 30
1.0
  0
VERTEX
  8
0
 10
110.0
 20
80.0
 30
1.0
  0
VERTEX
  8
0
 10
170.0
 20
80.0
 30
1.0
  0
SEQEND
  8
0
  0
CIRCLE
  8
0
 62
0
 10
162.5
 20
10.0
 30
1.0
 40
1.6
  0
CIRCLE
  8
0
 62
0
 10
162.5
 20
70.0
 30
1.0
 40
1.6
  0
CIRCLE
  8
0
 62
0
 10
117.5
 20
10.0
 30
1.0
 40
1.6
  0
CIRCLE
  8
0
 62
0
 10
117.5
 20
70.0
 30
1.0
 40
1.6
  0
ENDBLK
  0
ENDSEC
  0
SECTION
  2
ENTITIES
  0
INSERT
  2
FUSION_CS001
  8
0
 62
0
 10
0.0
 20
0.0
 30
0.0
  0
INSERT
  2
FUSION_CS
  8
0
 62
0
 10
0.0
 20
0.0
 30
0.0
  0
ENDSEC
  0
EOF
