G04 #@! TF.GenerationSoftware,KiCad,Pcbnew,5.1.8*
G04 #@! TF.CreationDate,2020-11-15T22:35:16+01:00*
G04 #@! TF.ProjectId,charging,63686172-6769-46e6-972e-6b696361645f,rev?*
G04 #@! TF.SameCoordinates,PX2fb84f0PY2fb84f0*
G04 #@! TF.FileFunction,Legend,Top*
G04 #@! TF.FilePolarity,Positive*
%FSLAX46Y46*%
G04 Gerber Fmt 4.6, Leading zero omitted, Abs format (unit mm)*
G04 Created by KiCad (PCBNEW 5.1.8) date 2020-11-15 22:35:16*
%MOMM*%
%LPD*%
G01*
G04 APERTURE LIST*
%ADD10C,0.120000*%
%ADD11C,0.150000*%
G04 APERTURE END LIST*
D10*
X3304000Y-8476000D02*
X3304000Y-7366000D01*
X4064000Y-8476000D02*
X3304000Y-8476000D01*
X4824000Y-6802529D02*
X4824000Y-6256000D01*
X4824000Y-8476000D02*
X4824000Y-7929471D01*
X4824000Y-6256000D02*
X6029000Y-6256000D01*
X4824000Y-8476000D02*
X6029000Y-8476000D01*
X6029000Y-7058470D02*
X6029000Y-6256000D01*
X6029000Y-8476000D02*
X6029000Y-7673530D01*
X3304000Y6256000D02*
X3304000Y7366000D01*
X4064000Y6256000D02*
X3304000Y6256000D01*
X4824000Y7929471D02*
X4824000Y8476000D01*
X4824000Y6256000D02*
X4824000Y6802529D01*
X4824000Y8476000D02*
X6029000Y8476000D01*
X4824000Y6256000D02*
X6029000Y6256000D01*
X6029000Y7673530D02*
X6029000Y8476000D01*
X6029000Y6256000D02*
X6029000Y7058470D01*
X-6094000Y6256000D02*
X-6094000Y7366000D01*
X-5334000Y6256000D02*
X-6094000Y6256000D01*
X-4574000Y7929471D02*
X-4574000Y8476000D01*
X-4574000Y6256000D02*
X-4574000Y6802529D01*
X-4574000Y8476000D02*
X-3369000Y8476000D01*
X-4574000Y6256000D02*
X-3369000Y6256000D01*
X-3369000Y7673530D02*
X-3369000Y8476000D01*
X-3369000Y6256000D02*
X-3369000Y7058470D01*
X-5840000Y-8476000D02*
X-5840000Y-7366000D01*
X-5080000Y-8476000D02*
X-5840000Y-8476000D01*
X-4320000Y-6802529D02*
X-4320000Y-6256000D01*
X-4320000Y-8476000D02*
X-4320000Y-7929471D01*
X-4320000Y-6256000D02*
X-3115000Y-6256000D01*
X-4320000Y-8476000D02*
X-3115000Y-8476000D01*
X-3115000Y-7058470D02*
X-3115000Y-6256000D01*
X-3115000Y-8476000D02*
X-3115000Y-7673530D01*
X-1840000Y4572000D02*
G75*
G03*
X-1840000Y4572000I-700000J0D01*
G01*
X6542000Y254000D02*
G75*
G03*
X6542000Y254000I-700000J0D01*
G01*
D11*
X2000000Y7800000D02*
G75*
G03*
X2000000Y7800000I-2000000J0D01*
G01*
X2000000Y-7800000D02*
G75*
G03*
X2000000Y-7800000I-2000000J0D01*
G01*
D10*
X3302724Y-141500D02*
X2793276Y-141500D01*
X3302724Y903500D02*
X2793276Y903500D01*
X3294000Y4667000D02*
X3954000Y4667000D01*
X1634000Y4667000D02*
X2294000Y4667000D01*
X1634000Y4667000D02*
X1634000Y2637000D01*
X3954000Y3257000D02*
X3954000Y4667000D01*
X-6241000Y-2113000D02*
G75*
G02*
X-5541000Y-1413000I700000J0D01*
G01*
X-5541000Y-3413000D02*
G75*
G02*
X-6241000Y-2713000I0J700000D01*
G01*
X-3441000Y-2713000D02*
G75*
G02*
X-4141000Y-3413000I-700000J0D01*
G01*
X-4141000Y-1413000D02*
G75*
G02*
X-3441000Y-2113000I0J-700000D01*
G01*
X-6241000Y-2713000D02*
X-6241000Y-2113000D01*
X-4141000Y-3413000D02*
X-5541000Y-3413000D01*
X-3441000Y-2113000D02*
X-3441000Y-2713000D01*
X-5541000Y-1413000D02*
X-4141000Y-1413000D01*
X-4965000Y-2713000D02*
G75*
G02*
X-5665000Y-3413000I-700000J0D01*
G01*
X-5665000Y-1413000D02*
G75*
G02*
X-4965000Y-2113000I0J-700000D01*
G01*
X-7765000Y-2113000D02*
G75*
G02*
X-7065000Y-1413000I700000J0D01*
G01*
X-7065000Y-3413000D02*
G75*
G02*
X-7765000Y-2713000I0J700000D01*
G01*
X-4965000Y-2113000D02*
X-4965000Y-2713000D01*
X-7065000Y-1413000D02*
X-5665000Y-1413000D01*
X-7765000Y-2713000D02*
X-7765000Y-2113000D01*
X-5665000Y-3413000D02*
X-7065000Y-3413000D01*
X-3443500Y1269276D02*
X-3443500Y1778724D01*
X-2398500Y1269276D02*
X-2398500Y1778724D01*
X3799000Y-4404000D02*
X5599000Y-4404000D01*
X5599000Y-1184000D02*
X3149000Y-1184000D01*
X6095276Y3443500D02*
X6604724Y3443500D01*
X6095276Y2398500D02*
X6604724Y2398500D01*
X-7325000Y2297000D02*
X-7325000Y497000D01*
X-4105000Y497000D02*
X-4105000Y3447000D01*
X-1055000Y-640000D02*
X-2755000Y-640000D01*
X-2755000Y-640000D02*
X-2755000Y-3790000D01*
X-1055000Y-640000D02*
X-1055000Y-3790000D01*
X-6115267Y5336000D02*
X-5822733Y5336000D01*
X-6115267Y4316000D02*
X-5822733Y4316000D01*
X7150000Y5561000D02*
X4690000Y5561000D01*
X4690000Y5561000D02*
X4690000Y4091000D01*
X4690000Y4091000D02*
X7150000Y4091000D01*
X2161000Y-2393733D02*
X2161000Y-2686267D01*
X1141000Y-2393733D02*
X1141000Y-2686267D01*
X6912000Y-5513428D02*
X6912000Y-5942000D01*
X6883428Y-6027714D01*
X6826285Y-6084857D01*
X6740571Y-6113428D01*
X6683428Y-6113428D01*
X7454857Y-5713428D02*
X7454857Y-6113428D01*
X7312000Y-5484857D02*
X7169142Y-5913428D01*
X7540571Y-5913428D01*
X6912000Y6424572D02*
X6912000Y5996000D01*
X6883428Y5910286D01*
X6826285Y5853143D01*
X6740571Y5824572D01*
X6683428Y5824572D01*
X7483428Y6424572D02*
X7197714Y6424572D01*
X7169142Y6138858D01*
X7197714Y6167429D01*
X7254857Y6196000D01*
X7397714Y6196000D01*
X7454857Y6167429D01*
X7483428Y6138858D01*
X7512000Y6081715D01*
X7512000Y5938858D01*
X7483428Y5881715D01*
X7454857Y5853143D01*
X7397714Y5824572D01*
X7254857Y5824572D01*
X7197714Y5853143D01*
X7169142Y5881715D01*
D11*
X-7312000Y6170572D02*
X-7312000Y5742000D01*
X-7340572Y5656286D01*
X-7397715Y5599143D01*
X-7483429Y5570572D01*
X-7540572Y5570572D01*
X-7083429Y6170572D02*
X-6712000Y6170572D01*
X-6912000Y5942000D01*
X-6826286Y5942000D01*
X-6769143Y5913429D01*
X-6740572Y5884858D01*
X-6712000Y5827715D01*
X-6712000Y5684858D01*
X-6740572Y5627715D01*
X-6769143Y5599143D01*
X-6826286Y5570572D01*
X-6997715Y5570572D01*
X-7054858Y5599143D01*
X-7083429Y5627715D01*
D10*
X-7058000Y-5767428D02*
X-7058000Y-6196000D01*
X-7086572Y-6281714D01*
X-7143715Y-6338857D01*
X-7229429Y-6367428D01*
X-7286572Y-6367428D01*
X-6800858Y-5824571D02*
X-6772286Y-5796000D01*
X-6715143Y-5767428D01*
X-6572286Y-5767428D01*
X-6515143Y-5796000D01*
X-6486572Y-5824571D01*
X-6458000Y-5881714D01*
X-6458000Y-5938857D01*
X-6486572Y-6024571D01*
X-6829429Y-6367428D01*
X-6458000Y-6367428D01*
X-5072000Y-3989428D02*
X-5072000Y-4418000D01*
X-5100572Y-4503714D01*
X-5157715Y-4560857D01*
X-5243429Y-4589428D01*
X-5300572Y-4589428D01*
X-4786286Y-4589428D02*
X-4786286Y-3989428D01*
X-4557715Y-3989428D01*
X-4500572Y-4018000D01*
X-4472000Y-4046571D01*
X-4443429Y-4103714D01*
X-4443429Y-4189428D01*
X-4472000Y-4246571D01*
X-4500572Y-4275142D01*
X-4557715Y-4303714D01*
X-4786286Y-4303714D01*
X-3872000Y-4589428D02*
X-4214858Y-4589428D01*
X-4043429Y-4589428D02*
X-4043429Y-3989428D01*
X-4100572Y-4075142D01*
X-4157715Y-4132285D01*
X-4214858Y-4160857D01*
X-7358000Y-3989428D02*
X-7358000Y-4418000D01*
X-7386572Y-4503714D01*
X-7443715Y-4560857D01*
X-7529429Y-4589428D01*
X-7586572Y-4589428D01*
X-7072286Y-4589428D02*
X-7072286Y-3989428D01*
X-6843715Y-3989428D01*
X-6786572Y-4018000D01*
X-6758000Y-4046571D01*
X-6729429Y-4103714D01*
X-6729429Y-4189428D01*
X-6758000Y-4246571D01*
X-6786572Y-4275142D01*
X-6843715Y-4303714D01*
X-7072286Y-4303714D01*
X-6500858Y-4046571D02*
X-6472286Y-4018000D01*
X-6415143Y-3989428D01*
X-6272286Y-3989428D01*
X-6215143Y-4018000D01*
X-6186572Y-4046571D01*
X-6158000Y-4103714D01*
X-6158000Y-4160857D01*
X-6186572Y-4246571D01*
X-6529429Y-4589428D01*
X-6158000Y-4589428D01*
X4368857Y-4751428D02*
X4368857Y-5237142D01*
X4397428Y-5294285D01*
X4426000Y-5322857D01*
X4483142Y-5351428D01*
X4597428Y-5351428D01*
X4654571Y-5322857D01*
X4683142Y-5294285D01*
X4711714Y-5237142D01*
X4711714Y-4751428D01*
X5311714Y-5351428D02*
X4968857Y-5351428D01*
X5140285Y-5351428D02*
X5140285Y-4751428D01*
X5083142Y-4837142D01*
X5026000Y-4894285D01*
X4968857Y-4922857D01*
X-3759143Y-433428D02*
X-3759143Y-919142D01*
X-3730572Y-976285D01*
X-3702000Y-1004857D01*
X-3644858Y-1033428D01*
X-3530572Y-1033428D01*
X-3473429Y-1004857D01*
X-3444858Y-976285D01*
X-3416286Y-919142D01*
X-3416286Y-433428D01*
X-3159143Y-490571D02*
X-3130572Y-462000D01*
X-3073429Y-433428D01*
X-2930572Y-433428D01*
X-2873429Y-462000D01*
X-2844858Y-490571D01*
X-2816286Y-547714D01*
X-2816286Y-604857D01*
X-2844858Y-690571D01*
X-3187715Y-1033428D01*
X-2816286Y-1033428D01*
M02*
