M48
INCH,TZ
T1C0.0157
T2C0.0197
T3C0.0256
T4C0.0315
%
G90
G05
T1
X-649Y-1773
X445Y-145
X800Y-1700
T2
X-1000Y1800
X2300Y100
T3
X1600Y-2900
X2100Y-2900
X-2000Y-2900
X-1500Y-2900
X-2100Y2900
X-1600Y2900
X1600Y2900
X2100Y2900
T4
X0Y1465
X0Y465
X0Y-535
X0Y-1535
T4
G00X-3377Y-88
M15
G01X-3377Y188
M16
G05
G00X3277Y-88
M15
G01X3277Y188
M16
G05
T0
M30
