G04 #@! TF.GenerationSoftware,KiCad,Pcbnew,5.1.8*
G04 #@! TF.CreationDate,2020-11-15T22:35:16+01:00*
G04 #@! TF.ProjectId,charging,63686172-6769-46e6-972e-6b696361645f,rev?*
G04 #@! TF.SameCoordinates,PX2fb84f0PY2fb84f0*
G04 #@! TF.FileFunction,Legend,Bot*
G04 #@! TF.FilePolarity,Positive*
%FSLAX46Y46*%
G04 Gerber Fmt 4.6, Leading zero omitted, Abs format (unit mm)*
G04 Created by KiCad (PCBNEW 5.1.8) date 2020-11-15 22:35:16*
%MOMM*%
%LPD*%
G01*
G04 APERTURE LIST*
%ADD10C,0.120000*%
G04 APERTURE END LIST*
D10*
X-1782858Y3376572D02*
X-2125715Y3376572D01*
X-1954286Y2776572D02*
X-1954286Y3376572D01*
X-2325715Y2776572D02*
X-2325715Y3376572D01*
X-2554286Y3376572D01*
X-2611429Y3348000D01*
X-2640000Y3319429D01*
X-2668572Y3262286D01*
X-2668572Y3176572D01*
X-2640000Y3119429D01*
X-2611429Y3090858D01*
X-2554286Y3062286D01*
X-2325715Y3062286D01*
X-2897143Y3319429D02*
X-2925715Y3348000D01*
X-2982858Y3376572D01*
X-3125715Y3376572D01*
X-3182858Y3348000D01*
X-3211429Y3319429D01*
X-3240000Y3262286D01*
X-3240000Y3205143D01*
X-3211429Y3119429D01*
X-2868572Y2776572D01*
X-3240000Y2776572D01*
X6599142Y2030572D02*
X6256285Y2030572D01*
X6427714Y1430572D02*
X6427714Y2030572D01*
X6056285Y1430572D02*
X6056285Y2030572D01*
X5827714Y2030572D01*
X5770571Y2002000D01*
X5742000Y1973429D01*
X5713428Y1916286D01*
X5713428Y1830572D01*
X5742000Y1773429D01*
X5770571Y1744858D01*
X5827714Y1716286D01*
X6056285Y1716286D01*
X5142000Y1430572D02*
X5484857Y1430572D01*
X5313428Y1430572D02*
X5313428Y2030572D01*
X5370571Y1944858D01*
X5427714Y1887715D01*
X5484857Y1859143D01*
M02*
