G04 #@! TF.GenerationSoftware,KiCad,Pcbnew,5.1.8*
G04 #@! TF.CreationDate,2020-11-15T22:35:16+01:00*
G04 #@! TF.ProjectId,charging,63686172-6769-46e6-972e-6b696361645f,rev?*
G04 #@! TF.SameCoordinates,PX2fb84f0PY2fb84f0*
G04 #@! TF.FileFunction,Copper,L1,Top*
G04 #@! TF.FilePolarity,Positive*
%FSLAX46Y46*%
G04 Gerber Fmt 4.6, Leading zero omitted, Abs format (unit mm)*
G04 Created by KiCad (PCBNEW 5.1.8) date 2020-11-15 22:35:16*
%MOMM*%
%LPD*%
G01*
G04 APERTURE LIST*
G04 #@! TA.AperFunction,EtchedComponent*
%ADD10C,0.100000*%
G04 #@! TD*
G04 #@! TA.AperFunction,ComponentPad*
%ADD11O,1.000000X1.000000*%
G04 #@! TD*
G04 #@! TA.AperFunction,ComponentPad*
%ADD12R,1.000000X1.000000*%
G04 #@! TD*
G04 #@! TA.AperFunction,ComponentPad*
%ADD13O,2.000000X3.000000*%
G04 #@! TD*
G04 #@! TA.AperFunction,ComponentPad*
%ADD14C,1.000000*%
G04 #@! TD*
G04 #@! TA.AperFunction,SMDPad,CuDef*
%ADD15R,0.450000X0.700000*%
G04 #@! TD*
G04 #@! TA.AperFunction,SMDPad,CuDef*
%ADD16C,0.100000*%
G04 #@! TD*
G04 #@! TA.AperFunction,SMDPad,CuDef*
%ADD17R,1.060000X0.650000*%
G04 #@! TD*
G04 #@! TA.AperFunction,SMDPad,CuDef*
%ADD18R,0.650000X1.560000*%
G04 #@! TD*
G04 #@! TA.AperFunction,SMDPad,CuDef*
%ADD19R,1.000000X1.000000*%
G04 #@! TD*
G04 #@! TA.AperFunction,ViaPad*
%ADD20C,0.800000*%
G04 #@! TD*
G04 #@! TA.AperFunction,Conductor*
%ADD21C,0.250000*%
G04 #@! TD*
G04 APERTURE END LIST*
D10*
G36*
X-4591000Y-2113000D02*
G01*
X-5091000Y-2113000D01*
X-5091000Y-2713000D01*
X-4591000Y-2713000D01*
X-4591000Y-2113000D01*
G37*
G36*
X-6615000Y-2713000D02*
G01*
X-6115000Y-2713000D01*
X-6115000Y-2113000D01*
X-6615000Y-2113000D01*
X-6615000Y-2713000D01*
G37*
D11*
X5334000Y-7366000D03*
D12*
X4064000Y-7366000D03*
D11*
X5334000Y7366000D03*
D12*
X4064000Y7366000D03*
D11*
X-4064000Y7366000D03*
D12*
X-5334000Y7366000D03*
D11*
X-3810000Y-7366000D03*
D12*
X-5080000Y-7366000D03*
D13*
X8323000Y127000D03*
X-8577000Y127000D03*
D14*
X-2540000Y4572000D03*
X5842000Y254000D03*
G04 #@! TA.AperFunction,SMDPad,CuDef*
G36*
G01*
X2623000Y618500D02*
X2623000Y143500D01*
G75*
G02*
X2385500Y-94000I-237500J0D01*
G01*
X1885500Y-94000D01*
G75*
G02*
X1648000Y143500I0J237500D01*
G01*
X1648000Y618500D01*
G75*
G02*
X1885500Y856000I237500J0D01*
G01*
X2385500Y856000D01*
G75*
G02*
X2623000Y618500I0J-237500D01*
G01*
G37*
G04 #@! TD.AperFunction*
G04 #@! TA.AperFunction,SMDPad,CuDef*
G36*
G01*
X4448000Y618500D02*
X4448000Y143500D01*
G75*
G02*
X4210500Y-94000I-237500J0D01*
G01*
X3710500Y-94000D01*
G75*
G02*
X3473000Y143500I0J237500D01*
G01*
X3473000Y618500D01*
G75*
G02*
X3710500Y856000I237500J0D01*
G01*
X4210500Y856000D01*
G75*
G02*
X4448000Y618500I0J-237500D01*
G01*
G37*
G04 #@! TD.AperFunction*
D15*
X2794000Y4937000D03*
X3444000Y2937000D03*
X2144000Y2937000D03*
G04 #@! TA.AperFunction,SMDPad,CuDef*
D16*
G36*
X-4991000Y-3163000D02*
G01*
X-5491000Y-3163000D01*
X-5491000Y-3162398D01*
X-5515534Y-3162398D01*
X-5564365Y-3157588D01*
X-5612490Y-3148016D01*
X-5659445Y-3133772D01*
X-5704778Y-3114995D01*
X-5748051Y-3091864D01*
X-5788850Y-3064604D01*
X-5826779Y-3033476D01*
X-5861476Y-2998779D01*
X-5892604Y-2960850D01*
X-5919864Y-2920051D01*
X-5942995Y-2876778D01*
X-5961772Y-2831445D01*
X-5976016Y-2784490D01*
X-5985588Y-2736365D01*
X-5990398Y-2687534D01*
X-5990398Y-2663000D01*
X-5991000Y-2663000D01*
X-5991000Y-2163000D01*
X-5990398Y-2163000D01*
X-5990398Y-2138466D01*
X-5985588Y-2089635D01*
X-5976016Y-2041510D01*
X-5961772Y-1994555D01*
X-5942995Y-1949222D01*
X-5919864Y-1905949D01*
X-5892604Y-1865150D01*
X-5861476Y-1827221D01*
X-5826779Y-1792524D01*
X-5788850Y-1761396D01*
X-5748051Y-1734136D01*
X-5704778Y-1711005D01*
X-5659445Y-1692228D01*
X-5612490Y-1677984D01*
X-5564365Y-1668412D01*
X-5515534Y-1663602D01*
X-5491000Y-1663602D01*
X-5491000Y-1663000D01*
X-4991000Y-1663000D01*
X-4991000Y-3163000D01*
G37*
G04 #@! TD.AperFunction*
G04 #@! TA.AperFunction,SMDPad,CuDef*
G36*
X-4191000Y-1663602D02*
G01*
X-4166466Y-1663602D01*
X-4117635Y-1668412D01*
X-4069510Y-1677984D01*
X-4022555Y-1692228D01*
X-3977222Y-1711005D01*
X-3933949Y-1734136D01*
X-3893150Y-1761396D01*
X-3855221Y-1792524D01*
X-3820524Y-1827221D01*
X-3789396Y-1865150D01*
X-3762136Y-1905949D01*
X-3739005Y-1949222D01*
X-3720228Y-1994555D01*
X-3705984Y-2041510D01*
X-3696412Y-2089635D01*
X-3691602Y-2138466D01*
X-3691602Y-2163000D01*
X-3691000Y-2163000D01*
X-3691000Y-2663000D01*
X-3691602Y-2663000D01*
X-3691602Y-2687534D01*
X-3696412Y-2736365D01*
X-3705984Y-2784490D01*
X-3720228Y-2831445D01*
X-3739005Y-2876778D01*
X-3762136Y-2920051D01*
X-3789396Y-2960850D01*
X-3820524Y-2998779D01*
X-3855221Y-3033476D01*
X-3893150Y-3064604D01*
X-3933949Y-3091864D01*
X-3977222Y-3114995D01*
X-4022555Y-3133772D01*
X-4069510Y-3148016D01*
X-4117635Y-3157588D01*
X-4166466Y-3162398D01*
X-4191000Y-3162398D01*
X-4191000Y-3163000D01*
X-4691000Y-3163000D01*
X-4691000Y-1663000D01*
X-4191000Y-1663000D01*
X-4191000Y-1663602D01*
G37*
G04 #@! TD.AperFunction*
G04 #@! TA.AperFunction,SMDPad,CuDef*
G36*
X-6215000Y-1663000D02*
G01*
X-5715000Y-1663000D01*
X-5715000Y-1663602D01*
X-5690466Y-1663602D01*
X-5641635Y-1668412D01*
X-5593510Y-1677984D01*
X-5546555Y-1692228D01*
X-5501222Y-1711005D01*
X-5457949Y-1734136D01*
X-5417150Y-1761396D01*
X-5379221Y-1792524D01*
X-5344524Y-1827221D01*
X-5313396Y-1865150D01*
X-5286136Y-1905949D01*
X-5263005Y-1949222D01*
X-5244228Y-1994555D01*
X-5229984Y-2041510D01*
X-5220412Y-2089635D01*
X-5215602Y-2138466D01*
X-5215602Y-2163000D01*
X-5215000Y-2163000D01*
X-5215000Y-2663000D01*
X-5215602Y-2663000D01*
X-5215602Y-2687534D01*
X-5220412Y-2736365D01*
X-5229984Y-2784490D01*
X-5244228Y-2831445D01*
X-5263005Y-2876778D01*
X-5286136Y-2920051D01*
X-5313396Y-2960850D01*
X-5344524Y-2998779D01*
X-5379221Y-3033476D01*
X-5417150Y-3064604D01*
X-5457949Y-3091864D01*
X-5501222Y-3114995D01*
X-5546555Y-3133772D01*
X-5593510Y-3148016D01*
X-5641635Y-3157588D01*
X-5690466Y-3162398D01*
X-5715000Y-3162398D01*
X-5715000Y-3163000D01*
X-6215000Y-3163000D01*
X-6215000Y-1663000D01*
G37*
G04 #@! TD.AperFunction*
G04 #@! TA.AperFunction,SMDPad,CuDef*
G36*
X-7015000Y-3162398D02*
G01*
X-7039534Y-3162398D01*
X-7088365Y-3157588D01*
X-7136490Y-3148016D01*
X-7183445Y-3133772D01*
X-7228778Y-3114995D01*
X-7272051Y-3091864D01*
X-7312850Y-3064604D01*
X-7350779Y-3033476D01*
X-7385476Y-2998779D01*
X-7416604Y-2960850D01*
X-7443864Y-2920051D01*
X-7466995Y-2876778D01*
X-7485772Y-2831445D01*
X-7500016Y-2784490D01*
X-7509588Y-2736365D01*
X-7514398Y-2687534D01*
X-7514398Y-2663000D01*
X-7515000Y-2663000D01*
X-7515000Y-2163000D01*
X-7514398Y-2163000D01*
X-7514398Y-2138466D01*
X-7509588Y-2089635D01*
X-7500016Y-2041510D01*
X-7485772Y-1994555D01*
X-7466995Y-1949222D01*
X-7443864Y-1905949D01*
X-7416604Y-1865150D01*
X-7385476Y-1827221D01*
X-7350779Y-1792524D01*
X-7312850Y-1761396D01*
X-7272051Y-1734136D01*
X-7228778Y-1711005D01*
X-7183445Y-1692228D01*
X-7136490Y-1677984D01*
X-7088365Y-1668412D01*
X-7039534Y-1663602D01*
X-7015000Y-1663602D01*
X-7015000Y-1663000D01*
X-6515000Y-1663000D01*
X-6515000Y-3163000D01*
X-7015000Y-3163000D01*
X-7015000Y-3162398D01*
G37*
G04 #@! TD.AperFunction*
G04 #@! TA.AperFunction,SMDPad,CuDef*
G36*
G01*
X-2683500Y1949000D02*
X-3158500Y1949000D01*
G75*
G02*
X-3396000Y2186500I0J237500D01*
G01*
X-3396000Y2686500D01*
G75*
G02*
X-3158500Y2924000I237500J0D01*
G01*
X-2683500Y2924000D01*
G75*
G02*
X-2446000Y2686500I0J-237500D01*
G01*
X-2446000Y2186500D01*
G75*
G02*
X-2683500Y1949000I-237500J0D01*
G01*
G37*
G04 #@! TD.AperFunction*
G04 #@! TA.AperFunction,SMDPad,CuDef*
G36*
G01*
X-2683500Y124000D02*
X-3158500Y124000D01*
G75*
G02*
X-3396000Y361500I0J237500D01*
G01*
X-3396000Y861500D01*
G75*
G02*
X-3158500Y1099000I237500J0D01*
G01*
X-2683500Y1099000D01*
G75*
G02*
X-2446000Y861500I0J-237500D01*
G01*
X-2446000Y361500D01*
G75*
G02*
X-2683500Y124000I-237500J0D01*
G01*
G37*
G04 #@! TD.AperFunction*
D17*
X5799000Y-1844000D03*
X5799000Y-3744000D03*
X3599000Y-3744000D03*
X3599000Y-2794000D03*
X3599000Y-1844000D03*
G04 #@! TA.AperFunction,SMDPad,CuDef*
G36*
G01*
X6775000Y2683500D02*
X6775000Y3158500D01*
G75*
G02*
X7012500Y3396000I237500J0D01*
G01*
X7512500Y3396000D01*
G75*
G02*
X7750000Y3158500I0J-237500D01*
G01*
X7750000Y2683500D01*
G75*
G02*
X7512500Y2446000I-237500J0D01*
G01*
X7012500Y2446000D01*
G75*
G02*
X6775000Y2683500I0J237500D01*
G01*
G37*
G04 #@! TD.AperFunction*
G04 #@! TA.AperFunction,SMDPad,CuDef*
G36*
G01*
X4950000Y2683500D02*
X4950000Y3158500D01*
G75*
G02*
X5187500Y3396000I237500J0D01*
G01*
X5687500Y3396000D01*
G75*
G02*
X5925000Y3158500I0J-237500D01*
G01*
X5925000Y2683500D01*
G75*
G02*
X5687500Y2446000I-237500J0D01*
G01*
X5187500Y2446000D01*
G75*
G02*
X4950000Y2683500I0J237500D01*
G01*
G37*
G04 #@! TD.AperFunction*
D18*
X-5715000Y47000D03*
X-4765000Y47000D03*
X-6665000Y47000D03*
X-6665000Y2747000D03*
X-5715000Y2747000D03*
X-4765000Y2747000D03*
D19*
X-1905000Y-3790000D03*
X-1905000Y-1290000D03*
G04 #@! TA.AperFunction,SMDPad,CuDef*
G36*
G01*
X-5644000Y4588500D02*
X-5644000Y5063500D01*
G75*
G02*
X-5406500Y5301000I237500J0D01*
G01*
X-4806500Y5301000D01*
G75*
G02*
X-4569000Y5063500I0J-237500D01*
G01*
X-4569000Y4588500D01*
G75*
G02*
X-4806500Y4351000I-237500J0D01*
G01*
X-5406500Y4351000D01*
G75*
G02*
X-5644000Y4588500I0J237500D01*
G01*
G37*
G04 #@! TD.AperFunction*
G04 #@! TA.AperFunction,SMDPad,CuDef*
G36*
G01*
X-7369000Y4588500D02*
X-7369000Y5063500D01*
G75*
G02*
X-7131500Y5301000I237500J0D01*
G01*
X-6531500Y5301000D01*
G75*
G02*
X-6294000Y5063500I0J-237500D01*
G01*
X-6294000Y4588500D01*
G75*
G02*
X-6531500Y4351000I-237500J0D01*
G01*
X-7131500Y4351000D01*
G75*
G02*
X-7369000Y4588500I0J237500D01*
G01*
G37*
G04 #@! TD.AperFunction*
G04 #@! TA.AperFunction,SMDPad,CuDef*
G36*
G01*
X6700000Y4588500D02*
X6700000Y5063500D01*
G75*
G02*
X6937500Y5301000I237500J0D01*
G01*
X7512500Y5301000D01*
G75*
G02*
X7750000Y5063500I0J-237500D01*
G01*
X7750000Y4588500D01*
G75*
G02*
X7512500Y4351000I-237500J0D01*
G01*
X6937500Y4351000D01*
G75*
G02*
X6700000Y4588500I0J237500D01*
G01*
G37*
G04 #@! TD.AperFunction*
G04 #@! TA.AperFunction,SMDPad,CuDef*
G36*
G01*
X4950000Y4588500D02*
X4950000Y5063500D01*
G75*
G02*
X5187500Y5301000I237500J0D01*
G01*
X5762500Y5301000D01*
G75*
G02*
X6000000Y5063500I0J-237500D01*
G01*
X6000000Y4588500D01*
G75*
G02*
X5762500Y4351000I-237500J0D01*
G01*
X5187500Y4351000D01*
G75*
G02*
X4950000Y4588500I0J237500D01*
G01*
G37*
G04 #@! TD.AperFunction*
G04 #@! TA.AperFunction,SMDPad,CuDef*
G36*
G01*
X1413500Y-2865000D02*
X1888500Y-2865000D01*
G75*
G02*
X2126000Y-3102500I0J-237500D01*
G01*
X2126000Y-3702500D01*
G75*
G02*
X1888500Y-3940000I-237500J0D01*
G01*
X1413500Y-3940000D01*
G75*
G02*
X1176000Y-3702500I0J237500D01*
G01*
X1176000Y-3102500D01*
G75*
G02*
X1413500Y-2865000I237500J0D01*
G01*
G37*
G04 #@! TD.AperFunction*
G04 #@! TA.AperFunction,SMDPad,CuDef*
G36*
G01*
X1413500Y-1140000D02*
X1888500Y-1140000D01*
G75*
G02*
X2126000Y-1377500I0J-237500D01*
G01*
X2126000Y-1977500D01*
G75*
G02*
X1888500Y-2215000I-237500J0D01*
G01*
X1413500Y-2215000D01*
G75*
G02*
X1176000Y-1977500I0J237500D01*
G01*
X1176000Y-1377500D01*
G75*
G02*
X1413500Y-1140000I237500J0D01*
G01*
G37*
G04 #@! TD.AperFunction*
D20*
X1129405Y-367405D03*
X2032000Y-4318000D03*
X-1647882Y-4502474D03*
D21*
X1651000Y-3402500D02*
X2259500Y-2794000D01*
X-5715000Y4217500D02*
X-5106500Y4826000D01*
X-5715000Y2747000D02*
X-5715000Y4217500D01*
X2259500Y-2794000D02*
X3599000Y-2794000D01*
X-4064000Y5868500D02*
X-4064000Y7620000D01*
X-5106500Y4826000D02*
X-4064000Y5868500D01*
X2135500Y381000D02*
X1387095Y-367405D01*
X1387095Y-367405D02*
X1129405Y-367405D01*
X1651000Y-3402500D02*
X1651000Y-3937000D01*
X1651000Y-3937000D02*
X2032000Y-4318000D01*
X5475000Y7479000D02*
X5334000Y7620000D01*
X5334000Y4967000D02*
X5475000Y4826000D01*
X5475000Y7225000D02*
X5334000Y7366000D01*
X5475000Y4826000D02*
X5475000Y7225000D01*
X-3852672Y-3488010D02*
X-5163582Y-3488010D01*
X-5790001Y1152001D02*
X-8034999Y1152001D01*
X-5715000Y1077000D02*
X-5790001Y1152001D01*
X-5715000Y47000D02*
X-5715000Y1077000D01*
X-5163582Y-3488010D02*
X-5491000Y-3160592D01*
X-5715000Y47000D02*
X-5715000Y-2189000D01*
X-5715000Y-2189000D02*
X-5491000Y-2413000D01*
X-8034999Y1152001D02*
X-8096990Y1090010D01*
X-5491000Y-3160592D02*
X-5491000Y-2413000D01*
X-2921000Y611500D02*
X-2921000Y-2556338D01*
X-2921000Y-2556338D02*
X-3852672Y-3488010D01*
X576489Y104999D02*
X-2414499Y104999D01*
X3408490Y2937000D02*
X576489Y104999D01*
X3444000Y2937000D02*
X3408490Y2937000D01*
X-2414499Y104999D02*
X-2921000Y611500D01*
X-5080000Y-3048000D02*
X-5715000Y-2413000D01*
X-5079485Y-5587485D02*
X-5080000Y-5588000D01*
X-5080000Y-7366000D02*
X-5080000Y-5588000D01*
X4064000Y-6616000D02*
X3556000Y-5334000D01*
X4064000Y-7366000D02*
X4064000Y-6616000D01*
X3556000Y-3787000D02*
X3599000Y-3744000D01*
X3556000Y-5334000D02*
X3556000Y-3787000D01*
X-5080000Y-5080000D02*
X-5080000Y-3048000D01*
X3556000Y-5334000D02*
X3449484Y-5227484D01*
X-5080000Y-5588000D02*
X-5080000Y-5080000D01*
X3449484Y-5227484D02*
X-4932516Y-5227484D01*
X-4932516Y-5227484D02*
X-5080000Y-5080000D01*
X1651000Y-1677500D02*
X3432500Y-1677500D01*
X3599000Y-1844000D02*
X4379000Y-1844000D01*
X5799000Y-3264000D02*
X5799000Y-3744000D01*
X4379000Y-1844000D02*
X5799000Y-3264000D01*
X3432500Y-1677500D02*
X3599000Y-1844000D01*
X-759999Y-2435001D02*
X-1905000Y-1290000D01*
X893499Y-2435001D02*
X-759999Y-2435001D01*
X1651000Y-1677500D02*
X893499Y-2435001D01*
X-1905000Y-3790000D02*
X-1905000Y-4245356D01*
X-1905000Y-4245356D02*
X-1647882Y-4502474D01*
X-6831500Y4826000D02*
X-6831500Y2259500D01*
X-6831500Y6122500D02*
X-5334000Y7620000D01*
X-6831500Y4826000D02*
X-6831500Y6122500D01*
X4064000Y6207000D02*
X2794000Y4937000D01*
X4064000Y7620000D02*
X4064000Y6207000D01*
X3421500Y4937000D02*
X5437500Y2921000D01*
X2794000Y4937000D02*
X3421500Y4937000D01*
X6858000Y1016000D02*
X5437500Y2921000D01*
X6858000Y-4826000D02*
X6858000Y1016000D01*
X5334000Y-7366000D02*
X6858000Y-4826000D01*
X-4765000Y47000D02*
X-4191000Y-527000D01*
X-4191000Y-527000D02*
X-4191000Y-2413000D01*
X-6665000Y47000D02*
X-6665000Y-2063000D01*
X-6665000Y-2063000D02*
X-7015000Y-2413000D01*
X-2921000Y2436500D02*
X-4454500Y2436500D01*
X-4454500Y2436500D02*
X-4765000Y2747000D01*
X-2712501Y2644999D02*
X-2921000Y2436500D01*
X1851999Y2644999D02*
X-2712501Y2644999D01*
X2144000Y2937000D02*
X1851999Y2644999D01*
X-2921000Y4191000D02*
X-2540000Y4572000D01*
X-2921000Y2436500D02*
X-2921000Y4191000D01*
X3960500Y381000D02*
X3960500Y-5500D01*
X3960500Y-5500D02*
X5799000Y-1844000D01*
X4087500Y254000D02*
X3960500Y381000D01*
X5842000Y254000D02*
X4087500Y254000D01*
X7262500Y4788500D02*
X7225000Y4826000D01*
X7262500Y2921000D02*
X7262500Y4788500D01*
M02*
